<?xml version="1.0" encoding="UTF-8" standalone="no"?>
<svg
   xmlns:dc="http://purl.org/dc/elements/1.1/"
   xmlns:cc="http://creativecommons.org/ns#"
   xmlns:rdf="http://www.w3.org/1999/02/22-rdf-syntax-ns#"
   xmlns:svg="http://www.w3.org/2000/svg"
   xmlns="http://www.w3.org/2000/svg"
   xmlns:sodipodi="http://sodipodi.sourceforge.net/DTD/sodipodi-0.dtd"
   xmlns:inkscape="http://www.inkscape.org/namespaces/inkscape"
   version="1.1"
   id="svg883"
   width="96in"
   height="48in"
   viewBox="0 0 9216.0003 4608"
   sodipodi:docname="twohands.svg"
   inkscape:version="1.1-dev (f9311a1, 2019-12-25)">
  <metadata
     id="metadata889">
    <rdf:RDF>
      <cc:Work
         rdf:about="">
        <dc:format>image/svg+xml</dc:format>
        <dc:type
           rdf:resource="http://purl.org/dc/dcmitype/StillImage" />
        <dc:title />
      </cc:Work>
    </rdf:RDF>
  </metadata>
  <defs
     id="defs887" />
  <sodipodi:namedview
     showguides="false"
     inkscape:document-units="in"
     units="in"
     pagecolor="#ffffff"
     bordercolor="#666666"
     inkscape:document-rotation="0"
     borderopacity="1"
     objecttolerance="10"
     gridtolerance="10"
     guidetolerance="10"
     inkscape:pageopacity="0"
     inkscape:pageshadow="2"
     inkscape:window-width="1680"
     inkscape:window-height="1005"
     id="namedview885"
     showgrid="false"
     inkscape:zoom="0.16435902"
     inkscape:cx="3434.4632"
     inkscape:cy="2277.678"
     inkscape:window-x="-2"
     inkscape:window-y="23"
     inkscape:window-maximized="0"
     inkscape:current-layer="layer1" />
  <g
     style="display:inline"
     inkscape:groupmode="layer"
     id="layer1"
     inkscape:label="Cut">
    <path
       inkscape:connector-curvature="0"
       id="path895-7"
       d="m 946.22487,952.20975 c 7.00379,1.67252 43.88243,-14.18675 52.28713,-13.51917 11.0308,0.87717 16.4075,2.19554 19.3304,4.74005 2.2269,1.93949 5.4772,3.52544 7.2225,3.52544 1.7451,0 6.0239,1.716 9.5089,3.81321 3.4844,2.0971 8.2567,3.81831 10.6053,3.82487 2.3484,0 6.369,1.24084 8.9342,2.74351 2.5656,1.50311 10.0547,3.32872 16.6426,4.05795 6.5883,0.72878 14.7749,2.92606 18.1926,4.88188 3.4168,1.95666 8.5454,3.55687 11.3975,3.55687 2.851,0 7.8468,1.58612 11.1015,3.52487 3.6973,2.20149 11.4773,3.99293 20.7353,4.77349 8.149,0.6875 18.082,2.45043 22.073,3.91775 3.9897,1.4674 12.555,3.26567 19.0334,3.99551 6.4784,0.73065 13.3549,2.43779 15.2814,3.79579 1.9259,1.35708 8.0864,3.07119 13.6892,3.80879 5.6031,0.73734 12.685,2.50727 15.7375,3.93226 3.0518,1.42509 15.9465,3.47118 28.6545,4.54698 12.7073,1.0754 23.9907,2.782 25.0746,3.7917 1.0834,1.0093 8.7998,2.7883 17.1477,3.9531 8.3476,1.1648 15.7122,3.0892 16.3659,4.2762 0.7379,1.3417 10.1475,2.6016 24.8722,3.3302 17.0119,0.8426 24.8209,2 27.7178,4.1098 2.6384,1.9211 10.3528,3.3647 22.3036,4.1719 10.0497,0.6786 20.7499,2.3971 23.7798,3.8185 3.0296,1.4215 11.2204,3.2164 18.2022,3.9886 6.9824,0.7724 15.285,2.6203 18.4516,4.1055 3.1659,1.4856 8.1464,2.709 11.067,2.7186 2.921,0 12.7816,2.1544 21.9129,4.7665 9.1305,2.6121 17.917,4.7775 19.5256,4.8132 1.6084,0.06 5.98,1.7225 9.7158,3.7479 3.7353,2.0268 8.7015,3.7323 11.0364,3.7906 2.3345,0.056 7.5752,1.8035 11.6463,3.8775 4.0709,2.0746 10.1944,3.7713 13.6082,3.7713 3.4138,0 8.8702,1.5857 12.1245,3.5226 3.2549,1.937 9.981,4.0481 14.9481,4.6917 4.9668,0.6434 11.3766,2.4842 14.2437,4.0902 2.8674,1.6062 13.7024,5.1487 24.0782,7.8715 10.376,2.7235 23.7697,6.5907 29.7633,8.5936 5.9938,2.003 12.891,3.6414 15.3276,3.6414 2.4368,0 6.2476,1.4294 8.469,3.1766 2.5379,1.9961 9.4638,3.6808 18.6455,4.5348 8.0336,0.7471 18.2562,2.7494 22.7161,4.45 4.4599,1.7001 12.5003,3.0911 17.8669,3.0911 5.3668,0 13.9359,1.3433 19.0421,2.9851 5.1057,1.6417 15.0139,4.0521 22.0177,5.3578 7.0039,1.3045 14.2624,3.2997 16.13,4.4331 1.8677,1.1335 8.617,2.9664 14.9985,4.0731 6.3813,1.1069 12.4937,2.8208 13.5832,3.8082 1.0893,0.9866 6.1027,2.4166 11.1406,3.1778 5.0385,0.761 12.2967,2.9829 16.1303,4.9379 3.8335,1.9546 8.9108,3.5736 11.2826,3.5964 2.3719,0 8.819,1.36 14.3262,2.9703 5.5079,1.6109 15.7922,3.8006 22.8539,4.8666 7.0616,1.0659 15.8965,3.1231 19.6316,4.5707 3.7354,1.4476 12.8009,3.1632 20.1449,3.8116 7.3446,0.649 14.9851,2.3204 16.9792,3.7148 2.3294,1.6284 12.2875,2.9445 27.8462,3.679 17.8189,0.8422 25.6715,1.9929 29.713,4.3535 4.8255,2.8194 14.159,3.3044 76.8043,3.9922 39.2215,0.4286 76.6607,1.6313 83.1975,2.6694 6.537,1.0371 29.4586,2.5698 50.9369,3.4049 30.5831,1.1892 40.5248,2.2183 45.8433,4.7445 4.5073,2.1409 14.846,3.7592 30.7365,4.8122 14.1912,0.9401 25.6025,2.6216 28.0151,4.1276 2.939,1.8346 16.3493,2.8811 48.2161,3.7641 33.245,0.9215 46.4513,1.9894 53.4837,4.3269 7.6515,2.5426 17.981,3.1077 57.1595,3.1259 50.6235,0.9719 56.1209,-13.8458 74.392,-56.2862 3.3585,-7.8407 6.7907,-14.2553 7.6264,-14.2553 0.8354,0 2.027,-1.7966 2.6478,-3.9925 1.5998,-5.6604 10.9184,-20.7922 12.804,-20.7922 0.8681,0 1.5773,-1.1541 1.5773,-2.5646 0,-1.4109 1.5279,-4.1175 3.3958,-6.0152 1.8678,-1.8982 3.3958,-4.4794 3.3958,-5.7366 0,-2.0406 2.0199,-5.1023 10.9941,-16.6647 1.4239,-1.8355 2.5888,-4.0204 2.5888,-4.8567 0,-0.8357 3.0088,-4.8177 6.686,-8.8492 3.6767,-4.0319 7.5899,-9.7828 8.6957,-12.7797 1.105,-2.9964 2.6296,-5.449 3.3874,-5.449 0.7577,0 1.8554,-1.6914 2.4396,-3.7588 0.5847,-2.0676 5.0295,-8.3886 9.8777,-14.0481 29.1863,-34.06812 38.5744,-44.22153 46.1683,-49.92972 4.6694,-3.50972 13.9855,-11.58205 20.7017,-17.93931 6.7168,-6.35643 13.0203,-11.55696 14.0077,-11.55696 0.9879,0 1.7953,-1.09298 1.7953,-2.42861 0,-1.33563 4.6461,-6.26893 10.3247,-10.9626 5.6777,-4.69348 12.4735,-10.46425 15.1011,-12.82377 2.6281,-2.35919 5.3679,-4.2897 6.0887,-4.2897 0.7202,0 2.52,-1.30664 3.9995,-2.90382 5.2433,-5.66124 15.9181,-14.25601 17.7795,-14.3156 1.0389,-0.0587 4.5225,-3.03206 7.7415,-6.66329 3.2185,-3.63193 7.1472,-7.06496 8.7303,-7.62856 1.5832,-0.56597 3.2649,-2.68528 3.7364,-4.71278 0.4829,-2.0774 4.8254,-5.87156 9.9466,-8.69245 14.5954,-8.03964 20.5935,-11.95338 21.8679,-14.26925 2.3323,-4.23793 11.3918,-9.17114 27.9692,-15.22885 9.3321,-3.41115 16.9922,-4.52283 35.6557,-5.17568 26.4937,-0.92783 59.1669,1.82834 62.8976,5.30537 1.6267,1.51568 15.3444,2.70246 41.3454,3.57709 23.7673,0.79902 39.7986,2.11578 41.1924,3.38358 1.2556,1.14157 11.245,3.0438 22.1995,4.22824 10.9546,1.18446 22.0333,3.05772 24.6197,4.16355 2.5861,1.10582 12.7245,2.75189 22.5302,3.65807 9.8052,0.90572 20.6685,2.98899 24.1407,4.62921 3.4721,1.63973 10.038,2.98192 14.591,2.98192 4.5529,0 12.7193,1.71606 18.1476,3.81321 5.429,2.0972 11.748,3.813 14.0428,3.813 2.2945,0 6.9503,1.60328 10.346,3.56274 3.3953,1.96014 9.23,4.46725 12.9652,5.57185 10.7587,3.18159 23.1795,8.02596 30.7483,11.99341 3.8378,2.01127 7.8423,3.65688 8.899,3.65688 2.8342,0 27.7169,9.77917 31.6646,12.44492 1.8675,1.26081 7.045,3.38402 11.5049,4.71807 4.4592,1.33379 8.5158,3.16541 9.014,4.07044 0.4988,0.90432 2.5794,1.66331 4.6252,1.6867 2.0466,0 6.8679,1.64724 10.716,3.60851 3.8473,1.96196 10.3111,4.08836 14.3642,4.72474 4.0531,0.63691 8.0108,2.44459 8.7945,4.0173 0.784,1.573 3.0563,2.85996 5.0497,2.85996 1.9933,0 6.7308,1.66741 10.5279,3.7058 3.7966,2.03801 14.1228,6.38035 22.9475,9.64944 8.8247,3.26898 17.9933,7.03862 20.3746,8.37718 12.6675,7.11872 20.2882,10.48441 26.3443,11.63347 3.7035,0.7033 8.8232,2.49189 11.3767,3.97472 2.5538,1.48284 6.3506,2.69634 8.4363,2.69634 2.0863,0 6.8994,1.57781 10.6965,3.5058 3.7969,1.92859 9.9593,4.4357 13.6943,5.57211 11.393,3.46414 23.3398,8.19923 32.2601,12.78623 17.3988,8.9449 20.9484,10.5469 23.3744,10.5469 1.3668,0 4.3079,1.5532 6.5349,3.452 2.227,1.8987 7.4868,4.564 11.6894,5.9225 4.202,1.3581 12.1124,4.9521 17.5782,7.987 5.4653,3.0344 10.8137,5.5248 11.8852,5.534 1.0711,0 5.7678,2.1276 10.4374,4.7069 4.669,2.5795 9.4217,4.7162 10.5612,4.7493 1.7191,0.055 12.7348,6.0515 24.2455,13.2109 1.4009,0.8715 7.1311,4.0108 12.7343,6.9772 5.6031,2.9662 11.1973,6.5139 12.4309,7.884 1.2345,1.3702 3.8186,2.4921 5.7424,2.4921 1.9245,0 5.8811,1.6232 8.7933,3.6067 2.9116,1.9847 7.9678,4.2409 11.2365,5.015 3.2683,0.7743 7.7648,3.0115 9.9915,4.972 2.2271,1.9602 5.3048,3.5649 6.8387,3.5649 1.5339,0 4.3296,1.2109 6.2116,2.6916 1.883,1.4803 7.9745,4.1495 13.5366,5.9303 5.5629,1.7816 10.8394,4.0023 11.7266,4.9347 0.8872,0.9323 3.267,1.6957 5.2895,1.6957 2.0222,0 5.4983,1.5841 7.7253,3.5209 2.2267,1.937 7.0093,4.0448 10.627,4.6848 3.6178,0.6397 7.8202,2.3693 9.3383,3.8434 1.5188,1.4735 5.3848,3.2363 8.5925,3.9168 3.2068,0.681 7.0999,2.5271 8.6505,4.103 2.0018,2.0342 7.208,2.963 17.9395,3.2015 14.3895,0.3153 15.6623,0 26.3461,-6.4926 6.1752,-3.7547 13.8155,-7.411 16.9794,-8.1247 3.1634,-0.7143 8.8079,-2.8981 12.5437,-4.8535 11.0646,-5.7915 23.3624,-10.9173 29.7131,-12.3848 3.2685,-0.7544 7.0886,-2.423 8.4895,-3.7085 4.0628,-3.7272 23.6823,-10.1191 35.1124,-11.4392 5.772,-0.6663 12.6963,-2.4453 15.3879,-3.9529 2.6915,-1.5081 11.7229,-3.2685 20.0689,-3.9121 8.3466,-0.6442 17.8493,-2.5562 21.1179,-4.2502 5.1922,-2.69 18.0513,-3.1695 101.8737,-3.7985 81.2804,-0.6092 96.7093,-1.1583 101.0253,-3.5985 2.8012,-1.5836 10.0599,-3.2923 16.1301,-3.7971 6.0701,-0.5063 14.6156,-2.5672 18.9914,-4.5831 4.3958,-2.0246 11.9932,-3.6701 16.9793,-3.6768 6.1479,0 10.6467,-1.2201 14.1175,-3.8008 2.8012,-2.0834 7.7787,-3.7939 11.0612,-3.8003 3.2823,0 8.819,-1.7282 12.3033,-3.8259 3.4848,-2.0972 7.2941,-3.8394 8.4648,-3.8721 1.1706,-0.061 5.9489,-2.1702 10.6179,-4.7494 4.6695,-2.5788 10.1147,-4.6973 12.1017,-4.7068 1.9868,0 4.5473,-1.2811 5.6887,-2.8266 1.1417,-1.545 4.8498,-3.3934 8.2384,-4.1078 3.389,-0.7138 8.4703,-2.8782 11.2909,-4.8089 3.0948,-2.1193 8.3588,-3.515 13.2772,-3.5189 4.482,0 10.4572,-1.3476 13.2778,-2.9846 2.8207,-1.6382 8.7036,-3.4231 13.0743,-3.9665 4.37,-0.5422 9.8563,-2.4725 12.1909,-4.287 2.3348,-1.814 9.2108,-5.2943 15.2809,-7.73411 6.07,-2.43976 14.857,-6.3954 19.5261,-8.79086 17.2191,-8.83286 26.2458,-12.28112 32.1502,-12.28112 3.3284,0 6.0525,-0.83417 6.0525,-1.85344 0,-1.01957 4.1882,-3.22033 9.3067,-4.89158 5.1189,-1.67053 9.7208,-3.7899 10.227,-4.70901 0.5042,-0.91937 4.5313,-2.26305 8.9453,-2.98562 4.4142,-0.72255 10.8602,-2.91711 14.3251,-4.87649 3.4646,-1.95892 7.855,-3.56215 9.7562,-3.56215 1.9011,0 8.2349,-1.93034 14.0751,-4.28982 9.8736,-3.98891 13.419,-4.28983 50.5194,-4.28983 42.78,0 44.5894,0.31599 71.6269,12.59332 4.3752,1.98704 9.0318,3.61254 10.3485,3.61254 1.3162,0 3.693,1.61208 5.2817,3.58288 1.5879,1.97072 5.8094,4.10874 9.3807,4.74974 3.5714,0.64102 7.3696,2.35146 8.441,3.80098 1.0713,1.4495 5.8777,3.22158 10.6805,3.93629 4.8032,0.71572 10.3081,2.54003 12.2333,4.05467 1.9255,1.51437 4.6981,2.75347 6.1602,2.75347 1.4624,0 5.4863,1.61874 8.9424,3.5968 3.4557,1.97871 8.889,4.14621 12.0737,4.81719 3.1851,0.67089 6.708,2.46107 7.8297,3.9783 1.1213,1.51786 4.8274,3.29065 8.2354,3.94075 3.4081,0.6502 8.2668,2.8173 10.797,4.8166 2.5302,1.9994 5.5103,3.6352 6.622,3.6352 3.1309,0 20.8718,10.1939 22.3956,12.8691 0.7466,1.3108 2.5391,2.3835 3.9828,2.3835 1.4431,0 4.7463,1.6961 7.3387,3.769 2.5926,2.0731 9.3034,6.5772 14.9123,10.009 19.1828,11.7383 30.1375,19.1573 34.9362,23.6608 2.6399,2.4781 5.9112,4.5046 7.2693,4.5046 1.3588,0 2.91,1.2871 3.4474,2.8598 0.5379,1.5728 1.9367,2.8601 3.1089,2.8601 1.7751,0 8.6969,5.2706 17.088,13.0122 0.9653,0.8903 3.7628,2.185 6.2173,2.8763 5.4118,1.5258 30.2308,19.899 30.2308,22.3797 0,0.9725 0.8955,1.7689 1.9902,1.7689 4.1355,0 47.3934,45.8639 53.5996,56.828 1.5987,2.8235 3.8795,5.8198 5.0692,6.6587 1.1896,0.8382 2.1632,3.2387 2.1632,5.3334 0,2.0955 1.9106,5.7974 4.2449,8.2267 2.5851,2.6906 4.2449,6.5096 4.2449,9.7685 0,2.9426 1.0299,6.7053 2.2887,8.3609 21.6319,41.7123 25.9372,70.5132 58.338,69.756 8.2109,-1.649 28.3006,-3.4059 44.6429,-3.9046 67.9309,-2.0745 79.3718,-2.6984 83.7499,-4.5671 2.5275,-1.0791 15.9525,-2.8183 29.8337,-3.8646 13.8817,-1.0465 27.4309,-2.8812 30.1103,-4.0767 2.6798,-1.1945 13.277,-3.3134 23.5489,-4.7074 10.2727,-1.395 23.6436,-3.4131 29.7137,-4.4852 6.0701,-1.0723 33.5761,-2.4971 61.1242,-3.1646 27.5488,-0.6688 76.4479,-2.3048 108.666,-3.6366 32.2175,-1.3316 113.5893,-2.534 180.8261,-2.6732 158.61,-0.3277 281.7359,-2.0173 307.3199,-4.217 53.2717,-4.5806 276.6171,-23.8439 337.1661,1.4176 49.0048,277.3609 200.1079,1259.0504 151.7497,1419.8152 -11.6733,-0.7188 -128.8396,3.6241 -132.8407,2.1149 -4.0015,-1.5089 -11.2602,-2.7439 -16.1306,-2.7439 -4.8711,0 -14.2036,-1.3569 -20.7403,-3.0156 -21.0175,-5.332 -26.9201,-6.2865 -39.8995,-6.4488 -7.0041,-0.088 -15.7904,-1.0794 -19.5257,-2.2037 -3.7359,-1.1252 -16.1156,-3.1115 -27.5119,-4.4138 -11.3964,-1.3031 -21.79,-3.3655 -23.0967,-4.5839 -1.3067,-1.2176 -9.5564,-2.7246 -18.3318,-3.3483 -8.7753,-0.6241 -21.3033,-2.6885 -27.8402,-4.5884 -6.5368,-1.899 -20.2902,-3.903 -30.5623,-4.4521 -10.2723,-0.5483 -21.3508,-2.2319 -24.6192,-3.7393 -3.2686,-1.5074 -12.5807,-3.2832 -20.694,-3.947 -8.1126,-0.6634 -16.8996,-2.1577 -19.5258,-3.3193 -2.6258,-1.1613 -13.1792,-2.8097 -23.4518,-3.6623 -10.2722,-0.8527 -23.2611,-2.9384 -28.864,-4.6352 -6.3446,-1.9216 -20.4366,-3.4727 -37.3538,-4.112 -14.9421,-0.5659 -30.9868,-2.1954 -35.656,-3.6256 -4.6691,-1.4293 -15.2692,-3.4894 -23.5557,-4.5772 -8.2866,-1.0889 -16.0298,-2.8777 -17.2076,-3.9754 -1.1783,-1.0979 -11.2083,-2.8753 -22.2882,-3.9499 -11.0806,-1.0746 -22.0558,-2.7817 -24.3908,-3.7938 -2.3344,-1.0127 -12.6489,-3.0268 -22.9215,-4.477 -10.2719,-1.45 -21.7332,-3.5604 -25.4686,-4.6889 -3.7354,-1.1286 -11.7574,-2.0895 -17.8276,-2.1349 -6.0699,-0.059 -17.1488,-1.4106 -24.6195,-3.034 -7.4708,-1.6233 -18.4918,-3.8066 -24.4907,-4.8529 -5.9984,-1.0457 -12.4723,-3.1325 -14.3853,-4.6372 -1.913,-1.5049 -5.0275,-2.7392 -6.9206,-2.7426 -1.8937,0 -5.9443,-1.7205 -9.0019,-3.8136 -7.0445,-4.8226 -14.9739,-4.834 -24.3931,-0.061 -4.0708,2.0747 -9.3415,3.7904 -11.7119,3.8134 -2.3711,0 -7.3074,1.7571 -10.9706,3.8545 -3.6639,2.097 -8.4586,3.813 -10.6566,3.813 -2.197,0 -7.575,1.6517 -11.9503,3.6702 -4.3758,2.0184 -13.304,4.0639 -19.8406,4.5458 -6.5368,0.4826 -14.1773,2.2569 -16.9792,3.9447 -2.8013,1.6872 -7.5958,3.074 -10.6541,3.0806 -3.0581,0 -9.9351,1.7597 -15.281,3.897 -5.3464,2.1361 -14.6868,4.3579 -20.7568,4.9365 -6.0702,0.5782 -14.8569,2.4538 -19.5258,4.1678 -12.2798,4.5086 -52.274,4.5134 -59.4267,0 -2.8015,-1.765 -9.296,-5.2987 -14.4323,-7.8535 -5.1357,-2.5552 -59.268,-10.9544 -63.5154,-15.5475 -101.3459,-75.577 -159.2239,-84.0126 -257.6117,-143.9224 -1.5231,-0.9672 -7.6356,-2.7349 -13.5831,-3.9284 -5.9467,-1.1927 -12.404,-3.3198 -14.3491,-4.7264 -1.9458,-1.4069 -7.1409,-3.1643 -11.5454,-3.9059 -4.4043,-0.7418 -9.0061,-2.4695 -10.2267,-3.8399 -1.2203,-1.3699 -5.1938,-3.0785 -8.83,-3.7964 -3.6357,-0.7179 -8.2023,-2.4213 -10.1476,-3.7863 -1.9456,-1.3644 -7.1031,-3.0813 -11.4607,-3.8153 -6.3738,-1.0729 -7.9241,-0.7866 -7.9241,1.4639 0,1.5389 -1.7191,5.0447 -3.8205,7.7917 -7.1648,9.3674 -11.4607,16.1811 -11.4607,18.1808 0,2.3082 -7.1849,15.0405 -10.995,19.4859 -1.4234,1.6602 -2.5882,3.9147 -2.5882,5.0088 0,1.0946 -1.2643,3.1676 -2.8097,4.6068 -1.5462,1.439 -3.8479,5.4044 -5.1167,8.8125 -1.2684,3.4077 -3.0606,6.1962 -3.9814,6.1962 -0.9217,0 -1.6754,0.9822 -1.6754,2.1828 0,1.2 -1.5757,3.9884 -3.5017,6.1963 -1.9269,2.2075 -8.2301,9.6199 -14.0079,16.4706 -25.1967,29.8783 -36.7568,37.6761 -59.2394,39.9585 -8.6823,0.8816 -19.225,2.4454 -23.427,3.4741 -4.2022,1.0291 -26.7418,2.3277 -50.088,2.8871 -42.0102,1.0058 -56.6612,-0.1654 -76.4056,-6.1162 -3.7354,-1.1255 -10.0234,-2.0669 -13.9738,-2.0919 -3.9493,0 -10.0619,-1.2661 -13.5828,-2.7569 -4.2572,-1.8035 -17.2097,-3.0985 -38.6615,-3.867 -34.6009,-1.2395 -40.1481,-1.8881 -51.421,-6.0123 -4.0016,-1.4637 -9.5381,-2.6618 -12.3032,-2.6618 -2.7649,0 -9.4239,-1.6439 -14.7973,-3.6526 -7.0001,-2.6176 -16.3312,-3.8983 -32.9185,-4.5165 -16.7491,-0.6247 -24.6845,-1.7235 -28.7011,-3.9731 -3.0527,-1.7106 -8.9058,-3.1104 -13.0056,-3.1104 -7.0261,0 -8.2917,0.9035 -22.0384,15.7291 -13.3804,14.4305 -22.3829,24.7562 -33.015,37.8663 -11.3795,14.0331 -59.2141,49.3573 -66.8357,49.3573 -1.1251,0 -3.4274,1.7158 -5.1176,3.8129 -1.6906,2.0975 -4.4598,3.8132 -6.1537,3.8132 -1.6943,0 -5.9694,1.6556 -9.4999,3.679 -6.4486,3.6951 -37.9499,7.8033 -63.2989,8.2548 -24.4864,0.435 -59.6382,-7.7125 -69.4189,-16.0907 -2.2266,-1.9081 -5.371,-3.4692 -6.9864,-3.4692 -1.6161,0 -4.7607,-1.6059 -6.9874,-3.5692 -2.227,-1.9633 -7.4871,-4.1715 -11.6895,-4.9081 -4.2024,-0.7369 -10.8213,-2.6502 -14.7081,-4.2524 -12.8239,-5.285 -34.0283,0.2023 -47.6734,12.3377 -3.7799,3.3615 -7.6124,6.1115 -8.5169,6.1115 -1.6918,0 -10.3212,7.1379 -20.7882,17.196 -3.2687,3.1403 -8.9989,6.5866 -12.7348,7.6573 -3.7349,1.0725 -8.9066,3.2682 -11.4921,4.8815 -2.5842,1.6131 -12.1351,3.7519 -21.2235,4.7533 -9.0879,1.0009 -20.162,2.3177 -24.6086,2.9253 -9.3166,1.2734 -38.1442,-4.071 -42.0025,-7.7864 -1.4009,-1.3484 -5.3355,-3.0128 -8.7438,-3.6972 -3.4079,-0.6854 -7.0898,-2.4541 -8.1823,-3.9328 -1.0924,-1.4771 -4.416,-3.2659 -7.3866,-3.974 -2.9705,-0.7088 -6.5468,-2.317 -7.9472,-3.5748 -4.4758,-4.0182 -20.5816,-12.5416 -23.6987,-12.5416 -1.6553,0 -4.8324,-1.5821 -7.0593,-3.5166 -2.2269,-1.9345 -6.6736,-4.0904 -9.8808,-4.7892 -3.207,-0.6992 -7.2985,-2.7633 -9.0925,-4.5854 -3.012,-3.0613 -10.5906,-3.3261 -99.4384,-3.4708 -90.5068,-0.1475 -107.2141,-0.8517 -107.2141,-4.517 0,-0.8317 -2.9001,-2.0326 -6.4452,-2.6689 -8.4886,-1.5246 -33.0226,-15.3836 -43.3705,-24.501 -4.5199,-3.9818 -9.6707,-7.2399 -11.4463,-7.2399 -1.7762,0 -4.1835,-1.7161 -5.3498,-3.8134 -1.1662,-2.0971 -3.3271,-3.8132 -4.8019,-3.8132 -1.4744,0 -4.342,-2.145 -6.3719,-4.7663 -2.0299,-2.6216 -4.8039,-4.7661 -6.1641,-4.7661 -1.3611,0 -3.0853,-1.0807 -3.8317,-2.4021 -1.7331,-3.0655 -15.1209,-12.8503 -17.5822,-12.8503 -1.0258,0 -4.2315,-2.6579 -7.1243,-5.9053 -4.5609,-5.1216 -8.829,-8.6191 -21.8276,-17.887 -9.7998,-6.9873 -16.6654,-12.5563 -17.621,-14.2915 -0.6096,-1.1085 -1.7742,-1.5537 -2.5877,-0.9886 -0.8134,0.5657 -4.1089,-1.5667 -7.3226,-4.7356 -7.5356,-7.4286 -13.8337,-7.4554 -22.4973,-0.097 -3.6675,3.1167 -7.4748,5.6905 -8.4598,5.7195 -0.9848,0 -4.7098,3.0563 -8.2783,6.7261 -3.5688,3.6702 -6.7404,6.6726 -7.0487,6.6726 -0.3071,0 -3.3744,2.1452 -6.8144,4.7666 -3.4405,2.6215 -7.4364,4.7664 -8.8804,4.7664 -1.4437,0 -4.2023,1.5737 -6.1298,3.4985 -4.1453,4.1376 -19.797,11.7482 -24.1953,11.7647 -1.6939,0 -5.123,1.2087 -7.619,2.6703 -6.3497,3.7203 -20.3526,6.8512 -30.6431,6.8512 -5.5541,0 -9.7706,1.0912 -11.6698,3.0212 -1.6353,1.6618 -6.2802,3.4903 -10.3212,4.0634 -4.0411,0.5719 -8.5137,2.1757 -9.9391,3.5607 -1.4247,1.3856 -6.0092,3.1228 -10.1874,3.8611 -4.1782,0.738 -9.3812,2.6419 -11.5635,4.2315 -2.2322,1.626 -10.7707,3.5723 -19.5261,4.4514 -8.5568,0.8601 -19.3789,2.3772 -24.048,3.3723 -13.4142,2.8584 -43.0078,2.3823 -52.4804,-0.8443 -5.7167,-1.9477 -15.9821,-2.839 -32.6841,-2.839 -22.0861,0 -24.665,-0.3572 -27.7456,-3.813 -1.8677,-2.097 -4.3803,-3.8132 -5.5834,-3.8132 -1.2039,0 -5.215,-1.8142 -8.9146,-4.0312 -5.9499,-3.5657 -9.2526,-3.9933 -28.6375,-3.7084 -14.1111,0.2089 -23.4796,1.2076 -26.3174,2.8115 -2.4233,1.3695 -9.3722,3.002 -15.4422,3.6276 -6.0702,0.6253 -14.0632,2.8901 -17.7622,5.0321 -3.6993,2.1418 -8.7374,3.8946 -11.195,3.8946 -2.4584,0 -8.9111,1.7157 -14.3393,3.813 -5.4285,2.0968 -13.0926,3.8131 -17.0311,3.8131 -3.9389,0 -10.5047,1.3481 -14.5906,2.9952 -9.6612,3.8941 -35.6648,5.6043 -46.4818,3.0565 -21.9014,-5.1573 -40.5214,-15.4167 -55.0888,-30.3509 -3.3196,-3.4033 -6.9316,-6.1914 -8.0276,-6.1962 -1.0957,0 -4.2622,-2.1537 -7.0368,-4.7754 -2.7743,-2.6214 -5.7971,-4.7662 -6.7168,-4.7662 -2.4049,0 -21.2635,-16.7382 -23.1703,-20.5649 -0.8827,-1.7707 -3.1568,-4.6312 -5.0544,-6.356 -2.8762,-2.6154 -4.0226,-2.7338 -6.9058,-0.7141 -1.9012,1.3321 -6.2895,2.9794 -9.7523,3.6604 -3.4621,0.6808 -8.3764,2.4509 -10.9205,3.9333 -2.5444,1.4826 -8.8803,3.2129 -14.0794,3.8472 -9.1124,1.111 -23.6996,6.9347 -28.9799,11.5693 -1.4009,1.2298 -5.2834,3.221 -8.6278,4.4257 -3.345,1.2043 -9.0462,3.8863 -12.6692,5.9603 -3.6231,2.0738 -7.4786,3.7714 -8.5672,3.7714 -1.0891,0 -2.8644,1.1968 -3.9462,2.6604 -1.0811,1.4632 -4.5367,3.2015 -7.678,3.8637 -3.1414,0.6611 -6.6052,2.4116 -7.6974,3.8898 -1.0922,1.4776 -4.1725,3.2255 -6.8451,3.8852 -2.6718,0.6586 -5.707,2.3454 -6.7436,3.748 -1.0367,1.4027 -3.8942,3.1167 -6.3501,3.8087 -2.4564,0.6923 -6.3482,2.9212 -8.6489,4.9531 -2.3014,2.0324 -5.417,3.7009 -6.9257,3.7081 -1.5086,0 -5.035,1.717 -7.8366,3.8005 -2.8014,2.0835 -6.6332,3.7934 -8.5146,3.8005 -1.8811,0 -6.2057,1.6887 -9.6091,3.7369 -3.4038,2.0489 -10.2693,4.2846 -15.2565,4.9688 -4.9873,0.6847 -12.5053,2.6034 -16.7075,4.2637 -10.9141,4.3124 -52.7501,4.2678 -61.1248,-0.066 -3.2686,-1.6911 -8.6166,-3.6537 -11.8851,-4.362 -6.37,-1.3793 -26.7106,-11.8798 -28.1781,-14.5456 -0.4884,-0.8857 -2.3874,-1.61 -4.2213,-1.61 -1.8346,0 -6.5648,-3.432 -10.512,-7.6256 -3.9469,-4.1939 -11.5699,-12.0422 -16.9395,-17.4394 -5.3697,-5.3978 -9.7628,-10.6364 -9.7628,-11.6417 0,-1.0041 -1.9105,-4.376 -4.2451,-7.4914 -2.3345,-3.1154 -4.2445,-6.794 -4.2445,-8.1739 0,-1.3804 -1.157,-3.0088 -2.5722,-3.6182 -1.4149,-0.6091 -3.3117,-3.2909 -4.2145,-5.9588 -1.881,-5.5549 -8.607,-16.2858 -22.2844,-35.5538 -5.2504,-7.3962 -10.5757,-17.0106 -11.834,-21.3647 -1.2585,-4.3545 -3.2366,-9.0168 -4.3954,-10.3615 -1.1587,-1.3443 -2.5906,-5.634 -3.1812,-9.5325 -0.59,-3.8988 -2.5307,-11.6242 -4.3111,-17.1691 -1.7808,-5.5443 -3.2381,-11.7643 -3.2381,-13.8223 0,-4.4129 -2.1093,-4.7305 -7.2755,-1.0952 -2.0681,1.4547 -6.7371,3.2332 -10.3758,3.951 -3.6386,0.7188 -8.2228,2.4874 -10.1871,3.9308 -1.9648,1.4439 -6.7729,3.1988 -10.6837,3.8991 -3.9113,0.7016 -7.4871,2.3747 -7.9466,3.7196 -0.4618,1.3449 -3.901,3.0267 -7.6481,3.7375 -3.7464,0.7105 -7.6828,2.4697 -8.7461,3.9094 -1.064,1.4392 -5.5014,3.2106 -9.8608,3.936 -4.3594,0.7247 -10.589,2.9121 -13.8438,4.8598 -3.2544,1.9472 -6.8683,3.5411 -8.0314,3.5411 -2.3267,0 -22.6222,8.5743 -29.3474,12.3985 -2.3351,1.3274 -6.6534,2.9911 -9.5972,3.6975 -2.9438,0.7061 -8.263,2.9498 -11.8202,4.9863 -3.557,2.0367 -7.6427,3.7309 -9.079,3.7647 -1.4372,0.059 -6.8153,1.7223 -11.9513,3.7511 -5.1362,2.0287 -11.4697,3.7165 -14.0754,3.7508 -2.6047,0.06 -7.732,1.778 -11.3933,3.8754 -3.6606,2.0971 -8.098,3.8129 -9.8599,3.8129 -1.7614,0 -4.9436,1.6944 -7.0706,3.766 -2.1266,2.0709 -10.0755,6.4358 -17.6631,9.6986 -7.5879,3.264 -14.5222,6.7166 -15.4097,7.6732 -0.8867,0.9571 -2.876,1.7408 -4.4208,1.7408 -1.5445,0 -4.8692,2.145 -7.3881,4.7665 -2.5192,2.6209 -5.4463,4.7657 -6.5035,4.7657 -1.0584,0 -5.2231,1.7939 -9.2553,3.9855 -6.8495,3.7229 -9.5388,3.9343 -40.8611,3.2191 -36.6456,-0.8371 -31.3645,0.4587 -57.3002,-14.0797 -2.8019,-1.5704 -6.2402,-3.6753 -7.6408,-4.6771 -1.4009,-1.0015 -4.4569,-2.8778 -6.7916,-4.1682 -2.3345,-1.2908 -7.3008,-4.7655 -11.0362,-7.7216 -3.7358,-2.9554 -9.2747,-7.1247 -12.3102,-9.2663 -3.0347,-2.1411 -5.5178,-4.6654 -5.5178,-5.6108 0,-0.9448 -1.2171,-1.7175 -2.7057,-1.7175 -1.4881,0 -3.1054,-1.7162 -3.5942,-3.8133 -0.4881,-2.0972 -1.6289,-3.8128 -2.5346,-3.8128 -1.6701,0 -15.5523,-10.4099 -19.7041,-14.7761 -1.2461,-1.3105 -2.9244,-2.3832 -3.7278,-2.3832 -0.8045,0 -1.9473,-1.7157 -2.5406,-3.8129 -0.5929,-2.0972 -2.0844,-3.8131 -3.3146,-3.8131 -1.2306,0 -3.3725,-1.9302 -4.7596,-4.2897 -1.3872,-2.3591 -4.6179,-6.6292 -7.1793,-9.4892 -5.2259,-5.8339 -8.7538,-12.2191 -16.3737,-29.6347 l -5.2307,-11.9549 -294.8331,0.5185 c -241.5212,0.4228 -295.5503,0.9749 -298.7949,3.0509 -2.7058,1.7321 -15.9694,3.0818 -41.8435,4.2606 -20.8351,0.9484 -40.0639,2.6666 -42.7313,3.8183 -2.6666,1.1504 -26.6191,2.948 -53.2283,3.9938 -26.6079,1.0462 -49.1476,2.5731 -50.0879,3.3938 -3.5055,3.0594 -11.8173,4.0367 -34.9643,4.1082 -13.0804,0.056 -27.7581,0.8653 -32.6175,1.8334 -11.8928,2.3686 -35.6357,5.0851 -56.7293,6.4892 -9.533,0.6346 -19.8476,2.2942 -22.9219,3.6888 -3.0735,1.3945 -10.9374,2.6632 -17.4744,2.8201 -16.82687,0.4054 -33.47364,2.3317 -36.77082,4.2573 -1.54651,0.903 -10.33315,2.5511 -19.52565,3.6622 -9.19219,1.1107 -20.18659,3.2792 -24.43187,4.8188 -4.24531,1.5392 24.38172,-1471.94408 16.55601,-1471.45374"
       style="fill:none;fill-opacity:1;stroke:#000000;stroke-width:4.27053;stroke-miterlimit:4;stroke-dasharray:none;stroke-opacity:1"
       sodipodi:nodetypes="cccscccccscccccccccccccccccccccccscccccscccscccccccccccccccccccccccccscsscscsccsccccssccsccccccccccccccccscscscscccccccscccccscccssccccccccscccscccsccccccccccccsccccccccccccccccccccscssccccscscsccccsscccccscscccscsccssccscscccccccccccccccscccccsccccccccccccccccccccccccsccccccccccccccccccscscsccssccccccccccscccsccscscccscccssccccccccccsccccsccscscscsccccccccscscccsccccccccscscccccscsccccsscccccccccsccccccccccccccccsccscscccccccscccccccccscccccccscccscscccccccsscscscsccccccccccccccccccc" />
  </g>
  <g
     inkscape:label="VectorFill"
     id="layer2"
     inkscape:groupmode="layer">
    <path
       sodipodi:nodetypes="ccccsscscccccscsccccccccccccccccccccccccccccccccccccccccccccccccscccscsccccccccccccccccccscscccccccscccccsscccccccc"
       inkscape:connector-curvature="0"
       d="m 2590.6462,1264.4513 c 0,0 54.5261,64.4399 -27.2631,47.0907 m 2344.8009,73.6776 -10.755,-61.2294 c 0,0 -33.1477,-84.7107 -108.6508,-114.1753 -75.503,-29.4646 -252.2906,-174.946 -384.8813,-88.3939 -132.5906,86.5524 -337.0013,88.3939 -337.0013,88.3939 0,0 -165.7383,-22.0984 -320.4274,62.6122 -154.6892,84.7108 -364.6245,103.1261 -364.6245,103.1261 l -167.5798,9.2078 -31.3062,11.0491 -27.623,-1.8416 -62.6123,-33.1475 c 0,0 -103.1261,-25.7815 -167.5799,22.0984 -64.4539,47.88 -123.3831,116.0168 -123.3831,116.0168 0,0 -90.2353,81.0277 -219.1429,34.9893 -128.9076,-46.0384 -86.5522,-97.6015 -86.5522,-97.6015 l 68.1368,-128.9076 71.8199,-125.2245 101.2846,-92.0769 104.9677,-73.6616 c 0,0 29.4646,-16.57378 53.4046,-7.366 23.9401,9.2075 195.203,29.4646 195.203,29.4646 l 130.7492,38.6722 294.6459,103.1261 230.1922,92.0768 m 865.8951,119.1315 116.2153,8.452 h 118.3283 l 61.2771,-14.791 90.8593,-2.1129 105.6501,-2.1132 122.5544,-14.791 437.392,-2.1129 242.9956,-10.5651 232.4305,-2.1129 c 0,0 164.8145,701.5176 152.1364,1164.2658 l -69.7292,4.2259 -335.9678,-48.5991 -230.3175,-35.921 -82.4072,-27.4692 m -663.4836,-131.0063 226.0915,71.8422 92.9722,38.0341 84.5203,38.0341 38.034,31.6951 c 0,0 14.7911,10.565 50.7122,2.113 35.921,-8.4521 171.1534,-50.7122 171.1534,-50.7122 l -73.9552,-101.4242 -120.4413,-126.7803 -152.1363,-116.2152 -215.5265,-105.6503 -84.5202,-42.2601 -52.8252,-14.7911 -188.0575,-154.2493 -61.2771,-65.5031 -97.1982,-143.6845 c 0,0 -25.3561,-19.0169 -4.226,-40.147 21.13,-21.1301 88.7462,-105.6503 88.7462,-105.6503 l -118.3283,-4.226 m -1013.1251,940.3955 184.8271,120.3331 196.5094,6.3389 109.8763,42.2602 c 0,0 25.3561,16.904 57.0512,-2.113 31.6951,-19.0171 69.7291,-42.2602 69.7291,-42.2602 0,0 38.0342,-12.678 65.5032,2.113 27.4691,14.7912 59.1642,21.1301 59.1642,21.1301 0,0 52.8251,14.791 76.0681,0 23.2431,-14.791 120.4414,-99.3113 120.4414,-99.3113 0,0 8.4519,-8.4519 46.4861,0 38.034,8.4521 255.6736,31.6951 255.6736,31.6951 l 82.4071,-8.4519 27.4691,-12.6781 78.1812,-109.8763 -175.3794,-92.9722 m -1559.868,223.7652 84.1816,15.4333 98.2121,-15.4333 67.3455,-26.6575 56.1211,-53.3151 -63.1363,-36.4788 c 0,0 -28.0606,-18.2393 -15.4333,-46.3 12.6273,-28.0605 16.8363,-50.509 16.8363,-50.509 l -50.509,-92.5999 -11.2243,-58.9273 c 0,0 -2.806,-30.8666 -29.4635,-23.8514 -26.6576,7.0152 -70.1515,43.4939 -70.1515,43.4939 m -292.9622,-14.3904 c 0,0 102.1503,-131.5246 140.032,-138.5397 37.8817,-7.0152 63.1363,8.4181 63.1363,8.4181 0,0 136.0938,-30.8666 96.8091,94.0029 -39.2849,124.8697 -71.5546,203.4393 -71.5546,203.4393 l -18.2393,192.2149 c 0,0 -226.3745,76.8494 -296.0393,-22.4484 m -860.0568,-127.6757 c 0,0 33.6727,92.6 94.0029,120.6606 60.3303,28.0605 289.024,-108.0333 289.024,-108.0333 m 67.5589,-2.3701 c 0,0 10.9212,39.6729 34.6299,83.3568 81.8407,150.7938 229.1166,64.0541 229.1166,64.0541 l 137.9627,-44.3453 29.5634,-130.5719 64.0542,-192.1623 c 0,0 -61.5905,-66.5177 -115.7902,-61.5904 -54.1997,4.9272 -192.1623,202.0168 -268.5345,241.4347 -76.3722,39.4179 -349.834,34.4907 -662.7137,24.6362 -312.8797,-9.8545 -877.0486,41.8815 -877.0486,41.8815 l 4.9272,-1182.5374 169.3953,16.1463 230.4965,47.0907 344.5058,86.746 200.7553,37.1769 215.6258,12.3923 341.0588,23.8056"
       style="fill:none;stroke:#000000;stroke-width:22.1361;stroke-linecap:round;stroke-linejoin:round;stroke-miterlimit:4;stroke-dasharray:none;stroke-opacity:1"
       id="path849" />
  </g>
</svg>
