  0
SECTION
  2
HEADER
  9
$ACADVER
  1
AC1014
  9
$HANDSEED
  5
FFFF
  9
$MEASUREMENT
 70
     1
  0
ENDSEC
  0
SECTION
  2
TABLES
  0
TABLE
  2
VPORT
  5
8
330
0
100
AcDbSymbolTable
 70
     4
  0
VPORT
  5
2E
330
8
100
AcDbSymbolTableRecord
100
AcDbViewportTableRecord
  2
*ACTIVE
 70
     0
 10
0.0
 20
0.0
 11
1.0
 21
1.0
 12
210.0
 22
148.5
 13
0.0
 23
0.0
 14
10.0
 24
10.0
 15
10.0
 25
10.0
 16
0.0
 26
0.0
 36
1.0
 17
0.0
 27
0.0
 37
0.0
 40
341.0
 41
1.24
 42
50.0
 43
0.0
 44
0.0
 50
0.0
 51
0.0
 71
     0
 72
   100
 73
     1
 74
     3
 75
     0
 76
     0
 77
     0
 78
     0
  0
ENDTAB
  0
TABLE
  2
LTYPE
  5
5
330
0
100
AcDbSymbolTable
 70
     1
  0
LTYPE
  5
14
330
5
100
AcDbSymbolTableRecord
100
AcDbLinetypeTableRecord
  2
BYBLOCK
 70
     0
  3

 72
    65
 73
     0
 40
0.0
  0
LTYPE
  5
15
330
5
100
AcDbSymbolTableRecord
100
AcDbLinetypeTableRecord
  2
BYLAYER
 70
     0
  3

 72
    65
 73
     0
 40
0.0
  0
LTYPE
  5
16
330
5
100
AcDbSymbolTableRecord
100
AcDbLinetypeTableRecord
  2
CONTINUOUS
 70
     0
  3
Solid line
 72
    65
 73
     0
 40
0.0
  0
ENDTAB
  0
TABLE
  2
LAYER
  5
2
100
AcDbSymbolTable
 70
3
  0
LAYER
  5
50
100
AcDbSymbolTableRecord
100
AcDbLayerTableRecord
  2
0
 70
0
  6
CONTINUOUS
  0
LAYER
  5
51
100
AcDbSymbolTableRecord
100
AcDbLayerTableRecord
  2
Cut
 70
0
  6
CONTINUOUS
  0
LAYER
  5
52
100
AcDbSymbolTableRecord
100
AcDbLayerTableRecord
  2
VectorFill
 70
0
  6
CONTINUOUS
  0
ENDTAB
  0
TABLE
  2
STYLE
  5
3
330
0
100
AcDbSymbolTable
 70
     1
  0
STYLE
  5
11
330
3
100
AcDbSymbolTableRecord
100
AcDbTextStyleTableRecord
  2
STANDARD
 70
     0
 40
0.0
 41
1.0
 50
0.0
 71
     0
 42
2.5
  3
txt
  4

  0
ENDTAB
  0
TABLE
  2
VIEW
  5
6
330
0
100
AcDbSymbolTable
 70
     0
  0
ENDTAB
  0
TABLE
  2
UCS
  5
7
330
0
100
AcDbSymbolTable
 70
     0
  0
ENDTAB
  0
TABLE
  2
APPID
  5
9
330
0
100
AcDbSymbolTable
 70
     2
  0
APPID
  5
12
330
9
100
AcDbSymbolTableRecord
100
AcDbRegAppTableRecord
  2
ACAD
 70
     0
  0
ENDTAB
  0
TABLE
  2
DIMSTYLE
  5
A
330
0
100
AcDbSymbolTable
 70
     1
  0
DIMSTYLE
105
27
330
A
100
AcDbSymbolTableRecord
100
AcDbDimStyleTableRecord
  2
ISO-25
 70
     0
  3

  4

  5

  6

  7

 40
1.0
 41
2.5
 42
0.625
 43
3.75
 44
1.25
 45
0.0
 46
0.0
 47
0.0
 48
0.0
140
2.5
141
2.5
142
0.0
143
0.03937007874016
144
1.0
145
0.0
146
1.0
147
0.625
 71
     0
 72
     0
 73
     0
 74
     0
 75
     0
 76
     0
 77
     1
 78
     8
170
     0
171
     3
172
     1
173
     0
174
     0
175
     0
176
     0
177
     0
178
     0
270
     2
271
     2
272
     2
273
     2
274
     3
340
11
275
     0
280
     0
281
     0
282
     0
283
     0
284
     8
285
     0
286
     0
287
     3
288
     0
  0
ENDTAB
  0
TABLE
  2
BLOCK_RECORD
  5
1
330
0
100
AcDbSymbolTable
 70
     1
  0
BLOCK_RECORD
  5
1F
330
1
100
AcDbSymbolTableRecord
100
AcDbBlockTableRecord
  2
*MODEL_SPACE
  0
BLOCK_RECORD
  5
1B
330
1
100
AcDbSymbolTableRecord
100
AcDbBlockTableRecord
  2
*PAPER_SPACE
  0
ENDTAB
  0
ENDSEC
  0
SECTION
  2
BLOCKS
  0
BLOCK
  5
20
330
1F
100
AcDbEntity
  8
0
100
AcDbBlockBegin
  2
*MODEL_SPACE
 70
     0
 10
0.0
 20
0.0
 30
0.0
  3
*MODEL_SPACE
  1

  0
ENDBLK
  5
21
330
1F
100
AcDbEntity
  8
0
100
AcDbBlockEnd
  0
BLOCK
  5
1C
330
1B
100
AcDbEntity
 67
     1
  8
0
100
AcDbBlockBegin
  2
*PAPER_SPACE
  1

  0
ENDBLK
  5
1D
330
1B
100
AcDbEntity
 67
     1
  8
0
100
AcDbBlockEnd
  0
ENDSEC
  0
SECTION
  2
ENTITIES
  0
SPLINE
  5
100
100
AcDbEntity
  8
Cut
 62
7
100
AcDbSpline
 70
8
 71
3
 72
8
 73
4
 74
0
 40
0
 40
0
 40
0
 40
0
 40
1
 40
1
 40
1
 40
1
 10
476.499984
 20
4392.646922
 30
0.0
 10
480.580504
 20
4391.631388
 30
0.0
 10
502.066560
 20
4401.260909
 30
0.0
 10
506.963299
 20
4400.855567
 30
0.0
  0
SPLINE
  5
101
100
AcDbEntity
  8
Cut
 62
7
100
AcDbSpline
 70
8
 71
3
 72
8
 73
4
 74
0
 40
0
 40
0
 40
0
 40
0
 40
1
 40
1
 40
1
 40
1
 10
506.963299
 20
4400.855567
 30
0.0
 10
513.389965
 20
4400.322956
 30
0.0
 10
516.522536
 20
4399.522459
 30
0.0
 10
518.225474
 20
4397.977472
 30
0.0
  0
SPLINE
  5
102
100
AcDbEntity
  8
Cut
 62
7
100
AcDbSpline
 70
8
 71
3
 72
8
 73
4
 74
0
 40
0
 40
0
 40
0
 40
0
 40
1
 40
1
 40
1
 40
1
 10
518.225474
 20
4397.977472
 30
0.0
 10
519.522879
 20
4396.799843
 30
0.0
 10
521.416571
 20
4395.836882
 30
0.0
 10
522.433370
 20
4395.836882
 30
0.0
  0
SPLINE
  5
103
100
AcDbEntity
  8
Cut
 62
7
100
AcDbSpline
 70
8
 71
3
 72
8
 73
4
 74
0
 40
0
 40
0
 40
0
 40
0
 40
1
 40
1
 40
1
 40
1
 10
522.433370
 20
4395.836882
 30
0.0
 10
523.450116
 20
4395.836882
 30
0.0
 10
525.942962
 20
4394.794947
 30
0.0
 10
527.973438
 20
4393.521555
 30
0.0
  0
SPLINE
  5
104
100
AcDbEntity
  8
Cut
 62
7
100
AcDbSpline
 70
8
 71
3
 72
8
 73
4
 74
0
 40
0
 40
0
 40
0
 40
0
 40
1
 40
1
 40
1
 40
1
 10
527.973438
 20
4393.521555
 30
0.0
 10
530.003491
 20
4392.248227
 30
0.0
 10
532.783944
 20
4391.203133
 30
0.0
 10
534.152210
 20
4391.199143
 30
0.0
  0
SPLINE
  5
105
100
AcDbEntity
  8
Cut
 62
7
100
AcDbSpline
 70
8
 71
3
 72
8
 73
4
 74
0
 40
0
 40
0
 40
0
 40
0
 40
1
 40
1
 40
1
 40
1
 10
534.152210
 20
4391.199143
 30
0.0
 10
535.520477
 20
4391.199143
 30
0.0
 10
537.862886
 20
4390.445727
 30
0.0
 10
539.357411
 20
4389.533327
 30
0.0
  0
SPLINE
  5
106
100
AcDbEntity
  8
Cut
 62
7
100
AcDbSpline
 70
8
 71
3
 72
8
 73
4
 74
0
 40
0
 40
0
 40
0
 40
0
 40
1
 40
1
 40
1
 40
1
 10
539.357411
 20
4389.533327
 30
0.0
 10
540.852148
 20
4388.620657
 30
0.0
 10
545.215445
 20
4387.512180
 30
0.0
 10
549.053650
 20
4387.069395
 30
0.0
  0
SPLINE
  5
107
100
AcDbEntity
  8
Cut
 62
7
100
AcDbSpline
 70
8
 71
3
 72
8
 73
4
 74
0
 40
0
 40
0
 40
0
 40
0
 40
1
 40
1
 40
1
 40
1
 10
549.053650
 20
4387.069395
 30
0.0
 10
552.892119
 20
4386.626895
 30
0.0
 10
557.661763
 20
4385.292739
 30
0.0
 10
559.652964
 20
4384.105193
 30
0.0
  0
SPLINE
  5
108
100
AcDbEntity
  8
Cut
 62
7
100
AcDbSpline
 70
8
 71
3
 72
8
 73
4
 74
0
 40
0
 40
0
 40
0
 40
0
 40
1
 40
1
 40
1
 40
1
 10
559.652964
 20
4384.105193
 30
0.0
 10
561.643583
 20
4382.917135
 30
0.0
 10
564.631628
 20
4381.945516
 30
0.0
 10
566.293317
 20
4381.945516
 30
0.0
  0
SPLINE
  5
109
100
AcDbEntity
  8
Cut
 62
7
100
AcDbSpline
 70
8
 71
3
 72
8
 73
4
 74
0
 40
0
 40
0
 40
0
 40
0
 40
1
 40
1
 40
1
 40
1
 10
566.293317
 20
4381.945516
 30
0.0
 10
567.954372
 20
4381.945516
 30
0.0
 10
570.865000
 20
4380.982438
 30
0.0
 10
572.761163
 20
4379.805264
 30
0.0
  0
SPLINE
  5
10a
100
AcDbEntity
  8
Cut
 62
7
100
AcDbSpline
 70
8
 71
3
 72
8
 73
4
 74
0
 40
0
 40
0
 40
0
 40
0
 40
1
 40
1
 40
1
 40
1
 10
572.761163
 20
4379.805264
 30
0.0
 10
574.915295
 20
4378.468547
 30
0.0
 10
579.448030
 20
4377.380813
 30
0.0
 10
584.841932
 20
4376.906870
 30
0.0
  0
SPLINE
  5
10b
100
AcDbEntity
  8
Cut
 62
7
100
AcDbSpline
 70
8
 71
3
 72
8
 73
4
 74
0
 40
0
 40
0
 40
0
 40
0
 40
1
 40
1
 40
1
 40
1
 10
584.841932
 20
4376.906870
 30
0.0
 10
589.589668
 20
4376.489432
 30
0.0
 10
595.376741
 20
4375.419002
 30
0.0
 10
597.701952
 20
4374.528070
 30
0.0
  0
SPLINE
  5
10c
100
AcDbEntity
  8
Cut
 62
7
100
AcDbSpline
 70
8
 71
3
 72
8
 73
4
 74
0
 40
0
 40
0
 40
0
 40
0
 40
1
 40
1
 40
1
 40
1
 10
597.701952
 20
4374.528070
 30
0.0
 10
600.026475
 20
4373.637086
 30
0.0
 10
605.016676
 20
4372.545198
 30
0.0
 10
608.791116
 20
4372.102048
 30
0.0
  0
SPLINE
  5
10d
100
AcDbEntity
  8
Cut
 62
7
100
AcDbSpline
 70
8
 71
3
 72
8
 73
4
 74
0
 40
0
 40
0
 40
0
 40
0
 40
1
 40
1
 40
1
 40
1
 10
608.791116
 20
4372.102048
 30
0.0
 10
612.565556
 20
4371.658410
 30
0.0
 10
616.571877
 20
4370.621863
 30
0.0
 10
617.694345
 20
4369.797305
 30
0.0
  0
SPLINE
  5
10e
100
AcDbEntity
  8
Cut
 62
7
100
AcDbSpline
 70
8
 71
3
 72
8
 73
4
 74
0
 40
0
 40
0
 40
0
 40
0
 40
1
 40
1
 40
1
 40
1
 10
617.694345
 20
4369.797305
 30
0.0
 10
618.816337
 20
4368.973302
 30
0.0
 10
622.405516
 20
4367.932526
 30
0.0
 10
625.669839
 20
4367.484661
 30
0.0
  0
SPLINE
  5
10f
100
AcDbEntity
  8
Cut
 62
7
100
AcDbSpline
 70
8
 71
3
 72
8
 73
4
 74
0
 40
0
 40
0
 40
0
 40
0
 40
1
 40
1
 40
1
 40
1
 10
625.669839
 20
4367.484661
 30
0.0
 10
628.934268
 20
4367.036960
 30
0.0
 10
633.060287
 20
4365.962286
 30
0.0
 10
634.838763
 20
4365.097050
 30
0.0
  0
SPLINE
  5
110
100
AcDbEntity
  8
Cut
 62
7
100
AcDbSpline
 70
8
 71
3
 72
8
 73
4
 74
0
 40
0
 40
0
 40
0
 40
0
 40
1
 40
1
 40
1
 40
1
 10
634.838763
 20
4365.097050
 30
0.0
 10
636.616763
 20
4364.231757
 30
0.0
 10
644.129395
 20
4362.989390
 30
0.0
 10
651.533283
 20
4362.336187
 30
0.0
  0
SPLINE
  5
111
100
AcDbEntity
  8
Cut
 62
7
100
AcDbSpline
 70
8
 71
3
 72
8
 73
4
 74
0
 40
0
 40
0
 40
0
 40
0
 40
1
 40
1
 40
1
 40
1
 10
651.533283
 20
4362.336187
 30
0.0
 10
658.936748
 20
4361.683248
 30
0.0
 10
665.510639
 20
4360.647034
 30
0.0
 10
666.142146
 20
4360.033941
 30
0.0
  0
SPLINE
  5
112
100
AcDbEntity
  8
Cut
 62
7
100
AcDbSpline
 70
8
 71
3
 72
8
 73
4
 74
0
 40
0
 40
0
 40
0
 40
0
 40
1
 40
1
 40
1
 40
1
 10
666.142146
 20
4360.033941
 30
0.0
 10
666.773336
 20
4359.421114
 30
0.0
 10
671.268977
 20
4358.340926
 30
0.0
 10
676.132654
 20
4357.633694
 30
0.0
  0
SPLINE
  5
113
100
AcDbEntity
  8
Cut
 62
7
100
AcDbSpline
 70
8
 71
3
 72
8
 73
4
 74
0
 40
0
 40
0
 40
0
 40
0
 40
1
 40
1
 40
1
 40
1
 10
676.132654
 20
4357.633694
 30
0.0
 10
680.996119
 20
4356.926410
 30
0.0
 10
685.286761
 20
4355.757957
 30
0.0
 10
685.667655
 20
4355.037232
 30
0.0
  0
SPLINE
  5
114
100
AcDbEntity
  8
Cut
 62
7
100
AcDbSpline
 70
8
 71
3
 72
8
 73
4
 74
0
 40
0
 40
0
 40
0
 40
0
 40
1
 40
1
 40
1
 40
1
 10
685.667655
 20
4355.037232
 30
0.0
 10
686.097550
 20
4354.222580
 30
0.0
 10
691.579770
 20
4353.457564
 30
0.0
 10
700.158567
 20
4353.015181
 30
0.0
  0
SPLINE
  5
115
100
AcDbEntity
  8
Cut
 62
7
100
AcDbSpline
 70
8
 71
3
 72
8
 73
4
 74
0
 40
0
 40
0
 40
0
 40
0
 40
1
 40
1
 40
1
 40
1
 10
700.158567
 20
4353.015181
 30
0.0
 10
710.069965
 20
4352.503529
 30
0.0
 10
714.619634
 20
4351.800796
 30
0.0
 10
716.307411
 20
4350.519736
 30
0.0
  0
SPLINE
  5
116
100
AcDbEntity
  8
Cut
 62
7
100
AcDbSpline
 70
8
 71
3
 72
8
 73
4
 74
0
 40
0
 40
0
 40
0
 40
0
 40
1
 40
1
 40
1
 40
1
 10
716.307411
 20
4350.519736
 30
0.0
 10
717.844534
 20
4349.353294
 30
0.0
 10
722.339117
 20
4348.476783
 30
0.0
 10
729.301839
 20
4347.986616
 30
0.0
  0
SPLINE
  5
117
100
AcDbEntity
  8
Cut
 62
7
100
AcDbSpline
 70
8
 71
3
 72
8
 73
4
 74
0
 40
0
 40
0
 40
0
 40
0
 40
1
 40
1
 40
1
 40
1
 10
729.301839
 20
4347.986616
 30
0.0
 10
735.156910
 20
4347.574596
 30
0.0
 10
741.391022
 20
4346.531132
 30
0.0
 10
743.156269
 20
4345.668114
 30
0.0
  0
SPLINE
  5
118
100
AcDbEntity
  8
Cut
 62
7
100
AcDbSpline
 70
8
 71
3
 72
8
 73
4
 74
0
 40
0
 40
0
 40
0
 40
0
 40
1
 40
1
 40
1
 40
1
 10
743.156269
 20
4345.668114
 30
0.0
 10
744.921410
 20
4344.804990
 30
0.0
 10
749.693435
 20
4343.715172
 30
0.0
 10
753.761140
 20
4343.246277
 30
0.0
  0
SPLINE
  5
119
100
AcDbEntity
  8
Cut
 62
7
100
AcDbSpline
 70
8
 71
3
 72
8
 73
4
 74
0
 40
0
 40
0
 40
0
 40
0
 40
1
 40
1
 40
1
 40
1
 10
753.761140
 20
4343.246277
 30
0.0
 10
757.829214
 20
4342.777277
 30
0.0
 10
762.666485
 20
4341.655285
 30
0.0
 10
764.511372
 20
4340.753479
 30
0.0
  0
SPLINE
  5
11a
100
AcDbEntity
  8
Cut
 62
7
100
AcDbSpline
 70
8
 71
3
 72
8
 73
4
 74
0
 40
0
 40
0
 40
0
 40
0
 40
1
 40
1
 40
1
 40
1
 10
764.511372
 20
4340.753479
 30
0.0
 10
766.355888
 20
4339.851461
 30
0.0
 10
769.257574
 20
4339.108617
 30
0.0
 10
770.959162
 20
4339.102796
 30
0.0
  0
SPLINE
  5
11b
100
AcDbEntity
  8
Cut
 62
7
100
AcDbSpline
 70
8
 71
3
 72
8
 73
4
 74
0
 40
0
 40
0
 40
0
 40
0
 40
1
 40
1
 40
1
 40
1
 10
770.959162
 20
4339.102796
 30
0.0
 10
772.661015
 20
4339.102796
 30
0.0
 10
778.405913
 20
4337.794643
 30
0.0
 10
783.725943
 20
4336.208678
 30
0.0
  0
SPLINE
  5
11c
100
AcDbEntity
  8
Cut
 62
7
100
AcDbSpline
 70
8
 71
3
 72
8
 73
4
 74
0
 40
0
 40
0
 40
0
 40
0
 40
1
 40
1
 40
1
 40
1
 10
783.725943
 20
4336.208678
 30
0.0
 10
789.045497
 20
4334.622660
 30
0.0
 10
794.164708
 20
4333.307839
 30
0.0
 10
795.101862
 20
4333.286143
 30
0.0
  0
SPLINE
  5
11d
100
AcDbEntity
  8
Cut
 62
7
100
AcDbSpline
 70
8
 71
3
 72
8
 73
4
 74
0
 40
0
 40
0
 40
0
 40
0
 40
1
 40
1
 40
1
 40
1
 10
795.101862
 20
4333.286143
 30
0.0
 10
796.038910
 20
4333.250160
 30
0.0
 10
798.585948
 20
4332.240298
 30
0.0
 10
800.762464
 20
4331.010462
 30
0.0
  0
SPLINE
  5
11e
100
AcDbEntity
  8
Cut
 62
7
100
AcDbSpline
 70
8
 71
3
 72
8
 73
4
 74
0
 40
0
 40
0
 40
0
 40
0
 40
1
 40
1
 40
1
 40
1
 10
800.762464
 20
4331.010462
 30
0.0
 10
802.938662
 20
4329.779885
 30
0.0
 10
805.832039
 20
4328.744306
 30
0.0
 10
807.192421
 20
4328.708905
 30
0.0
  0
SPLINE
  5
11f
100
AcDbEntity
  8
Cut
 62
7
100
AcDbSpline
 70
8
 71
3
 72
8
 73
4
 74
0
 40
0
 40
0
 40
0
 40
0
 40
1
 40
1
 40
1
 40
1
 10
807.192421
 20
4328.708905
 30
0.0
 10
808.552538
 20
4328.675038
 30
0.0
 10
811.605830
 20
4327.613847
 30
0.0
 10
813.977713
 20
4326.354483
 30
0.0
  0
SPLINE
  5
120
100
AcDbEntity
  8
Cut
 62
7
100
AcDbSpline
 70
8
 71
3
 72
8
 73
4
 74
0
 40
0
 40
0
 40
0
 40
0
 40
1
 40
1
 40
1
 40
1
 10
813.977713
 20
4326.354483
 30
0.0
 10
816.349491
 20
4325.094855
 30
0.0
 10
819.917133
 20
4324.064673
 30
0.0
 10
821.906059
 20
4324.064673
 30
0.0
  0
SPLINE
  5
121
100
AcDbEntity
  8
Cut
 62
7
100
AcDbSpline
 70
8
 71
3
 72
8
 73
4
 74
0
 40
0
 40
0
 40
0
 40
0
 40
1
 40
1
 40
1
 40
1
 10
821.906059
 20
4324.064673
 30
0.0
 10
823.894985
 20
4324.064673
 30
0.0
 10
827.073953
 20
4323.101802
 30
0.0
 10
828.970010
 20
4321.925782
 30
0.0
  0
SPLINE
  5
122
100
AcDbEntity
  8
Cut
 62
7
100
AcDbSpline
 70
8
 71
3
 72
8
 73
4
 74
0
 40
0
 40
0
 40
0
 40
0
 40
1
 40
1
 40
1
 40
1
 10
828.970010
 20
4321.925782
 30
0.0
 10
830.866332
 20
4320.749656
 30
0.0
 10
834.785076
 20
4319.467803
 30
0.0
 10
837.678930
 20
4319.077066
 30
0.0
  0
SPLINE
  5
123
100
AcDbEntity
  8
Cut
 62
7
100
AcDbSpline
 70
8
 71
3
 72
8
 73
4
 74
0
 40
0
 40
0
 40
0
 40
0
 40
1
 40
1
 40
1
 40
1
 10
837.678930
 20
4319.077066
 30
0.0
 10
840.572730
 20
4318.686382
 30
0.0
 10
844.307165
 20
4317.568676
 30
0.0
 10
845.977586
 20
4316.593528
 30
0.0
  0
SPLINE
  5
124
100
AcDbEntity
  8
Cut
 62
7
100
AcDbSpline
 70
8
 71
3
 72
8
 73
4
 74
0
 40
0
 40
0
 40
0
 40
0
 40
1
 40
1
 40
1
 40
1
 10
845.977586
 20
4316.593528
 30
0.0
 10
847.648218
 20
4315.618274
 30
0.0
 10
853.960806
 20
4313.467317
 30
0.0
 10
860.005900
 20
4311.814042
 30
0.0
  0
SPLINE
  5
125
100
AcDbEntity
  8
Cut
 62
7
100
AcDbSpline
 70
8
 71
3
 72
8
 73
4
 74
0
 40
0
 40
0
 40
0
 40
0
 40
1
 40
1
 40
1
 40
1
 10
860.005900
 20
4311.814042
 30
0.0
 10
866.051100
 20
4310.160396
 30
0.0
 10
873.854509
 20
4307.812272
 30
0.0
 10
877.346427
 20
4306.596194
 30
0.0
  0
SPLINE
  5
126
100
AcDbEntity
  8
Cut
 62
7
100
AcDbSpline
 70
8
 71
3
 72
8
 73
4
 74
0
 40
0
 40
0
 40
0
 40
0
 40
1
 40
1
 40
1
 40
1
 10
877.346427
 20
4306.596194
 30
0.0
 10
880.838504
 20
4305.379957
 30
0.0
 10
884.856942
 20
4304.385177
 30
0.0
 10
886.276538
 20
4304.385177
 30
0.0
  0
SPLINE
  5
127
100
AcDbEntity
  8
Cut
 62
7
100
AcDbSpline
 70
8
 71
3
 72
8
 73
4
 74
0
 40
0
 40
0
 40
0
 40
0
 40
1
 40
1
 40
1
 40
1
 10
886.276538
 20
4304.385177
 30
0.0
 10
887.696239
 20
4304.385177
 30
0.0
 10
889.916517
 20
4303.517238
 30
0.0
 10
891.210700
 20
4302.456364
 30
0.0
  0
SPLINE
  5
128
100
AcDbEntity
  8
Cut
 62
7
100
AcDbSpline
 70
8
 71
3
 72
8
 73
4
 74
0
 40
0
 40
0
 40
0
 40
0
 40
1
 40
1
 40
1
 40
1
 10
891.210700
 20
4302.456364
 30
0.0
 10
892.689350
 20
4301.244361
 30
0.0
 10
896.724510
 20
4300.221429
 30
0.0
 10
902.073856
 20
4299.702898
 30
0.0
  0
SPLINE
  5
129
100
AcDbEntity
  8
Cut
 62
7
100
AcDbSpline
 70
8
 71
3
 72
8
 73
4
 74
0
 40
0
 40
0
 40
0
 40
0
 40
1
 40
1
 40
1
 40
1
 10
902.073856
 20
4299.702898
 30
0.0
 10
906.754388
 20
4299.249244
 30
0.0
 10
912.710212
 20
4298.033483
 30
0.0
 10
915.308632
 20
4297.000920
 30
0.0
  0
SPLINE
  5
12a
100
AcDbEntity
  8
Cut
 62
7
100
AcDbSpline
 70
8
 71
3
 72
8
 73
4
 74
0
 40
0
 40
0
 40
0
 40
0
 40
1
 40
1
 40
1
 40
1
 10
915.308632
 20
4297.000920
 30
0.0
 10
917.907052
 20
4295.968622
 30
0.0
 10
922.591447
 20
4295.124072
 30
0.0
 10
925.718187
 20
4295.124072
 30
0.0
  0
SPLINE
  5
12b
100
AcDbEntity
  8
Cut
 62
7
100
AcDbSpline
 70
8
 71
3
 72
8
 73
4
 74
0
 40
0
 40
0
 40
0
 40
0
 40
1
 40
1
 40
1
 40
1
 10
925.718187
 20
4295.124072
 30
0.0
 10
928.844927
 20
4295.124072
 30
0.0
 10
933.837403
 20
4294.308415
 30
0.0
 10
936.812325
 20
4293.311570
 30
0.0
  0
SPLINE
  5
12c
100
AcDbEntity
  8
Cut
 62
7
100
AcDbSpline
 70
8
 71
3
 72
8
 73
4
 74
0
 40
0
 40
0
 40
0
 40
0
 40
1
 40
1
 40
1
 40
1
 10
936.812325
 20
4293.311570
 30
0.0
 10
939.787035
 20
4292.314779
 30
0.0
 10
945.559715
 20
4290.851210
 30
0.0
 10
949.640225
 20
4290.058360
 30
0.0
  0
SPLINE
  5
12d
100
AcDbEntity
  8
Cut
 62
7
100
AcDbSpline
 70
8
 71
3
 72
8
 73
4
 74
0
 40
0
 40
0
 40
0
 40
0
 40
1
 40
1
 40
1
 40
1
 10
949.640225
 20
4290.058360
 30
0.0
 10
953.720840
 20
4289.266303
 30
0.0
 10
957.949729
 20
4288.054829
 30
0.0
 10
959.037801
 20
4287.366647
 30
0.0
  0
SPLINE
  5
12e
100
AcDbEntity
  8
Cut
 62
7
100
AcDbSpline
 70
8
 71
3
 72
8
 73
4
 74
0
 40
0
 40
0
 40
0
 40
0
 40
1
 40
1
 40
1
 40
1
 10
959.037801
 20
4287.366647
 30
0.0
 10
960.125980
 20
4286.678360
 30
0.0
 10
964.058217
 20
4285.565523
 30
0.0
 10
967.776142
 20
4284.893481
 30
0.0
  0
SPLINE
  5
12f
100
AcDbEntity
  8
Cut
 62
7
100
AcDbSpline
 70
8
 71
3
 72
8
 73
4
 74
0
 40
0
 40
0
 40
0
 40
0
 40
1
 40
1
 40
1
 40
1
 10
967.776142
 20
4284.893481
 30
0.0
 10
971.494014
 20
4284.221440
 30
0.0
 10
975.055200
 20
4283.180780
 30
0.0
 10
975.689988
 20
4282.581235
 30
0.0
  0
SPLINE
  5
130
100
AcDbEntity
  8
Cut
 62
7
100
AcDbSpline
 70
8
 71
3
 72
8
 73
4
 74
0
 40
0
 40
0
 40
0
 40
0
 40
1
 40
1
 40
1
 40
1
 10
975.689988
 20
4282.581235
 30
0.0
 10
976.324565
 20
4281.982218
 30
0.0
 10
979.245459
 20
4281.113908
 30
0.0
 10
982.180641
 20
4280.651681
 30
0.0
  0
SPLINE
  5
131
100
AcDbEntity
  8
Cut
 62
7
100
AcDbSpline
 70
8
 71
3
 72
8
 73
4
 74
0
 40
0
 40
0
 40
0
 40
0
 40
1
 40
1
 40
1
 40
1
 10
982.180641
 20
4280.651681
 30
0.0
 10
985.116140
 20
4280.189666
 30
0.0
 10
989.344870
 20
4278.840555
 30
0.0
 10
991.578376
 20
4277.653529
 30
0.0
  0
SPLINE
  5
132
100
AcDbEntity
  8
Cut
 62
7
100
AcDbSpline
 70
8
 71
3
 72
8
 73
4
 74
0
 40
0
 40
0
 40
0
 40
0
 40
1
 40
1
 40
1
 40
1
 10
991.578376
 20
4277.653529
 30
0.0
 10
993.811830
 20
4276.466714
 30
0.0
 10
996.769977
 20
4275.483628
 30
0.0
 10
998.151790
 20
4275.469870
 30
0.0
  0
SPLINE
  5
133
100
AcDbEntity
  8
Cut
 62
7
100
AcDbSpline
 70
8
 71
3
 72
8
 73
4
 74
0
 40
0
 40
0
 40
0
 40
0
 40
1
 40
1
 40
1
 40
1
 10
998.151790
 20
4275.469870
 30
0.0
 10
999.533709
 20
4275.469870
 30
0.0
 10
1003.289893
 20
4274.644052
 30
0.0
 10
1006.498442
 20
4273.666311
 30
0.0
  0
SPLINE
  5
134
100
AcDbEntity
  8
Cut
 62
7
100
AcDbSpline
 70
8
 71
3
 72
8
 73
4
 74
0
 40
0
 40
0
 40
0
 40
0
 40
1
 40
1
 40
1
 40
1
 10
1006.498442
 20
4273.666311
 30
0.0
 10
1009.707467
 20
4272.688146
 30
0.0
 10
1015.699222
 20
4271.358615
 30
0.0
 10
1019.813492
 20
4270.711391
 30
0.0
  0
SPLINE
  5
135
100
AcDbEntity
  8
Cut
 62
7
100
AcDbSpline
 70
8
 71
3
 72
8
 73
4
 74
0
 40
0
 40
0
 40
0
 40
0
 40
1
 40
1
 40
1
 40
1
 10
1019.813492
 20
4270.711391
 30
0.0
 10
1023.927710
 20
4270.064220
 30
0.0
 10
1029.075020
 20
4268.815123
 30
0.0
 10
1031.251165
 20
4267.936124
 30
0.0
  0
SPLINE
  5
136
100
AcDbEntity
  8
Cut
 62
7
100
AcDbSpline
 70
8
 71
3
 72
8
 73
4
 74
0
 40
0
 40
0
 40
0
 40
0
 40
1
 40
1
 40
1
 40
1
 10
1031.251165
 20
4267.936124
 30
0.0
 10
1033.427469
 20
4267.057125
 30
0.0
 10
1038.709187
 20
4266.015460
 30
0.0
 10
1042.987923
 20
4265.621708
 30
0.0
  0
SPLINE
  5
137
100
AcDbEntity
  8
Cut
 62
7
100
AcDbSpline
 70
8
 71
3
 72
8
 73
4
 74
0
 40
0
 40
0
 40
0
 40
0
 40
1
 40
1
 40
1
 40
1
 10
1042.987923
 20
4265.621708
 30
0.0
 10
1047.266924
 20
4265.227690
 30
0.0
 10
1051.718432
 20
4264.212854
 30
0.0
 10
1052.880218
 20
4263.366187
 30
0.0
  0
SPLINE
  5
138
100
AcDbEntity
  8
Cut
 62
7
100
AcDbSpline
 70
8
 71
3
 72
8
 73
4
 74
0
 40
0
 40
0
 40
0
 40
0
 40
1
 40
1
 40
1
 40
1
 10
1052.880218
 20
4263.366187
 30
0.0
 10
1054.237372
 20
4262.377440
 30
0.0
 10
1060.039102
 20
4261.578292
 30
0.0
 10
1069.103833
 20
4261.132363
 30
0.0
  0
SPLINE
  5
139
100
AcDbEntity
  8
Cut
 62
7
100
AcDbSpline
 70
8
 71
3
 72
8
 73
4
 74
0
 40
0
 40
0
 40
0
 40
0
 40
1
 40
1
 40
1
 40
1
 10
1069.103833
 20
4261.132363
 30
0.0
 10
1079.485395
 20
4260.621030
 30
0.0
 10
1084.060464
 20
4259.922318
 30
0.0
 10
1086.415097
 20
4258.488964
 30
0.0
  0
SPLINE
  5
13a
100
AcDbEntity
  8
Cut
 62
7
100
AcDbSpline
 70
8
 71
3
 72
8
 73
4
 74
0
 40
0
 40
0
 40
0
 40
0
 40
1
 40
1
 40
1
 40
1
 10
1086.415097
 20
4258.488964
 30
0.0
 10
1089.226454
 20
4256.777110
 30
0.0
 10
1094.664329
 20
4256.482576
 30
0.0
 10
1131.162489
 20
4256.064958
 30
0.0
  0
SPLINE
  5
13b
100
AcDbEntity
  8
Cut
 62
7
100
AcDbSpline
 70
8
 71
3
 72
8
 73
4
 74
0
 40
0
 40
0
 40
0
 40
0
 40
1
 40
1
 40
1
 40
1
 10
1131.162489
 20
4256.064958
 30
0.0
 10
1154.013493
 20
4255.804713
 30
0.0
 10
1175.826166
 20
4255.074463
 30
0.0
 10
1179.634579
 20
4254.444120
 30
0.0
  0
SPLINE
  5
13c
100
AcDbEntity
  8
Cut
 62
7
100
AcDbSpline
 70
8
 71
3
 72
8
 73
4
 74
0
 40
0
 40
0
 40
0
 40
0
 40
1
 40
1
 40
1
 40
1
 10
1179.634579
 20
4254.444120
 30
0.0
 10
1183.443150
 20
4253.814412
 30
0.0
 10
1196.797623
 20
4252.883819
 30
0.0
 10
1209.311251
 20
4252.376772
 30
0.0
  0
SPLINE
  5
13d
100
AcDbEntity
  8
Cut
 62
7
100
AcDbSpline
 70
8
 71
3
 72
8
 73
4
 74
0
 40
0
 40
0
 40
0
 40
0
 40
1
 40
1
 40
1
 40
1
 10
1209.311251
 20
4252.376772
 30
0.0
 10
1227.129404
 20
4251.654724
 30
0.0
 10
1232.921556
 20
4251.029831
 30
0.0
 10
1236.020197
 20
4249.495935
 30
0.0
  0
SPLINE
  5
13e
100
AcDbEntity
  8
Cut
 62
7
100
AcDbSpline
 70
8
 71
3
 72
8
 73
4
 74
0
 40
0
 40
0
 40
0
 40
0
 40
1
 40
1
 40
1
 40
1
 10
1236.020197
 20
4249.495935
 30
0.0
 10
1238.646187
 20
4248.196037
 30
0.0
 10
1244.669744
 20
4247.213428
 30
0.0
 10
1253.927780
 20
4246.574036
 30
0.0
  0
SPLINE
  5
13f
100
AcDbEntity
  8
Cut
 62
7
100
AcDbSpline
 70
8
 71
3
 72
8
 73
4
 74
0
 40
0
 40
0
 40
0
 40
0
 40
1
 40
1
 40
1
 40
1
 10
1253.927780
 20
4246.574036
 30
0.0
 10
1262.195797
 20
4246.003224
 30
0.0
 10
1268.844194
 20
4244.982250
 30
0.0
 10
1270.249767
 20
4244.067797
 30
0.0
  0
SPLINE
  5
140
100
AcDbEntity
  8
Cut
 62
7
100
AcDbSpline
 70
8
 71
3
 72
8
 73
4
 74
0
 40
0
 40
0
 40
0
 40
0
 40
1
 40
1
 40
1
 40
1
 10
1270.249767
 20
4244.067797
 30
0.0
 10
1271.962097
 20
4242.953901
 30
0.0
 10
1279.775137
 20
4242.318477
 30
0.0
 10
1298.341214
 20
4241.782326
 30
0.0
  0
SPLINE
  5
141
100
AcDbEntity
  8
Cut
 62
7
100
AcDbSpline
 70
8
 71
3
 72
8
 73
4
 74
0
 40
0
 40
0
 40
0
 40
0
 40
1
 40
1
 40
1
 40
1
 10
1298.341214
 20
4241.782326
 30
0.0
 10
1317.710249
 20
4241.222785
 30
0.0
 10
1325.404491
 20
4240.574397
 30
0.0
 10
1329.501670
 20
4239.155066
 30
0.0
  0
SPLINE
  5
142
100
AcDbEntity
  8
Cut
 62
7
100
AcDbSpline
 70
8
 71
3
 72
8
 73
4
 74
0
 40
0
 40
0
 40
0
 40
0
 40
1
 40
1
 40
1
 40
1
 10
1329.501670
 20
4239.155066
 30
0.0
 10
1333.959475
 20
4237.611275
 30
0.0
 10
1339.977688
 20
4237.268111
 30
0.0
 10
1362.803610
 20
4237.257104
 30
0.0
  0
SPLINE
  5
143
100
AcDbEntity
  8
Cut
 62
7
100
AcDbSpline
 70
8
 71
3
 72
8
 73
4
 74
0
 40
0
 40
0
 40
0
 40
0
 40
1
 40
1
 40
1
 40
1
 10
1393.222226
 20
4242.612006
 30
0.0
 10
1394.628751
 20
4245.557612
 30
0.0
 10
1395.779742
 20
4248.683241
 30
0.0
 10
1395.779742
 20
4249.557795
 30
0.0
  0
SPLINE
  5
144
100
AcDbEntity
  8
Cut
 62
7
100
AcDbSpline
 70
8
 71
3
 72
8
 73
4
 74
0
 40
0
 40
0
 40
0
 40
0
 40
1
 40
1
 40
1
 40
1
 10
1395.779742
 20
4249.557795
 30
0.0
 10
1395.779742
 20
4250.433037
 30
0.0
 10
1396.658687
 20
4252.177170
 30
0.0
 10
1397.732896
 20
4253.434470
 30
0.0
  0
SPLINE
  5
145
100
AcDbEntity
  8
Cut
 62
7
100
AcDbSpline
 70
8
 71
3
 72
8
 73
4
 74
0
 40
0
 40
0
 40
0
 40
0
 40
1
 40
1
 40
1
 40
1
 10
1397.732896
 20
4253.434470
 30
0.0
 10
1398.807263
 20
4254.691400
 30
0.0
 10
1399.969577
 20
4257.040688
 30
0.0
 10
1400.315494
 20
4258.654593
 30
0.0
  0
SPLINE
  5
146
100
AcDbEntity
  8
Cut
 62
7
100
AcDbSpline
 70
8
 71
3
 72
8
 73
4
 74
0
 40
0
 40
0
 40
0
 40
0
 40
1
 40
1
 40
1
 40
1
 10
1400.315494
 20
4258.654593
 30
0.0
 10
1400.661833
 20
4260.268340
 30
0.0
 10
1401.314613
 20
4261.856422
 30
0.0
 10
1401.766627
 20
4262.183182
 30
0.0
  0
SPLINE
  5
147
100
AcDbEntity
  8
Cut
 62
7
100
AcDbSpline
 70
8
 71
3
 72
8
 73
4
 74
0
 40
0
 40
0
 40
0
 40
0
 40
1
 40
1
 40
1
 40
1
 10
1401.766627
 20
4262.183182
 30
0.0
 10
1402.218165
 20
4262.508673
 30
0.0
 10
1404.188676
 20
4266.672632
 30
0.0
 10
1406.145535
 20
4271.433227
 30
0.0
  0
SPLINE
  5
148
100
AcDbEntity
  8
Cut
 62
7
100
AcDbSpline
 70
8
 71
3
 72
8
 73
4
 74
0
 40
0
 40
0
 40
0
 40
0
 40
1
 40
1
 40
1
 40
1
 10
1406.145535
 20
4271.433227
 30
0.0
 10
1408.102234
 20
4276.193981
 30
0.0
 10
1410.101902
 20
4280.088913
 30
0.0
 10
1410.588841
 20
4280.088913
 30
0.0
  0
SPLINE
  5
149
100
AcDbEntity
  8
Cut
 62
7
100
AcDbSpline
 70
8
 71
3
 72
8
 73
4
 74
0
 40
0
 40
0
 40
0
 40
0
 40
1
 40
1
 40
1
 40
1
 10
1410.588841
 20
4280.088913
 30
0.0
 10
1411.075569
 20
4280.088913
 30
0.0
 10
1411.769730
 20
4281.179737
 30
0.0
 10
1412.131468
 20
4282.513078
 30
0.0
  0
SPLINE
  5
14a
100
AcDbEntity
  8
Cut
 62
7
100
AcDbSpline
 70
8
 71
3
 72
8
 73
4
 74
0
 40
0
 40
0
 40
0
 40
0
 40
1
 40
1
 40
1
 40
1
 10
1412.131468
 20
4282.513078
 30
0.0
 10
1413.063542
 20
4285.949962
 30
0.0
 10
1418.492633
 20
4295.137830
 30
0.0
 10
1419.591236
 20
4295.137830
 30
0.0
  0
SPLINE
  5
14b
100
AcDbEntity
  8
Cut
 62
7
100
AcDbSpline
 70
8
 71
3
 72
8
 73
4
 74
0
 40
0
 40
0
 40
0
 40
0
 40
1
 40
1
 40
1
 40
1
 10
1419.591236
 20
4295.137830
 30
0.0
 10
1420.097014
 20
4295.137830
 30
0.0
 10
1420.510240
 20
4295.838500
 30
0.0
 10
1420.510240
 20
4296.695009
 30
0.0
  0
SPLINE
  5
14c
100
AcDbEntity
  8
Cut
 62
7
100
AcDbSpline
 70
8
 71
3
 72
8
 73
4
 74
0
 40
0
 40
0
 40
0
 40
0
 40
1
 40
1
 40
1
 40
1
 10
1420.510240
 20
4296.695009
 30
0.0
 10
1420.510240
 20
4297.551624
 30
0.0
 10
1421.400404
 20
4299.195004
 30
0.0
 10
1422.488635
 20
4300.347265
 30
0.0
  0
SPLINE
  5
14d
100
AcDbEntity
  8
Cut
 62
7
100
AcDbSpline
 70
8
 71
3
 72
8
 73
4
 74
0
 40
0
 40
0
 40
0
 40
0
 40
1
 40
1
 40
1
 40
1
 10
1422.488635
 20
4300.347265
 30
0.0
 10
1423.576867
 20
4301.499895
 30
0.0
 10
1424.467137
 20
4303.067128
 30
0.0
 10
1424.467137
 20
4303.830504
 30
0.0
  0
SPLINE
  5
14e
100
AcDbEntity
  8
Cut
 62
7
100
AcDbSpline
 70
8
 71
3
 72
8
 73
4
 74
0
 40
0
 40
0
 40
0
 40
0
 40
1
 40
1
 40
1
 40
1
 10
1424.467137
 20
4303.830504
 30
0.0
 10
1424.467137
 20
4305.069495
 30
0.0
 10
1425.643897
 20
4306.928563
 30
0.0
 10
1430.872435
 20
4313.949070
 30
0.0
  0
SPLINE
  5
14f
100
AcDbEntity
  8
Cut
 62
7
100
AcDbSpline
 70
8
 71
3
 72
8
 73
4
 74
0
 40
0
 40
0
 40
0
 40
0
 40
1
 40
1
 40
1
 40
1
 10
1430.872435
 20
4313.949070
 30
0.0
 10
1431.702062
 20
4315.063495
 30
0.0
 10
1432.380771
 20
4316.390222
 30
0.0
 10
1432.380771
 20
4316.897958
 30
0.0
  0
SPLINE
  5
150
100
AcDbEntity
  8
Cut
 62
7
100
AcDbSpline
 70
8
 71
3
 72
8
 73
4
 74
0
 40
0
 40
0
 40
0
 40
0
 40
1
 40
1
 40
1
 40
1
 10
1432.380771
 20
4316.897958
 30
0.0
 10
1432.380771
 20
4317.405375
 30
0.0
 10
1434.133689
 20
4319.823191
 30
0.0
 10
1436.276073
 20
4322.271063
 30
0.0
  0
SPLINE
  5
151
100
AcDbEntity
  8
Cut
 62
7
100
AcDbSpline
 70
8
 71
3
 72
8
 73
4
 74
0
 40
0
 40
0
 40
0
 40
0
 40
1
 40
1
 40
1
 40
1
 10
1436.276073
 20
4322.271063
 30
0.0
 10
1438.418192
 20
4324.719200
 30
0.0
 10
1440.698054
 20
4328.211012
 30
0.0
 10
1441.342315
 20
4330.030710
 30
0.0
  0
SPLINE
  5
152
100
AcDbEntity
  8
Cut
 62
7
100
AcDbSpline
 70
8
 71
3
 72
8
 73
4
 74
0
 40
0
 40
0
 40
0
 40
0
 40
1
 40
1
 40
1
 40
1
 10
1441.342315
 20
4330.030710
 30
0.0
 10
1441.986152
 20
4331.850091
 30
0.0
 10
1442.874411
 20
4333.339272
 30
0.0
 10
1443.315842
 20
4333.339272
 30
0.0
  0
SPLINE
  5
153
100
AcDbEntity
  8
Cut
 62
7
100
AcDbSpline
 70
8
 71
3
 72
8
 73
4
 74
0
 40
0
 40
0
 40
0
 40
0
 40
1
 40
1
 40
1
 40
1
 10
1443.315842
 20
4333.339272
 30
0.0
 10
1443.757325
 20
4333.339272
 30
0.0
 10
1444.396876
 20
4334.366278
 30
0.0
 10
1444.737236
 20
4335.621568
 30
0.0
  0
SPLINE
  5
154
100
AcDbEntity
  8
Cut
 62
7
100
AcDbSpline
 70
8
 71
3
 72
8
 73
4
 74
0
 40
0
 40
0
 40
0
 40
0
 40
1
 40
1
 40
1
 40
1
 10
1444.737236
 20
4335.621568
 30
0.0
 10
1445.077914
 20
4336.876963
 30
0.0
 10
1447.667497
 20
4340.715008
 30
0.0
 10
1450.492082
 20
4344.151364
 30
0.0
  0
SPLINE
  5
155
100
AcDbEntity
  8
Cut
 62
7
100
AcDbSpline
 70
8
 71
3
 72
8
 73
4
 74
0
 40
0
 40
0
 40
0
 40
0
 40
1
 40
1
 40
1
 40
1
 10
1450.492082
 20
4344.151364
 30
0.0
 10
1467.496536
 20
4364.837013
 30
0.0
 10
1472.966161
 20
4371.002021
 30
0.0
 10
1477.390471
 20
4374.467946
 30
0.0
  0
SPLINE
  5
156
100
AcDbEntity
  8
Cut
 62
7
100
AcDbSpline
 70
8
 71
3
 72
8
 73
4
 74
0
 40
0
 40
0
 40
0
 40
0
 40
1
 40
1
 40
1
 40
1
 10
1477.390471
 20
4374.467946
 30
0.0
 10
1480.110917
 20
4376.599007
 30
0.0
 10
1485.538685
 20
4381.500407
 30
0.0
 10
1489.451608
 20
4385.360440
 30
0.0
  0
SPLINE
  5
157
100
AcDbEntity
  8
Cut
 62
7
100
AcDbSpline
 70
8
 71
3
 72
8
 73
4
 74
0
 40
0
 40
0
 40
0
 40
0
 40
1
 40
1
 40
1
 40
1
 10
1489.451608
 20
4385.360440
 30
0.0
 10
1493.364901
 20
4389.219970
 30
0.0
 10
1497.037424
 20
4392.377656
 30
0.0
 10
1497.612734
 20
4392.377656
 30
0.0
  0
SPLINE
  5
158
100
AcDbEntity
  8
Cut
 62
7
100
AcDbSpline
 70
8
 71
3
 72
8
 73
4
 74
0
 40
0
 40
0
 40
0
 40
0
 40
1
 40
1
 40
1
 40
1
 10
1497.612734
 20
4392.377656
 30
0.0
 10
1498.188308
 20
4392.377656
 30
0.0
 10
1498.658685
 20
4393.041300
 30
0.0
 10
1498.658685
 20
4393.852274
 30
0.0
  0
SPLINE
  5
159
100
AcDbEntity
  8
Cut
 62
7
100
AcDbSpline
 70
8
 71
3
 72
8
 73
4
 74
0
 40
0
 40
0
 40
0
 40
0
 40
1
 40
1
 40
1
 40
1
 10
1498.658685
 20
4393.852274
 30
0.0
 10
1498.658685
 20
4394.663248
 30
0.0
 10
1501.365584
 20
4397.658681
 30
0.0
 10
1504.673987
 20
4400.508609
 30
0.0
  0
SPLINE
  5
15a
100
AcDbEntity
  8
Cut
 62
7
100
AcDbSpline
 70
8
 71
3
 72
8
 73
4
 74
0
 40
0
 40
0
 40
0
 40
0
 40
1
 40
1
 40
1
 40
1
 10
1504.673987
 20
4400.508609
 30
0.0
 10
1507.981913
 20
4403.358415
 30
0.0
 10
1511.941244
 20
4406.862345
 30
0.0
 10
1513.472176
 20
4408.295016
 30
0.0
  0
SPLINE
  5
15b
100
AcDbEntity
  8
Cut
 62
7
100
AcDbSpline
 70
8
 71
3
 72
8
 73
4
 74
0
 40
0
 40
0
 40
0
 40
0
 40
1
 40
1
 40
1
 40
1
 10
1513.472176
 20
4408.295016
 30
0.0
 10
1515.003320
 20
4409.727480
 30
0.0
 10
1516.599551
 20
4410.899653
 30
0.0
 10
1517.019551
 20
4410.899653
 30
0.0
  0
SPLINE
  5
15c
100
AcDbEntity
  8
Cut
 62
7
100
AcDbSpline
 70
8
 71
3
 72
8
 73
4
 74
0
 40
0
 40
0
 40
0
 40
0
 40
1
 40
1
 40
1
 40
1
 10
1517.019551
 20
4410.899653
 30
0.0
 10
1517.439127
 20
4410.899653
 30
0.0
 10
1518.487671
 20
4411.693028
 30
0.0
 10
1519.349683
 20
4412.662810
 30
0.0
  0
SPLINE
  5
15d
100
AcDbEntity
  8
Cut
 62
7
100
AcDbSpline
 70
8
 71
3
 72
8
 73
4
 74
0
 40
0
 40
0
 40
0
 40
0
 40
1
 40
1
 40
1
 40
1
 10
1519.349683
 20
4412.662810
 30
0.0
 10
1522.404510
 20
4416.100235
 30
0.0
 10
1528.623805
 20
4421.318860
 30
0.0
 10
1529.708280
 20
4421.355039
 30
0.0
  0
SPLINE
  5
15e
100
AcDbEntity
  8
Cut
 62
7
100
AcDbSpline
 70
8
 71
3
 72
8
 73
4
 74
0
 40
0
 40
0
 40
0
 40
0
 40
1
 40
1
 40
1
 40
1
 10
1529.708280
 20
4421.355039
 30
0.0
 10
1530.313593
 20
4421.390705
 30
0.0
 10
1532.343159
 20
4423.196058
 30
0.0
 10
1534.218632
 20
4425.400889
 30
0.0
  0
SPLINE
  5
15f
100
AcDbEntity
  8
Cut
 62
7
100
AcDbSpline
 70
8
 71
3
 72
8
 73
4
 74
0
 40
0
 40
0
 40
0
 40
0
 40
1
 40
1
 40
1
 40
1
 10
1534.218632
 20
4425.400889
 30
0.0
 10
1536.093734
 20
4427.606144
 30
0.0
 10
1538.382697
 20
4429.690632
 30
0.0
 10
1539.304982
 20
4430.032838
 30
0.0
  0
SPLINE
  5
160
100
AcDbEntity
  8
Cut
 62
7
100
AcDbSpline
 70
8
 71
3
 72
8
 73
4
 74
0
 40
0
 40
0
 40
0
 40
0
 40
1
 40
1
 40
1
 40
1
 10
1539.304982
 20
4430.032838
 30
0.0
 10
1540.227425
 20
4430.376490
 30
0.0
 10
1541.207230
 20
4431.663307
 30
0.0
 10
1541.481920
 20
4432.894371
 30
0.0
  0
SPLINE
  5
161
100
AcDbEntity
  8
Cut
 62
7
100
AcDbSpline
 70
8
 71
3
 72
8
 73
4
 74
0
 40
0
 40
0
 40
0
 40
0
 40
1
 40
1
 40
1
 40
1
 10
1541.481920
 20
4432.894371
 30
0.0
 10
1541.763278
 20
4434.155740
 30
0.0
 10
1544.293224
 20
4436.459504
 30
0.0
 10
1547.276930
 20
4438.172300
 30
0.0
  0
SPLINE
  5
162
100
AcDbEntity
  8
Cut
 62
7
100
AcDbSpline
 70
8
 71
3
 72
8
 73
4
 74
0
 40
0
 40
0
 40
0
 40
0
 40
1
 40
1
 40
1
 40
1
 10
1547.276930
 20
4438.172300
 30
0.0
 10
1555.780480
 20
4443.053852
 30
0.0
 10
1559.275044
 20
4445.430223
 30
0.0
 10
1560.017517
 20
4446.836383
 30
0.0
  0
SPLINE
  5
163
100
AcDbEntity
  8
Cut
 62
7
100
AcDbSpline
 70
8
 71
3
 72
8
 73
4
 74
0
 40
0
 40
0
 40
0
 40
0
 40
1
 40
1
 40
1
 40
1
 10
1560.017517
 20
4446.836383
 30
0.0
 10
1561.376312
 20
4449.409593
 30
0.0
 10
1566.654590
 20
4452.404963
 30
0.0
 10
1576.312782
 20
4456.083121
 30
0.0
  0
SPLINE
  5
164
100
AcDbEntity
  8
Cut
 62
7
100
AcDbSpline
 70
8
 71
3
 72
8
 73
4
 74
0
 40
0
 40
0
 40
0
 40
0
 40
1
 40
1
 40
1
 40
1
 10
1576.312782
 20
4456.083121
 30
0.0
 10
1581.749810
 20
4458.154316
 30
0.0
 10
1586.212696
 20
4458.829316
 30
0.0
 10
1597.086330
 20
4459.225720
 30
0.0
  0
SPLINE
  5
165
100
AcDbEntity
  8
Cut
 62
7
100
AcDbSpline
 70
8
 71
3
 72
8
 73
4
 74
0
 40
0
 40
0
 40
0
 40
0
 40
1
 40
1
 40
1
 40
1
 10
1597.086330
 20
4459.225720
 30
0.0
 10
1612.522016
 20
4459.789081
 30
0.0
 10
1631.557887
 20
4458.115576
 30
0.0
 10
1633.731492
 20
4456.004375
 30
0.0
  0
SPLINE
  5
166
100
AcDbEntity
  8
Cut
 62
7
100
AcDbSpline
 70
8
 71
3
 72
8
 73
4
 74
0
 40
0
 40
0
 40
0
 40
0
 40
1
 40
1
 40
1
 40
1
 10
1633.731492
 20
4456.004375
 30
0.0
 10
1634.679177
 20
4455.084080
 30
0.0
 10
1642.671340
 20
4454.363482
 30
0.0
 10
1657.819900
 20
4453.832421
 30
0.0
  0
SPLINE
  5
167
100
AcDbEntity
  8
Cut
 62
7
100
AcDbSpline
 70
8
 71
3
 72
8
 73
4
 74
0
 40
0
 40
0
 40
0
 40
0
 40
1
 40
1
 40
1
 40
1
 10
1657.819900
 20
4453.832421
 30
0.0
 10
1671.667080
 20
4453.347260
 30
0.0
 10
1681.007190
 20
4452.547748
 30
0.0
 10
1681.819196
 20
4451.777953
 30
0.0
  0
SPLINE
  5
168
100
AcDbEntity
  8
Cut
 62
7
100
AcDbSpline
 70
8
 71
3
 72
8
 73
4
 74
0
 40
0
 40
0
 40
0
 40
0
 40
1
 40
1
 40
1
 40
1
 10
1681.819196
 20
4451.777953
 30
0.0
 10
1682.550769
 20
4451.084813
 30
0.0
 10
1688.370702
 20
4449.929807
 30
0.0
 10
1694.752982
 20
4449.210632
 30
0.0
  0
SPLINE
  5
169
100
AcDbEntity
  8
Cut
 62
7
100
AcDbSpline
 70
8
 71
3
 72
8
 73
4
 74
0
 40
0
 40
0
 40
0
 40
0
 40
1
 40
1
 40
1
 40
1
 10
1694.752982
 20
4449.210632
 30
0.0
 10
1701.135314
 20
4448.491447
 30
0.0
 10
1707.589930
 20
4447.354024
 30
0.0
 10
1709.096785
 20
4446.682586
 30
0.0
  0
SPLINE
  5
16a
100
AcDbEntity
  8
Cut
 62
7
100
AcDbSpline
 70
8
 71
3
 72
8
 73
4
 74
0
 40
0
 40
0
 40
0
 40
0
 40
1
 40
1
 40
1
 40
1
 10
1709.096785
 20
4446.682586
 30
0.0
 10
1710.603534
 20
4446.011148
 30
0.0
 10
1716.510251
 20
4445.011679
 30
0.0
 10
1722.223240
 20
4444.461457
 30
0.0
  0
SPLINE
  5
16b
100
AcDbEntity
  8
Cut
 62
7
100
AcDbSpline
 70
8
 71
3
 72
8
 73
4
 74
0
 40
0
 40
0
 40
0
 40
0
 40
1
 40
1
 40
1
 40
1
 10
1722.223240
 20
4444.461457
 30
0.0
 10
1727.935912
 20
4443.911520
 30
0.0
 10
1734.265010
 20
4442.646589
 30
0.0
 10
1736.288014
 20
4441.650666
 30
0.0
  0
SPLINE
  5
16c
100
AcDbEntity
  8
Cut
 62
7
100
AcDbSpline
 70
8
 71
3
 72
8
 73
4
 74
0
 40
0
 40
0
 40
0
 40
0
 40
1
 40
1
 40
1
 40
1
 10
1736.288014
 20
4441.650666
 30
0.0
 10
1738.310860
 20
4440.655050
 30
0.0
 10
1742.136258
 20
4439.840091
 30
0.0
 10
1744.788918
 20
4439.840091
 30
0.0
  0
SPLINE
  5
16d
100
AcDbEntity
  8
Cut
 62
7
100
AcDbSpline
 70
8
 71
3
 72
8
 73
4
 74
0
 40
0
 40
0
 40
0
 40
0
 40
1
 40
1
 40
1
 40
1
 10
1744.788918
 20
4439.840091
 30
0.0
 10
1747.441525
 20
4439.840091
 30
0.0
 10
1752.199368
 20
4438.798124
 30
0.0
 10
1755.361985
 20
4437.524759
 30
0.0
  0
SPLINE
  5
16e
100
AcDbEntity
  8
Cut
 62
7
100
AcDbSpline
 70
8
 71
3
 72
8
 73
4
 74
0
 40
0
 40
0
 40
0
 40
0
 40
1
 40
1
 40
1
 40
1
 10
1755.361985
 20
4437.524759
 30
0.0
 10
1758.524973
 20
4436.251377
 30
0.0
 10
1762.206545
 20
4435.209565
 30
0.0
 10
1763.543537
 20
4435.209565
 30
0.0
  0
SPLINE
  5
16f
100
AcDbEntity
  8
Cut
 62
7
100
AcDbSpline
 70
8
 71
3
 72
8
 73
4
 74
0
 40
0
 40
0
 40
0
 40
0
 40
1
 40
1
 40
1
 40
1
 10
1763.543537
 20
4435.209565
 30
0.0
 10
1764.880371
 20
4435.209565
 30
0.0
 10
1767.592879
 20
4434.236078
 30
0.0
 10
1769.571275
 20
4433.046321
 30
0.0
  0
SPLINE
  5
170
100
AcDbEntity
  8
Cut
 62
7
100
AcDbSpline
 70
8
 71
3
 72
8
 73
4
 74
0
 40
0
 40
0
 40
0
 40
0
 40
1
 40
1
 40
1
 40
1
 10
1769.571275
 20
4433.046321
 30
0.0
 10
1771.549458
 20
4431.856151
 30
0.0
 10
1774.948825
 20
4430.333871
 30
0.0
 10
1777.125023
 20
4429.663178
 30
0.0
  0
SPLINE
  5
171
100
AcDbEntity
  8
Cut
 62
7
100
AcDbSpline
 70
8
 71
3
 72
8
 73
4
 74
0
 40
0
 40
0
 40
0
 40
0
 40
1
 40
1
 40
1
 40
1
 10
1777.125023
 20
4429.663178
 30
0.0
 10
1783.393161
 20
4427.731360
 30
0.0
 10
1790.629727
 20
4424.789929
 30
0.0
 10
1795.039431
 20
4422.380951
 30
0.0
  0
SPLINE
  5
172
100
AcDbEntity
  8
Cut
 62
7
100
AcDbSpline
 70
8
 71
3
 72
8
 73
4
 74
0
 40
0
 40
0
 40
0
 40
0
 40
1
 40
1
 40
1
 40
1
 10
1795.039431
 20
4422.380951
 30
0.0
 10
1797.275425
 20
4421.159740
 30
0.0
 10
1799.608468
 20
4420.160546
 30
0.0
 10
1800.224153
 20
4420.160546
 30
0.0
  0
SPLINE
  5
173
100
AcDbEntity
  8
Cut
 62
7
100
AcDbSpline
 70
8
 71
3
 72
8
 73
4
 74
0
 40
0
 40
0
 40
0
 40
0
 40
1
 40
1
 40
1
 40
1
 10
1800.224153
 20
4420.160546
 30
0.0
 10
1801.875365
 20
4420.160546
 30
0.0
 10
1816.372415
 20
4414.222772
 30
0.0
 10
1818.672385
 20
4412.604173
 30
0.0
  0
SPLINE
  5
174
100
AcDbEntity
  8
Cut
 62
7
100
AcDbSpline
 70
8
 71
3
 72
8
 73
4
 74
0
 40
0
 40
0
 40
0
 40
0
 40
1
 40
1
 40
1
 40
1
 10
1818.672385
 20
4412.604173
 30
0.0
 10
1819.760457
 20
4411.838628
 30
0.0
 10
1822.776919
 20
4410.549446
 30
0.0
 10
1825.375339
 20
4409.739429
 30
0.0
  0
SPLINE
  5
175
100
AcDbEntity
  8
Cut
 62
7
100
AcDbSpline
 70
8
 71
3
 72
8
 73
4
 74
0
 40
0
 40
0
 40
0
 40
0
 40
1
 40
1
 40
1
 40
1
 10
1825.375339
 20
4409.739429
 30
0.0
 10
1827.973336
 20
4408.929566
 30
0.0
 10
1830.336753
 20
4407.817437
 30
0.0
 10
1830.627001
 20
4407.267914
 30
0.0
  0
SPLINE
  5
176
100
AcDbEntity
  8
Cut
 62
7
100
AcDbSpline
 70
8
 71
3
 72
8
 73
4
 74
0
 40
0
 40
0
 40
0
 40
0
 40
1
 40
1
 40
1
 40
1
 10
1830.627001
 20
4407.267914
 30
0.0
 10
1830.917619
 20
4406.718829
 30
0.0
 10
1832.129834
 20
4406.257978
 30
0.0
 10
1833.321729
 20
4406.243780
 30
0.0
  0
SPLINE
  5
177
100
AcDbEntity
  8
Cut
 62
7
100
AcDbSpline
 70
8
 71
3
 72
8
 73
4
 74
0
 40
0
 40
0
 40
0
 40
0
 40
1
 40
1
 40
1
 40
1
 10
1833.321729
 20
4406.243780
 30
0.0
 10
1834.514100
 20
4406.243780
 30
0.0
 10
1837.323076
 20
4405.243597
 30
0.0
 10
1839.565049
 20
4404.052739
 30
0.0
  0
SPLINE
  5
178
100
AcDbEntity
  8
Cut
 62
7
100
AcDbSpline
 70
8
 71
3
 72
8
 73
4
 74
0
 40
0
 40
0
 40
0
 40
0
 40
1
 40
1
 40
1
 40
1
 10
1839.565049
 20
4404.052739
 30
0.0
 10
1841.806546
 20
4402.861469
 30
0.0
 10
1845.572467
 20
4401.570344
 30
0.0
 10
1847.933820
 20
4401.183952
 30
0.0
  0
SPLINE
  5
179
100
AcDbEntity
  8
Cut
 62
7
100
AcDbSpline
 70
8
 71
3
 72
8
 73
4
 74
0
 40
0
 40
0
 40
0
 40
0
 40
1
 40
1
 40
1
 40
1
 10
1847.933820
 20
4401.183952
 30
0.0
 10
1850.295279
 20
4400.797227
 30
0.0
 10
1852.601070
 20
4399.699624
 30
0.0
 10
1853.057688
 20
4398.744700
 30
0.0
  0
SPLINE
  5
17a
100
AcDbEntity
  8
Cut
 62
7
100
AcDbSpline
 70
8
 71
3
 72
8
 73
4
 74
0
 40
0
 40
0
 40
0
 40
0
 40
1
 40
1
 40
1
 40
1
 10
1853.057688
 20
4398.744700
 30
0.0
 10
1853.514465
 20
4397.789602
 30
0.0
 10
1854.838281
 20
4397.008176
 30
0.0
 10
1855.999696
 20
4397.008176
 30
0.0
  0
SPLINE
  5
17b
100
AcDbEntity
  8
Cut
 62
7
100
AcDbSpline
 70
8
 71
3
 72
8
 73
4
 74
0
 40
0
 40
0
 40
0
 40
0
 40
1
 40
1
 40
1
 40
1
 10
1855.999696
 20
4397.008176
 30
0.0
 10
1857.161058
 20
4397.008176
 30
0.0
 10
1859.921191
 20
4395.995748
 30
0.0
 10
1862.133372
 20
4394.758070
 30
0.0
  0
SPLINE
  5
17c
100
AcDbEntity
  8
Cut
 62
7
100
AcDbSpline
 70
8
 71
3
 72
8
 73
4
 74
0
 40
0
 40
0
 40
0
 40
0
 40
1
 40
1
 40
1
 40
1
 10
1862.133372
 20
4394.758070
 30
0.0
 10
1864.345395
 20
4393.520613
 30
0.0
 10
1870.361597
 20
4390.884009
 30
0.0
 10
1875.502927
 20
4388.899068
 30
0.0
  0
SPLINE
  5
17d
100
AcDbEntity
  8
Cut
 62
7
100
AcDbSpline
 70
8
 71
3
 72
8
 73
4
 74
0
 40
0
 40
0
 40
0
 40
0
 40
1
 40
1
 40
1
 40
1
 10
1875.502927
 20
4388.899068
 30
0.0
 10
1880.644363
 20
4386.914190
 30
0.0
 10
1885.986142
 20
4384.625322
 30
0.0
 10
1887.373511
 20
4383.812564
 30
0.0
  0
SPLINE
  5
17e
100
AcDbEntity
  8
Cut
 62
7
100
AcDbSpline
 70
8
 71
3
 72
8
 73
4
 74
0
 40
0
 40
0
 40
0
 40
0
 40
1
 40
1
 40
1
 40
1
 10
1887.373511
 20
4383.812564
 30
0.0
 10
1894.753799
 20
4379.490183
 30
0.0
 10
1899.193772
 20
4377.446583
 30
0.0
 10
1902.722149
 20
4376.748893
 30
0.0
  0
SPLINE
  5
17f
100
AcDbEntity
  8
Cut
 62
7
100
AcDbSpline
 70
8
 71
3
 72
8
 73
4
 74
0
 40
0
 40
0
 40
0
 40
0
 40
1
 40
1
 40
1
 40
1
 10
1902.722149
 20
4376.748893
 30
0.0
 10
1904.879826
 20
4376.321855
 30
0.0
 10
1907.862633
 20
4375.235857
 30
0.0
 10
1909.350385
 20
4374.335501
 30
0.0
  0
SPLINE
  5
180
100
AcDbEntity
  8
Cut
 62
7
100
AcDbSpline
 70
8
 71
3
 72
8
 73
4
 74
0
 40
0
 40
0
 40
0
 40
0
 40
1
 40
1
 40
1
 40
1
 10
1909.350385
 20
4374.335501
 30
0.0
 10
1910.838243
 20
4373.435140
 30
0.0
 10
1913.050318
 20
4372.698318
 30
0.0
 10
1914.265497
 20
4372.698318
 30
0.0
  0
SPLINE
  5
181
100
AcDbEntity
  8
Cut
 62
7
100
AcDbSpline
 70
8
 71
3
 72
8
 73
4
 74
0
 40
0
 40
0
 40
0
 40
0
 40
1
 40
1
 40
1
 40
1
 10
1914.265497
 20
4372.698318
 30
0.0
 10
1915.480992
 20
4372.698318
 30
0.0
 10
1918.285152
 20
4371.740299
 30
0.0
 10
1920.497440
 20
4370.569650
 30
0.0
  0
SPLINE
  5
182
100
AcDbEntity
  8
Cut
 62
7
100
AcDbSpline
 70
8
 71
3
 72
8
 73
4
 74
0
 40
0
 40
0
 40
0
 40
0
 40
1
 40
1
 40
1
 40
1
 10
1920.497440
 20
4370.569650
 30
0.0
 10
1922.709568
 20
4369.398636
 30
0.0
 10
1926.299858
 20
4367.876361
 30
0.0
 10
1928.475897
 20
4367.186343
 30
0.0
  0
SPLINE
  5
183
100
AcDbEntity
  8
Cut
 62
7
100
AcDbSpline
 70
8
 71
3
 72
8
 73
4
 74
0
 40
0
 40
0
 40
0
 40
0
 40
1
 40
1
 40
1
 40
1
 10
1928.475897
 20
4367.186343
 30
0.0
 10
1935.113711
 20
4365.082969
 30
0.0
 10
1942.074052
 20
4362.207917
 30
0.0
 10
1947.271156
 20
4359.422754
 30
0.0
  0
SPLINE
  5
184
100
AcDbEntity
  8
Cut
 62
7
100
AcDbSpline
 70
8
 71
3
 72
8
 73
4
 74
0
 40
0
 40
0
 40
0
 40
0
 40
1
 40
1
 40
1
 40
1
 10
1947.271156
 20
4359.422754
 30
0.0
 10
1957.407926
 20
4353.991493
 30
0.0
 10
1959.476015
 20
4353.018832
 30
0.0
 10
1960.889419
 20
4353.018832
 30
0.0
  0
SPLINE
  5
185
100
AcDbEntity
  8
Cut
 62
7
100
AcDbSpline
 70
8
 71
3
 72
8
 73
4
 74
0
 40
0
 40
0
 40
0
 40
0
 40
1
 40
1
 40
1
 40
1
 10
1960.889419
 20
4353.018832
 30
0.0
 10
1961.685762
 20
4353.018832
 30
0.0
 10
1963.399310
 20
4352.075751
 30
0.0
 10
1964.696773
 20
4350.922803
 30
0.0
  0
SPLINE
  5
186
100
AcDbEntity
  8
Cut
 62
7
100
AcDbSpline
 70
8
 71
3
 72
8
 73
4
 74
0
 40
0
 40
0
 40
0
 40
0
 40
1
 40
1
 40
1
 40
1
 10
1964.696773
 20
4350.922803
 30
0.0
 10
1965.994237
 20
4349.769960
 30
0.0
 10
1969.058694
 20
4348.151610
 30
0.0
 10
1971.507148
 20
4347.326734
 30
0.0
  0
SPLINE
  5
187
100
AcDbEntity
  8
Cut
 62
7
100
AcDbSpline
 70
8
 71
3
 72
8
 73
4
 74
0
 40
0
 40
0
 40
0
 40
0
 40
1
 40
1
 40
1
 40
1
 10
1971.507148
 20
4347.326734
 30
0.0
 10
1973.955338
 20
4346.502134
 30
0.0
 10
1978.564062
 20
4344.319903
 30
0.0
 10
1981.748481
 20
4342.477133
 30
0.0
  0
SPLINE
  5
188
100
AcDbEntity
  8
Cut
 62
7
100
AcDbSpline
 70
8
 71
3
 72
8
 73
4
 74
0
 40
0
 40
0
 40
0
 40
0
 40
1
 40
1
 40
1
 40
1
 10
1981.748481
 20
4342.477133
 30
0.0
 10
1984.932689
 20
4340.634734
 30
0.0
 10
1988.048740
 20
4339.122587
 30
0.0
 10
1988.672997
 20
4339.116978
 30
0.0
  0
SPLINE
  5
189
100
AcDbEntity
  8
Cut
 62
7
100
AcDbSpline
 70
8
 71
3
 72
8
 73
4
 74
0
 40
0
 40
0
 40
0
 40
0
 40
1
 40
1
 40
1
 40
1
 10
1988.672997
 20
4339.116978
 30
0.0
 10
1989.297044
 20
4339.116978
 30
0.0
 10
1992.033470
 20
4337.825123
 30
0.0
 10
1994.754022
 20
4336.259055
 30
0.0
  0
SPLINE
  5
18a
100
AcDbEntity
  8
Cut
 62
7
100
AcDbSpline
 70
8
 71
3
 72
8
 73
4
 74
0
 40
0
 40
0
 40
0
 40
0
 40
1
 40
1
 40
1
 40
1
 10
1994.754022
 20
4336.259055
 30
0.0
 10
1997.474256
 20
4334.692774
 30
0.0
 10
2000.243227
 20
4333.395469
 30
0.0
 10
2000.907119
 20
4333.375361
 30
0.0
  0
SPLINE
  5
18b
100
AcDbEntity
  8
Cut
 62
7
100
AcDbSpline
 70
8
 71
3
 72
8
 73
4
 74
0
 40
0
 40
0
 40
0
 40
0
 40
1
 40
1
 40
1
 40
1
 10
2000.907119
 20
4333.375361
 30
0.0
 10
2001.908726
 20
4333.342023
 30
0.0
 10
2008.326618
 20
4329.700986
 30
0.0
 10
2015.032906
 20
4325.353882
 30
0.0
  0
SPLINE
  5
18c
100
AcDbEntity
  8
Cut
 62
7
100
AcDbSpline
 70
8
 71
3
 72
8
 73
4
 74
0
 40
0
 40
0
 40
0
 40
0
 40
1
 40
1
 40
1
 40
1
 10
2015.032906
 20
4325.353882
 30
0.0
 10
2015.849145
 20
4324.824715
 30
0.0
 10
2019.187605
 20
4322.918551
 30
0.0
 10
2022.452140
 20
4321.117374
 30
0.0
  0
SPLINE
  5
18d
100
AcDbEntity
  8
Cut
 62
7
100
AcDbSpline
 70
8
 71
3
 72
8
 73
4
 74
0
 40
0
 40
0
 40
0
 40
0
 40
1
 40
1
 40
1
 40
1
 10
2022.452140
 20
4321.117374
 30
0.0
 10
2025.716569
 20
4319.316355
 30
0.0
 10
2028.975812
 20
4317.162329
 30
0.0
 10
2029.694580
 20
4316.330373
 30
0.0
  0
SPLINE
  5
18e
100
AcDbEntity
  8
Cut
 62
7
100
AcDbSpline
 70
8
 71
3
 72
8
 73
4
 74
0
 40
0
 40
0
 40
0
 40
0
 40
1
 40
1
 40
1
 40
1
 10
2029.694580
 20
4316.330373
 30
0.0
 10
2030.413823
 20
4315.498365
 30
0.0
 10
2031.919302
 20
4314.817168
 30
0.0
 10
2033.040183
 20
4314.817168
 30
0.0
  0
SPLINE
  5
18f
100
AcDbEntity
  8
Cut
 62
7
100
AcDbSpline
 70
8
 71
3
 72
8
 73
4
 74
0
 40
0
 40
0
 40
0
 40
0
 40
1
 40
1
 40
1
 40
1
 10
2033.040183
 20
4314.817168
 30
0.0
 10
2034.161434
 20
4314.817168
 30
0.0
 10
2036.466590
 20
4313.831595
 30
0.0
 10
2038.163310
 20
4312.627265
 30
0.0
  0
SPLINE
  5
190
100
AcDbEntity
  8
Cut
 62
7
100
AcDbSpline
 70
8
 71
3
 72
8
 73
4
 74
0
 40
0
 40
0
 40
0
 40
0
 40
1
 40
1
 40
1
 40
1
 10
2038.163310
 20
4312.627265
 30
0.0
 10
2039.859607
 20
4311.422141
 30
0.0
 10
2042.805425
 20
4310.052234
 30
0.0
 10
2044.709842
 20
4309.582228
 30
0.0
  0
SPLINE
  5
191
100
AcDbEntity
  8
Cut
 62
7
100
AcDbSpline
 70
8
 71
3
 72
8
 73
4
 74
0
 40
0
 40
0
 40
0
 40
0
 40
1
 40
1
 40
1
 40
1
 10
2044.709842
 20
4309.582228
 30
0.0
 10
2046.613996
 20
4309.112117
 30
0.0
 10
2049.233688
 20
4307.753693
 30
0.0
 10
2050.531046
 20
4306.563280
 30
0.0
  0
SPLINE
  5
192
100
AcDbEntity
  8
Cut
 62
7
100
AcDbSpline
 70
8
 71
3
 72
8
 73
4
 74
0
 40
0
 40
0
 40
0
 40
0
 40
1
 40
1
 40
1
 40
1
 10
2050.531046
 20
4306.563280
 30
0.0
 10
2051.828616
 20
4305.373131
 30
0.0
 10
2053.621697
 20
4304.398723
 30
0.0
 10
2054.515354
 20
4304.398723
 30
0.0
  0
SPLINE
  5
193
100
AcDbEntity
  8
Cut
 62
7
100
AcDbSpline
 70
8
 71
3
 72
8
 73
4
 74
0
 40
0
 40
0
 40
0
 40
0
 40
1
 40
1
 40
1
 40
1
 10
2054.515354
 20
4304.398723
 30
0.0
 10
2055.409063
 20
4304.398723
 30
0.0
 10
2057.037838
 20
4303.663499
 30
0.0
 10
2058.134325
 20
4302.764498
 30
0.0
  0
SPLINE
  5
194
100
AcDbEntity
  8
Cut
 62
7
100
AcDbSpline
 70
8
 71
3
 72
8
 73
4
 74
0
 40
0
 40
0
 40
0
 40
0
 40
1
 40
1
 40
1
 40
1
 10
2058.134325
 20
4302.764498
 30
0.0
 10
2059.231446
 20
4301.865655
 30
0.0
 10
2062.780408
 20
4300.244924
 30
0.0
 10
2066.020972
 20
4299.163678
 30
0.0
  0
SPLINE
  5
195
100
AcDbEntity
  8
Cut
 62
7
100
AcDbSpline
 70
8
 71
3
 72
8
 73
4
 74
0
 40
0
 40
0
 40
0
 40
0
 40
1
 40
1
 40
1
 40
1
 10
2066.020972
 20
4299.163678
 30
0.0
 10
2069.262012
 20
4298.081902
 30
0.0
 10
2072.336152
 20
4296.733480
 30
0.0
 10
2072.853095
 20
4296.167377
 30
0.0
  0
SPLINE
  5
196
100
AcDbEntity
  8
Cut
 62
7
100
AcDbSpline
 70
8
 71
3
 72
8
 73
4
 74
0
 40
0
 40
0
 40
0
 40
0
 40
1
 40
1
 40
1
 40
1
 10
2072.853095
 20
4296.167377
 30
0.0
 10
2073.369985
 20
4295.601275
 30
0.0
 10
2074.756455
 20
4295.137830
 30
0.0
 10
2075.934803
 20
4295.137830
 30
0.0
  0
SPLINE
  5
197
100
AcDbEntity
  8
Cut
 62
7
100
AcDbSpline
 70
8
 71
3
 72
8
 73
4
 74
0
 40
0
 40
0
 40
0
 40
0
 40
1
 40
1
 40
1
 40
1
 10
2075.934803
 20
4295.137830
 30
0.0
 10
2077.112993
 20
4295.137830
 30
0.0
 10
2079.138220
 20
4294.175964
 30
0.0
 10
2080.435683
 20
4292.999944
 30
0.0
  0
SPLINE
  5
198
100
AcDbEntity
  8
Cut
 62
7
100
AcDbSpline
 70
8
 71
3
 72
8
 73
4
 74
0
 40
0
 40
0
 40
0
 40
0
 40
1
 40
1
 40
1
 40
1
 10
2080.435683
 20
4292.999944
 30
0.0
 10
2081.732988
 20
4291.823818
 30
0.0
 10
2084.519368
 20
4290.543976
 30
0.0
 10
2086.627145
 20
4290.155356
 30
0.0
  0
SPLINE
  5
199
100
AcDbEntity
  8
Cut
 62
7
100
AcDbSpline
 70
8
 71
3
 72
8
 73
4
 74
0
 40
0
 40
0
 40
0
 40
0
 40
1
 40
1
 40
1
 40
1
 10
2086.627145
 20
4290.155356
 30
0.0
 10
2088.734922
 20
4289.767000
 30
0.0
 10
2091.183323
 20
4288.716816
 30
0.0
 10
2092.067772
 20
4287.821731
 30
0.0
  0
SPLINE
  5
19a
100
AcDbEntity
  8
Cut
 62
7
100
AcDbSpline
 70
8
 71
3
 72
8
 73
4
 74
0
 40
0
 40
0
 40
0
 40
0
 40
1
 40
1
 40
1
 40
1
 10
2092.067772
 20
4287.821731
 30
0.0
 10
2092.952645
 20
4286.927069
 30
0.0
 10
2095.205042
 20
4285.856723
 30
0.0
 10
2097.073900
 20
4285.443497
 30
0.0
  0
SPLINE
  5
19b
100
AcDbEntity
  8
Cut
 62
7
100
AcDbSpline
 70
8
 71
3
 72
8
 73
4
 74
0
 40
0
 40
0
 40
0
 40
0
 40
1
 40
1
 40
1
 40
1
 10
2097.073900
 20
4285.443497
 30
0.0
 10
2098.942229
 20
4285.030006
 30
0.0
 10
2101.210396
 20
4283.909125
 30
0.0
 10
2102.113790
 20
4282.952180
 30
0.0
  0
SPLINE
  5
19c
100
AcDbEntity
  8
Cut
 62
7
100
AcDbSpline
 70
8
 71
3
 72
8
 73
4
 74
0
 40
0
 40
0
 40
0
 40
0
 40
1
 40
1
 40
1
 40
1
 10
2102.113790
 20
4282.952180
 30
0.0
 10
2103.280073
 20
4281.717105
 30
0.0
 10
2106.313256
 20
4281.153120
 30
0.0
 10
2112.565678
 20
4281.008340
 30
0.0
  0
SPLINE
  5
19d
100
AcDbEntity
  8
Cut
 62
7
100
AcDbSpline
 70
8
 71
3
 72
8
 73
4
 74
0
 40
0
 40
0
 40
0
 40
0
 40
1
 40
1
 40
1
 40
1
 10
2112.565678
 20
4281.008340
 30
0.0
 10
2120.949160
 20
4280.816887
 30
0.0
 10
2121.690734
 20
4281.008340
 30
0.0
 10
2127.915268
 20
4284.950525
 30
0.0
  0
SPLINE
  5
19e
100
AcDbEntity
  8
Cut
 62
7
100
AcDbSpline
 70
8
 71
3
 72
8
 73
4
 74
0
 40
0
 40
0
 40
0
 40
0
 40
1
 40
1
 40
1
 40
1
 10
2127.915268
 20
4284.950525
 30
0.0
 10
2131.513020
 20
4287.230387
 30
0.0
 10
2135.964422
 20
4289.450400
 30
0.0
 10
2137.807722
 20
4289.883735
 30
0.0
  0
SPLINE
  5
19f
100
AcDbEntity
  8
Cut
 62
7
100
AcDbSpline
 70
8
 71
3
 72
8
 73
4
 74
0
 40
0
 40
0
 40
0
 40
0
 40
1
 40
1
 40
1
 40
1
 10
2137.807722
 20
4289.883735
 30
0.0
 10
2139.650809
 20
4290.317440
 30
0.0
 10
2142.939368
 20
4291.643478
 30
0.0
 10
2145.115884
 20
4292.830717
 30
0.0
  0
SPLINE
  5
1a0
100
AcDbEntity
  8
Cut
 62
7
100
AcDbSpline
 70
8
 71
3
 72
8
 73
4
 74
0
 40
0
 40
0
 40
0
 40
0
 40
1
 40
1
 40
1
 40
1
 10
2145.115884
 20
4292.830717
 30
0.0
 10
2151.562298
 20
4296.347241
 30
0.0
 10
2158.727162
 20
4299.459535
 30
0.0
 10
2162.427148
 20
4300.350598
 30
0.0
  0
SPLINE
  5
1a1
100
AcDbEntity
  8
Cut
 62
7
100
AcDbSpline
 70
8
 71
3
 72
8
 73
4
 74
0
 40
0
 40
0
 40
0
 40
0
 40
1
 40
1
 40
1
 40
1
 10
2162.427148
 20
4300.350598
 30
0.0
 10
2164.331460
 20
4300.808645
 30
0.0
 10
2166.557082
 20
4301.821788
 30
0.0
 10
2167.373269
 20
4302.602361
 30
0.0
  0
SPLINE
  5
1a2
100
AcDbEntity
  8
Cut
 62
7
100
AcDbSpline
 70
8
 71
3
 72
8
 73
4
 74
0
 40
0
 40
0
 40
0
 40
0
 40
1
 40
1
 40
1
 40
1
 10
2167.373269
 20
4302.602361
 30
0.0
 10
2169.740337
 20
4304.865448
 30
0.0
 10
2181.170972
 20
4308.746515
 30
0.0
 10
2187.830323
 20
4309.548044
 30
0.0
  0
SPLINE
  5
1a3
100
AcDbEntity
  8
Cut
 62
7
100
AcDbSpline
 70
8
 71
3
 72
8
 73
4
 74
0
 40
0
 40
0
 40
0
 40
0
 40
1
 40
1
 40
1
 40
1
 10
2187.830323
 20
4309.548044
 30
0.0
 10
2191.193177
 20
4309.952592
 30
0.0
 10
2195.227385
 20
4311.032780
 30
0.0
 10
2196.795570
 20
4311.948238
 30
0.0
  0
SPLINE
  5
1a4
100
AcDbEntity
  8
Cut
 62
7
100
AcDbSpline
 70
8
 71
3
 72
8
 73
4
 74
0
 40
0
 40
0
 40
0
 40
0
 40
1
 40
1
 40
1
 40
1
 10
2196.795570
 20
4311.948238
 30
0.0
 10
2198.363650
 20
4312.863855
 30
0.0
 10
2203.625525
 20
4313.932772
 30
0.0
 10
2208.487984
 20
4314.323562
 30
0.0
  0
SPLINE
  5
1a5
100
AcDbEntity
  8
Cut
 62
7
100
AcDbSpline
 70
8
 71
3
 72
8
 73
4
 74
0
 40
0
 40
0
 40
0
 40
0
 40
1
 40
1
 40
1
 40
1
 10
2208.487984
 20
4314.323562
 30
0.0
 10
2213.350867
 20
4314.714722
 30
0.0
 10
2218.887220
 20
4315.875660
 30
0.0
 10
2220.791585
 20
4316.904202
 30
0.0
  0
SPLINE
  5
1a6
100
AcDbEntity
  8
Cut
 62
7
100
AcDbSpline
 70
8
 71
3
 72
8
 73
4
 74
0
 40
0
 40
0
 40
0
 40
0
 40
1
 40
1
 40
1
 40
1
 10
2220.791585
 20
4316.904202
 30
0.0
 10
2223.816672
 20
4318.537528
 30
0.0
 10
2231.308561
 20
4318.828728
 30
0.0
 10
2280.144771
 20
4319.210628
 30
0.0
  0
SPLINE
  5
1a7
100
AcDbEntity
  8
Cut
 62
7
100
AcDbSpline
 70
8
 71
3
 72
8
 73
4
 74
0
 40
0
 40
0
 40
0
 40
0
 40
1
 40
1
 40
1
 40
1
 10
2280.144771
 20
4319.210628
 30
0.0
 10
2327.500002
 20
4319.580515
 30
0.0
 10
2336.489062
 20
4319.913943
 30
0.0
 10
2339.003662
 20
4321.395610
 30
0.0
  0
SPLINE
  5
1a8
100
AcDbEntity
  8
Cut
 62
7
100
AcDbSpline
 70
8
 71
3
 72
8
 73
4
 74
0
 40
0
 40
0
 40
0
 40
0
 40
1
 40
1
 40
1
 40
1
 10
2339.003662
 20
4321.395610
 30
0.0
 10
2340.635665
 20
4322.357105
 30
0.0
 10
2344.864712
 20
4323.394643
 30
0.0
 10
2348.401291
 20
4323.701083
 30
0.0
  0
SPLINE
  5
1a9
100
AcDbEntity
  8
Cut
 62
7
100
AcDbSpline
 70
8
 71
3
 72
8
 73
4
 74
0
 40
0
 40
0
 40
0
 40
0
 40
1
 40
1
 40
1
 40
1
 10
2348.401291
 20
4323.701083
 30
0.0
 10
2351.937818
 20
4324.008582
 30
0.0
 10
2356.916588
 20
4325.259849
 30
0.0
 10
2359.466007
 20
4326.483865
 30
0.0
  0
SPLINE
  5
1aa
100
AcDbEntity
  8
Cut
 62
7
100
AcDbSpline
 70
8
 71
3
 72
8
 73
4
 74
0
 40
0
 40
0
 40
0
 40
0
 40
1
 40
1
 40
1
 40
1
 10
2359.466007
 20
4326.483865
 30
0.0
 10
2362.027015
 20
4327.713225
 30
0.0
 10
2366.453389
 20
4328.712344
 30
0.0
 10
2369.358408
 20
4328.716419
 30
0.0
  0
SPLINE
  5
1ab
100
AcDbEntity
  8
Cut
 62
7
100
AcDbSpline
 70
8
 71
3
 72
8
 73
4
 74
0
 40
0
 40
0
 40
0
 40
0
 40
1
 40
1
 40
1
 40
1
 10
2369.358408
 20
4328.716419
 30
0.0
 10
2372.940231
 20
4328.716419
 30
0.0
 10
2375.561300
 20
4329.457252
 30
0.0
 10
2377.583457
 20
4331.024168
 30
0.0
  0
SPLINE
  5
1ac
100
AcDbEntity
  8
Cut
 62
7
100
AcDbSpline
 70
8
 71
3
 72
8
 73
4
 74
0
 40
0
 40
0
 40
0
 40
0
 40
1
 40
1
 40
1
 40
1
 10
2377.583457
 20
4331.024168
 30
0.0
 10
2379.215460
 20
4332.289193
 30
0.0
 10
2382.115399
 20
4333.327789
 30
0.0
 10
2384.027860
 20
4333.331652
 30
0.0
  0
SPLINE
  5
1ad
100
AcDbEntity
  8
Cut
 62
7
100
AcDbSpline
 70
8
 71
3
 72
8
 73
4
 74
0
 40
0
 40
0
 40
0
 40
0
 40
1
 40
1
 40
1
 40
1
 10
2384.027860
 20
4333.331652
 30
0.0
 10
2385.940163
 20
4333.331652
 30
0.0
 10
2389.165910
 20
4334.381042
 30
0.0
 10
2391.195952
 20
4335.654693
 30
0.0
  0
SPLINE
  5
1ae
100
AcDbEntity
  8
Cut
 62
7
100
AcDbSpline
 70
8
 71
3
 72
8
 73
4
 74
0
 40
0
 40
0
 40
0
 40
0
 40
1
 40
1
 40
1
 40
1
 10
2391.195952
 20
4335.654693
 30
0.0
 10
2393.226259
 20
4336.928080
 30
0.0
 10
2395.445637
 20
4337.985937
 30
0.0
 10
2396.127680
 20
4338.005781
 30
0.0
  0
SPLINE
  5
1af
100
AcDbEntity
  8
Cut
 62
7
100
AcDbSpline
 70
8
 71
3
 72
8
 73
4
 74
0
 40
0
 40
0
 40
0
 40
0
 40
1
 40
1
 40
1
 40
1
 10
2396.127680
 20
4338.005781
 30
0.0
 10
2396.809670
 20
4338.042823
 30
0.0
 10
2399.593562
 20
4339.323512
 30
0.0
 10
2402.313850
 20
4340.889528
 30
0.0
  0
SPLINE
  5
1b0
100
AcDbEntity
  8
Cut
 62
7
100
AcDbSpline
 70
8
 71
3
 72
8
 73
4
 74
0
 40
0
 40
0
 40
0
 40
0
 40
1
 40
1
 40
1
 40
1
 10
2402.313850
 20
4340.889528
 30
0.0
 10
2405.034348
 20
4342.455385
 30
0.0
 10
2408.206808
 20
4343.741683
 30
0.0
 10
2409.364519
 20
4343.747451
 30
0.0
  0
SPLINE
  5
1b1
100
AcDbEntity
  8
Cut
 62
7
100
AcDbSpline
 70
8
 71
3
 72
8
 73
4
 74
0
 40
0
 40
0
 40
0
 40
0
 40
1
 40
1
 40
1
 40
1
 10
2409.364519
 20
4343.747451
 30
0.0
 10
2410.522018
 20
4343.747451
 30
0.0
 10
2412.013792
 20
4344.525326
 30
0.0
 10
2412.678796
 20
4345.463697
 30
0.0
  0
SPLINE
  5
1b2
100
AcDbEntity
  8
Cut
 62
7
100
AcDbSpline
 70
8
 71
3
 72
8
 73
4
 74
0
 40
0
 40
0
 40
0
 40
0
 40
1
 40
1
 40
1
 40
1
 10
2412.678796
 20
4345.463697
 30
0.0
 10
2413.344011
 20
4346.401804
 30
0.0
 10
2415.504387
 20
4347.524166
 30
0.0
 10
2417.478602
 20
4347.957935
 30
0.0
  0
SPLINE
  5
1b3
100
AcDbEntity
  8
Cut
 62
7
100
AcDbSpline
 70
8
 71
3
 72
8
 73
4
 74
0
 40
0
 40
0
 40
0
 40
0
 40
1
 40
1
 40
1
 40
1
 10
2417.478602
 20
4347.957935
 30
0.0
 10
2419.453082
 20
4348.391322
 30
0.0
 10
2422.413557
 20
4349.705508
 30
0.0
 10
2424.056885
 20
4350.877824
 30
0.0
  0
SPLINE
  5
1b4
100
AcDbEntity
  8
Cut
 62
7
100
AcDbSpline
 70
8
 71
3
 72
8
 73
4
 74
0
 40
0
 40
0
 40
0
 40
0
 40
1
 40
1
 40
1
 40
1
 10
2424.056885
 20
4350.877824
 30
0.0
 10
2425.859914
 20
4352.164651
 30
0.0
 10
2428.926805
 20
4353.012059
 30
0.0
 10
2431.792349
 20
4353.014440
 30
0.0
  0
SPLINE
  5
1b5
100
AcDbEntity
  8
Cut
 62
7
100
AcDbSpline
 70
8
 71
3
 72
8
 73
4
 74
0
 40
0
 40
0
 40
0
 40
0
 40
1
 40
1
 40
1
 40
1
 10
2431.792349
 20
4353.014440
 30
0.0
 10
2434.403680
 20
4353.014440
 30
0.0
 10
2437.884909
 20
4353.832690
 30
0.0
 10
2439.528183
 20
4354.826677
 30
0.0
  0
SPLINE
  5
1b6
100
AcDbEntity
  8
Cut
 62
7
100
AcDbSpline
 70
8
 71
3
 72
8
 73
4
 74
0
 40
0
 40
0
 40
0
 40
0
 40
1
 40
1
 40
1
 40
1
 10
2439.528183
 20
4354.826677
 30
0.0
 10
2441.171616
 20
4355.821351
 30
0.0
 10
2444.599082
 20
4356.905085
 30
0.0
 10
2447.145485
 20
4357.235020
 30
0.0
  0
SPLINE
  5
1b7
100
AcDbEntity
  8
Cut
 62
7
100
AcDbSpline
 70
8
 71
3
 72
8
 73
4
 74
0
 40
0
 40
0
 40
0
 40
0
 40
1
 40
1
 40
1
 40
1
 10
2447.145485
 20
4357.235020
 30
0.0
 10
2449.691517
 20
4357.564268
 30
0.0
 10
2452.887895
 20
4358.736319
 30
0.0
 10
2454.248118
 20
4359.838044
 30
0.0
  0
SPLINE
  5
1b8
100
AcDbEntity
  8
Cut
 62
7
100
AcDbSpline
 70
8
 71
3
 72
8
 73
4
 74
0
 40
0
 40
0
 40
0
 40
0
 40
1
 40
1
 40
1
 40
1
 10
2454.248118
 20
4359.838044
 30
0.0
 10
2455.608394
 20
4360.939504
 30
0.0
 10
2459.614503
 20
4363.052679
 30
0.0
 10
2463.151030
 20
4364.534086
 30
0.0
  0
SPLINE
  5
1b9
100
AcDbEntity
  8
Cut
 62
7
100
AcDbSpline
 70
8
 71
3
 72
8
 73
4
 74
0
 40
0
 40
0
 40
0
 40
0
 40
1
 40
1
 40
1
 40
1
 10
2463.151030
 20
4364.534086
 30
0.0
 10
2466.687504
 20
4366.015472
 30
0.0
 10
2471.806874
 20
4368.417280
 30
0.0
 10
2474.527161
 20
4369.871769
 30
0.0
  0
SPLINE
  5
1ba
100
AcDbEntity
  8
Cut
 62
7
100
AcDbSpline
 70
8
 71
3
 72
8
 73
4
 74
0
 40
0
 40
0
 40
0
 40
0
 40
1
 40
1
 40
1
 40
1
 10
2474.527161
 20
4369.871769
 30
0.0
 10
2484.559261
 20
4375.234952
 30
0.0
 10
2489.818384
 20
4377.328690
 30
0.0
 10
2493.258391
 20
4377.328690
 30
0.0
  0
SPLINE
  5
1bb
100
AcDbEntity
  8
Cut
 62
7
100
AcDbSpline
 70
8
 71
3
 72
8
 73
4
 74
0
 40
0
 40
0
 40
0
 40
0
 40
1
 40
1
 40
1
 40
1
 10
2493.258391
 20
4377.328690
 30
0.0
 10
2495.197522
 20
4377.328690
 30
0.0
 10
2496.784652
 20
4377.835182
 30
0.0
 10
2496.784652
 20
4378.454069
 30
0.0
  0
SPLINE
  5
1bc
100
AcDbEntity
  8
Cut
 62
7
100
AcDbSpline
 70
8
 71
3
 72
8
 73
4
 74
0
 40
0
 40
0
 40
0
 40
0
 40
1
 40
1
 40
1
 40
1
 10
2496.784652
 20
4378.454069
 30
0.0
 10
2496.784652
 20
4379.073141
 30
0.0
 10
2499.224745
 20
4380.409403
 30
0.0
 10
2502.206917
 20
4381.424165
 30
0.0
  0
SPLINE
  5
1bd
100
AcDbEntity
  8
Cut
 62
7
100
AcDbSpline
 70
8
 71
3
 72
8
 73
4
 74
0
 40
0
 40
0
 40
0
 40
0
 40
1
 40
1
 40
1
 40
1
 10
2502.206917
 20
4381.424165
 30
0.0
 10
2505.189247
 20
4382.438482
 30
0.0
 10
2507.870376
 20
4383.725342
 30
0.0
 10
2508.165333
 20
4384.283406
 30
0.0
  0
SPLINE
  5
1be
100
AcDbEntity
  8
Cut
 62
7
100
AcDbSpline
 70
8
 71
3
 72
8
 73
4
 74
0
 40
0
 40
0
 40
0
 40
0
 40
1
 40
1
 40
1
 40
1
 10
2508.165333
 20
4384.283406
 30
0.0
 10
2508.459074
 20
4384.841640
 30
0.0
 10
2510.805293
 20
4385.657498
 30
0.0
 10
2513.376937
 20
4386.096231
 30
0.0
  0
SPLINE
  5
1bf
100
AcDbEntity
  8
Cut
 62
7
100
AcDbSpline
 70
8
 71
3
 72
8
 73
4
 74
0
 40
0
 40
0
 40
0
 40
0
 40
1
 40
1
 40
1
 40
1
 10
2513.376937
 20
4386.096231
 30
0.0
 10
2515.948793
 20
4386.534952
 30
0.0
 10
2519.704342
 20
4387.867457
 30
0.0
 10
2521.723007
 20
4389.057167
 30
0.0
  0
SPLINE
  5
1c0
100
AcDbEntity
  8
Cut
 62
7
100
AcDbSpline
 70
8
 71
3
 72
8
 73
4
 74
0
 40
0
 40
0
 40
0
 40
0
 40
1
 40
1
 40
1
 40
1
 10
2521.723007
 20
4389.057167
 30
0.0
 10
2523.741513
 20
4390.246596
 30
0.0
 10
2526.299452
 20
4391.220051
 30
0.0
 10
2527.407103
 20
4391.220051
 30
0.0
  0
SPLINE
  5
1c1
100
AcDbEntity
  8
Cut
 62
7
100
AcDbSpline
 70
8
 71
3
 72
8
 73
4
 74
0
 40
0
 40
0
 40
0
 40
0
 40
1
 40
1
 40
1
 40
1
 10
2527.407103
 20
4391.220051
 30
0.0
 10
2528.514702
 20
4391.220051
 30
0.0
 10
2532.204899
 20
4392.392129
 30
0.0
 10
2535.607440
 20
4393.824768
 30
0.0
  0
SPLINE
  5
1c2
100
AcDbEntity
  8
Cut
 62
7
100
AcDbSpline
 70
8
 71
3
 72
8
 73
4
 74
0
 40
0
 40
0
 40
0
 40
0
 40
1
 40
1
 40
1
 40
1
 10
2535.607440
 20
4393.824768
 30
0.0
 10
2541.359958
 20
4396.246774
 30
0.0
 10
2543.425613
 20
4396.429490
 30
0.0
 10
2565.040855
 20
4396.429490
 30
0.0
  0
SPLINE
  5
1c3
100
AcDbEntity
  8
Cut
 62
7
100
AcDbSpline
 70
8
 71
3
 72
8
 73
4
 74
0
 40
0
 40
0
 40
0
 40
0
 40
1
 40
1
 40
1
 40
1
 10
2565.040855
 20
4396.429490
 30
0.0
 10
2589.965134
 20
4396.429490
 30
0.0
 10
2591.019287
 20
4396.237625
 30
0.0
 10
2606.771785
 20
4388.783011
 30
0.0
  0
SPLINE
  5
1c4
100
AcDbEntity
  8
Cut
 62
7
100
AcDbSpline
 70
8
 71
3
 72
8
 73
4
 74
0
 40
0
 40
0
 40
0
 40
0
 40
1
 40
1
 40
1
 40
1
 10
2606.771785
 20
4388.783011
 30
0.0
 10
2609.320833
 20
4387.576506
 30
0.0
 10
2612.033818
 20
4386.589530
 30
0.0
 10
2612.800951
 20
4386.589530
 30
0.0
  0
SPLINE
  5
1c5
100
AcDbEntity
  8
Cut
 62
7
100
AcDbSpline
 70
8
 71
3
 72
8
 73
4
 74
0
 40
0
 40
0
 40
0
 40
0
 40
1
 40
1
 40
1
 40
1
 10
2612.800951
 20
4386.589530
 30
0.0
 10
2613.567819
 20
4386.589530
 30
0.0
 10
2614.952595
 20
4385.610694
 30
0.0
 10
2615.878161
 20
4384.414052
 30
0.0
  0
SPLINE
  5
1c6
100
AcDbEntity
  8
Cut
 62
7
100
AcDbSpline
 70
8
 71
3
 72
8
 73
4
 74
0
 40
0
 40
0
 40
0
 40
0
 40
1
 40
1
 40
1
 40
1
 10
2615.878161
 20
4384.414052
 30
0.0
 10
2616.803303
 20
4383.217463
 30
0.0
 10
2619.262764
 20
4381.919291
 30
0.0
 10
2621.343500
 20
4381.530083
 30
0.0
  0
SPLINE
  5
1c7
100
AcDbEntity
  8
Cut
 62
7
100
AcDbSpline
 70
8
 71
3
 72
8
 73
4
 74
0
 40
0
 40
0
 40
0
 40
0
 40
1
 40
1
 40
1
 40
1
 10
2621.343500
 20
4381.530083
 30
0.0
 10
2623.424236
 20
4381.140860
 30
0.0
 10
2625.637158
 20
4380.102312
 30
0.0
 10
2626.261310
 20
4379.222186
 30
0.0
  0
SPLINE
  5
1c8
100
AcDbEntity
  8
Cut
 62
7
100
AcDbSpline
 70
8
 71
3
 72
8
 73
4
 74
0
 40
0
 40
0
 40
0
 40
0
 40
1
 40
1
 40
1
 40
1
 10
2626.261310
 20
4379.222186
 30
0.0
 10
2626.885515
 20
4378.342066
 30
0.0
 10
2629.685812
 20
4377.266085
 30
0.0
 10
2632.483993
 20
4376.832126
 30
0.0
  0
SPLINE
  5
1c9
100
AcDbEntity
  8
Cut
 62
7
100
AcDbSpline
 70
8
 71
3
 72
8
 73
4
 74
0
 40
0
 40
0
 40
0
 40
0
 40
1
 40
1
 40
1
 40
1
 10
2632.483993
 20
4376.832126
 30
0.0
 10
2635.282385
 20
4376.397547
 30
0.0
 10
2638.489611
 20
4375.289853
 30
0.0
 10
2639.611286
 20
4374.370183
 30
0.0
  0
SPLINE
  5
1ca
100
AcDbEntity
  8
Cut
 62
7
100
AcDbSpline
 70
8
 71
3
 72
8
 73
4
 74
0
 40
0
 40
0
 40
0
 40
0
 40
1
 40
1
 40
1
 40
1
 10
2639.611286
 20
4374.370183
 30
0.0
 10
2640.733119
 20
4373.450687
 30
0.0
 10
2642.348506
 20
4372.698318
 30
0.0
 10
2643.200306
 20
4372.698318
 30
0.0
  0
SPLINE
  5
1cb
100
AcDbEntity
  8
Cut
 62
7
100
AcDbSpline
 70
8
 71
3
 72
8
 73
4
 74
0
 40
0
 40
0
 40
0
 40
0
 40
1
 40
1
 40
1
 40
1
 10
2643.200306
 20
4372.698318
 30
0.0
 10
2644.052317
 20
4372.698318
 30
0.0
 10
2646.396737
 20
4371.715444
 30
0.0
 10
2648.410269
 20
4370.514399
 30
0.0
  0
SPLINE
  5
1cc
100
AcDbEntity
  8
Cut
 62
7
100
AcDbSpline
 70
8
 71
3
 72
8
 73
4
 74
0
 40
0
 40
0
 40
0
 40
0
 40
1
 40
1
 40
1
 40
1
 10
2648.410269
 20
4370.514399
 30
0.0
 10
2650.423642
 20
4369.312953
 30
0.0
 10
2653.589170
 20
4367.996873
 30
0.0
 10
2655.444587
 20
4367.589468
 30
0.0
  0
SPLINE
  5
1cd
100
AcDbEntity
  8
Cut
 62
7
100
AcDbSpline
 70
8
 71
3
 72
8
 73
4
 74
0
 40
0
 40
0
 40
0
 40
0
 40
1
 40
1
 40
1
 40
1
 10
2655.444587
 20
4367.589468
 30
0.0
 10
2657.300322
 20
4367.182115
 30
0.0
 10
2659.352801
 20
4366.095138
 30
0.0
 10
2660.006322
 20
4365.173901
 30
0.0
  0
SPLINE
  5
1ce
100
AcDbEntity
  8
Cut
 62
7
100
AcDbSpline
 70
8
 71
3
 72
8
 73
4
 74
0
 40
0
 40
0
 40
0
 40
0
 40
1
 40
1
 40
1
 40
1
 10
2660.006322
 20
4365.173901
 30
0.0
 10
2660.659631
 20
4364.252283
 30
0.0
 10
2662.818842
 20
4363.175869
 30
0.0
 10
2664.804435
 20
4362.781163
 30
0.0
  0
SPLINE
  5
1cf
100
AcDbEntity
  8
Cut
 62
7
100
AcDbSpline
 70
8
 71
3
 72
8
 73
4
 74
0
 40
0
 40
0
 40
0
 40
0
 40
1
 40
1
 40
1
 40
1
 10
2664.804435
 20
4362.781163
 30
0.0
 10
2666.790027
 20
4362.386352
 30
0.0
 10
2669.620751
 20
4361.070526
 30
0.0
 10
2671.094903
 20
4359.856565
 30
0.0
  0
SPLINE
  5
1d0
100
AcDbEntity
  8
Cut
 62
7
100
AcDbSpline
 70
8
 71
3
 72
8
 73
4
 74
0
 40
0
 40
0
 40
0
 40
0
 40
1
 40
1
 40
1
 40
1
 10
2671.094903
 20
4359.856565
 30
0.0
 10
2672.569003
 20
4358.642551
 30
0.0
 10
2674.305252
 20
4357.649358
 30
0.0
 10
2674.952952
 20
4357.649358
 30
0.0
  0
SPLINE
  5
1d1
100
AcDbEntity
  8
Cut
 62
7
100
AcDbSpline
 70
8
 71
3
 72
8
 73
4
 74
0
 40
0
 40
0
 40
0
 40
0
 40
1
 40
1
 40
1
 40
1
 10
2674.952952
 20
4357.649358
 30
0.0
 10
2676.777042
 20
4357.649358
 30
0.0
 10
2687.113202
 20
4351.459748
 30
0.0
 10
2688.000985
 20
4349.835418
 30
0.0
  0
SPLINE
  5
1d2
100
AcDbEntity
  8
Cut
 62
7
100
AcDbSpline
 70
8
 71
3
 72
8
 73
4
 74
0
 40
0
 40
0
 40
0
 40
0
 40
1
 40
1
 40
1
 40
1
 10
2688.000985
 20
4349.835418
 30
0.0
 10
2688.435960
 20
4349.039499
 30
0.0
 10
2689.480323
 20
4348.388200
 30
0.0
 10
2690.321380
 20
4348.388200
 30
0.0
  0
SPLINE
  5
1d3
100
AcDbEntity
  8
Cut
 62
7
100
AcDbSpline
 70
8
 71
3
 72
8
 73
4
 74
0
 40
0
 40
0
 40
0
 40
0
 40
1
 40
1
 40
1
 40
1
 10
2690.321380
 20
4348.388200
 30
0.0
 10
2691.162173
 20
4348.388200
 30
0.0
 10
2693.086700
 20
4347.358325
 30
0.0
 10
2694.597047
 20
4346.099703
 30
0.0
  0
SPLINE
  5
1d4
100
AcDbEntity
  8
Cut
 62
7
100
AcDbSpline
 70
8
 71
3
 72
8
 73
4
 74
0
 40
0
 40
0
 40
0
 40
0
 40
1
 40
1
 40
1
 40
1
 10
2694.597047
 20
4346.099703
 30
0.0
 10
2696.107553
 20
4344.840921
 30
0.0
 10
2700.017407
 20
4342.106082
 30
0.0
 10
2703.285223
 20
4340.022382
 30
0.0
  0
SPLINE
  5
1d5
100
AcDbEntity
  8
Cut
 62
7
100
AcDbSpline
 70
8
 71
3
 72
8
 73
4
 74
0
 40
0
 40
0
 40
0
 40
0
 40
1
 40
1
 40
1
 40
1
 10
2703.285223
 20
4340.022382
 30
0.0
 10
2714.461435
 20
4332.895036
 30
0.0
 10
2720.843767
 20
4328.390346
 30
0.0
 10
2723.639566
 20
4325.655878
 30
0.0
  0
SPLINE
  5
1d6
100
AcDbEntity
  8
Cut
 62
7
100
AcDbSpline
 70
8
 71
3
 72
8
 73
4
 74
0
 40
0
 40
0
 40
0
 40
0
 40
1
 40
1
 40
1
 40
1
 10
2723.639566
 20
4325.655878
 30
0.0
 10
2725.177642
 20
4324.151245
 30
0.0
 10
2727.083488
 20
4322.920774
 30
0.0
 10
2727.874804
 20
4322.920774
 30
0.0
  0
SPLINE
  5
1d7
100
AcDbEntity
  8
Cut
 62
7
100
AcDbSpline
 70
8
 71
3
 72
8
 73
4
 74
0
 40
0
 40
0
 40
0
 40
0
 40
1
 40
1
 40
1
 40
1
 10
2727.874804
 20
4322.920774
 30
0.0
 10
2728.666437
 20
4322.920774
 30
0.0
 10
2729.570148
 20
4322.139248
 30
0.0
 10
2729.883256
 20
4321.184366
 30
0.0
  0
SPLINE
  5
1d8
100
AcDbEntity
  8
Cut
 62
7
100
AcDbSpline
 70
8
 71
3
 72
8
 73
4
 74
0
 40
0
 40
0
 40
0
 40
0
 40
1
 40
1
 40
1
 40
1
 10
2729.883256
 20
4321.184366
 30
0.0
 10
2730.196682
 20
4320.229379
 30
0.0
 10
2731.011651
 20
4319.447694
 30
0.0
 10
2731.694594
 20
4319.447694
 30
0.0
  0
SPLINE
  5
1d9
100
AcDbEntity
  8
Cut
 62
7
100
AcDbSpline
 70
8
 71
3
 72
8
 73
4
 74
0
 40
0
 40
0
 40
0
 40
0
 40
1
 40
1
 40
1
 40
1
 10
2731.694594
 20
4319.447694
 30
0.0
 10
2732.728744
 20
4319.447694
 30
0.0
 10
2736.761523
 20
4316.247453
 30
0.0
 10
2741.650282
 20
4311.546918
 30
0.0
  0
SPLINE
  5
1da
100
AcDbEntity
  8
Cut
 62
7
100
AcDbSpline
 70
8
 71
3
 72
8
 73
4
 74
0
 40
0
 40
0
 40
0
 40
0
 40
1
 40
1
 40
1
 40
1
 10
2741.650282
 20
4311.546918
 30
0.0
 10
2742.212681
 20
4311.006322
 30
0.0
 10
2743.842567
 20
4310.220192
 30
0.0
 10
2745.272587
 20
4309.800404
 30
0.0
  0
SPLINE
  5
1db
100
AcDbEntity
  8
Cut
 62
7
100
AcDbSpline
 70
8
 71
3
 72
8
 73
4
 74
0
 40
0
 40
0
 40
0
 40
0
 40
1
 40
1
 40
1
 40
1
 10
2745.272587
 20
4309.800404
 30
0.0
 10
2748.425574
 20
4308.873992
 30
0.0
 10
2762.885529
 20
4297.718100
 30
0.0
 10
2762.885529
 20
4296.211827
 30
0.0
  0
SPLINE
  5
1dc
100
AcDbEntity
  8
Cut
 62
7
100
AcDbSpline
 70
8
 71
3
 72
8
 73
4
 74
0
 40
0
 40
0
 40
0
 40
0
 40
1
 40
1
 40
1
 40
1
 10
2762.885529
 20
4296.211827
 30
0.0
 10
2762.885529
 20
4295.621330
 30
0.0
 10
2763.407287
 20
4295.137830
 30
0.0
 10
2764.045039
 20
4295.137830
 30
0.0
  0
SPLINE
  5
1dd
100
AcDbEntity
  8
Cut
 62
7
100
AcDbSpline
 70
8
 71
3
 72
8
 73
4
 74
0
 40
0
 40
0
 40
0
 40
0
 40
1
 40
1
 40
1
 40
1
 10
2764.045039
 20
4295.137830
 30
0.0
 10
2766.454441
 20
4295.137830
 30
0.0
 10
2791.657167
 20
4267.289905
 30
0.0
 10
2795.273016
 20
4260.632671
 30
0.0
  0
SPLINE
  5
1de
100
AcDbEntity
  8
Cut
 62
7
100
AcDbSpline
 70
8
 71
3
 72
8
 73
4
 74
0
 40
0
 40
0
 40
0
 40
0
 40
1
 40
1
 40
1
 40
1
 10
2795.273016
 20
4260.632671
 30
0.0
 10
2796.204402
 20
4258.918224
 30
0.0
 10
2797.533246
 20
4257.098896
 30
0.0
 10
2798.226348
 20
4256.589573
 30
0.0
  0
SPLINE
  5
1df
100
AcDbEntity
  8
Cut
 62
7
100
AcDbSpline
 70
8
 71
3
 72
8
 73
4
 74
0
 40
0
 40
0
 40
0
 40
0
 40
1
 40
1
 40
1
 40
1
 10
2798.226348
 20
4256.589573
 30
0.0
 10
2798.919451
 20
4256.080621
 30
0.0
 10
2799.486717
 20
4254.623084
 30
0.0
 10
2799.486717
 20
4253.351179
 30
0.0
  0
SPLINE
  5
1e0
100
AcDbEntity
  8
Cut
 62
7
100
AcDbSpline
 70
8
 71
3
 72
8
 73
4
 74
0
 40
0
 40
0
 40
0
 40
0
 40
1
 40
1
 40
1
 40
1
 10
2799.486717
 20
4253.351179
 30
0.0
 10
2799.486717
 20
4252.078851
 30
0.0
 10
2800.599820
 20
4249.831163
 30
0.0
 10
2801.959831
 20
4248.356058
 30
0.0
  0
SPLINE
  5
1e1
100
AcDbEntity
  8
Cut
 62
7
100
AcDbSpline
 70
8
 71
3
 72
8
 73
4
 74
0
 40
0
 40
0
 40
0
 40
0
 40
1
 40
1
 40
1
 40
1
 10
2801.959831
 20
4248.356058
 30
0.0
 10
2803.465945
 20
4246.722361
 30
0.0
 10
2804.432944
 20
4244.403500
 30
0.0
 10
2804.432944
 20
4242.424734
 30
0.0
  0
SPLINE
  5
1e2
100
AcDbEntity
  8
Cut
 62
7
100
AcDbSpline
 70
8
 71
3
 72
8
 73
4
 74
0
 40
0
 40
0
 40
0
 40
0
 40
1
 40
1
 40
1
 40
1
 10
2804.432944
 20
4242.424734
 30
0.0
 10
2804.432944
 20
4240.638056
 30
0.0
 10
2805.033019
 20
4238.353432
 30
0.0
 10
2805.766444
 20
4237.348174
 30
0.0
  0
SPLINE
  5
1e3
100
AcDbEntity
  8
Cut
 62
7
100
AcDbSpline
 70
8
 71
3
 72
8
 73
4
 74
0
 40
0
 40
0
 40
0
 40
0
 40
1
 40
1
 40
1
 40
1
 10
2805.766444
 20
4237.348174
 30
0.0
 10
2807.353891
 20
4235.172875
 30
0.0
 10
2810.042322
 20
4226.406912
 30
0.0
 10
2811.829847
 20
4217.577819
 30
0.0
  0
SPLINE
  5
1e4
100
AcDbEntity
  8
Cut
 62
7
100
AcDbSpline
 70
8
 71
3
 72
8
 73
4
 74
0
 40
0
 40
0
 40
0
 40
0
 40
1
 40
1
 40
1
 40
1
 10
2811.829847
 20
4217.577819
 30
0.0
 10
2812.538613
 20
4214.075741
 30
0.0
 10
2813.633036
 20
4209.682388
 30
0.0
 10
2814.260998
 20
4207.814006
 30
0.0
  0
SPLINE
  5
1e5
100
AcDbEntity
  8
Cut
 62
7
100
AcDbSpline
 70
8
 71
3
 72
8
 73
4
 74
0
 40
0
 40
0
 40
0
 40
0
 40
1
 40
1
 40
1
 40
1
 10
2814.260998
 20
4207.814006
 30
0.0
 10
2814.889648
 20
4205.945995
 30
0.0
 10
2815.562536
 20
4202.039052
 30
0.0
 10
2815.757058
 20
4199.132075
 30
0.0
  0
LWPOLYLINE
  5
1e6
100
AcDbEntity
  8
Cut
 62
7
100
AcDbPolyline
 90
3
 70
0
 10
1362.803610
 20
4237.257104
 30
0.0
 10
1390.664658
 20
4237.257104
 30
0.0
 10
1393.222226
 20
4242.612006
 30
0.0
  0
SPLINE
  5
1e7
100
AcDbEntity
  8
Cut
 62
7
100
AcDbSpline
 70
8
 71
3
 72
8
 73
4
 74
0
 40
0
 40
0
 40
0
 40
0
 40
1
 40
1
 40
1
 40
1
 10
2823.583168
 20
4193.509890
 30
0.0
 10
2827.693470
 20
4193.325211
 30
0.0
 10
2834.970676
 20
4193.991803
 30
0.0
 10
2839.754978
 20
4194.993356
 30
0.0
  0
SPLINE
  5
1e8
100
AcDbEntity
  8
Cut
 62
7
100
AcDbSpline
 70
8
 71
3
 72
8
 73
4
 74
0
 40
0
 40
0
 40
0
 40
0
 40
1
 40
1
 40
1
 40
1
 10
2839.754978
 20
4194.993356
 30
0.0
 10
2844.538803
 20
4195.994593
 30
0.0
 10
2856.243388
 20
4197.061340
 30
0.0
 10
2865.764631
 20
4197.364129
 30
0.0
  0
SPLINE
  5
1e9
100
AcDbEntity
  8
Cut
 62
7
100
AcDbSpline
 70
8
 71
3
 72
8
 73
4
 74
0
 40
0
 40
0
 40
0
 40
0
 40
1
 40
1
 40
1
 40
1
 10
2865.764631
 20
4197.364129
 30
0.0
 10
2905.342223
 20
4198.623757
 30
0.0
 10
2912.007871
 20
4199.002588
 30
0.0
 10
2914.558613
 20
4200.137227
 30
0.0
  0
SPLINE
  5
1ea
100
AcDbEntity
  8
Cut
 62
7
100
AcDbSpline
 70
8
 71
3
 72
8
 73
4
 74
0
 40
0
 40
0
 40
0
 40
0
 40
1
 40
1
 40
1
 40
1
 10
2914.558613
 20
4200.137227
 30
0.0
 10
2916.031178
 20
4200.792441
 30
0.0
 10
2923.852790
 20
4201.848446
 30
0.0
 10
2931.940203
 20
4202.483816
 30
0.0
  0
SPLINE
  5
1eb
100
AcDbEntity
  8
Cut
 62
7
100
AcDbSpline
 70
8
 71
3
 72
8
 73
4
 74
0
 40
0
 40
0
 40
0
 40
0
 40
1
 40
1
 40
1
 40
1
 10
2931.940203
 20
4202.483816
 30
0.0
 10
2940.027881
 20
4203.119187
 30
0.0
 10
2947.921883
 20
4204.233188
 30
0.0
 10
2949.482872
 20
4204.959046
 30
0.0
  0
SPLINE
  5
1ec
100
AcDbEntity
  8
Cut
 62
7
100
AcDbSpline
 70
8
 71
3
 72
8
 73
4
 74
0
 40
0
 40
0
 40
0
 40
0
 40
1
 40
1
 40
1
 40
1
 10
2949.482872
 20
4204.959046
 30
0.0
 10
2951.044231
 20
4205.684375
 30
0.0
 10
2957.218283
 20
4206.970938
 30
0.0
 10
2963.202841
 20
4207.817340
 30
0.0
  0
SPLINE
  5
1ed
100
AcDbEntity
  8
Cut
 62
7
100
AcDbSpline
 70
8
 71
3
 72
8
 73
4
 74
0
 40
0
 40
0
 40
0
 40
0
 40
1
 40
1
 40
1
 40
1
 10
2963.202841
 20
4207.817340
 30
0.0
 10
2969.187927
 20
4208.664377
 30
0.0
 10
2976.977949
 20
4209.889715
 30
0.0
 10
2980.514475
 20
4210.540696
 30
0.0
  0
SPLINE
  5
1ee
100
AcDbEntity
  8
Cut
 62
7
100
AcDbSpline
 70
8
 71
3
 72
8
 73
4
 74
0
 40
0
 40
0
 40
0
 40
0
 40
1
 40
1
 40
1
 40
1
 10
2980.514475
 20
4210.540696
 30
0.0
 10
2984.051002
 20
4211.191730
 30
0.0
 10
3000.076444
 20
4212.056918
 30
0.0
 10
3016.126387
 20
4212.462153
 30
0.0
  0
SPLINE
  5
1ef
100
AcDbEntity
  8
Cut
 62
7
100
AcDbSpline
 70
8
 71
3
 72
8
 73
4
 74
0
 40
0
 40
0
 40
0
 40
0
 40
1
 40
1
 40
1
 40
1
 10
3016.126387
 20
4212.462153
 30
0.0
 10
3032.176752
 20
4212.868236
 30
0.0
 10
3060.666133
 20
4213.861640
 30
0.0
 10
3079.436892
 20
4214.670260
 30
0.0
  0
SPLINE
  5
1f0
100
AcDbEntity
  8
Cut
 62
7
100
AcDbSpline
 70
8
 71
3
 72
8
 73
4
 74
0
 40
0
 40
0
 40
0
 40
0
 40
1
 40
1
 40
1
 40
1
 10
3079.436892
 20
4214.670260
 30
0.0
 10
3098.207280
 20
4215.478827
 30
0.0
 10
3145.615745
 20
4216.208918
 30
0.0
 10
3184.788948
 20
4216.293373
 30
0.0
  0
SPLINE
  5
1f1
100
AcDbEntity
  8
Cut
 62
7
100
AcDbSpline
 70
8
 71
3
 72
8
 73
4
 74
0
 40
0
 40
0
 40
0
 40
0
 40
1
 40
1
 40
1
 40
1
 10
3184.788948
 20
4216.293373
 30
0.0
 10
3277.197535
 20
4216.492340
 30
0.0
 10
3348.932532
 20
4217.518288
 30
0.0
 10
3363.838152
 20
4218.853905
 30
0.0
  0
SPLINE
  5
1f2
100
AcDbEntity
  8
Cut
 62
7
100
AcDbSpline
 70
8
 71
3
 72
8
 73
4
 74
0
 40
0
 40
0
 40
0
 40
0
 40
1
 40
1
 40
1
 40
1
 10
3363.838152
 20
4218.853905
 30
0.0
 10
3394.875047
 20
4221.635205
 30
0.0
 10
3524.999565
 20
4233.331587
 30
0.0
 10
3560.276302
 20
4217.993162
 30
0.0
  0
SPLINE
  5
1f3
100
AcDbEntity
  8
Cut
 62
7
100
AcDbSpline
 70
8
 71
3
 72
8
 73
4
 74
0
 40
0
 40
0
 40
0
 40
0
 40
1
 40
1
 40
1
 40
1
 10
3560.276302
 20
4217.993162
 30
0.0
 10
3588.827277
 20
4049.583648
 30
0.0
 10
3676.862249
 20
3453.516027
 30
0.0
 10
3648.687987
 20
3355.901975
 30
0.0
  0
SPLINE
  5
1f4
100
AcDbEntity
  8
Cut
 62
7
100
AcDbSpline
 70
8
 71
3
 72
8
 73
4
 74
0
 40
0
 40
0
 40
0
 40
0
 40
1
 40
1
 40
1
 40
1
 10
3648.687987
 20
3355.901975
 30
0.0
 10
3641.886978
 20
3356.338432
 30
0.0
 10
3573.624107
 20
3353.701488
 30
0.0
 10
3571.292970
 20
3354.617846
 30
0.0
  0
SPLINE
  5
1f5
100
AcDbEntity
  8
Cut
 62
7
100
AcDbSpline
 70
8
 71
3
 72
8
 73
4
 74
0
 40
0
 40
0
 40
0
 40
0
 40
1
 40
1
 40
1
 40
1
 10
3571.292970
 20
3354.617846
 30
0.0
 10
3568.961620
 20
3355.534045
 30
0.0
 10
3564.732626
 20
3356.283928
 30
0.0
 10
3561.895022
 20
3356.283928
 30
0.0
  0
SPLINE
  5
1f6
100
AcDbEntity
  8
Cut
 62
7
100
AcDbSpline
 70
8
 71
3
 72
8
 73
4
 74
0
 40
0
 40
0
 40
0
 40
0
 40
1
 40
1
 40
1
 40
1
 10
3561.895022
 20
3356.283928
 30
0.0
 10
3559.057049
 20
3356.283928
 30
0.0
 10
3553.619808
 20
3357.107840
 30
0.0
 10
3549.811449
 20
3358.114950
 30
0.0
  0
SPLINE
  5
1f7
100
AcDbEntity
  8
Cut
 62
7
100
AcDbSpline
 70
8
 71
3
 72
8
 73
4
 74
0
 40
0
 40
0
 40
0
 40
0
 40
1
 40
1
 40
1
 40
1
 10
3549.811449
 20
3358.114950
 30
0.0
 10
3537.566320
 20
3361.352498
 30
0.0
 10
3534.127372
 20
3361.932041
 30
0.0
 10
3526.565369
 20
3362.030519
 30
0.0
  0
SPLINE
  5
1f8
100
AcDbEntity
  8
Cut
 62
7
100
AcDbSpline
 70
8
 71
3
 72
8
 73
4
 74
0
 40
0
 40
0
 40
0
 40
0
 40
1
 40
1
 40
1
 40
1
 10
3526.565369
 20
3362.030519
 30
0.0
 10
3522.484647
 20
3362.084123
 30
0.0
 10
3517.365647
 20
3362.685945
 30
0.0
 10
3515.189344
 20
3363.368623
 30
0.0
  0
SPLINE
  5
1f9
100
AcDbEntity
  8
Cut
 62
7
100
AcDbSpline
 70
8
 71
3
 72
8
 73
4
 74
0
 40
0
 40
0
 40
0
 40
0
 40
1
 40
1
 40
1
 40
1
 10
3515.189344
 20
3363.368623
 30
0.0
 10
3513.012828
 20
3364.051830
 30
0.0
 10
3505.800181
 20
3365.257853
 30
0.0
 10
3499.160568
 20
3366.048640
 30
0.0
  0
SPLINE
  5
1fa
100
AcDbEntity
  8
Cut
 62
7
100
AcDbSpline
 70
8
 71
3
 72
8
 73
4
 74
0
 40
0
 40
0
 40
0
 40
0
 40
1
 40
1
 40
1
 40
1
 10
3499.160568
 20
3366.048640
 30
0.0
 10
3492.520849
 20
3366.839797
 30
0.0
 10
3486.465383
 20
3368.092123
 30
0.0
 10
3485.704071
 20
3368.831898
 30
0.0
  0
SPLINE
  5
1fb
100
AcDbEntity
  8
Cut
 62
7
100
AcDbSpline
 70
8
 71
3
 72
8
 73
4
 74
0
 40
0
 40
0
 40
0
 40
0
 40
1
 40
1
 40
1
 40
1
 10
3485.704071
 20
3368.831898
 30
0.0
 10
3484.942759
 20
3369.571250
 30
0.0
 10
3480.136338
 20
3370.486232
 30
0.0
 10
3475.023689
 20
3370.864956
 30
0.0
  0
SPLINE
  5
1fc
100
AcDbEntity
  8
Cut
 62
7
100
AcDbSpline
 70
8
 71
3
 72
8
 73
4
 74
0
 40
0
 40
0
 40
0
 40
0
 40
1
 40
1
 40
1
 40
1
 10
3475.023689
 20
3370.864956
 30
0.0
 10
3469.911039
 20
3371.243893
 30
0.0
 10
3462.612032
 20
3372.497330
 30
0.0
 10
3458.803513
 20
3373.650966
 30
0.0
  0
SPLINE
  5
1fd
100
AcDbEntity
  8
Cut
 62
7
100
AcDbSpline
 70
8
 71
3
 72
8
 73
4
 74
0
 40
0
 40
0
 40
0
 40
0
 40
1
 40
1
 40
1
 40
1
 10
3458.803513
 20
3373.650966
 30
0.0
 10
3454.995048
 20
3374.804020
 30
0.0
 10
3446.982195
 20
3376.020786
 30
0.0
 10
3440.997478
 20
3376.354214
 30
0.0
  0
SPLINE
  5
1fe
100
AcDbEntity
  8
Cut
 62
7
100
AcDbSpline
 70
8
 71
3
 72
8
 73
4
 74
0
 40
0
 40
0
 40
0
 40
0
 40
1
 40
1
 40
1
 40
1
 10
3440.997478
 20
3376.354214
 30
0.0
 10
3435.012656
 20
3376.687113
 30
0.0
 10
3428.558199
 20
3377.709410
 30
0.0
 10
3426.653940
 20
3378.624603
 30
0.0
  0
SPLINE
  5
1ff
100
AcDbEntity
  8
Cut
 62
7
100
AcDbSpline
 70
8
 71
3
 72
8
 73
4
 74
0
 40
0
 40
0
 40
0
 40
0
 40
1
 40
1
 40
1
 40
1
 10
3426.653940
 20
3378.624603
 30
0.0
 10
3424.749627
 20
3379.539956
 30
0.0
 10
3419.324293
 20
3380.618133
 30
0.0
 10
3414.597353
 20
3381.021199
 30
0.0
  0
SPLINE
  5
200
100
AcDbEntity
  8
Cut
 62
7
100
AcDbSpline
 70
8
 71
3
 72
8
 73
4
 74
0
 40
0
 40
0
 40
0
 40
0
 40
1
 40
1
 40
1
 40
1
 10
3414.597353
 20
3381.021199
 30
0.0
 10
3409.870784
 20
3381.424054
 30
0.0
 10
3404.751361
 20
3382.331310
 30
0.0
 10
3403.221275
 20
3383.036636
 30
0.0
  0
SPLINE
  5
201
100
AcDbEntity
  8
Cut
 62
7
100
AcDbSpline
 70
8
 71
3
 72
8
 73
4
 74
0
 40
0
 40
0
 40
0
 40
0
 40
1
 40
1
 40
1
 40
1
 10
3403.221275
 20
3383.036636
 30
0.0
 10
3401.691507
 20
3383.741751
 30
0.0
 10
3395.542855
 20
3384.742670
 30
0.0
 10
3389.557927
 20
3385.260300
 30
0.0
  0
SPLINE
  5
202
100
AcDbEntity
  8
Cut
 62
7
100
AcDbSpline
 70
8
 71
3
 72
8
 73
4
 74
0
 40
0
 40
0
 40
0
 40
0
 40
1
 40
1
 40
1
 40
1
 10
3389.557927
 20
3385.260300
 30
0.0
 10
3383.573211
 20
3385.778090
 30
0.0
 10
3376.005652
 20
3387.044492
 30
0.0
 10
3372.741328
 20
3388.074726
 30
0.0
  0
SPLINE
  5
203
100
AcDbEntity
  8
Cut
 62
7
100
AcDbSpline
 70
8
 71
3
 72
8
 73
4
 74
0
 40
0
 40
0
 40
0
 40
0
 40
1
 40
1
 40
1
 40
1
 10
3372.741328
 20
3388.074726
 30
0.0
 10
3369.044887
 20
3389.241539
 30
0.0
 10
3360.834655
 20
3390.183297
 30
0.0
 10
3350.978397
 20
3390.571493
 30
0.0
  0
SPLINE
  5
204
100
AcDbEntity
  8
Cut
 62
7
100
AcDbSpline
 70
8
 71
3
 72
8
 73
4
 74
0
 40
0
 40
0
 40
0
 40
0
 40
1
 40
1
 40
1
 40
1
 10
3350.978397
 20
3390.571493
 30
0.0
 10
3342.272917
 20
3390.915081
 30
0.0
 10
3332.925029
 20
3391.904517
 30
0.0
 10
3330.204689
 20
3392.772933
 30
0.0
  0
SPLINE
  5
205
100
AcDbEntity
  8
Cut
 62
7
100
AcDbSpline
 70
8
 71
3
 72
8
 73
4
 74
0
 40
0
 40
0
 40
0
 40
0
 40
1
 40
1
 40
1
 40
1
 10
3330.204689
 20
3392.772933
 30
0.0
 10
3327.484349
 20
3393.640766
 30
0.0
 10
3321.308604
 20
3394.891610
 30
0.0
 10
3316.480805
 20
3395.552116
 30
0.0
  0
SPLINE
  5
206
100
AcDbEntity
  8
Cut
 62
7
100
AcDbSpline
 70
8
 71
3
 72
8
 73
4
 74
0
 40
0
 40
0
 40
0
 40
0
 40
1
 40
1
 40
1
 40
1
 10
3316.480805
 20
3395.552116
 30
0.0
 10
3311.652900
 20
3396.213257
 30
0.0
 10
3307.141542
 20
3397.299371
 30
0.0
 10
3306.455319
 20
3397.965910
 30
0.0
  0
SPLINE
  5
207
100
AcDbEntity
  8
Cut
 62
7
100
AcDbSpline
 70
8
 71
3
 72
8
 73
4
 74
0
 40
0
 40
0
 40
0
 40
0
 40
1
 40
1
 40
1
 40
1
 10
3306.455319
 20
3397.965910
 30
0.0
 10
3305.768884
 20
3398.632554
 30
0.0
 10
3299.925190
 20
3399.711736
 30
0.0
 10
3293.469939
 20
3400.364252
 30
0.0
  0
SPLINE
  5
208
100
AcDbEntity
  8
Cut
 62
7
100
AcDbSpline
 70
8
 71
3
 72
8
 73
4
 74
0
 40
0
 40
0
 40
0
 40
0
 40
1
 40
1
 40
1
 40
1
 10
3293.469939
 20
3400.364252
 30
0.0
 10
3287.014212
 20
3401.016714
 30
0.0
 10
3280.619867
 20
3402.053246
 30
0.0
 10
3279.259486
 20
3402.667820
 30
0.0
  0
SPLINE
  5
209
100
AcDbEntity
  8
Cut
 62
7
100
AcDbSpline
 70
8
 71
3
 72
8
 73
4
 74
0
 40
0
 40
0
 40
0
 40
0
 40
1
 40
1
 40
1
 40
1
 10
3279.259486
 20
3402.667820
 30
0.0
 10
3277.899369
 20
3403.282659
 30
0.0
 10
3271.889993
 20
3404.505616
 30
0.0
 10
3265.905065
 20
3405.386149
 30
0.0
  0
SPLINE
  5
20a
100
AcDbEntity
  8
Cut
 62
7
100
AcDbSpline
 70
8
 71
3
 72
8
 73
4
 74
0
 40
0
 40
0
 40
0
 40
0
 40
1
 40
1
 40
1
 40
1
 10
3265.905065
 20
3405.386149
 30
0.0
 10
3259.920508
 20
3406.266577
 30
0.0
 10
3253.242901
 20
3407.548007
 30
0.0
 10
3251.066650
 20
3408.233172
 30
0.0
  0
SPLINE
  5
20b
100
AcDbEntity
  8
Cut
 62
7
100
AcDbSpline
 70
8
 71
3
 72
8
 73
4
 74
0
 40
0
 40
0
 40
0
 40
0
 40
1
 40
1
 40
1
 40
1
 10
3251.066650
 20
3408.233172
 30
0.0
 10
3248.890399
 20
3408.918443
 30
0.0
 10
3244.216587
 20
3409.501902
 30
0.0
 10
3240.680008
 20
3409.529471
 30
0.0
  0
SPLINE
  5
20c
100
AcDbEntity
  8
Cut
 62
7
100
AcDbSpline
 70
8
 71
3
 72
8
 73
4
 74
0
 40
0
 40
0
 40
0
 40
0
 40
1
 40
1
 40
1
 40
1
 10
3240.680008
 20
3409.529471
 30
0.0
 10
3237.143587
 20
3409.565455
 30
0.0
 10
3230.688865
 20
3410.385980
 30
0.0
 10
3226.336310
 20
3411.371659
 30
0.0
  0
SPLINE
  5
20d
100
AcDbEntity
  8
Cut
 62
7
100
AcDbSpline
 70
8
 71
3
 72
8
 73
4
 74
0
 40
0
 40
0
 40
0
 40
0
 40
1
 40
1
 40
1
 40
1
 10
3226.336310
 20
3411.371659
 30
0.0
 10
3221.983703
 20
3412.357338
 30
0.0
 10
3215.562742
 20
3413.682953
 30
0.0
 10
3212.067649
 20
3414.318271
 30
0.0
  0
SPLINE
  5
20e
100
AcDbEntity
  8
Cut
 62
7
100
AcDbSpline
 70
8
 71
3
 72
8
 73
4
 74
0
 40
0
 40
0
 40
0
 40
0
 40
1
 40
1
 40
1
 40
1
 10
3212.067649
 20
3414.318271
 30
0.0
 10
3208.572926
 20
3414.953218
 30
0.0
 10
3204.801132
 20
3416.220308
 30
0.0
 10
3203.686548
 20
3417.133914
 30
0.0
  0
SPLINE
  5
20f
100
AcDbEntity
  8
Cut
 62
7
100
AcDbSpline
 70
8
 71
3
 72
8
 73
4
 74
0
 40
0
 40
0
 40
0
 40
0
 40
1
 40
1
 40
1
 40
1
 10
3203.686548
 20
3417.133914
 30
0.0
 10
3202.572070
 20
3418.047626
 30
0.0
 10
3200.757452
 20
3418.797138
 30
0.0
 10
3199.654563
 20
3418.799201
 30
0.0
  0
SPLINE
  5
210
100
AcDbEntity
  8
Cut
 62
7
100
AcDbSpline
 70
8
 71
3
 72
8
 73
4
 74
0
 40
0
 40
0
 40
0
 40
0
 40
1
 40
1
 40
1
 40
1
 10
3199.654563
 20
3418.799201
 30
0.0
 10
3198.551250
 20
3418.799201
 30
0.0
 10
3196.191326
 20
3419.843829
 30
0.0
 10
3194.409886
 20
3421.114782
 30
0.0
  0
SPLINE
  5
211
100
AcDbEntity
  8
Cut
 62
7
100
AcDbSpline
 70
8
 71
3
 72
8
 73
4
 74
0
 40
0
 40
0
 40
0
 40
0
 40
1
 40
1
 40
1
 40
1
 10
3194.409886
 20
3421.114782
 30
0.0
 10
3190.305617
 20
3424.042978
 30
0.0
 10
3185.685886
 20
3424.049858
 30
0.0
 10
3180.198057
 20
3421.151823
 30
0.0
  0
SPLINE
  5
212
100
AcDbEntity
  8
Cut
 62
7
100
AcDbSpline
 70
8
 71
3
 72
8
 73
4
 74
0
 40
0
 40
0
 40
0
 40
0
 40
1
 40
1
 40
1
 40
1
 10
3180.198057
 20
3421.151823
 30
0.0
 10
3177.826385
 20
3419.892089
 30
0.0
 10
3174.755631
 20
3418.850319
 30
0.0
 10
3173.374559
 20
3418.836349
 30
0.0
  0
SPLINE
  5
213
100
AcDbEntity
  8
Cut
 62
7
100
AcDbSpline
 70
8
 71
3
 72
8
 73
4
 74
0
 40
0
 40
0
 40
0
 40
0
 40
1
 40
1
 40
1
 40
1
 10
3173.374559
 20
3418.836349
 30
0.0
 10
3171.993116
 20
3418.836349
 30
0.0
 10
3169.117148
 20
3417.769443
 30
0.0
 10
3166.982913
 20
3416.495950
 30
0.0
  0
SPLINE
  5
214
100
AcDbEntity
  8
Cut
 62
7
100
AcDbSpline
 70
8
 71
3
 72
8
 73
4
 74
0
 40
0
 40
0
 40
0
 40
0
 40
1
 40
1
 40
1
 40
1
 10
3166.982913
 20
3416.495950
 30
0.0
 10
3164.848255
 20
3415.222670
 30
0.0
 10
3162.054784
 20
3414.180740
 30
0.0
 10
3160.774254
 20
3414.180740
 30
0.0
  0
SPLINE
  5
215
100
AcDbEntity
  8
Cut
 62
7
100
AcDbSpline
 70
8
 71
3
 72
8
 73
4
 74
0
 40
0
 40
0
 40
0
 40
0
 40
1
 40
1
 40
1
 40
1
 10
3160.774254
 20
3414.180740
 30
0.0
 10
3159.494200
 20
3414.180740
 30
0.0
 10
3156.360898
 20
3413.177917
 30
0.0
 10
3153.811796
 20
3411.952314
 30
0.0
  0
SPLINE
  5
216
100
AcDbEntity
  8
Cut
 62
7
100
AcDbSpline
 70
8
 71
3
 72
8
 73
4
 74
0
 40
0
 40
0
 40
0
 40
0
 40
1
 40
1
 40
1
 40
1
 10
3153.811796
 20
3411.952314
 30
0.0
 10
3151.262377
 20
3410.726764
 30
0.0
 10
3146.060722
 20
3409.484757
 30
0.0
 10
3142.252362
 20
3409.192075
 30
0.0
  0
SPLINE
  5
217
100
AcDbEntity
  8
Cut
 62
7
100
AcDbSpline
 70
8
 71
3
 72
8
 73
4
 74
0
 40
0
 40
0
 40
0
 40
0
 40
1
 40
1
 40
1
 40
1
 10
3142.252362
 20
3409.192075
 30
0.0
 10
3138.443897
 20
3408.899075
 30
0.0
 10
3133.992441
 20
3407.821798
 30
0.0
 10
3132.360015
 20
3406.796960
 30
0.0
  0
SPLINE
  5
218
100
AcDbEntity
  8
Cut
 62
7
100
AcDbSpline
 70
8
 71
3
 72
8
 73
4
 74
0
 40
0
 40
0
 40
0
 40
0
 40
1
 40
1
 40
1
 40
1
 10
3132.360015
 20
3406.796960
 30
0.0
 10
3130.727959
 20
3405.772494
 30
0.0
 10
3127.934594
 20
3404.930484
 30
0.0
 10
3126.152784
 20
3404.926462
 30
0.0
  0
SPLINE
  5
219
100
AcDbEntity
  8
Cut
 62
7
100
AcDbSpline
 70
8
 71
3
 72
8
 73
4
 74
0
 40
0
 40
0
 40
0
 40
0
 40
1
 40
1
 40
1
 40
1
 10
3126.152784
 20
3404.926462
 30
0.0
 10
3124.371080
 20
3404.926462
 30
0.0
 10
3120.364441
 20
3403.858022
 30
0.0
 10
3117.249819
 20
3402.560240
 30
0.0
  0
SPLINE
  5
21a
100
AcDbEntity
  8
Cut
 62
7
100
AcDbSpline
 70
8
 71
3
 72
8
 73
4
 74
0
 40
0
 40
0
 40
0
 40
0
 40
1
 40
1
 40
1
 40
1
 10
3117.249819
 20
3402.560240
 30
0.0
 10
3114.134932
 20
3401.263253
 30
0.0
 10
3108.693035
 20
3399.914195
 30
0.0
 10
3105.156615
 20
3399.562882
 30
0.0
  0
SPLINE
  5
21b
100
AcDbEntity
  8
Cut
 62
7
100
AcDbSpline
 70
8
 71
3
 72
8
 73
4
 74
0
 40
0
 40
0
 40
0
 40
0
 40
1
 40
1
 40
1
 40
1
 10
3105.156615
 20
3399.562882
 30
0.0
 10
3101.619982
 20
3399.211780
 30
0.0
 10
3096.500771
 20
3398.073013
 30
0.0
 10
3093.780537
 20
3397.032248
 30
0.0
  0
SPLINE
  5
21c
100
AcDbEntity
  8
Cut
 62
7
100
AcDbSpline
 70
8
 71
3
 72
8
 73
4
 74
0
 40
0
 40
0
 40
0
 40
0
 40
1
 40
1
 40
1
 40
1
 10
3093.780537
 20
3397.032248
 30
0.0
 10
3086.626150
 20
3394.294763
 30
0.0
 10
3063.324931
 20
3394.291800
 30
0.0
 10
3059.157638
 20
3397.032248
 30
0.0
  0
SPLINE
  5
21d
100
AcDbEntity
  8
Cut
 62
7
100
AcDbSpline
 70
8
 71
3
 72
8
 73
4
 74
0
 40
0
 40
0
 40
0
 40
0
 40
1
 40
1
 40
1
 40
1
 10
3059.157638
 20
3397.032248
 30
0.0
 10
3057.525476
 20
3398.103916
 30
0.0
 10
3053.741670
 20
3400.249581
 30
0.0
 10
3050.749232
 20
3401.800833
 30
0.0
  0
SPLINE
  5
21e
100
AcDbEntity
  8
Cut
 62
7
100
AcDbSpline
 70
8
 71
3
 72
8
 73
4
 74
0
 40
0
 40
0
 40
0
 40
0
 40
1
 40
1
 40
1
 40
1
 10
3050.749232
 20
3401.800833
 30
0.0
 10
3047.757007
 20
3403.352297
 30
0.0
 10
3016.218726
 20
3408.452194
 30
0.0
 10
3013.744131
 20
3411.241008
 30
0.0
  0
SPLINE
  5
21f
100
AcDbEntity
  8
Cut
 62
7
100
AcDbSpline
 70
8
 71
3
 72
8
 73
4
 74
0
 40
0
 40
0
 40
0
 40
0
 40
1
 40
1
 40
1
 40
1
 10
3013.744131
 20
3411.241008
 30
0.0
 10
2954.698497
 20
3457.130235
 30
0.0
 10
2920.977881
 20
3462.252198
 30
0.0
 10
2863.655637
 20
3498.628650
 30
0.0
  0
SPLINE
  5
220
100
AcDbEntity
  8
Cut
 62
7
100
AcDbSpline
 70
8
 71
3
 72
8
 73
4
 74
0
 40
0
 40
0
 40
0
 40
0
 40
1
 40
1
 40
1
 40
1
 10
2863.655637
 20
3498.628650
 30
0.0
 10
2862.768277
 20
3499.215866
 30
0.0
 10
2859.207039
 20
3500.289175
 30
0.0
 10
2855.741950
 20
3501.013921
 30
0.0
  0
SPLINE
  5
221
100
AcDbEntity
  8
Cut
 62
7
100
AcDbSpline
 70
8
 71
3
 72
8
 73
4
 74
0
 40
0
 40
0
 40
0
 40
0
 40
1
 40
1
 40
1
 40
1
 10
2855.741950
 20
3501.013921
 30
0.0
 10
2852.277284
 20
3501.738033
 30
0.0
 10
2848.515173
 20
3503.029623
 30
0.0
 10
2847.381910
 20
3503.883698
 30
0.0
  0
SPLINE
  5
222
100
AcDbEntity
  8
Cut
 62
7
100
AcDbSpline
 70
8
 71
3
 72
8
 73
4
 74
0
 40
0
 40
0
 40
0
 40
0
 40
1
 40
1
 40
1
 40
1
 10
2847.381910
 20
3503.883698
 30
0.0
 10
2846.248223
 20
3504.737932
 30
0.0
 10
2843.221496
 20
3505.804996
 30
0.0
 10
2840.655408
 20
3506.255317
 30
0.0
  0
SPLINE
  5
223
100
AcDbEntity
  8
Cut
 62
7
100
AcDbSpline
 70
8
 71
3
 72
8
 73
4
 74
0
 40
0
 40
0
 40
0
 40
0
 40
1
 40
1
 40
1
 40
1
 10
2840.655408
 20
3506.255317
 30
0.0
 10
2838.089373
 20
3506.705691
 30
0.0
 10
2835.408297
 20
3507.754711
 30
0.0
 10
2834.697150
 20
3508.586773
 30
0.0
  0
SPLINE
  5
224
100
AcDbEntity
  8
Cut
 62
7
100
AcDbSpline
 70
8
 71
3
 72
8
 73
4
 74
0
 40
0
 40
0
 40
0
 40
0
 40
1
 40
1
 40
1
 40
1
 10
2834.697150
 20
3508.586773
 30
0.0
 10
2833.986215
 20
3509.418623
 30
0.0
 10
2831.671163
 20
3510.456054
 30
0.0
 10
2829.552645
 20
3510.891928
 30
0.0
  0
SPLINE
  5
225
100
AcDbEntity
  8
Cut
 62
7
100
AcDbSpline
 70
8
 71
3
 72
8
 73
4
 74
0
 40
0
 40
0
 40
0
 40
0
 40
1
 40
1
 40
1
 40
1
 10
2829.552645
 20
3510.891928
 30
0.0
 10
2827.434443
 20
3511.327803
 30
0.0
 10
2824.773846
 20
3512.362059
 30
0.0
 10
2823.640530
 20
3513.190946
 30
0.0
  0
SPLINE
  5
226
100
AcDbEntity
  8
Cut
 62
7
100
AcDbSpline
 70
8
 71
3
 72
8
 73
4
 74
0
 40
0
 40
0
 40
0
 40
0
 40
1
 40
1
 40
1
 40
1
 10
2823.640530
 20
3513.190946
 30
0.0
 10
2822.506949
 20
3514.019356
 30
0.0
 10
2819.502129
 20
3515.061868
 30
0.0
 10
2816.963346
 20
3515.507532
 30
0.0
  0
SPLINE
  5
227
100
AcDbEntity
  8
Cut
 62
7
100
AcDbSpline
 70
8
 71
3
 72
8
 73
4
 74
0
 40
0
 40
0
 40
0
 40
0
 40
1
 40
1
 40
1
 40
1
 10
2816.963346
 20
3515.507532
 30
0.0
 10
2813.249866
 20
3516.158936
 30
0.0
 10
2812.346632
 20
3515.985158
 30
0.0
 10
2812.346632
 20
3514.618638
 30
0.0
  0
SPLINE
  5
228
100
AcDbEntity
  8
Cut
 62
7
100
AcDbSpline
 70
8
 71
3
 72
8
 73
4
 74
0
 40
0
 40
0
 40
0
 40
0
 40
1
 40
1
 40
1
 40
1
 10
2812.346632
 20
3514.618638
 30
0.0
 10
2812.346632
 20
3513.684235
 30
0.0
 10
2811.345025
 20
3511.555556
 30
0.0
 10
2810.120798
 20
3509.887623
 30
0.0
  0
SPLINE
  5
229
100
AcDbEntity
  8
Cut
 62
7
100
AcDbSpline
 70
8
 71
3
 72
8
 73
4
 74
0
 40
0
 40
0
 40
0
 40
0
 40
1
 40
1
 40
1
 40
1
 10
2810.120798
 20
3509.887623
 30
0.0
 10
2805.946467
 20
3504.199875
 30
0.0
 10
2803.443561
 20
3500.062691
 30
0.0
 10
2803.443561
 20
3498.848518
 30
0.0
  0
SPLINE
  5
22a
100
AcDbEntity
  8
Cut
 62
7
100
AcDbSpline
 70
8
 71
3
 72
8
 73
4
 74
0
 40
0
 40
0
 40
0
 40
0
 40
1
 40
1
 40
1
 40
1
 10
2803.443561
 20
3498.848518
 30
0.0
 10
2803.443561
 20
3497.447020
 30
0.0
 10
2799.257588
 20
3489.716160
 30
0.0
 10
2797.037734
 20
3487.016987
 30
0.0
  0
SPLINE
  5
22b
100
AcDbEntity
  8
Cut
 62
7
100
AcDbSpline
 70
8
 71
3
 72
8
 73
4
 74
0
 40
0
 40
0
 40
0
 40
0
 40
1
 40
1
 40
1
 40
1
 10
2797.037734
 20
3487.016987
 30
0.0
 10
2796.208424
 20
3486.008924
 30
0.0
 10
2795.529821
 20
3484.640023
 30
0.0
 10
2795.529821
 20
3483.975654
 30
0.0
  0
SPLINE
  5
22c
100
AcDbEntity
  8
Cut
 62
7
100
AcDbSpline
 70
8
 71
3
 72
8
 73
4
 74
0
 40
0
 40
0
 40
0
 40
0
 40
1
 40
1
 40
1
 40
1
 10
2795.529821
 20
3483.975654
 30
0.0
 10
2795.529821
 20
3483.311074
 30
0.0
 10
2794.793221
 20
3482.052398
 30
0.0
 10
2793.892791
 20
3481.178479
 30
0.0
  0
SPLINE
  5
22d
100
AcDbEntity
  8
Cut
 62
7
100
AcDbSpline
 70
8
 71
3
 72
8
 73
4
 74
0
 40
0
 40
0
 40
0
 40
0
 40
1
 40
1
 40
1
 40
1
 10
2793.892791
 20
3481.178479
 30
0.0
 10
2792.991937
 20
3480.304772
 30
0.0
 10
2791.650976
 20
3477.897011
 30
0.0
 10
2790.911783
 20
3475.827705
 30
0.0
  0
SPLINE
  5
22e
100
AcDbEntity
  8
Cut
 62
7
100
AcDbSpline
 70
8
 71
3
 72
8
 73
4
 74
0
 40
0
 40
0
 40
0
 40
0
 40
1
 40
1
 40
1
 40
1
 10
2790.911783
 20
3475.827705
 30
0.0
 10
2790.172749
 20
3473.758610
 30
0.0
 10
2789.128597
 20
3472.065435
 30
0.0
 10
2788.592128
 20
3472.065435
 30
0.0
  0
SPLINE
  5
22f
100
AcDbEntity
  8
Cut
 62
7
100
AcDbSpline
 70
8
 71
3
 72
8
 73
4
 74
0
 40
0
 40
0
 40
0
 40
0
 40
1
 40
1
 40
1
 40
1
 10
2788.592128
 20
3472.065435
 30
0.0
 10
2788.055130
 20
3472.065435
 30
0.0
 10
2787.616027
 20
3471.469065
 30
0.0
 10
2787.616027
 20
3470.740085
 30
0.0
  0
SPLINE
  5
230
100
AcDbEntity
  8
Cut
 62
7
100
AcDbSpline
 70
8
 71
3
 72
8
 73
4
 74
0
 40
0
 40
0
 40
0
 40
0
 40
1
 40
1
 40
1
 40
1
 10
2787.616027
 20
3470.740085
 30
0.0
 10
2787.616027
 20
3470.011422
 30
0.0
 10
2786.697976
 20
3468.318406
 30
0.0
 10
2785.575825
 20
3466.977763
 30
0.0
  0
SPLINE
  5
231
100
AcDbEntity
  8
Cut
 62
7
100
AcDbSpline
 70
8
 71
3
 72
8
 73
4
 74
0
 40
0
 40
0
 40
0
 40
0
 40
1
 40
1
 40
1
 40
1
 10
2785.575825
 20
3466.977763
 30
0.0
 10
2784.453251
 20
3465.637436
 30
0.0
 10
2780.780887
 20
3461.136715
 30
0.0
 10
2777.414647
 20
3456.977042
 30
0.0
  0
SPLINE
  5
232
100
AcDbEntity
  8
Cut
 62
7
100
AcDbSpline
 70
8
 71
3
 72
8
 73
4
 74
0
 40
0
 40
0
 40
0
 40
0
 40
1
 40
1
 40
1
 40
1
 10
2777.414647
 20
3456.977042
 30
0.0
 10
2762.734664
 20
3438.835409
 30
0.0
 10
2755.999589
 20
3434.100690
 30
0.0
 10
2742.900915
 20
3432.714803
 30
0.0
  0
SPLINE
  5
233
100
AcDbEntity
  8
Cut
 62
7
100
AcDbSpline
 70
8
 71
3
 72
8
 73
4
 74
0
 40
0
 40
0
 40
0
 40
0
 40
1
 40
1
 40
1
 40
1
 10
2742.900915
 20
3432.714803
 30
0.0
 10
2737.842452
 20
3432.179551
 30
0.0
 10
2731.700097
 20
3431.230067
 30
0.0
 10
2729.251907
 20
3430.605439
 30
0.0
  0
SPLINE
  5
234
100
AcDbEntity
  8
Cut
 62
7
100
AcDbSpline
 70
8
 71
3
 72
8
 73
4
 74
0
 40
0
 40
0
 40
0
 40
0
 40
1
 40
1
 40
1
 40
1
 10
2729.251907
 20
3430.605439
 30
0.0
 10
2726.803665
 20
3429.980546
 30
0.0
 10
2713.671759
 20
3429.192088
 30
0.0
 10
2700.069953
 20
3428.852415
 30
0.0
  0
SPLINE
  5
235
100
AcDbEntity
  8
Cut
 62
7
100
AcDbSpline
 70
8
 71
3
 72
8
 73
4
 74
0
 40
0
 40
0
 40
0
 40
0
 40
1
 40
1
 40
1
 40
1
 10
2700.069953
 20
3428.852415
 30
0.0
 10
2675.594143
 20
3428.241704
 30
0.0
 10
2667.058261
 20
3428.952851
 30
0.0
 10
2655.554813
 20
3432.566107
 30
0.0
  0
SPLINE
  5
236
100
AcDbEntity
  8
Cut
 62
7
100
AcDbSpline
 70
8
 71
3
 72
8
 73
4
 74
0
 40
0
 40
0
 40
0
 40
0
 40
1
 40
1
 40
1
 40
1
 10
2655.554813
 20
3432.566107
 30
0.0
 10
2653.378562
 20
3433.249473
 30
0.0
 10
2649.715088
 20
3433.821132
 30
0.0
 10
2647.413531
 20
3433.836266
 30
0.0
  0
SPLINE
  5
237
100
AcDbEntity
  8
Cut
 62
7
100
AcDbSpline
 70
8
 71
3
 72
8
 73
4
 74
0
 40
0
 40
0
 40
0
 40
0
 40
1
 40
1
 40
1
 40
1
 10
2647.413531
 20
3433.836266
 30
0.0
 10
2645.112555
 20
3433.836266
 30
0.0
 10
2641.551264
 20
3434.605039
 30
0.0
 10
2639.499949
 20
3435.510179
 30
0.0
  0
SPLINE
  5
238
100
AcDbEntity
  8
Cut
 62
7
100
AcDbSpline
 70
8
 71
3
 72
8
 73
4
 74
0
 40
0
 40
0
 40
0
 40
0
 40
1
 40
1
 40
1
 40
1
 10
2639.499949
 20
3435.510179
 30
0.0
 10
2637.019639
 20
3436.605289
 30
0.0
 10
2629.473352
 20
3437.391578
 30
0.0
 10
2616.975176
 20
3437.858197
 30
0.0
  0
SPLINE
  5
239
100
AcDbEntity
  8
Cut
 62
7
100
AcDbSpline
 70
8
 71
3
 72
8
 73
4
 74
0
 40
0
 40
0
 40
0
 40
0
 40
1
 40
1
 40
1
 40
1
 10
2616.975176
 20
3437.858197
 30
0.0
 10
2596.816149
 20
3438.610831
 30
0.0
 10
2593.584316
 20
3439.004584
 30
0.0
 10
2587.016511
 20
3441.508759
 30
0.0
  0
SPLINE
  5
23a
100
AcDbEntity
  8
Cut
 62
7
100
AcDbSpline
 70
8
 71
3
 72
8
 73
4
 74
0
 40
0
 40
0
 40
0
 40
0
 40
1
 40
1
 40
1
 40
1
 10
2587.016511
 20
3441.508759
 30
0.0
 10
2584.685109
 20
3442.397548
 30
0.0
 10
2581.459467
 20
3443.124993
 30
0.0
 10
2579.848525
 20
3443.124993
 30
0.0
  0
SPLINE
  5
23b
100
AcDbEntity
  8
Cut
 62
7
100
AcDbSpline
 70
8
 71
3
 72
8
 73
4
 74
0
 40
0
 40
0
 40
0
 40
0
 40
1
 40
1
 40
1
 40
1
 10
2579.848525
 20
3443.124993
 30
0.0
 10
2578.237583
 20
3443.124993
 30
0.0
 10
2574.357945
 20
3444.123160
 30
0.0
 10
2571.227342
 20
3445.342836
 30
0.0
  0
SPLINE
  5
23c
100
AcDbEntity
  8
Cut
 62
7
100
AcDbSpline
 70
8
 71
3
 72
8
 73
4
 74
0
 40
0
 40
0
 40
0
 40
0
 40
1
 40
1
 40
1
 40
1
 10
2571.227342
 20
3445.342836
 30
0.0
 10
2567.148949
 20
3446.932135
 30
0.0
 10
2561.712555
 20
3447.709799
 30
0.0
 10
2552.048490
 20
3448.085190
 30
0.0
  0
SPLINE
  5
23d
100
AcDbEntity
  8
Cut
 62
7
100
AcDbSpline
 70
8
 71
3
 72
8
 73
4
 74
0
 40
0
 40
0
 40
0
 40
0
 40
1
 40
1
 40
1
 40
1
 10
2552.048490
 20
3448.085190
 30
0.0
 10
2542.290233
 20
3448.464443
 30
0.0
 10
2537.666957
 20
3449.131617
 30
0.0
 10
2535.326823
 20
3450.497555
 30
0.0
  0
SPLINE
  5
23e
100
AcDbEntity
  8
Cut
 62
7
100
AcDbSpline
 70
8
 71
3
 72
8
 73
4
 74
0
 40
0
 40
0
 40
0
 40
0
 40
1
 40
1
 40
1
 40
1
 10
2535.326823
 20
3450.497555
 30
0.0
 10
2533.548294
 20
3451.536256
 30
0.0
 10
2530.138185
 20
3452.386150
 30
0.0
 10
2527.749527
 20
3452.386150
 30
0.0
  0
SPLINE
  5
23f
100
AcDbEntity
  8
Cut
 62
7
100
AcDbSpline
 70
8
 71
3
 72
8
 73
4
 74
0
 40
0
 40
0
 40
0
 40
0
 40
1
 40
1
 40
1
 40
1
 10
2527.749527
 20
3452.386150
 30
0.0
 10
2523.656000
 20
3452.386150
 30
0.0
 10
2522.918712
 20
3451.837563
 30
0.0
 10
2514.909668
 20
3442.835645
 30
0.0
  0
SPLINE
  5
240
100
AcDbEntity
  8
Cut
 62
7
100
AcDbSpline
 70
8
 71
3
 72
8
 73
4
 74
0
 40
0
 40
0
 40
0
 40
0
 40
1
 40
1
 40
1
 40
1
 10
2514.909668
 20
3442.835645
 30
0.0
 10
2507.114038
 20
3434.073703
 30
0.0
 10
2501.869044
 20
3427.804030
 30
0.0
 10
2495.674566
 20
3419.843776
 30
0.0
  0
SPLINE
  5
241
100
AcDbEntity
  8
Cut
 62
7
100
AcDbSpline
 70
8
 71
3
 72
8
 73
4
 74
0
 40
0
 40
0
 40
0
 40
0
 40
1
 40
1
 40
1
 40
1
 10
2495.674566
 20
3419.843776
 30
0.0
 10
2489.044742
 20
3411.323135
 30
0.0
 10
2461.175598
 20
3389.874793
 30
0.0
 10
2456.735096
 20
3389.874793
 30
0.0
  0
SPLINE
  5
242
100
AcDbEntity
  8
Cut
 62
7
100
AcDbSpline
 70
8
 71
3
 72
8
 73
4
 74
0
 40
0
 40
0
 40
0
 40
0
 40
1
 40
1
 40
1
 40
1
 10
2456.735096
 20
3389.874793
 30
0.0
 10
2456.079670
 20
3389.874793
 30
0.0
 10
2454.738285
 20
3388.832969
 30
0.0
 10
2453.753506
 20
3387.559635
 30
0.0
  0
SPLINE
  5
243
100
AcDbEntity
  8
Cut
 62
7
100
AcDbSpline
 70
8
 71
3
 72
8
 73
4
 74
0
 40
0
 40
0
 40
0
 40
0
 40
1
 40
1
 40
1
 40
1
 10
2453.753506
 20
3387.559635
 30
0.0
 10
2452.768515
 20
3386.286037
 30
0.0
 10
2451.155192
 20
3385.244320
 30
0.0
 10
2450.168243
 20
3385.244320
 30
0.0
  0
SPLINE
  5
244
100
AcDbEntity
  8
Cut
 62
7
100
AcDbSpline
 70
8
 71
3
 72
8
 73
4
 74
0
 40
0
 40
0
 40
0
 40
0
 40
1
 40
1
 40
1
 40
1
 10
2450.168243
 20
3385.244320
 30
0.0
 10
2449.181136
 20
3385.244320
 30
0.0
 10
2446.690401
 20
3384.239062
 30
0.0
 10
2444.633530
 20
3383.010443
 30
0.0
  0
SPLINE
  5
245
100
AcDbEntity
  8
Cut
 62
7
100
AcDbSpline
 70
8
 71
3
 72
8
 73
4
 74
0
 40
0
 40
0
 40
0
 40
0
 40
1
 40
1
 40
1
 40
1
 10
2444.633530
 20
3383.010443
 30
0.0
 10
2440.876447
 20
3380.766829
 30
0.0
 10
2422.523307
 20
3378.272443
 30
0.0
 10
2407.754582
 20
3377.998229
 30
0.0
  0
SPLINE
  5
246
100
AcDbEntity
  8
Cut
 62
7
100
AcDbSpline
 70
8
 71
3
 72
8
 73
4
 74
0
 40
0
 40
0
 40
0
 40
0
 40
1
 40
1
 40
1
 40
1
 10
2407.754582
 20
3377.998229
 30
0.0
 10
2393.488408
 20
3377.734122
 30
0.0
 10
2373.008441
 20
3382.681195
 30
0.0
 10
2367.310110
 20
3387.768286
 30
0.0
  0
SPLINE
  5
247
100
AcDbEntity
  8
Cut
 62
7
100
AcDbSpline
 70
8
 71
3
 72
8
 73
4
 74
0
 40
0
 40
0
 40
0
 40
0
 40
1
 40
1
 40
1
 40
1
 10
2367.310110
 20
3387.768286
 30
0.0
 10
2366.012857
 20
3388.926896
 30
0.0
 10
2364.180830
 20
3389.874793
 30
0.0
 10
2363.239707
 20
3389.874793
 30
0.0
  0
SPLINE
  5
248
100
AcDbEntity
  8
Cut
 62
7
100
AcDbSpline
 70
8
 71
3
 72
8
 73
4
 74
0
 40
0
 40
0
 40
0
 40
0
 40
1
 40
1
 40
1
 40
1
 10
2363.239707
 20
3389.874793
 30
0.0
 10
2362.298107
 20
3389.874793
 30
0.0
 10
2360.466080
 20
3390.849835
 30
0.0
 10
2359.168722
 20
3392.041889
 30
0.0
  0
SPLINE
  5
249
100
AcDbEntity
  8
Cut
 62
7
100
AcDbSpline
 70
8
 71
3
 72
8
 73
4
 74
0
 40
0
 40
0
 40
0
 40
0
 40
1
 40
1
 40
1
 40
1
 10
2359.168722
 20
3392.041889
 30
0.0
 10
2357.871205
 20
3393.233995
 30
0.0
 10
2354.806642
 20
3394.574798
 30
0.0
 10
2352.358241
 20
3395.022103
 30
0.0
  0
SPLINE
  5
24a
100
AcDbEntity
  8
Cut
 62
7
100
AcDbSpline
 70
8
 71
3
 72
8
 73
4
 74
0
 40
0
 40
0
 40
0
 40
0
 40
1
 40
1
 40
1
 40
1
 10
2352.358241
 20
3395.022103
 30
0.0
 10
2349.909892
 20
3395.469460
 30
0.0
 10
2346.053643
 20
3396.631245
 30
0.0
 10
2343.789075
 20
3397.604065
 30
0.0
  0
SPLINE
  5
24b
100
AcDbEntity
  8
Cut
 62
7
100
AcDbSpline
 70
8
 71
3
 72
8
 73
4
 74
0
 40
0
 40
0
 40
0
 40
0
 40
1
 40
1
 40
1
 40
1
 10
2343.789075
 20
3397.604065
 30
0.0
 10
2336.317665
 20
3400.813038
 30
0.0
 10
2323.963687
 20
3397.481246
 30
0.0
 10
2316.013804
 20
3390.112759
 30
0.0
  0
SPLINE
  5
24c
100
AcDbEntity
  8
Cut
 62
7
100
AcDbSpline
 70
8
 71
3
 72
8
 73
4
 74
0
 40
0
 40
0
 40
0
 40
0
 40
1
 40
1
 40
1
 40
1
 10
2316.013804
 20
3390.112759
 30
0.0
 10
2313.811624
 20
3388.071710
 30
0.0
 10
2311.578700
 20
3386.401978
 30
0.0
 10
2311.051755
 20
3386.401978
 30
0.0
  0
SPLINE
  5
24d
100
AcDbEntity
  8
Cut
 62
7
100
AcDbSpline
 70
8
 71
3
 72
8
 73
4
 74
0
 40
0
 40
0
 40
0
 40
0
 40
1
 40
1
 40
1
 40
1
 10
2311.051755
 20
3386.401978
 30
0.0
 10
2310.066130
 20
3386.401978
 30
0.0
 10
2305.038464
 20
3382.067944
 30
0.0
 10
2298.940242
 20
3375.960831
 30
0.0
  0
SPLINE
  5
24e
100
AcDbEntity
  8
Cut
 62
7
100
AcDbSpline
 70
8
 71
3
 72
8
 73
4
 74
0
 40
0
 40
0
 40
0
 40
0
 40
1
 40
1
 40
1
 40
1
 10
2298.940242
 20
3375.960831
 30
0.0
 10
2297.035824
 20
3374.054085
 30
0.0
 10
2293.697311
 20
3371.961495
 30
0.0
 10
2291.520743
 20
3371.311414
 30
0.0
  0
SPLINE
  5
24f
100
AcDbEntity
  8
Cut
 62
7
100
AcDbSpline
 70
8
 71
3
 72
8
 73
4
 74
0
 40
0
 40
0
 40
0
 40
0
 40
1
 40
1
 40
1
 40
1
 10
2291.520743
 20
3371.311414
 30
0.0
 10
2289.344757
 20
3370.660222
 30
0.0
 10
2286.331576
 20
3369.326986
 30
0.0
 10
2284.825303
 20
3368.347393
 30
0.0
  0
SPLINE
  5
250
100
AcDbEntity
  8
Cut
 62
7
100
AcDbSpline
 70
8
 71
3
 72
8
 73
4
 74
0
 40
0
 40
0
 40
0
 40
0
 40
1
 40
1
 40
1
 40
1
 10
2284.825303
 20
3368.347393
 30
0.0
 10
2283.319665
 20
3367.367958
 30
0.0
 10
2277.755213
 20
3366.069278
 30
0.0
 10
2272.460107
 20
3365.461265
 30
0.0
  0
SPLINE
  5
251
100
AcDbEntity
  8
Cut
 62
7
100
AcDbSpline
 70
8
 71
3
 72
8
 73
4
 74
0
 40
0
 40
0
 40
0
 40
0
 40
1
 40
1
 40
1
 40
1
 10
2272.460107
 20
3365.461265
 30
0.0
 10
2267.165424
 20
3364.853517
 30
0.0
 10
2260.713453
 20
3364.053999
 30
0.0
 10
2258.122759
 20
3363.685064
 30
0.0
  0
SPLINE
  5
252
100
AcDbEntity
  8
Cut
 62
7
100
AcDbSpline
 70
8
 71
3
 72
8
 73
4
 74
0
 40
0
 40
0
 40
0
 40
0
 40
1
 40
1
 40
1
 40
1
 10
2258.122759
 20
3363.685064
 30
0.0
 10
2252.694832
 20
3362.911899
 30
0.0
 10
2235.899400
 20
3366.156908
 30
0.0
 10
2233.651500
 20
3368.412904
 30
0.0
  0
SPLINE
  5
253
100
AcDbEntity
  8
Cut
 62
7
100
AcDbSpline
 70
8
 71
3
 72
8
 73
4
 74
0
 40
0
 40
0
 40
0
 40
0
 40
1
 40
1
 40
1
 40
1
 10
2233.651500
 20
3368.412904
 30
0.0
 10
2232.835313
 20
3369.231630
 30
0.0
 10
2230.542963
 20
3370.242233
 30
0.0
 10
2228.557212
 20
3370.657788
 30
0.0
  0
SPLINE
  5
254
100
AcDbEntity
  8
Cut
 62
7
100
AcDbSpline
 70
8
 71
3
 72
8
 73
4
 74
0
 40
0
 40
0
 40
0
 40
0
 40
1
 40
1
 40
1
 40
1
 10
2228.557212
 20
3370.657788
 30
0.0
 10
2226.571726
 20
3371.073924
 30
0.0
 10
2224.426590
 20
3372.147868
 30
0.0
 10
2223.790108
 20
3373.045705
 30
0.0
  0
SPLINE
  5
255
100
AcDbEntity
  8
Cut
 62
7
100
AcDbSpline
 70
8
 71
3
 72
8
 73
4
 74
0
 40
0
 40
0
 40
0
 40
0
 40
1
 40
1
 40
1
 40
1
 10
2223.790108
 20
3373.045705
 30
0.0
 10
2223.153627
 20
3373.942590
 30
0.0
 10
2221.217300
 20
3375.028757
 30
0.0
 10
2219.486502
 20
3375.458652
 30
0.0
  0
SPLINE
  5
256
100
AcDbEntity
  8
Cut
 62
7
100
AcDbSpline
 70
8
 71
3
 72
8
 73
4
 74
0
 40
0
 40
0
 40
0
 40
0
 40
1
 40
1
 40
1
 40
1
 10
2219.486502
 20
3375.458652
 30
0.0
 10
2217.755915
 20
3375.889023
 30
0.0
 10
2215.672268
 20
3376.865495
 30
0.0
 10
2214.856399
 20
3377.629241
 30
0.0
  0
SPLINE
  5
257
100
AcDbEntity
  8
Cut
 62
7
100
AcDbSpline
 70
8
 71
3
 72
8
 73
4
 74
0
 40
0
 40
0
 40
0
 40
0
 40
1
 40
1
 40
1
 40
1
 10
2214.856399
 20
3377.629241
 30
0.0
 10
2212.248719
 20
3380.069017
 30
0.0
 10
2202.865218
 20
3385.244320
 30
0.0
 10
2201.049171
 20
3385.244320
 30
0.0
  0
SPLINE
  5
258
100
AcDbEntity
  8
Cut
 62
7
100
AcDbSpline
 70
8
 71
3
 72
8
 73
4
 74
0
 40
0
 40
0
 40
0
 40
0
 40
1
 40
1
 40
1
 40
1
 10
2201.049171
 20
3385.244320
 30
0.0
 10
2200.084765
 20
3385.244320
 30
0.0
 10
2198.233687
 20
3386.204916
 30
0.0
 10
2196.936329
 20
3387.379560
 30
0.0
  0
SPLINE
  5
259
100
AcDbEntity
  8
Cut
 62
7
100
AcDbSpline
 70
8
 71
3
 72
8
 73
4
 74
0
 40
0
 40
0
 40
0
 40
0
 40
1
 40
1
 40
1
 40
1
 10
2196.936329
 20
3387.379560
 30
0.0
 10
2195.638865
 20
3388.554151
 30
0.0
 10
2193.048171
 20
3389.863151
 30
0.0
 10
2191.179577
 20
3390.287437
 30
0.0
  0
SPLINE
  5
25a
100
AcDbEntity
  8
Cut
 62
7
100
AcDbSpline
 70
8
 71
3
 72
8
 73
4
 74
0
 40
0
 40
0
 40
0
 40
0
 40
1
 40
1
 40
1
 40
1
 10
2191.179577
 20
3390.287437
 30
0.0
 10
2189.311143
 20
3390.711987
 30
0.0
 10
2186.927406
 20
3391.965265
 30
0.0
 10
2185.882196
 20
3393.071647
 30
0.0
  0
SPLINE
  5
25b
100
AcDbEntity
  8
Cut
 62
7
100
AcDbSpline
 70
8
 71
3
 72
8
 73
4
 74
0
 40
0
 40
0
 40
0
 40
0
 40
1
 40
1
 40
1
 40
1
 10
2185.882196
 20
3393.071647
 30
0.0
 10
2184.127320
 20
3394.930451
 30
0.0
 10
2179.711954
 20
3395.091159
 30
0.0
 10
2127.947812
 20
3395.179053
 30
0.0
  0
SPLINE
  5
25c
100
AcDbEntity
  8
Cut
 62
7
100
AcDbSpline
 70
8
 71
3
 72
8
 73
4
 74
0
 40
0
 40
0
 40
0
 40
0
 40
1
 40
1
 40
1
 40
1
 10
2127.947812
 20
3395.179053
 30
0.0
 10
2075.217200
 20
3395.268641
 30
0.0
 10
2065.483285
 20
3395.696261
 30
0.0
 10
2065.483285
 20
3397.921724
 30
0.0
  0
SPLINE
  5
25d
100
AcDbEntity
  8
Cut
 62
7
100
AcDbSpline
 70
8
 71
3
 72
8
 73
4
 74
0
 40
0
 40
0
 40
0
 40
0
 40
1
 40
1
 40
1
 40
1
 10
2065.483285
 20
3397.921724
 30
0.0
 10
2065.483285
 20
3398.426708
 30
0.0
 10
2063.793603
 20
3399.155847
 30
0.0
 10
2061.728213
 20
3399.542244
 30
0.0
  0
SPLINE
  5
25e
100
AcDbEntity
  8
Cut
 62
7
100
AcDbSpline
 70
8
 71
3
 72
8
 73
4
 74
0
 40
0
 40
0
 40
0
 40
0
 40
1
 40
1
 40
1
 40
1
 10
2061.728213
 20
3399.542244
 30
0.0
 10
2056.782568
 20
3400.467915
 30
0.0
 10
2042.488718
 20
3408.882988
 30
0.0
 10
2036.459870
 20
3414.418865
 30
0.0
  0
SPLINE
  5
25f
100
AcDbEntity
  8
Cut
 62
7
100
AcDbSpline
 70
8
 71
3
 72
8
 73
4
 74
0
 40
0
 40
0
 40
0
 40
0
 40
1
 40
1
 40
1
 40
1
 10
2036.459870
 20
3414.418865
 30
0.0
 10
2033.826525
 20
3416.836628
 30
0.0
 10
2030.825620
 20
3418.814865
 30
0.0
 10
2029.791100
 20
3418.814865
 30
0.0
  0
SPLINE
  5
260
100
AcDbEntity
  8
Cut
 62
7
100
AcDbSpline
 70
8
 71
3
 72
8
 73
4
 74
0
 40
0
 40
0
 40
0
 40
0
 40
1
 40
1
 40
1
 40
1
 10
2029.791100
 20
3418.814865
 30
0.0
 10
2028.756261
 20
3418.814865
 30
0.0
 10
2027.353758
 20
3419.856847
 30
0.0
 10
2026.674255
 20
3421.130339
 30
0.0
  0
SPLINE
  5
261
100
AcDbEntity
  8
Cut
 62
7
100
AcDbSpline
 70
8
 71
3
 72
8
 73
4
 74
0
 40
0
 40
0
 40
0
 40
0
 40
1
 40
1
 40
1
 40
1
 10
2026.674255
 20
3421.130339
 30
0.0
 10
2025.994752
 20
3422.403620
 30
0.0
 10
2024.735759
 20
3423.445602
 30
0.0
 10
2023.876604
 20
3423.445602
 30
0.0
  0
SPLINE
  5
262
100
AcDbEntity
  8
Cut
 62
7
100
AcDbSpline
 70
8
 71
3
 72
8
 73
4
 74
0
 40
0
 40
0
 40
0
 40
0
 40
1
 40
1
 40
1
 40
1
 10
2023.876604
 20
3423.445602
 30
0.0
 10
2023.017555
 20
3423.445602
 30
0.0
 10
2021.346817
 20
3424.747987
 30
0.0
 10
2020.164235
 20
3426.339615
 30
0.0
  0
SPLINE
  5
263
100
AcDbEntity
  8
Cut
 62
7
100
AcDbSpline
 70
8
 71
3
 72
8
 73
4
 74
0
 40
0
 40
0
 40
0
 40
0
 40
1
 40
1
 40
1
 40
1
 10
2020.164235
 20
3426.339615
 30
0.0
 10
2018.981547
 20
3427.931454
 30
0.0
 10
2017.365367
 20
3429.233574
 30
0.0
 10
2016.572940
 20
3429.233574
 30
0.0
  0
SPLINE
  5
264
100
AcDbEntity
  8
Cut
 62
7
100
AcDbSpline
 70
8
 71
3
 72
8
 73
4
 74
0
 40
0
 40
0
 40
0
 40
0
 40
1
 40
1
 40
1
 40
1
 10
2016.572940
 20
3429.233574
 30
0.0
 10
2015.779877
 20
3429.233574
 30
0.0
 10
2014.775360
 20
3429.889741
 30
0.0
 10
2014.340491
 20
3430.692063
 30
0.0
  0
SPLINE
  5
265
100
AcDbEntity
  8
Cut
 62
7
100
AcDbSpline
 70
8
 71
3
 72
8
 73
4
 74
0
 40
0
 40
0
 40
0
 40
0
 40
1
 40
1
 40
1
 40
1
 10
2014.340491
 20
3430.692063
 30
0.0
 10
2013.330788
 20
3432.553407
 30
0.0
 10
2005.530819
 20
3438.494573
 30
0.0
 10
2004.096830
 20
3438.494573
 30
0.0
  0
SPLINE
  5
266
100
AcDbEntity
  8
Cut
 62
7
100
AcDbSpline
 70
8
 71
3
 72
8
 73
4
 74
0
 40
0
 40
0
 40
0
 40
0
 40
1
 40
1
 40
1
 40
1
 10
2004.096830
 20
3438.494573
 30
0.0
 10
2003.499189
 20
3438.494573
 30
0.0
 10
2001.631495
 20
3440.108425
 30
0.0
 10
1999.946100
 20
3442.080206
 30
0.0
  0
SPLINE
  5
267
100
AcDbEntity
  8
Cut
 62
7
100
AcDbSpline
 70
8
 71
3
 72
8
 73
4
 74
0
 40
0
 40
0
 40
0
 40
0
 40
1
 40
1
 40
1
 40
1
 10
1999.946100
 20
3442.080206
 30
0.0
 10
1997.288836
 20
3445.189960
 30
0.0
 10
1994.802229
 20
3447.313612
 30
0.0
 10
1987.229007
 20
3452.940929
 30
0.0
  0
SPLINE
  5
268
100
AcDbEntity
  8
Cut
 62
7
100
AcDbSpline
 70
8
 71
3
 72
8
 73
4
 74
0
 40
0
 40
0
 40
0
 40
0
 40
1
 40
1
 40
1
 40
1
 10
1987.229007
 20
3452.940929
 30
0.0
 10
1981.519511
 20
3457.183523
 30
0.0
 10
1977.519487
 20
3460.564950
 30
0.0
 10
1976.962751
 20
3461.618521
 30
0.0
  0
SPLINE
  5
269
100
AcDbEntity
  8
Cut
 62
7
100
AcDbSpline
 70
8
 71
3
 72
8
 73
4
 74
0
 40
0
 40
0
 40
0
 40
0
 40
1
 40
1
 40
1
 40
1
 10
1976.962751
 20
3461.618521
 30
0.0
 10
1976.607574
 20
3462.291621
 30
0.0
 10
1975.929077
 20
3462.561867
 30
0.0
 10
1975.455102
 20
3462.218755
 30
0.0
  0
SPLINE
  5
26a
100
AcDbEntity
  8
Cut
 62
7
100
AcDbSpline
 70
8
 71
3
 72
8
 73
4
 74
0
 40
0
 40
0
 40
0
 40
0
 40
1
 40
1
 40
1
 40
1
 10
1975.455102
 20
3462.218755
 30
0.0
 10
1974.981180
 20
3461.875326
 30
0.0
 10
1973.061205
 20
3463.170091
 30
0.0
 10
1971.188802
 20
3465.094194
 30
0.0
  0
SPLINE
  5
26b
100
AcDbEntity
  8
Cut
 62
7
100
AcDbSpline
 70
8
 71
3
 72
8
 73
4
 74
0
 40
0
 40
0
 40
0
 40
0
 40
1
 40
1
 40
1
 40
1
 10
1971.188802
 20
3465.094194
 30
0.0
 10
1966.798517
 20
3469.604705
 30
0.0
 10
1963.129117
 20
3469.620950
 30
0.0
 10
1958.081555
 20
3465.153302
 30
0.0
  0
SPLINE
  5
26c
100
AcDbEntity
  8
Cut
 62
7
100
AcDbSpline
 70
8
 71
3
 72
8
 73
4
 74
0
 40
0
 40
0
 40
0
 40
0
 40
1
 40
1
 40
1
 40
1
 10
1958.081555
 20
3465.153302
 30
0.0
 10
1955.944833
 20
3463.260843
 30
0.0
 10
1953.726619
 20
3461.698055
 30
0.0
 10
1953.152791
 20
3461.680434
 30
0.0
  0
SPLINE
  5
26d
100
AcDbEntity
  8
Cut
 62
7
100
AcDbSpline
 70
8
 71
3
 72
8
 73
4
 74
0
 40
0
 40
0
 40
0
 40
0
 40
1
 40
1
 40
1
 40
1
 10
1953.152791
 20
3461.680434
 30
0.0
 10
1952.579015
 20
3461.680434
 30
0.0
 10
1950.408744
 20
3459.824699
 30
0.0
 10
1948.329701
 20
3457.596431
 30
0.0
  0
SPLINE
  5
26e
100
AcDbEntity
  8
Cut
 62
7
100
AcDbSpline
 70
8
 71
3
 72
8
 73
4
 74
0
 40
0
 40
0
 40
0
 40
0
 40
1
 40
1
 40
1
 40
1
 10
1948.329701
 20
3457.596431
 30
0.0
 10
1946.250447
 20
3455.367952
 30
0.0
 10
1944.402650
 20
3453.544920
 30
0.0
 10
1944.223050
 20
3453.544920
 30
0.0
  0
SPLINE
  5
26f
100
AcDbEntity
  8
Cut
 62
7
100
AcDbSpline
 70
8
 71
3
 72
8
 73
4
 74
0
 40
0
 40
0
 40
0
 40
0
 40
1
 40
1
 40
1
 40
1
 10
1944.223050
 20
3453.544920
 30
0.0
 10
1944.044086
 20
3453.544920
 30
0.0
 10
1942.257090
 20
3452.242429
 30
0.0
 10
1940.252872
 20
3450.650748
 30
0.0
  0
SPLINE
  5
270
100
AcDbEntity
  8
Cut
 62
7
100
AcDbSpline
 70
8
 71
3
 72
8
 73
4
 74
0
 40
0
 40
0
 40
0
 40
0
 40
1
 40
1
 40
1
 40
1
 10
1940.252872
 20
3450.650748
 30
0.0
 10
1938.248388
 20
3449.059015
 30
0.0
 10
1935.920267
 20
3447.756683
 30
0.0
 10
1935.079050
 20
3447.756683
 30
0.0
  0
SPLINE
  5
271
100
AcDbEntity
  8
Cut
 62
7
100
AcDbSpline
 70
8
 71
3
 72
8
 73
4
 74
0
 40
0
 40
0
 40
0
 40
0
 40
1
 40
1
 40
1
 40
1
 10
1935.079050
 20
3447.756683
 30
0.0
 10
1934.237887
 20
3447.756683
 30
0.0
 10
1932.630649
 20
3446.801114
 30
0.0
 10
1931.507705
 20
3445.632449
 30
0.0
  0
SPLINE
  5
272
100
AcDbEntity
  8
Cut
 62
7
100
AcDbSpline
 70
8
 71
3
 72
8
 73
4
 74
0
 40
0
 40
0
 40
0
 40
0
 40
1
 40
1
 40
1
 40
1
 10
1931.507705
 20
3445.632449
 30
0.0
 10
1929.092535
 20
3443.120178
 30
0.0
 10
1919.973670
 20
3438.499071
 30
0.0
 10
1917.411181
 20
3438.489070
 30
0.0
  0
SPLINE
  5
273
100
AcDbEntity
  8
Cut
 62
7
100
AcDbSpline
 70
8
 71
3
 72
8
 73
4
 74
0
 40
0
 40
0
 40
0
 40
0
 40
1
 40
1
 40
1
 40
1
 10
1917.411181
 20
3438.489070
 30
0.0
 10
1916.424232
 20
3438.489070
 30
0.0
 10
1914.426363
 20
3437.755168
 30
0.0
 10
1912.972213
 20
3436.867703
 30
0.0
  0
SPLINE
  5
274
100
AcDbEntity
  8
Cut
 62
7
100
AcDbSpline
 70
8
 71
3
 72
8
 73
4
 74
0
 40
0
 40
0
 40
0
 40
0
 40
1
 40
1
 40
1
 40
1
 10
1912.972213
 20
3436.867703
 30
0.0
 10
1909.272756
 20
3434.608743
 30
0.0
 10
1901.114435
 20
3432.707765
 30
0.0
 10
1895.119082
 20
3432.707765
 30
0.0
  0
SPLINE
  5
275
100
AcDbEntity
  8
Cut
 62
7
100
AcDbSpline
 70
8
 71
3
 72
8
 73
4
 74
0
 40
0
 40
0
 40
0
 40
0
 40
1
 40
1
 40
1
 40
1
 10
1895.119082
 20
3432.707765
 30
0.0
 10
1891.883175
 20
3432.707765
 30
0.0
 10
1889.426572
 20
3432.045195
 30
0.0
 10
1888.320085
 20
3430.873303
 30
0.0
  0
SPLINE
  5
276
100
AcDbEntity
  8
Cut
 62
7
100
AcDbSpline
 70
8
 71
3
 72
8
 73
4
 74
0
 40
0
 40
0
 40
0
 40
0
 40
1
 40
1
 40
1
 40
1
 10
1888.320085
 20
3430.873303
 30
0.0
 10
1887.367267
 20
3429.864288
 30
0.0
 10
1884.661109
 20
3428.754096
 30
0.0
 10
1882.306793
 20
3428.406063
 30
0.0
  0
SPLINE
  5
277
100
AcDbEntity
  8
Cut
 62
7
100
AcDbSpline
 70
8
 71
3
 72
8
 73
4
 74
0
 40
0
 40
0
 40
0
 40
0
 40
1
 40
1
 40
1
 40
1
 10
1882.306793
 20
3428.406063
 30
0.0
 10
1879.952319
 20
3428.058824
 30
0.0
 10
1877.346544
 20
3427.085052
 30
0.0
 10
1876.516070
 20
3426.244047
 30
0.0
  0
SPLINE
  5
278
100
AcDbEntity
  8
Cut
 62
7
100
AcDbSpline
 70
8
 71
3
 72
8
 73
4
 74
0
 40
0
 40
0
 40
0
 40
0
 40
1
 40
1
 40
1
 40
1
 10
1876.516070
 20
3426.244047
 30
0.0
 10
1875.686019
 20
3425.402778
 30
0.0
 10
1873.014997
 20
3424.347990
 30
0.0
 10
1870.580777
 20
3423.899627
 30
0.0
  0
SPLINE
  5
279
100
AcDbEntity
  8
Cut
 62
7
100
AcDbSpline
 70
8
 71
3
 72
8
 73
4
 74
0
 40
0
 40
0
 40
0
 40
0
 40
1
 40
1
 40
1
 40
1
 10
1870.580777
 20
3423.899627
 30
0.0
 10
1868.146505
 20
3423.451582
 30
0.0
 10
1865.115121
 20
3422.295564
 30
0.0
 10
1863.843692
 20
3421.330417
 30
0.0
  0
SPLINE
  5
27a
100
AcDbEntity
  8
Cut
 62
7
100
AcDbSpline
 70
8
 71
3
 72
8
 73
4
 74
0
 40
0
 40
0
 40
0
 40
0
 40
1
 40
1
 40
1
 40
1
 10
1863.843692
 20
3421.330417
 30
0.0
 10
1862.543159
 20
3420.343098
 30
0.0
 10
1857.568516
 20
3419.161363
 30
0.0
 10
1852.467455
 20
3418.627540
 30
0.0
  0
SPLINE
  5
27b
100
AcDbEntity
  8
Cut
 62
7
100
AcDbSpline
 70
8
 71
3
 72
8
 73
4
 74
0
 40
0
 40
0
 40
0
 40
0
 40
1
 40
1
 40
1
 40
1
 10
1852.467455
 20
3418.627540
 30
0.0
 10
1847.482123
 20
3418.105358
 30
0.0
 10
1841.176997
 20
3417.184132
 30
0.0
 10
1838.456762
 20
3416.579876
 30
0.0
  0
SPLINE
  5
27c
100
AcDbEntity
  8
Cut
 62
7
100
AcDbSpline
 70
8
 71
3
 72
8
 73
4
 74
0
 40
0
 40
0
 40
0
 40
0
 40
1
 40
1
 40
1
 40
1
 10
1838.456762
 20
3416.579876
 30
0.0
 10
1830.641394
 20
3414.844368
 30
0.0
 10
1813.399715
 20
3415.133399
 30
0.0
 10
1807.880877
 20
3417.092533
 30
0.0
  0
SPLINE
  5
27d
100
AcDbEntity
  8
Cut
 62
7
100
AcDbSpline
 70
8
 71
3
 72
8
 73
4
 74
0
 40
0
 40
0
 40
0
 40
0
 40
1
 40
1
 40
1
 40
1
 10
1807.880877
 20
3417.092533
 30
0.0
 10
1804.550197
 20
3418.275168
 30
0.0
 10
1798.569449
 20
3418.816346
 30
0.0
 10
1788.838603
 20
3418.816346
 30
0.0
  0
SPLINE
  5
27e
100
AcDbEntity
  8
Cut
 62
7
100
AcDbSpline
 70
8
 71
3
 72
8
 73
4
 74
0
 40
0
 40
0
 40
0
 40
0
 40
1
 40
1
 40
1
 40
1
 10
1788.838603
 20
3418.816346
 30
0.0
 10
1775.970910
 20
3418.816346
 30
0.0
 10
1774.468395
 20
3419.033252
 30
0.0
 10
1772.673567
 20
3421.131609
 30
0.0
  0
SPLINE
  5
27f
100
AcDbEntity
  8
Cut
 62
7
100
AcDbSpline
 70
8
 71
3
 72
8
 73
4
 74
0
 40
0
 40
0
 40
0
 40
0
 40
1
 40
1
 40
1
 40
1
 10
1772.673567
 20
3421.131609
 30
0.0
 10
1771.585442
 20
3422.404890
 30
0.0
 10
1770.121555
 20
3423.446872
 30
0.0
 10
1769.420621
 20
3423.446872
 30
0.0
  0
SPLINE
  5
280
100
AcDbEntity
  8
Cut
 62
7
100
AcDbSpline
 70
8
 71
3
 72
8
 73
4
 74
0
 40
0
 40
0
 40
0
 40
0
 40
1
 40
1
 40
1
 40
1
 10
1769.420621
 20
3423.446872
 30
0.0
 10
1768.719263
 20
3423.446872
 30
0.0
 10
1766.382252
 20
3424.548491
 30
0.0
 10
1764.226850
 20
3425.894585
 30
0.0
  0
SPLINE
  5
281
100
AcDbEntity
  8
Cut
 62
7
100
AcDbSpline
 70
8
 71
3
 72
8
 73
4
 74
0
 40
0
 40
0
 40
0
 40
0
 40
1
 40
1
 40
1
 40
1
 10
1764.226850
 20
3425.894585
 30
0.0
 10
1760.760332
 20
3428.059618
 30
0.0
 10
1758.836123
 20
3428.319280
 30
0.0
 10
1747.542225
 20
3428.146295
 30
0.0
  0
SPLINE
  5
282
100
AcDbEntity
  8
Cut
 62
7
100
AcDbSpline
 70
8
 71
3
 72
8
 73
4
 74
0
 40
0
 40
0
 40
0
 40
0
 40
1
 40
1
 40
1
 40
1
 10
1747.542225
 20
3428.146295
 30
0.0
 10
1739.320880
 20
3428.019454
 30
0.0
 10
1733.862579
 20
3427.413029
 30
0.0
 10
1732.209303
 20
3426.439204
 30
0.0
  0
SPLINE
  5
283
100
AcDbEntity
  8
Cut
 62
7
100
AcDbSpline
 70
8
 71
3
 72
8
 73
4
 74
0
 40
0
 40
0
 40
0
 40
0
 40
1
 40
1
 40
1
 40
1
 10
1732.209303
 20
3426.439204
 30
0.0
 10
1730.797381
 20
3425.607618
 30
0.0
 10
1726.748885
 20
3424.616383
 30
0.0
 10
1723.212412
 20
3424.236548
 30
0.0
  0
SPLINE
  5
284
100
AcDbEntity
  8
Cut
 62
7
100
AcDbSpline
 70
8
 71
3
 72
8
 73
4
 74
0
 40
0
 40
0
 40
0
 40
0
 40
1
 40
1
 40
1
 40
1
 10
1723.212412
 20
3424.236548
 30
0.0
 10
1719.675779
 20
3423.856870
 30
0.0
 10
1715.019007
 20
3422.481725
 30
0.0
 10
1712.863870
 20
3421.181139
 30
0.0
  0
SPLINE
  5
285
100
AcDbEntity
  8
Cut
 62
7
100
AcDbSpline
 70
8
 71
3
 72
8
 73
4
 74
0
 40
0
 40
0
 40
0
 40
0
 40
1
 40
1
 40
1
 40
1
 10
1712.863870
 20
3421.181139
 30
0.0
 10
1710.708627
 20
3419.880659
 30
0.0
 10
1707.773339
 20
3418.816346
 30
0.0
 10
1706.341520
 20
3418.816346
 30
0.0
  0
SPLINE
  5
286
100
AcDbEntity
  8
Cut
 62
7
100
AcDbSpline
 70
8
 71
3
 72
8
 73
4
 74
0
 40
0
 40
0
 40
0
 40
0
 40
1
 40
1
 40
1
 40
1
 10
1706.341520
 20
3418.816346
 30
0.0
 10
1704.909225
 20
3418.816346
 30
0.0
 10
1701.149760
 20
3417.774629
 30
0.0
 10
1697.987248
 20
3416.501189
 30
0.0
  0
SPLINE
  5
287
100
AcDbEntity
  8
Cut
 62
7
100
AcDbSpline
 70
8
 71
3
 72
8
 73
4
 74
0
 40
0
 40
0
 40
0
 40
0
 40
1
 40
1
 40
1
 40
1
 10
1697.987248
 20
3416.501189
 30
0.0
 10
1694.824472
 20
3415.228014
 30
0.0
 10
1690.359258
 20
3414.185873
 30
0.0
 10
1688.064632
 20
3414.185873
 30
0.0
  0
SPLINE
  5
288
100
AcDbEntity
  8
Cut
 62
7
100
AcDbSpline
 70
8
 71
3
 72
8
 73
4
 74
0
 40
0
 40
0
 40
0
 40
0
 40
1
 40
1
 40
1
 40
1
 10
1688.064632
 20
3414.185873
 30
0.0
 10
1685.769742
 20
3414.185873
 30
0.0
 10
1681.944450
 20
3413.367358
 30
0.0
 10
1679.563940
 20
3412.367286
 30
0.0
  0
SPLINE
  5
289
100
AcDbEntity
  8
Cut
 62
7
100
AcDbSpline
 70
8
 71
3
 72
8
 73
4
 74
0
 40
0
 40
0
 40
0
 40
0
 40
1
 40
1
 40
1
 40
1
 10
1679.563940
 20
3412.367286
 30
0.0
 10
1673.935142
 20
3410.002811
 30
0.0
 10
1658.785100
 20
3408.964427
 30
0.0
 10
1652.482884
 20
3410.511393
 30
0.0
  0
SPLINE
  5
28a
100
AcDbEntity
  8
Cut
 62
7
100
AcDbSpline
 70
8
 71
3
 72
8
 73
4
 74
0
 40
0
 40
0
 40
0
 40
0
 40
1
 40
1
 40
1
 40
1
 10
1652.482884
 20
3410.511393
 30
0.0
 10
1639.722823
 20
3413.642843
 30
0.0
 10
1628.874536
 20
3419.872193
 30
0.0
 10
1620.387338
 20
3428.940045
 30
0.0
  0
SPLINE
  5
28b
100
AcDbEntity
  8
Cut
 62
7
100
AcDbSpline
 70
8
 71
3
 72
8
 73
4
 74
0
 40
0
 40
0
 40
0
 40
0
 40
1
 40
1
 40
1
 40
1
 10
1620.387338
 20
3428.940045
 30
0.0
 10
1618.453287
 20
3431.006441
 30
0.0
 10
1616.348897
 20
3432.699404
 30
0.0
 10
1615.710351
 20
3432.702315
 30
0.0
  0
SPLINE
  5
28c
100
AcDbEntity
  8
Cut
 62
7
100
AcDbSpline
 70
8
 71
3
 72
8
 73
4
 74
0
 40
0
 40
0
 40
0
 40
0
 40
1
 40
1
 40
1
 40
1
 10
1615.710351
 20
3432.702315
 30
0.0
 10
1615.071965
 20
3432.702315
 30
0.0
 10
1613.227078
 20
3434.009991
 30
0.0
 10
1611.610580
 20
3435.601830
 30
0.0
  0
SPLINE
  5
28d
100
AcDbEntity
  8
Cut
 62
7
100
AcDbSpline
 70
8
 71
3
 72
8
 73
4
 74
0
 40
0
 40
0
 40
0
 40
0
 40
1
 40
1
 40
1
 40
1
 10
1611.610580
 20
3435.601830
 30
0.0
 10
1609.994240
 20
3437.193511
 30
0.0
 10
1608.233120
 20
3438.495790
 30
0.0
 10
1607.697286
 20
3438.495790
 30
0.0
  0
SPLINE
  5
28e
100
AcDbEntity
  8
Cut
 62
7
100
AcDbSpline
 70
8
 71
3
 72
8
 73
4
 74
0
 40
0
 40
0
 40
0
 40
0
 40
1
 40
1
 40
1
 40
1
 10
1607.697286
 20
3438.495790
 30
0.0
 10
1606.296106
 20
3438.495790
 30
0.0
 10
1595.308860
 20
3448.658965
 30
0.0
 10
1594.197927
 20
3450.982483
 30
0.0
  0
SPLINE
  5
28f
100
AcDbEntity
  8
Cut
 62
7
100
AcDbSpline
 70
8
 71
3
 72
8
 73
4
 74
0
 40
0
 40
0
 40
0
 40
0
 40
1
 40
1
 40
1
 40
1
 10
1594.197927
 20
3450.982483
 30
0.0
 10
1593.683630
 20
3452.057697
 30
0.0
 10
1592.358702
 20
3453.794528
 30
0.0
 10
1591.253167
 20
3454.841801
 30
0.0
  0
SPLINE
  5
290
100
AcDbEntity
  8
Cut
 62
7
100
AcDbSpline
 70
8
 71
3
 72
8
 73
4
 74
0
 40
0
 40
0
 40
0
 40
0
 40
1
 40
1
 40
1
 40
1
 10
1591.253167
 20
3454.841801
 30
0.0
 10
1589.577402
 20
3456.429830
 30
0.0
 10
1588.909488
 20
3456.501691
 30
0.0
 10
1587.229755
 20
3455.275400
 30
0.0
  0
SPLINE
  5
291
100
AcDbEntity
  8
Cut
 62
7
100
AcDbSpline
 70
8
 71
3
 72
8
 73
4
 74
0
 40
0
 40
0
 40
0
 40
0
 40
1
 40
1
 40
1
 40
1
 10
1587.229755
 20
3455.275400
 30
0.0
 10
1586.122050
 20
3454.466516
 30
0.0
 10
1583.565381
 20
3453.466338
 30
0.0
 10
1581.547880
 20
3453.052848
 30
0.0
  0
SPLINE
  5
292
100
AcDbEntity
  8
Cut
 62
7
100
AcDbSpline
 70
8
 71
3
 72
8
 73
4
 74
0
 40
0
 40
0
 40
0
 40
0
 40
1
 40
1
 40
1
 40
1
 10
1581.547880
 20
3453.052848
 30
0.0
 10
1579.530803
 20
3452.639463
 30
0.0
 10
1576.667694
 20
3451.564672
 30
0.0
 10
1575.185445
 20
3450.664613
 30
0.0
  0
SPLINE
  5
293
100
AcDbEntity
  8
Cut
 62
7
100
AcDbSpline
 70
8
 71
3
 72
8
 73
4
 74
0
 40
0
 40
0
 40
0
 40
0
 40
1
 40
1
 40
1
 40
1
 10
1575.185445
 20
3450.664613
 30
0.0
 10
1573.703037
 20
3449.764341
 30
0.0
 10
1570.011624
 20
3448.713787
 30
0.0
 10
1566.982568
 20
3448.328659
 30
0.0
  0
SPLINE
  5
294
100
AcDbEntity
  8
Cut
 62
7
100
AcDbSpline
 70
8
 71
3
 72
8
 73
4
 74
0
 40
0
 40
0
 40
0
 40
0
 40
1
 40
1
 40
1
 40
1
 10
1566.982568
 20
3448.328659
 30
0.0
 10
1561.673545
 20
3447.654025
 30
0.0
 10
1553.174810
 20
3444.117974
 30
0.0
 10
1550.098394
 20
3441.303919
 30
0.0
  0
SPLINE
  5
295
100
AcDbEntity
  8
Cut
 62
7
100
AcDbSpline
 70
8
 71
3
 72
8
 73
4
 74
0
 40
0
 40
0
 40
0
 40
0
 40
1
 40
1
 40
1
 40
1
 10
1550.098394
 20
3441.303919
 30
0.0
 10
1549.282260
 20
3440.557159
 30
0.0
 10
1547.020232
 20
3439.348172
 30
0.0
 10
1545.071734
 20
3438.616705
 30
0.0
  0
SPLINE
  5
296
100
AcDbEntity
  8
Cut
 62
7
100
AcDbSpline
 70
8
 71
3
 72
8
 73
4
 74
0
 40
0
 40
0
 40
0
 40
0
 40
1
 40
1
 40
1
 40
1
 10
1545.071734
 20
3438.616705
 30
0.0
 10
1543.122866
 20
3437.885449
 30
0.0
 10
1539.801287
 20
3436.256992
 30
0.0
 10
1537.690494
 20
3434.997681
 30
0.0
  0
SPLINE
  5
297
100
AcDbEntity
  8
Cut
 62
7
100
AcDbSpline
 70
8
 71
3
 72
8
 73
4
 74
0
 40
0
 40
0
 40
0
 40
0
 40
1
 40
1
 40
1
 40
1
 10
1537.690494
 20
3434.997681
 30
0.0
 10
1535.579595
 20
3433.738476
 30
0.0
 10
1533.333336
 20
3432.707765
 30
0.0
 10
1532.699077
 20
3432.707765
 30
0.0
  0
SPLINE
  5
298
100
AcDbEntity
  8
Cut
 62
7
100
AcDbSpline
 70
8
 71
3
 72
8
 73
4
 74
0
 40
0
 40
0
 40
0
 40
0
 40
1
 40
1
 40
1
 40
1
 10
1532.699077
 20
3432.707765
 30
0.0
 10
1532.064553
 20
3432.707765
 30
0.0
 10
1531.030244
 20
3431.981060
 30
0.0
 10
1530.399953
 20
3431.092378
 30
0.0
  0
SPLINE
  5
299
100
AcDbEntity
  8
Cut
 62
7
100
AcDbSpline
 70
8
 71
3
 72
8
 73
4
 74
0
 40
0
 40
0
 40
0
 40
0
 40
1
 40
1
 40
1
 40
1
 10
1530.399953
 20
3431.092378
 30
0.0
 10
1529.770086
 20
3430.203960
 30
0.0
 10
1527.756819
 20
3429.148537
 30
0.0
 10
1525.926643
 20
3428.746370
 30
0.0
  0
SPLINE
  5
29a
100
AcDbEntity
  8
Cut
 62
7
100
AcDbSpline
 70
8
 71
3
 72
8
 73
4
 74
0
 40
0
 40
0
 40
0
 40
0
 40
1
 40
1
 40
1
 40
1
 10
1525.926643
 20
3428.746370
 30
0.0
 10
1524.096467
 20
3428.344998
 30
0.0
 10
1522.078331
 20
3427.282166
 30
0.0
 10
1521.442008
 20
3426.384594
 30
0.0
  0
SPLINE
  5
29b
100
AcDbEntity
  8
Cut
 62
7
100
AcDbSpline
 70
8
 71
3
 72
8
 73
4
 74
0
 40
0
 40
0
 40
0
 40
0
 40
1
 40
1
 40
1
 40
1
 10
1521.442008
 20
3426.384594
 30
0.0
 10
1520.805738
 20
3425.487392
 30
0.0
 10
1519.011070
 20
3424.426095
 30
0.0
 10
1517.453997
 20
3424.025569
 30
0.0
  0
SPLINE
  5
29c
100
AcDbEntity
  8
Cut
 62
7
100
AcDbSpline
 70
8
 71
3
 72
8
 73
4
 74
0
 40
0
 40
0
 40
0
 40
0
 40
1
 40
1
 40
1
 40
1
 10
1517.453997
 20
3424.025569
 30
0.0
 10
1515.897347
 20
3423.625625
 30
0.0
 10
1514.128978
 20
3422.601423
 30
0.0
 10
1513.525040
 20
3421.749835
 30
0.0
  0
SPLINE
  5
29d
100
AcDbEntity
  8
Cut
 62
7
100
AcDbSpline
 70
8
 71
3
 72
8
 73
4
 74
0
 40
0
 40
0
 40
0
 40
0
 40
1
 40
1
 40
1
 40
1
 10
1513.525040
 20
3421.749835
 30
0.0
 10
1512.921049
 20
3420.898088
 30
0.0
 10
1511.256185
 20
3419.857376
 30
0.0
 10
1509.825371
 20
3419.437218
 30
0.0
  0
SPLINE
  5
29e
100
AcDbEntity
  8
Cut
 62
7
100
AcDbSpline
 70
8
 71
3
 72
8
 73
4
 74
0
 40
0
 40
0
 40
0
 40
0
 40
1
 40
1
 40
1
 40
1
 10
1509.825371
 20
3419.437218
 30
0.0
 10
1508.394240
 20
3419.016848
 30
0.0
 10
1506.126814
 20
3417.663504
 30
0.0
 10
1504.786382
 20
3416.429752
 30
0.0
  0
SPLINE
  5
29f
100
AcDbEntity
  8
Cut
 62
7
100
AcDbSpline
 70
8
 71
3
 72
8
 73
4
 74
0
 40
0
 40
0
 40
0
 40
0
 40
1
 40
1
 40
1
 40
1
 10
1504.786382
 20
3416.429752
 30
0.0
 10
1503.445526
 20
3415.195682
 30
0.0
 10
1501.630379
 20
3414.182645
 30
0.0
 10
1500.751380
 20
3414.178253
 30
0.0
  0
SPLINE
  5
2a0
100
AcDbEntity
  8
Cut
 62
7
100
AcDbSpline
 70
8
 71
3
 72
8
 73
4
 74
0
 40
0
 40
0
 40
0
 40
0
 40
1
 40
1
 40
1
 40
1
 10
1500.751380
 20
3414.178253
 30
0.0
 10
1499.872487
 20
3414.178253
 30
0.0
 10
1497.817892
 20
3413.135689
 30
0.0
 10
1496.185677
 20
3411.870663
 30
0.0
  0
SPLINE
  5
2a1
100
AcDbEntity
  8
Cut
 62
7
100
AcDbSpline
 70
8
 71
3
 72
8
 73
4
 74
0
 40
0
 40
0
 40
0
 40
0
 40
1
 40
1
 40
1
 40
1
 10
1496.185677
 20
3411.870663
 30
0.0
 10
1494.553515
 20
3410.605638
 30
0.0
 10
1492.321067
 20
3409.567360
 30
0.0
 10
1491.224951
 20
3409.563073
 30
0.0
  0
SPLINE
  5
2a2
100
AcDbEntity
  8
Cut
 62
7
100
AcDbSpline
 70
8
 71
3
 72
8
 73
4
 74
0
 40
0
 40
0
 40
0
 40
0
 40
1
 40
1
 40
1
 40
1
 10
1491.224951
 20
3409.563073
 30
0.0
 10
1490.128941
 20
3409.563073
 30
0.0
 10
1487.609367
 20
3408.537707
 30
0.0
 10
1485.626527
 20
3407.294060
 30
0.0
  0
SPLINE
  5
2a3
100
AcDbEntity
  8
Cut
 62
7
100
AcDbSpline
 70
8
 71
3
 72
8
 73
4
 74
0
 40
0
 40
0
 40
0
 40
0
 40
1
 40
1
 40
1
 40
1
 10
1485.626527
 20
3407.294060
 30
0.0
 10
1483.643422
 20
3406.049989
 30
0.0
 10
1479.643451
 20
3404.692465
 30
0.0
 10
1476.737850
 20
3404.277069
 30
0.0
  0
SPLINE
  5
2a4
100
AcDbEntity
  8
Cut
 62
7
100
AcDbSpline
 70
8
 71
3
 72
8
 73
4
 74
0
 40
0
 40
0
 40
0
 40
0
 40
1
 40
1
 40
1
 40
1
 10
1476.737850
 20
3404.277069
 30
0.0
 10
1473.832195
 20
3403.861303
 30
0.0
 10
1469.452071
 20
3402.696342
 30
0.0
 10
1467.003829
 20
3401.688227
 30
0.0
  0
SPLINE
  5
2a5
100
AcDbEntity
  8
Cut
 62
7
100
AcDbSpline
 70
8
 71
3
 72
8
 73
4
 74
0
 40
0
 40
0
 40
0
 40
0
 40
1
 40
1
 40
1
 40
1
 10
1467.003829
 20
3401.688227
 30
0.0
 10
1460.645097
 20
3399.069804
 30
0.0
 10
1436.270781
 20
3399.096898
 30
0.0
 10
1431.391547
 20
3401.728443
 30
0.0
  0
SPLINE
  5
2a6
100
AcDbEntity
  8
Cut
 62
7
100
AcDbSpline
 70
8
 71
3
 72
8
 73
4
 74
0
 40
0
 40
0
 40
0
 40
0
 40
1
 40
1
 40
1
 40
1
 10
1431.391547
 20
3401.728443
 30
0.0
 10
1429.487182
 20
3402.755185
 30
0.0
 10
1426.371396
 20
3403.946922
 30
0.0
 10
1424.467137
 20
3404.376923
 30
0.0
  0
SPLINE
  5
2a7
100
AcDbEntity
  8
Cut
 62
7
100
AcDbSpline
 70
8
 71
3
 72
8
 73
4
 74
0
 40
0
 40
0
 40
0
 40
0
 40
1
 40
1
 40
1
 40
1
 10
1424.467137
 20
3404.376923
 30
0.0
 10
1420.755879
 20
3405.214488
 30
0.0
 10
1408.905086
 20
3411.590205
 30
0.0
 10
1408.050111
 20
3413.208820
 30
0.0
  0
SPLINE
  5
2a8
100
AcDbEntity
  8
Cut
 62
7
100
AcDbSpline
 70
8
 71
3
 72
8
 73
4
 74
0
 40
0
 40
0
 40
0
 40
0
 40
1
 40
1
 40
1
 40
1
 10
1408.050111
 20
3413.208820
 30
0.0
 10
1407.765578
 20
3413.746612
 30
0.0
 10
1406.659197
 20
3414.186403
 30
0.0
 10
1405.590703
 20
3414.186403
 30
0.0
  0
SPLINE
  5
2a9
100
AcDbEntity
  8
Cut
 62
7
100
AcDbSpline
 70
8
 71
3
 72
8
 73
4
 74
0
 40
0
 40
0
 40
0
 40
0
 40
1
 40
1
 40
1
 40
1
 10
1405.590703
 20
3414.186403
 30
0.0
 10
1404.521840
 20
3414.186403
 30
0.0
 10
1401.765992
 20
3416.270208
 30
0.0
 10
1399.466287
 20
3418.816558
 30
0.0
  0
SPLINE
  5
2aa
100
AcDbEntity
  8
Cut
 62
7
100
AcDbSpline
 70
8
 71
3
 72
8
 73
4
 74
0
 40
0
 40
0
 40
0
 40
0
 40
1
 40
1
 40
1
 40
1
 10
1399.466287
 20
3418.816558
 30
0.0
 10
1397.166793
 20
3421.363014
 30
0.0
 10
1392.725497
 20
3426.128424
 30
0.0
 10
1389.597064
 20
3429.405500
 30
0.0
  0
SPLINE
  5
2ab
100
AcDbEntity
  8
Cut
 62
7
100
AcDbSpline
 70
8
 71
3
 72
8
 73
4
 74
0
 40
0
 40
0
 40
0
 40
0
 40
1
 40
1
 40
1
 40
1
 10
1389.597064
 20
3429.405500
 30
0.0
 10
1386.468631
 20
3432.682947
 30
0.0
 10
1383.909105
 20
3435.863821
 30
0.0
 10
1383.909105
 20
3436.474215
 30
0.0
  0
SPLINE
  5
2ac
100
AcDbEntity
  8
Cut
 62
7
100
AcDbSpline
 70
8
 71
3
 72
8
 73
4
 74
0
 40
0
 40
0
 40
0
 40
0
 40
1
 40
1
 40
1
 40
1
 10
1383.909105
 20
3436.474215
 30
0.0
 10
1383.909105
 20
3437.083868
 30
0.0
 10
1382.796055
 20
3439.131213
 30
0.0
 10
1381.435832
 20
3441.022825
 30
0.0
  0
SPLINE
  5
2ad
100
AcDbEntity
  8
Cut
 62
7
100
AcDbSpline
 70
8
 71
3
 72
8
 73
4
 74
0
 40
0
 40
0
 40
0
 40
0
 40
1
 40
1
 40
1
 40
1
 10
1381.435832
 20
3441.022825
 30
0.0
 10
1380.075715
 20
3442.914490
 30
0.0
 10
1378.962984
 20
3445.148103
 30
0.0
 10
1378.962984
 20
3445.985933
 30
0.0
  0
SPLINE
  5
2ae
100
AcDbEntity
  8
Cut
 62
7
100
AcDbSpline
 70
8
 71
3
 72
8
 73
4
 74
0
 40
0
 40
0
 40
0
 40
0
 40
1
 40
1
 40
1
 40
1
 10
1378.962984
 20
3445.985933
 30
0.0
 10
1378.962984
 20
3446.824080
 30
0.0
 10
1378.288878
 20
3447.812828
 30
0.0
 10
1377.464331
 20
3448.182821
 30
0.0
  0
SPLINE
  5
2af
100
AcDbEntity
  8
Cut
 62
7
100
AcDbSpline
 70
8
 71
3
 72
8
 73
4
 74
0
 40
0
 40
0
 40
0
 40
0
 40
1
 40
1
 40
1
 40
1
 10
1377.464331
 20
3448.182821
 30
0.0
 10
1376.639995
 20
3448.552655
 30
0.0
 10
1375.534936
 20
3450.181060
 30
0.0
 10
1375.008892
 20
3451.800892
 30
0.0
  0
SPLINE
  5
2b0
100
AcDbEntity
  8
Cut
 62
7
100
AcDbSpline
 70
8
 71
3
 72
8
 73
4
 74
0
 40
0
 40
0
 40
0
 40
0
 40
1
 40
1
 40
1
 40
1
 10
1375.008892
 20
3451.800892
 30
0.0
 10
1373.912987
 20
3455.173800
 30
0.0
 10
1369.994350
 20
3461.689430
 30
0.0
 10
1362.025629
 20
3473.388670
 30
0.0
  0
SPLINE
  5
2b1
100
AcDbEntity
  8
Cut
 62
7
100
AcDbSpline
 70
8
 71
3
 72
8
 73
4
 74
0
 40
0
 40
0
 40
0
 40
0
 40
1
 40
1
 40
1
 40
1
 10
1362.025629
 20
3473.388670
 30
0.0
 10
1358.966675
 20
3477.879548
 30
0.0
 10
1355.864118
 20
3483.717262
 30
0.0
 10
1355.130957
 20
3486.360979
 30
0.0
  0
SPLINE
  5
2b2
100
AcDbEntity
  8
Cut
 62
7
100
AcDbSpline
 70
8
 71
3
 72
8
 73
4
 74
0
 40
0
 40
0
 40
0
 40
0
 40
1
 40
1
 40
1
 40
1
 10
1355.130957
 20
3486.360979
 30
0.0
 10
1354.397797
 20
3489.005013
 30
0.0
 10
1353.245325
 20
3491.835896
 30
0.0
 10
1352.570161
 20
3492.652347
 30
0.0
  0
SPLINE
  5
2b3
100
AcDbEntity
  8
Cut
 62
7
100
AcDbSpline
 70
8
 71
3
 72
8
 73
4
 74
0
 40
0
 40
0
 40
0
 40
0
 40
1
 40
1
 40
1
 40
1
 10
1352.570161
 20
3492.652347
 30
0.0
 10
1351.895103
 20
3493.468640
 30
0.0
 10
1351.060872
 20
3496.073251
 30
0.0
 10
1350.716808
 20
3498.440372
 30
0.0
  0
SPLINE
  5
2b4
100
AcDbEntity
  8
Cut
 62
7
100
AcDbSpline
 70
8
 71
3
 72
8
 73
4
 74
0
 40
0
 40
0
 40
0
 40
0
 40
1
 40
1
 40
1
 40
1
 10
1350.716808
 20
3498.440372
 30
0.0
 10
1350.373008
 20
3500.807652
 30
0.0
 10
1349.242338
 20
3505.498397
 30
0.0
 10
1348.205012
 20
3508.865167
 30
0.0
  0
SPLINE
  5
2b5
100
AcDbEntity
  8
Cut
 62
7
100
AcDbSpline
 70
8
 71
3
 72
8
 73
4
 74
0
 40
0
 40
0
 40
0
 40
0
 40
1
 40
1
 40
1
 40
1
 10
1348.205012
 20
3508.865167
 30
0.0
 10
1347.167528
 20
3512.231620
 30
0.0
 10
1346.318480
 20
3516.008335
 30
0.0
 10
1346.318480
 20
3517.257909
 30
0.0
  0
SPLINE
  5
2b6
100
AcDbEntity
  8
Cut
 62
7
100
AcDbSpline
 70
8
 71
3
 72
8
 73
4
 74
0
 40
0
 40
0
 40
0
 40
0
 40
1
 40
1
 40
1
 40
1
 10
1346.318480
 20
3517.257909
 30
0.0
 10
1346.318480
 20
3519.937398
 30
0.0
 10
1345.089544
 20
3520.130173
 30
0.0
 10
1342.079644
 20
3517.922913
 30
0.0
  0
SPLINE
  5
2b7
100
AcDbEntity
  8
Cut
 62
7
100
AcDbSpline
 70
8
 71
3
 72
8
 73
4
 74
0
 40
0
 40
0
 40
0
 40
0
 40
1
 40
1
 40
1
 40
1
 10
1342.079644
 20
3517.922913
 30
0.0
 10
1340.874731
 20
3517.039628
 30
0.0
 10
1338.154497
 20
3515.959758
 30
0.0
 10
1336.034602
 20
3515.523883
 30
0.0
  0
SPLINE
  5
2b8
100
AcDbEntity
  8
Cut
 62
7
100
AcDbSpline
 70
8
 71
3
 72
8
 73
4
 74
0
 40
0
 40
0
 40
0
 40
0
 40
1
 40
1
 40
1
 40
1
 10
1336.034602
 20
3515.523883
 30
0.0
 10
1333.914655
 20
3515.087426
 30
0.0
 10
1331.243845
 20
3514.013588
 30
0.0
 10
1330.099363
 20
3513.137130
 30
0.0
  0
SPLINE
  5
2b9
100
AcDbEntity
  8
Cut
 62
7
100
AcDbSpline
 70
8
 71
3
 72
8
 73
4
 74
0
 40
0
 40
0
 40
0
 40
0
 40
1
 40
1
 40
1
 40
1
 10
1330.099363
 20
3513.137130
 30
0.0
 10
1328.954723
 20
3512.260459
 30
0.0
 10
1326.153420
 20
3511.194929
 30
0.0
 10
1323.874935
 20
3510.769691
 30
0.0
  0
SPLINE
  5
2ba
100
AcDbEntity
  8
Cut
 62
7
100
AcDbSpline
 70
8
 71
3
 72
8
 73
4
 74
0
 40
0
 40
0
 40
0
 40
0
 40
1
 40
1
 40
1
 40
1
 10
1323.874935
 20
3510.769691
 30
0.0
 10
1321.596131
 20
3510.343712
 30
0.0
 10
1319.512802
 20
3509.327818
 30
0.0
 10
1319.245150
 20
3508.511208
 30
0.0
  0
SPLINE
  5
2bb
100
AcDbEntity
  8
Cut
 62
7
100
AcDbSpline
 70
8
 71
3
 72
8
 73
4
 74
0
 40
0
 40
0
 40
0
 40
0
 40
1
 40
1
 40
1
 40
1
 10
1319.245150
 20
3508.511208
 30
0.0
 10
1318.976068
 20
3507.694598
 30
0.0
 10
1316.972326
 20
3506.673465
 30
0.0
 10
1314.789196
 20
3506.241823
 30
0.0
  0
SPLINE
  5
2bc
100
AcDbEntity
  8
Cut
 62
7
100
AcDbSpline
 70
8
 71
3
 72
8
 73
4
 74
0
 40
0
 40
0
 40
0
 40
0
 40
1
 40
1
 40
1
 40
1
 10
1314.789196
 20
3506.241823
 30
0.0
 10
1312.606489
 20
3505.810447
 30
0.0
 10
1310.313081
 20
3504.742271
 30
0.0
 10
1309.693585
 20
3503.868088
 30
0.0
  0
SPLINE
  5
2bd
100
AcDbEntity
  8
Cut
 62
7
100
AcDbSpline
 70
8
 71
3
 72
8
 73
4
 74
0
 40
0
 40
0
 40
0
 40
0
 40
1
 40
1
 40
1
 40
1
 10
1309.693585
 20
3503.868088
 30
0.0
 10
1309.073667
 20
3502.994222
 30
0.0
 10
1306.488370
 20
3501.918690
 30
0.0
 10
1303.948582
 20
3501.478265
 30
0.0
  0
SPLINE
  5
2be
100
AcDbEntity
  8
Cut
 62
7
100
AcDbSpline
 70
8
 71
3
 72
8
 73
4
 74
0
 40
0
 40
0
 40
0
 40
0
 40
1
 40
1
 40
1
 40
1
 10
1303.948582
 20
3501.478265
 30
0.0
 10
1301.408740
 20
3501.038210
 30
0.0
 10
1297.779239
 20
3499.710055
 30
0.0
 10
1295.882917
 20
3498.527420
 30
0.0
  0
SPLINE
  5
2bf
100
AcDbEntity
  8
Cut
 62
7
100
AcDbSpline
 70
8
 71
3
 72
8
 73
4
 74
0
 40
0
 40
0
 40
0
 40
0
 40
1
 40
1
 40
1
 40
1
 10
1295.882917
 20
3498.527420
 30
0.0
 10
1293.986913
 20
3497.345103
 30
0.0
 10
1291.881359
 20
3496.377363
 30
0.0
 10
1291.203708
 20
3496.377363
 30
0.0
  0
SPLINE
  5
2c0
100
AcDbEntity
  8
Cut
 62
7
100
AcDbSpline
 70
8
 71
3
 72
8
 73
4
 74
0
 40
0
 40
0
 40
0
 40
0
 40
1
 40
1
 40
1
 40
1
 10
1291.203708
 20
3496.377363
 30
0.0
 10
1289.848142
 20
3496.377363
 30
0.0
 10
1278.023648
 20
3491.171157
 30
0.0
 10
1274.105434
 20
3488.849173
 30
0.0
  0
SPLINE
  5
2c1
100
AcDbEntity
  8
Cut
 62
7
100
AcDbSpline
 70
8
 71
3
 72
8
 73
4
 74
0
 40
0
 40
0
 40
0
 40
0
 40
1
 40
1
 40
1
 40
1
 10
1274.105434
 20
3488.849173
 30
0.0
 10
1272.745052
 20
3488.043147
 30
0.0
 10
1270.229076
 20
3487.033020
 30
0.0
 10
1268.513994
 20
3486.604078
 30
0.0
  0
SPLINE
  5
2c2
100
AcDbEntity
  8
Cut
 62
7
100
AcDbSpline
 70
8
 71
3
 72
8
 73
4
 74
0
 40
0
 40
0
 40
0
 40
0
 40
1
 40
1
 40
1
 40
1
 10
1268.513994
 20
3486.604078
 30
0.0
 10
1266.798859
 20
3486.175400
 30
0.0
 10
1263.699847
 20
3484.813008
 30
0.0
 10
1261.627366
 20
3483.576451
 30
0.0
  0
SPLINE
  5
2c3
100
AcDbEntity
  8
Cut
 62
7
100
AcDbSpline
 70
8
 71
3
 72
8
 73
4
 74
0
 40
0
 40
0
 40
0
 40
0
 40
1
 40
1
 40
1
 40
1
 10
1261.627366
 20
3483.576451
 30
0.0
 10
1259.554991
 20
3482.339841
 30
0.0
 10
1257.174587
 20
3481.311141
 30
0.0
 10
1256.337816
 20
3481.290610
 30
0.0
  0
SPLINE
  5
2c4
100
AcDbEntity
  8
Cut
 62
7
100
AcDbSpline
 70
8
 71
3
 72
8
 73
4
 74
0
 40
0
 40
0
 40
0
 40
0
 40
1
 40
1
 40
1
 40
1
 10
1256.337816
 20
3481.290610
 30
0.0
 10
1255.500463
 20
3481.255155
 30
0.0
 10
1252.367108
 20
3480.244818
 30
0.0
 10
1249.374777
 20
3479.012970
 30
0.0
  0
SPLINE
  5
2c5
100
AcDbEntity
  8
Cut
 62
7
100
AcDbSpline
 70
8
 71
3
 72
8
 73
4
 74
0
 40
0
 40
0
 40
0
 40
0
 40
1
 40
1
 40
1
 40
1
 10
1249.374777
 20
3479.012970
 30
0.0
 10
1246.382339
 20
3477.781176
 30
0.0
 10
1242.692354
 20
3476.756339
 30
0.0
 10
1241.174281
 20
3476.735596
 30
0.0
  0
SPLINE
  5
2c6
100
AcDbEntity
  8
Cut
 62
7
100
AcDbSpline
 70
8
 71
3
 72
8
 73
4
 74
0
 40
0
 40
0
 40
0
 40
0
 40
1
 40
1
 40
1
 40
1
 10
1241.174281
 20
3476.735596
 30
0.0
 10
1239.656737
 20
3476.699083
 30
0.0
 10
1236.669485
 20
3475.655937
 30
0.0
 10
1234.536308
 20
3474.382445
 30
0.0
  0
SPLINE
  5
2c7
100
AcDbEntity
  8
Cut
 62
7
100
AcDbSpline
 70
8
 71
3
 72
8
 73
4
 74
0
 40
0
 40
0
 40
0
 40
0
 40
1
 40
1
 40
1
 40
1
 10
1234.536308
 20
3474.382445
 30
0.0
 10
1232.403608
 20
3473.109164
 30
0.0
 10
1229.818364
 20
3472.067340
 30
0.0
 10
1228.791834
 20
3472.067340
 30
0.0
  0
SPLINE
  5
2c8
100
AcDbEntity
  8
Cut
 62
7
100
AcDbSpline
 70
8
 71
3
 72
8
 73
4
 74
0
 40
0
 40
0
 40
0
 40
0
 40
1
 40
1
 40
1
 40
1
 10
1228.791834
 20
3472.067340
 30
0.0
 10
1227.765568
 20
3472.067340
 30
0.0
 10
1225.911580
 20
3471.038535
 30
0.0
 10
1224.672377
 20
3469.780653
 30
0.0
  0
SPLINE
  5
2c9
100
AcDbEntity
  8
Cut
 62
7
100
AcDbSpline
 70
8
 71
3
 72
8
 73
4
 74
0
 40
0
 40
0
 40
0
 40
0
 40
1
 40
1
 40
1
 40
1
 10
1224.672377
 20
3469.780653
 30
0.0
 10
1223.433386
 20
3468.523247
 30
0.0
 10
1218.802225
 20
3465.872915
 30
0.0
 10
1214.381567
 20
3463.891821
 30
0.0
  0
SPLINE
  5
2ca
100
AcDbEntity
  8
Cut
 62
7
100
AcDbSpline
 70
8
 71
3
 72
8
 73
4
 74
0
 40
0
 40
0
 40
0
 40
0
 40
1
 40
1
 40
1
 40
1
 10
1214.381567
 20
3463.891821
 30
0.0
 10
1209.960750
 20
3461.909986
 30
0.0
 10
1205.920721
 20
3459.813587
 30
0.0
 10
1205.403672
 20
3459.232773
 30
0.0
  0
SPLINE
  5
2cb
100
AcDbEntity
  8
Cut
 62
7
100
AcDbSpline
 70
8
 71
3
 72
8
 73
4
 74
0
 40
0
 40
0
 40
0
 40
0
 40
1
 40
1
 40
1
 40
1
 10
1205.403672
 20
3459.232773
 30
0.0
 10
1204.887047
 20
3458.651643
 30
0.0
 10
1203.728066
 20
3458.175763
 30
0.0
 10
1202.828007
 20
3458.175763
 30
0.0
  0
SPLINE
  5
2cc
100
AcDbEntity
  8
Cut
 62
7
100
AcDbSpline
 70
8
 71
3
 72
8
 73
4
 74
0
 40
0
 40
0
 40
0
 40
0
 40
1
 40
1
 40
1
 40
1
 10
1202.828007
 20
3458.175763
 30
0.0
 10
1201.928212
 20
3458.175763
 30
0.0
 10
1199.991144
 20
3456.873378
 30
0.0
 10
1198.523659
 20
3455.281645
 30
0.0
  0
SPLINE
  5
2cd
100
AcDbEntity
  8
Cut
 62
7
100
AcDbSpline
 70
8
 71
3
 72
8
 73
4
 74
0
 40
0
 40
0
 40
0
 40
0
 40
1
 40
1
 40
1
 40
1
 10
1198.523659
 20
3455.281645
 30
0.0
 10
1197.055910
 20
3453.690229
 30
0.0
 10
1195.350458
 20
3452.387950
 30
0.0
 10
1194.734614
 20
3452.387950
 30
0.0
  0
SPLINE
  5
2ce
100
AcDbEntity
  8
Cut
 62
7
100
AcDbSpline
 70
8
 71
3
 72
8
 73
4
 74
0
 40
0
 40
0
 40
0
 40
0
 40
1
 40
1
 40
1
 40
1
 10
1194.734614
 20
3452.387950
 30
0.0
 10
1194.117923
 20
3452.387950
 30
0.0
 10
1191.691535
 20
3451.298766
 30
0.0
 10
1189.342300
 20
3449.968018
 30
0.0
  0
SPLINE
  5
2cf
100
AcDbEntity
  8
Cut
 62
7
100
AcDbSpline
 70
8
 71
3
 72
8
 73
4
 74
0
 40
0
 40
0
 40
0
 40
0
 40
1
 40
1
 40
1
 40
1
 10
1189.342300
 20
3449.968018
 30
0.0
 10
1185.351642
 20
3447.707523
 30
0.0
 10
1183.784833
 20
3447.579148
 30
0.0
 10
1165.535991
 20
3448.013435
 30
0.0
  0
SPLINE
  5
2d0
100
AcDbEntity
  8
Cut
 62
7
100
AcDbSpline
 70
8
 71
3
 72
8
 73
4
 74
0
 40
0
 40
0
 40
0
 40
0
 40
1
 40
1
 40
1
 40
1
 10
1165.535991
 20
3448.013435
 30
0.0
 10
1144.185704
 20
3448.521699
 30
0.0
 10
1147.262543
 20
3447.734934
 30
0.0
 10
1132.151977
 20
3456.562440
 30
0.0
  0
SPLINE
  5
2d1
100
AcDbEntity
  8
Cut
 62
7
100
AcDbSpline
 70
8
 71
3
 72
8
 73
4
 74
0
 40
0
 40
0
 40
0
 40
0
 40
1
 40
1
 40
1
 40
1
 10
1132.151977
 20
3456.562440
 30
0.0
 10
1130.519604
 20
3457.515945
 30
0.0
 10
1128.516391
 20
3458.794041
 30
0.0
 10
1127.700416
 20
3459.402318
 30
0.0
  0
SPLINE
  5
2d2
100
AcDbEntity
  8
Cut
 62
7
100
AcDbSpline
 70
8
 71
3
 72
8
 73
4
 74
0
 40
0
 40
0
 40
0
 40
0
 40
1
 40
1
 40
1
 40
1
 10
1127.700416
 20
3459.402318
 30
0.0
 10
1126.884176
 20
3460.010384
 30
0.0
 10
1125.103689
 20
3461.149680
 30
0.0
 10
1123.743519
 20
3461.933164
 30
0.0
  0
SPLINE
  5
2d3
100
AcDbEntity
  8
Cut
 62
7
100
AcDbSpline
 70
8
 71
3
 72
8
 73
4
 74
0
 40
0
 40
0
 40
0
 40
0
 40
1
 40
1
 40
1
 40
1
 10
1123.743519
 20
3461.933164
 30
0.0
 10
1122.383349
 20
3462.716913
 30
0.0
 10
1119.489919
 20
3464.826700
 30
0.0
 10
1117.313668
 20
3466.621580
 30
0.0
  0
SPLINE
  5
2d4
100
AcDbEntity
  8
Cut
 62
7
100
AcDbSpline
 70
8
 71
3
 72
8
 73
4
 74
0
 40
0
 40
0
 40
0
 40
0
 40
1
 40
1
 40
1
 40
1
 10
1117.313668
 20
3466.621580
 30
0.0
 10
1115.137100
 20
3468.416090
 30
0.0
 10
1111.910030
 20
3470.947571
 30
0.0
 10
1110.141555
 20
3472.247945
 30
0.0
  0
SPLINE
  5
2d5
100
AcDbEntity
  8
Cut
 62
7
100
AcDbSpline
 70
8
 71
3
 72
8
 73
4
 74
0
 40
0
 40
0
 40
0
 40
0
 40
1
 40
1
 40
1
 40
1
 10
1110.141555
 20
3472.247945
 30
0.0
 10
1108.373450
 20
3473.548055
 30
0.0
 10
1106.926708
 20
3475.080733
 30
0.0
 10
1106.926708
 20
3475.654720
 30
0.0
  0
SPLINE
  5
2d6
100
AcDbEntity
  8
Cut
 62
7
100
AcDbSpline
 70
8
 71
3
 72
8
 73
4
 74
0
 40
0
 40
0
 40
0
 40
0
 40
1
 40
1
 40
1
 40
1
 10
1106.926708
 20
3475.654720
 30
0.0
 10
1106.926708
 20
3476.228443
 30
0.0
 10
1106.217678
 20
3476.697602
 30
0.0
 10
1105.350374
 20
3476.697602
 30
0.0
  0
SPLINE
  5
2d7
100
AcDbEntity
  8
Cut
 62
7
100
AcDbSpline
 70
8
 71
3
 72
8
 73
4
 74
0
 40
0
 40
0
 40
0
 40
0
 40
1
 40
1
 40
1
 40
1
 10
1105.350374
 20
3476.697602
 30
0.0
 10
1104.483387
 20
3476.697602
 30
0.0
 10
1103.541100
 20
3477.739637
 30
0.0
 10
1103.256302
 20
3479.012970
 30
0.0
  0
SPLINE
  5
2d8
100
AcDbEntity
  8
Cut
 62
7
100
AcDbSpline
 70
8
 71
3
 72
8
 73
4
 74
0
 40
0
 40
0
 40
0
 40
0
 40
1
 40
1
 40
1
 40
1
 10
1103.256302
 20
3479.012970
 30
0.0
 10
1102.971981
 20
3480.286357
 30
0.0
 10
1102.307348
 20
3481.328075
 30
0.0
 10
1101.779663
 20
3481.328075
 30
0.0
  0
SPLINE
  5
2d9
100
AcDbEntity
  8
Cut
 62
7
100
AcDbSpline
 70
8
 71
3
 72
8
 73
4
 74
0
 40
0
 40
0
 40
0
 40
0
 40
1
 40
1
 40
1
 40
1
 10
1101.779663
 20
3481.328075
 30
0.0
 10
1100.806631
 20
3481.328075
 30
0.0
 10
1092.718636
 20
3487.648812
 30
0.0
 10
1090.299710
 20
3490.299884
 30
0.0
  0
SPLINE
  5
2da
100
AcDbEntity
  8
Cut
 62
7
100
AcDbSpline
 70
8
 71
3
 72
8
 73
4
 74
0
 40
0
 40
0
 40
0
 40
0
 40
1
 40
1
 40
1
 40
1
 10
1090.299710
 20
3490.299884
 30
0.0
 10
1089.573746
 20
3491.095645
 30
0.0
 10
1088.595952
 20
3491.746943
 30
0.0
 10
1088.127904
 20
3491.746943
 30
0.0
  0
SPLINE
  5
2db
100
AcDbEntity
  8
Cut
 62
7
100
AcDbSpline
 70
8
 71
3
 72
8
 73
4
 74
0
 40
0
 40
0
 40
0
 40
0
 40
1
 40
1
 40
1
 40
1
 10
1088.127904
 20
3491.746943
 30
0.0
 10
1087.659168
 20
3491.746943
 30
0.0
 10
1086.993317
 20
3492.788713
 30
0.0
 10
1086.647666
 20
3494.062100
 30
0.0
  0
SPLINE
  5
2dc
100
AcDbEntity
  8
Cut
 62
7
100
AcDbSpline
 70
8
 71
3
 72
8
 73
4
 74
0
 40
0
 40
0
 40
0
 40
0
 40
1
 40
1
 40
1
 40
1
 10
1086.647666
 20
3494.062100
 30
0.0
 10
1086.302226
 20
3495.335487
 30
0.0
 10
1085.433281
 20
3496.377363
 30
0.0
 10
1084.716578
 20
3496.377363
 30
0.0
  0
SPLINE
  5
2dd
100
AcDbEntity
  8
Cut
 62
7
100
AcDbSpline
 70
8
 71
3
 72
8
 73
4
 74
0
 40
0
 40
0
 40
0
 40
0
 40
1
 40
1
 40
1
 40
1
 10
1084.716578
 20
3496.377363
 30
0.0
 10
1083.999557
 20
3496.377363
 30
0.0
 10
1082.751676
 20
3497.549308
 30
0.0
 10
1081.943533
 20
3498.981974
 30
0.0
  0
SPLINE
  5
2de
100
AcDbEntity
  8
Cut
 62
7
100
AcDbSpline
 70
8
 71
3
 72
8
 73
4
 74
0
 40
0
 40
0
 40
0
 40
0
 40
1
 40
1
 40
1
 40
1
 10
1081.943533
 20
3498.981974
 30
0.0
 10
1081.135337
 20
3500.414375
 30
0.0
 10
1079.253038
 20
3503.007133
 30
0.0
 10
1077.760788
 20
3504.743700
 30
0.0
  0
SPLINE
  5
2df
100
AcDbEntity
  8
Cut
 62
7
100
AcDbSpline
 70
8
 71
3
 72
8
 73
4
 74
0
 40
0
 40
0
 40
0
 40
0
 40
1
 40
1
 40
1
 40
1
 10
1077.760788
 20
3504.743700
 30
0.0
 10
1074.716069
 20
3508.285941
 30
0.0
 10
1072.660627
 20
3512.162934
 30
0.0
 10
1068.221183
 20
3522.737483
 30
0.0
  0
LWPOLYLINE
  5
2e0
100
AcDbEntity
  8
Cut
 62
7
100
AcDbPolyline
 90
3
 70
0
 10
2815.757058
 20
4199.132075
 30
0.0
 10
2816.110012
 20
4193.846599
 30
0.0
 10
2823.583168
 20
4193.509890
 30
0.0
  0
SPLINE
  5
2e1
100
AcDbEntity
  8
Cut
 62
7
100
AcDbSpline
 70
8
 71
3
 72
8
 73
4
 74
0
 40
0
 40
0
 40
0
 40
0
 40
1
 40
1
 40
1
 40
1
 10
893.399439
 20
3529.681473
 30
0.0
 10
752.685450
 20
3529.424721
 30
0.0
 10
721.207282
 20
3529.089547
 30
0.0
 10
719.316940
 20
3527.828966
 30
0.0
  0
SPLINE
  5
2e2
100
AcDbEntity
  8
Cut
 62
7
100
AcDbSpline
 70
8
 71
3
 72
8
 73
4
 74
0
 40
0
 40
0
 40
0
 40
0
 40
1
 40
1
 40
1
 40
1
 10
719.316940
 20
3527.828966
 30
0.0
 10
717.740500
 20
3526.777247
 30
0.0
 10
710.012973
 20
3525.957727
 30
0.0
 10
694.938338
 20
3525.241976
 30
0.0
  0
SPLINE
  5
2e3
100
AcDbEntity
  8
Cut
 62
7
100
AcDbSpline
 70
8
 71
3
 72
8
 73
4
 74
0
 40
0
 40
0
 40
0
 40
0
 40
1
 40
1
 40
1
 40
1
 10
694.938338
 20
3525.241976
 30
0.0
 10
682.799466
 20
3524.666190
 30
0.0
 10
671.596426
 20
3523.622885
 30
0.0
 10
670.042422
 20
3522.923644
 30
0.0
  0
SPLINE
  5
2e4
100
AcDbEntity
  8
Cut
 62
7
100
AcDbSpline
 70
8
 71
3
 72
8
 73
4
 74
0
 40
0
 40
0
 40
0
 40
0
 40
1
 40
1
 40
1
 40
1
 10
670.042422
 20
3522.923644
 30
0.0
 10
668.488789
 20
3522.225091
 30
0.0
 10
654.533658
 20
3521.133632
 30
0.0
 10
639.030821
 20
3520.498632
 30
0.0
  0
SPLINE
  5
2e5
100
AcDbEntity
  8
Cut
 62
7
100
AcDbSpline
 70
8
 71
3
 72
8
 73
4
 74
0
 40
0
 40
0
 40
0
 40
0
 40
1
 40
1
 40
1
 40
1
 10
639.030821
 20
3520.498632
 30
0.0
 10
623.528619
 20
3519.863367
 30
0.0
 10
610.396660
 20
3518.936320
 30
0.0
 10
609.848814
 20
3518.438004
 30
0.0
  0
SPLINE
  5
2e6
100
AcDbEntity
  8
Cut
 62
7
100
AcDbSpline
 70
8
 71
3
 72
8
 73
4
 74
0
 40
0
 40
0
 40
0
 40
0
 40
1
 40
1
 40
1
 40
1
 10
609.848814
 20
3518.438004
 30
0.0
 10
607.806442
 20
3516.580364
 30
0.0
 10
602.963880
 20
3515.986957
 30
0.0
 10
589.478067
 20
3515.943565
 30
0.0
  0
SPLINE
  5
2e7
100
AcDbEntity
  8
Cut
 62
7
100
AcDbSpline
 70
8
 71
3
 72
8
 73
4
 74
0
 40
0
 40
0
 40
0
 40
0
 40
1
 40
1
 40
1
 40
1
 10
589.478067
 20
3515.943565
 30
0.0
 10
581.857220
 20
3515.909698
 30
0.0
 10
573.305781
 20
3515.418103
 30
0.0
 10
570.474634
 20
3514.830304
 30
0.0
  0
SPLINE
  5
2e8
100
AcDbEntity
  8
Cut
 62
7
100
AcDbSpline
 70
8
 71
3
 72
8
 73
4
 74
0
 40
0
 40
0
 40
0
 40
0
 40
1
 40
1
 40
1
 40
1
 10
570.474634
 20
3514.830304
 30
0.0
 10
563.545672
 20
3513.392135
 30
0.0
 10
549.712727
 20
3511.742723
 30
0.0
 10
537.423254
 20
3510.890129
 30
0.0
  0
SPLINE
  5
2e9
100
AcDbEntity
  8
Cut
 62
7
100
AcDbSpline
 70
8
 71
3
 72
8
 73
4
 74
0
 40
0
 40
0
 40
0
 40
0
 40
1
 40
1
 40
1
 40
1
 10
537.423254
 20
3510.890129
 30
0.0
 10
531.869227
 20
3510.504843
 30
0.0
 10
525.859777
 20
3509.497151
 30
0.0
 10
524.068633
 20
3508.650378
 30
0.0
  0
SPLINE
  5
2ea
100
AcDbEntity
  8
Cut
 62
7
100
AcDbSpline
 70
8
 71
3
 72
8
 73
4
 74
0
 40
0
 40
0
 40
0
 40
0
 40
1
 40
1
 40
1
 40
1
 10
524.068633
 20
3508.650378
 30
0.0
 10
522.277964
 20
3507.803712
 30
0.0
 10
517.696328
 20
3507.033351
 30
0.0
 10
513.887757
 20
3506.938101
 30
0.0
  0
SPLINE
  5
2eb
100
AcDbEntity
  8
Cut
 62
7
100
AcDbSpline
 70
8
 71
3
 72
8
 73
4
 74
0
 40
0
 40
0
 40
0
 40
0
 40
1
 40
1
 40
1
 40
1
 10
513.887757
 20
3506.938101
 30
0.0
 10
504.084177
 20
3506.691933
 30
0.0
 10
494.385515
 20
3505.522315
 30
0.0
 10
492.464524
 20
3504.353069
 30
0.0
  0
SPLINE
  5
2ec
100
AcDbEntity
  8
Cut
 62
7
100
AcDbSpline
 70
8
 71
3
 72
8
 73
4
 74
0
 40
0
 40
0
 40
0
 40
0
 40
1
 40
1
 40
1
 40
1
 10
492.464524
 20
3504.353069
 30
0.0
 10
491.563507
 20
3503.804799
 30
0.0
 10
486.444274
 20
3502.804092
 30
0.0
 10
481.088584
 20
3502.129458
 30
0.0
  0
SPLINE
  5
2ed
100
AcDbEntity
  8
Cut
 62
7
100
AcDbSpline
 70
8
 71
3
 72
8
 73
4
 74
0
 40
0
 40
0
 40
0
 40
0
 40
1
 40
1
 40
1
 40
1
 10
481.088584
 20
3502.129458
 30
0.0
 10
475.733078
 20
3501.455088
 30
0.0
 10
469.327569
 20
3500.138362
 30
0.0
 10
466.854207
 20
3499.203589
 30
0.0
  0
SPLINE
  5
2ee
100
AcDbEntity
  8
Cut
 62
7
100
AcDbSpline
 70
8
 71
3
 72
8
 73
4
 74
0
 40
0
 40
0
 40
0
 40
0
 40
1
 40
1
 40
1
 40
1
 10
466.854207
 20
3499.203589
 30
0.0
 10
464.380823
 20
3498.268975
 30
0.0
 10
481.059368
 20
4392.946595
 30
0.0
 10
476.499984
 20
4392.648870
 30
0.0
  0
SPLINE
  5
2ef
100
AcDbEntity
  8
VectorFill
 62
7
100
AcDbSpline
 70
8
 71
3
 72
8
 73
4
 74
0
 40
0
 40
0
 40
0
 40
0
 40
1
 40
1
 40
1
 40
1
 10
1440.431460
 20
4195.687782
 30
0.0
 10
1440.431460
 20
4195.687782
 30
0.0
 10
1471.714259
 20
4158.717182
 30
0.0
 10
1424.790034
 20
4168.670807
 30
0.0
  0
LWPOLYLINE
  5
2f0
100
AcDbEntity
  8
Cut
 62
7
100
AcDbPolyline
 90
3
 70
0
 10
1068.221183
 20
3522.737483
 30
0.0
 10
1065.173659
 20
3529.996274
 30
0.0
 10
893.399439
 20
3529.681473
 30
0.0
  0
SPLINE
  5
2f1
100
AcDbEntity
  8
VectorFill
 62
7
100
AcDbSpline
 70
8
 71
3
 72
8
 73
4
 74
0
 40
0
 40
0
 40
0
 40
0
 40
1
 40
1
 40
1
 40
1
 10
2763.883273
 20
4161.529015
 30
0.0
 10
2763.883273
 20
4161.529015
 30
0.0
 10
2744.865711
 20
4210.129375
 30
0.0
 10
2701.547969
 20
4227.033869
 30
0.0
  0
SPLINE
  5
2f2
100
AcDbEntity
  8
VectorFill
 62
7
100
AcDbSpline
 70
8
 71
3
 72
8
 73
4
 74
0
 40
0
 40
0
 40
0
 40
0
 40
1
 40
1
 40
1
 40
1
 10
2701.547969
 20
4227.033869
 30
0.0
 10
2658.230227
 20
4243.938363
 30
0.0
 10
2556.803317
 20
4327.404244
 30
0.0
 10
2480.733122
 20
4277.747350
 30
0.0
  0
SPLINE
  5
2f3
100
AcDbEntity
  8
VectorFill
 62
7
100
AcDbSpline
 70
8
 71
3
 72
8
 73
4
 74
0
 40
0
 40
0
 40
0
 40
0
 40
1
 40
1
 40
1
 40
1
 10
2480.733122
 20
4277.747350
 30
0.0
 10
2404.662979
 20
4228.090403
 30
0.0
 10
2287.388110
 20
4227.033869
 30
0.0
 10
2287.388110
 20
4227.033869
 30
0.0
  0
SPLINE
  5
2f4
100
AcDbEntity
  8
VectorFill
 62
7
100
AcDbSpline
 70
8
 71
3
 72
8
 73
4
 74
0
 40
0
 40
0
 40
0
 40
0
 40
1
 40
1
 40
1
 40
1
 10
2287.388110
 20
4227.033869
 30
0.0
 10
2287.388110
 20
4227.033869
 30
0.0
 10
2192.300352
 20
4239.712226
 30
0.0
 10
2103.551853
 20
4191.111866
 30
0.0
  0
SPLINE
  5
2f5
100
AcDbEntity
  8
VectorFill
 62
7
100
AcDbSpline
 70
8
 71
3
 72
8
 73
4
 74
0
 40
0
 40
0
 40
0
 40
0
 40
1
 40
1
 40
1
 40
1
 10
2103.551853
 20
4191.111866
 30
0.0
 10
2014.803300
 20
4142.511453
 30
0.0
 10
1894.358829
 20
4131.946164
 30
0.0
 10
1894.358829
 20
4131.946164
 30
0.0
  0
LWPOLYLINE
  5
2f6
100
AcDbEntity
  8
VectorFill
 62
7
100
AcDbPolyline
 90
2
 70
0
 10
2770.053674
 20
4126.400339
 30
0.0
 10
2763.883273
 20
4161.529015
 30
0.0
  0
SPLINE
  5
2f7
100
AcDbEntity
  8
VectorFill
 62
7
100
AcDbSpline
 70
8
 71
3
 72
8
 73
4
 74
0
 40
0
 40
0
 40
0
 40
0
 40
1
 40
1
 40
1
 40
1
 10
1728.483600
 20
4140.398385
 30
0.0
 10
1728.483600
 20
4140.398385
 30
0.0
 10
1669.317898
 20
4155.189810
 30
0.0
 10
1632.339308
 20
4127.720028
 30
0.0
  0
SPLINE
  5
2f8
100
AcDbEntity
  8
VectorFill
 62
7
100
AcDbSpline
 70
8
 71
3
 72
8
 73
4
 74
0
 40
0
 40
0
 40
0
 40
0
 40
1
 40
1
 40
1
 40
1
 10
1632.339308
 20
4127.720028
 30
0.0
 10
1595.360718
 20
4100.250245
 30
0.0
 10
1561.551730
 20
4061.158640
 30
0.0
 10
1561.551730
 20
4061.158640
 30
0.0
  0
SPLINE
  5
2f9
100
AcDbEntity
  8
VectorFill
 62
7
100
AcDbSpline
 70
8
 71
3
 72
8
 73
4
 74
0
 40
0
 40
0
 40
0
 40
0
 40
1
 40
1
 40
1
 40
1
 10
1561.551730
 20
4061.158640
 30
0.0
 10
1561.551730
 20
4061.158640
 30
0.0
 10
1509.781768
 20
4014.671295
 30
0.0
 10
1435.824641
 20
4041.084543
 30
0.0
  0
SPLINE
  5
2fa
100
AcDbEntity
  8
VectorFill
 62
7
100
AcDbSpline
 70
8
 71
3
 72
8
 73
4
 74
0
 40
0
 40
0
 40
0
 40
0
 40
1
 40
1
 40
1
 40
1
 10
1435.824641
 20
4041.084543
 30
0.0
 10
1361.867514
 20
4067.497792
 30
0.0
 10
1386.167747
 20
4097.080643
 30
0.0
 10
1386.167747
 20
4097.080643
 30
0.0
  0
LWPOLYLINE
  5
2fb
100
AcDbEntity
  8
VectorFill
 62
7
100
AcDbPolyline
 90
5
 70
0
 10
1894.358829
 20
4131.946164
 30
0.0
 10
1798.214590
 20
4126.663493
 30
0.0
 10
1780.253562
 20
4120.324341
 30
0.0
 10
1764.405602
 20
4121.380875
 30
0.0
 10
1728.483600
 20
4140.398385
 30
0.0
  0
SPLINE
  5
2fc
100
AcDbEntity
  8
VectorFill
 62
7
100
AcDbSpline
 70
8
 71
3
 72
8
 73
4
 74
0
 40
0
 40
0
 40
0
 40
0
 40
1
 40
1
 40
1
 40
1
 10
1584.795429
 20
4337.969586
 30
0.0
 10
1584.795429
 20
4337.969586
 30
0.0
 10
1601.699923
 20
4347.478340
 30
0.0
 10
1615.434814
 20
4342.195670
 30
0.0
  0
SPLINE
  5
2fd
100
AcDbEntity
  8
VectorFill
 62
7
100
AcDbSpline
 70
8
 71
3
 72
8
 73
4
 74
0
 40
0
 40
0
 40
0
 40
0
 40
1
 40
1
 40
1
 40
1
 10
1615.434814
 20
4342.195670
 30
0.0
 10
1629.169758
 20
4336.913052
 30
0.0
 10
1727.427065
 20
4325.291176
 30
0.0
 10
1727.427065
 20
4325.291176
 30
0.0
  0
LWPOLYLINE
  5
2fe
100
AcDbEntity
  8
VectorFill
 62
7
100
AcDbPolyline
 90
5
 70
0
 10
1386.167747
 20
4097.080643
 30
0.0
 10
1425.259352
 20
4171.037770
 30
0.0
 10
1466.464026
 20
4242.881828
 30
0.0
 10
1524.573193
 20
4295.708325
 30
0.0
 10
1584.795429
 20
4337.969586
 30
0.0
  0
LWPOLYLINE
  5
2ff
100
AcDbEntity
  8
VectorFill
 62
7
100
AcDbPolyline
 90
4
 70
0
 10
1727.427065
 20
4325.291176
 30
0.0
 10
1802.440727
 20
4303.104064
 30
0.0
 10
1971.485558
 20
4243.938363
 30
0.0
 10
2103.551853
 20
4191.111866
 30
0.0
  0
SPLINE
  5
300
100
AcDbEntity
  8
VectorFill
 62
7
100
AcDbSpline
 70
8
 71
3
 72
8
 73
4
 74
0
 40
0
 40
0
 40
0
 40
0
 40
1
 40
1
 40
1
 40
1
 10
3476.811320
 20
4145.796784
 30
0.0
 10
3476.811320
 20
4145.796784
 30
0.0
 10
3571.368958
 20
3743.320714
 30
0.0
 10
3564.095298
 20
3477.831976
 30
0.0
  0
LWPOLYLINE
  5
301
100
AcDbEntity
  8
VectorFill
 62
7
100
AcDbPolyline
 90
10
 70
0
 10
2600.334842
 20
4122.763535
 30
0.0
 10
2667.010107
 20
4117.914410
 30
0.0
 10
2734.897640
 20
4117.914410
 30
0.0
 10
2770.053674
 20
4126.400339
 30
0.0
 10
2822.181617
 20
4127.612607
 30
0.0
 10
2882.795437
 20
4128.824928
 30
0.0
 10
2953.107558
 20
4137.310856
 30
0.0
 10
3204.048922
 20
4138.523124
 30
0.0
 10
3343.460843
 20
4144.584516
 30
0.0
 10
3476.811320
 20
4145.796784
 30
0.0
  0
LWPOLYLINE
  5
302
100
AcDbEntity
  8
VectorFill
 62
7
100
AcDbPolyline
 90
5
 70
0
 10
3564.095298
 20
3477.831976
 30
0.0
 10
3524.090139
 20
3475.407440
 30
0.0
 10
3331.338058
 20
3503.289814
 30
0.0
 10
3199.199850
 20
3523.898528
 30
0.0
 10
3151.921031
 20
3539.658169
 30
0.0
  0
SPLINE
  5
303
100
AcDbEntity
  8
VectorFill
 62
7
100
AcDbSpline
 70
8
 71
3
 72
8
 73
4
 74
0
 40
0
 40
0
 40
0
 40
0
 40
1
 40
1
 40
1
 40
1
 10
3024.631894
 20
3511.775743
 30
0.0
 10
3024.631894
 20
3511.775743
 30
0.0
 10
3033.117822
 20
3505.714403
 30
0.0
 10
3053.726536
 20
3510.563475
 30
0.0
  0
SPLINE
  5
304
100
AcDbEntity
  8
VectorFill
 62
7
100
AcDbSpline
 70
8
 71
3
 72
8
 73
4
 74
0
 40
0
 40
0
 40
0
 40
0
 40
1
 40
1
 40
1
 40
1
 10
3053.726536
 20
3510.563475
 30
0.0
 10
3074.335249
 20
3515.412599
 30
0.0
 10
3151.921031
 20
3539.658169
 30
0.0
 10
3151.921031
 20
3539.658169
 30
0.0
  0
LWPOLYLINE
  5
305
100
AcDbEntity
  8
VectorFill
 62
7
100
AcDbPolyline
 90
5
 70
0
 10
2771.265942
 20
3614.819362
 30
0.0
 10
2900.979614
 20
3573.601883
 30
0.0
 10
2954.319826
 20
3551.780901
 30
0.0
 10
3002.810913
 20
3529.959920
 30
0.0
 10
3024.631894
 20
3511.775743
 30
0.0
  0
SPLINE
  5
306
100
AcDbEntity
  8
VectorFill
 62
7
100
AcDbSpline
 70
8
 71
3
 72
8
 73
4
 74
0
 40
0
 40
0
 40
0
 40
0
 40
1
 40
1
 40
1
 40
1
 10
2551.843755
 20
4039.116414
 30
0.0
 10
2551.843755
 20
4039.116414
 30
0.0
 10
2537.296435
 20
4050.026878
 30
0.0
 10
2549.419220
 20
4062.149663
 30
0.0
  0
SPLINE
  5
307
100
AcDbEntity
  8
VectorFill
 62
7
100
AcDbSpline
 70
8
 71
3
 72
8
 73
4
 74
0
 40
0
 40
0
 40
0
 40
0
 40
1
 40
1
 40
1
 40
1
 10
2549.419220
 20
4062.149663
 30
0.0
 10
2561.541952
 20
4074.272448
 30
0.0
 10
2600.334842
 20
4122.763535
 30
0.0
 10
2600.334842
 20
4122.763535
 30
0.0
  0
LWPOLYLINE
  5
308
100
AcDbEntity
  8
VectorFill
 62
7
100
AcDbPolyline
 90
10
 70
0
 10
3151.921031
 20
3539.658169
 30
0.0
 10
3109.491336
 20
3597.847453
 30
0.0
 10
3040.391483
 20
3670.584110
 30
0.0
 10
2953.107558
 20
3737.259321
 30
0.0
 10
2829.455278
 20
3797.873193
 30
0.0
 10
2780.964191
 20
3822.118763
 30
0.0
 10
2750.657228
 20
3830.604692
 30
0.0
 10
2642.764537
 20
3919.100938
 30
0.0
 10
2607.608503
 20
3956.681508
 30
0.0
 10
2551.843755
 20
4039.116414
 30
0.0
  0
LWPOLYLINE
  5
309
100
AcDbEntity
  8
VectorFill
 62
7
100
AcDbPolyline
 90
2
 70
0
 10
2600.334842
 20
4122.763535
 30
0.0
 10
2532.447310
 20
4125.188071
 30
0.0
  0
SPLINE
  5
30a
100
AcDbEntity
  8
VectorFill
 62
7
100
AcDbSpline
 70
8
 71
3
 72
8
 73
4
 74
0
 40
0
 40
0
 40
0
 40
0
 40
1
 40
1
 40
1
 40
1
 10
2233.014806
 20
3488.742493
 30
0.0
 10
2233.014806
 20
3488.742493
 30
0.0
 10
2247.562180
 20
3479.044297
 30
0.0
 10
2265.746305
 20
3489.954761
 30
0.0
  0
SPLINE
  5
30b
100
AcDbEntity
  8
VectorFill
 62
7
100
AcDbSpline
 70
8
 71
3
 72
8
 73
4
 74
0
 40
0
 40
0
 40
0
 40
0
 40
1
 40
1
 40
1
 40
1
 10
2265.746305
 20
3489.954761
 30
0.0
 10
2283.930482
 20
3500.865278
 30
0.0
 10
2305.751463
 20
3514.200331
 30
0.0
 10
2305.751463
 20
3514.200331
 30
0.0
  0
SPLINE
  5
30c
100
AcDbEntity
  8
VectorFill
 62
7
100
AcDbSpline
 70
8
 71
3
 72
8
 73
4
 74
0
 40
0
 40
0
 40
0
 40
0
 40
1
 40
1
 40
1
 40
1
 10
2305.751463
 20
3514.200331
 30
0.0
 10
2305.751463
 20
3514.200331
 30
0.0
 10
2327.572445
 20
3521.473992
 30
0.0
 10
2343.332086
 20
3512.988063
 30
0.0
  0
SPLINE
  5
30d
100
AcDbEntity
  8
VectorFill
 62
7
100
AcDbSpline
 70
8
 71
3
 72
8
 73
4
 74
0
 40
0
 40
0
 40
0
 40
0
 40
1
 40
1
 40
1
 40
1
 10
2343.332086
 20
3512.988063
 30
0.0
 10
2359.091675
 20
3504.502082
 30
0.0
 10
2377.275852
 20
3500.865278
 30
0.0
 10
2377.275852
 20
3500.865278
 30
0.0
  0
SPLINE
  5
30e
100
AcDbEntity
  8
VectorFill
 62
7
100
AcDbSpline
 70
8
 71
3
 72
8
 73
4
 74
0
 40
0
 40
0
 40
0
 40
0
 40
1
 40
1
 40
1
 40
1
 10
2377.275852
 20
3500.865278
 30
0.0
 10
2377.275852
 20
3500.865278
 30
0.0
 10
2407.582762
 20
3492.379350
 30
0.0
 10
2420.917815
 20
3500.865278
 30
0.0
  0
SPLINE
  5
30f
100
AcDbEntity
  8
VectorFill
 62
7
100
AcDbSpline
 70
8
 71
3
 72
8
 73
4
 74
0
 40
0
 40
0
 40
0
 40
0
 40
1
 40
1
 40
1
 40
1
 10
2420.917815
 20
3500.865278
 30
0.0
 10
2434.252868
 20
3509.351207
 30
0.0
 10
2490.017615
 20
3557.842294
 30
0.0
 10
2490.017615
 20
3557.842294
 30
0.0
  0
SPLINE
  5
310
100
AcDbEntity
  8
VectorFill
 62
7
100
AcDbSpline
 70
8
 71
3
 72
8
 73
4
 74
0
 40
0
 40
0
 40
0
 40
0
 40
1
 40
1
 40
1
 40
1
 10
2490.017615
 20
3557.842294
 30
0.0
 10
2490.017615
 20
3557.842294
 30
0.0
 10
2494.866740
 20
3562.691418
 30
0.0
 10
2516.687721
 20
3557.842294
 30
0.0
  0
SPLINE
  5
311
100
AcDbEntity
  8
VectorFill
 62
7
100
AcDbSpline
 70
8
 71
3
 72
8
 73
4
 74
0
 40
0
 40
0
 40
0
 40
0
 40
1
 40
1
 40
1
 40
1
 10
2516.687721
 20
3557.842294
 30
0.0
 10
2538.508702
 20
3552.993169
 30
0.0
 10
2663.373250
 20
3539.658169
 30
0.0
 10
2663.373250
 20
3539.658169
 30
0.0
  0
LWPOLYLINE
  5
312
100
AcDbEntity
  8
VectorFill
 62
7
100
AcDbPolyline
 90
4
 70
0
 10
1951.195245
 20
3585.662596
 30
0.0
 10
2057.234635
 20
3516.624867
 30
0.0
 10
2169.976398
 20
3512.988063
 30
0.0
 10
2233.014806
 20
3488.742493
 30
0.0
  0
LWPOLYLINE
  5
313
100
AcDbEntity
  8
VectorFill
 62
7
100
AcDbPolyline
 90
5
 70
0
 10
2663.373250
 20
3539.658169
 30
0.0
 10
2710.652070
 20
3544.507241
 30
0.0
 10
2726.411711
 20
3551.780901
 30
0.0
 10
2771.265942
 20
3614.819362
 30
0.0
 10
2670.646911
 20
3668.159521
 30
0.0
  0
SPLINE
  5
314
100
AcDbEntity
  8
VectorFill
 62
7
100
AcDbSpline
 70
8
 71
3
 72
8
 73
4
 74
0
 40
0
 40
0
 40
0
 40
0
 40
1
 40
1
 40
1
 40
1
 10
1914.972569
 20
3606.591244
 30
0.0
 10
1914.972569
 20
3606.591244
 30
0.0
 10
1898.873573
 20
3617.055568
 30
0.0
 10
1906.118129
 20
3633.154564
 30
0.0
  0
SPLINE
  5
315
100
AcDbEntity
  8
VectorFill
 62
7
100
AcDbSpline
 70
8
 71
3
 72
8
 73
4
 74
0
 40
0
 40
0
 40
0
 40
0
 40
1
 40
1
 40
1
 40
1
 10
1906.118129
 20
3633.154564
 30
0.0
 10
1913.362685
 20
3649.253507
 30
0.0
 10
1915.777485
 20
3662.132683
 30
0.0
 10
1915.777485
 20
3662.132683
 30
0.0
  0
LWPOLYLINE
  5
316
100
AcDbEntity
  8
VectorFill
 62
7
100
AcDbPolyline
 90
6
 70
0
 10
1775.716487
 20
3539.780513
 30
0.0
 10
1824.013370
 20
3530.926073
 30
0.0
 10
1880.359777
 20
3539.780513
 30
0.0
 10
1918.997305
 20
3555.074540
 30
0.0
 10
1951.195245
 20
3585.662596
 30
0.0
 10
1914.972569
 20
3606.591244
 30
0.0
  0
SPLINE
  5
317
100
AcDbEntity
  8
VectorFill
 62
7
100
AcDbSpline
 70
8
 71
3
 72
8
 73
4
 74
0
 40
0
 40
0
 40
0
 40
0
 40
1
 40
1
 40
1
 40
1
 10
1880.359777
 20
3749.067146
 30
0.0
 10
1880.359777
 20
3749.067146
 30
0.0
 10
1878.749894
 20
3766.776026
 30
0.0
 10
1863.455866
 20
3762.751238
 30
0.0
  0
SPLINE
  5
318
100
AcDbEntity
  8
VectorFill
 62
7
100
AcDbSpline
 70
8
 71
3
 72
8
 73
4
 74
0
 40
0
 40
0
 40
0
 40
0
 40
1
 40
1
 40
1
 40
1
 10
1863.455866
 20
3762.751238
 30
0.0
 10
1848.161838
 20
3758.726502
 30
0.0
 10
1823.208455
 20
3737.797854
 30
0.0
 10
1823.208455
 20
3737.797854
 30
0.0
  0
SPLINE
  5
319
100
AcDbEntity
  8
VectorFill
 62
7
100
AcDbSpline
 70
8
 71
3
 72
8
 73
4
 74
0
 40
0
 40
0
 40
0
 40
0
 40
1
 40
1
 40
1
 40
1
 10
1655.129617
 20
3746.053913
 30
0.0
 10
1655.129617
 20
3746.053913
 30
0.0
 10
1713.735460
 20
3821.512497
 30
0.0
 10
1735.469023
 20
3825.537233
 30
0.0
  0
SPLINE
  5
31a
100
AcDbEntity
  8
VectorFill
 62
7
100
AcDbSpline
 70
8
 71
3
 72
8
 73
4
 74
0
 40
0
 40
0
 40
0
 40
0
 40
1
 40
1
 40
1
 40
1
 10
1735.469023
 20
3825.537233
 30
0.0
 10
1757.202639
 20
3829.561969
 30
0.0
 10
1771.691751
 20
3820.707529
 30
0.0
 10
1771.691751
 20
3820.707529
 30
0.0
  0
SPLINE
  5
31b
100
AcDbEntity
  8
VectorFill
 62
7
100
AcDbSpline
 70
8
 71
3
 72
8
 73
4
 74
0
 40
0
 40
0
 40
0
 40
0
 40
1
 40
1
 40
1
 40
1
 10
1771.691751
 20
3820.707529
 30
0.0
 10
1771.691751
 20
3820.707529
 30
0.0
 10
1849.771722
 20
3838.416409
 30
0.0
 10
1827.233190
 20
3766.776026
 30
0.0
  0
SPLINE
  5
31c
100
AcDbEntity
  8
VectorFill
 62
7
100
AcDbSpline
 70
8
 71
3
 72
8
 73
4
 74
0
 40
0
 40
0
 40
0
 40
0
 40
1
 40
1
 40
1
 40
1
 10
1827.233190
 20
3766.776026
 30
0.0
 10
1804.694606
 20
3695.135591
 30
0.0
 10
1786.180811
 20
3650.058475
 30
0.0
 10
1786.180811
 20
3650.058475
 30
0.0
  0
LWPOLYLINE
  5
31d
100
AcDbEntity
  8
VectorFill
 62
7
100
AcDbPolyline
 90
3
 70
0
 10
1915.777485
 20
3662.132683
 30
0.0
 10
1886.799365
 20
3715.259323
 30
0.0
 10
1880.359777
 20
3749.067146
 30
0.0
  0
SPLINE
  5
31e
100
AcDbEntity
  8
VectorFill
 62
7
100
AcDbSpline
 70
8
 71
3
 72
8
 73
4
 74
0
 40
0
 40
0
 40
0
 40
0
 40
1
 40
1
 40
1
 40
1
 10
1775.716487
 20
3539.780513
 30
0.0
 10
1775.716487
 20
3539.780513
 30
0.0
 10
1645.840466
 20
3495.690346
 30
0.0
 10
1605.872296
 20
3552.659688
 30
0.0
  0
SPLINE
  5
31f
100
AcDbEntity
  8
VectorFill
 62
7
100
AcDbSpline
 70
8
 71
3
 72
8
 73
4
 74
0
 40
0
 40
0
 40
0
 40
0
 40
1
 40
1
 40
1
 40
1
 10
1112.438826
 20
3625.910008
 30
0.0
 10
1112.438826
 20
3625.910008
 30
0.0
 10
1131.757590
 20
3572.783420
 30
0.0
 10
1166.370381
 20
3556.684424
 30
0.0
  0
SPLINE
  5
320
100
AcDbEntity
  8
VectorFill
 62
7
100
AcDbSpline
 70
8
 71
3
 72
8
 73
4
 74
0
 40
0
 40
0
 40
0
 40
0
 40
1
 40
1
 40
1
 40
1
 10
1166.370381
 20
3556.684424
 30
0.0
 10
1200.983173
 20
3540.585481
 30
0.0
 10
1332.189783
 20
3618.665451
 30
0.0
 10
1332.189783
 20
3618.665451
 30
0.0
  0
SPLINE
  5
321
100
AcDbEntity
  8
VectorFill
 62
7
100
AcDbSpline
 70
8
 71
3
 72
8
 73
4
 74
0
 40
0
 40
0
 40
0
 40
0
 40
1
 40
1
 40
1
 40
1
 10
1370.949760
 20
3620.025251
 30
0.0
 10
1370.949760
 20
3620.025251
 30
0.0
 10
1377.215517
 20
3597.264046
 30
0.0
 10
1390.817693
 20
3572.201655
 30
0.0
  0
SPLINE
  5
322
100
AcDbEntity
  8
VectorFill
 62
7
100
AcDbSpline
 70
8
 71
3
 72
8
 73
4
 74
0
 40
0
 40
0
 40
0
 40
0
 40
1
 40
1
 40
1
 40
1
 10
1390.817693
 20
3572.201655
 30
0.0
 10
1437.771498
 20
3485.687932
 30
0.0
 10
1522.266926
 20
3535.452405
 30
0.0
 10
1522.266926
 20
3535.452405
 30
0.0
  0
LWPOLYLINE
  5
323
100
AcDbEntity
  8
VectorFill
 62
7
100
AcDbPolyline
 90
2
 70
0
 10
1786.180811
 20
3650.058475
 30
0.0
 10
1775.716487
 20
3539.780513
 30
0.0
  0
SPLINE
  5
324
100
AcDbEntity
  8
VectorFill
 62
7
100
AcDbSpline
 70
8
 71
3
 72
8
 73
4
 74
0
 40
0
 40
0
 40
0
 40
0
 40
1
 40
1
 40
1
 40
1
 10
1655.129617
 20
3746.053913
 30
0.0
 10
1655.129617
 20
3746.053913
 30
0.0
 10
1619.793772
 20
3784.216619
 30
0.0
 10
1588.698245
 20
3781.389705
 30
0.0
  0
SPLINE
  5
325
100
AcDbEntity
  8
VectorFill
 62
7
100
AcDbSpline
 70
8
 71
3
 72
8
 73
4
 74
0
 40
0
 40
0
 40
0
 40
0
 40
1
 40
1
 40
1
 40
1
 10
1588.698245
 20
3781.389705
 30
0.0
 10
1557.602718
 20
3778.562843
 30
0.0
 10
1478.450497
 20
3665.488235
 30
0.0
 10
1434.634122
 20
3642.873345
 30
0.0
  0
SPLINE
  5
326
100
AcDbEntity
  8
VectorFill
 62
7
100
AcDbSpline
 70
8
 71
3
 72
8
 73
4
 74
0
 40
0
 40
0
 40
0
 40
0
 40
1
 40
1
 40
1
 40
1
 10
1434.634122
 20
3642.873345
 30
0.0
 10
1390.817693
 20
3620.258402
 30
0.0
 10
1233.926655
 20
3623.085263
 30
0.0
 10
1054.420728
 20
3628.738985
 30
0.0
  0
SPLINE
  5
327
100
AcDbEntity
  8
VectorFill
 62
7
100
AcDbSpline
 70
8
 71
3
 72
8
 73
4
 74
0
 40
0
 40
0
 40
0
 40
0
 40
1
 40
1
 40
1
 40
1
 10
1054.420728
 20
3628.738985
 30
0.0
 10
874.914800
 20
3634.392761
 30
0.0
 10
551.238737
 20
3604.710638
 30
0.0
 10
551.238737
 20
3604.710638
 30
0.0
  0
LWPOLYLINE
  5
328
100
AcDbEntity
  8
VectorFill
 62
7
100
AcDbPolyline
 90
4
 70
0
 10
1522.266926
 20
3535.452405
 30
0.0
 10
1601.419147
 20
3560.894263
 30
0.0
 10
1618.380315
 20
3635.806165
 30
0.0
 10
1655.129617
 20
3746.053913
 30
0.0
  0
LWPOLYLINE
  5
329
100
AcDbEntity
  8
VectorFill
 62
7
100
AcDbPolyline
 90
8
 70
0
 10
551.238737
 20
3604.710638
 30
0.0
 10
554.065599
 20
4283.158291
 30
0.0
 10
651.251343
 20
4273.894805
 30
0.0
 10
783.492316
 20
4246.877830
 30
0.0
 10
981.142839
 20
4197.109758
 30
0.0
 10
1096.320515
 20
4175.780532
 30
0.0
 10
1220.029786
 20
4168.670807
 30
0.0
 10
1415.702655
 20
4155.013068
 30
0.0
  0
ENDSEC
  0
SECTION
  2
OBJECTS
  0
DICTIONARY
  5
C
330
0
100
AcDbDictionary
  3
ACAD_GROUP
350
D
  3
ACAD_MLINESTYLE
350
17
  0
DICTIONARY
  5
D
330
C
100
AcDbDictionary
  0
DICTIONARY
  5
1A
330
C
100
AcDbDictionary
  0
DICTIONARY
  5
17
330
C
100
AcDbDictionary
  3
STANDARD
350
18
  0
DICTIONARY
  5
19
330
C
100
AcDbDictionary
  0
ENDSEC
  0
EOF
