<?xml version="1.0" encoding="UTF-8" standalone="no"?>
<svg
   xmlns:dc="http://purl.org/dc/elements/1.1/"
   xmlns:cc="http://creativecommons.org/ns#"
   xmlns:rdf="http://www.w3.org/1999/02/22-rdf-syntax-ns#"
   xmlns:svg="http://www.w3.org/2000/svg"
   xmlns="http://www.w3.org/2000/svg"
   xmlns:sodipodi="http://sodipodi.sourceforge.net/DTD/sodipodi-0.dtd"
   xmlns:inkscape="http://www.inkscape.org/namespaces/inkscape"
   sodipodi:docname="sheet1.svg"
   inkscape:version="1.1-dev (f9311a1, 2019-12-25)"
   id="svg8"
   version="1.1"
   viewBox="0 0 2438.4 1219.2"
   height="48in"
   width="96in">
  <defs
     id="defs2" />
  <sodipodi:namedview
     inkscape:window-maximized="1"
     inkscape:window-y="23"
     inkscape:window-x="0"
     inkscape:window-height="1005"
     inkscape:window-width="1680"
     units="in"
     showgrid="true"
     inkscape:document-rotation="0"
     inkscape:current-layer="layer1"
     inkscape:document-units="in"
     inkscape:cy="2356.0227"
     inkscape:cx="4572.5999"
     inkscape:zoom="0.12625227"
     inkscape:pageshadow="2"
     inkscape:pageopacity="0.0"
     borderopacity="1.0"
     bordercolor="#666666"
     pagecolor="#ffffff"
     id="base"
     inkscape:snap-global="true"
     inkscape:snap-smooth-nodes="false"
     inkscape:snap-grids="true">
    <inkscape:grid
       enabled="true"
       spacingy="25.4"
       spacingx="25.4"
       units="in"
       id="grid833"
       type="xygrid" />
  </sodipodi:namedview>
  <metadata
     id="metadata5">
    <rdf:RDF>
      <cc:Work
         rdf:about="">
        <dc:format>image/svg+xml</dc:format>
        <dc:type
           rdf:resource="http://purl.org/dc/dcmitype/StillImage" />
        <dc:title></dc:title>
      </cc:Work>
    </rdf:RDF>
  </metadata>
  <g
     id="layer1"
     inkscape:groupmode="layer"
     inkscape:label="Layer 1">
    <g
       aria-label="B"
       transform="rotate(-90)"
       id="text837"
       style="font-size:1066.8px;line-height:1.25;font-family:Cornerstone;-inkscape-font-specification:Cornerstone;fill:none;stroke:#000000;stroke-width:1.27;stroke-miterlimit:4;stroke-dasharray:none;stroke-opacity:1">
      <path
         d="m -95.678529,397.92893 q 31.253908,0 54.17344,22.91953 21.877736,21.87773 21.877736,54.17344 0,77.09297 0,230.23712 0,32.2957 -21.877736,54.17344 -22.919532,22.91953 -54.17344,22.91953 -77.092971,0 -231.278921,0 -51.04804,0 -153.14414,0 0,-51.04805 0,-153.14415 0,-52.08984 0,-154.18594 0,-51.04805 0,-153.14415 0,-26.04492 0,-64.59141 0,-38.54649 0,-89.59453 0,-51.04805 0,-153.144152 51.04805,0 153.14414,0 77.09298,0 231.278921,0 31.253908,0 54.17344,21.877735 21.877736,22.919532 21.877736,54.17344 0,77.092977 0,231.278917 0,31.25391 -21.877736,54.17344 -22.919532,21.87774 -54.17344,21.87774 z M -326.95745,321.87775 q 52.08985,0 154.18595,0 0,-9.37617 0,-27.08672 0,-42.71367 0,-127.09922 -51.04805,0 -154.18595,0 0,51.04804 0,154.18594 z m 0,307.33009 q 52.08985,0 154.18595,0 0,-9.37617 0,-27.08672 0,-42.71367 0,-127.09922 -51.04805,0 -154.18595,0 0,51.04805 0,154.18594 z"
         style="fill:none;stroke:#000000;stroke-width:1.27;stroke-miterlimit:4;stroke-dasharray:none;stroke-opacity:1"
         id="path6743" />
    </g>
    <g
       aria-label="A"
       transform="rotate(-90)"
       id="text837-4"
       style="font-size:1066.8px;line-height:1.25;font-family:Cornerstone;-inkscape-font-specification:Cornerstone;fill:none;stroke:#000000;stroke-width:1.27;stroke-miterlimit:4;stroke-dasharray:none;stroke-opacity:1">
      <path
         d="m -724.13794,2393.5669 q -51.04805,0 -153.14415,0 0,-102.0961 0,-307.3301 -51.04805,0 -154.18591,0 0,102.0961 0,307.3301 -51.0481,0 -153.1442,0 0,-86.4692 0,-260.4492 0,-71.884 0,-179.1891 0,-108.3469 0,-252.1149 0,-31.2539 22.9195,-54.1734 21.8778,-21.8777 54.1735,-21.8777 102.0961,0 307.33008,0 31.25391,0 54.17344,21.8777 21.87774,22.9195 21.87774,54.1734 0,231.279 0,691.7532 z m -153.14415,-460.4742 q 0,-9.3762 0,-27.0868 0,-42.7136 0,-127.0992 -51.04805,0 -154.18591,0 0,51.0481 0,154.186 52.08981,0 154.18591,0 z"
         style="fill:none;stroke:#000000;stroke-width:1.27;stroke-miterlimit:4;stroke-dasharray:none;stroke-opacity:1"
         id="path6944" />
    </g>
    <g
       aria-label="K"
       transform="rotate(-90)"
       id="text837-3"
       style="font-size:1066.8px;line-height:1.25;font-family:Cornerstone;-inkscape-font-specification:Cornerstone;fill:none;stroke:#000000;stroke-width:1.27;stroke-miterlimit:4;stroke-dasharray:none;stroke-opacity:1">
      <path
         d="m -535.41504,403.04331 q 0,128.14102 0,384.42306 -51.04805,0 -153.14415,0 0,-102.0961 0,-307.33009 -51.04805,0 -154.18594,0 0,102.0961 0,307.33009 -51.04805,0 -153.14415,0 0,-128.14102 0,-319.83166 0,-191.69063 0,-447.972672 51.04805,0 153.14415,0 0,102.096102 0,307.330092 11.45976,0 33.3375,0 41.67187,-103.1379 125.01563,-307.330092 57.29883,0 172.93829,0 -47.92266,102.096102 -143.76798,307.330092 14.58516,0 43.75547,0 31.25391,0 54.17344,21.87774 21.87774,22.91953 21.87774,54.17344 z"
         style="fill:none;stroke:#000000;stroke-width:1.27;stroke-miterlimit:4;stroke-dasharray:none;stroke-opacity:1"
         id="path6941" />
    </g>
    <g
       aria-label="L"
       transform="matrix(0,1,1,0,0,0)"
       id="text837-7"
       style="font-size:1066.8px;line-height:1.25;font-family:Cornerstone;-inkscape-font-specification:Cornerstone;fill:none;stroke:#000000;stroke-width:1.27;stroke-miterlimit:4;stroke-dasharray:none;stroke-opacity:1">
      <path
         d="m 191.88605,1985.258 q 0,-154.186 0,-614.6602 -37.50469,0 -153.144145,0 0,95.8453 0,287.5359 0,191.6907 0,480.2684 9.376173,0 38.546486,0 29.170319,0 114.597659,0 77.09298,0 307.3301,0 0,-38.5465 0,-153.1441 -102.0961,0 -307.3301,0 z"
         style="fill:none;stroke:#000000;stroke-width:1.27;stroke-miterlimit:4;stroke-dasharray:none;stroke-opacity:1"
         id="path6938" />
    </g>
    <g
       aria-label="I"
       transform="rotate(-90)"
       id="text837-1"
       style="font-size:1066.8px;line-height:1.25;font-family:Cornerstone;-inkscape-font-specification:Cornerstone;fill:none;stroke:#000000;stroke-width:1.27;stroke-miterlimit:4;stroke-dasharray:none;stroke-opacity:1">
      <path
         d="m -1182.4996,19.690541 q 38.5465,0 153.1441,0 0,143.767979 0,576.113699 0,47.92266 0,191.69063 -37.5047,0 -153.1441,0 0,-95.84531 0,-287.53595 0,-191.69063 0,-480.268379 z"
         style="fill:none;stroke:#000000;stroke-width:1.27;stroke-miterlimit:4;stroke-dasharray:none;stroke-opacity:1"
         id="path6935" />
    </g>
    <g
       transform="rotate(-90)"
       id="text837-9"
       style="font-size:1066.8px;line-height:1.25;font-family:Cornerstone;-inkscape-font-specification:Cornerstone;fill:none;stroke:#000000;stroke-width:1.27;stroke-miterlimit:4;stroke-dasharray:none;stroke-opacity:1" />
    <g
       aria-label="T"
       transform="rotate(-90)"
       id="text837-8"
       style="font-size:1066.8px;line-height:1.25;font-family:Cornerstone;-inkscape-font-specification:Cornerstone;fill:none;stroke:#000000;stroke-width:1.27;stroke-miterlimit:4;stroke-dasharray:none;stroke-opacity:1">
      <path
         d="m -61.081607,826.19896 q -114.597663,0 -460.474243,0 0,18.75235 0,57.29883 0,38.54649 0,95.84532 38.54649,0 153.14415,0 0,154.18599 0,614.66019 38.54649,0 154.18595,0 0,-153.1442 0,-614.66019 38.54648,0 153.144143,0 0,-51.04805 0,-153.14415 z"
         style="fill:none;stroke:#000000;stroke-width:1.27;stroke-miterlimit:4;stroke-dasharray:none;stroke-opacity:1"
         id="path6931" />
    </g>
    <g
       aria-label="T"
       transform="rotate(90)"
       id="text837-95"
       style="font-size:1066.8px;line-height:1.25;font-family:Cornerstone;-inkscape-font-specification:Cornerstone;fill:none;stroke:#000000;stroke-width:1.27;stroke-miterlimit:4;stroke-dasharray:none;stroke-opacity:1">
      <path
         d="m 855.17328,-1598.3173 q -114.59767,0 -460.47424,0 0,18.7524 0,57.2989 0,38.5464 0,95.8453 38.54648,0 153.14414,0 0,154.1859 0,614.66016 38.54649,0 154.18595,0 0,-153.14415 0,-614.66016 38.54648,0 153.14415,0 0,-51.0481 0,-153.1442 z"
         style="fill:none;stroke:#000000;stroke-width:1.27;stroke-miterlimit:4;stroke-dasharray:none;stroke-opacity:1"
         id="path6928" />
    </g>
    <g
       aria-label="C"
       transform="rotate(-90)"
       id="text837-76"
       style="font-size:1066.8px;line-height:1.25;font-family:Cornerstone;-inkscape-font-specification:Cornerstone;fill:none;stroke:#000000;stroke-width:1.27;stroke-miterlimit:4;stroke-dasharray:none;stroke-opacity:1">
      <path
         d="m -384.84697,1861.1166 q 0,-26.0449 0,-77.0929 -51.04805,0 -154.18595,0 0,154.1859 0,461.516 52.08985,0 154.18595,0 0,-26.0449 0,-77.093 51.04805,0 153.14415,0 0,51.0481 0,153.1442 0,32.2957 -21.87774,54.1734 -22.91953,22.9195 -54.17344,22.9195 -103.13789,0 -307.33009,0 -32.29571,0 -54.17344,-22.9195 -22.91953,-21.8777 -22.91953,-54.1734 0,-77.093 0,-231.279 0,-63.5496 0,-158.3531 0,-96.8871 0,-225.0281 0,-31.2539 22.91953,-54.1735 21.87773,-21.8777 54.17344,-21.8777 102.0961,0 307.33009,0 31.25391,0 54.17344,21.8777 21.87774,22.9196 21.87774,54.1735 0,52.0898 0,154.1859 -51.04805,0 -153.14415,0 z"
         style="fill:none;stroke:#000000;stroke-width:1.27;stroke-miterlimit:4;stroke-dasharray:none;stroke-opacity:1"
         id="path6925" />
    </g>
    <g
       aria-label="L"
       transform="matrix(0,-1,-1,0,0,0)"
       id="text837-33"
       style="font-size:1066.8px;line-height:1.25;font-family:Cornerstone;-inkscape-font-specification:Cornerstone;fill:none;stroke:#000000;stroke-width:1.27;stroke-miterlimit:4;stroke-dasharray:none;stroke-opacity:1">
      <path
         d="m -1032.2874,-976.38615 q 0,-154.18595 0,-614.66015 -37.5047,0 -153.1441,0 0,95.8453 0,287.5359 0,191.6906 0,480.2684 9.3762,0 38.5465,0 29.1703,0 114.5976,0 77.093,0 307.33012,0 0,-38.54649 0,-153.14415 -102.0961,0 -307.33012,0 z"
         style="fill:none;stroke:#000000;stroke-width:1.27;stroke-miterlimit:4;stroke-dasharray:none;stroke-opacity:1"
         id="path6922" />
    </g>
    <path
       id="path36-7-7"
       style="fill:none;stroke:#000000;stroke-width:1.27;stroke-miterlimit:4;stroke-dasharray:none"
       d="m 337.45719,160.224 a 3.0238094,3.0238094 0 0 1 -3.02381,3.02381 3.0238094,3.0238094 0 0 1 -3.02381,-3.02381 3.0238094,3.0238094 0 0 1 3.02381,-3.02381 3.0238094,3.0238094 0 0 1 3.02381,3.02381" />
    <path
       id="path36-0-2-1"
       style="fill:none;stroke:#000000;stroke-width:1.27;stroke-miterlimit:4;stroke-dasharray:none"
       d="m 158.10474,160.12628 a 3.0238094,3.0238094 0 0 1 -3.02381,3.02381 3.0238094,3.0238094 0 0 1 -3.02381,-3.02381 3.0238094,3.0238094 0 0 1 3.02381,-3.02381 3.0238094,3.0238094 0 0 1 3.02381,3.02381" />
    <path
       id="circle1563-94-9"
       style="fill:none;stroke:#000000;stroke-width:1.27;stroke-miterlimit:4;stroke-dasharray:none"
       d="m 1647.2155,304.34857 a 3.0238094,3.0238094 0 0 1 -3.0238,3.02381 3.0238094,3.0238094 0 0 1 -3.0239,-3.02381 3.0238094,3.0238094 0 0 1 3.0239,-3.02381 3.0238094,3.0238094 0 0 1 3.0238,3.02381" />
    <path
       id="circle1565-3-2"
       style="fill:none;stroke:#000000;stroke-width:1.27;stroke-miterlimit:4;stroke-dasharray:none"
       d="m 1705.616,244.12497 a 3.0238094,3.0238094 0 0 1 -3.0238,3.02381 3.0238094,3.0238094 0 0 1 -3.0238,-3.02381 3.0238094,3.0238094 0 0 1 3.0238,-3.02381 3.0238094,3.0238094 0 0 1 3.0238,3.02381" />
    <path
       id="path36-7-7-8"
       style="fill:none;stroke:#000000;stroke-width:1.27;stroke-miterlimit:4;stroke-dasharray:none"
       d="m 337.42197,339.62448 a 3.0238094,3.0238094 0 0 1 -3.02381,3.02381 3.0238094,3.0238094 0 0 1 -3.02381,-3.02381 3.0238094,3.0238094 0 0 1 3.02381,-3.02381 3.0238094,3.0238094 0 0 1 3.02381,3.02381" />
    <path
       id="path36-0-2-1-6"
       style="fill:none;stroke:#000000;stroke-width:1.27;stroke-miterlimit:4;stroke-dasharray:none"
       d="m 158.06954,339.52676 a 3.0238094,3.0238094 0 0 1 -3.02381,3.02381 3.0238094,3.0238094 0 0 1 -3.02381,-3.02381 3.0238094,3.0238094 0 0 1 3.02381,-3.02381 3.0238094,3.0238094 0 0 1 3.02381,3.02381" />
    <path
       id="path36-7-7-7"
       style="fill:none;stroke:#000000;stroke-width:1.27;stroke-miterlimit:4;stroke-dasharray:none"
       d="m 644.51587,161.57149 a 3.0238094,3.0238094 0 0 1 -3.0238,3.02381 3.0238094,3.0238094 0 0 1 -3.02381,-3.02381 3.0238094,3.0238094 0 0 1 3.02381,-3.02381 3.0238094,3.0238094 0 0 1 3.0238,3.02381" />
    <path
       id="path36-0-2-1-2"
       style="fill:none;stroke:#000000;stroke-width:1.27;stroke-miterlimit:4;stroke-dasharray:none"
       d="m 465.1634,161.47377 a 3.0238094,3.0238094 0 0 1 -3.02381,3.02381 3.0238094,3.0238094 0 0 1 -3.02381,-3.02381 3.0238094,3.0238094 0 0 1 3.02381,-3.02381 3.0238094,3.0238094 0 0 1 3.02381,3.02381" />
    <path
       id="path36-7-7-8-1"
       style="fill:none;stroke:#000000;stroke-width:1.27;stroke-miterlimit:4;stroke-dasharray:none"
       d="m 644.48066,340.97195 a 3.0238094,3.0238094 0 0 1 -3.02381,3.02381 3.0238094,3.0238094 0 0 1 -3.02381,-3.02381 3.0238094,3.0238094 0 0 1 3.02381,-3.02381 3.0238094,3.0238094 0 0 1 3.02381,3.02381" />
    <path
       id="path36-0-2-1-6-8"
       style="fill:none;stroke:#000000;stroke-width:1.27;stroke-miterlimit:4;stroke-dasharray:none"
       d="m 465.12821,340.87424 a 3.0238094,3.0238094 0 0 1 -3.02381,3.02381 3.0238094,3.0238094 0 0 1 -3.02381,-3.02381 3.0238094,3.0238094 0 0 1 3.02381,-3.02381 3.0238094,3.0238094 0 0 1 3.02381,3.02381" />
    <path
       id="path36-7-7-4"
       style="fill:none;stroke:#000000;stroke-width:1.27;stroke-miterlimit:4;stroke-dasharray:none"
       d="m 1948.7562,863.50385 a 3.0238094,3.0238094 0 0 1 -3.0238,3.0238 3.0238094,3.0238094 0 0 1 -3.0238,-3.0238 3.0238094,3.0238094 0 0 1 3.0238,-3.02381 3.0238094,3.0238094 0 0 1 3.0238,3.02381" />
    <path
       id="path36-0-2-1-63"
       style="fill:none;stroke:#000000;stroke-width:1.27;stroke-miterlimit:4;stroke-dasharray:none"
       d="m 1769.4038,863.40613 a 3.0238094,3.0238094 0 0 1 -3.0238,3.02381 3.0238094,3.0238094 0 0 1 -3.0238,-3.02381 3.0238094,3.0238094 0 0 1 3.0238,-3.02381 3.0238094,3.0238094 0 0 1 3.0238,3.02381" />
    <path
       id="path36-7-7-8-7"
       style="fill:none;stroke:#000000;stroke-width:1.27;stroke-miterlimit:4;stroke-dasharray:none"
       d="m 1948.7211,1042.9042 a 3.0238094,3.0238094 0 0 1 -3.0238,3.0238 3.0238094,3.0238094 0 0 1 -3.0238,-3.0238 3.0238094,3.0238094 0 0 1 3.0238,-3.0238 3.0238094,3.0238094 0 0 1 3.0238,3.0238" />
    <path
       id="path36-0-2-1-6-84"
       style="fill:none;stroke:#000000;stroke-width:1.27;stroke-miterlimit:4;stroke-dasharray:none"
       d="m 1769.3687,1042.8065 a 3.0238094,3.0238094 0 0 1 -3.0239,3.0238 3.0238094,3.0238094 0 0 1 -3.0238,-3.0238 3.0238094,3.0238094 0 0 1 3.0238,-3.0238 3.0238094,3.0238094 0 0 1 3.0239,3.0238" />
    <path
       id="circle1563-94-9-5"
       style="fill:none;stroke:#000000;stroke-width:1.27;stroke-miterlimit:4;stroke-dasharray:none"
       transform="scale(-1,1)"
       d="m -1699.0383,678.05933 a 3.0238094,3.0238094 0 0 1 -3.0238,3.02381 3.0238094,3.0238094 0 0 1 -3.0238,-3.02381 3.0238094,3.0238094 0 0 1 3.0238,-3.02381 3.0238094,3.0238094 0 0 1 3.0238,3.02381" />
    <path
       id="circle1565-3-2-6"
       style="fill:none;stroke:#000000;stroke-width:1.27;stroke-miterlimit:4;stroke-dasharray:none"
       transform="scale(-1,1)"
       d="m -1640.6378,617.83575 a 3.0238094,3.0238094 0 0 1 -3.0238,3.02381 3.0238094,3.0238094 0 0 1 -3.0238,-3.02381 3.0238094,3.0238094 0 0 1 3.0238,-3.02381 3.0238094,3.0238094 0 0 1 3.0238,3.02381" />
    <path
       id="circle1563-94-9-1"
       style="fill:none;stroke:#000000;stroke-width:1.27;stroke-miterlimit:4;stroke-dasharray:none"
       transform="scale(-1,1)"
       d="m -2381.3627,305.77829 a 3.0238094,3.0238094 0 0 1 -3.0238,3.02381 3.0238094,3.0238094 0 0 1 -3.0238,-3.02381 3.0238094,3.0238094 0 0 1 3.0238,-3.02381 3.0238094,3.0238094 0 0 1 3.0238,3.02381" />
    <path
       id="circle1565-3-2-1"
       style="fill:none;stroke:#000000;stroke-width:1.27;stroke-miterlimit:4;stroke-dasharray:none"
       transform="scale(-1,1)"
       d="m -2322.9623,245.55467 a 3.0238094,3.0238094 0 0 1 -3.0238,3.02381 3.0238094,3.0238094 0 0 1 -3.0238,-3.02381 3.0238094,3.0238094 0 0 1 3.0238,-3.02381 3.0238094,3.0238094 0 0 1 3.0238,3.02381" />
    <path
       id="circle1563-94-9-18"
       style="fill:none;stroke:#000000;stroke-width:1.27;stroke-miterlimit:4;stroke-dasharray:none"
       d="m 2330.4904,680.80237 a 3.0238094,3.0238094 0 0 1 -3.0238,3.02381 3.0238094,3.0238094 0 0 1 -3.0239,-3.02381 3.0238094,3.0238094 0 0 1 3.0239,-3.02381 3.0238094,3.0238094 0 0 1 3.0238,3.02381" />
    <path
       id="circle1565-3-2-3"
       style="fill:none;stroke:#000000;stroke-width:1.27;stroke-miterlimit:4;stroke-dasharray:none"
       d="m 2388.8908,618.46204 a 3.0238094,3.0238094 0 0 1 -3.0239,3.02381 3.0238094,3.0238094 0 0 1 -3.0238,-3.02381 3.0238094,3.0238094 0 0 1 3.0238,-3.02381 3.0238094,3.0238094 0 0 1 3.0239,3.02381" />
    <path
       id="circle1563-94-9-9"
       style="fill:none;stroke:#000000;stroke-width:1.27;stroke-miterlimit:4;stroke-dasharray:none"
       d="m 1641.7683,796.0271 a 3.0238094,3.0238094 0 0 1 -3.0238,3.02381 3.0238094,3.0238094 0 0 1 -3.0238,-3.02381 3.0238094,3.0238094 0 0 1 3.0238,-3.02381 3.0238094,3.0238094 0 0 1 3.0238,3.02381" />
    <path
       id="circle1565-3-2-0"
       style="fill:none;stroke:#000000;stroke-width:1.27;stroke-miterlimit:4;stroke-dasharray:none"
       d="m 1700.1688,735.80353 a 3.0238094,3.0238094 0 0 1 -3.0238,3.02381 3.0238094,3.0238094 0 0 1 -3.0238,-3.02381 3.0238094,3.0238094 0 0 1 3.0238,-3.02381 3.0238094,3.0238094 0 0 1 3.0238,3.02381" />
    <path
       id="circle1563-94-9-3"
       style="fill:none;stroke:#000000;stroke-width:1.27;stroke-miterlimit:4;stroke-dasharray:none"
       transform="scale(-1,1)"
       d="m -1694.1212,1172.1653 a 3.0238094,3.0238094 0 0 1 -3.0238,3.0238 3.0238094,3.0238094 0 0 1 -3.0238,-3.0238 3.0238094,3.0238094 0 0 1 3.0238,-3.0238 3.0238094,3.0238094 0 0 1 3.0238,3.0238" />
    <path
       id="circle1565-3-2-01"
       style="fill:none;stroke:#000000;stroke-width:1.27;stroke-miterlimit:4;stroke-dasharray:none"
       transform="scale(-1,1)"
       d="m -1635.7207,1111.9417 a 3.0238094,3.0238094 0 0 1 -3.0238,3.0238 3.0238094,3.0238094 0 0 1 -3.0238,-3.0238 3.0238094,3.0238094 0 0 1 3.0238,-3.0239 3.0238094,3.0238094 0 0 1 3.0238,3.0239" />
    <path
       id="circle1563-94-9-97"
       style="fill:none;stroke:#000000;stroke-width:1.27;stroke-miterlimit:4;stroke-dasharray:none"
       d="m 343.69251,610.14825 a 3.0238094,3.0238094 0 0 1 -3.02381,3.02381 3.0238094,3.0238094 0 0 1 -3.02381,-3.02381 3.0238094,3.0238094 0 0 1 3.02381,-3.02381 3.0238094,3.0238094 0 0 1 3.02381,3.02381" />
    <path
       id="circle1565-3-2-38"
       style="fill:none;stroke:#000000;stroke-width:1.27;stroke-miterlimit:4;stroke-dasharray:none"
       d="m 402.09302,549.92462 a 3.0238094,3.0238094 0 0 1 -3.02381,3.02381 3.0238094,3.0238094 0 0 1 -3.02381,-3.02381 3.0238094,3.0238094 0 0 1 3.02381,-3.02381 3.0238094,3.0238094 0 0 1 3.02381,3.02381" />
    <path
       id="circle1563-94-9-0"
       style="fill:none;stroke:#000000;stroke-width:1.27;stroke-miterlimit:4;stroke-dasharray:none"
       d="m 28.394863,90.986649 a 3.0238094,3.0238094 0 0 1 -3.023809,3.023809 3.0238094,3.0238094 0 0 1 -3.02381,-3.023809 3.0238094,3.0238094 0 0 1 3.02381,-3.02381 3.0238094,3.0238094 0 0 1 3.023809,3.02381" />
    <path
       id="circle1565-3-2-4"
       style="fill:none;stroke:#000000;stroke-width:1.27;stroke-miterlimit:4;stroke-dasharray:none"
       d="m 86.795378,30.763058 a 3.0238094,3.0238094 0 0 1 -3.02381,3.023809 3.0238094,3.0238094 0 0 1 -3.023809,-3.023809 3.0238094,3.0238094 0 0 1 3.023809,-3.02381 3.0238094,3.0238094 0 0 1 3.02381,3.02381" />
    <path
       id="circle1563-94-9-53"
       style="fill:none;stroke:#000000;stroke-width:1.27;stroke-miterlimit:4;stroke-dasharray:none"
       transform="scale(-1,1)"
       d="m -381.72747,90.56324 a 3.0238094,3.0238094 0 0 1 -3.02381,3.023809 3.0238094,3.0238094 0 0 1 -3.02381,-3.023809 3.0238094,3.0238094 0 0 1 3.02381,-3.023809 3.0238094,3.0238094 0 0 1 3.02381,3.023809" />
    <path
       id="circle1565-3-2-61"
       style="fill:none;stroke:#000000;stroke-width:1.27;stroke-miterlimit:4;stroke-dasharray:none"
       transform="scale(-1,1)"
       d="m -323.32696,30.339643 a 3.0238094,3.0238094 0 0 1 -3.02381,3.02381 3.0238094,3.0238094 0 0 1 -3.02381,-3.02381 3.0238094,3.0238094 0 0 1 3.02381,-3.023809 3.0238094,3.0238094 0 0 1 3.02381,3.023809" />
    <path
       id="circle1563-94-9-38"
       style="fill:none;stroke:#000000;stroke-width:1.27;stroke-miterlimit:4;stroke-dasharray:none"
       d="m 412.34919,90.568031 a 3.0238094,3.0238094 0 0 1 -3.02381,3.02381 3.0238094,3.0238094 0 0 1 -3.02381,-3.02381 3.0238094,3.0238094 0 0 1 3.02381,-3.023809 3.0238094,3.0238094 0 0 1 3.02381,3.023809" />
    <path
       id="circle1565-3-2-14"
       style="fill:none;stroke:#000000;stroke-width:1.27;stroke-miterlimit:4;stroke-dasharray:none"
       d="m 470.7497,30.344433 a 3.0238094,3.0238094 0 0 1 -3.02381,3.023809 3.0238094,3.0238094 0 0 1 -3.02381,-3.023809 3.0238094,3.0238094 0 0 1 3.02381,-3.02381 3.0238094,3.0238094 0 0 1 3.02381,3.02381" />
    <path
       id="circle1563-94-9-188"
       style="fill:none;stroke:#000000;stroke-width:1.27;stroke-miterlimit:4;stroke-dasharray:none"
       transform="scale(-1,1)"
       d="m -766.98077,93.536713 a 3.0238094,3.0238094 0 0 1 -3.02381,3.023809 3.0238094,3.0238094 0 0 1 -3.02381,-3.023809 3.0238094,3.0238094 0 0 1 3.02381,-3.02381 3.0238094,3.0238094 0 0 1 3.02381,3.02381" />
    <path
       id="circle1565-3-2-7"
       style="fill:none;stroke:#000000;stroke-width:1.27;stroke-miterlimit:4;stroke-dasharray:none"
       transform="scale(-1,1)"
       d="m -708.58026,33.313114 a 3.0238094,3.0238094 0 0 1 -3.0238,3.02381 3.0238094,3.0238094 0 0 1 -3.02381,-3.02381 3.0238094,3.0238094 0 0 1 3.02381,-3.023809 3.0238094,3.0238094 0 0 1 3.0238,3.023809" />
    <path
       id="path36-0-2-1-6-9"
       style="fill:none;stroke:#000000;stroke-width:1.27;stroke-miterlimit:4;stroke-dasharray:none"
       d="m 175.59307,601.091 a 3.0238094,3.0238094 0 0 1 -3.02381,3.02381 3.0238094,3.0238094 0 0 1 -3.02381,-3.02381 3.0238094,3.0238094 0 0 1 3.02381,-3.02381 3.0238094,3.0238094 0 0 1 3.02381,3.02381" />
    <path
       id="path36-0-2-1-6-6"
       style="fill:none;stroke:#000000;stroke-width:1.27;stroke-miterlimit:4;stroke-dasharray:none"
       d="m 37.299082,535.8728 a 3.0238094,3.0238094 0 0 1 -3.02381,3.02381 3.0238094,3.0238094 0 0 1 -3.023809,-3.02381 3.0238094,3.0238094 0 0 1 3.023809,-3.02381 3.0238094,3.0238094 0 0 1 3.02381,3.02381" />
    <path
       id="path36-0-2-1-6-96"
       style="fill:none;stroke:#000000;stroke-width:1.27;stroke-miterlimit:4;stroke-dasharray:none"
       d="m 38.084845,671.02374 a 3.0238094,3.0238094 0 0 1 -3.02381,3.02381 3.0238094,3.0238094 0 0 1 -3.023809,-3.02381 3.0238094,3.0238094 0 0 1 3.023809,-3.02381 3.0238094,3.0238094 0 0 1 3.02381,3.02381" />
    <path
       id="path36-0-2-1-6-1"
       style="fill:none;stroke:#000000;stroke-width:1.27;stroke-miterlimit:4;stroke-dasharray:none"
       d="m 341.38871,855.67767 a 3.0238094,3.0238094 0 0 1 -3.02381,3.02381 3.0238094,3.0238094 0 0 1 -3.02381,-3.02381 3.0238094,3.0238094 0 0 1 3.02381,-3.02381 3.0238094,3.0238094 0 0 1 3.02381,3.02381" />
    <path
       id="path36-0-2-1-6-80"
       style="fill:none;stroke:#000000;stroke-width:1.27;stroke-miterlimit:4;stroke-dasharray:none"
       d="m 342.96024,803.03168 a 3.0238094,3.0238094 0 0 1 -3.02381,3.02381 3.0238094,3.0238094 0 0 1 -3.02381,-3.02381 3.0238094,3.0238094 0 0 1 3.02381,-3.02381 3.0238094,3.0238094 0 0 1 3.02381,3.02381" />
    <path
       id="path36-0-2-1-6-7"
       style="fill:none;stroke:#000000;stroke-width:1.27;stroke-miterlimit:4;stroke-dasharray:none"
       d="m 210.01455,983.52002 a 3.0238094,3.0238094 0 0 1 -3.02381,3.02381 3.0238094,3.0238094 0 0 1 -3.02381,-3.02381 3.0238094,3.0238094 0 0 1 3.02381,-3.02381 3.0238094,3.0238094 0 0 1 3.02381,3.02381" />
    <path
       id="path36-0-2-1-6-2"
       style="fill:none;stroke:#000000;stroke-width:1.27;stroke-miterlimit:4;stroke-dasharray:none"
       d="m 35.471926,982.73425 a 3.0238094,3.0238094 0 0 1 -3.02381,3.02381 3.0238094,3.0238094 0 0 1 -3.023809,-3.02381 3.0238094,3.0238094 0 0 1 3.023809,-3.02381 3.0238094,3.0238094 0 0 1 3.02381,3.02381" />
    <path
       id="path36-0-2-1-6-19"
       style="fill:none;stroke:#000000;stroke-width:1.27;stroke-miterlimit:4;stroke-dasharray:none"
       d="m 37.82921,858.58398 a 3.0238094,3.0238094 0 0 1 -3.023809,3.02381 3.0238094,3.0238094 0 0 1 -3.02381,-3.02381 3.0238094,3.0238094 0 0 1 3.02381,-3.02381 3.0238094,3.0238094 0 0 1 3.023809,3.02381" />
    <path
       id="path36-0-2-1-6-68"
       style="fill:none;stroke:#000000;stroke-width:1.27;stroke-miterlimit:4;stroke-dasharray:none"
       d="m 183.19506,857.01245 a 3.0238094,3.0238094 0 0 1 -3.02381,3.02381 3.0238094,3.0238094 0 0 1 -3.02381,-3.02381 3.0238094,3.0238094 0 0 1 3.02381,-3.02381 3.0238094,3.0238094 0 0 1 3.02381,3.02381" />
    <path
       id="path36-0-2-1-6-0"
       style="fill:none;stroke:#000000;stroke-width:1.27;stroke-miterlimit:4;stroke-dasharray:none"
       d="m 337.99003,671.57275 a 3.0238094,3.0238094 0 0 1 -3.02381,3.02381 3.0238094,3.0238094 0 0 1 -3.02381,-3.02381 3.0238094,3.0238094 0 0 1 3.02381,-3.02381 3.0238094,3.0238094 0 0 1 3.02381,3.02381" />
    <path
       id="path36-0-2-1-6-4"
       style="fill:none;stroke:#000000;stroke-width:1.27;stroke-miterlimit:4;stroke-dasharray:none"
       d="m 638.0174,854.86542 a 3.0238094,3.0238094 0 0 1 -3.02381,3.02381 3.0238094,3.0238094 0 0 1 -3.02381,-3.02381 3.0238094,3.0238094 0 0 1 3.02381,-3.02381 3.0238094,3.0238094 0 0 1 3.02381,3.02381" />
    <path
       id="path36-0-2-1-6-95"
       style="fill:none;stroke:#000000;stroke-width:1.27;stroke-miterlimit:4;stroke-dasharray:none"
       d="m 474.48508,852.05475 a 3.0238094,3.0238094 0 0 1 -3.02381,3.02381 3.0238094,3.0238094 0 0 1 -3.02381,-3.02381 3.0238094,3.0238094 0 0 1 3.02381,-3.02381 3.0238094,3.0238094 0 0 1 3.02381,3.02381" />
    <path
       id="path36-0-2-1-6-16"
       style="fill:none;stroke:#000000;stroke-width:1.27;stroke-miterlimit:4;stroke-dasharray:none"
       d="m 474.15558,677.18494 a 3.0238094,3.0238094 0 0 1 -3.02381,3.02381 3.0238094,3.0238094 0 0 1 -3.0238,-3.02381 3.0238094,3.0238094 0 0 1 3.0238,-3.02381 3.0238094,3.0238094 0 0 1 3.02381,3.02381" />
    <path
       id="path36-0-2-1-6-689"
       style="fill:none;stroke:#000000;stroke-width:1.27;stroke-miterlimit:4;stroke-dasharray:none"
       d="m 627.00941,675.06824 a 3.0238094,3.0238094 0 0 1 -3.02381,3.02381 3.0238094,3.0238094 0 0 1 -3.02381,-3.02381 3.0238094,3.0238094 0 0 1 3.02381,-3.02381 3.0238094,3.0238094 0 0 1 3.02381,3.02381" />
    <path
       id="path36-0-2-1-6-12"
       style="fill:none;stroke:#000000;stroke-width:1.27;stroke-miterlimit:4;stroke-dasharray:none"
       d="m 776.22883,673.84509 a 3.0238094,3.0238094 0 0 1 -3.02381,3.02381 3.0238094,3.0238094 0 0 1 -3.02381,-3.02381 3.0238094,3.0238094 0 0 1 3.02381,-3.02381 3.0238094,3.0238094 0 0 1 3.02381,3.02381" />
    <path
       id="path36-0-2-1-6-5"
       style="fill:none;stroke:#000000;stroke-width:1.27;stroke-miterlimit:4;stroke-dasharray:none"
       d="m 777.45197,547.86481 a 3.0238094,3.0238094 0 0 1 -3.02381,3.02381 3.0238094,3.0238094 0 0 1 -3.02381,-3.02381 3.0238094,3.0238094 0 0 1 3.02381,-3.02381 3.0238094,3.0238094 0 0 1 3.02381,3.02381" />
    <path
       id="path36-0-2-1-6-44"
       style="fill:none;stroke:#000000;stroke-width:1.27;stroke-miterlimit:4;stroke-dasharray:none"
       d="m 587.86994,549.08789 a 3.0238094,3.0238094 0 0 1 -3.02381,3.02381 3.0238094,3.0238094 0 0 1 -3.02381,-3.02381 3.0238094,3.0238094 0 0 1 3.02381,-3.02381 3.0238094,3.0238094 0 0 1 3.02381,3.02381" />
    <path
       id="path36-0-2-1-6-3"
       style="fill:none;stroke:#000000;stroke-width:1.27;stroke-miterlimit:4;stroke-dasharray:none"
       d="m 37.185091,1167.8517 a 3.0238094,3.0238094 0 0 1 -3.023809,3.0238 3.0238094,3.0238094 0 0 1 -3.02381,-3.0238 3.0238094,3.0238094 0 0 1 3.02381,-3.0238 3.0238094,3.0238094 0 0 1 3.023809,3.0238" />
    <path
       id="path36-0-2-1-6-77"
       style="fill:none;stroke:#000000;stroke-width:1.27;stroke-miterlimit:4;stroke-dasharray:none"
       d="m 35.961981,1042.3307 a 3.0238094,3.0238094 0 0 1 -3.02381,3.0238 3.0238094,3.0238094 0 0 1 -3.023809,-3.0238 3.0238094,3.0238094 0 0 1 3.023809,-3.0238 3.0238094,3.0238094 0 0 1 3.02381,3.0238" />
    <path
       id="path36-0-2-1-6-41"
       style="fill:none;stroke:#000000;stroke-width:1.27;stroke-miterlimit:4;stroke-dasharray:none"
       d="m 592.47706,983.29193 a 3.0238094,3.0238094 0 0 1 -3.02381,3.02381 3.0238094,3.0238094 0 0 1 -3.02381,-3.02381 3.0238094,3.0238094 0 0 1 3.02381,-3.02381 3.0238094,3.0238094 0 0 1 3.02381,3.02381" />
    <path
       id="path36-0-2-1-6-770"
       style="fill:none;stroke:#000000;stroke-width:1.27;stroke-miterlimit:4;stroke-dasharray:none"
       d="m 405.34119,983.29193 a 3.0238094,3.0238094 0 0 1 -3.02381,3.02381 3.0238094,3.0238094 0 0 1 -3.02381,-3.02381 3.0238094,3.0238094 0 0 1 3.02381,-3.02381 3.0238094,3.0238094 0 0 1 3.02381,3.02381" />
    <path
       id="path36-0-2-1-6-78"
       style="fill:none;stroke:#000000;stroke-width:1.27;stroke-miterlimit:4;stroke-dasharray:none"
       d="m 777.16663,980.8457 a 3.0238094,3.0238094 0 0 1 -3.02381,3.02381 3.0238094,3.0238094 0 0 1 -3.02381,-3.02381 3.0238094,3.0238094 0 0 1 3.02381,-3.02381 3.0238094,3.0238094 0 0 1 3.02381,3.02381" />
    <path
       id="path36-0-2-1-6-55"
       style="fill:none;stroke:#000000;stroke-width:1.27;stroke-miterlimit:4;stroke-dasharray:none"
       d="m 777.16663,857.31158 a 3.0238094,3.0238094 0 0 1 -3.02381,3.02381 3.0238094,3.0238094 0 0 1 -3.02381,-3.02381 3.0238094,3.0238094 0 0 1 3.02381,-3.0238 3.0238094,3.0238094 0 0 1 3.02381,3.0238" />
    <path
       id="path36-0-2-1-6-62"
       style="fill:none;stroke:#000000;stroke-width:1.27;stroke-miterlimit:4;stroke-dasharray:none"
       d="m 839.46338,888.99091 a 3.0238094,3.0238094 0 0 1 -3.0238,3.02381 3.0238094,3.0238094 0 0 1 -3.02381,-3.02381 3.0238094,3.0238094 0 0 1 3.02381,-3.02381 3.0238094,3.0238094 0 0 1 3.0238,3.02381" />
    <path
       id="path36-0-2-1-6-21"
       style="fill:none;stroke:#000000;stroke-width:1.27;stroke-miterlimit:4;stroke-dasharray:none"
       d="m 841.90961,1033.3179 a 3.0238094,3.0238094 0 0 1 -3.02381,3.0238 3.0238094,3.0238094 0 0 1 -3.02381,-3.0238 3.0238094,3.0238094 0 0 1 3.02381,-3.0238 3.0238094,3.0238094 0 0 1 3.02381,3.0238" />
    <path
       id="path36-0-2-1-6-01"
       style="fill:none;stroke:#000000;stroke-width:1.27;stroke-miterlimit:4;stroke-dasharray:none"
       d="m 966.66681,888.99091 a 3.0238094,3.0238094 0 0 1 -3.0238,3.02381 3.0238094,3.0238094 0 0 1 -3.02381,-3.02381 3.0238094,3.0238094 0 0 1 3.02381,-3.02381 3.0238094,3.0238094 0 0 1 3.0238,3.02381" />
    <path
       id="path36-0-2-1-6-47"
       style="fill:none;stroke:#000000;stroke-width:1.27;stroke-miterlimit:4;stroke-dasharray:none"
       d="m 970.33619,1044.3258 a 3.0238094,3.0238094 0 0 1 -3.02381,3.0238 3.0238094,3.0238094 0 0 1 -3.02381,-3.0238 3.0238094,3.0238094 0 0 1 3.02381,-3.0238 3.0238094,3.0238094 0 0 1 3.02381,3.0238" />
    <path
       id="path36-0-2-1-6-64"
       style="fill:none;stroke:#000000;stroke-width:1.27;stroke-miterlimit:4;stroke-dasharray:none"
       d="m 967.88996,738.54834 a 3.0238094,3.0238094 0 0 1 -3.02381,3.02381 3.0238094,3.0238094 0 0 1 -3.02381,-3.02381 3.0238094,3.0238094 0 0 1 3.02381,-3.02381 3.0238094,3.0238094 0 0 1 3.02381,3.02381" />
    <path
       id="path36-0-2-1-6-45"
       style="fill:none;stroke:#000000;stroke-width:1.27;stroke-miterlimit:4;stroke-dasharray:none"
       d="m 839.46338,739.77148 a 3.0238094,3.0238094 0 0 1 -3.0238,3.02381 3.0238094,3.0238094 0 0 1 -3.02381,-3.02381 3.0238094,3.0238094 0 0 1 3.02381,-3.02381 3.0238094,3.0238094 0 0 1 3.0238,3.02381" />
    <path
       id="path36-0-2-1-6-956"
       style="fill:none;stroke:#000000;stroke-width:1.27;stroke-miterlimit:4;stroke-dasharray:none"
       d="m 777.08478,1169.0831 a 3.0238094,3.0238094 0 0 1 -3.02381,3.0238 3.0238094,3.0238094 0 0 1 -3.02381,-3.0238 3.0238094,3.0238094 0 0 1 3.02381,-3.0238 3.0238094,3.0238094 0 0 1 3.02381,3.0238" />
    <path
       id="path36-0-2-1-6-85"
       style="fill:none;stroke:#000000;stroke-width:1.27;stroke-miterlimit:4;stroke-dasharray:none"
       d="m 778.30787,1042.5736 a 3.0238094,3.0238094 0 0 1 -3.02381,3.0238 3.0238094,3.0238094 0 0 1 -3.02381,-3.0238 3.0238094,3.0238094 0 0 1 3.02381,-3.0238 3.0238094,3.0238094 0 0 1 3.02381,3.0238" />
    <path
       id="path36-0-2-1-6-7-0"
       style="fill:none;stroke:#000000;stroke-width:1.27;stroke-miterlimit:4;stroke-dasharray:none"
       d="m 208.50612,1168.0062 a 3.0238094,3.0238094 0 0 1 -3.0238,3.0238 3.0238094,3.0238094 0 0 1 -3.02381,-3.0238 3.0238094,3.0238094 0 0 1 3.02381,-3.0238 3.0238094,3.0238094 0 0 1 3.0238,3.0238" />
    <path
       id="path36-0-2-1-6-41-1"
       style="fill:none;stroke:#000000;stroke-width:1.27;stroke-miterlimit:4;stroke-dasharray:none"
       d="m 590.96863,1167.7782 a 3.0238094,3.0238094 0 0 1 -3.02381,3.0238 3.0238094,3.0238094 0 0 1 -3.02381,-3.0238 3.0238094,3.0238094 0 0 1 3.02381,-3.0238 3.0238094,3.0238094 0 0 1 3.02381,3.0238" />
    <path
       id="path36-0-2-1-6-770-1"
       style="fill:none;stroke:#000000;stroke-width:1.27;stroke-miterlimit:4;stroke-dasharray:none"
       d="m 403.83277,1167.7782 a 3.0238094,3.0238094 0 0 1 -3.02381,3.0238 3.0238094,3.0238094 0 0 1 -3.02381,-3.0238 3.0238094,3.0238094 0 0 1 3.02381,-3.0238 3.0238094,3.0238094 0 0 1 3.02381,3.0238" />
    <path
       id="path36-0-2-1-6-7-5"
       style="fill:none;stroke:#000000;stroke-width:1.27;stroke-miterlimit:4;stroke-dasharray:none"
       d="m 206.54867,1043.0455 a 3.0238094,3.0238094 0 0 1 -3.02381,3.0238 3.0238094,3.0238094 0 0 1 -3.02381,-3.0238 3.0238094,3.0238094 0 0 1 3.02381,-3.0238 3.0238094,3.0238094 0 0 1 3.02381,3.0238" />
    <path
       id="path36-0-2-1-6-41-5"
       style="fill:none;stroke:#000000;stroke-width:1.27;stroke-miterlimit:4;stroke-dasharray:none"
       d="m 589.01118,1042.8175 a 3.0238094,3.0238094 0 0 1 -3.02381,3.0238 3.0238094,3.0238094 0 0 1 -3.02381,-3.0238 3.0238094,3.0238094 0 0 1 3.02381,-3.0238 3.0238094,3.0238094 0 0 1 3.02381,3.0238" />
    <path
       id="path36-0-2-1-6-770-14"
       style="fill:none;stroke:#000000;stroke-width:1.27;stroke-miterlimit:4;stroke-dasharray:none"
       d="m 401.87531,1042.8175 a 3.0238094,3.0238094 0 0 1 -3.02381,3.0238 3.0238094,3.0238094 0 0 1 -3.02381,-3.0238 3.0238094,3.0238094 0 0 1 3.02381,-3.0238 3.0238094,3.0238094 0 0 1 3.02381,3.0238" />
    <path
       id="path36-0-2-1-6-7-9"
       style="fill:none;stroke:#000000;stroke-width:1.27;stroke-miterlimit:4;stroke-dasharray:none"
       d="m 31.902529,275.18372 a 3.0238094,3.0238094 0 0 1 -3.02381,3.02381 3.0238094,3.0238094 0 0 1 -3.023809,-3.02381 3.0238094,3.0238094 0 0 1 3.023809,-3.02381 3.0238094,3.0238094 0 0 1 3.02381,3.02381" />
    <path
       id="path36-0-2-1-6-41-7"
       style="fill:none;stroke:#000000;stroke-width:1.27;stroke-miterlimit:4;stroke-dasharray:none"
       d="m 1461.0626,843.0918 a 3.0238094,3.0238094 0 0 1 -3.0238,3.02381 3.0238094,3.0238094 0 0 1 -3.0238,-3.02381 3.0238094,3.0238094 0 0 1 3.0238,-3.02381 3.0238094,3.0238094 0 0 1 3.0238,3.02381" />
    <path
       id="path36-0-2-1-6-770-16"
       style="fill:none;stroke:#000000;stroke-width:1.27;stroke-miterlimit:4;stroke-dasharray:none"
       d="m 1361.911,1045.6337 a 3.0238094,3.0238094 0 0 1 -3.0238,3.0238 3.0238094,3.0238094 0 0 1 -3.0238,-3.0238 3.0238094,3.0238094 0 0 1 3.0238,-3.0238 3.0238094,3.0238094 0 0 1 3.0238,3.0238" />
    <path
       id="path36-0-2-1-6-7-1"
       style="fill:none;stroke:#000000;stroke-width:1.27;stroke-miterlimit:4;stroke-dasharray:none"
       d="m 774.52747,268.82785 a 3.0238094,3.0238094 0 0 1 -3.02381,3.02381 3.0238094,3.0238094 0 0 1 -3.02381,-3.02381 3.0238094,3.0238094 0 0 1 3.02381,-3.02381 3.0238094,3.0238094 0 0 1 3.02381,3.02381" />
    <path
       id="path36-0-2-1-6-41-0"
       style="fill:none;stroke:#000000;stroke-width:1.27;stroke-miterlimit:4;stroke-dasharray:none"
       d="m 1589.8976,841.59479 a 3.0238094,3.0238094 0 0 1 -3.0238,3.02381 3.0238094,3.0238094 0 0 1 -3.0238,-3.02381 3.0238094,3.0238094 0 0 1 3.0238,-3.02381 3.0238094,3.0238094 0 0 1 3.0238,3.02381" />
    <path
       id="path36-0-2-1-6-770-8"
       style="fill:none;stroke:#000000;stroke-width:1.27;stroke-miterlimit:4;stroke-dasharray:none"
       d="m 1159.5057,1045.6337 a 3.0238094,3.0238094 0 0 1 -3.0238,3.0238 3.0238094,3.0238094 0 0 1 -3.0238,-3.0238 3.0238094,3.0238094 0 0 1 3.0238,-3.0238 3.0238094,3.0238094 0 0 1 3.0238,3.0238" />
    <path
       id="path36-0-2-1-6-7-4"
       style="fill:none;stroke:#000000;stroke-width:1.27;stroke-miterlimit:4;stroke-dasharray:none"
       d="m 1582.2152,1043.5588 a 3.0238094,3.0238094 0 0 1 -3.0238,3.0238 3.0238094,3.0238094 0 0 1 -3.0238,-3.0238 3.0238094,3.0238094 0 0 1 3.0238,-3.0238 3.0238094,3.0238094 0 0 1 3.0238,3.0238" />
    <path
       id="path36-0-2-1-6-770-3"
       style="fill:none;stroke:#000000;stroke-width:1.27;stroke-miterlimit:4;stroke-dasharray:none"
       d="m 185.31644,736.35352 a 3.0238094,3.0238094 0 0 1 -3.02381,3.02381 3.0238094,3.0238094 0 0 1 -3.02381,-3.02381 3.0238094,3.0238094 0 0 1 3.02381,-3.02381 3.0238094,3.0238094 0 0 1 3.02381,3.02381" />
    <path
       id="path36-0-2-1-6-3-4"
       style="fill:none;stroke:#000000;stroke-width:1.27;stroke-miterlimit:4;stroke-dasharray:none"
       d="m 838.67768,1172.0942 a 3.0238094,3.0238094 0 0 1 -3.02381,3.0238 3.0238094,3.0238094 0 0 1 -3.02381,-3.0238 3.0238094,3.0238094 0 0 1 3.02381,-3.0238 3.0238094,3.0238094 0 0 1 3.02381,3.0238" />
    <path
       id="path36-0-2-1-6-956-9"
       style="fill:none;stroke:#000000;stroke-width:1.27;stroke-miterlimit:4;stroke-dasharray:none"
       d="m 1581.2233,1171.7382 a 3.0238094,3.0238094 0 0 1 -3.0238,3.0238 3.0238094,3.0238094 0 0 1 -3.0238,-3.0238 3.0238094,3.0238094 0 0 1 3.0238,-3.0239 3.0238094,3.0238094 0 0 1 3.0238,3.0239" />
    <path
       id="path36-0-2-1-6-7-0-8"
       style="fill:none;stroke:#000000;stroke-width:1.27;stroke-miterlimit:4;stroke-dasharray:none"
       d="m 1009.9987,1172.778 a 3.0238094,3.0238094 0 0 1 -3.0238,3.0238 3.0238094,3.0238094 0 0 1 -3.0238,-3.0238 3.0238094,3.0238094 0 0 1 3.0238,-3.0239 3.0238094,3.0238094 0 0 1 3.0238,3.0239" />
    <path
       id="path36-0-2-1-6-41-1-9"
       style="fill:none;stroke:#000000;stroke-width:1.27;stroke-miterlimit:4;stroke-dasharray:none"
       d="m 1392.4612,1172.5499 a 3.0238094,3.0238094 0 0 1 -3.0238,3.0238 3.0238094,3.0238094 0 0 1 -3.0238,-3.0238 3.0238094,3.0238094 0 0 1 3.0238,-3.0238 3.0238094,3.0238094 0 0 1 3.0238,3.0238" />
    <path
       id="path36-0-2-1-6-770-1-3"
       style="fill:none;stroke:#000000;stroke-width:1.27;stroke-miterlimit:4;stroke-dasharray:none"
       d="m 1205.3254,1172.5499 a 3.0238094,3.0238094 0 0 1 -3.0238,3.0238 3.0238094,3.0238094 0 0 1 -3.0238,-3.0238 3.0238094,3.0238094 0 0 1 3.0238,-3.0238 3.0238094,3.0238094 0 0 1 3.0238,3.0238" />
    <path
       id="path36-0-2-1-6-3-4-2"
       style="fill:none;stroke:#000000;stroke-width:1.27;stroke-miterlimit:4;stroke-dasharray:none"
       d="m 1386.853,51.743641 a 3.0238094,3.0238094 0 0 1 -3.0238,3.023809 3.0238094,3.0238094 0 0 1 -3.0238,-3.023809 3.0238094,3.0238094 0 0 1 3.0238,-3.02381 3.0238094,3.0238094 0 0 1 3.0238,3.02381" />
    <path
       id="path36-0-2-1-6-956-9-5"
       style="fill:none;stroke:#000000;stroke-width:1.27;stroke-miterlimit:4;stroke-dasharray:none"
       d="m 2129.3986,51.387562 a 3.0238094,3.0238094 0 0 1 -3.0238,3.023809 3.0238094,3.0238094 0 0 1 -3.0239,-3.023809 3.0238094,3.0238094 0 0 1 3.0239,-3.02381 3.0238094,3.0238094 0 0 1 3.0238,3.02381" />
    <path
       id="path36-0-2-1-6-7-0-8-9"
       style="fill:none;stroke:#000000;stroke-width:1.27;stroke-miterlimit:4;stroke-dasharray:none"
       d="m 1558.1741,52.427357 a 3.0238094,3.0238094 0 0 1 -3.0238,3.023809 3.0238094,3.0238094 0 0 1 -3.0238,-3.023809 3.0238094,3.0238094 0 0 1 3.0238,-3.02381 3.0238094,3.0238094 0 0 1 3.0238,3.02381" />
    <path
       id="path36-0-2-1-6-41-1-9-6"
       style="fill:none;stroke:#000000;stroke-width:1.27;stroke-miterlimit:4;stroke-dasharray:none"
       d="m 1940.6366,52.199329 a 3.0238094,3.0238094 0 0 1 -3.0238,3.02381 3.0238094,3.0238094 0 0 1 -3.0238,-3.02381 3.0238094,3.0238094 0 0 1 3.0238,-3.023809 3.0238094,3.0238094 0 0 1 3.0238,3.023809" />
    <path
       id="path36-0-2-1-6-770-1-3-9"
       style="fill:none;stroke:#000000;stroke-width:1.27;stroke-miterlimit:4;stroke-dasharray:none"
       d="m 1753.5009,52.199329 a 3.0238094,3.0238094 0 0 1 -3.0238,3.02381 3.0238094,3.0238094 0 0 1 -3.0239,-3.02381 3.0238094,3.0238094 0 0 1 3.0239,-3.023809 3.0238094,3.0238094 0 0 1 3.0238,3.023809" />
    <path
       id="path36-0-2-1-6-3-4-9"
       style="fill:none;stroke:#000000;stroke-width:1.27;stroke-miterlimit:4;stroke-dasharray:none"
       d="m 1388.4349,178.19588 a 3.0238094,3.0238094 0 0 1 -3.0238,3.02381 3.0238094,3.0238094 0 0 1 -3.0238,-3.02381 3.0238094,3.0238094 0 0 1 3.0238,-3.02381 3.0238094,3.0238094 0 0 1 3.0238,3.02381" />
    <path
       id="path36-0-2-1-6-956-9-9"
       style="fill:none;stroke:#000000;stroke-width:1.27;stroke-miterlimit:4;stroke-dasharray:none"
       d="m 2130.9804,177.8398 a 3.0238094,3.0238094 0 0 1 -3.0239,3.02381 3.0238094,3.0238094 0 0 1 -3.0238,-3.02381 3.0238094,3.0238094 0 0 1 3.0238,-3.02381 3.0238094,3.0238094 0 0 1 3.0239,3.02381" />
    <path
       id="path36-0-2-1-6-7-0-8-8"
       style="fill:none;stroke:#000000;stroke-width:1.27;stroke-miterlimit:4;stroke-dasharray:none"
       d="m 1583.6494,178.87959 a 3.0238094,3.0238094 0 0 1 -3.0238,3.02381 3.0238094,3.0238094 0 0 1 -3.0238,-3.02381 3.0238094,3.0238094 0 0 1 3.0238,-3.02381 3.0238094,3.0238094 0 0 1 3.0238,3.02381" />
    <path
       id="path36-0-2-1-6-41-1-9-8"
       style="fill:none;stroke:#000000;stroke-width:1.27;stroke-miterlimit:4;stroke-dasharray:none"
       d="m 1996.2935,180.13986 a 3.0238094,3.0238094 0 0 1 -3.0238,3.02381 3.0238094,3.0238094 0 0 1 -3.0239,-3.02381 3.0238094,3.0238094 0 0 1 3.0239,-3.02381 3.0238094,3.0238094 0 0 1 3.0238,3.02381" />
    <path
       id="path36-0-2-1-6-770-1-3-7"
       style="fill:none;stroke:#000000;stroke-width:1.27;stroke-miterlimit:4;stroke-dasharray:none"
       d="m 1792.2903,178.65157 a 3.0238094,3.0238094 0 0 1 -3.0238,3.0238 3.0238094,3.0238094 0 0 1 -3.0238,-3.0238 3.0238094,3.0238094 0 0 1 3.0238,-3.02381 3.0238094,3.0238094 0 0 1 3.0238,3.02381" />
    <path
       id="path36-0-2-1-6-3-4-1"
       style="fill:none;stroke:#000000;stroke-width:1.27;stroke-miterlimit:4;stroke-dasharray:none"
       d="m 842.7309,226.17319 a 3.0238094,3.0238094 0 0 1 -3.02381,3.02381 3.0238094,3.0238094 0 0 1 -3.02381,-3.02381 3.0238094,3.0238094 0 0 1 3.02381,-3.02381 3.0238094,3.0238094 0 0 1 3.02381,3.02381" />
    <path
       id="path36-0-2-1-6-956-9-0"
       style="fill:none;stroke:#000000;stroke-width:1.27;stroke-miterlimit:4;stroke-dasharray:none"
       d="m 1585.2765,225.81711 a 3.0238094,3.0238094 0 0 1 -3.0238,3.02381 3.0238094,3.0238094 0 0 1 -3.0238,-3.02381 3.0238094,3.0238094 0 0 1 3.0238,-3.02381 3.0238094,3.0238094 0 0 1 3.0238,3.02381" />
    <path
       id="path36-0-2-1-6-7-0-8-7"
       style="fill:none;stroke:#000000;stroke-width:1.27;stroke-miterlimit:4;stroke-dasharray:none"
       d="m 973.46699,226.8569 a 3.0238094,3.0238094 0 0 1 -3.02381,3.02381 3.0238094,3.0238094 0 0 1 -3.02381,-3.02381 3.0238094,3.0238094 0 0 1 3.02381,-3.02381 3.0238094,3.0238094 0 0 1 3.02381,3.02381" />
    <path
       id="path36-0-2-1-6-41-1-9-0"
       style="fill:none;stroke:#000000;stroke-width:1.27;stroke-miterlimit:4;stroke-dasharray:none"
       d="m 1372.9186,226.62888 a 3.0238094,3.0238094 0 0 1 -3.0238,3.02381 3.0238094,3.0238094 0 0 1 -3.0238,-3.02381 3.0238094,3.0238094 0 0 1 3.0238,-3.02381 3.0238094,3.0238094 0 0 1 3.0238,3.02381" />
    <path
       id="path36-0-2-1-6-770-1-3-92"
       style="fill:none;stroke:#000000;stroke-width:1.27;stroke-miterlimit:4;stroke-dasharray:none"
       d="m 1173.5128,226.62888 a 3.0238094,3.0238094 0 0 1 -3.0238,3.02381 3.0238094,3.0238094 0 0 1 -3.0238,-3.02381 3.0238094,3.0238094 0 0 1 3.0238,-3.02381 3.0238094,3.0238094 0 0 1 3.0238,3.02381" />
    <path
       id="path36-0-2-1-6-3-4-0"
       style="fill:none;stroke:#000000;stroke-width:1.27;stroke-miterlimit:4;stroke-dasharray:none"
       d="m 842.98334,356.05814 a 3.0238094,3.0238094 0 0 1 -3.02381,3.02381 3.0238094,3.0238094 0 0 1 -3.02381,-3.02381 3.0238094,3.0238094 0 0 1 3.02381,-3.02381 3.0238094,3.0238094 0 0 1 3.02381,3.02381" />
    <path
       id="path36-0-2-1-6-956-9-4"
       style="fill:none;stroke:#000000;stroke-width:1.27;stroke-miterlimit:4;stroke-dasharray:none"
       d="m 1585.5288,355.70206 a 3.0238094,3.0238094 0 0 1 -3.0238,3.02381 3.0238094,3.0238094 0 0 1 -3.0238,-3.02381 3.0238094,3.0238094 0 0 1 3.0238,-3.02381 3.0238094,3.0238094 0 0 1 3.0238,3.02381" />
    <path
       id="path36-0-2-1-6-7-0-8-77"
       style="fill:none;stroke:#000000;stroke-width:1.27;stroke-miterlimit:4;stroke-dasharray:none"
       d="m 973.71949,356.74185 a 3.0238094,3.0238094 0 0 1 -3.02381,3.02381 3.0238094,3.0238094 0 0 1 -3.02381,-3.02381 3.0238094,3.0238094 0 0 1 3.02381,-3.02381 3.0238094,3.0238094 0 0 1 3.02381,3.02381" />
    <path
       id="path36-0-2-1-6-41-1-9-69"
       style="fill:none;stroke:#000000;stroke-width:1.27;stroke-miterlimit:4;stroke-dasharray:none"
       d="m 1373.1709,356.51382 a 3.0238094,3.0238094 0 0 1 -3.0238,3.02381 3.0238094,3.0238094 0 0 1 -3.0238,-3.02381 3.0238094,3.0238094 0 0 1 3.0238,-3.0238 3.0238094,3.0238094 0 0 1 3.0238,3.0238" />
    <path
       id="path36-0-2-1-6-770-1-3-5"
       style="fill:none;stroke:#000000;stroke-width:1.27;stroke-miterlimit:4;stroke-dasharray:none"
       d="m 1173.7653,356.51382 a 3.0238094,3.0238094 0 0 1 -3.0238,3.02381 3.0238094,3.0238094 0 0 1 -3.0239,-3.02381 3.0238094,3.0238094 0 0 1 3.0239,-3.0238 3.0238094,3.0238094 0 0 1 3.0238,3.0238" />
    <path
       id="path36-0-2-1-6-3-4-4"
       style="fill:none;stroke:#000000;stroke-width:1.27;stroke-miterlimit:4;stroke-dasharray:none"
       d="m 846.7129,561.49591 a 3.0238094,3.0238094 0 0 1 -3.02381,3.02381 3.0238094,3.0238094 0 0 1 -3.02381,-3.02381 3.0238094,3.0238094 0 0 1 3.02381,-3.02381 3.0238094,3.0238094 0 0 1 3.02381,3.02381" />
    <path
       id="path36-0-2-1-6-956-9-3"
       style="fill:none;stroke:#000000;stroke-width:1.27;stroke-miterlimit:4;stroke-dasharray:none"
       d="m 1589.2584,561.13983 a 3.0238094,3.0238094 0 0 1 -3.0238,3.02381 3.0238094,3.0238094 0 0 1 -3.0238,-3.02381 3.0238094,3.0238094 0 0 1 3.0238,-3.02381 3.0238094,3.0238094 0 0 1 3.0238,3.02381" />
    <path
       id="path36-0-2-1-6-7-0-8-6"
       style="fill:none;stroke:#000000;stroke-width:1.27;stroke-miterlimit:4;stroke-dasharray:none"
       d="m 1052.9558,561.65045 a 3.0238094,3.0238094 0 0 1 -3.0238,3.02381 3.0238094,3.0238094 0 0 1 -3.0238,-3.02381 3.0238094,3.0238094 0 0 1 3.0238,-3.02381 3.0238094,3.0238094 0 0 1 3.0238,3.02381" />
    <path
       id="path36-0-2-1-6-770-1-3-0"
       style="fill:none;stroke:#000000;stroke-width:1.27;stroke-miterlimit:4;stroke-dasharray:none"
       d="m 1252.0579,561.9516 a 3.0238094,3.0238094 0 0 1 -3.0238,3.02381 3.0238094,3.0238094 0 0 1 -3.0239,-3.02381 3.0238094,3.0238094 0 0 1 3.0239,-3.02381 3.0238094,3.0238094 0 0 1 3.0238,3.02381" />
    <path
       id="path36-0-2-1-6-3-4-6"
       style="fill:none;stroke:#000000;stroke-width:1.27;stroke-miterlimit:4;stroke-dasharray:none"
       d="m 846.51551,689.26935 a 3.0238094,3.0238094 0 0 1 -3.02381,3.02381 3.0238094,3.0238094 0 0 1 -3.02381,-3.02381 3.0238094,3.0238094 0 0 1 3.02381,-3.02381 3.0238094,3.0238094 0 0 1 3.02381,3.02381" />
    <path
       id="path36-0-2-1-6-956-9-8"
       style="fill:none;stroke:#000000;stroke-width:1.27;stroke-miterlimit:4;stroke-dasharray:none"
       d="m 1589.0612,688.91327 a 3.0238094,3.0238094 0 0 1 -3.0238,3.02381 3.0238094,3.0238094 0 0 1 -3.0239,-3.02381 3.0238094,3.0238094 0 0 1 3.0239,-3.02381 3.0238094,3.0238094 0 0 1 3.0238,3.02381" />
    <path
       id="path36-0-2-1-6-7-0-8-3"
       style="fill:none;stroke:#000000;stroke-width:1.27;stroke-miterlimit:4;stroke-dasharray:none"
       d="m 1052.7584,689.42389 a 3.0238094,3.0238094 0 0 1 -3.0238,3.02381 3.0238094,3.0238094 0 0 1 -3.0238,-3.02381 3.0238094,3.0238094 0 0 1 3.0238,-3.02381 3.0238094,3.0238094 0 0 1 3.0238,3.02381" />
    <path
       id="path36-0-2-1-6-770-1-3-4"
       style="fill:none;stroke:#000000;stroke-width:1.27;stroke-miterlimit:4;stroke-dasharray:none"
       d="m 1251.8605,689.72504 a 3.0238094,3.0238094 0 0 1 -3.0238,3.02381 3.0238094,3.0238094 0 0 1 -3.0238,-3.02381 3.0238094,3.0238094 0 0 1 3.0238,-3.02381 3.0238094,3.0238094 0 0 1 3.0238,3.02381" />
    <g
       transform="translate(-682.14911,209.48782)"
       id="g3127">
      <path
         id="path36-0-2-1-6-3-4-40"
         style="fill:none;stroke:#000000;stroke-width:1.27;stroke-miterlimit:4;stroke-dasharray:none"
         transform="rotate(-90)"
         d="m -254.67043,708.65387 a 3.0238094,3.0238094 0 0 1 -3.02381,3.02381 3.0238094,3.0238094 0 0 1 -3.02381,-3.02381 3.0238094,3.0238094 0 0 1 3.02381,-3.02381 3.0238094,3.0238094 0 0 1 3.02381,3.02381" />
      <path
         id="path36-0-2-1-6-956-9-7"
         style="fill:none;stroke:#000000;stroke-width:1.27;stroke-miterlimit:4;stroke-dasharray:none"
         transform="rotate(-90)"
         d="m -254.31436,1451.1995 a 3.0238094,3.0238094 0 0 1 -3.02381,3.0238 3.0238094,3.0238094 0 0 1 -3.0238,-3.0238 3.0238094,3.0238094 0 0 1 3.0238,-3.0238 3.0238094,3.0238094 0 0 1 3.02381,3.0238" />
      <path
         id="path36-0-2-1-6-7-0-8-32"
         style="fill:none;stroke:#000000;stroke-width:1.27;stroke-miterlimit:4;stroke-dasharray:none"
         transform="rotate(-90)"
         d="m -255.35415,879.97491 a 3.0238094,3.0238094 0 0 1 -3.02381,3.02381 3.0238094,3.0238094 0 0 1 -3.02381,-3.02381 3.0238094,3.0238094 0 0 1 3.02381,-3.0238 3.0238094,3.0238094 0 0 1 3.02381,3.0238" />
      <path
         id="path36-0-2-1-6-41-1-9-92"
         style="fill:none;stroke:#000000;stroke-width:1.27;stroke-miterlimit:4;stroke-dasharray:none"
         transform="rotate(-90)"
         d="m -255.12612,1262.4374 a 3.0238094,3.0238094 0 0 1 -3.02381,3.0238 3.0238094,3.0238094 0 0 1 -3.02381,-3.0238 3.0238094,3.0238094 0 0 1 3.02381,-3.0238 3.0238094,3.0238094 0 0 1 3.02381,3.0238" />
      <path
         id="path36-0-2-1-6-770-1-3-2"
         style="fill:none;stroke:#000000;stroke-width:1.27;stroke-miterlimit:4;stroke-dasharray:none"
         transform="rotate(-90)"
         d="m -255.12612,1075.3016 a 3.0238094,3.0238094 0 0 1 -3.02381,3.0238 3.0238094,3.0238094 0 0 1 -3.02381,-3.0238 3.0238094,3.0238094 0 0 1 3.02381,-3.0238 3.0238094,3.0238094 0 0 1 3.02381,3.0238" />
    </g>
    <path
       id="path36-0-2-1-6-3-4-1-8"
       style="fill:none;stroke:#000000;stroke-width:1.27;stroke-miterlimit:4;stroke-dasharray:none"
       d="m 971.35444,71.070839 a 3.0238094,3.0238094 0 0 1 -3.02381,3.023809 3.0238094,3.0238094 0 0 1 -3.02381,-3.023809 3.0238094,3.0238094 0 0 1 3.02381,-3.02381 3.0238094,3.0238094 0 0 1 3.02381,3.02381" />
    <path
       id="path36-0-2-1-6-3-4-1-6"
       style="fill:none;stroke:#000000;stroke-width:1.27;stroke-miterlimit:4;stroke-dasharray:none"
       d="m 1589.3004,407.08868 a 3.0238094,3.0238094 0 0 1 -3.0238,3.02381 3.0238094,3.0238094 0 0 1 -3.0238,-3.02381 3.0238094,3.0238094 0 0 1 3.0238,-3.02381 3.0238094,3.0238094 0 0 1 3.0238,3.02381" />
    <path
       id="path36-0-2-1-6-3-4-1-0"
       style="fill:none;stroke:#000000;stroke-width:1.27;stroke-miterlimit:4;stroke-dasharray:none"
       d="m 840.92927,509.62402 a 3.0238094,3.0238094 0 0 1 -3.02381,3.02381 3.0238094,3.0238094 0 0 1 -3.02381,-3.02381 3.0238094,3.0238094 0 0 1 3.02381,-3.02381 3.0238094,3.0238094 0 0 1 3.02381,3.02381" />
    <path
       id="path36-0-2-1-6-3-4-1-9"
       style="fill:none;stroke:#000000;stroke-width:1.27;stroke-miterlimit:4;stroke-dasharray:none"
       d="m 971.07654,509.5025 a 3.0238094,3.0238094 0 0 1 -3.02381,3.02381 3.0238094,3.0238094 0 0 1 -3.02381,-3.02381 3.0238094,3.0238094 0 0 1 3.02381,-3.02381 3.0238094,3.0238094 0 0 1 3.02381,3.02381" />
    <path
       id="path36-0-2-1-6-3-4-1-7"
       style="fill:none;stroke:#000000;stroke-width:1.27;stroke-miterlimit:4;stroke-dasharray:none"
       d="m 840.08735,73.751068 a 3.0238094,3.0238094 0 0 1 -3.02381,3.02381 3.0238094,3.0238094 0 0 1 -3.02381,-3.02381 3.0238094,3.0238094 0 0 1 3.02381,-3.023809 3.0238094,3.0238094 0 0 1 3.02381,3.023809" />
    <path
       id="path36-0-2-1-6-3-4-1-2"
       style="fill:none;stroke:#000000;stroke-width:1.27;stroke-miterlimit:4;stroke-dasharray:none"
       d="m 1460.9462,406.58072 a 3.0238094,3.0238094 0 0 1 -3.0238,3.02381 3.0238094,3.0238094 0 0 1 -3.0238,-3.02381 3.0238094,3.0238094 0 0 1 3.0238,-3.02381 3.0238094,3.0238094 0 0 1 3.0238,3.02381" />
    <path
       id="path36-0-2-1-6-3-4-1-2-6"
       style="fill:none;stroke:#000000;stroke-width:1.27;stroke-miterlimit:4;stroke-dasharray:none"
       d="m 1646.6359,463.7843 a 3.0238094,3.0238094 0 0 1 -3.0238,3.02381 3.0238094,3.0238094 0 0 1 -3.0238,-3.02381 3.0238094,3.0238094 0 0 1 3.0238,-3.02381 3.0238094,3.0238094 0 0 1 3.0238,3.02381" />
    <path
       id="path36-0-2-1-6-3-4-1-2-63"
       style="fill:none;stroke:#000000;stroke-width:1.27;stroke-miterlimit:4;stroke-dasharray:none"
       d="m 1850.6708,246.00558 a 3.0238094,3.0238094 0 0 1 -3.0238,3.02381 3.0238094,3.0238094 0 0 1 -3.0238,-3.02381 3.0238094,3.0238094 0 0 1 3.0238,-3.0238 3.0238094,3.0238094 0 0 1 3.0238,3.0238" />
    <path
       id="path36-0-2-1-6-3-4-1-2-9"
       style="fill:none;stroke:#000000;stroke-width:1.27;stroke-miterlimit:4;stroke-dasharray:none"
       d="m 1857.6296,680.07104 a 3.0238094,3.0238094 0 0 1 -3.0238,3.02381 3.0238094,3.0238094 0 0 1 -3.0238,-3.02381 3.0238094,3.0238094 0 0 1 3.0238,-3.0238 3.0238094,3.0238094 0 0 1 3.0238,3.0238" />
    <path
       id="path36-0-2-1-6-3-4-1-2-1"
       style="fill:none;stroke:#000000;stroke-width:1.27;stroke-miterlimit:4;stroke-dasharray:none"
       d="m 1777.7184,548.43915 a 3.0238094,3.0238094 0 0 1 -3.0238,3.02381 3.0238094,3.0238094 0 0 1 -3.0238,-3.02381 3.0238094,3.0238094 0 0 1 3.0238,-3.02381 3.0238094,3.0238094 0 0 1 3.0238,3.02381" />
    <path
       id="path36-0-2-1-6-3-4-1-2-7"
       style="fill:none;stroke:#000000;stroke-width:1.27;stroke-miterlimit:4;stroke-dasharray:none"
       d="m 1776.4889,375.09308 a 3.0238094,3.0238094 0 0 1 -3.0238,3.02381 3.0238094,3.0238094 0 0 1 -3.0238,-3.02381 3.0238094,3.0238094 0 0 1 3.0238,-3.02381 3.0238094,3.0238094 0 0 1 3.0238,3.02381" />
    <path
       id="path36-0-2-1-6-3-4-1-2-8"
       style="fill:none;stroke:#000000;stroke-width:1.27;stroke-miterlimit:4;stroke-dasharray:none"
       d="m 1850.2533,371.40488 a 3.0238094,3.0238094 0 0 1 -3.0238,3.02381 3.0238094,3.0238094 0 0 1 -3.0238,-3.02381 3.0238094,3.0238094 0 0 1 3.0238,-3.02381 3.0238094,3.0238094 0 0 1 3.0238,3.02381" />
    <path
       id="path36-0-2-1-6-3-4-1-2-78"
       style="fill:none;stroke:#000000;stroke-width:1.27;stroke-miterlimit:4;stroke-dasharray:none"
       d="m 2383.7003,736.63092 a 3.0238094,3.0238094 0 0 1 -3.0238,3.02381 3.0238094,3.0238094 0 0 1 -3.0238,-3.02381 3.0238094,3.0238094 0 0 1 3.0238,-3.02381 3.0238094,3.0238094 0 0 1 3.0238,3.02381" />
    <path
       id="path36-0-2-1-6-3-4-1-2-0"
       style="fill:none;stroke:#000000;stroke-width:1.27;stroke-miterlimit:4;stroke-dasharray:none"
       d="m 2021.0007,680.24384 a 3.0238094,3.0238094 0 0 1 -3.0238,3.0238 3.0238094,3.0238094 0 0 1 -3.0238,-3.0238 3.0238094,3.0238094 0 0 1 3.0238,-3.02381 3.0238094,3.0238094 0 0 1 3.0238,3.02381" />
    <path
       id="path36-0-2-1-6-3-4-1-2-18"
       style="fill:none;stroke:#000000;stroke-width:1.27;stroke-miterlimit:4;stroke-dasharray:none"
       d="m 2170.0641,679.79865 a 3.0238094,3.0238094 0 0 1 -3.0238,3.0238 3.0238094,3.0238094 0 0 1 -3.0238,-3.0238 3.0238094,3.0238094 0 0 1 3.0238,-3.02381 3.0238094,3.0238094 0 0 1 3.0238,3.02381" />
    <path
       id="path36-0-2-1-6-3-4-1-2-99"
       style="fill:none;stroke:#000000;stroke-width:1.27;stroke-miterlimit:4;stroke-dasharray:none"
       d="m 2032.2053,735.95294 a 3.0238094,3.0238094 0 0 1 -3.0238,3.02381 3.0238094,3.0238094 0 0 1 -3.0238,-3.02381 3.0238094,3.0238094 0 0 1 3.0238,-3.02381 3.0238094,3.0238094 0 0 1 3.0238,3.02381" />
    <path
       id="path36-0-2-1-6-3-4-1-2-4"
       style="fill:none;stroke:#000000;stroke-width:1.27;stroke-miterlimit:4;stroke-dasharray:none"
       d="m 2204.1122,736.70044 a 3.0238094,3.0238094 0 0 1 -3.0238,3.02381 3.0238094,3.0238094 0 0 1 -3.0238,-3.02381 3.0238094,3.0238094 0 0 1 3.0238,-3.02381 3.0238094,3.0238094 0 0 1 3.0238,3.02381" />
    <path
       id="path36-0-2-1-6-3-4-1-2-3"
       style="fill:none;stroke:#000000;stroke-width:1.27;stroke-miterlimit:4;stroke-dasharray:none"
       d="m 1856.5613,736.70038 a 3.0238094,3.0238094 0 0 1 -3.0238,3.02381 3.0238094,3.0238094 0 0 1 -3.0238,-3.02381 3.0238094,3.0238094 0 0 1 3.0238,-3.02381 3.0238094,3.0238094 0 0 1 3.0238,3.02381" />
    <path
       id="path36-0-2-1-6-3-4-1-2-89"
       style="fill:none;stroke:#000000;stroke-width:1.27;stroke-miterlimit:4;stroke-dasharray:none"
       d="m 2077.0922,867.49915 a 3.0238094,3.0238094 0 0 1 -3.0238,3.0238 3.0238094,3.0238094 0 0 1 -3.0239,-3.0238 3.0238094,3.0238094 0 0 1 3.0239,-3.02381 3.0238094,3.0238094 0 0 1 3.0238,3.02381" />
    <path
       id="path36-0-2-1-6-3-4-1-2-2"
       style="fill:none;stroke:#000000;stroke-width:1.27;stroke-miterlimit:4;stroke-dasharray:none"
       d="m 2384.2409,863.76208 a 3.0238094,3.0238094 0 0 1 -3.0239,3.02381 3.0238094,3.0238094 0 0 1 -3.0238,-3.02381 3.0238094,3.0238094 0 0 1 3.0238,-3.0238 3.0238094,3.0238094 0 0 1 3.0239,3.0238" />
    <path
       id="circle3381"
       style="fill:none;stroke:#000000;stroke-width:1.27;stroke-miterlimit:4;stroke-dasharray:none"
       d="m 2078.1503,1043.9517 a 3.0238094,3.0238094 0 0 1 -3.0238,3.0238 3.0238094,3.0238094 0 0 1 -3.0238,-3.0238 3.0238094,3.0238094 0 0 1 3.0238,-3.0238 3.0238094,3.0238094 0 0 1 3.0238,3.0238" />
    <path
       id="circle3392"
       style="fill:none;stroke:#000000;stroke-width:1.27;stroke-miterlimit:4;stroke-dasharray:none"
       d="m 2383.2501,1045.6376 a 3.0238094,3.0238094 0 0 1 -3.0238,3.0238 3.0238094,3.0238094 0 0 1 -3.0238,-3.0238 3.0238094,3.0238094 0 0 1 3.0238,-3.0238 3.0238094,3.0238094 0 0 1 3.0238,3.0238" />
    <path
       id="circle3394"
       style="fill:none;stroke:#000000;stroke-width:1.27;stroke-miterlimit:4;stroke-dasharray:none"
       d="m 2240.5148,1046.2085 a 3.0238094,3.0238094 0 0 1 -3.0238,3.0238 3.0238094,3.0238094 0 0 1 -3.0238,-3.0238 3.0238094,3.0238094 0 0 1 3.0238,-3.0238 3.0238094,3.0238094 0 0 1 3.0238,3.0238" />
    <path
       id="circle3396"
       style="fill:none;stroke:#000000;stroke-width:1.27;stroke-miterlimit:4;stroke-dasharray:none"
       d="m 2240.5148,865.22015 a 3.0238094,3.0238094 0 0 1 -3.0238,3.02381 3.0238094,3.0238094 0 0 1 -3.0238,-3.02381 3.0238094,3.0238094 0 0 1 3.0238,-3.02381 3.0238094,3.0238094 0 0 1 3.0238,3.02381" />
    <path
       id="circle3398"
       style="fill:none;stroke:#000000;stroke-width:1.27;stroke-miterlimit:4;stroke-dasharray:none"
       d="m 2383.7003,1172.8583 a 3.0238094,3.0238094 0 0 1 -3.0238,3.0238 3.0238094,3.0238094 0 0 1 -3.0238,-3.0238 3.0238094,3.0238094 0 0 1 3.0238,-3.0238 3.0238094,3.0238094 0 0 1 3.0238,3.0238" />
    <path
       id="circle3400"
       style="fill:none;stroke:#000000;stroke-width:1.27;stroke-miterlimit:4;stroke-dasharray:none"
       d="m 2032.2053,1172.1803 a 3.0238094,3.0238094 0 0 1 -3.0238,3.0238 3.0238094,3.0238094 0 0 1 -3.0238,-3.0238 3.0238094,3.0238094 0 0 1 3.0238,-3.0238 3.0238094,3.0238094 0 0 1 3.0238,3.0238" />
    <path
       id="circle3402"
       style="fill:none;stroke:#000000;stroke-width:1.27;stroke-miterlimit:4;stroke-dasharray:none"
       d="m 2204.1122,1172.9279 a 3.0238094,3.0238094 0 0 1 -3.0238,3.0238 3.0238094,3.0238094 0 0 1 -3.0238,-3.0238 3.0238094,3.0238094 0 0 1 3.0238,-3.0239 3.0238094,3.0238094 0 0 1 3.0238,3.0239" />
    <path
       id="circle3404"
       style="fill:none;stroke:#000000;stroke-width:1.27;stroke-miterlimit:4;stroke-dasharray:none"
       d="m 1856.5613,1172.9277 a 3.0238094,3.0238094 0 0 1 -3.0238,3.0238 3.0238094,3.0238094 0 0 1 -3.0238,-3.0238 3.0238094,3.0238094 0 0 1 3.0238,-3.0238 3.0238094,3.0238094 0 0 1 3.0238,3.0238" />
    <path
       id="circle3406"
       style="fill:none;stroke:#000000;stroke-width:1.27;stroke-miterlimit:4;stroke-dasharray:none"
       d="m 2130.4513,488.25604 a 3.0238094,3.0238094 0 0 1 -3.0238,3.02381 3.0238094,3.0238094 0 0 1 -3.0238,-3.02381 3.0238094,3.0238094 0 0 1 3.0238,-3.02381 3.0238094,3.0238094 0 0 1 3.0238,3.02381" />
    <path
       id="circle3408"
       style="fill:none;stroke:#000000;stroke-width:1.27;stroke-miterlimit:4;stroke-dasharray:none"
       d="m 1999.9977,487.91022 a 3.0238094,3.0238094 0 0 1 -3.0238,3.02381 3.0238094,3.0238094 0 0 1 -3.0238,-3.02381 3.0238094,3.0238094 0 0 1 3.0238,-3.02381 3.0238094,3.0238094 0 0 1 3.0238,3.02381" />
    <path
       id="circle3410"
       style="fill:none;stroke:#000000;stroke-width:1.27;stroke-miterlimit:4;stroke-dasharray:none"
       d="m 2130.4513,340.23376 a 3.0238094,3.0238094 0 0 1 -3.0238,3.02381 3.0238094,3.0238094 0 0 1 -3.0238,-3.02381 3.0238094,3.0238094 0 0 1 3.0238,-3.0238 3.0238094,3.0238094 0 0 1 3.0238,3.0238" />
    <path
       id="circle3412"
       style="fill:none;stroke:#000000;stroke-width:1.27;stroke-miterlimit:4;stroke-dasharray:none"
       d="m 1999.9977,339.88794 a 3.0238094,3.0238094 0 0 1 -3.0238,3.02381 3.0238094,3.0238094 0 0 1 -3.0238,-3.02381 3.0238094,3.0238094 0 0 1 3.0238,-3.02381 3.0238094,3.0238094 0 0 1 3.0238,3.02381" />
    <path
       id="circle3414"
       style="fill:none;stroke:#000000;stroke-width:1.27;stroke-miterlimit:4;stroke-dasharray:none"
       d="m 2263.6359,548.43915 a 3.0238094,3.0238094 0 0 1 -3.0238,3.02381 3.0238094,3.0238094 0 0 1 -3.0238,-3.02381 3.0238094,3.0238094 0 0 1 3.0238,-3.02381 3.0238094,3.0238094 0 0 1 3.0238,3.02381" />
    <path
       id="circle3416"
       style="fill:none;stroke:#000000;stroke-width:1.27;stroke-miterlimit:4;stroke-dasharray:none"
       d="m 2262.4064,375.09308 a 3.0238094,3.0238094 0 0 1 -3.0238,3.02381 3.0238094,3.0238094 0 0 1 -3.0238,-3.02381 3.0238094,3.0238094 0 0 1 3.0238,-3.02381 3.0238094,3.0238094 0 0 1 3.0238,3.02381" />
    <path
       id="circle3418"
       style="fill:none;stroke:#000000;stroke-width:1.27;stroke-miterlimit:4;stroke-dasharray:none"
       d="m 2186.4674,246.00558 a 3.0238094,3.0238094 0 0 1 -3.0238,3.02381 3.0238094,3.0238094 0 0 1 -3.0238,-3.02381 3.0238094,3.0238094 0 0 1 3.0238,-3.0238 3.0238094,3.0238094 0 0 1 3.0238,3.0238" />
    <path
       id="circle3420"
       style="fill:none;stroke:#000000;stroke-width:1.27;stroke-miterlimit:4;stroke-dasharray:none"
       d="m 2186.0499,371.40488 a 3.0238094,3.0238094 0 0 1 -3.0238,3.02381 3.0238094,3.0238094 0 0 1 -3.0238,-3.02381 3.0238094,3.0238094 0 0 1 3.0238,-3.02381 3.0238094,3.0238094 0 0 1 3.0238,3.02381" />
    <path
       id="circle3422"
       style="fill:none;stroke:#000000;stroke-width:1.27;stroke-miterlimit:4;stroke-dasharray:none"
       d="m 2389.8575,463.7843 a 3.0238094,3.0238094 0 0 1 -3.0238,3.02381 3.0238094,3.0238094 0 0 1 -3.0238,-3.02381 3.0238094,3.0238094 0 0 1 3.0238,-3.02381 3.0238094,3.0238094 0 0 1 3.0238,3.02381" />
    <path
       id="circle3426"
       style="fill:none;stroke:#000000;stroke-width:1.27;stroke-miterlimit:4;stroke-dasharray:none"
       d="m 1945.5812,551.37268 a 3.0238094,3.0238094 0 0 1 -3.0238,3.02381 3.0238094,3.0238094 0 0 1 -3.0238,-3.02381 3.0238094,3.0238094 0 0 1 3.0238,-3.02381 3.0238094,3.0238094 0 0 1 3.0238,3.02381" />
    <path
       id="circle3428"
       style="fill:none;stroke:#000000;stroke-width:1.27;stroke-miterlimit:4;stroke-dasharray:none"
       d="m 2092.9638,552.19293 a 3.0238094,3.0238094 0 0 1 -3.0239,3.02381 3.0238094,3.0238094 0 0 1 -3.0238,-3.02381 3.0238094,3.0238094 0 0 1 3.0238,-3.02381 3.0238094,3.0238094 0 0 1 3.0239,3.02381" />
    <path
       id="circle4015"
       style="fill:none;stroke:#000000;stroke-width:1.27;stroke-miterlimit:4;stroke-dasharray:none"
       d="m 1463.4768,561.9516 a 3.0238094,3.0238094 0 0 1 -3.0238,3.02381 3.0238094,3.0238094 0 0 1 -3.0238,-3.02381 3.0238094,3.0238094 0 0 1 3.0238,-3.02381 3.0238094,3.0238094 0 0 1 3.0238,3.02381" />
    <path
       id="circle4017"
       style="fill:none;stroke:#000000;stroke-width:1.27;stroke-miterlimit:4;stroke-dasharray:none"
       d="m 1463.2794,689.72504 a 3.0238094,3.0238094 0 0 1 -3.0238,3.02381 3.0238094,3.0238094 0 0 1 -3.0238,-3.02381 3.0238094,3.0238094 0 0 1 3.0238,-3.02381 3.0238094,3.0238094 0 0 1 3.0238,3.02381" />
    <path
       d="m 1641.989,955.78188 a 3.0238094,3.0238094 0 0 1 -3.0238,3.02381 3.0238094,3.0238094 0 0 1 -3.0238,-3.02381 3.0238094,3.0238094 0 0 1 3.0238,-3.02381 3.0238094,3.0238094 0 0 1 3.0238,3.02381"
       style="fill:none;stroke:#000000;stroke-width:1.27;stroke-miterlimit:4;stroke-dasharray:none"
       id="path6974"
       inkscape:connector-curvature="0" />
  </g>
</svg>
