<?xml version="1.0" encoding="UTF-8" standalone="no"?>
<svg
   xmlns:dc="http://purl.org/dc/elements/1.1/"
   xmlns:cc="http://creativecommons.org/ns#"
   xmlns:rdf="http://www.w3.org/1999/02/22-rdf-syntax-ns#"
   xmlns:svg="http://www.w3.org/2000/svg"
   xmlns="http://www.w3.org/2000/svg"
   xmlns:sodipodi="http://sodipodi.sourceforge.net/DTD/sodipodi-0.dtd"
   xmlns:inkscape="http://www.inkscape.org/namespaces/inkscape"
   width="96in"
   height="48in"
   viewBox="0 0 2438.4 1219.2"
   version="1.1"
   id="svg8"
   inkscape:version="1.1-dev (f9311a1, 2019-12-25)"
   sodipodi:docname="sheet3.svg">
  <defs
     id="defs2" />
  <sodipodi:namedview
     id="base"
     pagecolor="#ffffff"
     bordercolor="#666666"
     borderopacity="1.0"
     inkscape:pageopacity="0.0"
     inkscape:pageshadow="2"
     inkscape:zoom="0.1221182"
     inkscape:cx="2096.874"
     inkscape:cy="1967.6299"
     inkscape:document-units="mm"
     inkscape:current-layer="layer1"
     inkscape:document-rotation="0"
     showgrid="true"
     units="in"
     inkscape:window-width="1680"
     inkscape:window-height="1005"
     inkscape:window-x="0"
     inkscape:window-y="23"
     inkscape:window-maximized="0">
    <inkscape:grid
       type="xygrid"
       id="grid833"
       units="in"
       spacingx="25.4"
       spacingy="25.4" />
  </sodipodi:namedview>
  <metadata
     id="metadata5">
    <rdf:RDF>
      <cc:Work
         rdf:about="">
        <dc:format>image/svg+xml</dc:format>
        <dc:type
           rdf:resource="http://purl.org/dc/dcmitype/StillImage" />
        <dc:title />
      </cc:Work>
    </rdf:RDF>
  </metadata>
  <g
     inkscape:label="Layer 1"
     inkscape:groupmode="layer"
     id="layer1">
    <g
       style="font-size:1066.8px;line-height:1.25;font-family:Cornerstone;-inkscape-font-specification:Cornerstone;fill:none;stroke:#000000;stroke-width:1.27;stroke-miterlimit:4;stroke-dasharray:none;stroke-opacity:1"
       id="text837"
       aria-label="S">
      <path
         id="path7628"
         style="fill:none;stroke:#000000;stroke-width:1.27;stroke-miterlimit:4;stroke-dasharray:none;stroke-opacity:1"
         d="m 326.79291,247.27617 q 0,-26.04492 0,-77.09297 -51.04805,0 -154.18594,0 0,51.04805 0,154.18594 77.09297,0 231.27891,0 31.25391,0 54.17344,21.87774 21.87774,22.91953 21.87774,54.17344 0,103.13789 0,307.33009 0,32.29571 -21.87774,54.17344 -22.91953,22.91953 -54.17344,22.91953 -103.13789,0 -307.33009,0 -32.295704,0 -54.17344,-22.91953 -22.919532,-21.87773 -22.919532,-54.17344 0,-51.04805 0,-153.14415 51.048049,0 153.144152,0 0,25.00313 0,77.09298 52.08984,0 154.18594,0 0,-52.08985 0,-154.18595 -77.09297,0 -230.23712,0 -32.295704,0 -54.17344,-21.87773 -22.919532,-22.91954 -22.919532,-55.21524 0,-51.04805 0,-128.14102 0,-77.09297 0,-179.189073 0,-31.253908 22.919532,-54.17344 21.877736,-21.877735 54.17344,-21.877735 102.0961,0 307.33009,0 31.25391,0 54.17344,21.877735 21.87774,22.919532 21.87774,54.17344 0,52.089843 0,154.185943 -51.04805,0 -153.14415,0 z" />
    </g>
    <g
       style="font-size:1066.8px;line-height:1.25;font-family:Cornerstone;-inkscape-font-specification:Cornerstone;fill:none;stroke:#000000;stroke-width:1.27;stroke-miterlimit:4;stroke-dasharray:none;stroke-opacity:1"
       id="text837-4"
       aria-label="A">
      <path
         id="path7625"
         style="fill:none;stroke:#000000;stroke-width:1.27;stroke-miterlimit:4;stroke-dasharray:none;stroke-opacity:1"
         d="m 971.78271,787.77588 q -51.04805,0 -153.14415,0 0,-102.0961 0,-307.33009 -51.04805,0 -154.18594,0 0,102.0961 0,307.33009 -51.04805,0 -153.14415,0 0,-86.46915 0,-260.44923 0,-71.88399 0,-179.18907 0,-108.34688 0,-252.114858 0,-31.253907 22.91953,-54.17344 21.87774,-21.877735 54.17344,-21.877735 102.0961,0 307.3301,0 31.2539,0 54.17344,21.877735 21.87773,22.919533 21.87773,54.17344 0,231.278918 0,691.753158 z M 818.63856,327.30164 q 0,-9.37617 0,-27.08672 0,-42.71367 0,-127.09923 -51.04805,0 -154.18594,0 0,51.04805 0,154.18595 52.08985,0 154.18594,0 z" />
    </g>
    <g
       style="font-size:1066.8px;line-height:1.25;font-family:Cornerstone;-inkscape-font-specification:Cornerstone;fill:none;stroke:#000000;stroke-width:1.27;stroke-miterlimit:4;stroke-dasharray:none;stroke-opacity:1"
       id="text837-7"
       aria-label="R">
      <path
         id="path7622"
         style="fill:none;stroke:#000000;stroke-width:1.27;stroke-miterlimit:4;stroke-dasharray:none;stroke-opacity:1"
         d="m 1397.5061,408.54105 q 31.2539,0 54.1734,22.91953 21.8777,21.87773 21.8777,54.17344 0,102.0961 0,307.33009 -51.048,0 -153.1441,0 0,-102.0961 0,-307.33009 -51.048,0 -154.1859,0 0,102.0961 0,307.33009 -51.0481,0 -153.1442,0 0,-102.0961 0,-307.33009 0,-51.04805 0,-153.14415 0,-51.04805 0,-128.14102 0,-77.09297 0,-179.189071 51.0481,0 153.1442,0 77.0929,0 231.2789,0 31.2539,0 54.1734,21.877736 21.8777,22.919532 21.8777,54.173435 0,77.09298 0,231.27892 0,31.25391 -21.8777,54.17344 -22.9195,21.87774 -54.1734,21.87774 z m -77.093,-76.05118 q 0,-9.37617 0,-27.08672 0,-42.71367 0,-127.09922 -51.048,0 -154.1859,0 0,51.04805 0,154.18594 52.0898,0 154.1859,0 z" />
    </g>
    <g
       style="font-size:1066.8px;line-height:1.25;font-family:Cornerstone;-inkscape-font-specification:Cornerstone;fill:none;stroke:#000000;stroke-width:1.27;stroke-miterlimit:4;stroke-dasharray:none;stroke-opacity:1"
       id="text837-1"
       transform="rotate(-90)" />
    <g
       style="font-size:1066.8px;line-height:1.25;font-family:Cornerstone;-inkscape-font-specification:Cornerstone;fill:none;stroke:#000000;stroke-width:1.27;stroke-miterlimit:4;stroke-dasharray:none;stroke-opacity:1"
       id="text837-9"
       transform="rotate(-90)" />
    <path
       d="m 1335.5287,164.82428 a 3.0238094,3.0238094 0 0 1 -3.0238,3.02381 3.0238094,3.0238094 0 0 1 -3.0238,-3.02381 3.0238094,3.0238094 0 0 1 3.0238,-3.02381 3.0238094,3.0238094 0 0 1 3.0238,3.02381"
       style="fill:none;stroke:#000000;stroke-width:1.27;stroke-miterlimit:4;stroke-dasharray:none"
       id="path36-7-7-3" />
    <path
       d="m 1156.1762,165.25572 a 3.0238094,3.0238094 0 0 1 -3.0239,3.02381 3.0238094,3.0238094 0 0 1 -3.0238,-3.02381 3.0238094,3.0238094 0 0 1 3.0238,-3.02381 3.0238094,3.0238094 0 0 1 3.0239,3.02381"
       style="fill:none;stroke:#000000;stroke-width:1.27;stroke-miterlimit:4;stroke-dasharray:none"
       id="path36-0-2-1-2" />
    <path
       d="m 1335.4934,344.2247 a 3.0238094,3.0238094 0 0 1 -3.0238,3.02381 3.0238094,3.0238094 0 0 1 -3.0238,-3.02381 3.0238094,3.0238094 0 0 1 3.0238,-3.02381 3.0238094,3.0238094 0 0 1 3.0238,3.02381"
       style="fill:none;stroke:#000000;stroke-width:1.27;stroke-miterlimit:4;stroke-dasharray:none"
       id="path36-7-7-8-7" />
    <path
       d="m 1156.141,344.65619 a 3.0238094,3.0238094 0 0 1 -3.0238,3.02381 3.0238094,3.0238094 0 0 1 -3.0238,-3.02381 3.0238094,3.0238094 0 0 1 3.0238,-3.02381 3.0238094,3.0238094 0 0 1 3.0238,3.02381"
       style="fill:none;stroke:#000000;stroke-width:1.27;stroke-miterlimit:4;stroke-dasharray:none"
       id="path36-0-2-1-6-6" />
    <path
       d="m 36.396299,90.143135 a 3.0238094,3.0238094 0 0 1 -3.023809,3.02381 3.0238094,3.0238094 0 0 1 -3.02381,-3.02381 3.0238094,3.0238094 0 0 1 3.02381,-3.023809 3.0238094,3.0238094 0 0 1 3.023809,3.023809"
       style="fill:none;stroke:#000000;stroke-width:1.27;stroke-miterlimit:4;stroke-dasharray:none"
       id="circle1563-94-9" />
    <path
       d="m 94.796812,29.919531 a 3.0238094,3.0238094 0 0 1 -3.023809,3.023809 3.0238094,3.0238094 0 0 1 -3.02381,-3.023809 3.0238094,3.0238094 0 0 1 3.02381,-3.02381 3.0238094,3.0238094 0 0 1 3.023809,3.02381"
       style="fill:none;stroke:#000000;stroke-width:1.27;stroke-miterlimit:4;stroke-dasharray:none"
       id="circle1565-3-2" />
    <path
       d="m -464.38497,92.234894 a 3.0238094,3.0238094 0 0 1 -3.02381,3.023809 3.0238094,3.0238094 0 0 1 -3.02381,-3.023809 3.0238094,3.0238094 0 0 1 3.02381,-3.02381 3.0238094,3.0238094 0 0 1 3.02381,3.02381"
       transform="scale(-1,1)"
       style="fill:none;stroke:#000000;stroke-width:1.27;stroke-miterlimit:4;stroke-dasharray:none"
       id="circle1563-94-9-7" />
    <path
       d="m -405.98446,32.011292 a 3.0238094,3.0238094 0 0 1 -3.02381,3.023809 3.0238094,3.0238094 0 0 1 -3.02381,-3.023809 3.0238094,3.0238094 0 0 1 3.02381,-3.02381 3.0238094,3.0238094 0 0 1 3.02381,3.02381"
       transform="scale(-1,1)"
       style="fill:none;stroke:#000000;stroke-width:1.27;stroke-miterlimit:4;stroke-dasharray:none"
       id="circle1565-3-2-3" />
    <path
       d="m 412.57325,771.59583 a 3.0238094,3.0238094 0 0 1 -3.02381,3.0238 3.0238094,3.0238094 0 0 1 -3.02381,-3.0238 3.0238094,3.0238094 0 0 1 3.02381,-3.02381 3.0238094,3.0238094 0 0 1 3.02381,3.02381"
       style="fill:none;stroke:#000000;stroke-width:1.27;stroke-miterlimit:4;stroke-dasharray:none"
       id="circle1563-94-9-4" />
    <path
       d="m 470.97376,711.37219 a 3.0238094,3.0238094 0 0 1 -3.02381,3.02381 3.0238094,3.0238094 0 0 1 -3.02381,-3.02381 3.0238094,3.0238094 0 0 1 3.02381,-3.02381 3.0238094,3.0238094 0 0 1 3.02381,3.02381"
       style="fill:none;stroke:#000000;stroke-width:1.27;stroke-miterlimit:4;stroke-dasharray:none"
       id="circle1565-3-2-1" />
    <path
       d="m -88.891657,466.36639 a 3.0238094,3.0238094 0 0 1 -3.023809,3.02381 3.0238094,3.0238094 0 0 1 -3.02381,-3.02381 3.0238094,3.0238094 0 0 1 3.02381,-3.02381 3.0238094,3.0238094 0 0 1 3.023809,3.02381"
       transform="scale(-1,1)"
       style="fill:none;stroke:#000000;stroke-width:1.27;stroke-miterlimit:4;stroke-dasharray:none"
       id="circle1563-94-9-40" />
    <path
       d="m -30.49114,406.14279 a 3.0238094,3.0238094 0 0 1 -3.02381,3.02381 3.0238094,3.0238094 0 0 1 -3.023809,-3.02381 3.0238094,3.0238094 0 0 1 3.023809,-3.02381 3.0238094,3.0238094 0 0 1 3.02381,3.02381"
       transform="scale(-1,1)"
       style="fill:none;stroke:#000000;stroke-width:1.27;stroke-miterlimit:4;stroke-dasharray:none"
       id="circle1565-3-2-40" />
    <path
       d="m -464.29986,398.72852 a 3.0238094,3.0238094 0 0 1 -3.02381,3.02381 3.0238094,3.0238094 0 0 1 -3.02381,-3.02381 3.0238094,3.0238094 0 0 1 3.02381,-3.02381 3.0238094,3.0238094 0 0 1 3.02381,3.02381"
       transform="scale(-1,1)"
       style="fill:none;stroke:#000000;stroke-width:1.27;stroke-miterlimit:4;stroke-dasharray:none"
       id="circle1563-94-9-64" />
    <path
       d="m -405.89935,338.50488 a 3.0238094,3.0238094 0 0 1 -3.02381,3.02381 3.0238094,3.0238094 0 0 1 -3.02381,-3.02381 3.0238094,3.0238094 0 0 1 3.02381,-3.02381 3.0238094,3.0238094 0 0 1 3.02381,3.02381"
       transform="scale(-1,1)"
       style="fill:none;stroke:#000000;stroke-width:1.27;stroke-miterlimit:4;stroke-dasharray:none"
       id="circle1565-3-2-8" />
    <path
       d="m -87.469103,773.35834 a 3.0238094,3.0238094 0 0 1 -3.023809,3.02381 3.0238094,3.0238094 0 0 1 -3.02381,-3.02381 3.0238094,3.0238094 0 0 1 3.02381,-3.02381 3.0238094,3.0238094 0 0 1 3.023809,3.02381"
       transform="scale(-1,1)"
       style="fill:none;stroke:#000000;stroke-width:1.27;stroke-miterlimit:4;stroke-dasharray:none"
       id="circle1563-94-9-0" />
    <path
       d="m -29.068594,713.13477 a 3.0238094,3.0238094 0 0 1 -3.023809,3.02381 3.0238094,3.0238094 0 0 1 -3.02381,-3.02381 3.0238094,3.0238094 0 0 1 3.02381,-3.02381 3.0238094,3.0238094 0 0 1 3.023809,3.02381"
       transform="scale(-1,1)"
       style="fill:none;stroke:#000000;stroke-width:1.27;stroke-miterlimit:4;stroke-dasharray:none"
       id="circle1565-3-2-6" />
    <path
       d="m 1405.923,393.73199 a 3.0238094,3.0238094 0 0 1 -3.0238,3.02381 3.0238094,3.0238094 0 0 1 -3.0238,-3.02381 3.0238094,3.0238094 0 0 1 3.0238,-3.0238 3.0238094,3.0238094 0 0 1 3.0238,3.0238"
       style="fill:none;stroke:#000000;stroke-width:1.27;stroke-miterlimit:4;stroke-dasharray:none"
       id="circle1563-94-9-3" />
    <path
       d="m 1464.3235,333.50839 a 3.0238094,3.0238094 0 0 1 -3.0238,3.02381 3.0238094,3.0238094 0 0 1 -3.0238,-3.02381 3.0238094,3.0238094 0 0 1 3.0238,-3.02381 3.0238094,3.0238094 0 0 1 3.0238,3.02381"
       style="fill:none;stroke:#000000;stroke-width:1.27;stroke-miterlimit:4;stroke-dasharray:none"
       id="circle1565-3-2-5" />
    <path
       d="m -1458.6254,482.59464 a 3.0238094,3.0238094 0 0 1 -3.0238,3.0238 3.0238094,3.0238094 0 0 1 -3.0238,-3.0238 3.0238094,3.0238094 0 0 1 3.0238,-3.02381 3.0238094,3.0238094 0 0 1 3.0238,3.02381"
       transform="scale(-1,1)"
       style="fill:none;stroke:#000000;stroke-width:1.27;stroke-miterlimit:4;stroke-dasharray:none"
       id="circle1563-94-9-04" />
    <path
       d="m -1400.2248,422.37103 a 3.0238094,3.0238094 0 0 1 -3.0239,3.02381 3.0238094,3.0238094 0 0 1 -3.0238,-3.02381 3.0238094,3.0238094 0 0 1 3.0238,-3.02381 3.0238094,3.0238094 0 0 1 3.0239,3.02381"
       transform="scale(-1,1)"
       style="fill:none;stroke:#000000;stroke-width:1.27;stroke-miterlimit:4;stroke-dasharray:none"
       id="circle1565-3-2-9" />
    <path
       d="m -1458.0337,99.300758 a 3.0238094,3.0238094 0 0 1 -3.0238,3.023812 3.0238094,3.0238094 0 0 1 -3.0238,-3.023812 3.0238094,3.0238094 0 0 1 3.0238,-3.023809 3.0238094,3.0238094 0 0 1 3.0238,3.023809"
       transform="scale(-1,1)"
       style="fill:none;stroke:#000000;stroke-width:1.27;stroke-miterlimit:4;stroke-dasharray:none"
       id="circle1563-94-9-1" />
    <path
       d="m -1399.6332,39.07716 a 3.0238094,3.0238094 0 0 1 -3.0238,3.023809 3.0238094,3.0238094 0 0 1 -3.0238,-3.023809 3.0238094,3.0238094 0 0 1 3.0238,-3.02381 3.0238094,3.0238094 0 0 1 3.0238,3.02381"
       transform="scale(-1,1)"
       style="fill:none;stroke:#000000;stroke-width:1.27;stroke-miterlimit:4;stroke-dasharray:none"
       id="circle1565-3-2-33" />
    <g
       id="g3127"
       transform="rotate(90,977.25705,306.65307)">
      <path
         d="m -254.67043,708.65387 a 3.0238094,3.0238094 0 0 1 -3.02381,3.02381 3.0238094,3.0238094 0 0 1 -3.02381,-3.02381 3.0238094,3.0238094 0 0 1 3.02381,-3.02381 3.0238094,3.0238094 0 0 1 3.02381,3.02381"
         transform="rotate(-90)"
         style="fill:none;stroke:#000000;stroke-width:1.27;stroke-miterlimit:4;stroke-dasharray:none"
         id="path36-0-2-1-6-3-4" />
      <path
         d="m -254.31436,1451.1995 a 3.0238094,3.0238094 0 0 1 -3.02381,3.0238 3.0238094,3.0238094 0 0 1 -3.0238,-3.0238 3.0238094,3.0238094 0 0 1 3.0238,-3.0238 3.0238094,3.0238094 0 0 1 3.02381,3.0238"
         transform="rotate(-90)"
         style="fill:none;stroke:#000000;stroke-width:1.27;stroke-miterlimit:4;stroke-dasharray:none"
         id="path36-0-2-1-6-956-9" />
      <path
         d="m -255.35415,879.97491 a 3.0238094,3.0238094 0 0 1 -3.02381,3.02381 3.0238094,3.0238094 0 0 1 -3.02381,-3.02381 3.0238094,3.0238094 0 0 1 3.02381,-3.0238 3.0238094,3.0238094 0 0 1 3.02381,3.0238"
         transform="rotate(-90)"
         style="fill:none;stroke:#000000;stroke-width:1.27;stroke-miterlimit:4;stroke-dasharray:none"
         id="path36-0-2-1-6-7-0-8" />
      <path
         d="m -255.12612,1262.4374 a 3.0238094,3.0238094 0 0 1 -3.02381,3.0238 3.0238094,3.0238094 0 0 1 -3.02381,-3.0238 3.0238094,3.0238094 0 0 1 3.02381,-3.0238 3.0238094,3.0238094 0 0 1 3.02381,3.0238"
         transform="rotate(-90)"
         style="fill:none;stroke:#000000;stroke-width:1.27;stroke-miterlimit:4;stroke-dasharray:none"
         id="path36-0-2-1-6-41-1-9" />
      <path
         d="m -255.12612,1075.3016 a 3.0238094,3.0238094 0 0 1 -3.02381,3.0238 3.0238094,3.0238094 0 0 1 -3.02381,-3.0238 3.0238094,3.0238094 0 0 1 3.02381,-3.0238 3.0238094,3.0238094 0 0 1 3.02381,3.0238"
         transform="rotate(-90)"
         style="fill:none;stroke:#000000;stroke-width:1.27;stroke-miterlimit:4;stroke-dasharray:none"
         id="path36-0-2-1-6-770-1-3" />
    </g>
    <g
       transform="rotate(90,837.73761,503.12556)"
       id="g7376">
      <path
         d="m 678.75621,507.90386 a 3.0238094,3.0238094 0 0 1 -3.02379,3.0238 3.0238094,3.0238094 0 0 1 -3.02382,-3.0238 3.0238094,3.0238094 0 0 1 3.02382,-3.02381 3.0238094,3.0238094 0 0 1 3.02379,3.02381"
         style="fill:none;stroke:#000000;stroke-width:1.27;stroke-miterlimit:4;stroke-dasharray:none"
         id="path36-7-7-4"
         inkscape:connector-curvature="0" />
      <path
         d="m 499.40381,507.80614 a 3.0238094,3.0238094 0 0 1 -3.0238,3.02381 3.0238094,3.0238094 0 0 1 -3.0238,-3.02381 3.0238094,3.0238094 0 0 1 3.0238,-3.02381 3.0238094,3.0238094 0 0 1 3.0238,3.02381"
         style="fill:none;stroke:#000000;stroke-width:1.27;stroke-miterlimit:4;stroke-dasharray:none"
         id="path36-0-2-1-63"
         inkscape:connector-curvature="0" />
      <path
         d="m 678.72113,687.3042 a 3.0238094,3.0238094 0 0 1 -3.02382,3.02382 3.0238094,3.0238094 0 0 1 -3.02379,-3.02382 3.0238094,3.0238094 0 0 1 3.02379,-3.02379 3.0238094,3.0238094 0 0 1 3.02382,3.02379"
         style="fill:none;stroke:#000000;stroke-width:1.27;stroke-miterlimit:4;stroke-dasharray:none"
         id="path36-7-7-8-7-4"
         inkscape:connector-curvature="0" />
      <path
         d="m 499.36872,687.20652 a 3.0238094,3.0238094 0 0 1 -3.0239,3.02379 3.0238094,3.0238094 0 0 1 -3.02381,-3.02379 3.0238094,3.0238094 0 0 1 3.02381,-3.02383 3.0238094,3.0238094 0 0 1 3.0239,3.02383"
         style="fill:none;stroke:#000000;stroke-width:1.27;stroke-miterlimit:4;stroke-dasharray:none"
         id="path36-0-2-1-6-84"
         inkscape:connector-curvature="0" />
      <path
         d="m 371.76831,440.42711 a 3.0238094,3.0238094 0 0 1 -3.0238,3.02381 3.0238094,3.0238094 0 0 1 -3.0238,-3.02381 3.0238094,3.0238094 0 0 1 3.0238,-3.02381 3.0238094,3.0238094 0 0 1 3.0238,3.02381"
         style="fill:none;stroke:#000000;stroke-width:1.27;stroke-miterlimit:4;stroke-dasharray:none"
         id="circle1563-94-9-9"
         inkscape:connector-curvature="0" />
      <path
         d="m 430.16881,380.20354 a 3.0238094,3.0238094 0 0 1 -3.0238,3.02381 3.0238094,3.0238094 0 0 1 -3.0238,-3.02381 3.0238094,3.0238094 0 0 1 3.0238,-3.02381 3.0238094,3.0238094 0 0 1 3.0238,3.02381"
         style="fill:none;stroke:#000000;stroke-width:1.27;stroke-miterlimit:4;stroke-dasharray:none"
         id="circle1565-3-2-0"
         inkscape:connector-curvature="0" />
      <path
         d="m 424.12121,816.56531 a 3.0238094,3.0238094 0 0 0 3.0238,3.02381 3.0238094,3.0238094 0 0 0 3.0238,-3.02381 3.0238094,3.0238094 0 0 0 -3.0238,-3.02379 3.0238094,3.0238094 0 0 0 -3.0238,3.02379"
         style="fill:none;stroke:#000000;stroke-width:1.27;stroke-miterlimit:4;stroke-dasharray:none"
         id="circle1563-94-9-3-6"
         inkscape:connector-curvature="0" />
      <path
         d="m 365.72071,756.34172 a 3.0238094,3.0238094 0 0 0 3.0238,3.02379 3.0238094,3.0238094 0 0 0 3.0238,-3.02379 3.0238094,3.0238094 0 0 0 -3.0238,-3.02389 3.0238094,3.0238094 0 0 0 -3.0238,3.02389"
         style="fill:none;stroke:#000000;stroke-width:1.27;stroke-miterlimit:4;stroke-dasharray:none"
         id="circle1565-3-2-01"
         inkscape:connector-curvature="0" />
      <path
         d="m 1113.7003,381.03093 a 3.0238094,3.0238094 0 0 1 -3.0238,3.0238 3.0238094,3.0238094 0 0 1 -3.0238,-3.0238 3.0238094,3.0238094 0 0 1 3.0238,-3.0238 3.0238094,3.0238094 0 0 1 3.0238,3.0238"
         style="fill:none;stroke:#000000;stroke-width:1.27;stroke-miterlimit:4;stroke-dasharray:none"
         id="path36-0-2-1-6-3-4-1-2-78"
         inkscape:connector-curvature="0" />
      <path
         d="m 762.20532,380.35296 a 3.0238094,3.0238094 0 0 1 -3.02379,3.02381 3.0238094,3.0238094 0 0 1 -3.02382,-3.02381 3.0238094,3.0238094 0 0 1 3.02382,-3.02381 3.0238094,3.0238094 0 0 1 3.02379,3.02381"
         style="fill:none;stroke:#000000;stroke-width:1.27;stroke-miterlimit:4;stroke-dasharray:none"
         id="path36-0-2-1-6-3-4-1-2-99"
         inkscape:connector-curvature="0" />
      <path
         d="m 934.11224,381.10045 a 3.0238094,3.0238094 0 0 1 -3.02382,3.02381 3.0238094,3.0238094 0 0 1 -3.02379,-3.02381 3.0238094,3.0238094 0 0 1 3.02379,-3.02382 3.0238094,3.0238094 0 0 1 3.02382,3.02382"
         style="fill:none;stroke:#000000;stroke-width:1.27;stroke-miterlimit:4;stroke-dasharray:none"
         id="path36-0-2-1-6-3-4-1-2-4"
         inkscape:connector-curvature="0" />
      <path
         d="m 586.56131,381.10039 a 3.0238094,3.0238094 0 0 1 -3.0238,3.02381 3.0238094,3.0238094 0 0 1 -3.0238,-3.02381 3.0238094,3.0238094 0 0 1 3.0238,-3.02381 3.0238094,3.0238094 0 0 1 3.0238,3.02381"
         style="fill:none;stroke:#000000;stroke-width:1.27;stroke-miterlimit:4;stroke-dasharray:none"
         id="path36-0-2-1-6-3-4-1-2-3"
         inkscape:connector-curvature="0" />
      <path
         d="m 807.09222,511.89916 a 3.0238094,3.0238094 0 0 1 -3.02381,3.0238 3.0238094,3.0238094 0 0 1 -3.0239,-3.0238 3.0238094,3.0238094 0 0 1 3.0239,-3.02381 3.0238094,3.0238094 0 0 1 3.02381,3.02381"
         style="fill:none;stroke:#000000;stroke-width:1.27;stroke-miterlimit:4;stroke-dasharray:none"
         id="path36-0-2-1-6-3-4-1-2-89"
         inkscape:connector-curvature="0" />
      <path
         d="m 1114.2409,508.16204 a 3.0238094,3.0238094 0 0 1 -3.0239,3.0239 3.0238094,3.0238094 0 0 1 -3.0238,-3.0239 3.0238094,3.0238094 0 0 1 3.0238,-3.0238 3.0238094,3.0238094 0 0 1 3.0239,3.0238"
         style="fill:none;stroke:#000000;stroke-width:1.27;stroke-miterlimit:4;stroke-dasharray:none"
         id="path36-0-2-1-6-3-4-1-2-2"
         inkscape:connector-curvature="0" />
      <path
         d="m 808.15032,688.35172 a 3.0238094,3.0238094 0 0 1 -3.02382,3.02379 3.0238094,3.0238094 0 0 1 -3.02379,-3.02379 3.0238094,3.0238094 0 0 1 3.02379,-3.02378 3.0238094,3.0238094 0 0 1 3.02382,3.02378"
         style="fill:none;stroke:#000000;stroke-width:1.27;stroke-miterlimit:4;stroke-dasharray:none"
         id="circle3381"
         inkscape:connector-curvature="0" />
      <path
         d="m 1113.2501,690.03761 a 3.0238094,3.0238094 0 0 1 -3.0238,3.0238 3.0238094,3.0238094 0 0 1 -3.0238,-3.0238 3.0238094,3.0238094 0 0 1 3.0238,-3.0238 3.0238094,3.0238094 0 0 1 3.0238,3.0238"
         style="fill:none;stroke:#000000;stroke-width:1.27;stroke-miterlimit:4;stroke-dasharray:none"
         id="circle3392"
         inkscape:connector-curvature="0" />
      <path
         d="m 970.51482,690.60851 a 3.0238094,3.0238094 0 0 1 -3.02379,3.02382 3.0238094,3.0238094 0 0 1 -3.02382,-3.02382 3.0238094,3.0238094 0 0 1 3.02382,-3.02378 3.0238094,3.0238094 0 0 1 3.02379,3.02378"
         style="fill:none;stroke:#000000;stroke-width:1.27;stroke-miterlimit:4;stroke-dasharray:none"
         id="circle3394"
         inkscape:connector-curvature="0" />
      <path
         d="m 970.51481,509.62016 a 3.0238094,3.0238094 0 0 1 -3.02378,3.02381 3.0238094,3.0238094 0 0 1 -3.02382,-3.02381 3.0238094,3.0238094 0 0 1 3.02382,-3.02381 3.0238094,3.0238094 0 0 1 3.02378,3.02381"
         style="fill:none;stroke:#000000;stroke-width:1.27;stroke-miterlimit:4;stroke-dasharray:none"
         id="circle3396"
         inkscape:connector-curvature="0" />
      <path
         d="m 1113.7003,817.25831 a 3.0238094,3.0238094 0 0 1 -3.0238,3.0238 3.0238094,3.0238094 0 0 1 -3.0238,-3.0238 3.0238094,3.0238094 0 0 1 3.0238,-3.0238 3.0238094,3.0238094 0 0 1 3.0238,3.0238"
         style="fill:none;stroke:#000000;stroke-width:1.27;stroke-miterlimit:4;stroke-dasharray:none"
         id="circle3398"
         inkscape:connector-curvature="0" />
      <path
         d="m 762.20532,816.58031 a 3.0238094,3.0238094 0 0 1 -3.02379,3.02382 3.0238094,3.0238094 0 0 1 -3.02382,-3.02382 3.0238094,3.0238094 0 0 1 3.02382,-3.02379 3.0238094,3.0238094 0 0 1 3.02379,3.02379"
         style="fill:none;stroke:#000000;stroke-width:1.27;stroke-miterlimit:4;stroke-dasharray:none"
         id="circle3400"
         inkscape:connector-curvature="0" />
      <path
         d="m 934.11223,817.32792 a 3.0238094,3.0238094 0 0 1 -3.02382,3.02379 3.0238094,3.0238094 0 0 1 -3.02379,-3.02379 3.0238094,3.0238094 0 0 1 3.02379,-3.0239 3.0238094,3.0238094 0 0 1 3.02382,3.0239"
         style="fill:none;stroke:#000000;stroke-width:1.27;stroke-miterlimit:4;stroke-dasharray:none"
         id="circle3402"
         inkscape:connector-curvature="0" />
      <path
         d="m 586.5613,817.32771 a 3.0238094,3.0238094 0 0 1 -3.0238,3.02382 3.0238094,3.0238094 0 0 1 -3.0238,-3.02382 3.0238094,3.0238094 0 0 1 3.0238,-3.02379 3.0238094,3.0238094 0 0 1 3.0238,3.02379"
         style="fill:none;stroke:#000000;stroke-width:1.27;stroke-miterlimit:4;stroke-dasharray:none"
         id="circle3404"
         inkscape:connector-curvature="0" />
      <path
         inkscape:connector-curvature="0"
         id="path6974"
         style="fill:none;stroke:#000000;stroke-width:1.27;stroke-miterlimit:4;stroke-dasharray:none"
         d="m 371.98901,600.18189 a 3.0238094,3.0238094 0 0 1 -3.0238,3.02381 3.0238094,3.0238094 0 0 1 -3.0238,-3.02381 3.0238094,3.0238094 0 0 1 3.0238,-3.02381 3.0238094,3.0238094 0 0 1 3.0238,3.02381" />
    </g>
    <path
       d="m -246.63908,29.663681 a 3.0238094,3.0238094 0 0 1 -3.02381,3.023809 3.0238094,3.0238094 0 0 1 -3.02381,-3.023809 3.0238094,3.0238094 0 0 1 3.02381,-3.023809 3.0238094,3.0238094 0 0 1 3.02381,3.023809"
       transform="scale(-1,1)"
       style="fill:none;stroke:#000000;stroke-width:1.27;stroke-miterlimit:4;stroke-dasharray:none"
       id="circle1563-94-9-7-9" />
    <path
       d="m -28.681906,242.98346 a 3.0238094,3.0238094 0 0 1 -3.023809,3.02381 3.0238094,3.0238094 0 0 1 -3.02381,-3.02381 3.0238094,3.0238094 0 0 1 3.02381,-3.02381 3.0238094,3.0238094 0 0 1 3.023809,3.02381"
       transform="scale(-1,1)"
       style="fill:none;stroke:#000000;stroke-width:1.27;stroke-miterlimit:4;stroke-dasharray:none"
       id="circle1563-94-9-7-91" />
    <path
       d="m -282.19238,336.50409 a 3.0238094,3.0238094 0 0 1 -3.02381,3.02381 3.0238094,3.0238094 0 0 1 -3.02381,-3.02381 3.0238094,3.0238094 0 0 1 3.02381,-3.02381 3.0238094,3.0238094 0 0 1 3.02381,3.02381"
       transform="scale(-1,1)"
       style="fill:none;stroke:#000000;stroke-width:1.27;stroke-miterlimit:4;stroke-dasharray:none"
       id="circle1563-94-9-7-4" />
    <path
       d="m -158.52873,331.8667 a 3.0238094,3.0238094 0 0 1 -3.02381,3.02381 3.0238094,3.0238094 0 0 1 -3.02381,-3.02381 3.0238094,3.0238094 0 0 1 3.02381,-3.02381 3.0238094,3.0238094 0 0 1 3.02381,3.02381"
       transform="scale(-1,1)"
       style="fill:none;stroke:#000000;stroke-width:1.27;stroke-miterlimit:4;stroke-dasharray:none"
       id="circle1563-94-9-7-7" />
    <path
       d="m -162.39321,157.1918 a 3.0238094,3.0238094 0 0 1 -3.02381,3.02381 3.0238094,3.0238094 0 0 1 -3.02381,-3.02381 3.0238094,3.0238094 0 0 1 3.02381,-3.02381 3.0238094,3.0238094 0 0 1 3.02381,3.02381"
       transform="scale(-1,1)"
       style="fill:none;stroke:#000000;stroke-width:1.27;stroke-miterlimit:4;stroke-dasharray:none"
       id="circle1563-94-9-7-45" />
    <path
       d="m -335.5223,158.73761 a 3.0238094,3.0238094 0 0 1 -3.02381,3.02381 3.0238094,3.0238094 0 0 1 -3.02381,-3.02381 3.0238094,3.0238094 0 0 1 3.02381,-3.02381 3.0238094,3.0238094 0 0 1 3.02381,3.02381"
       transform="scale(-1,1)"
       style="fill:none;stroke:#000000;stroke-width:1.27;stroke-miterlimit:4;stroke-dasharray:none"
       id="circle1563-94-9-7-6" />
    <path
       d="m -336.29522,235.25449 a 3.0238094,3.0238094 0 0 1 -3.02381,3.02381 3.0238094,3.0238094 0 0 1 -3.02381,-3.02381 3.0238094,3.0238094 0 0 1 3.02381,-3.02381 3.0238094,3.0238094 0 0 1 3.02381,3.02381"
       transform="scale(-1,1)"
       style="fill:none;stroke:#000000;stroke-width:1.27;stroke-miterlimit:4;stroke-dasharray:none"
       id="circle1563-94-9-7-97" />
    <path
       d="m -463.05044,233.70869 a 3.0238094,3.0238094 0 0 1 -3.02381,3.02381 3.0238094,3.0238094 0 0 1 -3.02381,-3.02381 3.0238094,3.0238094 0 0 1 3.02381,-3.0238 3.0238094,3.0238094 0 0 1 3.02381,3.0238"
       transform="scale(-1,1)"
       style="fill:none;stroke:#000000;stroke-width:1.27;stroke-miterlimit:4;stroke-dasharray:none"
       id="circle1563-94-9-7-3" />
    <path
       d="m -236.02973,771.11737 a 3.0238094,3.0238094 0 0 1 -3.02381,3.02381 3.0238094,3.0238094 0 0 1 -3.02381,-3.02381 3.0238094,3.0238094 0 0 1 3.02381,-3.02381 3.0238094,3.0238094 0 0 1 3.02381,3.02381"
       transform="scale(-1,1)"
       style="fill:none;stroke:#000000;stroke-width:1.27;stroke-miterlimit:4;stroke-dasharray:none"
       id="circle1563-94-9-7-5" />
    <path
       d="m -464.80746,559.34338 a 3.0238094,3.0238094 0 0 1 -3.02381,3.02381 3.0238094,3.0238094 0 0 1 -3.02381,-3.02381 3.0238094,3.0238094 0 0 1 3.02381,-3.02381 3.0238094,3.0238094 0 0 1 3.02381,3.02381"
       transform="scale(-1,1)"
       style="fill:none;stroke:#000000;stroke-width:1.27;stroke-miterlimit:4;stroke-dasharray:none"
       id="circle1563-94-9-7-0" />
    <path
       d="m -30.438936,570.164 a 3.0238094,3.0238094 0 0 1 -3.02381,3.02381 3.0238094,3.0238094 0 0 1 -3.023809,-3.02381 3.0238094,3.0238094 0 0 1 3.023809,-3.02381 3.0238094,3.0238094 0 0 1 3.02381,3.02381"
       transform="scale(-1,1)"
       style="fill:none;stroke:#000000;stroke-width:1.27;stroke-miterlimit:4;stroke-dasharray:none"
       id="circle1563-94-9-7-62" />
    <path
       d="m -156.42127,569.39105 a 3.0238094,3.0238094 0 0 1 -3.02381,3.02381 3.0238094,3.0238094 0 0 1 -3.02381,-3.02381 3.0238094,3.0238094 0 0 1 3.02381,-3.02381 3.0238094,3.0238094 0 0 1 3.02381,3.02381"
       transform="scale(-1,1)"
       style="fill:none;stroke:#000000;stroke-width:1.27;stroke-miterlimit:4;stroke-dasharray:none"
       id="circle1563-94-9-7-76" />
    <path
       d="m -157.96707,645.13507 a 3.0238094,3.0238094 0 0 1 -3.02381,3.02381 3.0238094,3.0238094 0 0 1 -3.0238,-3.02381 3.0238094,3.0238094 0 0 1 3.0238,-3.02381 3.0238094,3.0238094 0 0 1 3.02381,3.02381"
       transform="scale(-1,1)"
       style="fill:none;stroke:#000000;stroke-width:1.27;stroke-miterlimit:4;stroke-dasharray:none"
       id="circle1563-94-9-7-2" />
    <path
       d="m -333.41485,642.81635 a 3.0238094,3.0238094 0 0 1 -3.02381,3.0238 3.0238094,3.0238094 0 0 1 -3.02381,-3.0238 3.0238094,3.0238094 0 0 1 3.02381,-3.02381 3.0238094,3.0238094 0 0 1 3.02381,3.02381"
       transform="scale(-1,1)"
       style="fill:none;stroke:#000000;stroke-width:1.27;stroke-miterlimit:4;stroke-dasharray:none"
       id="circle1563-94-9-7-39" />
    <path
       d="m -209.75121,464.27698 a 3.0238094,3.0238094 0 0 1 -3.02381,3.02381 3.0238094,3.0238094 0 0 1 -3.02381,-3.02381 3.0238094,3.0238094 0 0 1 3.02381,-3.02381 3.0238094,3.0238094 0 0 1 3.02381,3.02381"
       transform="scale(-1,1)"
       style="fill:none;stroke:#000000;stroke-width:1.27;stroke-miterlimit:4;stroke-dasharray:none"
       id="circle1563-94-9-7-48" />
    <path
       d="m -334.18774,462.7312 a 3.0238094,3.0238094 0 0 1 -3.02381,3.02381 3.0238094,3.0238094 0 0 1 -3.02381,-3.02381 3.0238094,3.0238094 0 0 1 3.02381,-3.02381 3.0238094,3.0238094 0 0 1 3.02381,3.02381"
       transform="scale(-1,1)"
       style="fill:none;stroke:#000000;stroke-width:1.27;stroke-miterlimit:4;stroke-dasharray:none"
       id="circle1563-94-9-7-43" />
    <path
       d="m -1151.8956,472.52542 a 3.0238094,3.0238094 0 0 1 -3.0238,3.02381 3.0238094,3.0238094 0 0 1 -3.0238,-3.02381 3.0238094,3.0238094 0 0 1 3.0238,-3.02381 3.0238094,3.0238094 0 0 1 3.0238,3.02381"
       transform="scale(-1,1)"
       style="fill:none;stroke:#000000;stroke-width:1.27;stroke-miterlimit:4;stroke-dasharray:none"
       id="circle1563-94-9-7-77" />
    <path
       d="m -1329.8567,472.52542 a 3.0238094,3.0238094 0 0 1 -3.0238,3.02381 3.0238094,3.0238094 0 0 1 -3.0238,-3.02381 3.0238094,3.0238094 0 0 1 3.0238,-3.02381 3.0238094,3.0238094 0 0 1 3.0238,3.02381"
       transform="scale(-1,1)"
       style="fill:none;stroke:#000000;stroke-width:1.27;stroke-miterlimit:4;stroke-dasharray:none"
       id="circle1563-94-9-7-51" />
    <path
       d="m -1329.9342,639.23199 a 3.0238094,3.0238094 0 0 1 -3.0238,3.02381 3.0238094,3.0238094 0 0 1 -3.0238,-3.02381 3.0238094,3.0238094 0 0 1 3.0238,-3.0238 3.0238094,3.0238094 0 0 1 3.0238,3.0238"
       transform="scale(-1,1)"
       style="fill:none;stroke:#000000;stroke-width:1.27;stroke-miterlimit:4;stroke-dasharray:none"
       id="circle1563-94-9-7-626" />
    <path
       d="m -1457.9536,779.99011 a 3.0238094,3.0238094 0 0 1 -3.0238,3.02381 3.0238094,3.0238094 0 0 1 -3.0238,-3.02381 3.0238094,3.0238094 0 0 1 3.0238,-3.02381 3.0238094,3.0238094 0 0 1 3.0238,3.02381"
       transform="scale(-1,1)"
       style="fill:none;stroke:#000000;stroke-width:1.27;stroke-miterlimit:4;stroke-dasharray:none"
       id="circle1563-94-9-7-54" />
    <path
       d="m -1330.6376,779.99011 a 3.0238094,3.0238094 0 0 1 -3.0238,3.02381 3.0238094,3.0238094 0 0 1 -3.0238,-3.02381 3.0238094,3.0238094 0 0 1 3.0238,-3.02381 3.0238094,3.0238094 0 0 1 3.0238,3.02381"
       transform="scale(-1,1)"
       style="fill:none;stroke:#000000;stroke-width:1.27;stroke-miterlimit:4;stroke-dasharray:none"
       id="circle1563-94-9-7-29" />
    <path
       d="m -1459.3605,637.12177 a 3.0238094,3.0238094 0 0 1 -3.0238,3.0238 3.0238094,3.0238094 0 0 1 -3.0238,-3.0238 3.0238094,3.0238094 0 0 1 3.0238,-3.02381 3.0238094,3.0238094 0 0 1 3.0238,3.02381"
       transform="scale(-1,1)"
       style="fill:none;stroke:#000000;stroke-width:1.27;stroke-miterlimit:4;stroke-dasharray:none"
       id="circle1563-94-9-7-21" />
    <path
       d="m -1150.0953,628.60345 a 3.0238094,3.0238094 0 0 1 -3.0238,3.02381 3.0238094,3.0238094 0 0 1 -3.0239,-3.02381 3.0238094,3.0238094 0 0 1 3.0239,-3.0238 3.0238094,3.0238094 0 0 1 3.0238,3.0238"
       transform="scale(-1,1)"
       style="fill:none;stroke:#000000;stroke-width:1.27;stroke-miterlimit:4;stroke-dasharray:none"
       id="circle1563-94-9-7-40" />
    <path
       d="m -1150.7212,779.68024 a 3.0238094,3.0238094 0 0 1 -3.0238,3.02381 3.0238094,3.0238094 0 0 1 -3.0238,-3.02381 3.0238094,3.0238094 0 0 1 3.0238,-3.02381 3.0238094,3.0238094 0 0 1 3.0238,3.02381"
       transform="scale(-1,1)"
       style="fill:none;stroke:#000000;stroke-width:1.27;stroke-miterlimit:4;stroke-dasharray:none"
       id="circle1563-94-9-7-07" />
    <path
       d="m -1209.7218,37.5508 a 3.0238094,3.0238094 0 0 1 -3.0238,3.02381 3.0238094,3.0238094 0 0 1 -3.0238,-3.02381 3.0238094,3.0238094 0 0 1 3.0238,-3.023809 3.0238094,3.0238094 0 0 1 3.0238,3.023809"
       transform="scale(-1,1)"
       style="fill:none;stroke:#000000;stroke-width:1.27;stroke-miterlimit:4;stroke-dasharray:none"
       id="circle1563-94-9-7-70" />
    <path
       d="m -1458.759,224.48341 a 3.0238094,3.0238094 0 0 1 -3.0238,3.02381 3.0238094,3.0238094 0 0 1 -3.0238,-3.02381 3.0238094,3.0238094 0 0 1 3.0238,-3.02381 3.0238094,3.0238094 0 0 1 3.0238,3.02381"
       transform="scale(-1,1)"
       style="fill:none;stroke:#000000;stroke-width:1.27;stroke-miterlimit:4;stroke-dasharray:none"
       id="circle1563-94-9-7-55" />
  </g>
</svg>
