  0
SECTION
  2
HEADER
  9
$ACADVER
  1
AC1014
  9
$HANDSEED
  5
FFFF
  9
$MEASUREMENT
 70
     1
  0
ENDSEC
  0
SECTION
  2
TABLES
  0
TABLE
  2
VPORT
  5
8
330
0
100
AcDbSymbolTable
 70
     4
  0
VPORT
  5
2E
330
8
100
AcDbSymbolTableRecord
100
AcDbViewportTableRecord
  2
*ACTIVE
 70
     0
 10
0.0
 20
0.0
 11
1.0
 21
1.0
 12
210.0
 22
148.5
 13
0.0
 23
0.0
 14
10.0
 24
10.0
 15
10.0
 25
10.0
 16
0.0
 26
0.0
 36
1.0
 17
0.0
 27
0.0
 37
0.0
 40
341.0
 41
1.24
 42
50.0
 43
0.0
 44
0.0
 50
0.0
 51
0.0
 71
     0
 72
   100
 73
     1
 74
     3
 75
     0
 76
     0
 77
     0
 78
     0
  0
ENDTAB
  0
TABLE
  2
LTYPE
  5
5
330
0
100
AcDbSymbolTable
 70
     1
  0
LTYPE
  5
14
330
5
100
AcDbSymbolTableRecord
100
AcDbLinetypeTableRecord
  2
BYBLOCK
 70
     0
  3

 72
    65
 73
     0
 40
0.0
  0
LTYPE
  5
15
330
5
100
AcDbSymbolTableRecord
100
AcDbLinetypeTableRecord
  2
BYLAYER
 70
     0
  3

 72
    65
 73
     0
 40
0.0
  0
LTYPE
  5
16
330
5
100
AcDbSymbolTableRecord
100
AcDbLinetypeTableRecord
  2
CONTINUOUS
 70
     0
  3
Solid line
 72
    65
 73
     0
 40
0.0
  0
ENDTAB
  0
TABLE
  2
LAYER
  5
2
100
AcDbSymbolTable
 70
2
  0
LAYER
  5
50
100
AcDbSymbolTableRecord
100
AcDbLayerTableRecord
  2
0
 70
0
  6
CONTINUOUS
  0
LAYER
  5
51
100
AcDbSymbolTableRecord
100
AcDbLayerTableRecord
  2
Layer_1
 70
0
  6
CONTINUOUS
  0
ENDTAB
  0
TABLE
  2
STYLE
  5
3
330
0
100
AcDbSymbolTable
 70
     1
  0
STYLE
  5
11
330
3
100
AcDbSymbolTableRecord
100
AcDbTextStyleTableRecord
  2
STANDARD
 70
     0
 40
0.0
 41
1.0
 50
0.0
 71
     0
 42
2.5
  3
txt
  4

  0
ENDTAB
  0
TABLE
  2
VIEW
  5
6
330
0
100
AcDbSymbolTable
 70
     0
  0
ENDTAB
  0
TABLE
  2
UCS
  5
7
330
0
100
AcDbSymbolTable
 70
     0
  0
ENDTAB
  0
TABLE
  2
APPID
  5
9
330
0
100
AcDbSymbolTable
 70
     2
  0
APPID
  5
12
330
9
100
AcDbSymbolTableRecord
100
AcDbRegAppTableRecord
  2
ACAD
 70
     0
  0
ENDTAB
  0
TABLE
  2
DIMSTYLE
  5
A
330
0
100
AcDbSymbolTable
 70
     1
  0
DIMSTYLE
105
27
330
A
100
AcDbSymbolTableRecord
100
AcDbDimStyleTableRecord
  2
ISO-25
 70
     0
  3

  4

  5

  6

  7

 40
1.0
 41
2.5
 42
0.625
 43
3.75
 44
1.25
 45
0.0
 46
0.0
 47
0.0
 48
0.0
140
2.5
141
2.5
142
0.0
143
0.03937007874016
144
1.0
145
0.0
146
1.0
147
0.625
 71
     0
 72
     0
 73
     0
 74
     0
 75
     0
 76
     0
 77
     1
 78
     8
170
     0
171
     3
172
     1
173
     0
174
     0
175
     0
176
     0
177
     0
178
     0
270
     2
271
     2
272
     2
273
     2
274
     3
340
11
275
     0
280
     0
281
     0
282
     0
283
     0
284
     8
285
     0
286
     0
287
     3
288
     0
  0
ENDTAB
  0
TABLE
  2
BLOCK_RECORD
  5
1
330
0
100
AcDbSymbolTable
 70
     1
  0
BLOCK_RECORD
  5
1F
330
1
100
AcDbSymbolTableRecord
100
AcDbBlockTableRecord
  2
*MODEL_SPACE
  0
BLOCK_RECORD
  5
1B
330
1
100
AcDbSymbolTableRecord
100
AcDbBlockTableRecord
  2
*PAPER_SPACE
  0
ENDTAB
  0
ENDSEC
  0
SECTION
  2
BLOCKS
  0
BLOCK
  5
20
330
1F
100
AcDbEntity
  8
0
100
AcDbBlockBegin
  2
*MODEL_SPACE
 70
     0
 10
0.0
 20
0.0
 30
0.0
  3
*MODEL_SPACE
  1

  0
ENDBLK
  5
21
330
1F
100
AcDbEntity
  8
0
100
AcDbBlockEnd
  0
BLOCK
  5
1C
330
1B
100
AcDbEntity
 67
     1
  8
0
100
AcDbBlockBegin
  2
*PAPER_SPACE
  1

  0
ENDBLK
  5
1D
330
1B
100
AcDbEntity
 67
     1
  8
0
100
AcDbBlockEnd
  0
ENDSEC
  0
SECTION
  2
ENTITIES
  0
SPLINE
  5
100
100
AcDbEntity
  8
Layer_1
 62
7
100
AcDbSpline
 70
8
 71
3
 72
8
 73
4
 74
0
 40
0
 40
0
 40
0
 40
0
 40
1
 40
1
 40
1
 40
1
 10
16.401399
 20
11.501454
 30
0.0
 10
16.401399
 20
8.289246
 30
0.0
 10
16.401399
 20
3.485405
 30
0.0
 10
16.401399
 20
-2.910070
 30
0.0
  0
SPLINE
  5
101
100
AcDbEntity
  8
Layer_1
 62
7
100
AcDbSpline
 70
8
 71
3
 72
8
 73
4
 74
0
 40
0
 40
0
 40
0
 40
0
 40
1
 40
1
 40
1
 40
1
 10
16.401399
 20
-2.910070
 30
0.0
 10
15.692398
 20
-2.910070
 30
0.0
 10
14.628897
 20
-2.910070
 30
0.0
 10
13.210896
 20
-2.910070
 30
0.0
  0
SPLINE
  5
102
100
AcDbEntity
  8
Layer_1
 62
7
100
AcDbSpline
 70
8
 71
3
 72
8
 73
4
 74
0
 40
0
 40
0
 40
0
 40
0
 40
1
 40
1
 40
1
 40
1
 10
13.210896
 20
-2.910070
 30
0.0
 10
13.210896
 20
-0.059598
 30
0.0
 10
13.210896
 20
4.208875
 30
0.0
 10
13.210896
 20
9.895350
 30
0.0
  0
SPLINE
  5
103
100
AcDbEntity
  8
Layer_1
 62
7
100
AcDbSpline
 70
8
 71
3
 72
8
 73
4
 74
0
 40
0
 40
0
 40
0
 40
0
 40
1
 40
1
 40
1
 40
1
 10
13.210896
 20
9.895350
 30
0.0
 10
12.501895
 20
9.895350
 30
0.0
 10
11.431159
 20
9.895350
 30
0.0
 10
9.998689
 20
9.895350
 30
0.0
  0
SPLINE
  5
104
100
AcDbEntity
  8
Layer_1
 62
7
100
AcDbSpline
 70
8
 71
3
 72
8
 73
4
 74
0
 40
0
 40
0
 40
0
 40
0
 40
1
 40
1
 40
1
 40
1
 10
9.998689
 20
9.895350
 30
0.0
 10
9.998689
 20
7.044878
 30
0.0
 10
9.998689
 20
2.776404
 30
0.0
 10
9.998689
 20
-2.910070
 30
0.0
  0
SPLINE
  5
105
100
AcDbEntity
  8
Layer_1
 62
7
100
AcDbSpline
 70
8
 71
3
 72
8
 73
4
 74
0
 40
0
 40
0
 40
0
 40
0
 40
1
 40
1
 40
1
 40
1
 10
9.998689
 20
-2.910070
 30
0.0
 10
9.289688
 20
-2.910070
 30
0.0
 10
8.226187
 20
-2.910070
 30
0.0
 10
6.808186
 20
-2.910070
 30
0.0
  0
SPLINE
  5
106
100
AcDbEntity
  8
Layer_1
 62
7
100
AcDbSpline
 70
8
 71
3
 72
8
 73
4
 74
0
 40
0
 40
0
 40
0
 40
0
 40
1
 40
1
 40
1
 40
1
 10
6.808186
 20
-2.910070
 30
0.0
 10
6.808186
 20
-0.059598
 30
0.0
 10
6.808186
 20
4.208875
 30
0.0
 10
6.808186
 20
9.895350
 30
0.0
  0
SPLINE
  5
107
100
AcDbEntity
  8
Layer_1
 62
7
100
AcDbSpline
 70
8
 71
3
 72
8
 73
4
 74
0
 40
0
 40
0
 40
0
 40
0
 40
1
 40
1
 40
1
 40
1
 10
6.808186
 20
9.895350
 30
0.0
 10
6.099185
 20
9.895350
 30
0.0
 10
5.028449
 20
9.895350
 30
0.0
 10
3.595979
 20
9.895350
 30
0.0
  0
SPLINE
  5
108
100
AcDbEntity
  8
Layer_1
 62
7
100
AcDbSpline
 70
8
 71
3
 72
8
 73
4
 74
0
 40
0
 40
0
 40
0
 40
0
 40
1
 40
1
 40
1
 40
1
 10
3.595979
 20
9.895350
 30
0.0
 10
3.595979
 20
7.044878
 30
0.0
 10
3.595979
 20
2.776404
 30
0.0
 10
3.595979
 20
-2.910070
 30
0.0
  0
SPLINE
  5
109
100
AcDbEntity
  8
Layer_1
 62
7
100
AcDbSpline
 70
8
 71
3
 72
8
 73
4
 74
0
 40
0
 40
0
 40
0
 40
0
 40
1
 40
1
 40
1
 40
1
 10
3.595979
 20
-2.910070
 30
0.0
 10
2.886978
 20
-2.910070
 30
0.0
 10
1.823477
 20
-2.910070
 30
0.0
 10
0.405475
 20
-2.910070
 30
0.0
  0
SPLINE
  5
10a
100
AcDbEntity
  8
Layer_1
 62
7
100
AcDbSpline
 70
8
 71
3
 72
8
 73
4
 74
0
 40
0
 40
0
 40
0
 40
0
 40
1
 40
1
 40
1
 40
1
 10
0.405475
 20
-2.910070
 30
0.0
 10
0.405475
 20
-1.709110
 30
0.0
 10
0.405475
 20
0.099565
 30
0.0
 10
0.405475
 20
2.515955
 30
0.0
  0
SPLINE
  5
10b
100
AcDbEntity
  8
Layer_1
 62
7
100
AcDbSpline
 70
8
 71
3
 72
8
 73
4
 74
0
 40
0
 40
0
 40
0
 40
0
 40
1
 40
1
 40
1
 40
1
 10
0.405475
 20
2.515955
 30
0.0
 10
0.405475
 20
3.514344
 30
0.0
 10
0.405475
 20
4.758712
 30
0.0
 10
0.405475
 20
6.249061
 30
0.0
  0
SPLINE
  5
10c
100
AcDbEntity
  8
Layer_1
 62
7
100
AcDbSpline
 70
8
 71
3
 72
8
 73
4
 74
0
 40
0
 40
0
 40
0
 40
0
 40
1
 40
1
 40
1
 40
1
 10
0.405475
 20
6.249061
 30
0.0
 10
0.405475
 20
7.753879
 30
0.0
 10
0.405475
 20
9.504676
 30
0.0
 10
0.405475
 20
11.501454
 30
0.0
  0
SPLINE
  5
10d
100
AcDbEntity
  8
Layer_1
 62
7
100
AcDbSpline
 70
8
 71
3
 72
8
 73
4
 74
0
 40
0
 40
0
 40
0
 40
0
 40
1
 40
1
 40
1
 40
1
 10
0.405475
 20
11.501454
 30
0.0
 10
0.405475
 20
11.935536
 30
0.0
 10
0.564639
 20
12.311740
 30
0.0
 10
0.882966
 20
12.630067
 30
0.0
  0
SPLINE
  5
10e
100
AcDbEntity
  8
Layer_1
 62
7
100
AcDbSpline
 70
8
 71
3
 72
8
 73
4
 74
0
 40
0
 40
0
 40
0
 40
0
 40
1
 40
1
 40
1
 40
1
 10
0.882966
 20
12.630067
 30
0.0
 10
1.186823
 20
12.933924
 30
0.0
 10
1.563028
 20
13.085853
 30
0.0
 10
2.011579
 20
13.085853
 30
0.0
  0
SPLINE
  5
10f
100
AcDbEntity
  8
Layer_1
 62
7
100
AcDbSpline
 70
8
 71
3
 72
8
 73
4
 74
0
 40
0
 40
0
 40
0
 40
0
 40
1
 40
1
 40
1
 40
1
 10
2.011579
 20
13.085853
 30
0.0
 10
3.067845
 20
13.085853
 30
0.0
 10
4.666714
 20
13.085853
 30
0.0
 10
6.808186
 20
13.085853
 30
0.0
  0
SPLINE
  5
110
100
AcDbEntity
  8
Layer_1
 62
7
100
AcDbSpline
 70
8
 71
3
 72
8
 73
4
 74
0
 40
0
 40
0
 40
0
 40
0
 40
1
 40
1
 40
1
 40
1
 10
6.808186
 20
13.085853
 30
0.0
 10
7.256737
 20
13.085853
 30
0.0
 10
7.632941
 20
12.933924
 30
0.0
 10
7.936799
 20
12.630067
 30
0.0
  0
SPLINE
  5
111
100
AcDbEntity
  8
Layer_1
 62
7
100
AcDbSpline
 70
8
 71
3
 72
8
 73
4
 74
0
 40
0
 40
0
 40
0
 40
0
 40
1
 40
1
 40
1
 40
1
 10
7.936799
 20
12.630067
 30
0.0
 10
8.255126
 20
12.311740
 30
0.0
 10
8.414289
 20
11.935536
 30
0.0
 10
8.414289
 20
11.501454
 30
0.0
  0
SPLINE
  5
112
100
AcDbEntity
  8
Layer_1
 62
7
100
AcDbSpline
 70
8
 71
3
 72
8
 73
4
 74
0
 40
0
 40
0
 40
0
 40
0
 40
1
 40
1
 40
1
 40
1
 10
8.414289
 20
11.501454
 30
0.0
 10
8.414289
 20
11.935536
 30
0.0
 10
8.566218
 20
12.311740
 30
0.0
 10
8.870075
 20
12.630067
 30
0.0
  0
SPLINE
  5
113
100
AcDbEntity
  8
Layer_1
 62
7
100
AcDbSpline
 70
8
 71
3
 72
8
 73
4
 74
0
 40
0
 40
0
 40
0
 40
0
 40
1
 40
1
 40
1
 40
1
 10
8.870075
 20
12.630067
 30
0.0
 10
9.188402
 20
12.933924
 30
0.0
 10
9.564607
 20
13.085853
 30
0.0
 10
9.998689
 20
13.085853
 30
0.0
  0
SPLINE
  5
114
100
AcDbEntity
  8
Layer_1
 62
7
100
AcDbSpline
 70
8
 71
3
 72
8
 73
4
 74
0
 40
0
 40
0
 40
0
 40
0
 40
1
 40
1
 40
1
 40
1
 10
9.998689
 20
13.085853
 30
0.0
 10
11.069424
 20
13.085853
 30
0.0
 10
12.675528
 20
13.085853
 30
0.0
 10
14.816999
 20
13.085853
 30
0.0
  0
SPLINE
  5
115
100
AcDbEntity
  8
Layer_1
 62
7
100
AcDbSpline
 70
8
 71
3
 72
8
 73
4
 74
0
 40
0
 40
0
 40
0
 40
0
 40
1
 40
1
 40
1
 40
1
 10
14.816999
 20
13.085853
 30
0.0
 10
15.251081
 20
13.085853
 30
0.0
 10
15.627286
 20
12.933924
 30
0.0
 10
15.945613
 20
12.630067
 30
0.0
  0
SPLINE
  5
116
100
AcDbEntity
  8
Layer_1
 62
7
100
AcDbSpline
 70
8
 71
3
 72
8
 73
4
 74
0
 40
0
 40
0
 40
0
 40
0
 40
1
 40
1
 40
1
 40
1
 10
15.945613
 20
12.630067
 30
0.0
 10
16.249470
 20
12.311740
 30
0.0
 10
16.401399
 20
11.935536
 30
0.0
 10
16.401399
 20
11.501454
 30
0.0
  0
SPLINE
  5
117
100
AcDbEntity
  8
Layer_1
 62
7
100
AcDbSpline
 70
8
 71
3
 72
8
 73
4
 74
0
 40
0
 40
0
 40
0
 40
0
 40
1
 40
1
 40
1
 40
1
 10
27.618258
 20
9.731857
 30
0.0
 10
27.618258
 20
10.267225
 30
0.0
 10
27.618258
 20
11.330726
 30
0.0
 10
27.618258
 20
12.922360
 30
0.0
  0
SPLINE
  5
118
100
AcDbEntity
  8
Layer_1
 62
7
100
AcDbSpline
 70
8
 71
3
 72
8
 73
4
 74
0
 40
0
 40
0
 40
0
 40
0
 40
1
 40
1
 40
1
 40
1
 10
27.618258
 20
12.922360
 30
0.0
 10
26.561993
 20
12.922360
 30
0.0
 10
24.427757
 20
12.922360
 30
0.0
 10
21.215550
 20
12.922360
 30
0.0
  0
SPLINE
  5
119
100
AcDbEntity
  8
Layer_1
 62
7
100
AcDbSpline
 70
8
 71
3
 72
8
 73
4
 74
0
 40
0
 40
0
 40
0
 40
0
 40
1
 40
1
 40
1
 40
1
 10
21.215550
 20
12.922360
 30
0.0
 10
20.694651
 20
12.922360
 30
0.0
 10
19.631150
 20
12.922360
 30
0.0
 10
18.025046
 20
12.922360
 30
0.0
  0
SPLINE
  5
11a
100
AcDbEntity
  8
Layer_1
 62
7
100
AcDbSpline
 70
8
 71
3
 72
8
 73
4
 74
0
 40
0
 40
0
 40
0
 40
0
 40
1
 40
1
 40
1
 40
1
 10
18.025046
 20
12.922360
 30
0.0
 10
18.025046
 20
12.386992
 30
0.0
 10
18.025046
 20
11.323491
 30
0.0
 10
18.025046
 20
9.731857
 30
0.0
  0
SPLINE
  5
11b
100
AcDbEntity
  8
Layer_1
 62
7
100
AcDbSpline
 70
8
 71
3
 72
8
 73
4
 74
0
 40
0
 40
0
 40
0
 40
0
 40
1
 40
1
 40
1
 40
1
 10
18.025046
 20
9.731857
 30
0.0
 10
18.025046
 20
9.196489
 30
0.0
 10
18.025046
 20
8.125754
 30
0.0
 10
18.025046
 20
6.519650
 30
0.0
  0
SPLINE
  5
11c
100
AcDbEntity
  8
Layer_1
 62
7
100
AcDbSpline
 70
8
 71
3
 72
8
 73
4
 74
0
 40
0
 40
0
 40
0
 40
0
 40
1
 40
1
 40
1
 40
1
 10
18.025046
 20
6.519650
 30
0.0
 10
18.025046
 20
5.998752
 30
0.0
 10
18.025046
 20
4.935250
 30
0.0
 10
18.025046
 20
3.329147
 30
0.0
  0
SPLINE
  5
11d
100
AcDbEntity
  8
Layer_1
 62
7
100
AcDbSpline
 70
8
 71
3
 72
8
 73
4
 74
0
 40
0
 40
0
 40
0
 40
0
 40
1
 40
1
 40
1
 40
1
 10
18.025046
 20
3.329147
 30
0.0
 10
18.025046
 20
2.793779
 30
0.0
 10
18.025046
 20
1.723043
 30
0.0
 10
18.025046
 20
0.116940
 30
0.0
  0
SPLINE
  5
11e
100
AcDbEntity
  8
Layer_1
 62
7
100
AcDbSpline
 70
8
 71
3
 72
8
 73
4
 74
0
 40
0
 40
0
 40
0
 40
0
 40
1
 40
1
 40
1
 40
1
 10
18.025046
 20
0.116940
 30
0.0
 10
18.025046
 20
-0.230326
 30
0.0
 10
18.025046
 20
-0.671643
 30
0.0
 10
18.025046
 20
-1.207010
 30
0.0
  0
SPLINE
  5
11f
100
AcDbEntity
  8
Layer_1
 62
7
100
AcDbSpline
 70
8
 71
3
 72
8
 73
4
 74
0
 40
0
 40
0
 40
0
 40
0
 40
1
 40
1
 40
1
 40
1
 10
18.025046
 20
-1.207010
 30
0.0
 10
18.025046
 20
-1.742378
 30
0.0
 10
18.025046
 20
-2.364563
 30
0.0
 10
18.025046
 20
-3.073563
 30
0.0
  0
SPLINE
  5
120
100
AcDbEntity
  8
Layer_1
 62
7
100
AcDbSpline
 70
8
 71
3
 72
8
 73
4
 74
0
 40
0
 40
0
 40
0
 40
0
 40
1
 40
1
 40
1
 40
1
 10
18.025046
 20
-3.073563
 30
0.0
 10
18.734047
 20
-3.073563
 30
0.0
 10
19.797548
 20
-3.073563
 30
0.0
 10
21.215550
 20
-3.073563
 30
0.0
  0
SPLINE
  5
121
100
AcDbEntity
  8
Layer_1
 62
7
100
AcDbSpline
 70
8
 71
3
 72
8
 73
4
 74
0
 40
0
 40
0
 40
0
 40
0
 40
1
 40
1
 40
1
 40
1
 10
21.215550
 20
-3.073563
 30
0.0
 10
22.648021
 20
-3.073563
 30
0.0
 10
24.782257
 20
-3.073563
 30
0.0
 10
27.618258
 20
-3.073563
 30
0.0
  0
SPLINE
  5
122
100
AcDbEntity
  8
Layer_1
 62
7
100
AcDbSpline
 70
8
 71
3
 72
8
 73
4
 74
0
 40
0
 40
0
 40
0
 40
0
 40
1
 40
1
 40
1
 40
1
 10
27.618258
 20
-3.073563
 30
0.0
 10
27.618258
 20
-2.364563
 30
0.0
 10
27.618258
 20
-1.301062
 30
0.0
 10
27.618258
 20
0.116940
 30
0.0
  0
SPLINE
  5
123
100
AcDbEntity
  8
Layer_1
 62
7
100
AcDbSpline
 70
8
 71
3
 72
8
 73
4
 74
0
 40
0
 40
0
 40
0
 40
0
 40
1
 40
1
 40
1
 40
1
 10
27.618258
 20
0.116940
 30
0.0
 10
26.200258
 20
0.116940
 30
0.0
 10
24.066022
 20
0.116940
 30
0.0
 10
21.215550
 20
0.116940
 30
0.0
  0
SPLINE
  5
124
100
AcDbEntity
  8
Layer_1
 62
7
100
AcDbSpline
 70
8
 71
3
 72
8
 73
4
 74
0
 40
0
 40
0
 40
0
 40
0
 40
1
 40
1
 40
1
 40
1
 10
21.215550
 20
0.116940
 30
0.0
 10
21.215550
 20
0.840410
 30
0.0
 10
21.215550
 20
1.911145
 30
0.0
 10
21.215550
 20
3.329147
 30
0.0
  0
SPLINE
  5
125
100
AcDbEntity
  8
Layer_1
 62
7
100
AcDbSpline
 70
8
 71
3
 72
8
 73
4
 74
0
 40
0
 40
0
 40
0
 40
0
 40
1
 40
1
 40
1
 40
1
 10
21.215550
 20
3.329147
 30
0.0
 10
22.286285
 20
3.329147
 30
0.0
 10
23.892388
 20
3.329147
 30
0.0
 10
26.033860
 20
3.329147
 30
0.0
  0
SPLINE
  5
126
100
AcDbEntity
  8
Layer_1
 62
7
100
AcDbSpline
 70
8
 71
3
 72
8
 73
4
 74
0
 40
0
 40
0
 40
0
 40
0
 40
1
 40
1
 40
1
 40
1
 10
26.033860
 20
3.329147
 30
0.0
 10
26.033860
 20
4.038148
 30
0.0
 10
26.033860
 20
5.101649
 30
0.0
 10
26.033860
 20
6.519650
 30
0.0
  0
SPLINE
  5
127
100
AcDbEntity
  8
Layer_1
 62
7
100
AcDbSpline
 70
8
 71
3
 72
8
 73
4
 74
0
 40
0
 40
0
 40
0
 40
0
 40
1
 40
1
 40
1
 40
1
 10
26.033860
 20
6.519650
 30
0.0
 10
24.963124
 20
6.519650
 30
0.0
 10
23.357021
 20
6.519650
 30
0.0
 10
21.215550
 20
6.519650
 30
0.0
  0
SPLINE
  5
128
100
AcDbEntity
  8
Layer_1
 62
7
100
AcDbSpline
 70
8
 71
3
 72
8
 73
4
 74
0
 40
0
 40
0
 40
0
 40
0
 40
1
 40
1
 40
1
 40
1
 10
21.215550
 20
6.519650
 30
0.0
 10
21.215550
 20
7.243120
 30
0.0
 10
21.215550
 20
8.313856
 30
0.0
 10
21.215550
 20
9.731857
 30
0.0
  0
SPLINE
  5
129
100
AcDbEntity
  8
Layer_1
 62
7
100
AcDbSpline
 70
8
 71
3
 72
8
 73
4
 74
0
 40
0
 40
0
 40
0
 40
0
 40
1
 40
1
 40
1
 40
1
 10
21.215550
 20
9.731857
 30
0.0
 10
22.648021
 20
9.731857
 30
0.0
 10
24.782257
 20
9.731857
 30
0.0
 10
27.618258
 20
9.731857
 30
0.0
  0
LWPOLYLINE
  5
12a
100
AcDbEntity
  8
Layer_1
 62
7
100
AcDbPolyline
 90
1
 70
1
 10
16.401399
 20
11.501454
 30
0.0
  0
SPLINE
  5
12b
100
AcDbEntity
  8
Layer_1
 62
7
100
AcDbSpline
 70
8
 71
3
 72
8
 73
4
 74
0
 40
0
 40
0
 40
0
 40
0
 40
1
 40
1
 40
1
 40
1
 10
38.020696
 20
9.726168
 30
0.0
 10
38.020696
 20
10.261536
 30
0.0
 10
38.020696
 20
11.325037
 30
0.0
 10
38.020696
 20
12.916671
 30
0.0
  0
SPLINE
  5
12c
100
AcDbEntity
  8
Layer_1
 62
7
100
AcDbSpline
 70
8
 71
3
 72
8
 73
4
 74
0
 40
0
 40
0
 40
0
 40
0
 40
1
 40
1
 40
1
 40
1
 10
38.020696
 20
12.916671
 30
0.0
 10
36.964429
 20
12.916671
 30
0.0
 10
34.830192
 20
12.916671
 30
0.0
 10
31.617985
 20
12.916671
 30
0.0
  0
SPLINE
  5
12d
100
AcDbEntity
  8
Layer_1
 62
7
100
AcDbSpline
 70
8
 71
3
 72
8
 73
4
 74
0
 40
0
 40
0
 40
0
 40
0
 40
1
 40
1
 40
1
 40
1
 10
31.617985
 20
12.916671
 30
0.0
 10
31.097087
 20
12.916671
 30
0.0
 10
30.033586
 20
12.916671
 30
0.0
 10
28.427483
 20
12.916671
 30
0.0
  0
SPLINE
  5
12e
100
AcDbEntity
  8
Layer_1
 62
7
100
AcDbSpline
 70
8
 71
3
 72
8
 73
4
 74
0
 40
0
 40
0
 40
0
 40
0
 40
1
 40
1
 40
1
 40
1
 10
28.427483
 20
12.916671
 30
0.0
 10
28.427483
 20
12.381303
 30
0.0
 10
28.427483
 20
11.317802
 30
0.0
 10
28.427483
 20
9.726168
 30
0.0
  0
SPLINE
  5
12f
100
AcDbEntity
  8
Layer_1
 62
7
100
AcDbSpline
 70
8
 71
3
 72
8
 73
4
 74
0
 40
0
 40
0
 40
0
 40
0
 40
1
 40
1
 40
1
 40
1
 10
28.427483
 20
9.726168
 30
0.0
 10
28.427483
 20
9.190800
 30
0.0
 10
28.427483
 20
8.120065
 30
0.0
 10
28.427483
 20
6.513961
 30
0.0
  0
SPLINE
  5
130
100
AcDbEntity
  8
Layer_1
 62
7
100
AcDbSpline
 70
8
 71
3
 72
8
 73
4
 74
0
 40
0
 40
0
 40
0
 40
0
 40
1
 40
1
 40
1
 40
1
 10
28.427483
 20
6.513961
 30
0.0
 10
28.427483
 20
5.993063
 30
0.0
 10
28.427483
 20
4.929562
 30
0.0
 10
28.427483
 20
3.323458
 30
0.0
  0
SPLINE
  5
131
100
AcDbEntity
  8
Layer_1
 62
7
100
AcDbSpline
 70
8
 71
3
 72
8
 73
4
 74
0
 40
0
 40
0
 40
0
 40
0
 40
1
 40
1
 40
1
 40
1
 10
28.427483
 20
3.323458
 30
0.0
 10
28.427483
 20
2.788090
 30
0.0
 10
28.427483
 20
1.717354
 30
0.0
 10
28.427483
 20
0.111251
 30
0.0
  0
SPLINE
  5
132
100
AcDbEntity
  8
Layer_1
 62
7
100
AcDbSpline
 70
8
 71
3
 72
8
 73
4
 74
0
 40
0
 40
0
 40
0
 40
0
 40
1
 40
1
 40
1
 40
1
 10
28.427483
 20
0.111251
 30
0.0
 10
28.427483
 20
-0.236015
 30
0.0
 10
28.427483
 20
-0.677332
 30
0.0
 10
28.427483
 20
-1.212700
 30
0.0
  0
SPLINE
  5
133
100
AcDbEntity
  8
Layer_1
 62
7
100
AcDbSpline
 70
8
 71
3
 72
8
 73
4
 74
0
 40
0
 40
0
 40
0
 40
0
 40
1
 40
1
 40
1
 40
1
 10
28.427483
 20
-1.212700
 30
0.0
 10
28.427483
 20
-1.748067
 30
0.0
 10
28.427483
 20
-2.370252
 30
0.0
 10
28.427483
 20
-3.079252
 30
0.0
  0
SPLINE
  5
134
100
AcDbEntity
  8
Layer_1
 62
7
100
AcDbSpline
 70
8
 71
3
 72
8
 73
4
 74
0
 40
0
 40
0
 40
0
 40
0
 40
1
 40
1
 40
1
 40
1
 10
28.427483
 20
-3.079252
 30
0.0
 10
29.136483
 20
-3.079252
 30
0.0
 10
30.199984
 20
-3.079252
 30
0.0
 10
31.617985
 20
-3.079252
 30
0.0
  0
SPLINE
  5
135
100
AcDbEntity
  8
Layer_1
 62
7
100
AcDbSpline
 70
8
 71
3
 72
8
 73
4
 74
0
 40
0
 40
0
 40
0
 40
0
 40
1
 40
1
 40
1
 40
1
 10
31.617985
 20
-3.079252
 30
0.0
 10
33.050456
 20
-3.079252
 30
0.0
 10
35.184693
 20
-3.079252
 30
0.0
 10
38.020696
 20
-3.079252
 30
0.0
  0
SPLINE
  5
136
100
AcDbEntity
  8
Layer_1
 62
7
100
AcDbSpline
 70
8
 71
3
 72
8
 73
4
 74
0
 40
0
 40
0
 40
0
 40
0
 40
1
 40
1
 40
1
 40
1
 10
38.020696
 20
-3.079252
 30
0.0
 10
38.020696
 20
-2.370252
 30
0.0
 10
38.020696
 20
-1.306751
 30
0.0
 10
38.020696
 20
0.111251
 30
0.0
  0
SPLINE
  5
137
100
AcDbEntity
  8
Layer_1
 62
7
100
AcDbSpline
 70
8
 71
3
 72
8
 73
4
 74
0
 40
0
 40
0
 40
0
 40
0
 40
1
 40
1
 40
1
 40
1
 10
38.020696
 20
0.111251
 30
0.0
 10
36.602694
 20
0.111251
 30
0.0
 10
34.468458
 20
0.111251
 30
0.0
 10
31.617985
 20
0.111251
 30
0.0
  0
SPLINE
  5
138
100
AcDbEntity
  8
Layer_1
 62
7
100
AcDbSpline
 70
8
 71
3
 72
8
 73
4
 74
0
 40
0
 40
0
 40
0
 40
0
 40
1
 40
1
 40
1
 40
1
 10
31.617985
 20
0.111251
 30
0.0
 10
31.617985
 20
0.834721
 30
0.0
 10
31.617985
 20
1.905457
 30
0.0
 10
31.617985
 20
3.323458
 30
0.0
  0
SPLINE
  5
139
100
AcDbEntity
  8
Layer_1
 62
7
100
AcDbSpline
 70
8
 71
3
 72
8
 73
4
 74
0
 40
0
 40
0
 40
0
 40
0
 40
1
 40
1
 40
1
 40
1
 10
31.617985
 20
3.323458
 30
0.0
 10
32.688722
 20
3.323458
 30
0.0
 10
34.294825
 20
3.323458
 30
0.0
 10
36.436296
 20
3.323458
 30
0.0
  0
SPLINE
  5
13a
100
AcDbEntity
  8
Layer_1
 62
7
100
AcDbSpline
 70
8
 71
3
 72
8
 73
4
 74
0
 40
0
 40
0
 40
0
 40
0
 40
1
 40
1
 40
1
 40
1
 10
36.436296
 20
3.323458
 30
0.0
 10
36.436296
 20
4.032459
 30
0.0
 10
36.436296
 20
5.095960
 30
0.0
 10
36.436296
 20
6.513961
 30
0.0
  0
SPLINE
  5
13b
100
AcDbEntity
  8
Layer_1
 62
7
100
AcDbSpline
 70
8
 71
3
 72
8
 73
4
 74
0
 40
0
 40
0
 40
0
 40
0
 40
1
 40
1
 40
1
 40
1
 10
36.436296
 20
6.513961
 30
0.0
 10
35.365561
 20
6.513961
 30
0.0
 10
33.759458
 20
6.513961
 30
0.0
 10
31.617985
 20
6.513961
 30
0.0
  0
SPLINE
  5
13c
100
AcDbEntity
  8
Layer_1
 62
7
100
AcDbSpline
 70
8
 71
3
 72
8
 73
4
 74
0
 40
0
 40
0
 40
0
 40
0
 40
1
 40
1
 40
1
 40
1
 10
31.617985
 20
6.513961
 30
0.0
 10
31.617985
 20
7.237431
 30
0.0
 10
31.617985
 20
8.308167
 30
0.0
 10
31.617985
 20
9.726168
 30
0.0
  0
SPLINE
  5
13d
100
AcDbEntity
  8
Layer_1
 62
7
100
AcDbSpline
 70
8
 71
3
 72
8
 73
4
 74
0
 40
0
 40
0
 40
0
 40
0
 40
1
 40
1
 40
1
 40
1
 10
31.617985
 20
9.726168
 30
0.0
 10
33.050456
 20
9.726168
 30
0.0
 10
35.184693
 20
9.726168
 30
0.0
 10
38.020696
 20
9.726168
 30
0.0
  0
LWPOLYLINE
  5
13e
100
AcDbEntity
  8
Layer_1
 62
7
100
AcDbPolyline
 90
1
 70
1
 10
27.618258
 20
9.731857
 30
0.0
  0
SPLINE
  5
13f
100
AcDbEntity
  8
Layer_1
 62
7
100
AcDbSpline
 70
8
 71
3
 72
8
 73
4
 74
0
 40
0
 40
0
 40
0
 40
0
 40
1
 40
1
 40
1
 40
1
 10
38.553400
 20
12.939928
 30
0.0
 10
39.146646
 20
12.939928
 30
0.0
 10
40.340372
 20
12.939928
 30
0.0
 10
42.134577
 20
12.939928
 30
0.0
  0
SPLINE
  5
140
100
AcDbEntity
  8
Layer_1
 62
7
100
AcDbSpline
 70
8
 71
3
 72
8
 73
4
 74
0
 40
0
 40
0
 40
0
 40
0
 40
1
 40
1
 40
1
 40
1
 10
42.134577
 20
12.939928
 30
0.0
 10
42.539720
 20
11.015498
 30
0.0
 10
43.342772
 20
7.152168
 30
0.0
 10
44.543733
 20
1.349937
 30
0.0
  0
SPLINE
  5
141
100
AcDbEntity
  8
Layer_1
 62
7
100
AcDbSpline
 70
8
 71
3
 72
8
 73
4
 74
0
 40
0
 40
0
 40
0
 40
0
 40
1
 40
1
 40
1
 40
1
 10
44.543733
 20
1.349937
 30
0.0
 10
44.948876
 20
3.274368
 30
0.0
 10
45.751928
 20
7.137698
 30
0.0
 10
46.952888
 20
12.939928
 30
0.0
  0
SPLINE
  5
142
100
AcDbEntity
  8
Layer_1
 62
7
100
AcDbSpline
 70
8
 71
3
 72
8
 73
4
 74
0
 40
0
 40
0
 40
0
 40
0
 40
1
 40
1
 40
1
 40
1
 10
46.952888
 20
12.939928
 30
0.0
 10
47.546133
 20
12.939928
 30
0.0
 10
48.739859
 20
12.939928
 30
0.0
 10
50.534065
 20
12.939928
 30
0.0
  0
SPLINE
  5
143
100
AcDbEntity
  8
Layer_1
 62
7
100
AcDbSpline
 70
8
 71
3
 72
8
 73
4
 74
0
 40
0
 40
0
 40
0
 40
0
 40
1
 40
1
 40
1
 40
1
 10
50.534065
 20
12.939928
 30
0.0
 10
49.810595
 20
10.277558
 30
0.0
 10
48.349186
 20
4.945584
 30
0.0
 10
46.149837
 20
-3.055995
 30
0.0
  0
SPLINE
  5
144
100
AcDbEntity
  8
Layer_1
 62
7
100
AcDbSpline
 70
8
 71
3
 72
8
 73
4
 74
0
 40
0
 40
0
 40
0
 40
0
 40
1
 40
1
 40
1
 40
1
 10
46.149837
 20
-3.055995
 30
0.0
 10
45.614469
 20
-3.055995
 30
0.0
 10
44.543733
 20
-3.055995
 30
0.0
 10
42.937629
 20
-3.055995
 30
0.0
  0
SPLINE
  5
145
100
AcDbEntity
  8
Layer_1
 62
7
100
AcDbSpline
 70
8
 71
3
 72
8
 73
4
 74
0
 40
0
 40
0
 40
0
 40
0
 40
1
 40
1
 40
1
 40
1
 10
42.937629
 20
-3.055995
 30
0.0
 10
42.214160
 20
-0.393625
 30
0.0
 10
40.752750
 20
4.938349
 30
0.0
 10
38.553400
 20
12.939928
 30
0.0
  0
LWPOLYLINE
  5
146
100
AcDbEntity
  8
Layer_1
 62
7
100
AcDbPolyline
 90
1
 70
1
 10
38.020696
 20
9.726168
 30
0.0
  0
SPLINE
  5
147
100
AcDbEntity
  8
Layer_1
 62
7
100
AcDbSpline
 70
8
 71
3
 72
8
 73
4
 74
0
 40
0
 40
0
 40
0
 40
0
 40
1
 40
1
 40
1
 40
1
 10
0.730513
 20
11.545071
 30
0.0
 10
0.730513
 20
11.528363
 30
0.0
 10
0.723876
 20
11.512340
 30
0.0
 10
0.712062
 20
11.500526
 30
0.0
  0
SPLINE
  5
148
100
AcDbEntity
  8
Layer_1
 62
7
100
AcDbSpline
 70
8
 71
3
 72
8
 73
4
 74
0
 40
0
 40
0
 40
0
 40
0
 40
1
 40
1
 40
1
 40
1
 10
0.712062
 20
11.500526
 30
0.0
 10
0.700248
 20
11.488712
 30
0.0
 10
0.684225
 20
11.482075
 30
0.0
 10
0.667517
 20
11.482075
 30
0.0
  0
SPLINE
  5
149
100
AcDbEntity
  8
Layer_1
 62
7
100
AcDbSpline
 70
8
 71
3
 72
8
 73
4
 74
0
 40
0
 40
0
 40
0
 40
0
 40
1
 40
1
 40
1
 40
1
 10
0.667517
 20
11.482075
 30
0.0
 10
0.632725
 20
11.482075
 30
0.0
 10
0.604521
 20
11.510279
 30
0.0
 10
0.604521
 20
11.545071
 30
0.0
  0
SPLINE
  5
14a
100
AcDbEntity
  8
Layer_1
 62
7
100
AcDbSpline
 70
8
 71
3
 72
8
 73
4
 74
0
 40
0
 40
0
 40
0
 40
0
 40
1
 40
1
 40
1
 40
1
 10
0.604521
 20
11.545071
 30
0.0
 10
0.604521
 20
11.561779
 30
0.0
 10
0.611158
 20
11.577802
 30
0.0
 10
0.622972
 20
11.589616
 30
0.0
  0
SPLINE
  5
14b
100
AcDbEntity
  8
Layer_1
 62
7
100
AcDbSpline
 70
8
 71
3
 72
8
 73
4
 74
0
 40
0
 40
0
 40
0
 40
0
 40
1
 40
1
 40
1
 40
1
 10
0.622972
 20
11.589616
 30
0.0
 10
0.634786
 20
11.601430
 30
0.0
 10
0.650810
 20
11.608067
 30
0.0
 10
0.667517
 20
11.608067
 30
0.0
  0
SPLINE
  5
14c
100
AcDbEntity
  8
Layer_1
 62
7
100
AcDbSpline
 70
8
 71
3
 72
8
 73
4
 74
0
 40
0
 40
0
 40
0
 40
0
 40
1
 40
1
 40
1
 40
1
 10
0.667517
 20
11.608067
 30
0.0
 10
0.684225
 20
11.608067
 30
0.0
 10
0.700248
 20
11.601430
 30
0.0
 10
0.712062
 20
11.589616
 30
0.0
  0
SPLINE
  5
14d
100
AcDbEntity
  8
Layer_1
 62
7
100
AcDbSpline
 70
8
 71
3
 72
8
 73
4
 74
0
 40
0
 40
0
 40
0
 40
0
 40
1
 40
1
 40
1
 40
1
 10
0.712062
 20
11.589616
 30
0.0
 10
0.723876
 20
11.577802
 30
0.0
 10
0.730513
 20
11.561779
 30
0.0
 10
0.730513
 20
11.545071
 30
0.0
  0
SPLINE
  5
14e
100
AcDbEntity
  8
Layer_1
 62
7
100
AcDbSpline
 70
8
 71
3
 72
8
 73
4
 74
0
 40
0
 40
0
 40
0
 40
0
 40
1
 40
1
 40
1
 40
1
 10
1.947190
 20
12.799729
 30
0.0
 10
1.947190
 20
12.783022
 30
0.0
 10
1.940553
 20
12.766999
 30
0.0
 10
1.928739
 20
12.755184
 30
0.0
  0
SPLINE
  5
14f
100
AcDbEntity
  8
Layer_1
 62
7
100
AcDbSpline
 70
8
 71
3
 72
8
 73
4
 74
0
 40
0
 40
0
 40
0
 40
0
 40
1
 40
1
 40
1
 40
1
 10
1.928739
 20
12.755184
 30
0.0
 10
1.916925
 20
12.743370
 30
0.0
 10
1.900902
 20
12.736733
 30
0.0
 10
1.884194
 20
12.736733
 30
0.0
  0
SPLINE
  5
150
100
AcDbEntity
  8
Layer_1
 62
7
100
AcDbSpline
 70
8
 71
3
 72
8
 73
4
 74
0
 40
0
 40
0
 40
0
 40
0
 40
1
 40
1
 40
1
 40
1
 10
1.884194
 20
12.736733
 30
0.0
 10
1.867487
 20
12.736733
 30
0.0
 10
1.851464
 20
12.743370
 30
0.0
 10
1.839649
 20
12.755184
 30
0.0
  0
SPLINE
  5
151
100
AcDbEntity
  8
Layer_1
 62
7
100
AcDbSpline
 70
8
 71
3
 72
8
 73
4
 74
0
 40
0
 40
0
 40
0
 40
0
 40
1
 40
1
 40
1
 40
1
 10
1.839649
 20
12.755184
 30
0.0
 10
1.827835
 20
12.766999
 30
0.0
 10
1.821198
 20
12.783022
 30
0.0
 10
1.821198
 20
12.799729
 30
0.0
  0
SPLINE
  5
152
100
AcDbEntity
  8
Layer_1
 62
7
100
AcDbSpline
 70
8
 71
3
 72
8
 73
4
 74
0
 40
0
 40
0
 40
0
 40
0
 40
1
 40
1
 40
1
 40
1
 10
1.821198
 20
12.799729
 30
0.0
 10
1.821198
 20
12.834521
 30
0.0
 10
1.849403
 20
12.862725
 30
0.0
 10
1.884194
 20
12.862725
 30
0.0
  0
SPLINE
  5
153
100
AcDbEntity
  8
Layer_1
 62
7
100
AcDbSpline
 70
8
 71
3
 72
8
 73
4
 74
0
 40
0
 40
0
 40
0
 40
0
 40
1
 40
1
 40
1
 40
1
 10
1.884194
 20
12.862725
 30
0.0
 10
1.918986
 20
12.862725
 30
0.0
 10
1.947190
 20
12.834521
 30
0.0
 10
1.947190
 20
12.799729
 30
0.0
  0
SPLINE
  5
154
100
AcDbEntity
  8
Layer_1
 62
7
100
AcDbSpline
 70
8
 71
3
 72
8
 73
4
 74
0
 40
0
 40
0
 40
0
 40
0
 40
1
 40
1
 40
1
 40
1
 10
8.811239
 20
11.554799
 30
0.0
 10
8.811239
 20
11.538091
 30
0.0
 10
8.804602
 20
11.522068
 30
0.0
 10
8.792788
 20
11.510254
 30
0.0
  0
SPLINE
  5
155
100
AcDbEntity
  8
Layer_1
 62
7
100
AcDbSpline
 70
8
 71
3
 72
8
 73
4
 74
0
 40
0
 40
0
 40
0
 40
0
 40
1
 40
1
 40
1
 40
1
 10
8.792788
 20
11.510254
 30
0.0
 10
8.780974
 20
11.498440
 30
0.0
 10
8.764950
 20
11.491802
 30
0.0
 10
8.748243
 20
11.491803
 30
0.0
  0
SPLINE
  5
156
100
AcDbEntity
  8
Layer_1
 62
7
100
AcDbSpline
 70
8
 71
3
 72
8
 73
4
 74
0
 40
0
 40
0
 40
0
 40
0
 40
1
 40
1
 40
1
 40
1
 10
8.748243
 20
11.491803
 30
0.0
 10
8.731535
 20
11.491802
 30
0.0
 10
8.715512
 20
11.498440
 30
0.0
 10
8.703698
 20
11.510254
 30
0.0
  0
SPLINE
  5
157
100
AcDbEntity
  8
Layer_1
 62
7
100
AcDbSpline
 70
8
 71
3
 72
8
 73
4
 74
0
 40
0
 40
0
 40
0
 40
0
 40
1
 40
1
 40
1
 40
1
 10
8.703698
 20
11.510254
 30
0.0
 10
8.691884
 20
11.522068
 30
0.0
 10
8.685247
 20
11.538091
 30
0.0
 10
8.685247
 20
11.554799
 30
0.0
  0
SPLINE
  5
158
100
AcDbEntity
  8
Layer_1
 62
7
100
AcDbSpline
 70
8
 71
3
 72
8
 73
4
 74
0
 40
0
 40
0
 40
0
 40
0
 40
1
 40
1
 40
1
 40
1
 10
8.685247
 20
11.554799
 30
0.0
 10
8.685247
 20
11.571506
 30
0.0
 10
8.691884
 20
11.587529
 30
0.0
 10
8.703698
 20
11.599343
 30
0.0
  0
SPLINE
  5
159
100
AcDbEntity
  8
Layer_1
 62
7
100
AcDbSpline
 70
8
 71
3
 72
8
 73
4
 74
0
 40
0
 40
0
 40
0
 40
0
 40
1
 40
1
 40
1
 40
1
 10
8.703698
 20
11.599343
 30
0.0
 10
8.715512
 20
11.611158
 30
0.0
 10
8.731535
 20
11.617795
 30
0.0
 10
8.748243
 20
11.617795
 30
0.0
  0
SPLINE
  5
15a
100
AcDbEntity
  8
Layer_1
 62
7
100
AcDbSpline
 70
8
 71
3
 72
8
 73
4
 74
0
 40
0
 40
0
 40
0
 40
0
 40
1
 40
1
 40
1
 40
1
 10
8.748243
 20
11.617795
 30
0.0
 10
8.764950
 20
11.617795
 30
0.0
 10
8.780974
 20
11.611158
 30
0.0
 10
8.792788
 20
11.599343
 30
0.0
  0
SPLINE
  5
15b
100
AcDbEntity
  8
Layer_1
 62
7
100
AcDbSpline
 70
8
 71
3
 72
8
 73
4
 74
0
 40
0
 40
0
 40
0
 40
0
 40
1
 40
1
 40
1
 40
1
 10
8.792788
 20
11.599343
 30
0.0
 10
8.804602
 20
11.587529
 30
0.0
 10
8.811239
 20
11.571506
 30
0.0
 10
8.811239
 20
11.554799
 30
0.0
  0
SPLINE
  5
15c
100
AcDbEntity
  8
Layer_1
 62
7
100
AcDbSpline
 70
8
 71
3
 72
8
 73
4
 74
0
 40
0
 40
0
 40
0
 40
0
 40
1
 40
1
 40
1
 40
1
 10
10.027916
 20
12.809457
 30
0.0
 10
10.027916
 20
12.792749
 30
0.0
 10
10.021279
 20
12.776726
 30
0.0
 10
10.009465
 20
12.764912
 30
0.0
  0
SPLINE
  5
15d
100
AcDbEntity
  8
Layer_1
 62
7
100
AcDbSpline
 70
8
 71
3
 72
8
 73
4
 74
0
 40
0
 40
0
 40
0
 40
0
 40
1
 40
1
 40
1
 40
1
 10
10.009465
 20
12.764912
 30
0.0
 10
9.997651
 20
12.753098
 30
0.0
 10
9.981628
 20
12.746461
 30
0.0
 10
9.964920
 20
12.746461
 30
0.0
  0
SPLINE
  5
15e
100
AcDbEntity
  8
Layer_1
 62
7
100
AcDbSpline
 70
8
 71
3
 72
8
 73
4
 74
0
 40
0
 40
0
 40
0
 40
0
 40
1
 40
1
 40
1
 40
1
 10
9.964920
 20
12.746461
 30
0.0
 10
9.948212
 20
12.746461
 30
0.0
 10
9.932189
 20
12.753098
 30
0.0
 10
9.920375
 20
12.764912
 30
0.0
  0
SPLINE
  5
15f
100
AcDbEntity
  8
Layer_1
 62
7
100
AcDbSpline
 70
8
 71
3
 72
8
 73
4
 74
0
 40
0
 40
0
 40
0
 40
0
 40
1
 40
1
 40
1
 40
1
 10
9.920375
 20
12.764912
 30
0.0
 10
9.908561
 20
12.776726
 30
0.0
 10
9.901924
 20
12.792749
 30
0.0
 10
9.901924
 20
12.809457
 30
0.0
  0
SPLINE
  5
160
100
AcDbEntity
  8
Layer_1
 62
7
100
AcDbSpline
 70
8
 71
3
 72
8
 73
4
 74
0
 40
0
 40
0
 40
0
 40
0
 40
1
 40
1
 40
1
 40
1
 10
9.901924
 20
12.809457
 30
0.0
 10
9.901924
 20
12.826164
 30
0.0
 10
9.908561
 20
12.842188
 30
0.0
 10
9.920375
 20
12.854002
 30
0.0
  0
SPLINE
  5
161
100
AcDbEntity
  8
Layer_1
 62
7
100
AcDbSpline
 70
8
 71
3
 72
8
 73
4
 74
0
 40
0
 40
0
 40
0
 40
0
 40
1
 40
1
 40
1
 40
1
 10
9.920375
 20
12.854002
 30
0.0
 10
9.932189
 20
12.865816
 30
0.0
 10
9.948212
 20
12.872453
 30
0.0
 10
9.964920
 20
12.872453
 30
0.0
  0
SPLINE
  5
162
100
AcDbEntity
  8
Layer_1
 62
7
100
AcDbSpline
 70
8
 71
3
 72
8
 73
4
 74
0
 40
0
 40
0
 40
0
 40
0
 40
1
 40
1
 40
1
 40
1
 10
9.964920
 20
12.872453
 30
0.0
 10
9.981628
 20
12.872453
 30
0.0
 10
9.997651
 20
12.865816
 30
0.0
 10
10.009465
 20
12.854002
 30
0.0
  0
SPLINE
  5
163
100
AcDbEntity
  8
Layer_1
 62
7
100
AcDbSpline
 70
8
 71
3
 72
8
 73
4
 74
0
 40
0
 40
0
 40
0
 40
0
 40
1
 40
1
 40
1
 40
1
 10
10.009465
 20
12.854002
 30
0.0
 10
10.021279
 20
12.842188
 30
0.0
 10
10.027916
 20
12.826164
 30
0.0
 10
10.027916
 20
12.809457
 30
0.0
  0
SPLINE
  5
164
100
AcDbEntity
  8
Layer_1
 62
7
100
AcDbSpline
 70
8
 71
3
 72
8
 73
4
 74
0
 40
0
 40
0
 40
0
 40
0
 40
1
 40
1
 40
1
 40
1
 10
8.070639
 20
11.554799
 30
0.0
 10
8.070639
 20
11.538091
 30
0.0
 10
8.077276
 20
11.522068
 30
0.0
 10
8.089090
 20
11.510254
 30
0.0
  0
SPLINE
  5
165
100
AcDbEntity
  8
Layer_1
 62
7
100
AcDbSpline
 70
8
 71
3
 72
8
 73
4
 74
0
 40
0
 40
0
 40
0
 40
0
 40
1
 40
1
 40
1
 40
1
 10
8.089090
 20
11.510254
 30
0.0
 10
8.100904
 20
11.498440
 30
0.0
 10
8.116928
 20
11.491802
 30
0.0
 10
8.133635
 20
11.491803
 30
0.0
  0
SPLINE
  5
166
100
AcDbEntity
  8
Layer_1
 62
7
100
AcDbSpline
 70
8
 71
3
 72
8
 73
4
 74
0
 40
0
 40
0
 40
0
 40
0
 40
1
 40
1
 40
1
 40
1
 10
8.133635
 20
11.491803
 30
0.0
 10
8.150343
 20
11.491802
 30
0.0
 10
8.166366
 20
11.498440
 30
0.0
 10
8.178180
 20
11.510254
 30
0.0
  0
SPLINE
  5
167
100
AcDbEntity
  8
Layer_1
 62
7
100
AcDbSpline
 70
8
 71
3
 72
8
 73
4
 74
0
 40
0
 40
0
 40
0
 40
0
 40
1
 40
1
 40
1
 40
1
 10
8.178180
 20
11.510254
 30
0.0
 10
8.189994
 20
11.522068
 30
0.0
 10
8.196631
 20
11.538091
 30
0.0
 10
8.196631
 20
11.554799
 30
0.0
  0
SPLINE
  5
168
100
AcDbEntity
  8
Layer_1
 62
7
100
AcDbSpline
 70
8
 71
3
 72
8
 73
4
 74
0
 40
0
 40
0
 40
0
 40
0
 40
1
 40
1
 40
1
 40
1
 10
8.196631
 20
11.554799
 30
0.0
 10
8.196631
 20
11.571506
 30
0.0
 10
8.189994
 20
11.587529
 30
0.0
 10
8.178180
 20
11.599343
 30
0.0
  0
SPLINE
  5
169
100
AcDbEntity
  8
Layer_1
 62
7
100
AcDbSpline
 70
8
 71
3
 72
8
 73
4
 74
0
 40
0
 40
0
 40
0
 40
0
 40
1
 40
1
 40
1
 40
1
 10
8.178180
 20
11.599343
 30
0.0
 10
8.166366
 20
11.611158
 30
0.0
 10
8.150343
 20
11.617795
 30
0.0
 10
8.133635
 20
11.617795
 30
0.0
  0
SPLINE
  5
16a
100
AcDbEntity
  8
Layer_1
 62
7
100
AcDbSpline
 70
8
 71
3
 72
8
 73
4
 74
0
 40
0
 40
0
 40
0
 40
0
 40
1
 40
1
 40
1
 40
1
 10
8.133635
 20
11.617795
 30
0.0
 10
8.116928
 20
11.617795
 30
0.0
 10
8.100904
 20
11.611158
 30
0.0
 10
8.089090
 20
11.599343
 30
0.0
  0
SPLINE
  5
16b
100
AcDbEntity
  8
Layer_1
 62
7
100
AcDbSpline
 70
8
 71
3
 72
8
 73
4
 74
0
 40
0
 40
0
 40
0
 40
0
 40
1
 40
1
 40
1
 40
1
 10
8.089090
 20
11.599343
 30
0.0
 10
8.077276
 20
11.587529
 30
0.0
 10
8.070639
 20
11.571506
 30
0.0
 10
8.070639
 20
11.554799
 30
0.0
  0
SPLINE
  5
16c
100
AcDbEntity
  8
Layer_1
 62
7
100
AcDbSpline
 70
8
 71
3
 72
8
 73
4
 74
0
 40
0
 40
0
 40
0
 40
0
 40
1
 40
1
 40
1
 40
1
 10
6.853962
 20
12.809457
 30
0.0
 10
6.853962
 20
12.792749
 30
0.0
 10
6.860599
 20
12.776726
 30
0.0
 10
6.872413
 20
12.764912
 30
0.0
  0
SPLINE
  5
16d
100
AcDbEntity
  8
Layer_1
 62
7
100
AcDbSpline
 70
8
 71
3
 72
8
 73
4
 74
0
 40
0
 40
0
 40
0
 40
0
 40
1
 40
1
 40
1
 40
1
 10
6.872413
 20
12.764912
 30
0.0
 10
6.884227
 20
12.753098
 30
0.0
 10
6.900250
 20
12.746461
 30
0.0
 10
6.916958
 20
12.746461
 30
0.0
  0
SPLINE
  5
16e
100
AcDbEntity
  8
Layer_1
 62
7
100
AcDbSpline
 70
8
 71
3
 72
8
 73
4
 74
0
 40
0
 40
0
 40
0
 40
0
 40
1
 40
1
 40
1
 40
1
 10
6.916958
 20
12.746461
 30
0.0
 10
6.933666
 20
12.746461
 30
0.0
 10
6.949689
 20
12.753098
 30
0.0
 10
6.961503
 20
12.764912
 30
0.0
  0
SPLINE
  5
16f
100
AcDbEntity
  8
Layer_1
 62
7
100
AcDbSpline
 70
8
 71
3
 72
8
 73
4
 74
0
 40
0
 40
0
 40
0
 40
0
 40
1
 40
1
 40
1
 40
1
 10
6.961503
 20
12.764912
 30
0.0
 10
6.973317
 20
12.776726
 30
0.0
 10
6.979954
 20
12.792749
 30
0.0
 10
6.979954
 20
12.809457
 30
0.0
  0
SPLINE
  5
170
100
AcDbEntity
  8
Layer_1
 62
7
100
AcDbSpline
 70
8
 71
3
 72
8
 73
4
 74
0
 40
0
 40
0
 40
0
 40
0
 40
1
 40
1
 40
1
 40
1
 10
6.979954
 20
12.809457
 30
0.0
 10
6.979954
 20
12.826164
 30
0.0
 10
6.973317
 20
12.842188
 30
0.0
 10
6.961503
 20
12.854002
 30
0.0
  0
SPLINE
  5
171
100
AcDbEntity
  8
Layer_1
 62
7
100
AcDbSpline
 70
8
 71
3
 72
8
 73
4
 74
0
 40
0
 40
0
 40
0
 40
0
 40
1
 40
1
 40
1
 40
1
 10
6.961503
 20
12.854002
 30
0.0
 10
6.949689
 20
12.865816
 30
0.0
 10
6.933666
 20
12.872453
 30
0.0
 10
6.916958
 20
12.872453
 30
0.0
  0
SPLINE
  5
172
100
AcDbEntity
  8
Layer_1
 62
7
100
AcDbSpline
 70
8
 71
3
 72
8
 73
4
 74
0
 40
0
 40
0
 40
0
 40
0
 40
1
 40
1
 40
1
 40
1
 10
6.916958
 20
12.872453
 30
0.0
 10
6.900250
 20
12.872453
 30
0.0
 10
6.884227
 20
12.865816
 30
0.0
 10
6.872413
 20
12.854002
 30
0.0
  0
SPLINE
  5
173
100
AcDbEntity
  8
Layer_1
 62
7
100
AcDbSpline
 70
8
 71
3
 72
8
 73
4
 74
0
 40
0
 40
0
 40
0
 40
0
 40
1
 40
1
 40
1
 40
1
 10
6.872413
 20
12.854002
 30
0.0
 10
6.860599
 20
12.842188
 30
0.0
 10
6.853962
 20
12.826164
 30
0.0
 10
6.853962
 20
12.809457
 30
0.0
  0
SPLINE
  5
174
100
AcDbEntity
  8
Layer_1
 62
7
100
AcDbSpline
 70
8
 71
3
 72
8
 73
4
 74
0
 40
0
 40
0
 40
0
 40
0
 40
1
 40
1
 40
1
 40
1
 10
16.089480
 20
11.513203
 30
0.0
 10
16.089480
 20
11.496495
 30
0.0
 10
16.096117
 20
11.480472
 30
0.0
 10
16.107931
 20
11.468658
 30
0.0
  0
SPLINE
  5
175
100
AcDbEntity
  8
Layer_1
 62
7
100
AcDbSpline
 70
8
 71
3
 72
8
 73
4
 74
0
 40
0
 40
0
 40
0
 40
0
 40
1
 40
1
 40
1
 40
1
 10
16.107931
 20
11.468658
 30
0.0
 10
16.119745
 20
11.456844
 30
0.0
 10
16.135768
 20
11.450207
 30
0.0
 10
16.152476
 20
11.450207
 30
0.0
  0
SPLINE
  5
176
100
AcDbEntity
  8
Layer_1
 62
7
100
AcDbSpline
 70
8
 71
3
 72
8
 73
4
 74
0
 40
0
 40
0
 40
0
 40
0
 40
1
 40
1
 40
1
 40
1
 10
16.152476
 20
11.450207
 30
0.0
 10
16.169184
 20
11.450207
 30
0.0
 10
16.185207
 20
11.456844
 30
0.0
 10
16.197021
 20
11.468658
 30
0.0
  0
SPLINE
  5
177
100
AcDbEntity
  8
Layer_1
 62
7
100
AcDbSpline
 70
8
 71
3
 72
8
 73
4
 74
0
 40
0
 40
0
 40
0
 40
0
 40
1
 40
1
 40
1
 40
1
 10
16.197021
 20
11.468658
 30
0.0
 10
16.208835
 20
11.480472
 30
0.0
 10
16.215472
 20
11.496495
 30
0.0
 10
16.215472
 20
11.513203
 30
0.0
  0
SPLINE
  5
178
100
AcDbEntity
  8
Layer_1
 62
7
100
AcDbSpline
 70
8
 71
3
 72
8
 73
4
 74
0
 40
0
 40
0
 40
0
 40
0
 40
1
 40
1
 40
1
 40
1
 10
16.215472
 20
11.513203
 30
0.0
 10
16.215472
 20
11.529911
 30
0.0
 10
16.208835
 20
11.545934
 30
0.0
 10
16.197021
 20
11.557748
 30
0.0
  0
SPLINE
  5
179
100
AcDbEntity
  8
Layer_1
 62
7
100
AcDbSpline
 70
8
 71
3
 72
8
 73
4
 74
0
 40
0
 40
0
 40
0
 40
0
 40
1
 40
1
 40
1
 40
1
 10
16.197021
 20
11.557748
 30
0.0
 10
16.185207
 20
11.569562
 30
0.0
 10
16.169184
 20
11.576199
 30
0.0
 10
16.152476
 20
11.576199
 30
0.0
  0
SPLINE
  5
17a
100
AcDbEntity
  8
Layer_1
 62
7
100
AcDbSpline
 70
8
 71
3
 72
8
 73
4
 74
0
 40
0
 40
0
 40
0
 40
0
 40
1
 40
1
 40
1
 40
1
 10
16.152476
 20
11.576199
 30
0.0
 10
16.135768
 20
11.576199
 30
0.0
 10
16.119745
 20
11.569562
 30
0.0
 10
16.107931
 20
11.557748
 30
0.0
  0
SPLINE
  5
17b
100
AcDbEntity
  8
Layer_1
 62
7
100
AcDbSpline
 70
8
 71
3
 72
8
 73
4
 74
0
 40
0
 40
0
 40
0
 40
0
 40
1
 40
1
 40
1
 40
1
 10
16.107931
 20
11.557748
 30
0.0
 10
16.096117
 20
11.545934
 30
0.0
 10
16.089480
 20
11.529911
 30
0.0
 10
16.089480
 20
11.513203
 30
0.0
  0
SPLINE
  5
17c
100
AcDbEntity
  8
Layer_1
 62
7
100
AcDbSpline
 70
8
 71
3
 72
8
 73
4
 74
0
 40
0
 40
0
 40
0
 40
0
 40
1
 40
1
 40
1
 40
1
 10
14.872803
 20
12.767861
 30
0.0
 10
14.872803
 20
12.733069
 30
0.0
 10
14.901007
 20
12.704865
 30
0.0
 10
14.935799
 20
12.704865
 30
0.0
  0
SPLINE
  5
17d
100
AcDbEntity
  8
Layer_1
 62
7
100
AcDbSpline
 70
8
 71
3
 72
8
 73
4
 74
0
 40
0
 40
0
 40
0
 40
0
 40
1
 40
1
 40
1
 40
1
 10
14.935799
 20
12.704865
 30
0.0
 10
14.952506
 20
12.704865
 30
0.0
 10
14.968529
 20
12.711502
 30
0.0
 10
14.980343
 20
12.723316
 30
0.0
  0
SPLINE
  5
17e
100
AcDbEntity
  8
Layer_1
 62
7
100
AcDbSpline
 70
8
 71
3
 72
8
 73
4
 74
0
 40
0
 40
0
 40
0
 40
0
 40
1
 40
1
 40
1
 40
1
 10
14.980343
 20
12.723316
 30
0.0
 10
14.992158
 20
12.735130
 30
0.0
 10
14.998795
 20
12.751154
 30
0.0
 10
14.998795
 20
12.767861
 30
0.0
  0
SPLINE
  5
17f
100
AcDbEntity
  8
Layer_1
 62
7
100
AcDbSpline
 70
8
 71
3
 72
8
 73
4
 74
0
 40
0
 40
0
 40
0
 40
0
 40
1
 40
1
 40
1
 40
1
 10
14.998795
 20
12.767861
 30
0.0
 10
14.998795
 20
12.784569
 30
0.0
 10
14.992158
 20
12.800592
 30
0.0
 10
14.980343
 20
12.812406
 30
0.0
  0
SPLINE
  5
180
100
AcDbEntity
  8
Layer_1
 62
7
100
AcDbSpline
 70
8
 71
3
 72
8
 73
4
 74
0
 40
0
 40
0
 40
0
 40
0
 40
1
 40
1
 40
1
 40
1
 10
14.980343
 20
12.812406
 30
0.0
 10
14.968529
 20
12.824220
 30
0.0
 10
14.952506
 20
12.830857
 30
0.0
 10
14.935799
 20
12.830857
 30
0.0
  0
SPLINE
  5
181
100
AcDbEntity
  8
Layer_1
 62
7
100
AcDbSpline
 70
8
 71
3
 72
8
 73
4
 74
0
 40
0
 40
0
 40
0
 40
0
 40
1
 40
1
 40
1
 40
1
 10
14.935799
 20
12.830857
 30
0.0
 10
14.901007
 20
12.830857
 30
0.0
 10
14.872803
 20
12.802653
 30
0.0
 10
14.872803
 20
12.767861
 30
0.0
  0
SPLINE
  5
182
100
AcDbEntity
  8
Layer_1
 62
7
100
AcDbSpline
 70
8
 71
3
 72
8
 73
4
 74
0
 40
0
 40
0
 40
0
 40
0
 40
1
 40
1
 40
1
 40
1
 10
18.377074
 20
12.627232
 30
0.0
 10
18.377074
 20
12.610524
 30
0.0
 10
18.370437
 20
12.594501
 30
0.0
 10
18.358623
 20
12.582687
 30
0.0
  0
SPLINE
  5
183
100
AcDbEntity
  8
Layer_1
 62
7
100
AcDbSpline
 70
8
 71
3
 72
8
 73
4
 74
0
 40
0
 40
0
 40
0
 40
0
 40
1
 40
1
 40
1
 40
1
 10
18.358623
 20
12.582687
 30
0.0
 10
18.346809
 20
12.570873
 30
0.0
 10
18.330786
 20
12.564236
 30
0.0
 10
18.314078
 20
12.564236
 30
0.0
  0
SPLINE
  5
184
100
AcDbEntity
  8
Layer_1
 62
7
100
AcDbSpline
 70
8
 71
3
 72
8
 73
4
 74
0
 40
0
 40
0
 40
0
 40
0
 40
1
 40
1
 40
1
 40
1
 10
18.314078
 20
12.564236
 30
0.0
 10
18.297371
 20
12.564236
 30
0.0
 10
18.281347
 20
12.570873
 30
0.0
 10
18.269533
 20
12.582687
 30
0.0
  0
SPLINE
  5
185
100
AcDbEntity
  8
Layer_1
 62
7
100
AcDbSpline
 70
8
 71
3
 72
8
 73
4
 74
0
 40
0
 40
0
 40
0
 40
0
 40
1
 40
1
 40
1
 40
1
 10
18.269533
 20
12.582687
 30
0.0
 10
18.257719
 20
12.594501
 30
0.0
 10
18.251082
 20
12.610524
 30
0.0
 10
18.251082
 20
12.627232
 30
0.0
  0
SPLINE
  5
186
100
AcDbEntity
  8
Layer_1
 62
7
100
AcDbSpline
 70
8
 71
3
 72
8
 73
4
 74
0
 40
0
 40
0
 40
0
 40
0
 40
1
 40
1
 40
1
 40
1
 10
18.251082
 20
12.627232
 30
0.0
 10
18.251082
 20
12.643939
 30
0.0
 10
18.257719
 20
12.659963
 30
0.0
 10
18.269533
 20
12.671777
 30
0.0
  0
SPLINE
  5
187
100
AcDbEntity
  8
Layer_1
 62
7
100
AcDbSpline
 70
8
 71
3
 72
8
 73
4
 74
0
 40
0
 40
0
 40
0
 40
0
 40
1
 40
1
 40
1
 40
1
 10
18.269533
 20
12.671777
 30
0.0
 10
18.281347
 20
12.683591
 30
0.0
 10
18.297371
 20
12.690228
 30
0.0
 10
18.314078
 20
12.690228
 30
0.0
  0
SPLINE
  5
188
100
AcDbEntity
  8
Layer_1
 62
7
100
AcDbSpline
 70
8
 71
3
 72
8
 73
4
 74
0
 40
0
 40
0
 40
0
 40
0
 40
1
 40
1
 40
1
 40
1
 10
18.314078
 20
12.690228
 30
0.0
 10
18.330786
 20
12.690228
 30
0.0
 10
18.346809
 20
12.683591
 30
0.0
 10
18.358623
 20
12.671777
 30
0.0
  0
SPLINE
  5
189
100
AcDbEntity
  8
Layer_1
 62
7
100
AcDbSpline
 70
8
 71
3
 72
8
 73
4
 74
0
 40
0
 40
0
 40
0
 40
0
 40
1
 40
1
 40
1
 40
1
 10
18.358623
 20
12.671777
 30
0.0
 10
18.370437
 20
12.659963
 30
0.0
 10
18.377074
 20
12.643939
 30
0.0
 10
18.377074
 20
12.627232
 30
0.0
  0
SPLINE
  5
18a
100
AcDbEntity
  8
Layer_1
 62
7
100
AcDbSpline
 70
8
 71
3
 72
8
 73
4
 74
0
 40
0
 40
0
 40
0
 40
0
 40
1
 40
1
 40
1
 40
1
 10
18.384492
 20
-2.842469
 30
0.0
 10
18.384492
 20
-2.877260
 30
0.0
 10
18.356288
 20
-2.905465
 30
0.0
 10
18.321496
 20
-2.905465
 30
0.0
  0
SPLINE
  5
18b
100
AcDbEntity
  8
Layer_1
 62
7
100
AcDbSpline
 70
8
 71
3
 72
8
 73
4
 74
0
 40
0
 40
0
 40
0
 40
0
 40
1
 40
1
 40
1
 40
1
 10
18.321496
 20
-2.905465
 30
0.0
 10
18.286705
 20
-2.905464
 30
0.0
 10
18.258501
 20
-2.877260
 30
0.0
 10
18.258501
 20
-2.842469
 30
0.0
  0
SPLINE
  5
18c
100
AcDbEntity
  8
Layer_1
 62
7
100
AcDbSpline
 70
8
 71
3
 72
8
 73
4
 74
0
 40
0
 40
0
 40
0
 40
0
 40
1
 40
1
 40
1
 40
1
 10
18.258501
 20
-2.842469
 30
0.0
 10
18.258501
 20
-2.807677
 30
0.0
 10
18.286705
 20
-2.779473
 30
0.0
 10
18.321496
 20
-2.779473
 30
0.0
  0
SPLINE
  5
18d
100
AcDbEntity
  8
Layer_1
 62
7
100
AcDbSpline
 70
8
 71
3
 72
8
 73
4
 74
0
 40
0
 40
0
 40
0
 40
0
 40
1
 40
1
 40
1
 40
1
 10
18.321496
 20
-2.779473
 30
0.0
 10
18.356288
 20
-2.779473
 30
0.0
 10
18.384492
 20
-2.807677
 30
0.0
 10
18.384493
 20
-2.842469
 30
0.0
  0
SPLINE
  5
18e
100
AcDbEntity
  8
Layer_1
 62
7
100
AcDbSpline
 70
8
 71
3
 72
8
 73
4
 74
0
 40
0
 40
0
 40
0
 40
0
 40
1
 40
1
 40
1
 40
1
 10
18.362830
 20
9.058044
 30
0.0
 10
18.362830
 20
9.041336
 30
0.0
 10
18.356193
 20
9.025313
 30
0.0
 10
18.344379
 20
9.013499
 30
0.0
  0
SPLINE
  5
18f
100
AcDbEntity
  8
Layer_1
 62
7
100
AcDbSpline
 70
8
 71
3
 72
8
 73
4
 74
0
 40
0
 40
0
 40
0
 40
0
 40
1
 40
1
 40
1
 40
1
 10
18.344379
 20
9.013499
 30
0.0
 10
18.332565
 20
9.001685
 30
0.0
 10
18.316542
 20
8.995047
 30
0.0
 10
18.299834
 20
8.995048
 30
0.0
  0
SPLINE
  5
190
100
AcDbEntity
  8
Layer_1
 62
7
100
AcDbSpline
 70
8
 71
3
 72
8
 73
4
 74
0
 40
0
 40
0
 40
0
 40
0
 40
1
 40
1
 40
1
 40
1
 10
18.299834
 20
8.995048
 30
0.0
 10
18.283127
 20
8.995047
 30
0.0
 10
18.267103
 20
9.001685
 30
0.0
 10
18.255289
 20
9.013499
 30
0.0
  0
SPLINE
  5
191
100
AcDbEntity
  8
Layer_1
 62
7
100
AcDbSpline
 70
8
 71
3
 72
8
 73
4
 74
0
 40
0
 40
0
 40
0
 40
0
 40
1
 40
1
 40
1
 40
1
 10
18.255289
 20
9.013499
 30
0.0
 10
18.243475
 20
9.025313
 30
0.0
 10
18.236838
 20
9.041336
 30
0.0
 10
18.236838
 20
9.058044
 30
0.0
  0
SPLINE
  5
192
100
AcDbEntity
  8
Layer_1
 62
7
100
AcDbSpline
 70
8
 71
3
 72
8
 73
4
 74
0
 40
0
 40
0
 40
0
 40
0
 40
1
 40
1
 40
1
 40
1
 10
18.236838
 20
9.058044
 30
0.0
 10
18.236838
 20
9.092835
 30
0.0
 10
18.265042
 20
9.121039
 30
0.0
 10
18.299834
 20
9.121039
 30
0.0
  0
SPLINE
  5
193
100
AcDbEntity
  8
Layer_1
 62
7
100
AcDbSpline
 70
8
 71
3
 72
8
 73
4
 74
0
 40
0
 40
0
 40
0
 40
0
 40
1
 40
1
 40
1
 40
1
 10
18.299834
 20
9.121039
 30
0.0
 10
18.334626
 20
9.121039
 30
0.0
 10
18.362830
 20
9.092835
 30
0.0
 10
18.362830
 20
9.058044
 30
0.0
  0
SPLINE
  5
194
100
AcDbEntity
  8
Layer_1
 62
7
100
AcDbSpline
 70
8
 71
3
 72
8
 73
4
 74
0
 40
0
 40
0
 40
0
 40
0
 40
1
 40
1
 40
1
 40
1
 10
18.367581
 20
1.090075
 30
0.0
 10
18.367581
 20
1.055283
 30
0.0
 10
18.339376
 20
1.027079
 30
0.0
 10
18.304585
 20
1.027079
 30
0.0
  0
SPLINE
  5
195
100
AcDbEntity
  8
Layer_1
 62
7
100
AcDbSpline
 70
8
 71
3
 72
8
 73
4
 74
0
 40
0
 40
0
 40
0
 40
0
 40
1
 40
1
 40
1
 40
1
 10
18.304585
 20
1.027079
 30
0.0
 10
18.269793
 20
1.027079
 30
0.0
 10
18.241589
 20
1.055283
 30
0.0
 10
18.241589
 20
1.090075
 30
0.0
  0
SPLINE
  5
196
100
AcDbEntity
  8
Layer_1
 62
7
100
AcDbSpline
 70
8
 71
3
 72
8
 73
4
 74
0
 40
0
 40
0
 40
0
 40
0
 40
1
 40
1
 40
1
 40
1
 10
18.241589
 20
1.090075
 30
0.0
 10
18.241589
 20
1.124867
 30
0.0
 10
18.269793
 20
1.153071
 30
0.0
 10
18.304585
 20
1.153071
 30
0.0
  0
SPLINE
  5
197
100
AcDbEntity
  8
Layer_1
 62
7
100
AcDbSpline
 70
8
 71
3
 72
8
 73
4
 74
0
 40
0
 40
0
 40
0
 40
0
 40
1
 40
1
 40
1
 40
1
 10
18.304585
 20
1.153071
 30
0.0
 10
18.339376
 20
1.153071
 30
0.0
 10
18.367581
 20
1.124867
 30
0.0
 10
18.367581
 20
1.090075
 30
0.0
  0
SPLINE
  5
198
100
AcDbEntity
  8
Layer_1
 62
7
100
AcDbSpline
 70
8
 71
3
 72
8
 73
4
 74
0
 40
0
 40
0
 40
0
 40
0
 40
1
 40
1
 40
1
 40
1
 10
18.367581
 20
4.988738
 30
0.0
 10
18.367581
 20
4.953946
 30
0.0
 10
18.339376
 20
4.925742
 30
0.0
 10
18.304585
 20
4.925742
 30
0.0
  0
SPLINE
  5
199
100
AcDbEntity
  8
Layer_1
 62
7
100
AcDbSpline
 70
8
 71
3
 72
8
 73
4
 74
0
 40
0
 40
0
 40
0
 40
0
 40
1
 40
1
 40
1
 40
1
 10
18.304585
 20
4.925742
 30
0.0
 10
18.269793
 20
4.925742
 30
0.0
 10
18.241589
 20
4.953946
 30
0.0
 10
18.241589
 20
4.988737
 30
0.0
  0
SPLINE
  5
19a
100
AcDbEntity
  8
Layer_1
 62
7
100
AcDbSpline
 70
8
 71
3
 72
8
 73
4
 74
0
 40
0
 40
0
 40
0
 40
0
 40
1
 40
1
 40
1
 40
1
 10
18.241589
 20
4.988737
 30
0.0
 10
18.241589
 20
5.023529
 30
0.0
 10
18.269793
 20
5.051733
 30
0.0
 10
18.304585
 20
5.051733
 30
0.0
  0
SPLINE
  5
19b
100
AcDbEntity
  8
Layer_1
 62
7
100
AcDbSpline
 70
8
 71
3
 72
8
 73
4
 74
0
 40
0
 40
0
 40
0
 40
0
 40
1
 40
1
 40
1
 40
1
 10
18.304585
 20
5.051733
 30
0.0
 10
18.339376
 20
5.051733
 30
0.0
 10
18.367581
 20
5.023529
 30
0.0
 10
18.367581
 20
4.988738
 30
0.0
  0
SPLINE
  5
19c
100
AcDbEntity
  8
Layer_1
 62
7
100
AcDbSpline
 70
8
 71
3
 72
8
 73
4
 74
0
 40
0
 40
0
 40
0
 40
0
 40
1
 40
1
 40
1
 40
1
 10
20.982491
 20
12.663294
 30
0.0
 10
20.982491
 20
12.646587
 30
0.0
 10
20.975854
 20
12.630563
 30
0.0
 10
20.964040
 20
12.618749
 30
0.0
  0
SPLINE
  5
19d
100
AcDbEntity
  8
Layer_1
 62
7
100
AcDbSpline
 70
8
 71
3
 72
8
 73
4
 74
0
 40
0
 40
0
 40
0
 40
0
 40
1
 40
1
 40
1
 40
1
 10
20.964040
 20
12.618749
 30
0.0
 10
20.952226
 20
12.606935
 30
0.0
 10
20.936203
 20
12.600298
 30
0.0
 10
20.919495
 20
12.600298
 30
0.0
  0
SPLINE
  5
19e
100
AcDbEntity
  8
Layer_1
 62
7
100
AcDbSpline
 70
8
 71
3
 72
8
 73
4
 74
0
 40
0
 40
0
 40
0
 40
0
 40
1
 40
1
 40
1
 40
1
 10
20.919495
 20
12.600298
 30
0.0
 10
20.902787
 20
12.600298
 30
0.0
 10
20.886764
 20
12.606935
 30
0.0
 10
20.874950
 20
12.618749
 30
0.0
  0
SPLINE
  5
19f
100
AcDbEntity
  8
Layer_1
 62
7
100
AcDbSpline
 70
8
 71
3
 72
8
 73
4
 74
0
 40
0
 40
0
 40
0
 40
0
 40
1
 40
1
 40
1
 40
1
 10
20.874950
 20
12.618749
 30
0.0
 10
20.863136
 20
12.630563
 30
0.0
 10
20.856499
 20
12.646587
 30
0.0
 10
20.856499
 20
12.663294
 30
0.0
  0
SPLINE
  5
1a0
100
AcDbEntity
  8
Layer_1
 62
7
100
AcDbSpline
 70
8
 71
3
 72
8
 73
4
 74
0
 40
0
 40
0
 40
0
 40
0
 40
1
 40
1
 40
1
 40
1
 10
20.856499
 20
12.663294
 30
0.0
 10
20.856499
 20
12.680002
 30
0.0
 10
20.863136
 20
12.696025
 30
0.0
 10
20.874950
 20
12.707839
 30
0.0
  0
SPLINE
  5
1a1
100
AcDbEntity
  8
Layer_1
 62
7
100
AcDbSpline
 70
8
 71
3
 72
8
 73
4
 74
0
 40
0
 40
0
 40
0
 40
0
 40
1
 40
1
 40
1
 40
1
 10
20.874950
 20
12.707839
 30
0.0
 10
20.886764
 20
12.719653
 30
0.0
 10
20.902787
 20
12.726290
 30
0.0
 10
20.919495
 20
12.726290
 30
0.0
  0
SPLINE
  5
1a2
100
AcDbEntity
  8
Layer_1
 62
7
100
AcDbSpline
 70
8
 71
3
 72
8
 73
4
 74
0
 40
0
 40
0
 40
0
 40
0
 40
1
 40
1
 40
1
 40
1
 10
20.919495
 20
12.726290
 30
0.0
 10
20.936203
 20
12.726290
 30
0.0
 10
20.952226
 20
12.719653
 30
0.0
 10
20.964040
 20
12.707839
 30
0.0
  0
SPLINE
  5
1a3
100
AcDbEntity
  8
Layer_1
 62
7
100
AcDbSpline
 70
8
 71
3
 72
8
 73
4
 74
0
 40
0
 40
0
 40
0
 40
0
 40
1
 40
1
 40
1
 40
1
 10
20.964040
 20
12.707839
 30
0.0
 10
20.975854
 20
12.696025
 30
0.0
 10
20.982491
 20
12.680002
 30
0.0
 10
20.982491
 20
12.663294
 30
0.0
  0
SPLINE
  5
1a4
100
AcDbEntity
  8
Layer_1
 62
7
100
AcDbSpline
 70
8
 71
3
 72
8
 73
4
 74
0
 40
0
 40
0
 40
0
 40
0
 40
1
 40
1
 40
1
 40
1
 10
21.320962
 20
-2.806406
 30
0.0
 10
21.320962
 20
-2.841198
 30
0.0
 10
21.292758
 20
-2.869402
 30
0.0
 10
21.257966
 20
-2.869402
 30
0.0
  0
SPLINE
  5
1a5
100
AcDbEntity
  8
Layer_1
 62
7
100
AcDbSpline
 70
8
 71
3
 72
8
 73
4
 74
0
 40
0
 40
0
 40
0
 40
0
 40
1
 40
1
 40
1
 40
1
 10
21.257966
 20
-2.869402
 30
0.0
 10
21.223174
 20
-2.869402
 30
0.0
 10
21.194970
 20
-2.841198
 30
0.0
 10
21.194970
 20
-2.806406
 30
0.0
  0
SPLINE
  5
1a6
100
AcDbEntity
  8
Layer_1
 62
7
100
AcDbSpline
 70
8
 71
3
 72
8
 73
4
 74
0
 40
0
 40
0
 40
0
 40
0
 40
1
 40
1
 40
1
 40
1
 10
21.194970
 20
-2.806406
 30
0.0
 10
21.194970
 20
-2.771615
 30
0.0
 10
21.223174
 20
-2.743411
 30
0.0
 10
21.257966
 20
-2.743410
 30
0.0
  0
SPLINE
  5
1a7
100
AcDbEntity
  8
Layer_1
 62
7
100
AcDbSpline
 70
8
 71
3
 72
8
 73
4
 74
0
 40
0
 40
0
 40
0
 40
0
 40
1
 40
1
 40
1
 40
1
 10
21.257966
 20
-2.743410
 30
0.0
 10
21.292758
 20
-2.743410
 30
0.0
 10
21.320962
 20
-2.771615
 30
0.0
 10
21.320962
 20
-2.806406
 30
0.0
  0
SPLINE
  5
1a8
100
AcDbEntity
  8
Layer_1
 62
7
100
AcDbSpline
 70
8
 71
3
 72
8
 73
4
 74
0
 40
0
 40
0
 40
0
 40
0
 40
1
 40
1
 40
1
 40
1
 10
20.968247
 20
10.023309
 30
0.0
 10
20.968247
 20
10.006602
 30
0.0
 10
20.961610
 20
9.990578
 30
0.0
 10
20.949796
 20
9.978764
 30
0.0
  0
SPLINE
  5
1a9
100
AcDbEntity
  8
Layer_1
 62
7
100
AcDbSpline
 70
8
 71
3
 72
8
 73
4
 74
0
 40
0
 40
0
 40
0
 40
0
 40
1
 40
1
 40
1
 40
1
 10
20.949796
 20
9.978764
 30
0.0
 10
20.937982
 20
9.966950
 30
0.0
 10
20.921958
 20
9.960313
 30
0.0
 10
20.905251
 20
9.960313
 30
0.0
  0
SPLINE
  5
1aa
100
AcDbEntity
  8
Layer_1
 62
7
100
AcDbSpline
 70
8
 71
3
 72
8
 73
4
 74
0
 40
0
 40
0
 40
0
 40
0
 40
1
 40
1
 40
1
 40
1
 10
20.905251
 20
9.960313
 30
0.0
 10
20.888543
 20
9.960313
 30
0.0
 10
20.872520
 20
9.966950
 30
0.0
 10
20.860706
 20
9.978764
 30
0.0
  0
SPLINE
  5
1ab
100
AcDbEntity
  8
Layer_1
 62
7
100
AcDbSpline
 70
8
 71
3
 72
8
 73
4
 74
0
 40
0
 40
0
 40
0
 40
0
 40
1
 40
1
 40
1
 40
1
 10
20.860706
 20
9.978764
 30
0.0
 10
20.848892
 20
9.990578
 30
0.0
 10
20.842255
 20
10.006602
 30
0.0
 10
20.842255
 20
10.023309
 30
0.0
  0
SPLINE
  5
1ac
100
AcDbEntity
  8
Layer_1
 62
7
100
AcDbSpline
 70
8
 71
3
 72
8
 73
4
 74
0
 40
0
 40
0
 40
0
 40
0
 40
1
 40
1
 40
1
 40
1
 10
20.842255
 20
10.023309
 30
0.0
 10
20.842255
 20
10.058101
 30
0.0
 10
20.870459
 20
10.086305
 30
0.0
 10
20.905251
 20
10.086305
 30
0.0
  0
SPLINE
  5
1ad
100
AcDbEntity
  8
Layer_1
 62
7
100
AcDbSpline
 70
8
 71
3
 72
8
 73
4
 74
0
 40
0
 40
0
 40
0
 40
0
 40
1
 40
1
 40
1
 40
1
 10
20.905251
 20
10.086305
 30
0.0
 10
20.940043
 20
10.086305
 30
0.0
 10
20.968247
 20
10.058101
 30
0.0
 10
20.968247
 20
10.023309
 30
0.0
  0
SPLINE
  5
1ae
100
AcDbEntity
  8
Layer_1
 62
7
100
AcDbSpline
 70
8
 71
3
 72
8
 73
4
 74
0
 40
0
 40
0
 40
0
 40
0
 40
1
 40
1
 40
1
 40
1
 10
20.972997
 20
3.581817
 30
0.0
 10
20.972997
 20
3.547025
 30
0.0
 10
20.944793
 20
3.518821
 30
0.0
 10
20.910001
 20
3.518821
 30
0.0
  0
SPLINE
  5
1af
100
AcDbEntity
  8
Layer_1
 62
7
100
AcDbSpline
 70
8
 71
3
 72
8
 73
4
 74
0
 40
0
 40
0
 40
0
 40
0
 40
1
 40
1
 40
1
 40
1
 10
20.910001
 20
3.518821
 30
0.0
 10
20.875210
 20
3.518821
 30
0.0
 10
20.847006
 20
3.547025
 30
0.0
 10
20.847005
 20
3.581817
 30
0.0
  0
SPLINE
  5
1b0
100
AcDbEntity
  8
Layer_1
 62
7
100
AcDbSpline
 70
8
 71
3
 72
8
 73
4
 74
0
 40
0
 40
0
 40
0
 40
0
 40
1
 40
1
 40
1
 40
1
 10
20.847005
 20
3.581817
 30
0.0
 10
20.847006
 20
3.616608
 30
0.0
 10
20.875210
 20
3.644813
 30
0.0
 10
20.910001
 20
3.644812
 30
0.0
  0
SPLINE
  5
1b1
100
AcDbEntity
  8
Layer_1
 62
7
100
AcDbSpline
 70
8
 71
3
 72
8
 73
4
 74
0
 40
0
 40
0
 40
0
 40
0
 40
1
 40
1
 40
1
 40
1
 10
20.910001
 20
3.644812
 30
0.0
 10
20.944793
 20
3.644813
 30
0.0
 10
20.972997
 20
3.616608
 30
0.0
 10
20.972998
 20
3.581817
 30
0.0
  0
SPLINE
  5
1b2
100
AcDbEntity
  8
Layer_1
 62
7
100
AcDbSpline
 70
8
 71
3
 72
8
 73
4
 74
0
 40
0
 40
0
 40
0
 40
0
 40
1
 40
1
 40
1
 40
1
 10
20.972997
 20
6.261473
 30
0.0
 10
20.972997
 20
6.226681
 30
0.0
 10
20.944793
 20
6.198477
 30
0.0
 10
20.910001
 20
6.198477
 30
0.0
  0
SPLINE
  5
1b3
100
AcDbEntity
  8
Layer_1
 62
7
100
AcDbSpline
 70
8
 71
3
 72
8
 73
4
 74
0
 40
0
 40
0
 40
0
 40
0
 40
1
 40
1
 40
1
 40
1
 10
20.910001
 20
6.198477
 30
0.0
 10
20.875210
 20
6.198477
 30
0.0
 10
20.847006
 20
6.226681
 30
0.0
 10
20.847005
 20
6.261473
 30
0.0
  0
SPLINE
  5
1b4
100
AcDbEntity
  8
Layer_1
 62
7
100
AcDbSpline
 70
8
 71
3
 72
8
 73
4
 74
0
 40
0
 40
0
 40
0
 40
0
 40
1
 40
1
 40
1
 40
1
 10
20.847005
 20
6.261473
 30
0.0
 10
20.847006
 20
6.296265
 30
0.0
 10
20.875210
 20
6.324469
 30
0.0
 10
20.910001
 20
6.324469
 30
0.0
  0
SPLINE
  5
1b5
100
AcDbEntity
  8
Layer_1
 62
7
100
AcDbSpline
 70
8
 71
3
 72
8
 73
4
 74
0
 40
0
 40
0
 40
0
 40
0
 40
1
 40
1
 40
1
 40
1
 10
20.910001
 20
6.324469
 30
0.0
 10
20.944793
 20
6.324469
 30
0.0
 10
20.972997
 20
6.296265
 30
0.0
 10
20.972998
 20
6.261473
 30
0.0
  0
SPLINE
  5
1b6
100
AcDbEntity
  8
Layer_1
 62
7
100
AcDbSpline
 70
8
 71
3
 72
8
 73
4
 74
0
 40
0
 40
0
 40
0
 40
0
 40
1
 40
1
 40
1
 40
1
 10
20.972997
 20
-0.092869
 30
0.0
 10
20.972997
 20
-0.127660
 30
0.0
 10
20.944793
 20
-0.155865
 30
0.0
 10
20.910001
 20
-0.155865
 30
0.0
  0
SPLINE
  5
1b7
100
AcDbEntity
  8
Layer_1
 62
7
100
AcDbSpline
 70
8
 71
3
 72
8
 73
4
 74
0
 40
0
 40
0
 40
0
 40
0
 40
1
 40
1
 40
1
 40
1
 10
20.910001
 20
-0.155865
 30
0.0
 10
20.875210
 20
-0.155865
 30
0.0
 10
20.847006
 20
-0.127660
 30
0.0
 10
20.847005
 20
-0.092869
 30
0.0
  0
SPLINE
  5
1b8
100
AcDbEntity
  8
Layer_1
 62
7
100
AcDbSpline
 70
8
 71
3
 72
8
 73
4
 74
0
 40
0
 40
0
 40
0
 40
0
 40
1
 40
1
 40
1
 40
1
 10
20.847005
 20
-0.092869
 30
0.0
 10
20.847006
 20
-0.058077
 30
0.0
 10
20.875210
 20
-0.029873
 30
0.0
 10
20.910001
 20
-0.029873
 30
0.0
  0
SPLINE
  5
1b9
100
AcDbEntity
  8
Layer_1
 62
7
100
AcDbSpline
 70
8
 71
3
 72
8
 73
4
 74
0
 40
0
 40
0
 40
0
 40
0
 40
1
 40
1
 40
1
 40
1
 10
20.910001
 20
-0.029873
 30
0.0
 10
20.944793
 20
-0.029873
 30
0.0
 10
20.972997
 20
-0.058077
 30
0.0
 10
20.972998
 20
-0.092869
 30
0.0
  0
SPLINE
  5
1ba
100
AcDbEntity
  8
Layer_1
 62
7
100
AcDbSpline
 70
8
 71
3
 72
8
 73
4
 74
0
 40
0
 40
0
 40
0
 40
0
 40
1
 40
1
 40
1
 40
1
 10
24.396746
 20
-2.806406
 30
0.0
 10
24.396745
 20
-2.841198
 30
0.0
 10
24.368541
 20
-2.869402
 30
0.0
 10
24.333749
 20
-2.869402
 30
0.0
  0
SPLINE
  5
1bb
100
AcDbEntity
  8
Layer_1
 62
7
100
AcDbSpline
 70
8
 71
3
 72
8
 73
4
 74
0
 40
0
 40
0
 40
0
 40
0
 40
1
 40
1
 40
1
 40
1
 10
24.333749
 20
-2.869402
 30
0.0
 10
24.298958
 20
-2.869402
 30
0.0
 10
24.270754
 20
-2.841198
 30
0.0
 10
24.270754
 20
-2.806406
 30
0.0
  0
SPLINE
  5
1bc
100
AcDbEntity
  8
Layer_1
 62
7
100
AcDbSpline
 70
8
 71
3
 72
8
 73
4
 74
0
 40
0
 40
0
 40
0
 40
0
 40
1
 40
1
 40
1
 40
1
 10
24.270754
 20
-2.806406
 30
0.0
 10
24.270754
 20
-2.771615
 30
0.0
 10
24.298958
 20
-2.743411
 30
0.0
 10
24.333749
 20
-2.743410
 30
0.0
  0
SPLINE
  5
1bd
100
AcDbEntity
  8
Layer_1
 62
7
100
AcDbSpline
 70
8
 71
3
 72
8
 73
4
 74
0
 40
0
 40
0
 40
0
 40
0
 40
1
 40
1
 40
1
 40
1
 10
24.333749
 20
-2.743410
 30
0.0
 10
24.368541
 20
-2.743410
 30
0.0
 10
24.396745
 20
-2.771615
 30
0.0
 10
24.396746
 20
-2.806406
 30
0.0
  0
SPLINE
  5
1be
100
AcDbEntity
  8
Layer_1
 62
7
100
AcDbSpline
 70
8
 71
3
 72
8
 73
4
 74
0
 40
0
 40
0
 40
0
 40
0
 40
1
 40
1
 40
1
 40
1
 10
27.344973
 20
-2.806406
 30
0.0
 10
27.344973
 20
-2.841198
 30
0.0
 10
27.316769
 20
-2.869402
 30
0.0
 10
27.281977
 20
-2.869402
 30
0.0
  0
SPLINE
  5
1bf
100
AcDbEntity
  8
Layer_1
 62
7
100
AcDbSpline
 70
8
 71
3
 72
8
 73
4
 74
0
 40
0
 40
0
 40
0
 40
0
 40
1
 40
1
 40
1
 40
1
 10
27.281977
 20
-2.869402
 30
0.0
 10
27.247186
 20
-2.869402
 30
0.0
 10
27.218982
 20
-2.841198
 30
0.0
 10
27.218982
 20
-2.806406
 30
0.0
  0
SPLINE
  5
1c0
100
AcDbEntity
  8
Layer_1
 62
7
100
AcDbSpline
 70
8
 71
3
 72
8
 73
4
 74
0
 40
0
 40
0
 40
0
 40
0
 40
1
 40
1
 40
1
 40
1
 10
27.218982
 20
-2.806406
 30
0.0
 10
27.218982
 20
-2.771615
 30
0.0
 10
27.247186
 20
-2.743411
 30
0.0
 10
27.281977
 20
-2.743410
 30
0.0
  0
SPLINE
  5
1c1
100
AcDbEntity
  8
Layer_1
 62
7
100
AcDbSpline
 70
8
 71
3
 72
8
 73
4
 74
0
 40
0
 40
0
 40
0
 40
0
 40
1
 40
1
 40
1
 40
1
 10
27.281977
 20
-2.743410
 30
0.0
 10
27.316769
 20
-2.743410
 30
0.0
 10
27.344973
 20
-2.771615
 30
0.0
 10
27.344973
 20
-2.806406
 30
0.0
  0
SPLINE
  5
1c2
100
AcDbEntity
  8
Layer_1
 62
7
100
AcDbSpline
 70
8
 71
3
 72
8
 73
4
 74
0
 40
0
 40
0
 40
0
 40
0
 40
1
 40
1
 40
1
 40
1
 10
24.396746
 20
-0.191725
 30
0.0
 10
24.396745
 20
-0.226517
 30
0.0
 10
24.368541
 20
-0.254721
 30
0.0
 10
24.333749
 20
-0.254721
 30
0.0
  0
SPLINE
  5
1c3
100
AcDbEntity
  8
Layer_1
 62
7
100
AcDbSpline
 70
8
 71
3
 72
8
 73
4
 74
0
 40
0
 40
0
 40
0
 40
0
 40
1
 40
1
 40
1
 40
1
 10
24.333749
 20
-0.254721
 30
0.0
 10
24.298958
 20
-0.254721
 30
0.0
 10
24.270754
 20
-0.226517
 30
0.0
 10
24.270754
 20
-0.191725
 30
0.0
  0
SPLINE
  5
1c4
100
AcDbEntity
  8
Layer_1
 62
7
100
AcDbSpline
 70
8
 71
3
 72
8
 73
4
 74
0
 40
0
 40
0
 40
0
 40
0
 40
1
 40
1
 40
1
 40
1
 10
24.270754
 20
-0.191725
 30
0.0
 10
24.270754
 20
-0.156933
 30
0.0
 10
24.298958
 20
-0.128729
 30
0.0
 10
24.333749
 20
-0.128729
 30
0.0
  0
SPLINE
  5
1c5
100
AcDbEntity
  8
Layer_1
 62
7
100
AcDbSpline
 70
8
 71
3
 72
8
 73
4
 74
0
 40
0
 40
0
 40
0
 40
0
 40
1
 40
1
 40
1
 40
1
 10
24.333749
 20
-0.128729
 30
0.0
 10
24.368541
 20
-0.128729
 30
0.0
 10
24.396745
 20
-0.156933
 30
0.0
 10
24.396746
 20
-0.191725
 30
0.0
  0
SPLINE
  5
1c6
100
AcDbEntity
  8
Layer_1
 62
7
100
AcDbSpline
 70
8
 71
3
 72
8
 73
4
 74
0
 40
0
 40
0
 40
0
 40
0
 40
1
 40
1
 40
1
 40
1
 10
27.344973
 20
-0.191725
 30
0.0
 10
27.344973
 20
-0.226517
 30
0.0
 10
27.316769
 20
-0.254721
 30
0.0
 10
27.281977
 20
-0.254721
 30
0.0
  0
SPLINE
  5
1c7
100
AcDbEntity
  8
Layer_1
 62
7
100
AcDbSpline
 70
8
 71
3
 72
8
 73
4
 74
0
 40
0
 40
0
 40
0
 40
0
 40
1
 40
1
 40
1
 40
1
 10
27.281977
 20
-0.254721
 30
0.0
 10
27.247186
 20
-0.254721
 30
0.0
 10
27.218982
 20
-0.226517
 30
0.0
 10
27.218982
 20
-0.191725
 30
0.0
  0
SPLINE
  5
1c8
100
AcDbEntity
  8
Layer_1
 62
7
100
AcDbSpline
 70
8
 71
3
 72
8
 73
4
 74
0
 40
0
 40
0
 40
0
 40
0
 40
1
 40
1
 40
1
 40
1
 10
27.218982
 20
-0.191725
 30
0.0
 10
27.218982
 20
-0.156933
 30
0.0
 10
27.247186
 20
-0.128729
 30
0.0
 10
27.281977
 20
-0.128729
 30
0.0
  0
SPLINE
  5
1c9
100
AcDbEntity
  8
Layer_1
 62
7
100
AcDbSpline
 70
8
 71
3
 72
8
 73
4
 74
0
 40
0
 40
0
 40
0
 40
0
 40
1
 40
1
 40
1
 40
1
 10
27.281977
 20
-0.128729
 30
0.0
 10
27.316769
 20
-0.128729
 30
0.0
 10
27.344973
 20
-0.156933
 30
0.0
 10
27.344973
 20
-0.191725
 30
0.0
  0
SPLINE
  5
1ca
100
AcDbEntity
  8
Layer_1
 62
7
100
AcDbSpline
 70
8
 71
3
 72
8
 73
4
 74
0
 40
0
 40
0
 40
0
 40
0
 40
1
 40
1
 40
1
 40
1
 10
24.396746
 20
10.014567
 30
0.0
 10
24.396745
 20
9.979775
 30
0.0
 10
24.368541
 20
9.951571
 30
0.0
 10
24.333749
 20
9.951571
 30
0.0
  0
SPLINE
  5
1cb
100
AcDbEntity
  8
Layer_1
 62
7
100
AcDbSpline
 70
8
 71
3
 72
8
 73
4
 74
0
 40
0
 40
0
 40
0
 40
0
 40
1
 40
1
 40
1
 40
1
 10
24.333749
 20
9.951571
 30
0.0
 10
24.298958
 20
9.951571
 30
0.0
 10
24.270754
 20
9.979775
 30
0.0
 10
24.270754
 20
10.014567
 30
0.0
  0
SPLINE
  5
1cc
100
AcDbEntity
  8
Layer_1
 62
7
100
AcDbSpline
 70
8
 71
3
 72
8
 73
4
 74
0
 40
0
 40
0
 40
0
 40
0
 40
1
 40
1
 40
1
 40
1
 10
24.270754
 20
10.014567
 30
0.0
 10
24.270754
 20
10.049358
 30
0.0
 10
24.298958
 20
10.077562
 30
0.0
 10
24.333749
 20
10.077563
 30
0.0
  0
SPLINE
  5
1cd
100
AcDbEntity
  8
Layer_1
 62
7
100
AcDbSpline
 70
8
 71
3
 72
8
 73
4
 74
0
 40
0
 40
0
 40
0
 40
0
 40
1
 40
1
 40
1
 40
1
 10
24.333749
 20
10.077563
 30
0.0
 10
24.368541
 20
10.077563
 30
0.0
 10
24.396745
 20
10.049358
 30
0.0
 10
24.396746
 20
10.014567
 30
0.0
  0
SPLINE
  5
1ce
100
AcDbEntity
  8
Layer_1
 62
7
100
AcDbSpline
 70
8
 71
3
 72
8
 73
4
 74
0
 40
0
 40
0
 40
0
 40
0
 40
1
 40
1
 40
1
 40
1
 10
27.344973
 20
10.014567
 30
0.0
 10
27.344973
 20
9.979775
 30
0.0
 10
27.316769
 20
9.951571
 30
0.0
 10
27.281977
 20
9.951571
 30
0.0
  0
SPLINE
  5
1cf
100
AcDbEntity
  8
Layer_1
 62
7
100
AcDbSpline
 70
8
 71
3
 72
8
 73
4
 74
0
 40
0
 40
0
 40
0
 40
0
 40
1
 40
1
 40
1
 40
1
 10
27.281977
 20
9.951571
 30
0.0
 10
27.247186
 20
9.951571
 30
0.0
 10
27.218982
 20
9.979775
 30
0.0
 10
27.218982
 20
10.014567
 30
0.0
  0
SPLINE
  5
1d0
100
AcDbEntity
  8
Layer_1
 62
7
100
AcDbSpline
 70
8
 71
3
 72
8
 73
4
 74
0
 40
0
 40
0
 40
0
 40
0
 40
1
 40
1
 40
1
 40
1
 10
27.218982
 20
10.014567
 30
0.0
 10
27.218982
 20
10.049358
 30
0.0
 10
27.247186
 20
10.077562
 30
0.0
 10
27.281977
 20
10.077563
 30
0.0
  0
SPLINE
  5
1d1
100
AcDbEntity
  8
Layer_1
 62
7
100
AcDbSpline
 70
8
 71
3
 72
8
 73
4
 74
0
 40
0
 40
0
 40
0
 40
0
 40
1
 40
1
 40
1
 40
1
 10
27.281977
 20
10.077563
 30
0.0
 10
27.316769
 20
10.077563
 30
0.0
 10
27.344973
 20
10.049358
 30
0.0
 10
27.344973
 20
10.014567
 30
0.0
  0
SPLINE
  5
1d2
100
AcDbEntity
  8
Layer_1
 62
7
100
AcDbSpline
 70
8
 71
3
 72
8
 73
4
 74
0
 40
0
 40
0
 40
0
 40
0
 40
1
 40
1
 40
1
 40
1
 10
24.396746
 20
12.629248
 30
0.0
 10
24.396745
 20
12.594456
 30
0.0
 10
24.368541
 20
12.566252
 30
0.0
 10
24.333749
 20
12.566252
 30
0.0
  0
SPLINE
  5
1d3
100
AcDbEntity
  8
Layer_1
 62
7
100
AcDbSpline
 70
8
 71
3
 72
8
 73
4
 74
0
 40
0
 40
0
 40
0
 40
0
 40
1
 40
1
 40
1
 40
1
 10
24.333749
 20
12.566252
 30
0.0
 10
24.298958
 20
12.566252
 30
0.0
 10
24.270754
 20
12.594456
 30
0.0
 10
24.270754
 20
12.629248
 30
0.0
  0
SPLINE
  5
1d4
100
AcDbEntity
  8
Layer_1
 62
7
100
AcDbSpline
 70
8
 71
3
 72
8
 73
4
 74
0
 40
0
 40
0
 40
0
 40
0
 40
1
 40
1
 40
1
 40
1
 10
24.270754
 20
12.629248
 30
0.0
 10
24.270754
 20
12.664040
 30
0.0
 10
24.298958
 20
12.692244
 30
0.0
 10
24.333749
 20
12.692244
 30
0.0
  0
SPLINE
  5
1d5
100
AcDbEntity
  8
Layer_1
 62
7
100
AcDbSpline
 70
8
 71
3
 72
8
 73
4
 74
0
 40
0
 40
0
 40
0
 40
0
 40
1
 40
1
 40
1
 40
1
 10
24.333749
 20
12.692244
 30
0.0
 10
24.368541
 20
12.692244
 30
0.0
 10
24.396745
 20
12.664040
 30
0.0
 10
24.396746
 20
12.629248
 30
0.0
  0
SPLINE
  5
1d6
100
AcDbEntity
  8
Layer_1
 62
7
100
AcDbSpline
 70
8
 71
3
 72
8
 73
4
 74
0
 40
0
 40
0
 40
0
 40
0
 40
1
 40
1
 40
1
 40
1
 10
27.344973
 20
12.629248
 30
0.0
 10
27.344973
 20
12.594456
 30
0.0
 10
27.316769
 20
12.566252
 30
0.0
 10
27.281977
 20
12.566252
 30
0.0
  0
SPLINE
  5
1d7
100
AcDbEntity
  8
Layer_1
 62
7
100
AcDbSpline
 70
8
 71
3
 72
8
 73
4
 74
0
 40
0
 40
0
 40
0
 40
0
 40
1
 40
1
 40
1
 40
1
 10
27.281977
 20
12.566252
 30
0.0
 10
27.247186
 20
12.566252
 30
0.0
 10
27.218982
 20
12.594456
 30
0.0
 10
27.218982
 20
12.629248
 30
0.0
  0
SPLINE
  5
1d8
100
AcDbEntity
  8
Layer_1
 62
7
100
AcDbSpline
 70
8
 71
3
 72
8
 73
4
 74
0
 40
0
 40
0
 40
0
 40
0
 40
1
 40
1
 40
1
 40
1
 10
27.218982
 20
12.629248
 30
0.0
 10
27.218982
 20
12.664040
 30
0.0
 10
27.247186
 20
12.692244
 30
0.0
 10
27.281977
 20
12.692244
 30
0.0
  0
SPLINE
  5
1d9
100
AcDbEntity
  8
Layer_1
 62
7
100
AcDbSpline
 70
8
 71
3
 72
8
 73
4
 74
0
 40
0
 40
0
 40
0
 40
0
 40
1
 40
1
 40
1
 40
1
 10
27.281977
 20
12.692244
 30
0.0
 10
27.316769
 20
12.692244
 30
0.0
 10
27.344973
 20
12.664040
 30
0.0
 10
27.344973
 20
12.629248
 30
0.0
  0
SPLINE
  5
1da
100
AcDbEntity
  8
Layer_1
 62
7
100
AcDbSpline
 70
8
 71
3
 72
8
 73
4
 74
0
 40
0
 40
0
 40
0
 40
0
 40
1
 40
1
 40
1
 40
1
 10
25.809475
 20
3.629027
 30
0.0
 10
25.809475
 20
3.594235
 30
0.0
 10
25.781271
 20
3.566031
 30
0.0
 10
25.746479
 20
3.566031
 30
0.0
  0
SPLINE
  5
1db
100
AcDbEntity
  8
Layer_1
 62
7
100
AcDbSpline
 70
8
 71
3
 72
8
 73
4
 74
0
 40
0
 40
0
 40
0
 40
0
 40
1
 40
1
 40
1
 40
1
 10
25.746479
 20
3.566031
 30
0.0
 10
25.711688
 20
3.566031
 30
0.0
 10
25.683484
 20
3.594235
 30
0.0
 10
25.683483
 20
3.629027
 30
0.0
  0
SPLINE
  5
1dc
100
AcDbEntity
  8
Layer_1
 62
7
100
AcDbSpline
 70
8
 71
3
 72
8
 73
4
 74
0
 40
0
 40
0
 40
0
 40
0
 40
1
 40
1
 40
1
 40
1
 10
25.683483
 20
3.629027
 30
0.0
 10
25.683484
 20
3.663819
 30
0.0
 10
25.711688
 20
3.692023
 30
0.0
 10
25.746479
 20
3.692023
 30
0.0
  0
SPLINE
  5
1dd
100
AcDbEntity
  8
Layer_1
 62
7
100
AcDbSpline
 70
8
 71
3
 72
8
 73
4
 74
0
 40
0
 40
0
 40
0
 40
0
 40
1
 40
1
 40
1
 40
1
 10
25.746479
 20
3.692023
 30
0.0
 10
25.781271
 20
3.692023
 30
0.0
 10
25.809475
 20
3.663819
 30
0.0
 10
25.809475
 20
3.629027
 30
0.0
  0
SPLINE
  5
1de
100
AcDbEntity
  8
Layer_1
 62
7
100
AcDbSpline
 70
8
 71
3
 72
8
 73
4
 74
0
 40
0
 40
0
 40
0
 40
0
 40
1
 40
1
 40
1
 40
1
 10
25.809475
 20
6.243708
 30
0.0
 10
25.809475
 20
6.208917
 30
0.0
 10
25.781271
 20
6.180712
 30
0.0
 10
25.746479
 20
6.180713
 30
0.0
  0
SPLINE
  5
1df
100
AcDbEntity
  8
Layer_1
 62
7
100
AcDbSpline
 70
8
 71
3
 72
8
 73
4
 74
0
 40
0
 40
0
 40
0
 40
0
 40
1
 40
1
 40
1
 40
1
 10
25.746479
 20
6.180713
 30
0.0
 10
25.711688
 20
6.180713
 30
0.0
 10
25.683484
 20
6.208917
 30
0.0
 10
25.683483
 20
6.243708
 30
0.0
  0
SPLINE
  5
1e0
100
AcDbEntity
  8
Layer_1
 62
7
100
AcDbSpline
 70
8
 71
3
 72
8
 73
4
 74
0
 40
0
 40
0
 40
0
 40
0
 40
1
 40
1
 40
1
 40
1
 10
25.683483
 20
6.243708
 30
0.0
 10
25.683484
 20
6.278500
 30
0.0
 10
25.711688
 20
6.306704
 30
0.0
 10
25.746479
 20
6.306704
 30
0.0
  0
SPLINE
  5
1e1
100
AcDbEntity
  8
Layer_1
 62
7
100
AcDbSpline
 70
8
 71
3
 72
8
 73
4
 74
0
 40
0
 40
0
 40
0
 40
0
 40
1
 40
1
 40
1
 40
1
 10
25.746479
 20
6.306704
 30
0.0
 10
25.781271
 20
6.306704
 30
0.0
 10
25.809475
 20
6.278500
 30
0.0
 10
25.809475
 20
6.243708
 30
0.0
  0
SPLINE
  5
1e2
100
AcDbEntity
  8
Layer_1
 62
7
100
AcDbSpline
 70
8
 71
3
 72
8
 73
4
 74
0
 40
0
 40
0
 40
0
 40
0
 40
1
 40
1
 40
1
 40
1
 10
28.784783
 20
12.651565
 30
0.0
 10
28.784783
 20
12.634858
 30
0.0
 10
28.778146
 20
12.618834
 30
0.0
 10
28.766332
 20
12.607020
 30
0.0
  0
SPLINE
  5
1e3
100
AcDbEntity
  8
Layer_1
 62
7
100
AcDbSpline
 70
8
 71
3
 72
8
 73
4
 74
0
 40
0
 40
0
 40
0
 40
0
 40
1
 40
1
 40
1
 40
1
 10
28.766332
 20
12.607020
 30
0.0
 10
28.754518
 20
12.595206
 30
0.0
 10
28.738494
 20
12.588569
 30
0.0
 10
28.721787
 20
12.588569
 30
0.0
  0
SPLINE
  5
1e4
100
AcDbEntity
  8
Layer_1
 62
7
100
AcDbSpline
 70
8
 71
3
 72
8
 73
4
 74
0
 40
0
 40
0
 40
0
 40
0
 40
1
 40
1
 40
1
 40
1
 10
28.721787
 20
12.588569
 30
0.0
 10
28.705079
 20
12.588569
 30
0.0
 10
28.689056
 20
12.595206
 30
0.0
 10
28.677242
 20
12.607020
 30
0.0
  0
SPLINE
  5
1e5
100
AcDbEntity
  8
Layer_1
 62
7
100
AcDbSpline
 70
8
 71
3
 72
8
 73
4
 74
0
 40
0
 40
0
 40
0
 40
0
 40
1
 40
1
 40
1
 40
1
 10
28.677242
 20
12.607020
 30
0.0
 10
28.665428
 20
12.618834
 30
0.0
 10
28.658791
 20
12.634858
 30
0.0
 10
28.658791
 20
12.651565
 30
0.0
  0
SPLINE
  5
1e6
100
AcDbEntity
  8
Layer_1
 62
7
100
AcDbSpline
 70
8
 71
3
 72
8
 73
4
 74
0
 40
0
 40
0
 40
0
 40
0
 40
1
 40
1
 40
1
 40
1
 10
28.658791
 20
12.651565
 30
0.0
 10
28.658791
 20
12.668273
 30
0.0
 10
28.665428
 20
12.684296
 30
0.0
 10
28.677242
 20
12.696110
 30
0.0
  0
SPLINE
  5
1e7
100
AcDbEntity
  8
Layer_1
 62
7
100
AcDbSpline
 70
8
 71
3
 72
8
 73
4
 74
0
 40
0
 40
0
 40
0
 40
0
 40
1
 40
1
 40
1
 40
1
 10
28.677242
 20
12.696110
 30
0.0
 10
28.689056
 20
12.707924
 30
0.0
 10
28.705079
 20
12.714561
 30
0.0
 10
28.721787
 20
12.714561
 30
0.0
  0
SPLINE
  5
1e8
100
AcDbEntity
  8
Layer_1
 62
7
100
AcDbSpline
 70
8
 71
3
 72
8
 73
4
 74
0
 40
0
 40
0
 40
0
 40
0
 40
1
 40
1
 40
1
 40
1
 10
28.721787
 20
12.714561
 30
0.0
 10
28.738494
 20
12.714561
 30
0.0
 10
28.754518
 20
12.707924
 30
0.0
 10
28.766332
 20
12.696110
 30
0.0
  0
SPLINE
  5
1e9
100
AcDbEntity
  8
Layer_1
 62
7
100
AcDbSpline
 70
8
 71
3
 72
8
 73
4
 74
0
 40
0
 40
0
 40
0
 40
0
 40
1
 40
1
 40
1
 40
1
 10
28.766332
 20
12.696110
 30
0.0
 10
28.778146
 20
12.684296
 30
0.0
 10
28.784783
 20
12.668273
 30
0.0
 10
28.784783
 20
12.651565
 30
0.0
  0
SPLINE
  5
1ea
100
AcDbEntity
  8
Layer_1
 62
7
100
AcDbSpline
 70
8
 71
3
 72
8
 73
4
 74
0
 40
0
 40
0
 40
0
 40
0
 40
1
 40
1
 40
1
 40
1
 10
28.792201
 20
-2.818135
 30
0.0
 10
28.792201
 20
-2.852927
 30
0.0
 10
28.763996
 20
-2.881131
 30
0.0
 10
28.729205
 20
-2.881131
 30
0.0
  0
SPLINE
  5
1eb
100
AcDbEntity
  8
Layer_1
 62
7
100
AcDbSpline
 70
8
 71
3
 72
8
 73
4
 74
0
 40
0
 40
0
 40
0
 40
0
 40
1
 40
1
 40
1
 40
1
 10
28.729205
 20
-2.881131
 30
0.0
 10
28.694413
 20
-2.881131
 30
0.0
 10
28.666209
 20
-2.852927
 30
0.0
 10
28.666209
 20
-2.818135
 30
0.0
  0
SPLINE
  5
1ec
100
AcDbEntity
  8
Layer_1
 62
7
100
AcDbSpline
 70
8
 71
3
 72
8
 73
4
 74
0
 40
0
 40
0
 40
0
 40
0
 40
1
 40
1
 40
1
 40
1
 10
28.666209
 20
-2.818135
 30
0.0
 10
28.666209
 20
-2.783344
 30
0.0
 10
28.694413
 20
-2.755140
 30
0.0
 10
28.729205
 20
-2.755140
 30
0.0
  0
SPLINE
  5
1ed
100
AcDbEntity
  8
Layer_1
 62
7
100
AcDbSpline
 70
8
 71
3
 72
8
 73
4
 74
0
 40
0
 40
0
 40
0
 40
0
 40
1
 40
1
 40
1
 40
1
 10
28.729205
 20
-2.755140
 30
0.0
 10
28.763996
 20
-2.755140
 30
0.0
 10
28.792201
 20
-2.783344
 30
0.0
 10
28.792201
 20
-2.818135
 30
0.0
  0
SPLINE
  5
1ee
100
AcDbEntity
  8
Layer_1
 62
7
100
AcDbSpline
 70
8
 71
3
 72
8
 73
4
 74
0
 40
0
 40
0
 40
0
 40
0
 40
1
 40
1
 40
1
 40
1
 10
28.770539
 20
9.082377
 30
0.0
 10
28.770539
 20
9.065669
 30
0.0
 10
28.763901
 20
9.049646
 30
0.0
 10
28.752087
 20
9.037832
 30
0.0
  0
SPLINE
  5
1ef
100
AcDbEntity
  8
Layer_1
 62
7
100
AcDbSpline
 70
8
 71
3
 72
8
 73
4
 74
0
 40
0
 40
0
 40
0
 40
0
 40
1
 40
1
 40
1
 40
1
 10
28.752087
 20
9.037832
 30
0.0
 10
28.740273
 20
9.026018
 30
0.0
 10
28.724250
 20
9.019381
 30
0.0
 10
28.707542
 20
9.019381
 30
0.0
  0
SPLINE
  5
1f0
100
AcDbEntity
  8
Layer_1
 62
7
100
AcDbSpline
 70
8
 71
3
 72
8
 73
4
 74
0
 40
0
 40
0
 40
0
 40
0
 40
1
 40
1
 40
1
 40
1
 10
28.707542
 20
9.019381
 30
0.0
 10
28.690835
 20
9.019381
 30
0.0
 10
28.674812
 20
9.026018
 30
0.0
 10
28.662998
 20
9.037832
 30
0.0
  0
SPLINE
  5
1f1
100
AcDbEntity
  8
Layer_1
 62
7
100
AcDbSpline
 70
8
 71
3
 72
8
 73
4
 74
0
 40
0
 40
0
 40
0
 40
0
 40
1
 40
1
 40
1
 40
1
 10
28.662998
 20
9.037832
 30
0.0
 10
28.651184
 20
9.049646
 30
0.0
 10
28.644546
 20
9.065669
 30
0.0
 10
28.644546
 20
9.082377
 30
0.0
  0
SPLINE
  5
1f2
100
AcDbEntity
  8
Layer_1
 62
7
100
AcDbSpline
 70
8
 71
3
 72
8
 73
4
 74
0
 40
0
 40
0
 40
0
 40
0
 40
1
 40
1
 40
1
 40
1
 10
28.644546
 20
9.082377
 30
0.0
 10
28.644547
 20
9.117169
 30
0.0
 10
28.672751
 20
9.145373
 30
0.0
 10
28.707542
 20
9.145373
 30
0.0
  0
SPLINE
  5
1f3
100
AcDbEntity
  8
Layer_1
 62
7
100
AcDbSpline
 70
8
 71
3
 72
8
 73
4
 74
0
 40
0
 40
0
 40
0
 40
0
 40
1
 40
1
 40
1
 40
1
 10
28.707542
 20
9.145373
 30
0.0
 10
28.742334
 20
9.145373
 30
0.0
 10
28.770538
 20
9.117169
 30
0.0
 10
28.770539
 20
9.082377
 30
0.0
  0
SPLINE
  5
1f4
100
AcDbEntity
  8
Layer_1
 62
7
100
AcDbSpline
 70
8
 71
3
 72
8
 73
4
 74
0
 40
0
 40
0
 40
0
 40
0
 40
1
 40
1
 40
1
 40
1
 10
28.775289
 20
1.114408
 30
0.0
 10
28.775289
 20
1.079617
 30
0.0
 10
28.747085
 20
1.051412
 30
0.0
 10
28.712293
 20
1.051413
 30
0.0
  0
SPLINE
  5
1f5
100
AcDbEntity
  8
Layer_1
 62
7
100
AcDbSpline
 70
8
 71
3
 72
8
 73
4
 74
0
 40
0
 40
0
 40
0
 40
0
 40
1
 40
1
 40
1
 40
1
 10
28.712293
 20
1.051413
 30
0.0
 10
28.677501
 20
1.051412
 30
0.0
 10
28.649297
 20
1.079617
 30
0.0
 10
28.649297
 20
1.114408
 30
0.0
  0
SPLINE
  5
1f6
100
AcDbEntity
  8
Layer_1
 62
7
100
AcDbSpline
 70
8
 71
3
 72
8
 73
4
 74
0
 40
0
 40
0
 40
0
 40
0
 40
1
 40
1
 40
1
 40
1
 10
28.649297
 20
1.114408
 30
0.0
 10
28.649297
 20
1.149200
 30
0.0
 10
28.677501
 20
1.177404
 30
0.0
 10
28.712293
 20
1.177404
 30
0.0
  0
SPLINE
  5
1f7
100
AcDbEntity
  8
Layer_1
 62
7
100
AcDbSpline
 70
8
 71
3
 72
8
 73
4
 74
0
 40
0
 40
0
 40
0
 40
0
 40
1
 40
1
 40
1
 40
1
 10
28.712293
 20
1.177404
 30
0.0
 10
28.747085
 20
1.177404
 30
0.0
 10
28.775289
 20
1.149200
 30
0.0
 10
28.775289
 20
1.114408
 30
0.0
  0
SPLINE
  5
1f8
100
AcDbEntity
  8
Layer_1
 62
7
100
AcDbSpline
 70
8
 71
3
 72
8
 73
4
 74
0
 40
0
 40
0
 40
0
 40
0
 40
1
 40
1
 40
1
 40
1
 10
28.775289
 20
5.013071
 30
0.0
 10
28.775289
 20
4.978279
 30
0.0
 10
28.747085
 20
4.950075
 30
0.0
 10
28.712293
 20
4.950075
 30
0.0
  0
SPLINE
  5
1f9
100
AcDbEntity
  8
Layer_1
 62
7
100
AcDbSpline
 70
8
 71
3
 72
8
 73
4
 74
0
 40
0
 40
0
 40
0
 40
0
 40
1
 40
1
 40
1
 40
1
 10
28.712293
 20
4.950075
 30
0.0
 10
28.677501
 20
4.950075
 30
0.0
 10
28.649297
 20
4.978279
 30
0.0
 10
28.649297
 20
5.013071
 30
0.0
  0
SPLINE
  5
1fa
100
AcDbEntity
  8
Layer_1
 62
7
100
AcDbSpline
 70
8
 71
3
 72
8
 73
4
 74
0
 40
0
 40
0
 40
0
 40
0
 40
1
 40
1
 40
1
 40
1
 10
28.649297
 20
5.013071
 30
0.0
 10
28.649297
 20
5.047863
 30
0.0
 10
28.677501
 20
5.076067
 30
0.0
 10
28.712293
 20
5.076067
 30
0.0
  0
SPLINE
  5
1fb
100
AcDbEntity
  8
Layer_1
 62
7
100
AcDbSpline
 70
8
 71
3
 72
8
 73
4
 74
0
 40
0
 40
0
 40
0
 40
0
 40
1
 40
1
 40
1
 40
1
 10
28.712293
 20
5.076067
 30
0.0
 10
28.747085
 20
5.076067
 30
0.0
 10
28.775289
 20
5.047863
 30
0.0
 10
28.775289
 20
5.013071
 30
0.0
  0
SPLINE
  5
1fc
100
AcDbEntity
  8
Layer_1
 62
7
100
AcDbSpline
 70
8
 71
3
 72
8
 73
4
 74
0
 40
0
 40
0
 40
0
 40
0
 40
1
 40
1
 40
1
 40
1
 10
16.225269
 20
-2.668928
 30
0.0
 10
16.225269
 20
-2.685636
 30
0.0
 10
16.218632
 20
-2.701659
 30
0.0
 10
16.206818
 20
-2.713473
 30
0.0
  0
SPLINE
  5
1fd
100
AcDbEntity
  8
Layer_1
 62
7
100
AcDbSpline
 70
8
 71
3
 72
8
 73
4
 74
0
 40
0
 40
0
 40
0
 40
0
 40
1
 40
1
 40
1
 40
1
 10
16.206818
 20
-2.713473
 30
0.0
 10
16.195004
 20
-2.725287
 30
0.0
 10
16.178981
 20
-2.731924
 30
0.0
 10
16.162273
 20
-2.731924
 30
0.0
  0
SPLINE
  5
1fe
100
AcDbEntity
  8
Layer_1
 62
7
100
AcDbSpline
 70
8
 71
3
 72
8
 73
4
 74
0
 40
0
 40
0
 40
0
 40
0
 40
1
 40
1
 40
1
 40
1
 10
16.162273
 20
-2.731924
 30
0.0
 10
16.145566
 20
-2.731924
 30
0.0
 10
16.129542
 20
-2.725287
 30
0.0
 10
16.117728
 20
-2.713473
 30
0.0
  0
SPLINE
  5
1ff
100
AcDbEntity
  8
Layer_1
 62
7
100
AcDbSpline
 70
8
 71
3
 72
8
 73
4
 74
0
 40
0
 40
0
 40
0
 40
0
 40
1
 40
1
 40
1
 40
1
 10
16.117728
 20
-2.713473
 30
0.0
 10
16.105914
 20
-2.701659
 30
0.0
 10
16.099277
 20
-2.685636
 30
0.0
 10
16.099277
 20
-2.668928
 30
0.0
  0
SPLINE
  5
200
100
AcDbEntity
  8
Layer_1
 62
7
100
AcDbSpline
 70
8
 71
3
 72
8
 73
4
 74
0
 40
0
 40
0
 40
0
 40
0
 40
1
 40
1
 40
1
 40
1
 10
16.099277
 20
-2.668928
 30
0.0
 10
16.099277
 20
-2.634136
 30
0.0
 10
16.127482
 20
-2.605932
 30
0.0
 10
16.162273
 20
-2.605932
 30
0.0
  0
SPLINE
  5
201
100
AcDbEntity
  8
Layer_1
 62
7
100
AcDbSpline
 70
8
 71
3
 72
8
 73
4
 74
0
 40
0
 40
0
 40
0
 40
0
 40
1
 40
1
 40
1
 40
1
 10
16.162273
 20
-2.605932
 30
0.0
 10
16.197065
 20
-2.605932
 30
0.0
 10
16.225269
 20
-2.634136
 30
0.0
 10
16.225269
 20
-2.668928
 30
0.0
  0
SPLINE
  5
202
100
AcDbEntity
  8
Layer_1
 62
7
100
AcDbSpline
 70
8
 71
3
 72
8
 73
4
 74
0
 40
0
 40
0
 40
0
 40
0
 40
1
 40
1
 40
1
 40
1
 10
16.203607
 20
9.231583
 30
0.0
 10
16.203607
 20
9.214876
 30
0.0
 10
16.196970
 20
9.198852
 30
0.0
 10
16.185156
 20
9.187038
 30
0.0
  0
SPLINE
  5
203
100
AcDbEntity
  8
Layer_1
 62
7
100
AcDbSpline
 70
8
 71
3
 72
8
 73
4
 74
0
 40
0
 40
0
 40
0
 40
0
 40
1
 40
1
 40
1
 40
1
 10
16.185156
 20
9.187038
 30
0.0
 10
16.173342
 20
9.175224
 30
0.0
 10
16.157319
 20
9.168587
 30
0.0
 10
16.140611
 20
9.168587
 30
0.0
  0
SPLINE
  5
204
100
AcDbEntity
  8
Layer_1
 62
7
100
AcDbSpline
 70
8
 71
3
 72
8
 73
4
 74
0
 40
0
 40
0
 40
0
 40
0
 40
1
 40
1
 40
1
 40
1
 10
16.140611
 20
9.168587
 30
0.0
 10
16.123903
 20
9.168587
 30
0.0
 10
16.107880
 20
9.175224
 30
0.0
 10
16.096066
 20
9.187038
 30
0.0
  0
SPLINE
  5
205
100
AcDbEntity
  8
Layer_1
 62
7
100
AcDbSpline
 70
8
 71
3
 72
8
 73
4
 74
0
 40
0
 40
0
 40
0
 40
0
 40
1
 40
1
 40
1
 40
1
 10
16.096066
 20
9.187038
 30
0.0
 10
16.084252
 20
9.198852
 30
0.0
 10
16.077615
 20
9.214876
 30
0.0
 10
16.077615
 20
9.231583
 30
0.0
  0
SPLINE
  5
206
100
AcDbEntity
  8
Layer_1
 62
7
100
AcDbSpline
 70
8
 71
3
 72
8
 73
4
 74
0
 40
0
 40
0
 40
0
 40
0
 40
1
 40
1
 40
1
 40
1
 10
16.077615
 20
9.231583
 30
0.0
 10
16.077615
 20
9.248291
 30
0.0
 10
16.084252
 20
9.264314
 30
0.0
 10
16.096066
 20
9.276128
 30
0.0
  0
SPLINE
  5
207
100
AcDbEntity
  8
Layer_1
 62
7
100
AcDbSpline
 70
8
 71
3
 72
8
 73
4
 74
0
 40
0
 40
0
 40
0
 40
0
 40
1
 40
1
 40
1
 40
1
 10
16.096066
 20
9.276128
 30
0.0
 10
16.107880
 20
9.287942
 30
0.0
 10
16.123903
 20
9.294579
 30
0.0
 10
16.140611
 20
9.294579
 30
0.0
  0
SPLINE
  5
208
100
AcDbEntity
  8
Layer_1
 62
7
100
AcDbSpline
 70
8
 71
3
 72
8
 73
4
 74
0
 40
0
 40
0
 40
0
 40
0
 40
1
 40
1
 40
1
 40
1
 10
16.140611
 20
9.294579
 30
0.0
 10
16.157319
 20
9.294579
 30
0.0
 10
16.173342
 20
9.287942
 30
0.0
 10
16.185156
 20
9.276128
 30
0.0
  0
SPLINE
  5
209
100
AcDbEntity
  8
Layer_1
 62
7
100
AcDbSpline
 70
8
 71
3
 72
8
 73
4
 74
0
 40
0
 40
0
 40
0
 40
0
 40
1
 40
1
 40
1
 40
1
 10
16.185156
 20
9.276128
 30
0.0
 10
16.196970
 20
9.264314
 30
0.0
 10
16.203607
 20
9.248291
 30
0.0
 10
16.203607
 20
9.231583
 30
0.0
  0
SPLINE
  5
20a
100
AcDbEntity
  8
Layer_1
 62
7
100
AcDbSpline
 70
8
 71
3
 72
8
 73
4
 74
0
 40
0
 40
0
 40
0
 40
0
 40
1
 40
1
 40
1
 40
1
 10
16.208358
 20
1.263615
 30
0.0
 10
16.208358
 20
1.246908
 30
0.0
 10
16.201721
 20
1.230884
 30
0.0
 10
16.189907
 20
1.219070
 30
0.0
  0
SPLINE
  5
20b
100
AcDbEntity
  8
Layer_1
 62
7
100
AcDbSpline
 70
8
 71
3
 72
8
 73
4
 74
0
 40
0
 40
0
 40
0
 40
0
 40
1
 40
1
 40
1
 40
1
 10
16.189907
 20
1.219070
 30
0.0
 10
16.178093
 20
1.207256
 30
0.0
 10
16.162069
 20
1.200619
 30
0.0
 10
16.145362
 20
1.200619
 30
0.0
  0
SPLINE
  5
20c
100
AcDbEntity
  8
Layer_1
 62
7
100
AcDbSpline
 70
8
 71
3
 72
8
 73
4
 74
0
 40
0
 40
0
 40
0
 40
0
 40
1
 40
1
 40
1
 40
1
 10
16.145362
 20
1.200619
 30
0.0
 10
16.128654
 20
1.200619
 30
0.0
 10
16.112631
 20
1.207256
 30
0.0
 10
16.100817
 20
1.219070
 30
0.0
  0
SPLINE
  5
20d
100
AcDbEntity
  8
Layer_1
 62
7
100
AcDbSpline
 70
8
 71
3
 72
8
 73
4
 74
0
 40
0
 40
0
 40
0
 40
0
 40
1
 40
1
 40
1
 40
1
 10
16.100817
 20
1.219070
 30
0.0
 10
16.089003
 20
1.230884
 30
0.0
 10
16.082366
 20
1.246908
 30
0.0
 10
16.082366
 20
1.263615
 30
0.0
  0
SPLINE
  5
20e
100
AcDbEntity
  8
Layer_1
 62
7
100
AcDbSpline
 70
8
 71
3
 72
8
 73
4
 74
0
 40
0
 40
0
 40
0
 40
0
 40
1
 40
1
 40
1
 40
1
 10
16.082366
 20
1.263615
 30
0.0
 10
16.082366
 20
1.280323
 30
0.0
 10
16.089003
 20
1.296346
 30
0.0
 10
16.100817
 20
1.308160
 30
0.0
  0
SPLINE
  5
20f
100
AcDbEntity
  8
Layer_1
 62
7
100
AcDbSpline
 70
8
 71
3
 72
8
 73
4
 74
0
 40
0
 40
0
 40
0
 40
0
 40
1
 40
1
 40
1
 40
1
 10
16.100817
 20
1.308160
 30
0.0
 10
16.112631
 20
1.319974
 30
0.0
 10
16.128654
 20
1.326611
 30
0.0
 10
16.145362
 20
1.326611
 30
0.0
  0
SPLINE
  5
210
100
AcDbEntity
  8
Layer_1
 62
7
100
AcDbSpline
 70
8
 71
3
 72
8
 73
4
 74
0
 40
0
 40
0
 40
0
 40
0
 40
1
 40
1
 40
1
 40
1
 10
16.145362
 20
1.326611
 30
0.0
 10
16.162069
 20
1.326611
 30
0.0
 10
16.178093
 20
1.319974
 30
0.0
 10
16.189907
 20
1.308160
 30
0.0
  0
SPLINE
  5
211
100
AcDbEntity
  8
Layer_1
 62
7
100
AcDbSpline
 70
8
 71
3
 72
8
 73
4
 74
0
 40
0
 40
0
 40
0
 40
0
 40
1
 40
1
 40
1
 40
1
 10
16.189907
 20
1.308160
 30
0.0
 10
16.201721
 20
1.296346
 30
0.0
 10
16.208358
 20
1.280323
 30
0.0
 10
16.208358
 20
1.263615
 30
0.0
  0
SPLINE
  5
212
100
AcDbEntity
  8
Layer_1
 62
7
100
AcDbSpline
 70
8
 71
3
 72
8
 73
4
 74
0
 40
0
 40
0
 40
0
 40
0
 40
1
 40
1
 40
1
 40
1
 10
16.208358
 20
5.162276
 30
0.0
 10
16.208358
 20
5.145569
 30
0.0
 10
16.201721
 20
5.129546
 30
0.0
 10
16.189907
 20
5.117732
 30
0.0
  0
SPLINE
  5
213
100
AcDbEntity
  8
Layer_1
 62
7
100
AcDbSpline
 70
8
 71
3
 72
8
 73
4
 74
0
 40
0
 40
0
 40
0
 40
0
 40
1
 40
1
 40
1
 40
1
 10
16.189907
 20
5.117732
 30
0.0
 10
16.178093
 20
5.105917
 30
0.0
 10
16.162069
 20
5.099280
 30
0.0
 10
16.145362
 20
5.099280
 30
0.0
  0
SPLINE
  5
214
100
AcDbEntity
  8
Layer_1
 62
7
100
AcDbSpline
 70
8
 71
3
 72
8
 73
4
 74
0
 40
0
 40
0
 40
0
 40
0
 40
1
 40
1
 40
1
 40
1
 10
16.145362
 20
5.099280
 30
0.0
 10
16.128654
 20
5.099280
 30
0.0
 10
16.112631
 20
5.105917
 30
0.0
 10
16.100817
 20
5.117732
 30
0.0
  0
SPLINE
  5
215
100
AcDbEntity
  8
Layer_1
 62
7
100
AcDbSpline
 70
8
 71
3
 72
8
 73
4
 74
0
 40
0
 40
0
 40
0
 40
0
 40
1
 40
1
 40
1
 40
1
 10
16.100817
 20
5.117732
 30
0.0
 10
16.089003
 20
5.129546
 30
0.0
 10
16.082366
 20
5.145569
 30
0.0
 10
16.082366
 20
5.162276
 30
0.0
  0
SPLINE
  5
216
100
AcDbEntity
  8
Layer_1
 62
7
100
AcDbSpline
 70
8
 71
3
 72
8
 73
4
 74
0
 40
0
 40
0
 40
0
 40
0
 40
1
 40
1
 40
1
 40
1
 10
16.082366
 20
5.162276
 30
0.0
 10
16.082366
 20
5.178984
 30
0.0
 10
16.089003
 20
5.195007
 30
0.0
 10
16.100817
 20
5.206821
 30
0.0
  0
SPLINE
  5
217
100
AcDbEntity
  8
Layer_1
 62
7
100
AcDbSpline
 70
8
 71
3
 72
8
 73
4
 74
0
 40
0
 40
0
 40
0
 40
0
 40
1
 40
1
 40
1
 40
1
 10
16.100817
 20
5.206821
 30
0.0
 10
16.112631
 20
5.218635
 30
0.0
 10
16.128654
 20
5.225273
 30
0.0
 10
16.145362
 20
5.225273
 30
0.0
  0
SPLINE
  5
218
100
AcDbEntity
  8
Layer_1
 62
7
100
AcDbSpline
 70
8
 71
3
 72
8
 73
4
 74
0
 40
0
 40
0
 40
0
 40
0
 40
1
 40
1
 40
1
 40
1
 10
16.145362
 20
5.225273
 30
0.0
 10
16.162069
 20
5.225273
 30
0.0
 10
16.178093
 20
5.218635
 30
0.0
 10
16.189907
 20
5.206821
 30
0.0
  0
SPLINE
  5
219
100
AcDbEntity
  8
Layer_1
 62
7
100
AcDbSpline
 70
8
 71
3
 72
8
 73
4
 74
0
 40
0
 40
0
 40
0
 40
0
 40
1
 40
1
 40
1
 40
1
 10
16.189907
 20
5.206821
 30
0.0
 10
16.201721
 20
5.195007
 30
0.0
 10
16.208358
 20
5.178984
 30
0.0
 10
16.208358
 20
5.162276
 30
0.0
  0
SPLINE
  5
21a
100
AcDbEntity
  8
Layer_1
 62
7
100
AcDbSpline
 70
8
 71
3
 72
8
 73
4
 74
0
 40
0
 40
0
 40
0
 40
0
 40
1
 40
1
 40
1
 40
1
 10
13.558706
 20
-2.668928
 30
0.0
 10
13.558706
 20
-2.685636
 30
0.0
 10
13.552069
 20
-2.701659
 30
0.0
 10
13.540255
 20
-2.713473
 30
0.0
  0
SPLINE
  5
21b
100
AcDbEntity
  8
Layer_1
 62
7
100
AcDbSpline
 70
8
 71
3
 72
8
 73
4
 74
0
 40
0
 40
0
 40
0
 40
0
 40
1
 40
1
 40
1
 40
1
 10
13.540255
 20
-2.713473
 30
0.0
 10
13.528441
 20
-2.725287
 30
0.0
 10
13.512417
 20
-2.731924
 30
0.0
 10
13.495710
 20
-2.731924
 30
0.0
  0
SPLINE
  5
21c
100
AcDbEntity
  8
Layer_1
 62
7
100
AcDbSpline
 70
8
 71
3
 72
8
 73
4
 74
0
 40
0
 40
0
 40
0
 40
0
 40
1
 40
1
 40
1
 40
1
 10
13.495710
 20
-2.731924
 30
0.0
 10
13.479002
 20
-2.731924
 30
0.0
 10
13.462979
 20
-2.725287
 30
0.0
 10
13.451165
 20
-2.713473
 30
0.0
  0
SPLINE
  5
21d
100
AcDbEntity
  8
Layer_1
 62
7
100
AcDbSpline
 70
8
 71
3
 72
8
 73
4
 74
0
 40
0
 40
0
 40
0
 40
0
 40
1
 40
1
 40
1
 40
1
 10
13.451165
 20
-2.713473
 30
0.0
 10
13.439351
 20
-2.701659
 30
0.0
 10
13.432714
 20
-2.685636
 30
0.0
 10
13.432714
 20
-2.668928
 30
0.0
  0
SPLINE
  5
21e
100
AcDbEntity
  8
Layer_1
 62
7
100
AcDbSpline
 70
8
 71
3
 72
8
 73
4
 74
0
 40
0
 40
0
 40
0
 40
0
 40
1
 40
1
 40
1
 40
1
 10
13.432714
 20
-2.668928
 30
0.0
 10
13.432714
 20
-2.634136
 30
0.0
 10
13.460918
 20
-2.605932
 30
0.0
 10
13.495710
 20
-2.605932
 30
0.0
  0
SPLINE
  5
21f
100
AcDbEntity
  8
Layer_1
 62
7
100
AcDbSpline
 70
8
 71
3
 72
8
 73
4
 74
0
 40
0
 40
0
 40
0
 40
0
 40
1
 40
1
 40
1
 40
1
 10
13.495710
 20
-2.605932
 30
0.0
 10
13.530501
 20
-2.605932
 30
0.0
 10
13.558706
 20
-2.634136
 30
0.0
 10
13.558706
 20
-2.668928
 30
0.0
  0
SPLINE
  5
220
100
AcDbEntity
  8
Layer_1
 62
7
100
AcDbSpline
 70
8
 71
3
 72
8
 73
4
 74
0
 40
0
 40
0
 40
0
 40
0
 40
1
 40
1
 40
1
 40
1
 10
13.537043
 20
10.071044
 30
0.0
 10
13.537043
 20
10.054337
 30
0.0
 10
13.530406
 20
10.038313
 30
0.0
 10
13.518592
 20
10.026499
 30
0.0
  0
SPLINE
  5
221
100
AcDbEntity
  8
Layer_1
 62
7
100
AcDbSpline
 70
8
 71
3
 72
8
 73
4
 74
0
 40
0
 40
0
 40
0
 40
0
 40
1
 40
1
 40
1
 40
1
 10
13.518592
 20
10.026499
 30
0.0
 10
13.506778
 20
10.014685
 30
0.0
 10
13.490755
 20
10.008048
 30
0.0
 10
13.474047
 20
10.008048
 30
0.0
  0
SPLINE
  5
222
100
AcDbEntity
  8
Layer_1
 62
7
100
AcDbSpline
 70
8
 71
3
 72
8
 73
4
 74
0
 40
0
 40
0
 40
0
 40
0
 40
1
 40
1
 40
1
 40
1
 10
13.474047
 20
10.008048
 30
0.0
 10
13.457340
 20
10.008048
 30
0.0
 10
13.441316
 20
10.014685
 30
0.0
 10
13.429502
 20
10.026499
 30
0.0
  0
SPLINE
  5
223
100
AcDbEntity
  8
Layer_1
 62
7
100
AcDbSpline
 70
8
 71
3
 72
8
 73
4
 74
0
 40
0
 40
0
 40
0
 40
0
 40
1
 40
1
 40
1
 40
1
 10
13.429502
 20
10.026499
 30
0.0
 10
13.417688
 20
10.038313
 30
0.0
 10
13.411051
 20
10.054337
 30
0.0
 10
13.411051
 20
10.071044
 30
0.0
  0
SPLINE
  5
224
100
AcDbEntity
  8
Layer_1
 62
7
100
AcDbSpline
 70
8
 71
3
 72
8
 73
4
 74
0
 40
0
 40
0
 40
0
 40
0
 40
1
 40
1
 40
1
 40
1
 10
13.411051
 20
10.071044
 30
0.0
 10
13.411051
 20
10.087752
 30
0.0
 10
13.417688
 20
10.103775
 30
0.0
 10
13.429502
 20
10.115589
 30
0.0
  0
SPLINE
  5
225
100
AcDbEntity
  8
Layer_1
 62
7
100
AcDbSpline
 70
8
 71
3
 72
8
 73
4
 74
0
 40
0
 40
0
 40
0
 40
0
 40
1
 40
1
 40
1
 40
1
 10
13.429502
 20
10.115589
 30
0.0
 10
13.441316
 20
10.127403
 30
0.0
 10
13.457340
 20
10.134040
 30
0.0
 10
13.474047
 20
10.134040
 30
0.0
  0
SPLINE
  5
226
100
AcDbEntity
  8
Layer_1
 62
7
100
AcDbSpline
 70
8
 71
3
 72
8
 73
4
 74
0
 40
0
 40
0
 40
0
 40
0
 40
1
 40
1
 40
1
 40
1
 10
13.474047
 20
10.134040
 30
0.0
 10
13.490755
 20
10.134040
 30
0.0
 10
13.506778
 20
10.127403
 30
0.0
 10
13.518592
 20
10.115589
 30
0.0
  0
SPLINE
  5
227
100
AcDbEntity
  8
Layer_1
 62
7
100
AcDbSpline
 70
8
 71
3
 72
8
 73
4
 74
0
 40
0
 40
0
 40
0
 40
0
 40
1
 40
1
 40
1
 40
1
 10
13.518592
 20
10.115589
 30
0.0
 10
13.530406
 20
10.103775
 30
0.0
 10
13.537043
 20
10.087752
 30
0.0
 10
13.537043
 20
10.071044
 30
0.0
  0
SPLINE
  5
228
100
AcDbEntity
  8
Layer_1
 62
7
100
AcDbSpline
 70
8
 71
3
 72
8
 73
4
 74
0
 40
0
 40
0
 40
0
 40
0
 40
1
 40
1
 40
1
 40
1
 10
13.541794
 20
1.263615
 30
0.0
 10
13.541794
 20
1.246908
 30
0.0
 10
13.535157
 20
1.230884
 30
0.0
 10
13.523343
 20
1.219070
 30
0.0
  0
SPLINE
  5
229
100
AcDbEntity
  8
Layer_1
 62
7
100
AcDbSpline
 70
8
 71
3
 72
8
 73
4
 74
0
 40
0
 40
0
 40
0
 40
0
 40
1
 40
1
 40
1
 40
1
 10
13.523343
 20
1.219070
 30
0.0
 10
13.511529
 20
1.207256
 30
0.0
 10
13.495506
 20
1.200619
 30
0.0
 10
13.478798
 20
1.200619
 30
0.0
  0
SPLINE
  5
22a
100
AcDbEntity
  8
Layer_1
 62
7
100
AcDbSpline
 70
8
 71
3
 72
8
 73
4
 74
0
 40
0
 40
0
 40
0
 40
0
 40
1
 40
1
 40
1
 40
1
 10
13.478798
 20
1.200619
 30
0.0
 10
13.462090
 20
1.200619
 30
0.0
 10
13.446067
 20
1.207256
 30
0.0
 10
13.434253
 20
1.219070
 30
0.0
  0
SPLINE
  5
22b
100
AcDbEntity
  8
Layer_1
 62
7
100
AcDbSpline
 70
8
 71
3
 72
8
 73
4
 74
0
 40
0
 40
0
 40
0
 40
0
 40
1
 40
1
 40
1
 40
1
 10
13.434253
 20
1.219070
 30
0.0
 10
13.422439
 20
1.230884
 30
0.0
 10
13.415802
 20
1.246908
 30
0.0
 10
13.415802
 20
1.263615
 30
0.0
  0
SPLINE
  5
22c
100
AcDbEntity
  8
Layer_1
 62
7
100
AcDbSpline
 70
8
 71
3
 72
8
 73
4
 74
0
 40
0
 40
0
 40
0
 40
0
 40
1
 40
1
 40
1
 40
1
 10
13.415802
 20
1.263615
 30
0.0
 10
13.415802
 20
1.280323
 30
0.0
 10
13.422439
 20
1.296346
 30
0.0
 10
13.434253
 20
1.308160
 30
0.0
  0
SPLINE
  5
22d
100
AcDbEntity
  8
Layer_1
 62
7
100
AcDbSpline
 70
8
 71
3
 72
8
 73
4
 74
0
 40
0
 40
0
 40
0
 40
0
 40
1
 40
1
 40
1
 40
1
 10
13.434253
 20
1.308160
 30
0.0
 10
13.446067
 20
1.319974
 30
0.0
 10
13.462090
 20
1.326611
 30
0.0
 10
13.478798
 20
1.326611
 30
0.0
  0
SPLINE
  5
22e
100
AcDbEntity
  8
Layer_1
 62
7
100
AcDbSpline
 70
8
 71
3
 72
8
 73
4
 74
0
 40
0
 40
0
 40
0
 40
0
 40
1
 40
1
 40
1
 40
1
 10
13.478798
 20
1.326611
 30
0.0
 10
13.495506
 20
1.326611
 30
0.0
 10
13.511529
 20
1.319974
 30
0.0
 10
13.523343
 20
1.308160
 30
0.0
  0
SPLINE
  5
22f
100
AcDbEntity
  8
Layer_1
 62
7
100
AcDbSpline
 70
8
 71
3
 72
8
 73
4
 74
0
 40
0
 40
0
 40
0
 40
0
 40
1
 40
1
 40
1
 40
1
 10
13.523343
 20
1.308160
 30
0.0
 10
13.535157
 20
1.296346
 30
0.0
 10
13.541794
 20
1.280323
 30
0.0
 10
13.541794
 20
1.263615
 30
0.0
  0
SPLINE
  5
230
100
AcDbEntity
  8
Layer_1
 62
7
100
AcDbSpline
 70
8
 71
3
 72
8
 73
4
 74
0
 40
0
 40
0
 40
0
 40
0
 40
1
 40
1
 40
1
 40
1
 10
13.541794
 20
5.162276
 30
0.0
 10
13.541794
 20
5.145569
 30
0.0
 10
13.535157
 20
5.129546
 30
0.0
 10
13.523343
 20
5.117732
 30
0.0
  0
SPLINE
  5
231
100
AcDbEntity
  8
Layer_1
 62
7
100
AcDbSpline
 70
8
 71
3
 72
8
 73
4
 74
0
 40
0
 40
0
 40
0
 40
0
 40
1
 40
1
 40
1
 40
1
 10
13.523343
 20
5.117732
 30
0.0
 10
13.511529
 20
5.105917
 30
0.0
 10
13.495506
 20
5.099280
 30
0.0
 10
13.478798
 20
5.099280
 30
0.0
  0
SPLINE
  5
232
100
AcDbEntity
  8
Layer_1
 62
7
100
AcDbSpline
 70
8
 71
3
 72
8
 73
4
 74
0
 40
0
 40
0
 40
0
 40
0
 40
1
 40
1
 40
1
 40
1
 10
13.478798
 20
5.099280
 30
0.0
 10
13.462090
 20
5.099280
 30
0.0
 10
13.446067
 20
5.105917
 30
0.0
 10
13.434253
 20
5.117732
 30
0.0
  0
SPLINE
  5
233
100
AcDbEntity
  8
Layer_1
 62
7
100
AcDbSpline
 70
8
 71
3
 72
8
 73
4
 74
0
 40
0
 40
0
 40
0
 40
0
 40
1
 40
1
 40
1
 40
1
 10
13.434253
 20
5.117732
 30
0.0
 10
13.422439
 20
5.129546
 30
0.0
 10
13.415802
 20
5.145569
 30
0.0
 10
13.415802
 20
5.162276
 30
0.0
  0
SPLINE
  5
234
100
AcDbEntity
  8
Layer_1
 62
7
100
AcDbSpline
 70
8
 71
3
 72
8
 73
4
 74
0
 40
0
 40
0
 40
0
 40
0
 40
1
 40
1
 40
1
 40
1
 10
13.415802
 20
5.162276
 30
0.0
 10
13.415802
 20
5.178984
 30
0.0
 10
13.422439
 20
5.195007
 30
0.0
 10
13.434253
 20
5.206821
 30
0.0
  0
SPLINE
  5
235
100
AcDbEntity
  8
Layer_1
 62
7
100
AcDbSpline
 70
8
 71
3
 72
8
 73
4
 74
0
 40
0
 40
0
 40
0
 40
0
 40
1
 40
1
 40
1
 40
1
 10
13.434253
 20
5.206821
 30
0.0
 10
13.446067
 20
5.218635
 30
0.0
 10
13.462090
 20
5.225273
 30
0.0
 10
13.478798
 20
5.225273
 30
0.0
  0
SPLINE
  5
236
100
AcDbEntity
  8
Layer_1
 62
7
100
AcDbSpline
 70
8
 71
3
 72
8
 73
4
 74
0
 40
0
 40
0
 40
0
 40
0
 40
1
 40
1
 40
1
 40
1
 10
13.478798
 20
5.225273
 30
0.0
 10
13.495506
 20
5.225273
 30
0.0
 10
13.511529
 20
5.218635
 30
0.0
 10
13.523343
 20
5.206821
 30
0.0
  0
SPLINE
  5
237
100
AcDbEntity
  8
Layer_1
 62
7
100
AcDbSpline
 70
8
 71
3
 72
8
 73
4
 74
0
 40
0
 40
0
 40
0
 40
0
 40
1
 40
1
 40
1
 40
1
 10
13.523343
 20
5.206821
 30
0.0
 10
13.535157
 20
5.195007
 30
0.0
 10
13.541794
 20
5.178984
 30
0.0
 10
13.541794
 20
5.162276
 30
0.0
  0
SPLINE
  5
238
100
AcDbEntity
  8
Layer_1
 62
7
100
AcDbSpline
 70
8
 71
3
 72
8
 73
4
 74
0
 40
0
 40
0
 40
0
 40
0
 40
1
 40
1
 40
1
 40
1
 10
9.802578
 20
-2.668928
 30
0.0
 10
9.802578
 20
-2.685636
 30
0.0
 10
9.795941
 20
-2.701659
 30
0.0
 10
9.784127
 20
-2.713473
 30
0.0
  0
SPLINE
  5
239
100
AcDbEntity
  8
Layer_1
 62
7
100
AcDbSpline
 70
8
 71
3
 72
8
 73
4
 74
0
 40
0
 40
0
 40
0
 40
0
 40
1
 40
1
 40
1
 40
1
 10
9.784127
 20
-2.713473
 30
0.0
 10
9.772313
 20
-2.725287
 30
0.0
 10
9.756290
 20
-2.731924
 30
0.0
 10
9.739582
 20
-2.731924
 30
0.0
  0
SPLINE
  5
23a
100
AcDbEntity
  8
Layer_1
 62
7
100
AcDbSpline
 70
8
 71
3
 72
8
 73
4
 74
0
 40
0
 40
0
 40
0
 40
0
 40
1
 40
1
 40
1
 40
1
 10
9.739582
 20
-2.731924
 30
0.0
 10
9.722874
 20
-2.731924
 30
0.0
 10
9.706851
 20
-2.725287
 30
0.0
 10
9.695037
 20
-2.713473
 30
0.0
  0
SPLINE
  5
23b
100
AcDbEntity
  8
Layer_1
 62
7
100
AcDbSpline
 70
8
 71
3
 72
8
 73
4
 74
0
 40
0
 40
0
 40
0
 40
0
 40
1
 40
1
 40
1
 40
1
 10
9.695037
 20
-2.713473
 30
0.0
 10
9.683223
 20
-2.701659
 30
0.0
 10
9.676586
 20
-2.685636
 30
0.0
 10
9.676586
 20
-2.668928
 30
0.0
  0
SPLINE
  5
23c
100
AcDbEntity
  8
Layer_1
 62
7
100
AcDbSpline
 70
8
 71
3
 72
8
 73
4
 74
0
 40
0
 40
0
 40
0
 40
0
 40
1
 40
1
 40
1
 40
1
 10
9.676586
 20
-2.668928
 30
0.0
 10
9.676586
 20
-2.634136
 30
0.0
 10
9.704790
 20
-2.605932
 30
0.0
 10
9.739582
 20
-2.605932
 30
0.0
  0
SPLINE
  5
23d
100
AcDbEntity
  8
Layer_1
 62
7
100
AcDbSpline
 70
8
 71
3
 72
8
 73
4
 74
0
 40
0
 40
0
 40
0
 40
0
 40
1
 40
1
 40
1
 40
1
 10
9.739582
 20
-2.605932
 30
0.0
 10
9.774374
 20
-2.605932
 30
0.0
 10
9.802578
 20
-2.634136
 30
0.0
 10
9.802578
 20
-2.668928
 30
0.0
  0
SPLINE
  5
23e
100
AcDbEntity
  8
Layer_1
 62
7
100
AcDbSpline
 70
8
 71
3
 72
8
 73
4
 74
0
 40
0
 40
0
 40
0
 40
0
 40
1
 40
1
 40
1
 40
1
 10
9.780916
 20
10.071044
 30
0.0
 10
9.780916
 20
10.054337
 30
0.0
 10
9.774279
 20
10.038313
 30
0.0
 10
9.762465
 20
10.026499
 30
0.0
  0
SPLINE
  5
23f
100
AcDbEntity
  8
Layer_1
 62
7
100
AcDbSpline
 70
8
 71
3
 72
8
 73
4
 74
0
 40
0
 40
0
 40
0
 40
0
 40
1
 40
1
 40
1
 40
1
 10
9.762465
 20
10.026499
 30
0.0
 10
9.750650
 20
10.014685
 30
0.0
 10
9.734627
 20
10.008048
 30
0.0
 10
9.717920
 20
10.008048
 30
0.0
  0
SPLINE
  5
240
100
AcDbEntity
  8
Layer_1
 62
7
100
AcDbSpline
 70
8
 71
3
 72
8
 73
4
 74
0
 40
0
 40
0
 40
0
 40
0
 40
1
 40
1
 40
1
 40
1
 10
9.717920
 20
10.008048
 30
0.0
 10
9.701212
 20
10.008048
 30
0.0
 10
9.685189
 20
10.014685
 30
0.0
 10
9.673375
 20
10.026499
 30
0.0
  0
SPLINE
  5
241
100
AcDbEntity
  8
Layer_1
 62
7
100
AcDbSpline
 70
8
 71
3
 72
8
 73
4
 74
0
 40
0
 40
0
 40
0
 40
0
 40
1
 40
1
 40
1
 40
1
 10
9.673375
 20
10.026499
 30
0.0
 10
9.661561
 20
10.038313
 30
0.0
 10
9.654924
 20
10.054337
 30
0.0
 10
9.654924
 20
10.071044
 30
0.0
  0
SPLINE
  5
242
100
AcDbEntity
  8
Layer_1
 62
7
100
AcDbSpline
 70
8
 71
3
 72
8
 73
4
 74
0
 40
0
 40
0
 40
0
 40
0
 40
1
 40
1
 40
1
 40
1
 10
9.654924
 20
10.071044
 30
0.0
 10
9.654924
 20
10.087752
 30
0.0
 10
9.661561
 20
10.103775
 30
0.0
 10
9.673375
 20
10.115589
 30
0.0
  0
SPLINE
  5
243
100
AcDbEntity
  8
Layer_1
 62
7
100
AcDbSpline
 70
8
 71
3
 72
8
 73
4
 74
0
 40
0
 40
0
 40
0
 40
0
 40
1
 40
1
 40
1
 40
1
 10
9.673375
 20
10.115589
 30
0.0
 10
9.685189
 20
10.127403
 30
0.0
 10
9.701212
 20
10.134040
 30
0.0
 10
9.717920
 20
10.134040
 30
0.0
  0
SPLINE
  5
244
100
AcDbEntity
  8
Layer_1
 62
7
100
AcDbSpline
 70
8
 71
3
 72
8
 73
4
 74
0
 40
0
 40
0
 40
0
 40
0
 40
1
 40
1
 40
1
 40
1
 10
9.717920
 20
10.134040
 30
0.0
 10
9.734627
 20
10.134040
 30
0.0
 10
9.750650
 20
10.127403
 30
0.0
 10
9.762465
 20
10.115589
 30
0.0
  0
SPLINE
  5
245
100
AcDbEntity
  8
Layer_1
 62
7
100
AcDbSpline
 70
8
 71
3
 72
8
 73
4
 74
0
 40
0
 40
0
 40
0
 40
0
 40
1
 40
1
 40
1
 40
1
 10
9.762465
 20
10.115589
 30
0.0
 10
9.774279
 20
10.103775
 30
0.0
 10
9.780916
 20
10.087752
 30
0.0
 10
9.780916
 20
10.071044
 30
0.0
  0
SPLINE
  5
246
100
AcDbEntity
  8
Layer_1
 62
7
100
AcDbSpline
 70
8
 71
3
 72
8
 73
4
 74
0
 40
0
 40
0
 40
0
 40
0
 40
1
 40
1
 40
1
 40
1
 10
9.785666
 20
1.263615
 30
0.0
 10
9.785666
 20
1.246908
 30
0.0
 10
9.779029
 20
1.230884
 30
0.0
 10
9.767215
 20
1.219070
 30
0.0
  0
SPLINE
  5
247
100
AcDbEntity
  8
Layer_1
 62
7
100
AcDbSpline
 70
8
 71
3
 72
8
 73
4
 74
0
 40
0
 40
0
 40
0
 40
0
 40
1
 40
1
 40
1
 40
1
 10
9.767215
 20
1.219070
 30
0.0
 10
9.755401
 20
1.207256
 30
0.0
 10
9.739378
 20
1.200619
 30
0.0
 10
9.722670
 20
1.200619
 30
0.0
  0
SPLINE
  5
248
100
AcDbEntity
  8
Layer_1
 62
7
100
AcDbSpline
 70
8
 71
3
 72
8
 73
4
 74
0
 40
0
 40
0
 40
0
 40
0
 40
1
 40
1
 40
1
 40
1
 10
9.722670
 20
1.200619
 30
0.0
 10
9.705963
 20
1.200619
 30
0.0
 10
9.689939
 20
1.207256
 30
0.0
 10
9.678125
 20
1.219070
 30
0.0
  0
SPLINE
  5
249
100
AcDbEntity
  8
Layer_1
 62
7
100
AcDbSpline
 70
8
 71
3
 72
8
 73
4
 74
0
 40
0
 40
0
 40
0
 40
0
 40
1
 40
1
 40
1
 40
1
 10
9.678125
 20
1.219070
 30
0.0
 10
9.666311
 20
1.230884
 30
0.0
 10
9.659674
 20
1.246908
 30
0.0
 10
9.659674
 20
1.263615
 30
0.0
  0
SPLINE
  5
24a
100
AcDbEntity
  8
Layer_1
 62
7
100
AcDbSpline
 70
8
 71
3
 72
8
 73
4
 74
0
 40
0
 40
0
 40
0
 40
0
 40
1
 40
1
 40
1
 40
1
 10
9.659674
 20
1.263615
 30
0.0
 10
9.659674
 20
1.280323
 30
0.0
 10
9.666311
 20
1.296346
 30
0.0
 10
9.678125
 20
1.308160
 30
0.0
  0
SPLINE
  5
24b
100
AcDbEntity
  8
Layer_1
 62
7
100
AcDbSpline
 70
8
 71
3
 72
8
 73
4
 74
0
 40
0
 40
0
 40
0
 40
0
 40
1
 40
1
 40
1
 40
1
 10
9.678125
 20
1.308160
 30
0.0
 10
9.689939
 20
1.319974
 30
0.0
 10
9.705963
 20
1.326611
 30
0.0
 10
9.722670
 20
1.326611
 30
0.0
  0
SPLINE
  5
24c
100
AcDbEntity
  8
Layer_1
 62
7
100
AcDbSpline
 70
8
 71
3
 72
8
 73
4
 74
0
 40
0
 40
0
 40
0
 40
0
 40
1
 40
1
 40
1
 40
1
 10
9.722670
 20
1.326611
 30
0.0
 10
9.739378
 20
1.326611
 30
0.0
 10
9.755401
 20
1.319974
 30
0.0
 10
9.767215
 20
1.308160
 30
0.0
  0
SPLINE
  5
24d
100
AcDbEntity
  8
Layer_1
 62
7
100
AcDbSpline
 70
8
 71
3
 72
8
 73
4
 74
0
 40
0
 40
0
 40
0
 40
0
 40
1
 40
1
 40
1
 40
1
 10
9.767215
 20
1.308160
 30
0.0
 10
9.779029
 20
1.296346
 30
0.0
 10
9.785666
 20
1.280323
 30
0.0
 10
9.785666
 20
1.263615
 30
0.0
  0
SPLINE
  5
24e
100
AcDbEntity
  8
Layer_1
 62
7
100
AcDbSpline
 70
8
 71
3
 72
8
 73
4
 74
0
 40
0
 40
0
 40
0
 40
0
 40
1
 40
1
 40
1
 40
1
 10
9.785666
 20
5.162276
 30
0.0
 10
9.785666
 20
5.145569
 30
0.0
 10
9.779029
 20
5.129546
 30
0.0
 10
9.767215
 20
5.117732
 30
0.0
  0
SPLINE
  5
24f
100
AcDbEntity
  8
Layer_1
 62
7
100
AcDbSpline
 70
8
 71
3
 72
8
 73
4
 74
0
 40
0
 40
0
 40
0
 40
0
 40
1
 40
1
 40
1
 40
1
 10
9.767215
 20
5.117732
 30
0.0
 10
9.755401
 20
5.105917
 30
0.0
 10
9.739378
 20
5.099280
 30
0.0
 10
9.722670
 20
5.099280
 30
0.0
  0
SPLINE
  5
250
100
AcDbEntity
  8
Layer_1
 62
7
100
AcDbSpline
 70
8
 71
3
 72
8
 73
4
 74
0
 40
0
 40
0
 40
0
 40
0
 40
1
 40
1
 40
1
 40
1
 10
9.722670
 20
5.099280
 30
0.0
 10
9.705963
 20
5.099280
 30
0.0
 10
9.689939
 20
5.105917
 30
0.0
 10
9.678125
 20
5.117732
 30
0.0
  0
SPLINE
  5
251
100
AcDbEntity
  8
Layer_1
 62
7
100
AcDbSpline
 70
8
 71
3
 72
8
 73
4
 74
0
 40
0
 40
0
 40
0
 40
0
 40
1
 40
1
 40
1
 40
1
 10
9.678125
 20
5.117732
 30
0.0
 10
9.666311
 20
5.129546
 30
0.0
 10
9.659674
 20
5.145569
 30
0.0
 10
9.659674
 20
5.162276
 30
0.0
  0
SPLINE
  5
252
100
AcDbEntity
  8
Layer_1
 62
7
100
AcDbSpline
 70
8
 71
3
 72
8
 73
4
 74
0
 40
0
 40
0
 40
0
 40
0
 40
1
 40
1
 40
1
 40
1
 10
9.659674
 20
5.162276
 30
0.0
 10
9.659674
 20
5.178984
 30
0.0
 10
9.666311
 20
5.195007
 30
0.0
 10
9.678125
 20
5.206821
 30
0.0
  0
SPLINE
  5
253
100
AcDbEntity
  8
Layer_1
 62
7
100
AcDbSpline
 70
8
 71
3
 72
8
 73
4
 74
0
 40
0
 40
0
 40
0
 40
0
 40
1
 40
1
 40
1
 40
1
 10
9.678125
 20
5.206821
 30
0.0
 10
9.689939
 20
5.218635
 30
0.0
 10
9.705963
 20
5.225273
 30
0.0
 10
9.722670
 20
5.225273
 30
0.0
  0
SPLINE
  5
254
100
AcDbEntity
  8
Layer_1
 62
7
100
AcDbSpline
 70
8
 71
3
 72
8
 73
4
 74
0
 40
0
 40
0
 40
0
 40
0
 40
1
 40
1
 40
1
 40
1
 10
9.722670
 20
5.225273
 30
0.0
 10
9.739378
 20
5.225273
 30
0.0
 10
9.755401
 20
5.218635
 30
0.0
 10
9.767215
 20
5.206821
 30
0.0
  0
SPLINE
  5
255
100
AcDbEntity
  8
Layer_1
 62
7
100
AcDbSpline
 70
8
 71
3
 72
8
 73
4
 74
0
 40
0
 40
0
 40
0
 40
0
 40
1
 40
1
 40
1
 40
1
 10
9.767215
 20
5.206821
 30
0.0
 10
9.779029
 20
5.195007
 30
0.0
 10
9.785666
 20
5.178984
 30
0.0
 10
9.785666
 20
5.162276
 30
0.0
  0
SPLINE
  5
256
100
AcDbEntity
  8
Layer_1
 62
7
100
AcDbSpline
 70
8
 71
3
 72
8
 73
4
 74
0
 40
0
 40
0
 40
0
 40
0
 40
1
 40
1
 40
1
 40
1
 10
7.193360
 20
-2.668928
 30
0.0
 10
7.193360
 20
-2.685636
 30
0.0
 10
7.186723
 20
-2.701659
 30
0.0
 10
7.174908
 20
-2.713473
 30
0.0
  0
SPLINE
  5
257
100
AcDbEntity
  8
Layer_1
 62
7
100
AcDbSpline
 70
8
 71
3
 72
8
 73
4
 74
0
 40
0
 40
0
 40
0
 40
0
 40
1
 40
1
 40
1
 40
1
 10
7.174908
 20
-2.713473
 30
0.0
 10
7.163094
 20
-2.725287
 30
0.0
 10
7.147071
 20
-2.731924
 30
0.0
 10
7.130364
 20
-2.731924
 30
0.0
  0
SPLINE
  5
258
100
AcDbEntity
  8
Layer_1
 62
7
100
AcDbSpline
 70
8
 71
3
 72
8
 73
4
 74
0
 40
0
 40
0
 40
0
 40
0
 40
1
 40
1
 40
1
 40
1
 10
7.130364
 20
-2.731924
 30
0.0
 10
7.113656
 20
-2.731924
 30
0.0
 10
7.097633
 20
-2.725287
 30
0.0
 10
7.085819
 20
-2.713473
 30
0.0
  0
SPLINE
  5
259
100
AcDbEntity
  8
Layer_1
 62
7
100
AcDbSpline
 70
8
 71
3
 72
8
 73
4
 74
0
 40
0
 40
0
 40
0
 40
0
 40
1
 40
1
 40
1
 40
1
 10
7.085819
 20
-2.713473
 30
0.0
 10
7.074005
 20
-2.701659
 30
0.0
 10
7.067367
 20
-2.685636
 30
0.0
 10
7.067367
 20
-2.668928
 30
0.0
  0
SPLINE
  5
25a
100
AcDbEntity
  8
Layer_1
 62
7
100
AcDbSpline
 70
8
 71
3
 72
8
 73
4
 74
0
 40
0
 40
0
 40
0
 40
0
 40
1
 40
1
 40
1
 40
1
 10
7.067367
 20
-2.668928
 30
0.0
 10
7.067368
 20
-2.634136
 30
0.0
 10
7.095572
 20
-2.605932
 30
0.0
 10
7.130364
 20
-2.605932
 30
0.0
  0
SPLINE
  5
25b
100
AcDbEntity
  8
Layer_1
 62
7
100
AcDbSpline
 70
8
 71
3
 72
8
 73
4
 74
0
 40
0
 40
0
 40
0
 40
0
 40
1
 40
1
 40
1
 40
1
 10
7.130364
 20
-2.605932
 30
0.0
 10
7.165155
 20
-2.605932
 30
0.0
 10
7.193359
 20
-2.634136
 30
0.0
 10
7.193360
 20
-2.668928
 30
0.0
  0
SPLINE
  5
25c
100
AcDbEntity
  8
Layer_1
 62
7
100
AcDbSpline
 70
8
 71
3
 72
8
 73
4
 74
0
 40
0
 40
0
 40
0
 40
0
 40
1
 40
1
 40
1
 40
1
 10
7.171697
 20
10.071044
 30
0.0
 10
7.171697
 20
10.054337
 30
0.0
 10
7.165060
 20
10.038313
 30
0.0
 10
7.153246
 20
10.026499
 30
0.0
  0
SPLINE
  5
25d
100
AcDbEntity
  8
Layer_1
 62
7
100
AcDbSpline
 70
8
 71
3
 72
8
 73
4
 74
0
 40
0
 40
0
 40
0
 40
0
 40
1
 40
1
 40
1
 40
1
 10
7.153246
 20
10.026499
 30
0.0
 10
7.141432
 20
10.014685
 30
0.0
 10
7.125409
 20
10.008048
 30
0.0
 10
7.108701
 20
10.008048
 30
0.0
  0
SPLINE
  5
25e
100
AcDbEntity
  8
Layer_1
 62
7
100
AcDbSpline
 70
8
 71
3
 72
8
 73
4
 74
0
 40
0
 40
0
 40
0
 40
0
 40
1
 40
1
 40
1
 40
1
 10
7.108701
 20
10.008048
 30
0.0
 10
7.091993
 20
10.008048
 30
0.0
 10
7.075970
 20
10.014685
 30
0.0
 10
7.064156
 20
10.026499
 30
0.0
  0
SPLINE
  5
25f
100
AcDbEntity
  8
Layer_1
 62
7
100
AcDbSpline
 70
8
 71
3
 72
8
 73
4
 74
0
 40
0
 40
0
 40
0
 40
0
 40
1
 40
1
 40
1
 40
1
 10
7.064156
 20
10.026499
 30
0.0
 10
7.052342
 20
10.038313
 30
0.0
 10
7.045705
 20
10.054337
 30
0.0
 10
7.045705
 20
10.071044
 30
0.0
  0
SPLINE
  5
260
100
AcDbEntity
  8
Layer_1
 62
7
100
AcDbSpline
 70
8
 71
3
 72
8
 73
4
 74
0
 40
0
 40
0
 40
0
 40
0
 40
1
 40
1
 40
1
 40
1
 10
7.045705
 20
10.071044
 30
0.0
 10
7.045705
 20
10.087752
 30
0.0
 10
7.052342
 20
10.103775
 30
0.0
 10
7.064156
 20
10.115589
 30
0.0
  0
SPLINE
  5
261
100
AcDbEntity
  8
Layer_1
 62
7
100
AcDbSpline
 70
8
 71
3
 72
8
 73
4
 74
0
 40
0
 40
0
 40
0
 40
0
 40
1
 40
1
 40
1
 40
1
 10
7.064156
 20
10.115589
 30
0.0
 10
7.075970
 20
10.127403
 30
0.0
 10
7.091993
 20
10.134040
 30
0.0
 10
7.108701
 20
10.134040
 30
0.0
  0
SPLINE
  5
262
100
AcDbEntity
  8
Layer_1
 62
7
100
AcDbSpline
 70
8
 71
3
 72
8
 73
4
 74
0
 40
0
 40
0
 40
0
 40
0
 40
1
 40
1
 40
1
 40
1
 10
7.108701
 20
10.134040
 30
0.0
 10
7.125409
 20
10.134040
 30
0.0
 10
7.141432
 20
10.127403
 30
0.0
 10
7.153246
 20
10.115589
 30
0.0
  0
SPLINE
  5
263
100
AcDbEntity
  8
Layer_1
 62
7
100
AcDbSpline
 70
8
 71
3
 72
8
 73
4
 74
0
 40
0
 40
0
 40
0
 40
0
 40
1
 40
1
 40
1
 40
1
 10
7.153246
 20
10.115589
 30
0.0
 10
7.165060
 20
10.103775
 30
0.0
 10
7.171697
 20
10.087752
 30
0.0
 10
7.171697
 20
10.071044
 30
0.0
  0
SPLINE
  5
264
100
AcDbEntity
  8
Layer_1
 62
7
100
AcDbSpline
 70
8
 71
3
 72
8
 73
4
 74
0
 40
0
 40
0
 40
0
 40
0
 40
1
 40
1
 40
1
 40
1
 10
7.176448
 20
1.263615
 30
0.0
 10
7.176448
 20
1.246908
 30
0.0
 10
7.169811
 20
1.230884
 30
0.0
 10
7.157997
 20
1.219070
 30
0.0
  0
SPLINE
  5
265
100
AcDbEntity
  8
Layer_1
 62
7
100
AcDbSpline
 70
8
 71
3
 72
8
 73
4
 74
0
 40
0
 40
0
 40
0
 40
0
 40
1
 40
1
 40
1
 40
1
 10
7.157997
 20
1.219070
 30
0.0
 10
7.146183
 20
1.207256
 30
0.0
 10
7.130159
 20
1.200619
 30
0.0
 10
7.113452
 20
1.200619
 30
0.0
  0
SPLINE
  5
266
100
AcDbEntity
  8
Layer_1
 62
7
100
AcDbSpline
 70
8
 71
3
 72
8
 73
4
 74
0
 40
0
 40
0
 40
0
 40
0
 40
1
 40
1
 40
1
 40
1
 10
7.113452
 20
1.200619
 30
0.0
 10
7.096744
 20
1.200619
 30
0.0
 10
7.080721
 20
1.207256
 30
0.0
 10
7.068907
 20
1.219070
 30
0.0
  0
SPLINE
  5
267
100
AcDbEntity
  8
Layer_1
 62
7
100
AcDbSpline
 70
8
 71
3
 72
8
 73
4
 74
0
 40
0
 40
0
 40
0
 40
0
 40
1
 40
1
 40
1
 40
1
 10
7.068907
 20
1.219070
 30
0.0
 10
7.057093
 20
1.230884
 30
0.0
 10
7.050456
 20
1.246908
 30
0.0
 10
7.050456
 20
1.263615
 30
0.0
  0
SPLINE
  5
268
100
AcDbEntity
  8
Layer_1
 62
7
100
AcDbSpline
 70
8
 71
3
 72
8
 73
4
 74
0
 40
0
 40
0
 40
0
 40
0
 40
1
 40
1
 40
1
 40
1
 10
7.050456
 20
1.263615
 30
0.0
 10
7.050456
 20
1.280323
 30
0.0
 10
7.057093
 20
1.296346
 30
0.0
 10
7.068907
 20
1.308160
 30
0.0
  0
SPLINE
  5
269
100
AcDbEntity
  8
Layer_1
 62
7
100
AcDbSpline
 70
8
 71
3
 72
8
 73
4
 74
0
 40
0
 40
0
 40
0
 40
0
 40
1
 40
1
 40
1
 40
1
 10
7.068907
 20
1.308160
 30
0.0
 10
7.080721
 20
1.319974
 30
0.0
 10
7.096744
 20
1.326611
 30
0.0
 10
7.113452
 20
1.326611
 30
0.0
  0
SPLINE
  5
26a
100
AcDbEntity
  8
Layer_1
 62
7
100
AcDbSpline
 70
8
 71
3
 72
8
 73
4
 74
0
 40
0
 40
0
 40
0
 40
0
 40
1
 40
1
 40
1
 40
1
 10
7.113452
 20
1.326611
 30
0.0
 10
7.130159
 20
1.326611
 30
0.0
 10
7.146183
 20
1.319974
 30
0.0
 10
7.157997
 20
1.308160
 30
0.0
  0
SPLINE
  5
26b
100
AcDbEntity
  8
Layer_1
 62
7
100
AcDbSpline
 70
8
 71
3
 72
8
 73
4
 74
0
 40
0
 40
0
 40
0
 40
0
 40
1
 40
1
 40
1
 40
1
 10
7.157997
 20
1.308160
 30
0.0
 10
7.169811
 20
1.296346
 30
0.0
 10
7.176448
 20
1.280323
 30
0.0
 10
7.176448
 20
1.263615
 30
0.0
  0
SPLINE
  5
26c
100
AcDbEntity
  8
Layer_1
 62
7
100
AcDbSpline
 70
8
 71
3
 72
8
 73
4
 74
0
 40
0
 40
0
 40
0
 40
0
 40
1
 40
1
 40
1
 40
1
 10
7.176448
 20
5.162276
 30
0.0
 10
7.176448
 20
5.145569
 30
0.0
 10
7.169811
 20
5.129546
 30
0.0
 10
7.157997
 20
5.117732
 30
0.0
  0
SPLINE
  5
26d
100
AcDbEntity
  8
Layer_1
 62
7
100
AcDbSpline
 70
8
 71
3
 72
8
 73
4
 74
0
 40
0
 40
0
 40
0
 40
0
 40
1
 40
1
 40
1
 40
1
 10
7.157997
 20
5.117732
 30
0.0
 10
7.146183
 20
5.105917
 30
0.0
 10
7.130159
 20
5.099280
 30
0.0
 10
7.113452
 20
5.099280
 30
0.0
  0
SPLINE
  5
26e
100
AcDbEntity
  8
Layer_1
 62
7
100
AcDbSpline
 70
8
 71
3
 72
8
 73
4
 74
0
 40
0
 40
0
 40
0
 40
0
 40
1
 40
1
 40
1
 40
1
 10
7.113452
 20
5.099280
 30
0.0
 10
7.096744
 20
5.099280
 30
0.0
 10
7.080721
 20
5.105917
 30
0.0
 10
7.068907
 20
5.117732
 30
0.0
  0
SPLINE
  5
26f
100
AcDbEntity
  8
Layer_1
 62
7
100
AcDbSpline
 70
8
 71
3
 72
8
 73
4
 74
0
 40
0
 40
0
 40
0
 40
0
 40
1
 40
1
 40
1
 40
1
 10
7.068907
 20
5.117732
 30
0.0
 10
7.057093
 20
5.129546
 30
0.0
 10
7.050456
 20
5.145569
 30
0.0
 10
7.050456
 20
5.162276
 30
0.0
  0
SPLINE
  5
270
100
AcDbEntity
  8
Layer_1
 62
7
100
AcDbSpline
 70
8
 71
3
 72
8
 73
4
 74
0
 40
0
 40
0
 40
0
 40
0
 40
1
 40
1
 40
1
 40
1
 10
7.050456
 20
5.162276
 30
0.0
 10
7.050456
 20
5.178984
 30
0.0
 10
7.057093
 20
5.195007
 30
0.0
 10
7.068907
 20
5.206821
 30
0.0
  0
SPLINE
  5
271
100
AcDbEntity
  8
Layer_1
 62
7
100
AcDbSpline
 70
8
 71
3
 72
8
 73
4
 74
0
 40
0
 40
0
 40
0
 40
0
 40
1
 40
1
 40
1
 40
1
 10
7.068907
 20
5.206821
 30
0.0
 10
7.080721
 20
5.218635
 30
0.0
 10
7.096744
 20
5.225273
 30
0.0
 10
7.113452
 20
5.225273
 30
0.0
  0
SPLINE
  5
272
100
AcDbEntity
  8
Layer_1
 62
7
100
AcDbSpline
 70
8
 71
3
 72
8
 73
4
 74
0
 40
0
 40
0
 40
0
 40
0
 40
1
 40
1
 40
1
 40
1
 10
7.113452
 20
5.225273
 30
0.0
 10
7.130159
 20
5.225273
 30
0.0
 10
7.146183
 20
5.218635
 30
0.0
 10
7.157997
 20
5.206821
 30
0.0
  0
SPLINE
  5
273
100
AcDbEntity
  8
Layer_1
 62
7
100
AcDbSpline
 70
8
 71
3
 72
8
 73
4
 74
0
 40
0
 40
0
 40
0
 40
0
 40
1
 40
1
 40
1
 40
1
 10
7.157997
 20
5.206821
 30
0.0
 10
7.169811
 20
5.195007
 30
0.0
 10
7.176448
 20
5.178984
 30
0.0
 10
7.176448
 20
5.162276
 30
0.0
  0
SPLINE
  5
274
100
AcDbEntity
  8
Layer_1
 62
7
100
AcDbSpline
 70
8
 71
3
 72
8
 73
4
 74
0
 40
0
 40
0
 40
0
 40
0
 40
1
 40
1
 40
1
 40
1
 10
3.437231
 20
-2.668928
 30
0.0
 10
3.437231
 20
-2.685636
 30
0.0
 10
3.430594
 20
-2.701659
 30
0.0
 10
3.418780
 20
-2.713473
 30
0.0
  0
SPLINE
  5
275
100
AcDbEntity
  8
Layer_1
 62
7
100
AcDbSpline
 70
8
 71
3
 72
8
 73
4
 74
0
 40
0
 40
0
 40
0
 40
0
 40
1
 40
1
 40
1
 40
1
 10
3.418780
 20
-2.713473
 30
0.0
 10
3.406966
 20
-2.725287
 30
0.0
 10
3.390943
 20
-2.731924
 30
0.0
 10
3.374235
 20
-2.731924
 30
0.0
  0
SPLINE
  5
276
100
AcDbEntity
  8
Layer_1
 62
7
100
AcDbSpline
 70
8
 71
3
 72
8
 73
4
 74
0
 40
0
 40
0
 40
0
 40
0
 40
1
 40
1
 40
1
 40
1
 10
3.374235
 20
-2.731924
 30
0.0
 10
3.357528
 20
-2.731924
 30
0.0
 10
3.341505
 20
-2.725287
 30
0.0
 10
3.329690
 20
-2.713473
 30
0.0
  0
SPLINE
  5
277
100
AcDbEntity
  8
Layer_1
 62
7
100
AcDbSpline
 70
8
 71
3
 72
8
 73
4
 74
0
 40
0
 40
0
 40
0
 40
0
 40
1
 40
1
 40
1
 40
1
 10
3.329690
 20
-2.713473
 30
0.0
 10
3.317876
 20
-2.701659
 30
0.0
 10
3.311239
 20
-2.685636
 30
0.0
 10
3.311239
 20
-2.668928
 30
0.0
  0
SPLINE
  5
278
100
AcDbEntity
  8
Layer_1
 62
7
100
AcDbSpline
 70
8
 71
3
 72
8
 73
4
 74
0
 40
0
 40
0
 40
0
 40
0
 40
1
 40
1
 40
1
 40
1
 10
3.311239
 20
-2.668928
 30
0.0
 10
3.311239
 20
-2.634136
 30
0.0
 10
3.339444
 20
-2.605932
 30
0.0
 10
3.374235
 20
-2.605932
 30
0.0
  0
SPLINE
  5
279
100
AcDbEntity
  8
Layer_1
 62
7
100
AcDbSpline
 70
8
 71
3
 72
8
 73
4
 74
0
 40
0
 40
0
 40
0
 40
0
 40
1
 40
1
 40
1
 40
1
 10
3.374235
 20
-2.605932
 30
0.0
 10
3.409027
 20
-2.605932
 30
0.0
 10
3.437231
 20
-2.634136
 30
0.0
 10
3.437231
 20
-2.668928
 30
0.0
  0
SPLINE
  5
27a
100
AcDbEntity
  8
Layer_1
 62
7
100
AcDbSpline
 70
8
 71
3
 72
8
 73
4
 74
0
 40
0
 40
0
 40
0
 40
0
 40
1
 40
1
 40
1
 40
1
 10
3.415569
 20
10.071044
 30
0.0
 10
3.415569
 20
10.054337
 30
0.0
 10
3.408932
 20
10.038313
 30
0.0
 10
3.397118
 20
10.026499
 30
0.0
  0
SPLINE
  5
27b
100
AcDbEntity
  8
Layer_1
 62
7
100
AcDbSpline
 70
8
 71
3
 72
8
 73
4
 74
0
 40
0
 40
0
 40
0
 40
0
 40
1
 40
1
 40
1
 40
1
 10
3.397118
 20
10.026499
 30
0.0
 10
3.385304
 20
10.014685
 30
0.0
 10
3.369281
 20
10.008048
 30
0.0
 10
3.352573
 20
10.008048
 30
0.0
  0
SPLINE
  5
27c
100
AcDbEntity
  8
Layer_1
 62
7
100
AcDbSpline
 70
8
 71
3
 72
8
 73
4
 74
0
 40
0
 40
0
 40
0
 40
0
 40
1
 40
1
 40
1
 40
1
 10
3.352573
 20
10.008048
 30
0.0
 10
3.335866
 20
10.008048
 30
0.0
 10
3.319842
 20
10.014685
 30
0.0
 10
3.308028
 20
10.026499
 30
0.0
  0
SPLINE
  5
27d
100
AcDbEntity
  8
Layer_1
 62
7
100
AcDbSpline
 70
8
 71
3
 72
8
 73
4
 74
0
 40
0
 40
0
 40
0
 40
0
 40
1
 40
1
 40
1
 40
1
 10
3.308028
 20
10.026499
 30
0.0
 10
3.296214
 20
10.038313
 30
0.0
 10
3.289577
 20
10.054337
 30
0.0
 10
3.289577
 20
10.071044
 30
0.0
  0
SPLINE
  5
27e
100
AcDbEntity
  8
Layer_1
 62
7
100
AcDbSpline
 70
8
 71
3
 72
8
 73
4
 74
0
 40
0
 40
0
 40
0
 40
0
 40
1
 40
1
 40
1
 40
1
 10
3.289577
 20
10.071044
 30
0.0
 10
3.289577
 20
10.087752
 30
0.0
 10
3.296214
 20
10.103775
 30
0.0
 10
3.308028
 20
10.115589
 30
0.0
  0
SPLINE
  5
27f
100
AcDbEntity
  8
Layer_1
 62
7
100
AcDbSpline
 70
8
 71
3
 72
8
 73
4
 74
0
 40
0
 40
0
 40
0
 40
0
 40
1
 40
1
 40
1
 40
1
 10
3.308028
 20
10.115589
 30
0.0
 10
3.319842
 20
10.127403
 30
0.0
 10
3.335866
 20
10.134040
 30
0.0
 10
3.352573
 20
10.134040
 30
0.0
  0
SPLINE
  5
280
100
AcDbEntity
  8
Layer_1
 62
7
100
AcDbSpline
 70
8
 71
3
 72
8
 73
4
 74
0
 40
0
 40
0
 40
0
 40
0
 40
1
 40
1
 40
1
 40
1
 10
3.352573
 20
10.134040
 30
0.0
 10
3.369281
 20
10.134040
 30
0.0
 10
3.385304
 20
10.127403
 30
0.0
 10
3.397118
 20
10.115589
 30
0.0
  0
SPLINE
  5
281
100
AcDbEntity
  8
Layer_1
 62
7
100
AcDbSpline
 70
8
 71
3
 72
8
 73
4
 74
0
 40
0
 40
0
 40
0
 40
0
 40
1
 40
1
 40
1
 40
1
 10
3.397118
 20
10.115589
 30
0.0
 10
3.408932
 20
10.103775
 30
0.0
 10
3.415569
 20
10.087752
 30
0.0
 10
3.415569
 20
10.071044
 30
0.0
  0
SPLINE
  5
282
100
AcDbEntity
  8
Layer_1
 62
7
100
AcDbSpline
 70
8
 71
3
 72
8
 73
4
 74
0
 40
0
 40
0
 40
0
 40
0
 40
1
 40
1
 40
1
 40
1
 10
3.420320
 20
1.263615
 30
0.0
 10
3.420320
 20
1.228824
 30
0.0
 10
3.392115
 20
1.200619
 30
0.0
 10
3.357324
 20
1.200619
 30
0.0
  0
SPLINE
  5
283
100
AcDbEntity
  8
Layer_1
 62
7
100
AcDbSpline
 70
8
 71
3
 72
8
 73
4
 74
0
 40
0
 40
0
 40
0
 40
0
 40
1
 40
1
 40
1
 40
1
 10
3.357324
 20
1.200619
 30
0.0
 10
3.340616
 20
1.200619
 30
0.0
 10
3.324593
 20
1.207256
 30
0.0
 10
3.312779
 20
1.219070
 30
0.0
  0
SPLINE
  5
284
100
AcDbEntity
  8
Layer_1
 62
7
100
AcDbSpline
 70
8
 71
3
 72
8
 73
4
 74
0
 40
0
 40
0
 40
0
 40
0
 40
1
 40
1
 40
1
 40
1
 10
3.312779
 20
1.219070
 30
0.0
 10
3.300965
 20
1.230884
 30
0.0
 10
3.294328
 20
1.246908
 30
0.0
 10
3.294328
 20
1.263615
 30
0.0
  0
SPLINE
  5
285
100
AcDbEntity
  8
Layer_1
 62
7
100
AcDbSpline
 70
8
 71
3
 72
8
 73
4
 74
0
 40
0
 40
0
 40
0
 40
0
 40
1
 40
1
 40
1
 40
1
 10
3.294328
 20
1.263615
 30
0.0
 10
3.294328
 20
1.280323
 30
0.0
 10
3.300965
 20
1.296346
 30
0.0
 10
3.312779
 20
1.308160
 30
0.0
  0
SPLINE
  5
286
100
AcDbEntity
  8
Layer_1
 62
7
100
AcDbSpline
 70
8
 71
3
 72
8
 73
4
 74
0
 40
0
 40
0
 40
0
 40
0
 40
1
 40
1
 40
1
 40
1
 10
3.312779
 20
1.308160
 30
0.0
 10
3.324593
 20
1.319974
 30
0.0
 10
3.340616
 20
1.326611
 30
0.0
 10
3.357324
 20
1.326611
 30
0.0
  0
SPLINE
  5
287
100
AcDbEntity
  8
Layer_1
 62
7
100
AcDbSpline
 70
8
 71
3
 72
8
 73
4
 74
0
 40
0
 40
0
 40
0
 40
0
 40
1
 40
1
 40
1
 40
1
 10
3.357324
 20
1.326611
 30
0.0
 10
3.392115
 20
1.326611
 30
0.0
 10
3.420320
 20
1.298407
 30
0.0
 10
3.420320
 20
1.263615
 30
0.0
  0
SPLINE
  5
288
100
AcDbEntity
  8
Layer_1
 62
7
100
AcDbSpline
 70
8
 71
3
 72
8
 73
4
 74
0
 40
0
 40
0
 40
0
 40
0
 40
1
 40
1
 40
1
 40
1
 10
3.420320
 20
5.162276
 30
0.0
 10
3.420320
 20
5.127485
 30
0.0
 10
3.392115
 20
5.099281
 30
0.0
 10
3.357324
 20
5.099280
 30
0.0
  0
SPLINE
  5
289
100
AcDbEntity
  8
Layer_1
 62
7
100
AcDbSpline
 70
8
 71
3
 72
8
 73
4
 74
0
 40
0
 40
0
 40
0
 40
0
 40
1
 40
1
 40
1
 40
1
 10
3.357324
 20
5.099280
 30
0.0
 10
3.340616
 20
5.099280
 30
0.0
 10
3.324593
 20
5.105917
 30
0.0
 10
3.312779
 20
5.117732
 30
0.0
  0
SPLINE
  5
28a
100
AcDbEntity
  8
Layer_1
 62
7
100
AcDbSpline
 70
8
 71
3
 72
8
 73
4
 74
0
 40
0
 40
0
 40
0
 40
0
 40
1
 40
1
 40
1
 40
1
 10
3.312779
 20
5.117732
 30
0.0
 10
3.300965
 20
5.129546
 30
0.0
 10
3.294328
 20
5.145569
 30
0.0
 10
3.294328
 20
5.162276
 30
0.0
  0
SPLINE
  5
28b
100
AcDbEntity
  8
Layer_1
 62
7
100
AcDbSpline
 70
8
 71
3
 72
8
 73
4
 74
0
 40
0
 40
0
 40
0
 40
0
 40
1
 40
1
 40
1
 40
1
 10
3.294328
 20
5.162276
 30
0.0
 10
3.294328
 20
5.178984
 30
0.0
 10
3.300965
 20
5.195007
 30
0.0
 10
3.312779
 20
5.206821
 30
0.0
  0
SPLINE
  5
28c
100
AcDbEntity
  8
Layer_1
 62
7
100
AcDbSpline
 70
8
 71
3
 72
8
 73
4
 74
0
 40
0
 40
0
 40
0
 40
0
 40
1
 40
1
 40
1
 40
1
 10
3.312779
 20
5.206821
 30
0.0
 10
3.324593
 20
5.218635
 30
0.0
 10
3.340616
 20
5.225273
 30
0.0
 10
3.357324
 20
5.225273
 30
0.0
  0
SPLINE
  5
28d
100
AcDbEntity
  8
Layer_1
 62
7
100
AcDbSpline
 70
8
 71
3
 72
8
 73
4
 74
0
 40
0
 40
0
 40
0
 40
0
 40
1
 40
1
 40
1
 40
1
 10
3.357324
 20
5.225273
 30
0.0
 10
3.392115
 20
5.225272
 30
0.0
 10
3.420320
 20
5.197068
 30
0.0
 10
3.420320
 20
5.162276
 30
0.0
  0
SPLINE
  5
28e
100
AcDbEntity
  8
Layer_1
 62
7
100
AcDbSpline
 70
8
 71
3
 72
8
 73
4
 74
0
 40
0
 40
0
 40
0
 40
0
 40
1
 40
1
 40
1
 40
1
 10
0.761904
 20
-2.668928
 30
0.0
 10
0.761904
 20
-2.685636
 30
0.0
 10
0.755267
 20
-2.701659
 30
0.0
 10
0.743453
 20
-2.713473
 30
0.0
  0
SPLINE
  5
28f
100
AcDbEntity
  8
Layer_1
 62
7
100
AcDbSpline
 70
8
 71
3
 72
8
 73
4
 74
0
 40
0
 40
0
 40
0
 40
0
 40
1
 40
1
 40
1
 40
1
 10
0.743453
 20
-2.713473
 30
0.0
 10
0.731639
 20
-2.725287
 30
0.0
 10
0.715615
 20
-2.731924
 30
0.0
 10
0.698908
 20
-2.731924
 30
0.0
  0
SPLINE
  5
290
100
AcDbEntity
  8
Layer_1
 62
7
100
AcDbSpline
 70
8
 71
3
 72
8
 73
4
 74
0
 40
0
 40
0
 40
0
 40
0
 40
1
 40
1
 40
1
 40
1
 10
0.698908
 20
-2.731924
 30
0.0
 10
0.682200
 20
-2.731924
 30
0.0
 10
0.666177
 20
-2.725287
 30
0.0
 10
0.654363
 20
-2.713473
 30
0.0
  0
SPLINE
  5
291
100
AcDbEntity
  8
Layer_1
 62
7
100
AcDbSpline
 70
8
 71
3
 72
8
 73
4
 74
0
 40
0
 40
0
 40
0
 40
0
 40
1
 40
1
 40
1
 40
1
 10
0.654363
 20
-2.713473
 30
0.0
 10
0.642549
 20
-2.701659
 30
0.0
 10
0.635912
 20
-2.685636
 30
0.0
 10
0.635912
 20
-2.668928
 30
0.0
  0
SPLINE
  5
292
100
AcDbEntity
  8
Layer_1
 62
7
100
AcDbSpline
 70
8
 71
3
 72
8
 73
4
 74
0
 40
0
 40
0
 40
0
 40
0
 40
1
 40
1
 40
1
 40
1
 10
0.635912
 20
-2.668928
 30
0.0
 10
0.635912
 20
-2.634136
 30
0.0
 10
0.664116
 20
-2.605932
 30
0.0
 10
0.698908
 20
-2.605932
 30
0.0
  0
SPLINE
  5
293
100
AcDbEntity
  8
Layer_1
 62
7
100
AcDbSpline
 70
8
 71
3
 72
8
 73
4
 74
0
 40
0
 40
0
 40
0
 40
0
 40
1
 40
1
 40
1
 40
1
 10
0.698908
 20
-2.605932
 30
0.0
 10
0.733699
 20
-2.605932
 30
0.0
 10
0.761904
 20
-2.634136
 30
0.0
 10
0.761904
 20
-2.668928
 30
0.0
  0
SPLINE
  5
294
100
AcDbEntity
  8
Layer_1
 62
7
100
AcDbSpline
 70
8
 71
3
 72
8
 73
4
 74
0
 40
0
 40
0
 40
0
 40
0
 40
1
 40
1
 40
1
 40
1
 10
0.740241
 20
9.231583
 30
0.0
 10
0.740241
 20
9.214876
 30
0.0
 10
0.733604
 20
9.198852
 30
0.0
 10
0.721790
 20
9.187038
 30
0.0
  0
SPLINE
  5
295
100
AcDbEntity
  8
Layer_1
 62
7
100
AcDbSpline
 70
8
 71
3
 72
8
 73
4
 74
0
 40
0
 40
0
 40
0
 40
0
 40
1
 40
1
 40
1
 40
1
 10
0.721790
 20
9.187038
 30
0.0
 10
0.709976
 20
9.175224
 30
0.0
 10
0.693953
 20
9.168587
 30
0.0
 10
0.677245
 20
9.168587
 30
0.0
  0
SPLINE
  5
296
100
AcDbEntity
  8
Layer_1
 62
7
100
AcDbSpline
 70
8
 71
3
 72
8
 73
4
 74
0
 40
0
 40
0
 40
0
 40
0
 40
1
 40
1
 40
1
 40
1
 10
0.677245
 20
9.168587
 30
0.0
 10
0.660538
 20
9.168587
 30
0.0
 10
0.644515
 20
9.175224
 30
0.0
 10
0.632700
 20
9.187038
 30
0.0
  0
SPLINE
  5
297
100
AcDbEntity
  8
Layer_1
 62
7
100
AcDbSpline
 70
8
 71
3
 72
8
 73
4
 74
0
 40
0
 40
0
 40
0
 40
0
 40
1
 40
1
 40
1
 40
1
 10
0.632700
 20
9.187038
 30
0.0
 10
0.620886
 20
9.198852
 30
0.0
 10
0.614249
 20
9.214876
 30
0.0
 10
0.614249
 20
9.231583
 30
0.0
  0
SPLINE
  5
298
100
AcDbEntity
  8
Layer_1
 62
7
100
AcDbSpline
 70
8
 71
3
 72
8
 73
4
 74
0
 40
0
 40
0
 40
0
 40
0
 40
1
 40
1
 40
1
 40
1
 10
0.614249
 20
9.231583
 30
0.0
 10
0.614249
 20
9.248291
 30
0.0
 10
0.620886
 20
9.264314
 30
0.0
 10
0.632700
 20
9.276128
 30
0.0
  0
SPLINE
  5
299
100
AcDbEntity
  8
Layer_1
 62
7
100
AcDbSpline
 70
8
 71
3
 72
8
 73
4
 74
0
 40
0
 40
0
 40
0
 40
0
 40
1
 40
1
 40
1
 40
1
 10
0.632700
 20
9.276128
 30
0.0
 10
0.644515
 20
9.287942
 30
0.0
 10
0.660538
 20
9.294579
 30
0.0
 10
0.677245
 20
9.294579
 30
0.0
  0
SPLINE
  5
29a
100
AcDbEntity
  8
Layer_1
 62
7
100
AcDbSpline
 70
8
 71
3
 72
8
 73
4
 74
0
 40
0
 40
0
 40
0
 40
0
 40
1
 40
1
 40
1
 40
1
 10
0.677245
 20
9.294579
 30
0.0
 10
0.693953
 20
9.294579
 30
0.0
 10
0.709976
 20
9.287942
 30
0.0
 10
0.721790
 20
9.276128
 30
0.0
  0
SPLINE
  5
29b
100
AcDbEntity
  8
Layer_1
 62
7
100
AcDbSpline
 70
8
 71
3
 72
8
 73
4
 74
0
 40
0
 40
0
 40
0
 40
0
 40
1
 40
1
 40
1
 40
1
 10
0.721790
 20
9.276128
 30
0.0
 10
0.733604
 20
9.264314
 30
0.0
 10
0.740241
 20
9.248291
 30
0.0
 10
0.740241
 20
9.231583
 30
0.0
  0
SPLINE
  5
29c
100
AcDbEntity
  8
Layer_1
 62
7
100
AcDbSpline
 70
8
 71
3
 72
8
 73
4
 74
0
 40
0
 40
0
 40
0
 40
0
 40
1
 40
1
 40
1
 40
1
 10
0.744992
 20
1.263615
 30
0.0
 10
0.744992
 20
1.246908
 30
0.0
 10
0.738355
 20
1.230884
 30
0.0
 10
0.726541
 20
1.219070
 30
0.0
  0
SPLINE
  5
29d
100
AcDbEntity
  8
Layer_1
 62
7
100
AcDbSpline
 70
8
 71
3
 72
8
 73
4
 74
0
 40
0
 40
0
 40
0
 40
0
 40
1
 40
1
 40
1
 40
1
 10
0.726541
 20
1.219070
 30
0.0
 10
0.714727
 20
1.207256
 30
0.0
 10
0.698704
 20
1.200619
 30
0.0
 10
0.681996
 20
1.200619
 30
0.0
  0
SPLINE
  5
29e
100
AcDbEntity
  8
Layer_1
 62
7
100
AcDbSpline
 70
8
 71
3
 72
8
 73
4
 74
0
 40
0
 40
0
 40
0
 40
0
 40
1
 40
1
 40
1
 40
1
 10
0.681996
 20
1.200619
 30
0.0
 10
0.665288
 20
1.200619
 30
0.0
 10
0.649265
 20
1.207256
 30
0.0
 10
0.637451
 20
1.219070
 30
0.0
  0
SPLINE
  5
29f
100
AcDbEntity
  8
Layer_1
 62
7
100
AcDbSpline
 70
8
 71
3
 72
8
 73
4
 74
0
 40
0
 40
0
 40
0
 40
0
 40
1
 40
1
 40
1
 40
1
 10
0.637451
 20
1.219070
 30
0.0
 10
0.625637
 20
1.230884
 30
0.0
 10
0.619000
 20
1.246908
 30
0.0
 10
0.619000
 20
1.263615
 30
0.0
  0
SPLINE
  5
2a0
100
AcDbEntity
  8
Layer_1
 62
7
100
AcDbSpline
 70
8
 71
3
 72
8
 73
4
 74
0
 40
0
 40
0
 40
0
 40
0
 40
1
 40
1
 40
1
 40
1
 10
0.619000
 20
1.263615
 30
0.0
 10
0.619000
 20
1.280323
 30
0.0
 10
0.625637
 20
1.296346
 30
0.0
 10
0.637451
 20
1.308160
 30
0.0
  0
SPLINE
  5
2a1
100
AcDbEntity
  8
Layer_1
 62
7
100
AcDbSpline
 70
8
 71
3
 72
8
 73
4
 74
0
 40
0
 40
0
 40
0
 40
0
 40
1
 40
1
 40
1
 40
1
 10
0.637451
 20
1.308160
 30
0.0
 10
0.649265
 20
1.319974
 30
0.0
 10
0.665288
 20
1.326611
 30
0.0
 10
0.681996
 20
1.326611
 30
0.0
  0
SPLINE
  5
2a2
100
AcDbEntity
  8
Layer_1
 62
7
100
AcDbSpline
 70
8
 71
3
 72
8
 73
4
 74
0
 40
0
 40
0
 40
0
 40
0
 40
1
 40
1
 40
1
 40
1
 10
0.681996
 20
1.326611
 30
0.0
 10
0.698704
 20
1.326611
 30
0.0
 10
0.714727
 20
1.319974
 30
0.0
 10
0.726541
 20
1.308160
 30
0.0
  0
SPLINE
  5
2a3
100
AcDbEntity
  8
Layer_1
 62
7
100
AcDbSpline
 70
8
 71
3
 72
8
 73
4
 74
0
 40
0
 40
0
 40
0
 40
0
 40
1
 40
1
 40
1
 40
1
 10
0.726541
 20
1.308160
 30
0.0
 10
0.738355
 20
1.296346
 30
0.0
 10
0.744992
 20
1.280323
 30
0.0
 10
0.744992
 20
1.263615
 30
0.0
  0
SPLINE
  5
2a4
100
AcDbEntity
  8
Layer_1
 62
7
100
AcDbSpline
 70
8
 71
3
 72
8
 73
4
 74
0
 40
0
 40
0
 40
0
 40
0
 40
1
 40
1
 40
1
 40
1
 10
0.744992
 20
5.162276
 30
0.0
 10
0.744992
 20
5.145569
 30
0.0
 10
0.738355
 20
5.129546
 30
0.0
 10
0.726541
 20
5.117732
 30
0.0
  0
SPLINE
  5
2a5
100
AcDbEntity
  8
Layer_1
 62
7
100
AcDbSpline
 70
8
 71
3
 72
8
 73
4
 74
0
 40
0
 40
0
 40
0
 40
0
 40
1
 40
1
 40
1
 40
1
 10
0.726541
 20
5.117732
 30
0.0
 10
0.714727
 20
5.105917
 30
0.0
 10
0.698704
 20
5.099280
 30
0.0
 10
0.681996
 20
5.099280
 30
0.0
  0
SPLINE
  5
2a6
100
AcDbEntity
  8
Layer_1
 62
7
100
AcDbSpline
 70
8
 71
3
 72
8
 73
4
 74
0
 40
0
 40
0
 40
0
 40
0
 40
1
 40
1
 40
1
 40
1
 10
0.681996
 20
5.099280
 30
0.0
 10
0.665288
 20
5.099280
 30
0.0
 10
0.649265
 20
5.105917
 30
0.0
 10
0.637451
 20
5.117732
 30
0.0
  0
SPLINE
  5
2a7
100
AcDbEntity
  8
Layer_1
 62
7
100
AcDbSpline
 70
8
 71
3
 72
8
 73
4
 74
0
 40
0
 40
0
 40
0
 40
0
 40
1
 40
1
 40
1
 40
1
 10
0.637451
 20
5.117732
 30
0.0
 10
0.625637
 20
5.129546
 30
0.0
 10
0.619000
 20
5.145569
 30
0.0
 10
0.619000
 20
5.162276
 30
0.0
  0
SPLINE
  5
2a8
100
AcDbEntity
  8
Layer_1
 62
7
100
AcDbSpline
 70
8
 71
3
 72
8
 73
4
 74
0
 40
0
 40
0
 40
0
 40
0
 40
1
 40
1
 40
1
 40
1
 10
0.619000
 20
5.162276
 30
0.0
 10
0.619000
 20
5.178984
 30
0.0
 10
0.625637
 20
5.195007
 30
0.0
 10
0.637451
 20
5.206821
 30
0.0
  0
SPLINE
  5
2a9
100
AcDbEntity
  8
Layer_1
 62
7
100
AcDbSpline
 70
8
 71
3
 72
8
 73
4
 74
0
 40
0
 40
0
 40
0
 40
0
 40
1
 40
1
 40
1
 40
1
 10
0.637451
 20
5.206821
 30
0.0
 10
0.649265
 20
5.218635
 30
0.0
 10
0.665288
 20
5.225273
 30
0.0
 10
0.681996
 20
5.225273
 30
0.0
  0
SPLINE
  5
2aa
100
AcDbEntity
  8
Layer_1
 62
7
100
AcDbSpline
 70
8
 71
3
 72
8
 73
4
 74
0
 40
0
 40
0
 40
0
 40
0
 40
1
 40
1
 40
1
 40
1
 10
0.681996
 20
5.225273
 30
0.0
 10
0.698704
 20
5.225272
 30
0.0
 10
0.714727
 20
5.218635
 30
0.0
 10
0.726541
 20
5.206821
 30
0.0
  0
SPLINE
  5
2ab
100
AcDbEntity
  8
Layer_1
 62
7
100
AcDbSpline
 70
8
 71
3
 72
8
 73
4
 74
0
 40
0
 40
0
 40
0
 40
0
 40
1
 40
1
 40
1
 40
1
 10
0.726541
 20
5.206821
 30
0.0
 10
0.738355
 20
5.195007
 30
0.0
 10
0.744992
 20
5.178984
 30
0.0
 10
0.744992
 20
5.162276
 30
0.0
  0
SPLINE
  5
2ac
100
AcDbEntity
  8
Layer_1
 62
7
100
AcDbSpline
 70
8
 71
3
 72
8
 73
4
 74
0
 40
0
 40
0
 40
0
 40
0
 40
1
 40
1
 40
1
 40
1
 10
31.471241
 20
12.663294
 30
0.0
 10
31.471241
 20
12.646587
 30
0.0
 10
31.464604
 20
12.630563
 30
0.0
 10
31.452790
 20
12.618749
 30
0.0
  0
SPLINE
  5
2ad
100
AcDbEntity
  8
Layer_1
 62
7
100
AcDbSpline
 70
8
 71
3
 72
8
 73
4
 74
0
 40
0
 40
0
 40
0
 40
0
 40
1
 40
1
 40
1
 40
1
 10
31.452790
 20
12.618749
 30
0.0
 10
31.440976
 20
12.606935
 30
0.0
 10
31.424953
 20
12.600298
 30
0.0
 10
31.408245
 20
12.600298
 30
0.0
  0
SPLINE
  5
2ae
100
AcDbEntity
  8
Layer_1
 62
7
100
AcDbSpline
 70
8
 71
3
 72
8
 73
4
 74
0
 40
0
 40
0
 40
0
 40
0
 40
1
 40
1
 40
1
 40
1
 10
31.408245
 20
12.600298
 30
0.0
 10
31.391537
 20
12.600298
 30
0.0
 10
31.375514
 20
12.606935
 30
0.0
 10
31.363700
 20
12.618749
 30
0.0
  0
SPLINE
  5
2af
100
AcDbEntity
  8
Layer_1
 62
7
100
AcDbSpline
 70
8
 71
3
 72
8
 73
4
 74
0
 40
0
 40
0
 40
0
 40
0
 40
1
 40
1
 40
1
 40
1
 10
31.363700
 20
12.618749
 30
0.0
 10
31.351886
 20
12.630563
 30
0.0
 10
31.345249
 20
12.646587
 30
0.0
 10
31.345249
 20
12.663294
 30
0.0
  0
SPLINE
  5
2b0
100
AcDbEntity
  8
Layer_1
 62
7
100
AcDbSpline
 70
8
 71
3
 72
8
 73
4
 74
0
 40
0
 40
0
 40
0
 40
0
 40
1
 40
1
 40
1
 40
1
 10
31.345249
 20
12.663294
 30
0.0
 10
31.345249
 20
12.680002
 30
0.0
 10
31.351886
 20
12.696025
 30
0.0
 10
31.363700
 20
12.707839
 30
0.0
  0
SPLINE
  5
2b1
100
AcDbEntity
  8
Layer_1
 62
7
100
AcDbSpline
 70
8
 71
3
 72
8
 73
4
 74
0
 40
0
 40
0
 40
0
 40
0
 40
1
 40
1
 40
1
 40
1
 10
31.363700
 20
12.707839
 30
0.0
 10
31.375514
 20
12.719653
 30
0.0
 10
31.391537
 20
12.726290
 30
0.0
 10
31.408245
 20
12.726290
 30
0.0
  0
SPLINE
  5
2b2
100
AcDbEntity
  8
Layer_1
 62
7
100
AcDbSpline
 70
8
 71
3
 72
8
 73
4
 74
0
 40
0
 40
0
 40
0
 40
0
 40
1
 40
1
 40
1
 40
1
 10
31.408245
 20
12.726290
 30
0.0
 10
31.424953
 20
12.726290
 30
0.0
 10
31.440976
 20
12.719653
 30
0.0
 10
31.452790
 20
12.707839
 30
0.0
  0
SPLINE
  5
2b3
100
AcDbEntity
  8
Layer_1
 62
7
100
AcDbSpline
 70
8
 71
3
 72
8
 73
4
 74
0
 40
0
 40
0
 40
0
 40
0
 40
1
 40
1
 40
1
 40
1
 10
31.452790
 20
12.707839
 30
0.0
 10
31.464604
 20
12.696025
 30
0.0
 10
31.471241
 20
12.680002
 30
0.0
 10
31.471241
 20
12.663294
 30
0.0
  0
SPLINE
  5
2b4
100
AcDbEntity
  8
Layer_1
 62
7
100
AcDbSpline
 70
8
 71
3
 72
8
 73
4
 74
0
 40
0
 40
0
 40
0
 40
0
 40
1
 40
1
 40
1
 40
1
 10
31.809712
 20
-2.806406
 30
0.0
 10
31.809712
 20
-2.841198
 30
0.0
 10
31.781508
 20
-2.869402
 30
0.0
 10
31.746716
 20
-2.869402
 30
0.0
  0
SPLINE
  5
2b5
100
AcDbEntity
  8
Layer_1
 62
7
100
AcDbSpline
 70
8
 71
3
 72
8
 73
4
 74
0
 40
0
 40
0
 40
0
 40
0
 40
1
 40
1
 40
1
 40
1
 10
31.746716
 20
-2.869402
 30
0.0
 10
31.711924
 20
-2.869402
 30
0.0
 10
31.683720
 20
-2.841198
 30
0.0
 10
31.683720
 20
-2.806406
 30
0.0
  0
SPLINE
  5
2b6
100
AcDbEntity
  8
Layer_1
 62
7
100
AcDbSpline
 70
8
 71
3
 72
8
 73
4
 74
0
 40
0
 40
0
 40
0
 40
0
 40
1
 40
1
 40
1
 40
1
 10
31.683720
 20
-2.806406
 30
0.0
 10
31.683720
 20
-2.771615
 30
0.0
 10
31.711924
 20
-2.743411
 30
0.0
 10
31.746716
 20
-2.743410
 30
0.0
  0
SPLINE
  5
2b7
100
AcDbEntity
  8
Layer_1
 62
7
100
AcDbSpline
 70
8
 71
3
 72
8
 73
4
 74
0
 40
0
 40
0
 40
0
 40
0
 40
1
 40
1
 40
1
 40
1
 10
31.746716
 20
-2.743410
 30
0.0
 10
31.781508
 20
-2.743410
 30
0.0
 10
31.809712
 20
-2.771615
 30
0.0
 10
31.809712
 20
-2.806406
 30
0.0
  0
SPLINE
  5
2b8
100
AcDbEntity
  8
Layer_1
 62
7
100
AcDbSpline
 70
8
 71
3
 72
8
 73
4
 74
0
 40
0
 40
0
 40
0
 40
0
 40
1
 40
1
 40
1
 40
1
 10
31.456997
 20
10.023309
 30
0.0
 10
31.456997
 20
10.006602
 30
0.0
 10
31.450360
 20
9.990578
 30
0.0
 10
31.438546
 20
9.978764
 30
0.0
  0
SPLINE
  5
2b9
100
AcDbEntity
  8
Layer_1
 62
7
100
AcDbSpline
 70
8
 71
3
 72
8
 73
4
 74
0
 40
0
 40
0
 40
0
 40
0
 40
1
 40
1
 40
1
 40
1
 10
31.438546
 20
9.978764
 30
0.0
 10
31.426732
 20
9.966950
 30
0.0
 10
31.410708
 20
9.960313
 30
0.0
 10
31.394001
 20
9.960313
 30
0.0
  0
SPLINE
  5
2ba
100
AcDbEntity
  8
Layer_1
 62
7
100
AcDbSpline
 70
8
 71
3
 72
8
 73
4
 74
0
 40
0
 40
0
 40
0
 40
0
 40
1
 40
1
 40
1
 40
1
 10
31.394001
 20
9.960313
 30
0.0
 10
31.377293
 20
9.960313
 30
0.0
 10
31.361270
 20
9.966950
 30
0.0
 10
31.349456
 20
9.978764
 30
0.0
  0
SPLINE
  5
2bb
100
AcDbEntity
  8
Layer_1
 62
7
100
AcDbSpline
 70
8
 71
3
 72
8
 73
4
 74
0
 40
0
 40
0
 40
0
 40
0
 40
1
 40
1
 40
1
 40
1
 10
31.349456
 20
9.978764
 30
0.0
 10
31.337642
 20
9.990578
 30
0.0
 10
31.331005
 20
10.006602
 30
0.0
 10
31.331005
 20
10.023309
 30
0.0
  0
SPLINE
  5
2bc
100
AcDbEntity
  8
Layer_1
 62
7
100
AcDbSpline
 70
8
 71
3
 72
8
 73
4
 74
0
 40
0
 40
0
 40
0
 40
0
 40
1
 40
1
 40
1
 40
1
 10
31.331005
 20
10.023309
 30
0.0
 10
31.331005
 20
10.058101
 30
0.0
 10
31.359209
 20
10.086305
 30
0.0
 10
31.394001
 20
10.086305
 30
0.0
  0
SPLINE
  5
2bd
100
AcDbEntity
  8
Layer_1
 62
7
100
AcDbSpline
 70
8
 71
3
 72
8
 73
4
 74
0
 40
0
 40
0
 40
0
 40
0
 40
1
 40
1
 40
1
 40
1
 10
31.394001
 20
10.086305
 30
0.0
 10
31.428793
 20
10.086305
 30
0.0
 10
31.456997
 20
10.058101
 30
0.0
 10
31.456997
 20
10.023309
 30
0.0
  0
SPLINE
  5
2be
100
AcDbEntity
  8
Layer_1
 62
7
100
AcDbSpline
 70
8
 71
3
 72
8
 73
4
 74
0
 40
0
 40
0
 40
0
 40
0
 40
1
 40
1
 40
1
 40
1
 10
31.461748
 20
3.581817
 30
0.0
 10
31.461747
 20
3.547025
 30
0.0
 10
31.433543
 20
3.518821
 30
0.0
 10
31.398751
 20
3.518821
 30
0.0
  0
SPLINE
  5
2bf
100
AcDbEntity
  8
Layer_1
 62
7
100
AcDbSpline
 70
8
 71
3
 72
8
 73
4
 74
0
 40
0
 40
0
 40
0
 40
0
 40
1
 40
1
 40
1
 40
1
 10
31.398751
 20
3.518821
 30
0.0
 10
31.363960
 20
3.518821
 30
0.0
 10
31.335756
 20
3.547025
 30
0.0
 10
31.335755
 20
3.581817
 30
0.0
  0
SPLINE
  5
2c0
100
AcDbEntity
  8
Layer_1
 62
7
100
AcDbSpline
 70
8
 71
3
 72
8
 73
4
 74
0
 40
0
 40
0
 40
0
 40
0
 40
1
 40
1
 40
1
 40
1
 10
31.335755
 20
3.581817
 30
0.0
 10
31.335756
 20
3.616608
 30
0.0
 10
31.363960
 20
3.644813
 30
0.0
 10
31.398751
 20
3.644812
 30
0.0
  0
SPLINE
  5
2c1
100
AcDbEntity
  8
Layer_1
 62
7
100
AcDbSpline
 70
8
 71
3
 72
8
 73
4
 74
0
 40
0
 40
0
 40
0
 40
0
 40
1
 40
1
 40
1
 40
1
 10
31.398751
 20
3.644812
 30
0.0
 10
31.433543
 20
3.644813
 30
0.0
 10
31.461747
 20
3.616608
 30
0.0
 10
31.461748
 20
3.581817
 30
0.0
  0
SPLINE
  5
2c2
100
AcDbEntity
  8
Layer_1
 62
7
100
AcDbSpline
 70
8
 71
3
 72
8
 73
4
 74
0
 40
0
 40
0
 40
0
 40
0
 40
1
 40
1
 40
1
 40
1
 10
31.461747
 20
6.261473
 30
0.0
 10
31.461747
 20
6.226681
 30
0.0
 10
31.433543
 20
6.198477
 30
0.0
 10
31.398751
 20
6.198477
 30
0.0
  0
SPLINE
  5
2c3
100
AcDbEntity
  8
Layer_1
 62
7
100
AcDbSpline
 70
8
 71
3
 72
8
 73
4
 74
0
 40
0
 40
0
 40
0
 40
0
 40
1
 40
1
 40
1
 40
1
 10
31.398751
 20
6.198477
 30
0.0
 10
31.363960
 20
6.198477
 30
0.0
 10
31.335756
 20
6.226681
 30
0.0
 10
31.335755
 20
6.261473
 30
0.0
  0
SPLINE
  5
2c4
100
AcDbEntity
  8
Layer_1
 62
7
100
AcDbSpline
 70
8
 71
3
 72
8
 73
4
 74
0
 40
0
 40
0
 40
0
 40
0
 40
1
 40
1
 40
1
 40
1
 10
31.335755
 20
6.261473
 30
0.0
 10
31.335756
 20
6.296265
 30
0.0
 10
31.363960
 20
6.324469
 30
0.0
 10
31.398751
 20
6.324469
 30
0.0
  0
SPLINE
  5
2c5
100
AcDbEntity
  8
Layer_1
 62
7
100
AcDbSpline
 70
8
 71
3
 72
8
 73
4
 74
0
 40
0
 40
0
 40
0
 40
0
 40
1
 40
1
 40
1
 40
1
 10
31.398751
 20
6.324469
 30
0.0
 10
31.433543
 20
6.324469
 30
0.0
 10
31.461747
 20
6.296265
 30
0.0
 10
31.461748
 20
6.261473
 30
0.0
  0
SPLINE
  5
2c6
100
AcDbEntity
  8
Layer_1
 62
7
100
AcDbSpline
 70
8
 71
3
 72
8
 73
4
 74
0
 40
0
 40
0
 40
0
 40
0
 40
1
 40
1
 40
1
 40
1
 10
31.461748
 20
-0.092869
 30
0.0
 10
31.461747
 20
-0.127660
 30
0.0
 10
31.433543
 20
-0.155865
 30
0.0
 10
31.398751
 20
-0.155865
 30
0.0
  0
SPLINE
  5
2c7
100
AcDbEntity
  8
Layer_1
 62
7
100
AcDbSpline
 70
8
 71
3
 72
8
 73
4
 74
0
 40
0
 40
0
 40
0
 40
0
 40
1
 40
1
 40
1
 40
1
 10
31.398751
 20
-0.155865
 30
0.0
 10
31.363960
 20
-0.155865
 30
0.0
 10
31.335756
 20
-0.127660
 30
0.0
 10
31.335755
 20
-0.092869
 30
0.0
  0
SPLINE
  5
2c8
100
AcDbEntity
  8
Layer_1
 62
7
100
AcDbSpline
 70
8
 71
3
 72
8
 73
4
 74
0
 40
0
 40
0
 40
0
 40
0
 40
1
 40
1
 40
1
 40
1
 10
31.335755
 20
-0.092869
 30
0.0
 10
31.335756
 20
-0.058077
 30
0.0
 10
31.363960
 20
-0.029873
 30
0.0
 10
31.398751
 20
-0.029873
 30
0.0
  0
SPLINE
  5
2c9
100
AcDbEntity
  8
Layer_1
 62
7
100
AcDbSpline
 70
8
 71
3
 72
8
 73
4
 74
0
 40
0
 40
0
 40
0
 40
0
 40
1
 40
1
 40
1
 40
1
 10
31.398751
 20
-0.029873
 30
0.0
 10
31.433543
 20
-0.029873
 30
0.0
 10
31.461747
 20
-0.058077
 30
0.0
 10
31.461748
 20
-0.092869
 30
0.0
  0
SPLINE
  5
2ca
100
AcDbEntity
  8
Layer_1
 62
7
100
AcDbSpline
 70
8
 71
3
 72
8
 73
4
 74
0
 40
0
 40
0
 40
0
 40
0
 40
1
 40
1
 40
1
 40
1
 10
34.885496
 20
-2.806406
 30
0.0
 10
34.885495
 20
-2.841198
 30
0.0
 10
34.857291
 20
-2.869402
 30
0.0
 10
34.822499
 20
-2.869402
 30
0.0
  0
SPLINE
  5
2cb
100
AcDbEntity
  8
Layer_1
 62
7
100
AcDbSpline
 70
8
 71
3
 72
8
 73
4
 74
0
 40
0
 40
0
 40
0
 40
0
 40
1
 40
1
 40
1
 40
1
 10
34.822499
 20
-2.869402
 30
0.0
 10
34.787708
 20
-2.869402
 30
0.0
 10
34.759504
 20
-2.841198
 30
0.0
 10
34.759504
 20
-2.806406
 30
0.0
  0
SPLINE
  5
2cc
100
AcDbEntity
  8
Layer_1
 62
7
100
AcDbSpline
 70
8
 71
3
 72
8
 73
4
 74
0
 40
0
 40
0
 40
0
 40
0
 40
1
 40
1
 40
1
 40
1
 10
34.759504
 20
-2.806406
 30
0.0
 10
34.759504
 20
-2.771615
 30
0.0
 10
34.787708
 20
-2.743411
 30
0.0
 10
34.822499
 20
-2.743410
 30
0.0
  0
SPLINE
  5
2cd
100
AcDbEntity
  8
Layer_1
 62
7
100
AcDbSpline
 70
8
 71
3
 72
8
 73
4
 74
0
 40
0
 40
0
 40
0
 40
0
 40
1
 40
1
 40
1
 40
1
 10
34.822499
 20
-2.743410
 30
0.0
 10
34.857291
 20
-2.743410
 30
0.0
 10
34.885495
 20
-2.771615
 30
0.0
 10
34.885496
 20
-2.806406
 30
0.0
  0
SPLINE
  5
2ce
100
AcDbEntity
  8
Layer_1
 62
7
100
AcDbSpline
 70
8
 71
3
 72
8
 73
4
 74
0
 40
0
 40
0
 40
0
 40
0
 40
1
 40
1
 40
1
 40
1
 10
37.833723
 20
-2.806406
 30
0.0
 10
37.833723
 20
-2.841198
 30
0.0
 10
37.805519
 20
-2.869402
 30
0.0
 10
37.770727
 20
-2.869402
 30
0.0
  0
SPLINE
  5
2cf
100
AcDbEntity
  8
Layer_1
 62
7
100
AcDbSpline
 70
8
 71
3
 72
8
 73
4
 74
0
 40
0
 40
0
 40
0
 40
0
 40
1
 40
1
 40
1
 40
1
 10
37.770727
 20
-2.869402
 30
0.0
 10
37.735936
 20
-2.869402
 30
0.0
 10
37.707732
 20
-2.841198
 30
0.0
 10
37.707732
 20
-2.806406
 30
0.0
  0
SPLINE
  5
2d0
100
AcDbEntity
  8
Layer_1
 62
7
100
AcDbSpline
 70
8
 71
3
 72
8
 73
4
 74
0
 40
0
 40
0
 40
0
 40
0
 40
1
 40
1
 40
1
 40
1
 10
37.707732
 20
-2.806406
 30
0.0
 10
37.707732
 20
-2.771615
 30
0.0
 10
37.735936
 20
-2.743411
 30
0.0
 10
37.770727
 20
-2.743410
 30
0.0
  0
SPLINE
  5
2d1
100
AcDbEntity
  8
Layer_1
 62
7
100
AcDbSpline
 70
8
 71
3
 72
8
 73
4
 74
0
 40
0
 40
0
 40
0
 40
0
 40
1
 40
1
 40
1
 40
1
 10
37.770727
 20
-2.743410
 30
0.0
 10
37.805519
 20
-2.743410
 30
0.0
 10
37.833723
 20
-2.771615
 30
0.0
 10
37.833723
 20
-2.806406
 30
0.0
  0
SPLINE
  5
2d2
100
AcDbEntity
  8
Layer_1
 62
7
100
AcDbSpline
 70
8
 71
3
 72
8
 73
4
 74
0
 40
0
 40
0
 40
0
 40
0
 40
1
 40
1
 40
1
 40
1
 10
34.885496
 20
-0.191725
 30
0.0
 10
34.885495
 20
-0.226517
 30
0.0
 10
34.857291
 20
-0.254721
 30
0.0
 10
34.822499
 20
-0.254721
 30
0.0
  0
SPLINE
  5
2d3
100
AcDbEntity
  8
Layer_1
 62
7
100
AcDbSpline
 70
8
 71
3
 72
8
 73
4
 74
0
 40
0
 40
0
 40
0
 40
0
 40
1
 40
1
 40
1
 40
1
 10
34.822499
 20
-0.254721
 30
0.0
 10
34.787708
 20
-0.254721
 30
0.0
 10
34.759504
 20
-0.226517
 30
0.0
 10
34.759504
 20
-0.191725
 30
0.0
  0
SPLINE
  5
2d4
100
AcDbEntity
  8
Layer_1
 62
7
100
AcDbSpline
 70
8
 71
3
 72
8
 73
4
 74
0
 40
0
 40
0
 40
0
 40
0
 40
1
 40
1
 40
1
 40
1
 10
34.759504
 20
-0.191725
 30
0.0
 10
34.759504
 20
-0.156933
 30
0.0
 10
34.787708
 20
-0.128729
 30
0.0
 10
34.822499
 20
-0.128729
 30
0.0
  0
SPLINE
  5
2d5
100
AcDbEntity
  8
Layer_1
 62
7
100
AcDbSpline
 70
8
 71
3
 72
8
 73
4
 74
0
 40
0
 40
0
 40
0
 40
0
 40
1
 40
1
 40
1
 40
1
 10
34.822499
 20
-0.128729
 30
0.0
 10
34.857291
 20
-0.128729
 30
0.0
 10
34.885495
 20
-0.156933
 30
0.0
 10
34.885496
 20
-0.191725
 30
0.0
  0
SPLINE
  5
2d6
100
AcDbEntity
  8
Layer_1
 62
7
100
AcDbSpline
 70
8
 71
3
 72
8
 73
4
 74
0
 40
0
 40
0
 40
0
 40
0
 40
1
 40
1
 40
1
 40
1
 10
37.833723
 20
-0.191725
 30
0.0
 10
37.833723
 20
-0.226517
 30
0.0
 10
37.805519
 20
-0.254721
 30
0.0
 10
37.770727
 20
-0.254721
 30
0.0
  0
SPLINE
  5
2d7
100
AcDbEntity
  8
Layer_1
 62
7
100
AcDbSpline
 70
8
 71
3
 72
8
 73
4
 74
0
 40
0
 40
0
 40
0
 40
0
 40
1
 40
1
 40
1
 40
1
 10
37.770727
 20
-0.254721
 30
0.0
 10
37.735936
 20
-0.254721
 30
0.0
 10
37.707732
 20
-0.226517
 30
0.0
 10
37.707732
 20
-0.191725
 30
0.0
  0
SPLINE
  5
2d8
100
AcDbEntity
  8
Layer_1
 62
7
100
AcDbSpline
 70
8
 71
3
 72
8
 73
4
 74
0
 40
0
 40
0
 40
0
 40
0
 40
1
 40
1
 40
1
 40
1
 10
37.707732
 20
-0.191725
 30
0.0
 10
37.707732
 20
-0.156933
 30
0.0
 10
37.735936
 20
-0.128729
 30
0.0
 10
37.770727
 20
-0.128729
 30
0.0
  0
SPLINE
  5
2d9
100
AcDbEntity
  8
Layer_1
 62
7
100
AcDbSpline
 70
8
 71
3
 72
8
 73
4
 74
0
 40
0
 40
0
 40
0
 40
0
 40
1
 40
1
 40
1
 40
1
 10
37.770727
 20
-0.128729
 30
0.0
 10
37.805519
 20
-0.128729
 30
0.0
 10
37.833723
 20
-0.156933
 30
0.0
 10
37.833723
 20
-0.191725
 30
0.0
  0
SPLINE
  5
2da
100
AcDbEntity
  8
Layer_1
 62
7
100
AcDbSpline
 70
8
 71
3
 72
8
 73
4
 74
0
 40
0
 40
0
 40
0
 40
0
 40
1
 40
1
 40
1
 40
1
 10
34.885496
 20
10.014567
 30
0.0
 10
34.885495
 20
9.979775
 30
0.0
 10
34.857291
 20
9.951571
 30
0.0
 10
34.822499
 20
9.951571
 30
0.0
  0
SPLINE
  5
2db
100
AcDbEntity
  8
Layer_1
 62
7
100
AcDbSpline
 70
8
 71
3
 72
8
 73
4
 74
0
 40
0
 40
0
 40
0
 40
0
 40
1
 40
1
 40
1
 40
1
 10
34.822499
 20
9.951571
 30
0.0
 10
34.787708
 20
9.951571
 30
0.0
 10
34.759504
 20
9.979775
 30
0.0
 10
34.759504
 20
10.014567
 30
0.0
  0
SPLINE
  5
2dc
100
AcDbEntity
  8
Layer_1
 62
7
100
AcDbSpline
 70
8
 71
3
 72
8
 73
4
 74
0
 40
0
 40
0
 40
0
 40
0
 40
1
 40
1
 40
1
 40
1
 10
34.759504
 20
10.014567
 30
0.0
 10
34.759504
 20
10.049358
 30
0.0
 10
34.787708
 20
10.077562
 30
0.0
 10
34.822499
 20
10.077563
 30
0.0
  0
SPLINE
  5
2dd
100
AcDbEntity
  8
Layer_1
 62
7
100
AcDbSpline
 70
8
 71
3
 72
8
 73
4
 74
0
 40
0
 40
0
 40
0
 40
0
 40
1
 40
1
 40
1
 40
1
 10
34.822499
 20
10.077563
 30
0.0
 10
34.857291
 20
10.077563
 30
0.0
 10
34.885495
 20
10.049358
 30
0.0
 10
34.885496
 20
10.014567
 30
0.0
  0
SPLINE
  5
2de
100
AcDbEntity
  8
Layer_1
 62
7
100
AcDbSpline
 70
8
 71
3
 72
8
 73
4
 74
0
 40
0
 40
0
 40
0
 40
0
 40
1
 40
1
 40
1
 40
1
 10
37.833723
 20
10.014567
 30
0.0
 10
37.833723
 20
9.979775
 30
0.0
 10
37.805519
 20
9.951571
 30
0.0
 10
37.770727
 20
9.951571
 30
0.0
  0
SPLINE
  5
2df
100
AcDbEntity
  8
Layer_1
 62
7
100
AcDbSpline
 70
8
 71
3
 72
8
 73
4
 74
0
 40
0
 40
0
 40
0
 40
0
 40
1
 40
1
 40
1
 40
1
 10
37.770727
 20
9.951571
 30
0.0
 10
37.735936
 20
9.951571
 30
0.0
 10
37.707732
 20
9.979775
 30
0.0
 10
37.707732
 20
10.014567
 30
0.0
  0
SPLINE
  5
2e0
100
AcDbEntity
  8
Layer_1
 62
7
100
AcDbSpline
 70
8
 71
3
 72
8
 73
4
 74
0
 40
0
 40
0
 40
0
 40
0
 40
1
 40
1
 40
1
 40
1
 10
37.707732
 20
10.014567
 30
0.0
 10
37.707732
 20
10.049358
 30
0.0
 10
37.735936
 20
10.077562
 30
0.0
 10
37.770727
 20
10.077563
 30
0.0
  0
SPLINE
  5
2e1
100
AcDbEntity
  8
Layer_1
 62
7
100
AcDbSpline
 70
8
 71
3
 72
8
 73
4
 74
0
 40
0
 40
0
 40
0
 40
0
 40
1
 40
1
 40
1
 40
1
 10
37.770727
 20
10.077563
 30
0.0
 10
37.805519
 20
10.077563
 30
0.0
 10
37.833723
 20
10.049358
 30
0.0
 10
37.833723
 20
10.014567
 30
0.0
  0
SPLINE
  5
2e2
100
AcDbEntity
  8
Layer_1
 62
7
100
AcDbSpline
 70
8
 71
3
 72
8
 73
4
 74
0
 40
0
 40
0
 40
0
 40
0
 40
1
 40
1
 40
1
 40
1
 10
34.885496
 20
12.629248
 30
0.0
 10
34.885495
 20
12.594456
 30
0.0
 10
34.857291
 20
12.566252
 30
0.0
 10
34.822499
 20
12.566252
 30
0.0
  0
SPLINE
  5
2e3
100
AcDbEntity
  8
Layer_1
 62
7
100
AcDbSpline
 70
8
 71
3
 72
8
 73
4
 74
0
 40
0
 40
0
 40
0
 40
0
 40
1
 40
1
 40
1
 40
1
 10
34.822499
 20
12.566252
 30
0.0
 10
34.787708
 20
12.566252
 30
0.0
 10
34.759504
 20
12.594456
 30
0.0
 10
34.759504
 20
12.629248
 30
0.0
  0
SPLINE
  5
2e4
100
AcDbEntity
  8
Layer_1
 62
7
100
AcDbSpline
 70
8
 71
3
 72
8
 73
4
 74
0
 40
0
 40
0
 40
0
 40
0
 40
1
 40
1
 40
1
 40
1
 10
34.759504
 20
12.629248
 30
0.0
 10
34.759504
 20
12.664040
 30
0.0
 10
34.787708
 20
12.692244
 30
0.0
 10
34.822499
 20
12.692244
 30
0.0
  0
SPLINE
  5
2e5
100
AcDbEntity
  8
Layer_1
 62
7
100
AcDbSpline
 70
8
 71
3
 72
8
 73
4
 74
0
 40
0
 40
0
 40
0
 40
0
 40
1
 40
1
 40
1
 40
1
 10
34.822499
 20
12.692244
 30
0.0
 10
34.857291
 20
12.692244
 30
0.0
 10
34.885495
 20
12.664040
 30
0.0
 10
34.885496
 20
12.629248
 30
0.0
  0
SPLINE
  5
2e6
100
AcDbEntity
  8
Layer_1
 62
7
100
AcDbSpline
 70
8
 71
3
 72
8
 73
4
 74
0
 40
0
 40
0
 40
0
 40
0
 40
1
 40
1
 40
1
 40
1
 10
37.833723
 20
12.629248
 30
0.0
 10
37.833723
 20
12.594456
 30
0.0
 10
37.805519
 20
12.566252
 30
0.0
 10
37.770727
 20
12.566252
 30
0.0
  0
SPLINE
  5
2e7
100
AcDbEntity
  8
Layer_1
 62
7
100
AcDbSpline
 70
8
 71
3
 72
8
 73
4
 74
0
 40
0
 40
0
 40
0
 40
0
 40
1
 40
1
 40
1
 40
1
 10
37.770727
 20
12.566252
 30
0.0
 10
37.735936
 20
12.566252
 30
0.0
 10
37.707732
 20
12.594456
 30
0.0
 10
37.707732
 20
12.629248
 30
0.0
  0
SPLINE
  5
2e8
100
AcDbEntity
  8
Layer_1
 62
7
100
AcDbSpline
 70
8
 71
3
 72
8
 73
4
 74
0
 40
0
 40
0
 40
0
 40
0
 40
1
 40
1
 40
1
 40
1
 10
37.707732
 20
12.629248
 30
0.0
 10
37.707732
 20
12.664040
 30
0.0
 10
37.735936
 20
12.692244
 30
0.0
 10
37.770727
 20
12.692244
 30
0.0
  0
SPLINE
  5
2e9
100
AcDbEntity
  8
Layer_1
 62
7
100
AcDbSpline
 70
8
 71
3
 72
8
 73
4
 74
0
 40
0
 40
0
 40
0
 40
0
 40
1
 40
1
 40
1
 40
1
 10
37.770727
 20
12.692244
 30
0.0
 10
37.805519
 20
12.692244
 30
0.0
 10
37.833723
 20
12.664040
 30
0.0
 10
37.833723
 20
12.629248
 30
0.0
  0
SPLINE
  5
2ea
100
AcDbEntity
  8
Layer_1
 62
7
100
AcDbSpline
 70
8
 71
3
 72
8
 73
4
 74
0
 40
0
 40
0
 40
0
 40
0
 40
1
 40
1
 40
1
 40
1
 10
36.298225
 20
3.629027
 30
0.0
 10
36.298225
 20
3.594235
 30
0.0
 10
36.270021
 20
3.566031
 30
0.0
 10
36.235229
 20
3.566031
 30
0.0
  0
SPLINE
  5
2eb
100
AcDbEntity
  8
Layer_1
 62
7
100
AcDbSpline
 70
8
 71
3
 72
8
 73
4
 74
0
 40
0
 40
0
 40
0
 40
0
 40
1
 40
1
 40
1
 40
1
 10
36.235229
 20
3.566031
 30
0.0
 10
36.200438
 20
3.566031
 30
0.0
 10
36.172234
 20
3.594235
 30
0.0
 10
36.172233
 20
3.629027
 30
0.0
  0
SPLINE
  5
2ec
100
AcDbEntity
  8
Layer_1
 62
7
100
AcDbSpline
 70
8
 71
3
 72
8
 73
4
 74
0
 40
0
 40
0
 40
0
 40
0
 40
1
 40
1
 40
1
 40
1
 10
36.172233
 20
3.629027
 30
0.0
 10
36.172234
 20
3.663819
 30
0.0
 10
36.200438
 20
3.692023
 30
0.0
 10
36.235229
 20
3.692023
 30
0.0
  0
SPLINE
  5
2ed
100
AcDbEntity
  8
Layer_1
 62
7
100
AcDbSpline
 70
8
 71
3
 72
8
 73
4
 74
0
 40
0
 40
0
 40
0
 40
0
 40
1
 40
1
 40
1
 40
1
 10
36.235229
 20
3.692023
 30
0.0
 10
36.270021
 20
3.692023
 30
0.0
 10
36.298225
 20
3.663819
 30
0.0
 10
36.298225
 20
3.629027
 30
0.0
  0
SPLINE
  5
2ee
100
AcDbEntity
  8
Layer_1
 62
7
100
AcDbSpline
 70
8
 71
3
 72
8
 73
4
 74
0
 40
0
 40
0
 40
0
 40
0
 40
1
 40
1
 40
1
 40
1
 10
36.298225
 20
6.243708
 30
0.0
 10
36.298225
 20
6.208917
 30
0.0
 10
36.270021
 20
6.180712
 30
0.0
 10
36.235229
 20
6.180713
 30
0.0
  0
SPLINE
  5
2ef
100
AcDbEntity
  8
Layer_1
 62
7
100
AcDbSpline
 70
8
 71
3
 72
8
 73
4
 74
0
 40
0
 40
0
 40
0
 40
0
 40
1
 40
1
 40
1
 40
1
 10
36.235229
 20
6.180713
 30
0.0
 10
36.200438
 20
6.180713
 30
0.0
 10
36.172234
 20
6.208917
 30
0.0
 10
36.172233
 20
6.243708
 30
0.0
  0
SPLINE
  5
2f0
100
AcDbEntity
  8
Layer_1
 62
7
100
AcDbSpline
 70
8
 71
3
 72
8
 73
4
 74
0
 40
0
 40
0
 40
0
 40
0
 40
1
 40
1
 40
1
 40
1
 10
36.172233
 20
6.243708
 30
0.0
 10
36.172234
 20
6.278500
 30
0.0
 10
36.200438
 20
6.306704
 30
0.0
 10
36.235229
 20
6.306704
 30
0.0
  0
SPLINE
  5
2f1
100
AcDbEntity
  8
Layer_1
 62
7
100
AcDbSpline
 70
8
 71
3
 72
8
 73
4
 74
0
 40
0
 40
0
 40
0
 40
0
 40
1
 40
1
 40
1
 40
1
 10
36.235229
 20
6.306704
 30
0.0
 10
36.270021
 20
6.306704
 30
0.0
 10
36.298225
 20
6.278500
 30
0.0
 10
36.298225
 20
6.243708
 30
0.0
  0
SPLINE
  5
2f2
100
AcDbEntity
  8
Layer_1
 62
7
100
AcDbSpline
 70
8
 71
3
 72
8
 73
4
 74
0
 40
0
 40
0
 40
0
 40
0
 40
1
 40
1
 40
1
 40
1
 10
38.933137
 20
12.651565
 30
0.0
 10
38.933137
 20
12.634858
 30
0.0
 10
38.926500
 20
12.618834
 30
0.0
 10
38.914686
 20
12.607020
 30
0.0
  0
SPLINE
  5
2f3
100
AcDbEntity
  8
Layer_1
 62
7
100
AcDbSpline
 70
8
 71
3
 72
8
 73
4
 74
0
 40
0
 40
0
 40
0
 40
0
 40
1
 40
1
 40
1
 40
1
 10
38.914686
 20
12.607020
 30
0.0
 10
38.902872
 20
12.595206
 30
0.0
 10
38.886848
 20
12.588569
 30
0.0
 10
38.870141
 20
12.588569
 30
0.0
  0
SPLINE
  5
2f4
100
AcDbEntity
  8
Layer_1
 62
7
100
AcDbSpline
 70
8
 71
3
 72
8
 73
4
 74
0
 40
0
 40
0
 40
0
 40
0
 40
1
 40
1
 40
1
 40
1
 10
38.870141
 20
12.588569
 30
0.0
 10
38.853433
 20
12.588569
 30
0.0
 10
38.837410
 20
12.595206
 30
0.0
 10
38.825596
 20
12.607020
 30
0.0
  0
SPLINE
  5
2f5
100
AcDbEntity
  8
Layer_1
 62
7
100
AcDbSpline
 70
8
 71
3
 72
8
 73
4
 74
0
 40
0
 40
0
 40
0
 40
0
 40
1
 40
1
 40
1
 40
1
 10
38.825596
 20
12.607020
 30
0.0
 10
38.813782
 20
12.618834
 30
0.0
 10
38.807145
 20
12.634858
 30
0.0
 10
38.807145
 20
12.651565
 30
0.0
  0
SPLINE
  5
2f6
100
AcDbEntity
  8
Layer_1
 62
7
100
AcDbSpline
 70
8
 71
3
 72
8
 73
4
 74
0
 40
0
 40
0
 40
0
 40
0
 40
1
 40
1
 40
1
 40
1
 10
38.807145
 20
12.651565
 30
0.0
 10
38.807145
 20
12.668273
 30
0.0
 10
38.813782
 20
12.684296
 30
0.0
 10
38.825596
 20
12.696110
 30
0.0
  0
SPLINE
  5
2f7
100
AcDbEntity
  8
Layer_1
 62
7
100
AcDbSpline
 70
8
 71
3
 72
8
 73
4
 74
0
 40
0
 40
0
 40
0
 40
0
 40
1
 40
1
 40
1
 40
1
 10
38.825596
 20
12.696110
 30
0.0
 10
38.837410
 20
12.707924
 30
0.0
 10
38.853433
 20
12.714561
 30
0.0
 10
38.870141
 20
12.714561
 30
0.0
  0
SPLINE
  5
2f8
100
AcDbEntity
  8
Layer_1
 62
7
100
AcDbSpline
 70
8
 71
3
 72
8
 73
4
 74
0
 40
0
 40
0
 40
0
 40
0
 40
1
 40
1
 40
1
 40
1
 10
38.870141
 20
12.714561
 30
0.0
 10
38.886848
 20
12.714561
 30
0.0
 10
38.902872
 20
12.707924
 30
0.0
 10
38.914686
 20
12.696110
 30
0.0
  0
SPLINE
  5
2f9
100
AcDbEntity
  8
Layer_1
 62
7
100
AcDbSpline
 70
8
 71
3
 72
8
 73
4
 74
0
 40
0
 40
0
 40
0
 40
0
 40
1
 40
1
 40
1
 40
1
 10
38.914686
 20
12.696110
 30
0.0
 10
38.926500
 20
12.684296
 30
0.0
 10
38.933137
 20
12.668273
 30
0.0
 10
38.933137
 20
12.651565
 30
0.0
  0
SPLINE
  5
2fa
100
AcDbEntity
  8
Layer_1
 62
7
100
AcDbSpline
 70
8
 71
3
 72
8
 73
4
 74
0
 40
0
 40
0
 40
0
 40
0
 40
1
 40
1
 40
1
 40
1
 10
43.185132
 20
-2.818135
 30
0.0
 10
43.185132
 20
-2.852927
 30
0.0
 10
43.156928
 20
-2.881131
 30
0.0
 10
43.122136
 20
-2.881131
 30
0.0
  0
SPLINE
  5
2fb
100
AcDbEntity
  8
Layer_1
 62
7
100
AcDbSpline
 70
8
 71
3
 72
8
 73
4
 74
0
 40
0
 40
0
 40
0
 40
0
 40
1
 40
1
 40
1
 40
1
 10
43.122136
 20
-2.881131
 30
0.0
 10
43.087344
 20
-2.881131
 30
0.0
 10
43.059140
 20
-2.852927
 30
0.0
 10
43.059140
 20
-2.818135
 30
0.0
  0
SPLINE
  5
2fc
100
AcDbEntity
  8
Layer_1
 62
7
100
AcDbSpline
 70
8
 71
3
 72
8
 73
4
 74
0
 40
0
 40
0
 40
0
 40
0
 40
1
 40
1
 40
1
 40
1
 10
43.059140
 20
-2.818135
 30
0.0
 10
43.059140
 20
-2.783344
 30
0.0
 10
43.087344
 20
-2.755140
 30
0.0
 10
43.122136
 20
-2.755140
 30
0.0
  0
SPLINE
  5
2fd
100
AcDbEntity
  8
Layer_1
 62
7
100
AcDbSpline
 70
8
 71
3
 72
8
 73
4
 74
0
 40
0
 40
0
 40
0
 40
0
 40
1
 40
1
 40
1
 40
1
 10
43.122136
 20
-2.755140
 30
0.0
 10
43.156928
 20
-2.755140
 30
0.0
 10
43.185132
 20
-2.783344
 30
0.0
 10
43.185132
 20
-2.818135
 30
0.0
  0
SPLINE
  5
2fe
100
AcDbEntity
  8
Layer_1
 62
7
100
AcDbSpline
 70
8
 71
3
 72
8
 73
4
 74
0
 40
0
 40
0
 40
0
 40
0
 40
1
 40
1
 40
1
 40
1
 10
39.981849
 20
9.087128
 30
0.0
 10
39.981849
 20
9.069160
 30
0.0
 10
39.974711
 20
9.051929
 30
0.0
 10
39.962006
 20
9.039223
 30
0.0
  0
SPLINE
  5
2ff
100
AcDbEntity
  8
Layer_1
 62
7
100
AcDbSpline
 70
8
 71
3
 72
8
 73
4
 74
0
 40
0
 40
0
 40
0
 40
0
 40
1
 40
1
 40
1
 40
1
 10
39.962006
 20
9.039223
 30
0.0
 10
39.949301
 20
9.026518
 30
0.0
 10
39.932069
 20
9.019381
 30
0.0
 10
39.914101
 20
9.019381
 30
0.0
  0
SPLINE
  5
300
100
AcDbEntity
  8
Layer_1
 62
7
100
AcDbSpline
 70
8
 71
3
 72
8
 73
4
 74
0
 40
0
 40
0
 40
0
 40
0
 40
1
 40
1
 40
1
 40
1
 10
39.914101
 20
9.019381
 30
0.0
 10
39.896134
 20
9.019381
 30
0.0
 10
39.878902
 20
9.026518
 30
0.0
 10
39.866197
 20
9.039223
 30
0.0
  0
SPLINE
  5
301
100
AcDbEntity
  8
Layer_1
 62
7
100
AcDbSpline
 70
8
 71
3
 72
8
 73
4
 74
0
 40
0
 40
0
 40
0
 40
0
 40
1
 40
1
 40
1
 40
1
 10
39.866197
 20
9.039223
 30
0.0
 10
39.853492
 20
9.051929
 30
0.0
 10
39.846354
 20
9.069160
 30
0.0
 10
39.846354
 20
9.087128
 30
0.0
  0
SPLINE
  5
302
100
AcDbEntity
  8
Layer_1
 62
7
100
AcDbSpline
 70
8
 71
3
 72
8
 73
4
 74
0
 40
0
 40
0
 40
0
 40
0
 40
1
 40
1
 40
1
 40
1
 10
39.846354
 20
9.087128
 30
0.0
 10
39.846354
 20
9.124544
 30
0.0
 10
39.876686
 20
9.154875
 30
0.0
 10
39.914101
 20
9.154875
 30
0.0
  0
SPLINE
  5
303
100
AcDbEntity
  8
Layer_1
 62
7
100
AcDbSpline
 70
8
 71
3
 72
8
 73
4
 74
0
 40
0
 40
0
 40
0
 40
0
 40
1
 40
1
 40
1
 40
1
 10
39.914101
 20
9.154875
 30
0.0
 10
39.951517
 20
9.154875
 30
0.0
 10
39.981848
 20
9.124544
 30
0.0
 10
39.981849
 20
9.087128
 30
0.0
  0
SPLINE
  5
304
100
AcDbEntity
  8
Layer_1
 62
7
100
AcDbSpline
 70
8
 71
3
 72
8
 73
4
 74
0
 40
0
 40
0
 40
0
 40
0
 40
1
 40
1
 40
1
 40
1
 10
42.133531
 20
1.114408
 30
0.0
 10
42.133531
 20
1.079617
 30
0.0
 10
42.105327
 20
1.051412
 30
0.0
 10
42.070535
 20
1.051413
 30
0.0
  0
SPLINE
  5
305
100
AcDbEntity
  8
Layer_1
 62
7
100
AcDbSpline
 70
8
 71
3
 72
8
 73
4
 74
0
 40
0
 40
0
 40
0
 40
0
 40
1
 40
1
 40
1
 40
1
 10
42.070535
 20
1.051413
 30
0.0
 10
42.035743
 20
1.051412
 30
0.0
 10
42.007539
 20
1.079617
 30
0.0
 10
42.007539
 20
1.114408
 30
0.0
  0
SPLINE
  5
306
100
AcDbEntity
  8
Layer_1
 62
7
100
AcDbSpline
 70
8
 71
3
 72
8
 73
4
 74
0
 40
0
 40
0
 40
0
 40
0
 40
1
 40
1
 40
1
 40
1
 10
42.007539
 20
1.114408
 30
0.0
 10
42.007539
 20
1.149200
 30
0.0
 10
42.035743
 20
1.177404
 30
0.0
 10
42.070535
 20
1.177404
 30
0.0
  0
SPLINE
  5
307
100
AcDbEntity
  8
Layer_1
 62
7
100
AcDbSpline
 70
8
 71
3
 72
8
 73
4
 74
0
 40
0
 40
0
 40
0
 40
0
 40
1
 40
1
 40
1
 40
1
 10
42.070535
 20
1.177404
 30
0.0
 10
42.105327
 20
1.177404
 30
0.0
 10
42.133531
 20
1.149200
 30
0.0
 10
42.133531
 20
1.114408
 30
0.0
  0
SPLINE
  5
308
100
AcDbEntity
  8
Layer_1
 62
7
100
AcDbSpline
 70
8
 71
3
 72
8
 73
4
 74
0
 40
0
 40
0
 40
0
 40
0
 40
1
 40
1
 40
1
 40
1
 10
41.110600
 20
5.013071
 30
0.0
 10
41.110600
 20
4.978279
 30
0.0
 10
41.082395
 20
4.950075
 30
0.0
 10
41.047604
 20
4.950075
 30
0.0
  0
SPLINE
  5
309
100
AcDbEntity
  8
Layer_1
 62
7
100
AcDbSpline
 70
8
 71
3
 72
8
 73
4
 74
0
 40
0
 40
0
 40
0
 40
0
 40
1
 40
1
 40
1
 40
1
 10
41.047604
 20
4.950075
 30
0.0
 10
41.012812
 20
4.950075
 30
0.0
 10
40.984608
 20
4.978279
 30
0.0
 10
40.984608
 20
5.013071
 30
0.0
  0
SPLINE
  5
30a
100
AcDbEntity
  8
Layer_1
 62
7
100
AcDbSpline
 70
8
 71
3
 72
8
 73
4
 74
0
 40
0
 40
0
 40
0
 40
0
 40
1
 40
1
 40
1
 40
1
 10
40.984608
 20
5.013071
 30
0.0
 10
40.984608
 20
5.047863
 30
0.0
 10
41.012812
 20
5.076067
 30
0.0
 10
41.047604
 20
5.076067
 30
0.0
  0
SPLINE
  5
30b
100
AcDbEntity
  8
Layer_1
 62
7
100
AcDbSpline
 70
8
 71
3
 72
8
 73
4
 74
0
 40
0
 40
0
 40
0
 40
0
 40
1
 40
1
 40
1
 40
1
 10
41.047604
 20
5.076067
 30
0.0
 10
41.082395
 20
5.076067
 30
0.0
 10
41.110600
 20
5.047863
 30
0.0
 10
41.110600
 20
5.013071
 30
0.0
  0
SPLINE
  5
30c
100
AcDbEntity
  8
Layer_1
 62
7
100
AcDbSpline
 70
8
 71
3
 72
8
 73
4
 74
0
 40
0
 40
0
 40
0
 40
0
 40
1
 40
1
 40
1
 40
1
 10
42.001931
 20
12.651565
 30
0.0
 10
42.001931
 20
12.634858
 30
0.0
 10
41.995294
 20
12.618834
 30
0.0
 10
41.983480
 20
12.607020
 30
0.0
  0
SPLINE
  5
30d
100
AcDbEntity
  8
Layer_1
 62
7
100
AcDbSpline
 70
8
 71
3
 72
8
 73
4
 74
0
 40
0
 40
0
 40
0
 40
0
 40
1
 40
1
 40
1
 40
1
 10
41.983480
 20
12.607020
 30
0.0
 10
41.971665
 20
12.595206
 30
0.0
 10
41.955642
 20
12.588569
 30
0.0
 10
41.938935
 20
12.588569
 30
0.0
  0
SPLINE
  5
30e
100
AcDbEntity
  8
Layer_1
 62
7
100
AcDbSpline
 70
8
 71
3
 72
8
 73
4
 74
0
 40
0
 40
0
 40
0
 40
0
 40
1
 40
1
 40
1
 40
1
 10
41.938935
 20
12.588569
 30
0.0
 10
41.922227
 20
12.588569
 30
0.0
 10
41.906204
 20
12.595206
 30
0.0
 10
41.894390
 20
12.607020
 30
0.0
  0
SPLINE
  5
30f
100
AcDbEntity
  8
Layer_1
 62
7
100
AcDbSpline
 70
8
 71
3
 72
8
 73
4
 74
0
 40
0
 40
0
 40
0
 40
0
 40
1
 40
1
 40
1
 40
1
 10
41.894390
 20
12.607020
 30
0.0
 10
41.882576
 20
12.618834
 30
0.0
 10
41.875939
 20
12.634858
 30
0.0
 10
41.875939
 20
12.651565
 30
0.0
  0
SPLINE
  5
310
100
AcDbEntity
  8
Layer_1
 62
7
100
AcDbSpline
 70
8
 71
3
 72
8
 73
4
 74
0
 40
0
 40
0
 40
0
 40
0
 40
1
 40
1
 40
1
 40
1
 10
41.875939
 20
12.651565
 30
0.0
 10
41.875939
 20
12.668273
 30
0.0
 10
41.882576
 20
12.684296
 30
0.0
 10
41.894390
 20
12.696110
 30
0.0
  0
SPLINE
  5
311
100
AcDbEntity
  8
Layer_1
 62
7
100
AcDbSpline
 70
8
 71
3
 72
8
 73
4
 74
0
 40
0
 40
0
 40
0
 40
0
 40
1
 40
1
 40
1
 40
1
 10
41.894390
 20
12.696110
 30
0.0
 10
41.906204
 20
12.707924
 30
0.0
 10
41.922227
 20
12.714561
 30
0.0
 10
41.938935
 20
12.714561
 30
0.0
  0
SPLINE
  5
312
100
AcDbEntity
  8
Layer_1
 62
7
100
AcDbSpline
 70
8
 71
3
 72
8
 73
4
 74
0
 40
0
 40
0
 40
0
 40
0
 40
1
 40
1
 40
1
 40
1
 10
41.938935
 20
12.714561
 30
0.0
 10
41.955642
 20
12.714561
 30
0.0
 10
41.971665
 20
12.707924
 30
0.0
 10
41.983480
 20
12.696110
 30
0.0
  0
SPLINE
  5
313
100
AcDbEntity
  8
Layer_1
 62
7
100
AcDbSpline
 70
8
 71
3
 72
8
 73
4
 74
0
 40
0
 40
0
 40
0
 40
0
 40
1
 40
1
 40
1
 40
1
 10
41.983480
 20
12.696110
 30
0.0
 10
41.995294
 20
12.684296
 30
0.0
 10
42.001931
 20
12.668273
 30
0.0
 10
42.001931
 20
12.651565
 30
0.0
  0
SPLINE
  5
314
100
AcDbEntity
  8
Layer_1
 62
7
100
AcDbSpline
 70
8
 71
3
 72
8
 73
4
 74
0
 40
0
 40
0
 40
0
 40
0
 40
1
 40
1
 40
1
 40
1
 10
42.733181
 20
9.087128
 30
0.0
 10
42.733181
 20
9.069160
 30
0.0
 10
42.726043
 20
9.051929
 30
0.0
 10
42.713338
 20
9.039223
 30
0.0
  0
SPLINE
  5
315
100
AcDbEntity
  8
Layer_1
 62
7
100
AcDbSpline
 70
8
 71
3
 72
8
 73
4
 74
0
 40
0
 40
0
 40
0
 40
0
 40
1
 40
1
 40
1
 40
1
 10
42.713338
 20
9.039223
 30
0.0
 10
42.700633
 20
9.026518
 30
0.0
 10
42.683401
 20
9.019381
 30
0.0
 10
42.665434
 20
9.019381
 30
0.0
  0
SPLINE
  5
316
100
AcDbEntity
  8
Layer_1
 62
7
100
AcDbSpline
 70
8
 71
3
 72
8
 73
4
 74
0
 40
0
 40
0
 40
0
 40
0
 40
1
 40
1
 40
1
 40
1
 10
42.665434
 20
9.019381
 30
0.0
 10
42.647466
 20
9.019381
 30
0.0
 10
42.630234
 20
9.026518
 30
0.0
 10
42.617529
 20
9.039223
 30
0.0
  0
SPLINE
  5
317
100
AcDbEntity
  8
Layer_1
 62
7
100
AcDbSpline
 70
8
 71
3
 72
8
 73
4
 74
0
 40
0
 40
0
 40
0
 40
0
 40
1
 40
1
 40
1
 40
1
 10
42.617529
 20
9.039223
 30
0.0
 10
42.604824
 20
9.051929
 30
0.0
 10
42.597687
 20
9.069160
 30
0.0
 10
42.597687
 20
9.087128
 30
0.0
  0
SPLINE
  5
318
100
AcDbEntity
  8
Layer_1
 62
7
100
AcDbSpline
 70
8
 71
3
 72
8
 73
4
 74
0
 40
0
 40
0
 40
0
 40
0
 40
1
 40
1
 40
1
 40
1
 10
42.597687
 20
9.087128
 30
0.0
 10
42.597687
 20
9.124544
 30
0.0
 10
42.628018
 20
9.154875
 30
0.0
 10
42.665434
 20
9.154875
 30
0.0
  0
SPLINE
  5
319
100
AcDbEntity
  8
Layer_1
 62
7
100
AcDbSpline
 70
8
 71
3
 72
8
 73
4
 74
0
 40
0
 40
0
 40
0
 40
0
 40
1
 40
1
 40
1
 40
1
 10
42.665434
 20
9.154875
 30
0.0
 10
42.702849
 20
9.154875
 30
0.0
 10
42.733181
 20
9.124544
 30
0.0
 10
42.733181
 20
9.087128
 30
0.0
  0
SPLINE
  5
31a
100
AcDbEntity
  8
Layer_1
 62
7
100
AcDbSpline
 70
8
 71
3
 72
8
 73
4
 74
0
 40
0
 40
0
 40
0
 40
0
 40
1
 40
1
 40
1
 40
1
 10
43.615018
 20
5.013071
 30
0.0
 10
43.615018
 20
4.978279
 30
0.0
 10
43.586813
 20
4.950075
 30
0.0
 10
43.552022
 20
4.950075
 30
0.0
  0
SPLINE
  5
31b
100
AcDbEntity
  8
Layer_1
 62
7
100
AcDbSpline
 70
8
 71
3
 72
8
 73
4
 74
0
 40
0
 40
0
 40
0
 40
0
 40
1
 40
1
 40
1
 40
1
 10
43.552022
 20
4.950075
 30
0.0
 10
43.517230
 20
4.950075
 30
0.0
 10
43.489026
 20
4.978279
 30
0.0
 10
43.489026
 20
5.013071
 30
0.0
  0
SPLINE
  5
31c
100
AcDbEntity
  8
Layer_1
 62
7
100
AcDbSpline
 70
8
 71
3
 72
8
 73
4
 74
0
 40
0
 40
0
 40
0
 40
0
 40
1
 40
1
 40
1
 40
1
 10
43.489026
 20
5.013071
 30
0.0
 10
43.489026
 20
5.047863
 30
0.0
 10
43.517230
 20
5.076067
 30
0.0
 10
43.552022
 20
5.076067
 30
0.0
  0
SPLINE
  5
31d
100
AcDbEntity
  8
Layer_1
 62
7
100
AcDbSpline
 70
8
 71
3
 72
8
 73
4
 74
0
 40
0
 40
0
 40
0
 40
0
 40
1
 40
1
 40
1
 40
1
 10
43.552022
 20
5.076067
 30
0.0
 10
43.586813
 20
5.076067
 30
0.0
 10
43.615018
 20
5.047863
 30
0.0
 10
43.615018
 20
5.013071
 30
0.0
  0
SPLINE
  5
31e
100
AcDbEntity
  8
Layer_1
 62
7
100
AcDbSpline
 70
8
 71
3
 72
8
 73
4
 74
0
 40
0
 40
0
 40
0
 40
0
 40
1
 40
1
 40
1
 40
1
 10
44.602675
 20
1.114408
 30
0.0
 10
44.602675
 20
1.079617
 30
0.0
 10
44.574471
 20
1.051412
 30
0.0
 10
44.539679
 20
1.051413
 30
0.0
  0
SPLINE
  5
31f
100
AcDbEntity
  8
Layer_1
 62
7
100
AcDbSpline
 70
8
 71
3
 72
8
 73
4
 74
0
 40
0
 40
0
 40
0
 40
0
 40
1
 40
1
 40
1
 40
1
 10
44.539679
 20
1.051413
 30
0.0
 10
44.504888
 20
1.051412
 30
0.0
 10
44.476683
 20
1.079617
 30
0.0
 10
44.476683
 20
1.114408
 30
0.0
  0
SPLINE
  5
320
100
AcDbEntity
  8
Layer_1
 62
7
100
AcDbSpline
 70
8
 71
3
 72
8
 73
4
 74
0
 40
0
 40
0
 40
0
 40
0
 40
1
 40
1
 40
1
 40
1
 10
44.476683
 20
1.114408
 30
0.0
 10
44.476683
 20
1.149200
 30
0.0
 10
44.504888
 20
1.177404
 30
0.0
 10
44.539679
 20
1.177404
 30
0.0
  0
SPLINE
  5
321
100
AcDbEntity
  8
Layer_1
 62
7
100
AcDbSpline
 70
8
 71
3
 72
8
 73
4
 74
0
 40
0
 40
0
 40
0
 40
0
 40
1
 40
1
 40
1
 40
1
 10
44.539679
 20
1.177404
 30
0.0
 10
44.574471
 20
1.177404
 30
0.0
 10
44.602675
 20
1.149200
 30
0.0
 10
44.602675
 20
1.114408
 30
0.0
  0
SPLINE
  5
322
100
AcDbEntity
  8
Layer_1
 62
7
100
AcDbSpline
 70
8
 71
3
 72
8
 73
4
 74
0
 40
0
 40
0
 40
0
 40
0
 40
1
 40
1
 40
1
 40
1
 10
50.182143
 20
12.651565
 30
0.0
 10
50.182143
 20
12.634858
 30
0.0
 10
50.188780
 20
12.618834
 30
0.0
 10
50.200594
 20
12.607020
 30
0.0
  0
SPLINE
  5
323
100
AcDbEntity
  8
Layer_1
 62
7
100
AcDbSpline
 70
8
 71
3
 72
8
 73
4
 74
0
 40
0
 40
0
 40
0
 40
0
 40
1
 40
1
 40
1
 40
1
 10
50.200594
 20
12.607020
 30
0.0
 10
50.212408
 20
12.595206
 30
0.0
 10
50.228431
 20
12.588569
 30
0.0
 10
50.245139
 20
12.588569
 30
0.0
  0
SPLINE
  5
324
100
AcDbEntity
  8
Layer_1
 62
7
100
AcDbSpline
 70
8
 71
3
 72
8
 73
4
 74
0
 40
0
 40
0
 40
0
 40
0
 40
1
 40
1
 40
1
 40
1
 10
50.245139
 20
12.588569
 30
0.0
 10
50.261846
 20
12.588569
 30
0.0
 10
50.277870
 20
12.595206
 30
0.0
 10
50.289684
 20
12.607020
 30
0.0
  0
SPLINE
  5
325
100
AcDbEntity
  8
Layer_1
 62
7
100
AcDbSpline
 70
8
 71
3
 72
8
 73
4
 74
0
 40
0
 40
0
 40
0
 40
0
 40
1
 40
1
 40
1
 40
1
 10
50.289684
 20
12.607020
 30
0.0
 10
50.301498
 20
12.618834
 30
0.0
 10
50.308135
 20
12.634858
 30
0.0
 10
50.308135
 20
12.651565
 30
0.0
  0
SPLINE
  5
326
100
AcDbEntity
  8
Layer_1
 62
7
100
AcDbSpline
 70
8
 71
3
 72
8
 73
4
 74
0
 40
0
 40
0
 40
0
 40
0
 40
1
 40
1
 40
1
 40
1
 10
50.308135
 20
12.651565
 30
0.0
 10
50.308135
 20
12.668273
 30
0.0
 10
50.301498
 20
12.684296
 30
0.0
 10
50.289684
 20
12.696110
 30
0.0
  0
SPLINE
  5
327
100
AcDbEntity
  8
Layer_1
 62
7
100
AcDbSpline
 70
8
 71
3
 72
8
 73
4
 74
0
 40
0
 40
0
 40
0
 40
0
 40
1
 40
1
 40
1
 40
1
 10
50.289684
 20
12.696110
 30
0.0
 10
50.277870
 20
12.707924
 30
0.0
 10
50.261846
 20
12.714561
 30
0.0
 10
50.245139
 20
12.714561
 30
0.0
  0
SPLINE
  5
328
100
AcDbEntity
  8
Layer_1
 62
7
100
AcDbSpline
 70
8
 71
3
 72
8
 73
4
 74
0
 40
0
 40
0
 40
0
 40
0
 40
1
 40
1
 40
1
 40
1
 10
50.245139
 20
12.714561
 30
0.0
 10
50.228431
 20
12.714561
 30
0.0
 10
50.212408
 20
12.707924
 30
0.0
 10
50.200594
 20
12.696110
 30
0.0
  0
SPLINE
  5
329
100
AcDbEntity
  8
Layer_1
 62
7
100
AcDbSpline
 70
8
 71
3
 72
8
 73
4
 74
0
 40
0
 40
0
 40
0
 40
0
 40
1
 40
1
 40
1
 40
1
 10
50.200594
 20
12.696110
 30
0.0
 10
50.188780
 20
12.684296
 30
0.0
 10
50.182143
 20
12.668273
 30
0.0
 10
50.182143
 20
12.651565
 30
0.0
  0
SPLINE
  5
32a
100
AcDbEntity
  8
Layer_1
 62
7
100
AcDbSpline
 70
8
 71
3
 72
8
 73
4
 74
0
 40
0
 40
0
 40
0
 40
0
 40
1
 40
1
 40
1
 40
1
 10
45.930148
 20
-2.818135
 30
0.0
 10
45.930148
 20
-2.852927
 30
0.0
 10
45.958352
 20
-2.881131
 30
0.0
 10
45.993144
 20
-2.881131
 30
0.0
  0
SPLINE
  5
32b
100
AcDbEntity
  8
Layer_1
 62
7
100
AcDbSpline
 70
8
 71
3
 72
8
 73
4
 74
0
 40
0
 40
0
 40
0
 40
0
 40
1
 40
1
 40
1
 40
1
 10
45.993144
 20
-2.881131
 30
0.0
 10
46.027935
 20
-2.881131
 30
0.0
 10
46.056139
 20
-2.852927
 30
0.0
 10
46.056140
 20
-2.818135
 30
0.0
  0
SPLINE
  5
32c
100
AcDbEntity
  8
Layer_1
 62
7
100
AcDbSpline
 70
8
 71
3
 72
8
 73
4
 74
0
 40
0
 40
0
 40
0
 40
0
 40
1
 40
1
 40
1
 40
1
 10
46.056140
 20
-2.818135
 30
0.0
 10
46.056139
 20
-2.783344
 30
0.0
 10
46.027935
 20
-2.755140
 30
0.0
 10
45.993144
 20
-2.755140
 30
0.0
  0
SPLINE
  5
32d
100
AcDbEntity
  8
Layer_1
 62
7
100
AcDbSpline
 70
8
 71
3
 72
8
 73
4
 74
0
 40
0
 40
0
 40
0
 40
0
 40
1
 40
1
 40
1
 40
1
 10
45.993144
 20
-2.755140
 30
0.0
 10
45.958352
 20
-2.755140
 30
0.0
 10
45.930148
 20
-2.783344
 30
0.0
 10
45.930148
 20
-2.818135
 30
0.0
  0
SPLINE
  5
32e
100
AcDbEntity
  8
Layer_1
 62
7
100
AcDbSpline
 70
8
 71
3
 72
8
 73
4
 74
0
 40
0
 40
0
 40
0
 40
0
 40
1
 40
1
 40
1
 40
1
 10
49.133431
 20
9.087128
 30
0.0
 10
49.133431
 20
9.069160
 30
0.0
 10
49.140569
 20
9.051929
 30
0.0
 10
49.153274
 20
9.039223
 30
0.0
  0
SPLINE
  5
32f
100
AcDbEntity
  8
Layer_1
 62
7
100
AcDbSpline
 70
8
 71
3
 72
8
 73
4
 74
0
 40
0
 40
0
 40
0
 40
0
 40
1
 40
1
 40
1
 40
1
 10
49.153274
 20
9.039223
 30
0.0
 10
49.165979
 20
9.026518
 30
0.0
 10
49.183210
 20
9.019381
 30
0.0
 10
49.201178
 20
9.019381
 30
0.0
  0
SPLINE
  5
330
100
AcDbEntity
  8
Layer_1
 62
7
100
AcDbSpline
 70
8
 71
3
 72
8
 73
4
 74
0
 40
0
 40
0
 40
0
 40
0
 40
1
 40
1
 40
1
 40
1
 10
49.201178
 20
9.019381
 30
0.0
 10
49.219146
 20
9.019381
 30
0.0
 10
49.236377
 20
9.026518
 30
0.0
 10
49.249083
 20
9.039223
 30
0.0
  0
SPLINE
  5
331
100
AcDbEntity
  8
Layer_1
 62
7
100
AcDbSpline
 70
8
 71
3
 72
8
 73
4
 74
0
 40
0
 40
0
 40
0
 40
0
 40
1
 40
1
 40
1
 40
1
 10
49.249083
 20
9.039223
 30
0.0
 10
49.261788
 20
9.051929
 30
0.0
 10
49.268925
 20
9.069160
 30
0.0
 10
49.268925
 20
9.087128
 30
0.0
  0
SPLINE
  5
332
100
AcDbEntity
  8
Layer_1
 62
7
100
AcDbSpline
 70
8
 71
3
 72
8
 73
4
 74
0
 40
0
 40
0
 40
0
 40
0
 40
1
 40
1
 40
1
 40
1
 10
49.268925
 20
9.087128
 30
0.0
 10
49.268925
 20
9.124544
 30
0.0
 10
49.238594
 20
9.154875
 30
0.0
 10
49.201178
 20
9.154875
 30
0.0
  0
SPLINE
  5
333
100
AcDbEntity
  8
Layer_1
 62
7
100
AcDbSpline
 70
8
 71
3
 72
8
 73
4
 74
0
 40
0
 40
0
 40
0
 40
0
 40
1
 40
1
 40
1
 40
1
 10
49.201178
 20
9.154875
 30
0.0
 10
49.163762
 20
9.154875
 30
0.0
 10
49.133431
 20
9.124544
 30
0.0
 10
49.133431
 20
9.087128
 30
0.0
  0
SPLINE
  5
334
100
AcDbEntity
  8
Layer_1
 62
7
100
AcDbSpline
 70
8
 71
3
 72
8
 73
4
 74
0
 40
0
 40
0
 40
0
 40
0
 40
1
 40
1
 40
1
 40
1
 10
46.981749
 20
1.114408
 30
0.0
 10
46.981749
 20
1.079617
 30
0.0
 10
47.009953
 20
1.051412
 30
0.0
 10
47.044745
 20
1.051413
 30
0.0
  0
SPLINE
  5
335
100
AcDbEntity
  8
Layer_1
 62
7
100
AcDbSpline
 70
8
 71
3
 72
8
 73
4
 74
0
 40
0
 40
0
 40
0
 40
0
 40
1
 40
1
 40
1
 40
1
 10
47.044745
 20
1.051413
 30
0.0
 10
47.079536
 20
1.051412
 30
0.0
 10
47.107740
 20
1.079617
 30
0.0
 10
47.107741
 20
1.114408
 30
0.0
  0
SPLINE
  5
336
100
AcDbEntity
  8
Layer_1
 62
7
100
AcDbSpline
 70
8
 71
3
 72
8
 73
4
 74
0
 40
0
 40
0
 40
0
 40
0
 40
1
 40
1
 40
1
 40
1
 10
47.107741
 20
1.114408
 30
0.0
 10
47.107740
 20
1.149200
 30
0.0
 10
47.079536
 20
1.177404
 30
0.0
 10
47.044745
 20
1.177404
 30
0.0
  0
SPLINE
  5
337
100
AcDbEntity
  8
Layer_1
 62
7
100
AcDbSpline
 70
8
 71
3
 72
8
 73
4
 74
0
 40
0
 40
0
 40
0
 40
0
 40
1
 40
1
 40
1
 40
1
 10
47.044745
 20
1.177404
 30
0.0
 10
47.009953
 20
1.177404
 30
0.0
 10
46.981749
 20
1.149200
 30
0.0
 10
46.981749
 20
1.114408
 30
0.0
  0
SPLINE
  5
338
100
AcDbEntity
  8
Layer_1
 62
7
100
AcDbSpline
 70
8
 71
3
 72
8
 73
4
 74
0
 40
0
 40
0
 40
0
 40
0
 40
1
 40
1
 40
1
 40
1
 10
48.004680
 20
5.013071
 30
0.0
 10
48.004680
 20
4.978279
 30
0.0
 10
48.032884
 20
4.950075
 30
0.0
 10
48.067676
 20
4.950075
 30
0.0
  0
SPLINE
  5
339
100
AcDbEntity
  8
Layer_1
 62
7
100
AcDbSpline
 70
8
 71
3
 72
8
 73
4
 74
0
 40
0
 40
0
 40
0
 40
0
 40
1
 40
1
 40
1
 40
1
 10
48.067676
 20
4.950075
 30
0.0
 10
48.102467
 20
4.950075
 30
0.0
 10
48.130672
 20
4.978279
 30
0.0
 10
48.130672
 20
5.013071
 30
0.0
  0
SPLINE
  5
33a
100
AcDbEntity
  8
Layer_1
 62
7
100
AcDbSpline
 70
8
 71
3
 72
8
 73
4
 74
0
 40
0
 40
0
 40
0
 40
0
 40
1
 40
1
 40
1
 40
1
 10
48.130672
 20
5.013071
 30
0.0
 10
48.130672
 20
5.047863
 30
0.0
 10
48.102467
 20
5.076067
 30
0.0
 10
48.067676
 20
5.076067
 30
0.0
  0
SPLINE
  5
33b
100
AcDbEntity
  8
Layer_1
 62
7
100
AcDbSpline
 70
8
 71
3
 72
8
 73
4
 74
0
 40
0
 40
0
 40
0
 40
0
 40
1
 40
1
 40
1
 40
1
 10
48.067676
 20
5.076067
 30
0.0
 10
48.032884
 20
5.076067
 30
0.0
 10
48.004680
 20
5.047863
 30
0.0
 10
48.004680
 20
5.013071
 30
0.0
  0
SPLINE
  5
33c
100
AcDbEntity
  8
Layer_1
 62
7
100
AcDbSpline
 70
8
 71
3
 72
8
 73
4
 74
0
 40
0
 40
0
 40
0
 40
0
 40
1
 40
1
 40
1
 40
1
 10
47.113349
 20
12.651565
 30
0.0
 10
47.113349
 20
12.634858
 30
0.0
 10
47.119986
 20
12.618834
 30
0.0
 10
47.131800
 20
12.607020
 30
0.0
  0
SPLINE
  5
33d
100
AcDbEntity
  8
Layer_1
 62
7
100
AcDbSpline
 70
8
 71
3
 72
8
 73
4
 74
0
 40
0
 40
0
 40
0
 40
0
 40
1
 40
1
 40
1
 40
1
 10
47.131800
 20
12.607020
 30
0.0
 10
47.143614
 20
12.595206
 30
0.0
 10
47.159637
 20
12.588569
 30
0.0
 10
47.176345
 20
12.588569
 30
0.0
  0
SPLINE
  5
33e
100
AcDbEntity
  8
Layer_1
 62
7
100
AcDbSpline
 70
8
 71
3
 72
8
 73
4
 74
0
 40
0
 40
0
 40
0
 40
0
 40
1
 40
1
 40
1
 40
1
 10
47.176345
 20
12.588569
 30
0.0
 10
47.193053
 20
12.588569
 30
0.0
 10
47.209076
 20
12.595206
 30
0.0
 10
47.220890
 20
12.607020
 30
0.0
  0
SPLINE
  5
33f
100
AcDbEntity
  8
Layer_1
 62
7
100
AcDbSpline
 70
8
 71
3
 72
8
 73
4
 74
0
 40
0
 40
0
 40
0
 40
0
 40
1
 40
1
 40
1
 40
1
 10
47.220890
 20
12.607020
 30
0.0
 10
47.232704
 20
12.618834
 30
0.0
 10
47.239341
 20
12.634858
 30
0.0
 10
47.239341
 20
12.651565
 30
0.0
  0
SPLINE
  5
340
100
AcDbEntity
  8
Layer_1
 62
7
100
AcDbSpline
 70
8
 71
3
 72
8
 73
4
 74
0
 40
0
 40
0
 40
0
 40
0
 40
1
 40
1
 40
1
 40
1
 10
47.239341
 20
12.651565
 30
0.0
 10
47.239341
 20
12.668273
 30
0.0
 10
47.232704
 20
12.684296
 30
0.0
 10
47.220890
 20
12.696110
 30
0.0
  0
SPLINE
  5
341
100
AcDbEntity
  8
Layer_1
 62
7
100
AcDbSpline
 70
8
 71
3
 72
8
 73
4
 74
0
 40
0
 40
0
 40
0
 40
0
 40
1
 40
1
 40
1
 40
1
 10
47.220890
 20
12.696110
 30
0.0
 10
47.209076
 20
12.707924
 30
0.0
 10
47.193053
 20
12.714561
 30
0.0
 10
47.176345
 20
12.714561
 30
0.0
  0
SPLINE
  5
342
100
AcDbEntity
  8
Layer_1
 62
7
100
AcDbSpline
 70
8
 71
3
 72
8
 73
4
 74
0
 40
0
 40
0
 40
0
 40
0
 40
1
 40
1
 40
1
 40
1
 10
47.176345
 20
12.714561
 30
0.0
 10
47.159637
 20
12.714561
 30
0.0
 10
47.143614
 20
12.707924
 30
0.0
 10
47.131800
 20
12.696110
 30
0.0
  0
SPLINE
  5
343
100
AcDbEntity
  8
Layer_1
 62
7
100
AcDbSpline
 70
8
 71
3
 72
8
 73
4
 74
0
 40
0
 40
0
 40
0
 40
0
 40
1
 40
1
 40
1
 40
1
 10
47.131800
 20
12.696110
 30
0.0
 10
47.119986
 20
12.684296
 30
0.0
 10
47.113349
 20
12.668273
 30
0.0
 10
47.113349
 20
12.651565
 30
0.0
  0
SPLINE
  5
344
100
AcDbEntity
  8
Layer_1
 62
7
100
AcDbSpline
 70
8
 71
3
 72
8
 73
4
 74
0
 40
0
 40
0
 40
0
 40
0
 40
1
 40
1
 40
1
 40
1
 10
46.382099
 20
9.087128
 30
0.0
 10
46.382099
 20
9.069160
 30
0.0
 10
46.389236
 20
9.051929
 30
0.0
 10
46.401941
 20
9.039223
 30
0.0
  0
SPLINE
  5
345
100
AcDbEntity
  8
Layer_1
 62
7
100
AcDbSpline
 70
8
 71
3
 72
8
 73
4
 74
0
 40
0
 40
0
 40
0
 40
0
 40
1
 40
1
 40
1
 40
1
 10
46.401941
 20
9.039223
 30
0.0
 10
46.414646
 20
9.026518
 30
0.0
 10
46.431878
 20
9.019381
 30
0.0
 10
46.449846
 20
9.019381
 30
0.0
  0
SPLINE
  5
346
100
AcDbEntity
  8
Layer_1
 62
7
100
AcDbSpline
 70
8
 71
3
 72
8
 73
4
 74
0
 40
0
 40
0
 40
0
 40
0
 40
1
 40
1
 40
1
 40
1
 10
46.449846
 20
9.019381
 30
0.0
 10
46.467813
 20
9.019381
 30
0.0
 10
46.485045
 20
9.026518
 30
0.0
 10
46.497750
 20
9.039223
 30
0.0
  0
SPLINE
  5
347
100
AcDbEntity
  8
Layer_1
 62
7
100
AcDbSpline
 70
8
 71
3
 72
8
 73
4
 74
0
 40
0
 40
0
 40
0
 40
0
 40
1
 40
1
 40
1
 40
1
 10
46.497750
 20
9.039223
 30
0.0
 10
46.510455
 20
9.051929
 30
0.0
 10
46.517593
 20
9.069160
 30
0.0
 10
46.517593
 20
9.087128
 30
0.0
  0
SPLINE
  5
348
100
AcDbEntity
  8
Layer_1
 62
7
100
AcDbSpline
 70
8
 71
3
 72
8
 73
4
 74
0
 40
0
 40
0
 40
0
 40
0
 40
1
 40
1
 40
1
 40
1
 10
46.517593
 20
9.087128
 30
0.0
 10
46.517593
 20
9.124544
 30
0.0
 10
46.487261
 20
9.154875
 30
0.0
 10
46.449846
 20
9.154875
 30
0.0
  0
SPLINE
  5
349
100
AcDbEntity
  8
Layer_1
 62
7
100
AcDbSpline
 70
8
 71
3
 72
8
 73
4
 74
0
 40
0
 40
0
 40
0
 40
0
 40
1
 40
1
 40
1
 40
1
 10
46.449846
 20
9.154875
 30
0.0
 10
46.412430
 20
9.154875
 30
0.0
 10
46.382099
 20
9.124544
 30
0.0
 10
46.382099
 20
9.087128
 30
0.0
  0
SPLINE
  5
34a
100
AcDbEntity
  8
Layer_1
 62
7
100
AcDbSpline
 70
8
 71
3
 72
8
 73
4
 74
0
 40
0
 40
0
 40
0
 40
0
 40
1
 40
1
 40
1
 40
1
 10
45.500262
 20
5.013071
 30
0.0
 10
45.500262
 20
4.978279
 30
0.0
 10
45.528466
 20
4.950075
 30
0.0
 10
45.563258
 20
4.950075
 30
0.0
  0
SPLINE
  5
34b
100
AcDbEntity
  8
Layer_1
 62
7
100
AcDbSpline
 70
8
 71
3
 72
8
 73
4
 74
0
 40
0
 40
0
 40
0
 40
0
 40
1
 40
1
 40
1
 40
1
 10
45.563258
 20
4.950075
 30
0.0
 10
45.598050
 20
4.950075
 30
0.0
 10
45.626254
 20
4.978279
 30
0.0
 10
45.626254
 20
5.013071
 30
0.0
  0
SPLINE
  5
34c
100
AcDbEntity
  8
Layer_1
 62
7
100
AcDbSpline
 70
8
 71
3
 72
8
 73
4
 74
0
 40
0
 40
0
 40
0
 40
0
 40
1
 40
1
 40
1
 40
1
 10
45.626254
 20
5.013071
 30
0.0
 10
45.626254
 20
5.047862
 30
0.0
 10
45.598050
 20
5.076067
 30
0.0
 10
45.563258
 20
5.076067
 30
0.0
  0
SPLINE
  5
34d
100
AcDbEntity
  8
Layer_1
 62
7
100
AcDbSpline
 70
8
 71
3
 72
8
 73
4
 74
0
 40
0
 40
0
 40
0
 40
0
 40
1
 40
1
 40
1
 40
1
 10
45.563258
 20
5.076067
 30
0.0
 10
45.528466
 20
5.076067
 30
0.0
 10
45.500262
 20
5.047863
 30
0.0
 10
45.500262
 20
5.013071
 30
0.0
  0
LWPOLYLINE
  5
34e
100
AcDbEntity
  8
Layer_1
 62
7
100
AcDbPolyline
 90
1
 70
1
 10
38.553400
 20
12.939928
 30
0.0
  0
ENDSEC
  0
SECTION
  2
OBJECTS
  0
DICTIONARY
  5
C
330
0
100
AcDbDictionary
  3
ACAD_GROUP
350
D
  3
ACAD_MLINESTYLE
350
17
  0
DICTIONARY
  5
D
330
C
100
AcDbDictionary
  0
DICTIONARY
  5
1A
330
C
100
AcDbDictionary
  0
DICTIONARY
  5
17
330
C
100
AcDbDictionary
  3
STANDARD
350
18
  0
DICTIONARY
  5
19
330
C
100
AcDbDictionary
  0
ENDSEC
  0
EOF
