  0
SECTION
  2
HEADER
  9
$ACADVER
  1
AC1014
  9
$HANDSEED
  5
FFFF
  9
$MEASUREMENT
 70
     1
  0
ENDSEC
  0
SECTION
  2
TABLES
  0
TABLE
  2
VPORT
  5
8
330
0
100
AcDbSymbolTable
 70
     4
  0
VPORT
  5
2E
330
8
100
AcDbSymbolTableRecord
100
AcDbViewportTableRecord
  2
*ACTIVE
 70
     0
 10
0.0
 20
0.0
 11
1.0
 21
1.0
 12
210.0
 22
148.5
 13
0.0
 23
0.0
 14
10.0
 24
10.0
 15
10.0
 25
10.0
 16
0.0
 26
0.0
 36
1.0
 17
0.0
 27
0.0
 37
0.0
 40
341.0
 41
1.24
 42
50.0
 43
0.0
 44
0.0
 50
0.0
 51
0.0
 71
     0
 72
   100
 73
     1
 74
     3
 75
     0
 76
     0
 77
     0
 78
     0
  0
ENDTAB
  0
TABLE
  2
LTYPE
  5
5
330
0
100
AcDbSymbolTable
 70
     1
  0
LTYPE
  5
14
330
5
100
AcDbSymbolTableRecord
100
AcDbLinetypeTableRecord
  2
BYBLOCK
 70
     0
  3

 72
    65
 73
     0
 40
0.0
  0
LTYPE
  5
15
330
5
100
AcDbSymbolTableRecord
100
AcDbLinetypeTableRecord
  2
BYLAYER
 70
     0
  3

 72
    65
 73
     0
 40
0.0
  0
LTYPE
  5
16
330
5
100
AcDbSymbolTableRecord
100
AcDbLinetypeTableRecord
  2
CONTINUOUS
 70
     0
  3
Solid line
 72
    65
 73
     0
 40
0.0
  0
ENDTAB
  0
TABLE
  2
LAYER
  5
2
100
AcDbSymbolTable
 70
2
  0
LAYER
  5
50
100
AcDbSymbolTableRecord
100
AcDbLayerTableRecord
  2
0
 70
0
  6
CONTINUOUS
  0
LAYER
  5
51
100
AcDbSymbolTableRecord
100
AcDbLayerTableRecord
  2
Layer_1
 70
0
  6
CONTINUOUS
  0
ENDTAB
  0
TABLE
  2
STYLE
  5
3
330
0
100
AcDbSymbolTable
 70
     1
  0
STYLE
  5
11
330
3
100
AcDbSymbolTableRecord
100
AcDbTextStyleTableRecord
  2
STANDARD
 70
     0
 40
0.0
 41
1.0
 50
0.0
 71
     0
 42
2.5
  3
txt
  4

  0
ENDTAB
  0
TABLE
  2
VIEW
  5
6
330
0
100
AcDbSymbolTable
 70
     0
  0
ENDTAB
  0
TABLE
  2
UCS
  5
7
330
0
100
AcDbSymbolTable
 70
     0
  0
ENDTAB
  0
TABLE
  2
APPID
  5
9
330
0
100
AcDbSymbolTable
 70
     2
  0
APPID
  5
12
330
9
100
AcDbSymbolTableRecord
100
AcDbRegAppTableRecord
  2
ACAD
 70
     0
  0
ENDTAB
  0
TABLE
  2
DIMSTYLE
  5
A
330
0
100
AcDbSymbolTable
 70
     1
  0
DIMSTYLE
105
27
330
A
100
AcDbSymbolTableRecord
100
AcDbDimStyleTableRecord
  2
ISO-25
 70
     0
  3

  4

  5

  6

  7

 40
1.0
 41
2.5
 42
0.625
 43
3.75
 44
1.25
 45
0.0
 46
0.0
 47
0.0
 48
0.0
140
2.5
141
2.5
142
0.0
143
0.03937007874016
144
1.0
145
0.0
146
1.0
147
0.625
 71
     0
 72
     0
 73
     0
 74
     0
 75
     0
 76
     0
 77
     1
 78
     8
170
     0
171
     3
172
     1
173
     0
174
     0
175
     0
176
     0
177
     0
178
     0
270
     2
271
     2
272
     2
273
     2
274
     3
340
11
275
     0
280
     0
281
     0
282
     0
283
     0
284
     8
285
     0
286
     0
287
     3
288
     0
  0
ENDTAB
  0
TABLE
  2
BLOCK_RECORD
  5
1
330
0
100
AcDbSymbolTable
 70
     1
  0
BLOCK_RECORD
  5
1F
330
1
100
AcDbSymbolTableRecord
100
AcDbBlockTableRecord
  2
*MODEL_SPACE
  0
BLOCK_RECORD
  5
1B
330
1
100
AcDbSymbolTableRecord
100
AcDbBlockTableRecord
  2
*PAPER_SPACE
  0
ENDTAB
  0
ENDSEC
  0
SECTION
  2
BLOCKS
  0
BLOCK
  5
20
330
1F
100
AcDbEntity
  8
0
100
AcDbBlockBegin
  2
*MODEL_SPACE
 70
     0
 10
0.0
 20
0.0
 30
0.0
  3
*MODEL_SPACE
  1

  0
ENDBLK
  5
21
330
1F
100
AcDbEntity
  8
0
100
AcDbBlockEnd
  0
BLOCK
  5
1C
330
1B
100
AcDbEntity
 67
     1
  8
0
100
AcDbBlockBegin
  2
*PAPER_SPACE
  1

  0
ENDBLK
  5
1D
330
1B
100
AcDbEntity
 67
     1
  8
0
100
AcDbBlockEnd
  0
ENDSEC
  0
SECTION
  2
ENTITIES
  0
SPLINE
  5
100
100
AcDbEntity
  8
Layer_1
 62
7
100
AcDbSpline
 70
8
 71
3
 72
8
 73
4
 74
0
 40
0
 40
0
 40
0
 40
0
 40
1
 40
1
 40
1
 40
1
 10
6.808186
 20
8.289246
 30
0.0
 10
6.808186
 20
8.650981
 30
0.0
 10
6.808186
 20
9.186349
 30
0.0
 10
6.808186
 20
9.895350
 30
0.0
  0
SPLINE
  5
101
100
AcDbEntity
  8
Layer_1
 62
7
100
AcDbSpline
 70
8
 71
3
 72
8
 73
4
 74
0
 40
0
 40
0
 40
0
 40
0
 40
1
 40
1
 40
1
 40
1
 10
6.808186
 20
9.895350
 30
0.0
 10
6.099185
 20
9.895350
 30
0.0
 10
5.028449
 20
9.895350
 30
0.0
 10
3.595979
 20
9.895350
 30
0.0
  0
SPLINE
  5
102
100
AcDbEntity
  8
Layer_1
 62
7
100
AcDbSpline
 70
8
 71
3
 72
8
 73
4
 74
0
 40
0
 40
0
 40
0
 40
0
 40
1
 40
1
 40
1
 40
1
 10
3.595979
 20
9.895350
 30
0.0
 10
3.595979
 20
9.186349
 30
0.0
 10
3.595979
 20
8.115614
 30
0.0
 10
3.595979
 20
6.683143
 30
0.0
  0
SPLINE
  5
103
100
AcDbEntity
  8
Layer_1
 62
7
100
AcDbSpline
 70
8
 71
3
 72
8
 73
4
 74
0
 40
0
 40
0
 40
0
 40
0
 40
1
 40
1
 40
1
 40
1
 10
3.595979
 20
6.683143
 30
0.0
 10
4.666714
 20
6.683143
 30
0.0
 10
6.272818
 20
6.683143
 30
0.0
 10
8.414289
 20
6.683143
 30
0.0
  0
SPLINE
  5
104
100
AcDbEntity
  8
Layer_1
 62
7
100
AcDbSpline
 70
8
 71
3
 72
8
 73
4
 74
0
 40
0
 40
0
 40
0
 40
0
 40
1
 40
1
 40
1
 40
1
 10
8.414289
 20
6.683143
 30
0.0
 10
8.848371
 20
6.683143
 30
0.0
 10
9.224576
 20
6.531214
 30
0.0
 10
9.542903
 20
6.227357
 30
0.0
  0
SPLINE
  5
105
100
AcDbEntity
  8
Layer_1
 62
7
100
AcDbSpline
 70
8
 71
3
 72
8
 73
4
 74
0
 40
0
 40
0
 40
0
 40
0
 40
1
 40
1
 40
1
 40
1
 10
9.542903
 20
6.227357
 30
0.0
 10
9.846760
 20
5.909030
 30
0.0
 10
9.998689
 20
5.532825
 30
0.0
 10
9.998689
 20
5.098743
 30
0.0
  0
SPLINE
  5
106
100
AcDbEntity
  8
Layer_1
 62
7
100
AcDbSpline
 70
8
 71
3
 72
8
 73
4
 74
0
 40
0
 40
0
 40
0
 40
0
 40
1
 40
1
 40
1
 40
1
 10
9.998689
 20
5.098743
 30
0.0
 10
9.998689
 20
3.666273
 30
0.0
 10
9.998689
 20
1.532036
 30
0.0
 10
9.998689
 20
-1.303967
 30
0.0
  0
SPLINE
  5
107
100
AcDbEntity
  8
Layer_1
 62
7
100
AcDbSpline
 70
8
 71
3
 72
8
 73
4
 74
0
 40
0
 40
0
 40
0
 40
0
 40
1
 40
1
 40
1
 40
1
 10
9.998689
 20
-1.303967
 30
0.0
 10
9.998689
 20
-1.752518
 30
0.0
 10
9.846760
 20
-2.128723
 30
0.0
 10
9.542903
 20
-2.432580
 30
0.0
  0
SPLINE
  5
108
100
AcDbEntity
  8
Layer_1
 62
7
100
AcDbSpline
 70
8
 71
3
 72
8
 73
4
 74
0
 40
0
 40
0
 40
0
 40
0
 40
1
 40
1
 40
1
 40
1
 10
9.542903
 20
-2.432580
 30
0.0
 10
9.224576
 20
-2.750907
 30
0.0
 10
8.848371
 20
-2.910070
 30
0.0
 10
8.414289
 20
-2.910070
 30
0.0
  0
SPLINE
  5
109
100
AcDbEntity
  8
Layer_1
 62
7
100
AcDbSpline
 70
8
 71
3
 72
8
 73
4
 74
0
 40
0
 40
0
 40
0
 40
0
 40
1
 40
1
 40
1
 40
1
 10
8.414289
 20
-2.910070
 30
0.0
 10
6.981818
 20
-2.910070
 30
0.0
 10
4.847582
 20
-2.910070
 30
0.0
 10
2.011579
 20
-2.910070
 30
0.0
  0
SPLINE
  5
10a
100
AcDbEntity
  8
Layer_1
 62
7
100
AcDbSpline
 70
8
 71
3
 72
8
 73
4
 74
0
 40
0
 40
0
 40
0
 40
0
 40
1
 40
1
 40
1
 40
1
 10
2.011579
 20
-2.910070
 30
0.0
 10
1.563028
 20
-2.910070
 30
0.0
 10
1.186823
 20
-2.750907
 30
0.0
 10
0.882966
 20
-2.432580
 30
0.0
  0
SPLINE
  5
10b
100
AcDbEntity
  8
Layer_1
 62
7
100
AcDbSpline
 70
8
 71
3
 72
8
 73
4
 74
0
 40
0
 40
0
 40
0
 40
0
 40
1
 40
1
 40
1
 40
1
 10
0.882966
 20
-2.432580
 30
0.0
 10
0.564639
 20
-2.128723
 30
0.0
 10
0.405475
 20
-1.752518
 30
0.0
 10
0.405475
 20
-1.303967
 30
0.0
  0
SPLINE
  5
10c
100
AcDbEntity
  8
Layer_1
 62
7
100
AcDbSpline
 70
8
 71
3
 72
8
 73
4
 74
0
 40
0
 40
0
 40
0
 40
0
 40
1
 40
1
 40
1
 40
1
 10
0.405475
 20
-1.303967
 30
0.0
 10
0.405475
 20
-0.594966
 30
0.0
 10
0.405475
 20
0.468535
 30
0.0
 10
0.405475
 20
1.886536
 30
0.0
  0
SPLINE
  5
10d
100
AcDbEntity
  8
Layer_1
 62
7
100
AcDbSpline
 70
8
 71
3
 72
8
 73
4
 74
0
 40
0
 40
0
 40
0
 40
0
 40
1
 40
1
 40
1
 40
1
 10
0.405475
 20
1.886536
 30
0.0
 10
1.114476
 20
1.886536
 30
0.0
 10
2.177977
 20
1.886536
 30
0.0
 10
3.595979
 20
1.886536
 30
0.0
  0
SPLINE
  5
10e
100
AcDbEntity
  8
Layer_1
 62
7
100
AcDbSpline
 70
8
 71
3
 72
8
 73
4
 74
0
 40
0
 40
0
 40
0
 40
0
 40
1
 40
1
 40
1
 40
1
 10
3.595979
 20
1.886536
 30
0.0
 10
3.595979
 20
1.539271
 30
0.0
 10
3.595979
 20
1.003903
 30
0.0
 10
3.595979
 20
0.280432
 30
0.0
  0
SPLINE
  5
10f
100
AcDbEntity
  8
Layer_1
 62
7
100
AcDbSpline
 70
8
 71
3
 72
8
 73
4
 74
0
 40
0
 40
0
 40
0
 40
0
 40
1
 40
1
 40
1
 40
1
 10
3.595979
 20
0.280432
 30
0.0
 10
4.319449
 20
0.280432
 30
0.0
 10
5.390184
 20
0.280432
 30
0.0
 10
6.808186
 20
0.280432
 30
0.0
  0
SPLINE
  5
110
100
AcDbEntity
  8
Layer_1
 62
7
100
AcDbSpline
 70
8
 71
3
 72
8
 73
4
 74
0
 40
0
 40
0
 40
0
 40
0
 40
1
 40
1
 40
1
 40
1
 10
6.808186
 20
0.280432
 30
0.0
 10
6.808186
 20
1.003903
 30
0.0
 10
6.808186
 20
2.074638
 30
0.0
 10
6.808186
 20
3.492640
 30
0.0
  0
SPLINE
  5
111
100
AcDbEntity
  8
Layer_1
 62
7
100
AcDbSpline
 70
8
 71
3
 72
8
 73
4
 74
0
 40
0
 40
0
 40
0
 40
0
 40
1
 40
1
 40
1
 40
1
 10
6.808186
 20
3.492640
 30
0.0
 10
5.737450
 20
3.492640
 30
0.0
 10
4.138581
 20
3.492640
 30
0.0
 10
2.011579
 20
3.492640
 30
0.0
  0
SPLINE
  5
112
100
AcDbEntity
  8
Layer_1
 62
7
100
AcDbSpline
 70
8
 71
3
 72
8
 73
4
 74
0
 40
0
 40
0
 40
0
 40
0
 40
1
 40
1
 40
1
 40
1
 10
2.011579
 20
3.492640
 30
0.0
 10
1.563028
 20
3.492640
 30
0.0
 10
1.186823
 20
3.644568
 30
0.0
 10
0.882966
 20
3.948426
 30
0.0
  0
SPLINE
  5
113
100
AcDbEntity
  8
Layer_1
 62
7
100
AcDbSpline
 70
8
 71
3
 72
8
 73
4
 74
0
 40
0
 40
0
 40
0
 40
0
 40
1
 40
1
 40
1
 40
1
 10
0.882966
 20
3.948426
 30
0.0
 10
0.564639
 20
4.266753
 30
0.0
 10
0.405475
 20
4.650192
 30
0.0
 10
0.405475
 20
5.098743
 30
0.0
  0
SPLINE
  5
114
100
AcDbEntity
  8
Layer_1
 62
7
100
AcDbSpline
 70
8
 71
3
 72
8
 73
4
 74
0
 40
0
 40
0
 40
0
 40
0
 40
1
 40
1
 40
1
 40
1
 10
0.405475
 20
5.098743
 30
0.0
 10
0.405475
 20
5.807744
 30
0.0
 10
0.405475
 20
6.697612
 30
0.0
 10
0.405475
 20
7.768348
 30
0.0
  0
SPLINE
  5
115
100
AcDbEntity
  8
Layer_1
 62
7
100
AcDbSpline
 70
8
 71
3
 72
8
 73
4
 74
0
 40
0
 40
0
 40
0
 40
0
 40
1
 40
1
 40
1
 40
1
 10
0.405475
 20
7.768348
 30
0.0
 10
0.405475
 20
8.839084
 30
0.0
 10
0.405475
 20
10.083452
 30
0.0
 10
0.405475
 20
11.501454
 30
0.0
  0
SPLINE
  5
116
100
AcDbEntity
  8
Layer_1
 62
7
100
AcDbSpline
 70
8
 71
3
 72
8
 73
4
 74
0
 40
0
 40
0
 40
0
 40
0
 40
1
 40
1
 40
1
 40
1
 10
0.405475
 20
11.501454
 30
0.0
 10
0.405475
 20
11.935536
 30
0.0
 10
0.564639
 20
12.311740
 30
0.0
 10
0.882966
 20
12.630067
 30
0.0
  0
SPLINE
  5
117
100
AcDbEntity
  8
Layer_1
 62
7
100
AcDbSpline
 70
8
 71
3
 72
8
 73
4
 74
0
 40
0
 40
0
 40
0
 40
0
 40
1
 40
1
 40
1
 40
1
 10
0.882966
 20
12.630067
 30
0.0
 10
1.186823
 20
12.933924
 30
0.0
 10
1.563028
 20
13.085853
 30
0.0
 10
2.011579
 20
13.085853
 30
0.0
  0
SPLINE
  5
118
100
AcDbEntity
  8
Layer_1
 62
7
100
AcDbSpline
 70
8
 71
3
 72
8
 73
4
 74
0
 40
0
 40
0
 40
0
 40
0
 40
1
 40
1
 40
1
 40
1
 10
2.011579
 20
13.085853
 30
0.0
 10
3.429580
 20
13.085853
 30
0.0
 10
5.563817
 20
13.085853
 30
0.0
 10
8.414289
 20
13.085853
 30
0.0
  0
SPLINE
  5
119
100
AcDbEntity
  8
Layer_1
 62
7
100
AcDbSpline
 70
8
 71
3
 72
8
 73
4
 74
0
 40
0
 40
0
 40
0
 40
0
 40
1
 40
1
 40
1
 40
1
 10
8.414289
 20
13.085853
 30
0.0
 10
8.848371
 20
13.085853
 30
0.0
 10
9.224576
 20
12.933924
 30
0.0
 10
9.542902
 20
12.630067
 30
0.0
  0
SPLINE
  5
11a
100
AcDbEntity
  8
Layer_1
 62
7
100
AcDbSpline
 70
8
 71
3
 72
8
 73
4
 74
0
 40
0
 40
0
 40
0
 40
0
 40
1
 40
1
 40
1
 40
1
 10
9.542902
 20
12.630067
 30
0.0
 10
9.846760
 20
12.311740
 30
0.0
 10
9.998689
 20
11.935536
 30
0.0
 10
9.998689
 20
11.501454
 30
0.0
  0
SPLINE
  5
11b
100
AcDbEntity
  8
Layer_1
 62
7
100
AcDbSpline
 70
8
 71
3
 72
8
 73
4
 74
0
 40
0
 40
0
 40
0
 40
0
 40
1
 40
1
 40
1
 40
1
 10
9.998689
 20
11.501454
 30
0.0
 10
9.998689
 20
10.777984
 30
0.0
 10
9.998689
 20
9.707248
 30
0.0
 10
9.998689
 20
8.289246
 30
0.0
  0
SPLINE
  5
11c
100
AcDbEntity
  8
Layer_1
 62
7
100
AcDbSpline
 70
8
 71
3
 72
8
 73
4
 74
0
 40
0
 40
0
 40
0
 40
0
 40
1
 40
1
 40
1
 40
1
 10
9.998689
 20
8.289246
 30
0.0
 10
9.289688
 20
8.289246
 30
0.0
 10
8.226187
 20
8.289246
 30
0.0
 10
6.808186
 20
8.289246
 30
0.0
  0
SPLINE
  5
11d
100
AcDbEntity
  8
Layer_1
 62
7
100
AcDbSpline
 70
8
 71
3
 72
8
 73
4
 74
0
 40
0
 40
0
 40
0
 40
0
 40
1
 40
1
 40
1
 40
1
 10
20.245473
 20
-2.971164
 30
0.0
 10
19.536472
 20
-2.971164
 30
0.0
 10
18.472971
 20
-2.971164
 30
0.0
 10
17.054970
 20
-2.971164
 30
0.0
  0
SPLINE
  5
11e
100
AcDbEntity
  8
Layer_1
 62
7
100
AcDbSpline
 70
8
 71
3
 72
8
 73
4
 74
0
 40
0
 40
0
 40
0
 40
0
 40
1
 40
1
 40
1
 40
1
 10
17.054970
 20
-2.971164
 30
0.0
 10
17.054970
 20
-1.553163
 30
0.0
 10
17.054970
 20
0.581074
 30
0.0
 10
17.054970
 20
3.431546
 30
0.0
  0
SPLINE
  5
11f
100
AcDbEntity
  8
Layer_1
 62
7
100
AcDbSpline
 70
8
 71
3
 72
8
 73
4
 74
0
 40
0
 40
0
 40
0
 40
0
 40
1
 40
1
 40
1
 40
1
 10
17.054970
 20
3.431546
 30
0.0
 10
16.345969
 20
3.431546
 30
0.0
 10
15.275234
 20
3.431546
 30
0.0
 10
13.842763
 20
3.431546
 30
0.0
  0
SPLINE
  5
120
100
AcDbEntity
  8
Layer_1
 62
7
100
AcDbSpline
 70
8
 71
3
 72
8
 73
4
 74
0
 40
0
 40
0
 40
0
 40
0
 40
1
 40
1
 40
1
 40
1
 10
13.842763
 20
3.431546
 30
0.0
 10
13.842763
 20
2.013545
 30
0.0
 10
13.842763
 20
-0.120692
 30
0.0
 10
13.842763
 20
-2.971164
 30
0.0
  0
SPLINE
  5
121
100
AcDbEntity
  8
Layer_1
 62
7
100
AcDbSpline
 70
8
 71
3
 72
8
 73
4
 74
0
 40
0
 40
0
 40
0
 40
0
 40
1
 40
1
 40
1
 40
1
 10
13.842763
 20
-2.971164
 30
0.0
 10
13.133762
 20
-2.971164
 30
0.0
 10
12.070261
 20
-2.971164
 30
0.0
 10
10.652260
 20
-2.971164
 30
0.0
  0
SPLINE
  5
122
100
AcDbEntity
  8
Layer_1
 62
7
100
AcDbSpline
 70
8
 71
3
 72
8
 73
4
 74
0
 40
0
 40
0
 40
0
 40
0
 40
1
 40
1
 40
1
 40
1
 10
10.652260
 20
-2.971164
 30
0.0
 10
10.652260
 20
-1.770204
 30
0.0
 10
10.652260
 20
0.038471
 30
0.0
 10
10.652260
 20
2.454861
 30
0.0
  0
SPLINE
  5
123
100
AcDbEntity
  8
Layer_1
 62
7
100
AcDbSpline
 70
8
 71
3
 72
8
 73
4
 74
0
 40
0
 40
0
 40
0
 40
0
 40
1
 40
1
 40
1
 40
1
 10
10.652260
 20
2.454861
 30
0.0
 10
10.652260
 20
3.453250
 30
0.0
 10
10.652260
 20
4.697619
 30
0.0
 10
10.652260
 20
6.187967
 30
0.0
  0
SPLINE
  5
124
100
AcDbEntity
  8
Layer_1
 62
7
100
AcDbSpline
 70
8
 71
3
 72
8
 73
4
 74
0
 40
0
 40
0
 40
0
 40
0
 40
1
 40
1
 40
1
 40
1
 10
10.652260
 20
6.187967
 30
0.0
 10
10.652260
 20
7.692785
 30
0.0
 10
10.652260
 20
9.443582
 30
0.0
 10
10.652260
 20
11.440360
 30
0.0
  0
SPLINE
  5
125
100
AcDbEntity
  8
Layer_1
 62
7
100
AcDbSpline
 70
8
 71
3
 72
8
 73
4
 74
0
 40
0
 40
0
 40
0
 40
0
 40
1
 40
1
 40
1
 40
1
 10
10.652260
 20
11.440360
 30
0.0
 10
10.652260
 20
11.874442
 30
0.0
 10
10.811423
 20
12.250646
 30
0.0
 10
11.129750
 20
12.568973
 30
0.0
  0
SPLINE
  5
126
100
AcDbEntity
  8
Layer_1
 62
7
100
AcDbSpline
 70
8
 71
3
 72
8
 73
4
 74
0
 40
0
 40
0
 40
0
 40
0
 40
1
 40
1
 40
1
 40
1
 10
11.129750
 20
12.568973
 30
0.0
 10
11.433608
 20
12.872831
 30
0.0
 10
11.809812
 20
13.024759
 30
0.0
 10
12.258363
 20
13.024759
 30
0.0
  0
SPLINE
  5
127
100
AcDbEntity
  8
Layer_1
 62
7
100
AcDbSpline
 70
8
 71
3
 72
8
 73
4
 74
0
 40
0
 40
0
 40
0
 40
0
 40
1
 40
1
 40
1
 40
1
 10
12.258363
 20
13.024759
 30
0.0
 10
13.676365
 20
13.024759
 30
0.0
 10
15.810602
 20
13.024759
 30
0.0
 10
18.661074
 20
13.024759
 30
0.0
  0
SPLINE
  5
128
100
AcDbEntity
  8
Layer_1
 62
7
100
AcDbSpline
 70
8
 71
3
 72
8
 73
4
 74
0
 40
0
 40
0
 40
0
 40
0
 40
1
 40
1
 40
1
 40
1
 10
18.661074
 20
13.024759
 30
0.0
 10
19.095156
 20
13.024759
 30
0.0
 10
19.471360
 20
12.872831
 30
0.0
 10
19.789687
 20
12.568973
 30
0.0
  0
SPLINE
  5
129
100
AcDbEntity
  8
Layer_1
 62
7
100
AcDbSpline
 70
8
 71
3
 72
8
 73
4
 74
0
 40
0
 40
0
 40
0
 40
0
 40
1
 40
1
 40
1
 40
1
 10
19.789687
 20
12.568973
 30
0.0
 10
20.093544
 20
12.250646
 30
0.0
 10
20.245473
 20
11.874442
 30
0.0
 10
20.245473
 20
11.440360
 30
0.0
  0
SPLINE
  5
12a
100
AcDbEntity
  8
Layer_1
 62
7
100
AcDbSpline
 70
8
 71
3
 72
8
 73
4
 74
0
 40
0
 40
0
 40
0
 40
0
 40
1
 40
1
 40
1
 40
1
 10
20.245473
 20
11.440360
 30
0.0
 10
20.245473
 20
8.228153
 30
0.0
 10
20.245473
 20
3.424311
 30
0.0
 10
20.245473
 20
-2.971164
 30
0.0
  0
LWPOLYLINE
  5
12b
100
AcDbEntity
  8
Layer_1
 62
7
100
AcDbPolyline
 90
1
 70
1
 10
6.808186
 20
8.289246
 30
0.0
  0
SPLINE
  5
12c
100
AcDbEntity
  8
Layer_1
 62
7
100
AcDbSpline
 70
8
 71
3
 72
8
 73
4
 74
0
 40
0
 40
0
 40
0
 40
0
 40
1
 40
1
 40
1
 40
1
 10
17.054970
 20
6.622049
 30
0.0
 10
17.054970
 20
6.752274
 30
0.0
 10
17.054970
 20
6.940376
 30
0.0
 10
17.054970
 20
7.186356
 30
0.0
  0
SPLINE
  5
12d
100
AcDbEntity
  8
Layer_1
 62
7
100
AcDbSpline
 70
8
 71
3
 72
8
 73
4
 74
0
 40
0
 40
0
 40
0
 40
0
 40
1
 40
1
 40
1
 40
1
 10
17.054970
 20
7.186356
 30
0.0
 10
17.054970
 20
7.779601
 30
0.0
 10
17.054970
 20
8.662235
 30
0.0
 10
17.054970
 20
9.834256
 30
0.0
  0
SPLINE
  5
12e
100
AcDbEntity
  8
Layer_1
 62
7
100
AcDbSpline
 70
8
 71
3
 72
8
 73
4
 74
0
 40
0
 40
0
 40
0
 40
0
 40
1
 40
1
 40
1
 40
1
 10
17.054970
 20
9.834256
 30
0.0
 10
16.345969
 20
9.834256
 30
0.0
 10
15.275234
 20
9.834256
 30
0.0
 10
13.842763
 20
9.834256
 30
0.0
  0
SPLINE
  5
12f
100
AcDbEntity
  8
Layer_1
 62
7
100
AcDbSpline
 70
8
 71
3
 72
8
 73
4
 74
0
 40
0
 40
0
 40
0
 40
0
 40
1
 40
1
 40
1
 40
1
 10
13.842763
 20
9.834256
 30
0.0
 10
13.842763
 20
9.125256
 30
0.0
 10
13.842763
 20
8.054520
 30
0.0
 10
13.842763
 20
6.622049
 30
0.0
  0
SPLINE
  5
130
100
AcDbEntity
  8
Layer_1
 62
7
100
AcDbSpline
 70
8
 71
3
 72
8
 73
4
 74
0
 40
0
 40
0
 40
0
 40
0
 40
1
 40
1
 40
1
 40
1
 10
13.842763
 20
6.622049
 30
0.0
 10
14.566233
 20
6.622049
 30
0.0
 10
15.636969
 20
6.622049
 30
0.0
 10
17.054970
 20
6.622049
 30
0.0
  0
LWPOLYLINE
  5
131
100
AcDbEntity
  8
Layer_1
 62
7
100
AcDbPolyline
 90
1
 70
1
 10
20.245473
 20
-2.971164
 30
0.0
  0
SPLINE
  5
132
100
AcDbEntity
  8
Layer_1
 62
7
100
AcDbSpline
 70
8
 71
3
 72
8
 73
4
 74
0
 40
0
 40
0
 40
0
 40
0
 40
1
 40
1
 40
1
 40
1
 10
29.114710
 20
4.929561
 30
0.0
 10
29.548792
 20
4.929561
 30
0.0
 10
29.924997
 20
4.770398
 30
0.0
 10
30.243323
 20
4.452071
 30
0.0
  0
SPLINE
  5
133
100
AcDbEntity
  8
Layer_1
 62
7
100
AcDbSpline
 70
8
 71
3
 72
8
 73
4
 74
0
 40
0
 40
0
 40
0
 40
0
 40
1
 40
1
 40
1
 40
1
 10
30.243323
 20
4.452071
 30
0.0
 10
30.547180
 20
4.148214
 30
0.0
 10
30.699108
 20
3.772009
 30
0.0
 10
30.699108
 20
3.323458
 30
0.0
  0
SPLINE
  5
134
100
AcDbEntity
  8
Layer_1
 62
7
100
AcDbSpline
 70
8
 71
3
 72
8
 73
4
 74
0
 40
0
 40
0
 40
0
 40
0
 40
1
 40
1
 40
1
 40
1
 10
30.699108
 20
3.323458
 30
0.0
 10
30.699108
 20
1.905457
 30
0.0
 10
30.699108
 20
-0.228780
 30
0.0
 10
30.699108
 20
-3.079252
 30
0.0
  0
SPLINE
  5
135
100
AcDbEntity
  8
Layer_1
 62
7
100
AcDbSpline
 70
8
 71
3
 72
8
 73
4
 74
0
 40
0
 40
0
 40
0
 40
0
 40
1
 40
1
 40
1
 40
1
 10
30.699108
 20
-3.079252
 30
0.0
 10
29.990108
 20
-3.079252
 30
0.0
 10
28.926608
 20
-3.079252
 30
0.0
 10
27.508606
 20
-3.079252
 30
0.0
  0
SPLINE
  5
136
100
AcDbEntity
  8
Layer_1
 62
7
100
AcDbSpline
 70
8
 71
3
 72
8
 73
4
 74
0
 40
0
 40
0
 40
0
 40
0
 40
1
 40
1
 40
1
 40
1
 10
27.508606
 20
-3.079252
 30
0.0
 10
27.508606
 20
-1.661251
 30
0.0
 10
27.508606
 20
0.472986
 30
0.0
 10
27.508606
 20
3.323458
 30
0.0
  0
SPLINE
  5
137
100
AcDbEntity
  8
Layer_1
 62
7
100
AcDbSpline
 70
8
 71
3
 72
8
 73
4
 74
0
 40
0
 40
0
 40
0
 40
0
 40
1
 40
1
 40
1
 40
1
 10
27.508606
 20
3.323458
 30
0.0
 10
26.799606
 20
3.323458
 30
0.0
 10
25.728871
 20
3.323458
 30
0.0
 10
24.296400
 20
3.323458
 30
0.0
  0
SPLINE
  5
138
100
AcDbEntity
  8
Layer_1
 62
7
100
AcDbSpline
 70
8
 71
3
 72
8
 73
4
 74
0
 40
0
 40
0
 40
0
 40
0
 40
1
 40
1
 40
1
 40
1
 10
24.296400
 20
3.323458
 30
0.0
 10
24.296400
 20
1.905457
 30
0.0
 10
24.296400
 20
-0.228780
 30
0.0
 10
24.296400
 20
-3.079252
 30
0.0
  0
SPLINE
  5
139
100
AcDbEntity
  8
Layer_1
 62
7
100
AcDbSpline
 70
8
 71
3
 72
8
 73
4
 74
0
 40
0
 40
0
 40
0
 40
0
 40
1
 40
1
 40
1
 40
1
 10
24.296400
 20
-3.079252
 30
0.0
 10
23.587399
 20
-3.079252
 30
0.0
 10
22.523897
 20
-3.079252
 30
0.0
 10
21.105896
 20
-3.079252
 30
0.0
  0
SPLINE
  5
13a
100
AcDbEntity
  8
Layer_1
 62
7
100
AcDbSpline
 70
8
 71
3
 72
8
 73
4
 74
0
 40
0
 40
0
 40
0
 40
0
 40
1
 40
1
 40
1
 40
1
 10
21.105896
 20
-3.079252
 30
0.0
 10
21.105896
 20
-1.661251
 30
0.0
 10
21.105896
 20
0.472986
 30
0.0
 10
21.105896
 20
3.323458
 30
0.0
  0
SPLINE
  5
13b
100
AcDbEntity
  8
Layer_1
 62
7
100
AcDbSpline
 70
8
 71
3
 72
8
 73
4
 74
0
 40
0
 40
0
 40
0
 40
0
 40
1
 40
1
 40
1
 40
1
 10
21.105896
 20
3.323458
 30
0.0
 10
21.105896
 20
4.032459
 30
0.0
 10
21.105896
 20
5.095960
 30
0.0
 10
21.105896
 20
6.513961
 30
0.0
  0
SPLINE
  5
13c
100
AcDbEntity
  8
Layer_1
 62
7
100
AcDbSpline
 70
8
 71
3
 72
8
 73
4
 74
0
 40
0
 40
0
 40
0
 40
0
 40
1
 40
1
 40
1
 40
1
 10
21.105896
 20
6.513961
 30
0.0
 10
21.105896
 20
7.222962
 30
0.0
 10
21.105896
 20
8.112830
 30
0.0
 10
21.105896
 20
9.183566
 30
0.0
  0
SPLINE
  5
13d
100
AcDbEntity
  8
Layer_1
 62
7
100
AcDbSpline
 70
8
 71
3
 72
8
 73
4
 74
0
 40
0
 40
0
 40
0
 40
0
 40
1
 40
1
 40
1
 40
1
 10
21.105896
 20
9.183566
 30
0.0
 10
21.105896
 20
10.254301
 30
0.0
 10
21.105896
 20
11.498670
 30
0.0
 10
21.105896
 20
12.916671
 30
0.0
  0
SPLINE
  5
13e
100
AcDbEntity
  8
Layer_1
 62
7
100
AcDbSpline
 70
8
 71
3
 72
8
 73
4
 74
0
 40
0
 40
0
 40
0
 40
0
 40
1
 40
1
 40
1
 40
1
 10
21.105896
 20
12.916671
 30
0.0
 10
21.814897
 20
12.916671
 30
0.0
 10
22.878399
 20
12.916671
 30
0.0
 10
24.296400
 20
12.916671
 30
0.0
  0
SPLINE
  5
13f
100
AcDbEntity
  8
Layer_1
 62
7
100
AcDbSpline
 70
8
 71
3
 72
8
 73
4
 74
0
 40
0
 40
0
 40
0
 40
0
 40
1
 40
1
 40
1
 40
1
 10
24.296400
 20
12.916671
 30
0.0
 10
25.367135
 20
12.916671
 30
0.0
 10
26.973238
 20
12.916671
 30
0.0
 10
29.114710
 20
12.916671
 30
0.0
  0
SPLINE
  5
140
100
AcDbEntity
  8
Layer_1
 62
7
100
AcDbSpline
 70
8
 71
3
 72
8
 73
4
 74
0
 40
0
 40
0
 40
0
 40
0
 40
1
 40
1
 40
1
 40
1
 10
29.114710
 20
12.916671
 30
0.0
 10
29.548792
 20
12.916671
 30
0.0
 10
29.924997
 20
12.764743
 30
0.0
 10
30.243323
 20
12.460885
 30
0.0
  0
SPLINE
  5
141
100
AcDbEntity
  8
Layer_1
 62
7
100
AcDbSpline
 70
8
 71
3
 72
8
 73
4
 74
0
 40
0
 40
0
 40
0
 40
0
 40
1
 40
1
 40
1
 40
1
 10
30.243323
 20
12.460885
 30
0.0
 10
30.547180
 20
12.142558
 30
0.0
 10
30.699108
 20
11.766354
 30
0.0
 10
30.699108
 20
11.332272
 30
0.0
  0
SPLINE
  5
142
100
AcDbEntity
  8
Layer_1
 62
7
100
AcDbSpline
 70
8
 71
3
 72
8
 73
4
 74
0
 40
0
 40
0
 40
0
 40
0
 40
1
 40
1
 40
1
 40
1
 10
30.699108
 20
11.332272
 30
0.0
 10
30.699108
 20
10.261536
 30
0.0
 10
30.699108
 20
8.655432
 30
0.0
 10
30.699108
 20
6.513961
 30
0.0
  0
SPLINE
  5
143
100
AcDbEntity
  8
Layer_1
 62
7
100
AcDbSpline
 70
8
 71
3
 72
8
 73
4
 74
0
 40
0
 40
0
 40
0
 40
0
 40
1
 40
1
 40
1
 40
1
 10
30.699108
 20
6.513961
 30
0.0
 10
30.699108
 20
6.079879
 30
0.0
 10
30.547180
 20
5.703675
 30
0.0
 10
30.243323
 20
5.385348
 30
0.0
  0
SPLINE
  5
144
100
AcDbEntity
  8
Layer_1
 62
7
100
AcDbSpline
 70
8
 71
3
 72
8
 73
4
 74
0
 40
0
 40
0
 40
0
 40
0
 40
1
 40
1
 40
1
 40
1
 10
30.243323
 20
5.385348
 30
0.0
 10
29.924997
 20
5.081490
 30
0.0
 10
29.548792
 20
4.929561
 30
0.0
 10
29.114710
 20
4.929561
 30
0.0
  0
LWPOLYLINE
  5
145
100
AcDbEntity
  8
Layer_1
 62
7
100
AcDbPolyline
 90
1
 70
1
 10
17.054970
 20
6.622049
 30
0.0
  0
SPLINE
  5
146
100
AcDbEntity
  8
Layer_1
 62
7
100
AcDbSpline
 70
8
 71
3
 72
8
 73
4
 74
0
 40
0
 40
0
 40
0
 40
0
 40
1
 40
1
 40
1
 40
1
 10
27.508606
 20
6.513961
 30
0.0
 10
27.508606
 20
6.644186
 30
0.0
 10
27.508606
 20
6.832288
 30
0.0
 10
27.508606
 20
7.078268
 30
0.0
  0
SPLINE
  5
147
100
AcDbEntity
  8
Layer_1
 62
7
100
AcDbSpline
 70
8
 71
3
 72
8
 73
4
 74
0
 40
0
 40
0
 40
0
 40
0
 40
1
 40
1
 40
1
 40
1
 10
27.508606
 20
7.078268
 30
0.0
 10
27.508606
 20
7.671513
 30
0.0
 10
27.508606
 20
8.554147
 30
0.0
 10
27.508606
 20
9.726168
 30
0.0
  0
SPLINE
  5
148
100
AcDbEntity
  8
Layer_1
 62
7
100
AcDbSpline
 70
8
 71
3
 72
8
 73
4
 74
0
 40
0
 40
0
 40
0
 40
0
 40
1
 40
1
 40
1
 40
1
 10
27.508606
 20
9.726168
 30
0.0
 10
26.799606
 20
9.726168
 30
0.0
 10
25.728871
 20
9.726168
 30
0.0
 10
24.296400
 20
9.726168
 30
0.0
  0
SPLINE
  5
149
100
AcDbEntity
  8
Layer_1
 62
7
100
AcDbSpline
 70
8
 71
3
 72
8
 73
4
 74
0
 40
0
 40
0
 40
0
 40
0
 40
1
 40
1
 40
1
 40
1
 10
24.296400
 20
9.726168
 30
0.0
 10
24.296400
 20
9.017167
 30
0.0
 10
24.296400
 20
7.946432
 30
0.0
 10
24.296400
 20
6.513961
 30
0.0
  0
SPLINE
  5
14a
100
AcDbEntity
  8
Layer_1
 62
7
100
AcDbSpline
 70
8
 71
3
 72
8
 73
4
 74
0
 40
0
 40
0
 40
0
 40
0
 40
1
 40
1
 40
1
 40
1
 10
24.296400
 20
6.513961
 30
0.0
 10
25.019869
 20
6.513961
 30
0.0
 10
26.090605
 20
6.513961
 30
0.0
 10
27.508606
 20
6.513961
 30
0.0
  0
LWPOLYLINE
  5
14b
100
AcDbEntity
  8
Layer_1
 62
7
100
AcDbPolyline
 90
1
 70
1
 10
29.114710
 20
4.929561
 30
0.0
  0
SPLINE
  5
14c
100
AcDbEntity
  8
Layer_1
 62
7
100
AcDbSpline
 70
8
 71
3
 72
8
 73
4
 74
0
 40
0
 40
0
 40
0
 40
0
 40
1
 40
1
 40
1
 40
1
 10
27.823515
 20
10.006994
 30
0.0
 10
27.823515
 20
9.972202
 30
0.0
 10
27.795310
 20
9.943998
 30
0.0
 10
27.760519
 20
9.943998
 30
0.0
  0
SPLINE
  5
14d
100
AcDbEntity
  8
Layer_1
 62
7
100
AcDbSpline
 70
8
 71
3
 72
8
 73
4
 74
0
 40
0
 40
0
 40
0
 40
0
 40
1
 40
1
 40
1
 40
1
 10
27.760519
 20
9.943998
 30
0.0
 10
27.725727
 20
9.943998
 30
0.0
 10
27.697523
 20
9.972202
 30
0.0
 10
27.697523
 20
10.006994
 30
0.0
  0
SPLINE
  5
14e
100
AcDbEntity
  8
Layer_1
 62
7
100
AcDbSpline
 70
8
 71
3
 72
8
 73
4
 74
0
 40
0
 40
0
 40
0
 40
0
 40
1
 40
1
 40
1
 40
1
 10
27.697523
 20
10.006994
 30
0.0
 10
27.697523
 20
10.041786
 30
0.0
 10
27.725727
 20
10.069990
 30
0.0
 10
27.760519
 20
10.069990
 30
0.0
  0
SPLINE
  5
14f
100
AcDbEntity
  8
Layer_1
 62
7
100
AcDbSpline
 70
8
 71
3
 72
8
 73
4
 74
0
 40
0
 40
0
 40
0
 40
0
 40
1
 40
1
 40
1
 40
1
 10
27.760519
 20
10.069990
 30
0.0
 10
27.795310
 20
10.069990
 30
0.0
 10
27.823515
 20
10.041786
 30
0.0
 10
27.823515
 20
10.006994
 30
0.0
  0
SPLINE
  5
150
100
AcDbEntity
  8
Layer_1
 62
7
100
AcDbSpline
 70
8
 71
3
 72
8
 73
4
 74
0
 40
0
 40
0
 40
0
 40
0
 40
1
 40
1
 40
1
 40
1
 10
24.087004
 20
9.998006
 30
0.0
 10
24.087004
 20
9.981298
 30
0.0
 10
24.080367
 20
9.965274
 30
0.0
 10
24.068552
 20
9.953460
 30
0.0
  0
SPLINE
  5
151
100
AcDbEntity
  8
Layer_1
 62
7
100
AcDbSpline
 70
8
 71
3
 72
8
 73
4
 74
0
 40
0
 40
0
 40
0
 40
0
 40
1
 40
1
 40
1
 40
1
 10
24.068552
 20
9.953460
 30
0.0
 10
24.056738
 20
9.941646
 30
0.0
 10
24.040714
 20
9.935009
 30
0.0
 10
24.024006
 20
9.935010
 30
0.0
  0
SPLINE
  5
152
100
AcDbEntity
  8
Layer_1
 62
7
100
AcDbSpline
 70
8
 71
3
 72
8
 73
4
 74
0
 40
0
 40
0
 40
0
 40
0
 40
1
 40
1
 40
1
 40
1
 10
24.024006
 20
9.935010
 30
0.0
 10
23.989215
 20
9.935010
 30
0.0
 10
23.961010
 20
9.963214
 30
0.0
 10
23.961010
 20
9.998006
 30
0.0
  0
SPLINE
  5
153
100
AcDbEntity
  8
Layer_1
 62
7
100
AcDbSpline
 70
8
 71
3
 72
8
 73
4
 74
0
 40
0
 40
0
 40
0
 40
0
 40
1
 40
1
 40
1
 40
1
 10
23.961010
 20
9.998006
 30
0.0
 10
23.961010
 20
10.032798
 30
0.0
 10
23.989215
 20
10.061002
 30
0.0
 10
24.024006
 20
10.061002
 30
0.0
  0
SPLINE
  5
154
100
AcDbEntity
  8
Layer_1
 62
7
100
AcDbSpline
 70
8
 71
3
 72
8
 73
4
 74
0
 40
0
 40
0
 40
0
 40
0
 40
1
 40
1
 40
1
 40
1
 10
24.024006
 20
10.061002
 30
0.0
 10
24.040714
 20
10.061002
 30
0.0
 10
24.056738
 20
10.054366
 30
0.0
 10
24.068552
 20
10.042551
 30
0.0
  0
SPLINE
  5
155
100
AcDbEntity
  8
Layer_1
 62
7
100
AcDbSpline
 70
8
 71
3
 72
8
 73
4
 74
0
 40
0
 40
0
 40
0
 40
0
 40
1
 40
1
 40
1
 40
1
 10
24.068552
 20
10.042551
 30
0.0
 10
24.080367
 20
10.030737
 30
0.0
 10
24.087004
 20
10.014714
 30
0.0
 10
24.087004
 20
9.998006
 30
0.0
  0
SPLINE
  5
156
100
AcDbEntity
  8
Layer_1
 62
7
100
AcDbSpline
 70
8
 71
3
 72
8
 73
4
 74
0
 40
0
 40
0
 40
0
 40
0
 40
1
 40
1
 40
1
 40
1
 10
27.822779
 20
6.269485
 30
0.0
 10
27.822779
 20
6.234694
 30
0.0
 10
27.794575
 20
6.206489
 30
0.0
 10
27.759783
 20
6.206489
 30
0.0
  0
SPLINE
  5
157
100
AcDbEntity
  8
Layer_1
 62
7
100
AcDbSpline
 70
8
 71
3
 72
8
 73
4
 74
0
 40
0
 40
0
 40
0
 40
0
 40
1
 40
1
 40
1
 40
1
 10
27.759783
 20
6.206489
 30
0.0
 10
27.724992
 20
6.206489
 30
0.0
 10
27.696787
 20
6.234694
 30
0.0
 10
27.696788
 20
6.269485
 30
0.0
  0
SPLINE
  5
158
100
AcDbEntity
  8
Layer_1
 62
7
100
AcDbSpline
 70
8
 71
3
 72
8
 73
4
 74
0
 40
0
 40
0
 40
0
 40
0
 40
1
 40
1
 40
1
 40
1
 10
27.696788
 20
6.269485
 30
0.0
 10
27.696787
 20
6.304277
 30
0.0
 10
27.724992
 20
6.332481
 30
0.0
 10
27.759783
 20
6.332481
 30
0.0
  0
SPLINE
  5
159
100
AcDbEntity
  8
Layer_1
 62
7
100
AcDbSpline
 70
8
 71
3
 72
8
 73
4
 74
0
 40
0
 40
0
 40
0
 40
0
 40
1
 40
1
 40
1
 40
1
 10
27.759783
 20
6.332481
 30
0.0
 10
27.794575
 20
6.332481
 30
0.0
 10
27.822779
 20
6.304277
 30
0.0
 10
27.822779
 20
6.269485
 30
0.0
  0
SPLINE
  5
15a
100
AcDbEntity
  8
Layer_1
 62
7
100
AcDbSpline
 70
8
 71
3
 72
8
 73
4
 74
0
 40
0
 40
0
 40
0
 40
0
 40
1
 40
1
 40
1
 40
1
 10
24.086271
 20
6.260496
 30
0.0
 10
24.086271
 20
6.225704
 30
0.0
 10
24.058067
 20
6.197500
 30
0.0
 10
24.023275
 20
6.197500
 30
0.0
  0
SPLINE
  5
15b
100
AcDbEntity
  8
Layer_1
 62
7
100
AcDbSpline
 70
8
 71
3
 72
8
 73
4
 74
0
 40
0
 40
0
 40
0
 40
0
 40
1
 40
1
 40
1
 40
1
 10
24.023275
 20
6.197500
 30
0.0
 10
23.988483
 20
6.197500
 30
0.0
 10
23.960279
 20
6.225704
 30
0.0
 10
23.960279
 20
6.260496
 30
0.0
  0
SPLINE
  5
15c
100
AcDbEntity
  8
Layer_1
 62
7
100
AcDbSpline
 70
8
 71
3
 72
8
 73
4
 74
0
 40
0
 40
0
 40
0
 40
0
 40
1
 40
1
 40
1
 40
1
 10
23.960279
 20
6.260496
 30
0.0
 10
23.960279
 20
6.295288
 30
0.0
 10
23.988483
 20
6.323492
 30
0.0
 10
24.023275
 20
6.323492
 30
0.0
  0
SPLINE
  5
15d
100
AcDbEntity
  8
Layer_1
 62
7
100
AcDbSpline
 70
8
 71
3
 72
8
 73
4
 74
0
 40
0
 40
0
 40
0
 40
0
 40
1
 40
1
 40
1
 40
1
 10
24.023275
 20
6.323492
 30
0.0
 10
24.058067
 20
6.323492
 30
0.0
 10
24.086271
 20
6.295288
 30
0.0
 10
24.086271
 20
6.260496
 30
0.0
  0
SPLINE
  5
15e
100
AcDbEntity
  8
Layer_1
 62
7
100
AcDbSpline
 70
8
 71
3
 72
8
 73
4
 74
0
 40
0
 40
0
 40
0
 40
0
 40
1
 40
1
 40
1
 40
1
 10
0.758256
 20
11.562851
 30
0.0
 10
0.758256
 20
11.546144
 30
0.0
 10
0.751619
 20
11.530120
 30
0.0
 10
0.739805
 20
11.518306
 30
0.0
  0
SPLINE
  5
15f
100
AcDbEntity
  8
Layer_1
 62
7
100
AcDbSpline
 70
8
 71
3
 72
8
 73
4
 74
0
 40
0
 40
0
 40
0
 40
0
 40
1
 40
1
 40
1
 40
1
 10
0.739805
 20
11.518306
 30
0.0
 10
0.727991
 20
11.506492
 30
0.0
 10
0.711968
 20
11.499855
 30
0.0
 10
0.695260
 20
11.499855
 30
0.0
  0
SPLINE
  5
160
100
AcDbEntity
  8
Layer_1
 62
7
100
AcDbSpline
 70
8
 71
3
 72
8
 73
4
 74
0
 40
0
 40
0
 40
0
 40
0
 40
1
 40
1
 40
1
 40
1
 10
0.695260
 20
11.499855
 30
0.0
 10
0.678553
 20
11.499855
 30
0.0
 10
0.662529
 20
11.506492
 30
0.0
 10
0.650715
 20
11.518306
 30
0.0
  0
SPLINE
  5
161
100
AcDbEntity
  8
Layer_1
 62
7
100
AcDbSpline
 70
8
 71
3
 72
8
 73
4
 74
0
 40
0
 40
0
 40
0
 40
0
 40
1
 40
1
 40
1
 40
1
 10
0.650715
 20
11.518306
 30
0.0
 10
0.638901
 20
11.530120
 30
0.0
 10
0.632264
 20
11.546144
 30
0.0
 10
0.632264
 20
11.562851
 30
0.0
  0
SPLINE
  5
162
100
AcDbEntity
  8
Layer_1
 62
7
100
AcDbSpline
 70
8
 71
3
 72
8
 73
4
 74
0
 40
0
 40
0
 40
0
 40
0
 40
1
 40
1
 40
1
 40
1
 10
0.632264
 20
11.562851
 30
0.0
 10
0.632264
 20
11.579559
 30
0.0
 10
0.638901
 20
11.595582
 30
0.0
 10
0.650715
 20
11.607396
 30
0.0
  0
SPLINE
  5
163
100
AcDbEntity
  8
Layer_1
 62
7
100
AcDbSpline
 70
8
 71
3
 72
8
 73
4
 74
0
 40
0
 40
0
 40
0
 40
0
 40
1
 40
1
 40
1
 40
1
 10
0.650715
 20
11.607396
 30
0.0
 10
0.662529
 20
11.619210
 30
0.0
 10
0.678553
 20
11.625847
 30
0.0
 10
0.695260
 20
11.625847
 30
0.0
  0
SPLINE
  5
164
100
AcDbEntity
  8
Layer_1
 62
7
100
AcDbSpline
 70
8
 71
3
 72
8
 73
4
 74
0
 40
0
 40
0
 40
0
 40
0
 40
1
 40
1
 40
1
 40
1
 10
0.695260
 20
11.625847
 30
0.0
 10
0.730052
 20
11.625847
 30
0.0
 10
0.758256
 20
11.597643
 30
0.0
 10
0.758256
 20
11.562851
 30
0.0
  0
SPLINE
  5
165
100
AcDbEntity
  8
Layer_1
 62
7
100
AcDbSpline
 70
8
 71
3
 72
8
 73
4
 74
0
 40
0
 40
0
 40
0
 40
0
 40
1
 40
1
 40
1
 40
1
 10
1.974934
 20
12.817510
 30
0.0
 10
1.974934
 20
12.782718
 30
0.0
 10
1.946729
 20
12.754514
 30
0.0
 10
1.911938
 20
12.754514
 30
0.0
  0
SPLINE
  5
166
100
AcDbEntity
  8
Layer_1
 62
7
100
AcDbSpline
 70
8
 71
3
 72
8
 73
4
 74
0
 40
0
 40
0
 40
0
 40
0
 40
1
 40
1
 40
1
 40
1
 10
1.911938
 20
12.754514
 30
0.0
 10
1.895230
 20
12.754514
 30
0.0
 10
1.879207
 20
12.761151
 30
0.0
 10
1.867393
 20
12.772965
 30
0.0
  0
SPLINE
  5
167
100
AcDbEntity
  8
Layer_1
 62
7
100
AcDbSpline
 70
8
 71
3
 72
8
 73
4
 74
0
 40
0
 40
0
 40
0
 40
0
 40
1
 40
1
 40
1
 40
1
 10
1.867393
 20
12.772965
 30
0.0
 10
1.855579
 20
12.784779
 30
0.0
 10
1.848942
 20
12.800802
 30
0.0
 10
1.848942
 20
12.817510
 30
0.0
  0
SPLINE
  5
168
100
AcDbEntity
  8
Layer_1
 62
7
100
AcDbSpline
 70
8
 71
3
 72
8
 73
4
 74
0
 40
0
 40
0
 40
0
 40
0
 40
1
 40
1
 40
1
 40
1
 10
1.848942
 20
12.817510
 30
0.0
 10
1.848942
 20
12.834217
 30
0.0
 10
1.855579
 20
12.850241
 30
0.0
 10
1.867393
 20
12.862055
 30
0.0
  0
SPLINE
  5
169
100
AcDbEntity
  8
Layer_1
 62
7
100
AcDbSpline
 70
8
 71
3
 72
8
 73
4
 74
0
 40
0
 40
0
 40
0
 40
0
 40
1
 40
1
 40
1
 40
1
 10
1.867393
 20
12.862055
 30
0.0
 10
1.879207
 20
12.873869
 30
0.0
 10
1.895230
 20
12.880506
 30
0.0
 10
1.911938
 20
12.880506
 30
0.0
  0
SPLINE
  5
16a
100
AcDbEntity
  8
Layer_1
 62
7
100
AcDbSpline
 70
8
 71
3
 72
8
 73
4
 74
0
 40
0
 40
0
 40
0
 40
0
 40
1
 40
1
 40
1
 40
1
 10
1.911938
 20
12.880506
 30
0.0
 10
1.928645
 20
12.880506
 30
0.0
 10
1.944668
 20
12.873869
 30
0.0
 10
1.956482
 20
12.862055
 30
0.0
  0
SPLINE
  5
16b
100
AcDbEntity
  8
Layer_1
 62
7
100
AcDbSpline
 70
8
 71
3
 72
8
 73
4
 74
0
 40
0
 40
0
 40
0
 40
0
 40
1
 40
1
 40
1
 40
1
 10
1.956482
 20
12.862055
 30
0.0
 10
1.968297
 20
12.850241
 30
0.0
 10
1.974934
 20
12.834217
 30
0.0
 10
1.974934
 20
12.817510
 30
0.0
  0
SPLINE
  5
16c
100
AcDbEntity
  8
Layer_1
 62
7
100
AcDbSpline
 70
8
 71
3
 72
8
 73
4
 74
0
 40
0
 40
0
 40
0
 40
0
 40
1
 40
1
 40
1
 40
1
 10
9.674687
 20
11.519273
 30
0.0
 10
9.674687
 20
11.502565
 30
0.0
 10
9.681324
 20
11.486542
 30
0.0
 10
9.693138
 20
11.474728
 30
0.0
  0
SPLINE
  5
16d
100
AcDbEntity
  8
Layer_1
 62
7
100
AcDbSpline
 70
8
 71
3
 72
8
 73
4
 74
0
 40
0
 40
0
 40
0
 40
0
 40
1
 40
1
 40
1
 40
1
 10
9.693138
 20
11.474728
 30
0.0
 10
9.704952
 20
11.462914
 30
0.0
 10
9.720975
 20
11.456277
 30
0.0
 10
9.737683
 20
11.456277
 30
0.0
  0
SPLINE
  5
16e
100
AcDbEntity
  8
Layer_1
 62
7
100
AcDbSpline
 70
8
 71
3
 72
8
 73
4
 74
0
 40
0
 40
0
 40
0
 40
0
 40
1
 40
1
 40
1
 40
1
 10
9.737683
 20
11.456277
 30
0.0
 10
9.754391
 20
11.456277
 30
0.0
 10
9.770414
 20
11.462914
 30
0.0
 10
9.782228
 20
11.474728
 30
0.0
  0
SPLINE
  5
16f
100
AcDbEntity
  8
Layer_1
 62
7
100
AcDbSpline
 70
8
 71
3
 72
8
 73
4
 74
0
 40
0
 40
0
 40
0
 40
0
 40
1
 40
1
 40
1
 40
1
 10
9.782228
 20
11.474728
 30
0.0
 10
9.794042
 20
11.486542
 30
0.0
 10
9.800679
 20
11.502565
 30
0.0
 10
9.800679
 20
11.519273
 30
0.0
  0
SPLINE
  5
170
100
AcDbEntity
  8
Layer_1
 62
7
100
AcDbSpline
 70
8
 71
3
 72
8
 73
4
 74
0
 40
0
 40
0
 40
0
 40
0
 40
1
 40
1
 40
1
 40
1
 10
9.800679
 20
11.519273
 30
0.0
 10
9.800679
 20
11.535981
 30
0.0
 10
9.794042
 20
11.552004
 30
0.0
 10
9.782228
 20
11.563818
 30
0.0
  0
SPLINE
  5
171
100
AcDbEntity
  8
Layer_1
 62
7
100
AcDbSpline
 70
8
 71
3
 72
8
 73
4
 74
0
 40
0
 40
0
 40
0
 40
0
 40
1
 40
1
 40
1
 40
1
 10
9.782228
 20
11.563818
 30
0.0
 10
9.770414
 20
11.575632
 30
0.0
 10
9.754391
 20
11.582269
 30
0.0
 10
9.737683
 20
11.582269
 30
0.0
  0
SPLINE
  5
172
100
AcDbEntity
  8
Layer_1
 62
7
100
AcDbSpline
 70
8
 71
3
 72
8
 73
4
 74
0
 40
0
 40
0
 40
0
 40
0
 40
1
 40
1
 40
1
 40
1
 10
9.737683
 20
11.582269
 30
0.0
 10
9.720975
 20
11.582269
 30
0.0
 10
9.704952
 20
11.575632
 30
0.0
 10
9.693138
 20
11.563818
 30
0.0
  0
SPLINE
  5
173
100
AcDbEntity
  8
Layer_1
 62
7
100
AcDbSpline
 70
8
 71
3
 72
8
 73
4
 74
0
 40
0
 40
0
 40
0
 40
0
 40
1
 40
1
 40
1
 40
1
 10
9.693138
 20
11.563818
 30
0.0
 10
9.681324
 20
11.552004
 30
0.0
 10
9.674687
 20
11.535981
 30
0.0
 10
9.674687
 20
11.519273
 30
0.0
  0
SPLINE
  5
174
100
AcDbEntity
  8
Layer_1
 62
7
100
AcDbSpline
 70
8
 71
3
 72
8
 73
4
 74
0
 40
0
 40
0
 40
0
 40
0
 40
1
 40
1
 40
1
 40
1
 10
8.458010
 20
12.773931
 30
0.0
 10
8.458010
 20
12.757224
 30
0.0
 10
8.464647
 20
12.741201
 30
0.0
 10
8.476461
 20
12.729386
 30
0.0
  0
SPLINE
  5
175
100
AcDbEntity
  8
Layer_1
 62
7
100
AcDbSpline
 70
8
 71
3
 72
8
 73
4
 74
0
 40
0
 40
0
 40
0
 40
0
 40
1
 40
1
 40
1
 40
1
 10
8.476461
 20
12.729386
 30
0.0
 10
8.488275
 20
12.717572
 30
0.0
 10
8.504298
 20
12.710935
 30
0.0
 10
8.521006
 20
12.710935
 30
0.0
  0
SPLINE
  5
176
100
AcDbEntity
  8
Layer_1
 62
7
100
AcDbSpline
 70
8
 71
3
 72
8
 73
4
 74
0
 40
0
 40
0
 40
0
 40
0
 40
1
 40
1
 40
1
 40
1
 10
8.521006
 20
12.710935
 30
0.0
 10
8.537713
 20
12.710935
 30
0.0
 10
8.553736
 20
12.717572
 30
0.0
 10
8.565551
 20
12.729386
 30
0.0
  0
SPLINE
  5
177
100
AcDbEntity
  8
Layer_1
 62
7
100
AcDbSpline
 70
8
 71
3
 72
8
 73
4
 74
0
 40
0
 40
0
 40
0
 40
0
 40
1
 40
1
 40
1
 40
1
 10
8.565551
 20
12.729386
 30
0.0
 10
8.577365
 20
12.741201
 30
0.0
 10
8.584002
 20
12.757224
 30
0.0
 10
8.584002
 20
12.773931
 30
0.0
  0
SPLINE
  5
178
100
AcDbEntity
  8
Layer_1
 62
7
100
AcDbSpline
 70
8
 71
3
 72
8
 73
4
 74
0
 40
0
 40
0
 40
0
 40
0
 40
1
 40
1
 40
1
 40
1
 10
8.584002
 20
12.773931
 30
0.0
 10
8.584002
 20
12.790639
 30
0.0
 10
8.577365
 20
12.806662
 30
0.0
 10
8.565551
 20
12.818476
 30
0.0
  0
SPLINE
  5
179
100
AcDbEntity
  8
Layer_1
 62
7
100
AcDbSpline
 70
8
 71
3
 72
8
 73
4
 74
0
 40
0
 40
0
 40
0
 40
0
 40
1
 40
1
 40
1
 40
1
 10
8.565551
 20
12.818476
 30
0.0
 10
8.553737
 20
12.830290
 30
0.0
 10
8.537713
 20
12.836927
 30
0.0
 10
8.521006
 20
12.836927
 30
0.0
  0
SPLINE
  5
17a
100
AcDbEntity
  8
Layer_1
 62
7
100
AcDbSpline
 70
8
 71
3
 72
8
 73
4
 74
0
 40
0
 40
0
 40
0
 40
0
 40
1
 40
1
 40
1
 40
1
 10
8.521006
 20
12.836927
 30
0.0
 10
8.504298
 20
12.836927
 30
0.0
 10
8.488275
 20
12.830290
 30
0.0
 10
8.476461
 20
12.818476
 30
0.0
  0
SPLINE
  5
17b
100
AcDbEntity
  8
Layer_1
 62
7
100
AcDbSpline
 70
8
 71
3
 72
8
 73
4
 74
0
 40
0
 40
0
 40
0
 40
0
 40
1
 40
1
 40
1
 40
1
 10
8.476461
 20
12.818476
 30
0.0
 10
8.464647
 20
12.806662
 30
0.0
 10
8.458010
 20
12.790639
 30
0.0
 10
8.458010
 20
12.773931
 30
0.0
  0
SPLINE
  5
17c
100
AcDbEntity
  8
Layer_1
 62
7
100
AcDbSpline
 70
8
 71
3
 72
8
 73
4
 74
0
 40
0
 40
0
 40
0
 40
0
 40
1
 40
1
 40
1
 40
1
 10
8.595276
 20
-2.634080
 30
0.0
 10
8.595276
 20
-2.668871
 30
0.0
 10
8.567072
 20
-2.697076
 30
0.0
 10
8.532280
 20
-2.697076
 30
0.0
  0
SPLINE
  5
17d
100
AcDbEntity
  8
Layer_1
 62
7
100
AcDbSpline
 70
8
 71
3
 72
8
 73
4
 74
0
 40
0
 40
0
 40
0
 40
0
 40
1
 40
1
 40
1
 40
1
 10
8.532280
 20
-2.697076
 30
0.0
 10
8.497488
 20
-2.697076
 30
0.0
 10
8.469284
 20
-2.668871
 30
0.0
 10
8.469284
 20
-2.634080
 30
0.0
  0
SPLINE
  5
17e
100
AcDbEntity
  8
Layer_1
 62
7
100
AcDbSpline
 70
8
 71
3
 72
8
 73
4
 74
0
 40
0
 40
0
 40
0
 40
0
 40
1
 40
1
 40
1
 40
1
 10
8.469284
 20
-2.634080
 30
0.0
 10
8.469284
 20
-2.617372
 30
0.0
 10
8.475921
 20
-2.601349
 30
0.0
 10
8.487735
 20
-2.589535
 30
0.0
  0
SPLINE
  5
17f
100
AcDbEntity
  8
Layer_1
 62
7
100
AcDbSpline
 70
8
 71
3
 72
8
 73
4
 74
0
 40
0
 40
0
 40
0
 40
0
 40
1
 40
1
 40
1
 40
1
 10
8.487735
 20
-2.589535
 30
0.0
 10
8.499549
 20
-2.577721
 30
0.0
 10
8.515572
 20
-2.571084
 30
0.0
 10
8.532280
 20
-2.571084
 30
0.0
  0
SPLINE
  5
180
100
AcDbEntity
  8
Layer_1
 62
7
100
AcDbSpline
 70
8
 71
3
 72
8
 73
4
 74
0
 40
0
 40
0
 40
0
 40
0
 40
1
 40
1
 40
1
 40
1
 10
8.532280
 20
-2.571084
 30
0.0
 10
8.548988
 20
-2.571084
 30
0.0
 10
8.565011
 20
-2.577721
 30
0.0
 10
8.576825
 20
-2.589535
 30
0.0
  0
SPLINE
  5
181
100
AcDbEntity
  8
Layer_1
 62
7
100
AcDbSpline
 70
8
 71
3
 72
8
 73
4
 74
0
 40
0
 40
0
 40
0
 40
0
 40
1
 40
1
 40
1
 40
1
 10
8.576825
 20
-2.589535
 30
0.0
 10
8.588639
 20
-2.601349
 30
0.0
 10
8.595276
 20
-2.617372
 30
0.0
 10
8.595276
 20
-2.634080
 30
0.0
  0
SPLINE
  5
182
100
AcDbEntity
  8
Layer_1
 62
7
100
AcDbSpline
 70
8
 71
3
 72
8
 73
4
 74
0
 40
0
 40
0
 40
0
 40
0
 40
1
 40
1
 40
1
 40
1
 10
9.811953
 20
-1.379421
 30
0.0
 10
9.811953
 20
-1.396128
 30
0.0
 10
9.805316
 20
-1.412152
 30
0.0
 10
9.793502
 20
-1.423966
 30
0.0
  0
SPLINE
  5
183
100
AcDbEntity
  8
Layer_1
 62
7
100
AcDbSpline
 70
8
 71
3
 72
8
 73
4
 74
0
 40
0
 40
0
 40
0
 40
0
 40
1
 40
1
 40
1
 40
1
 10
9.793502
 20
-1.423966
 30
0.0
 10
9.781688
 20
-1.435780
 30
0.0
 10
9.765665
 20
-1.442417
 30
0.0
 10
9.748957
 20
-1.442417
 30
0.0
  0
SPLINE
  5
184
100
AcDbEntity
  8
Layer_1
 62
7
100
AcDbSpline
 70
8
 71
3
 72
8
 73
4
 74
0
 40
0
 40
0
 40
0
 40
0
 40
1
 40
1
 40
1
 40
1
 10
9.748957
 20
-1.442417
 30
0.0
 10
9.732250
 20
-1.442417
 30
0.0
 10
9.716226
 20
-1.435780
 30
0.0
 10
9.704412
 20
-1.423966
 30
0.0
  0
SPLINE
  5
185
100
AcDbEntity
  8
Layer_1
 62
7
100
AcDbSpline
 70
8
 71
3
 72
8
 73
4
 74
0
 40
0
 40
0
 40
0
 40
0
 40
1
 40
1
 40
1
 40
1
 10
9.704412
 20
-1.423966
 30
0.0
 10
9.692598
 20
-1.412152
 30
0.0
 10
9.685961
 20
-1.396128
 30
0.0
 10
9.685961
 20
-1.379421
 30
0.0
  0
SPLINE
  5
186
100
AcDbEntity
  8
Layer_1
 62
7
100
AcDbSpline
 70
8
 71
3
 72
8
 73
4
 74
0
 40
0
 40
0
 40
0
 40
0
 40
1
 40
1
 40
1
 40
1
 10
9.685961
 20
-1.379421
 30
0.0
 10
9.685961
 20
-1.362713
 30
0.0
 10
9.692598
 20
-1.346690
 30
0.0
 10
9.704412
 20
-1.334876
 30
0.0
  0
SPLINE
  5
187
100
AcDbEntity
  8
Layer_1
 62
7
100
AcDbSpline
 70
8
 71
3
 72
8
 73
4
 74
0
 40
0
 40
0
 40
0
 40
0
 40
1
 40
1
 40
1
 40
1
 10
9.704412
 20
-1.334876
 30
0.0
 10
9.716226
 20
-1.323062
 30
0.0
 10
9.732250
 20
-1.316425
 30
0.0
 10
9.748957
 20
-1.316425
 30
0.0
  0
SPLINE
  5
188
100
AcDbEntity
  8
Layer_1
 62
7
100
AcDbSpline
 70
8
 71
3
 72
8
 73
4
 74
0
 40
0
 40
0
 40
0
 40
0
 40
1
 40
1
 40
1
 40
1
 10
9.748957
 20
-1.316425
 30
0.0
 10
9.765665
 20
-1.316425
 30
0.0
 10
9.781688
 20
-1.323062
 30
0.0
 10
9.793502
 20
-1.334876
 30
0.0
  0
SPLINE
  5
189
100
AcDbEntity
  8
Layer_1
 62
7
100
AcDbSpline
 70
8
 71
3
 72
8
 73
4
 74
0
 40
0
 40
0
 40
0
 40
0
 40
1
 40
1
 40
1
 40
1
 10
9.793502
 20
-1.334876
 30
0.0
 10
9.805316
 20
-1.346690
 30
0.0
 10
9.811953
 20
-1.362713
 30
0.0
 10
9.811953
 20
-1.379421
 30
0.0
  0
SPLINE
  5
18a
100
AcDbEntity
  8
Layer_1
 62
7
100
AcDbSpline
 70
8
 71
3
 72
8
 73
4
 74
0
 40
0
 40
0
 40
0
 40
0
 40
1
 40
1
 40
1
 40
1
 10
1.851910
 20
3.724867
 30
0.0
 10
1.851910
 20
3.708159
 30
0.0
 10
1.858547
 20
3.692136
 30
0.0
 10
1.870361
 20
3.680322
 30
0.0
  0
SPLINE
  5
18b
100
AcDbEntity
  8
Layer_1
 62
7
100
AcDbSpline
 70
8
 71
3
 72
8
 73
4
 74
0
 40
0
 40
0
 40
0
 40
0
 40
1
 40
1
 40
1
 40
1
 10
1.870361
 20
3.680322
 30
0.0
 10
1.882175
 20
3.668508
 30
0.0
 10
1.898198
 20
3.661871
 30
0.0
 10
1.914906
 20
3.661871
 30
0.0
  0
SPLINE
  5
18c
100
AcDbEntity
  8
Layer_1
 62
7
100
AcDbSpline
 70
8
 71
3
 72
8
 73
4
 74
0
 40
0
 40
0
 40
0
 40
0
 40
1
 40
1
 40
1
 40
1
 10
1.914906
 20
3.661871
 30
0.0
 10
1.931613
 20
3.661871
 30
0.0
 10
1.947636
 20
3.668508
 30
0.0
 10
1.959450
 20
3.680322
 30
0.0
  0
SPLINE
  5
18d
100
AcDbEntity
  8
Layer_1
 62
7
100
AcDbSpline
 70
8
 71
3
 72
8
 73
4
 74
0
 40
0
 40
0
 40
0
 40
0
 40
1
 40
1
 40
1
 40
1
 10
1.959450
 20
3.680322
 30
0.0
 10
1.971265
 20
3.692136
 30
0.0
 10
1.977902
 20
3.708159
 30
0.0
 10
1.977902
 20
3.724867
 30
0.0
  0
SPLINE
  5
18e
100
AcDbEntity
  8
Layer_1
 62
7
100
AcDbSpline
 70
8
 71
3
 72
8
 73
4
 74
0
 40
0
 40
0
 40
0
 40
0
 40
1
 40
1
 40
1
 40
1
 10
1.977902
 20
3.724867
 30
0.0
 10
1.977902
 20
3.741574
 30
0.0
 10
1.971265
 20
3.757598
 30
0.0
 10
1.959450
 20
3.769412
 30
0.0
  0
SPLINE
  5
18f
100
AcDbEntity
  8
Layer_1
 62
7
100
AcDbSpline
 70
8
 71
3
 72
8
 73
4
 74
0
 40
0
 40
0
 40
0
 40
0
 40
1
 40
1
 40
1
 40
1
 10
1.959450
 20
3.769412
 30
0.0
 10
1.947636
 20
3.781226
 30
0.0
 10
1.931613
 20
3.787863
 30
0.0
 10
1.914906
 20
3.787863
 30
0.0
  0
SPLINE
  5
190
100
AcDbEntity
  8
Layer_1
 62
7
100
AcDbSpline
 70
8
 71
3
 72
8
 73
4
 74
0
 40
0
 40
0
 40
0
 40
0
 40
1
 40
1
 40
1
 40
1
 10
1.914906
 20
3.787863
 30
0.0
 10
1.898198
 20
3.787863
 30
0.0
 10
1.882175
 20
3.781226
 30
0.0
 10
1.870361
 20
3.769412
 30
0.0
  0
SPLINE
  5
191
100
AcDbEntity
  8
Layer_1
 62
7
100
AcDbSpline
 70
8
 71
3
 72
8
 73
4
 74
0
 40
0
 40
0
 40
0
 40
0
 40
1
 40
1
 40
1
 40
1
 10
1.870361
 20
3.769412
 30
0.0
 10
1.858547
 20
3.757598
 30
0.0
 10
1.851910
 20
3.741574
 30
0.0
 10
1.851910
 20
3.724867
 30
0.0
  0
SPLINE
  5
192
100
AcDbEntity
  8
Layer_1
 62
7
100
AcDbSpline
 70
8
 71
3
 72
8
 73
4
 74
0
 40
0
 40
0
 40
0
 40
0
 40
1
 40
1
 40
1
 40
1
 10
0.635232
 20
4.979525
 30
0.0
 10
0.635232
 20
4.962818
 30
0.0
 10
0.641869
 20
4.946794
 30
0.0
 10
0.653683
 20
4.934980
 30
0.0
  0
SPLINE
  5
193
100
AcDbEntity
  8
Layer_1
 62
7
100
AcDbSpline
 70
8
 71
3
 72
8
 73
4
 74
0
 40
0
 40
0
 40
0
 40
0
 40
1
 40
1
 40
1
 40
1
 10
0.653683
 20
4.934980
 30
0.0
 10
0.665497
 20
4.923166
 30
0.0
 10
0.681521
 20
4.916529
 30
0.0
 10
0.698228
 20
4.916529
 30
0.0
  0
SPLINE
  5
194
100
AcDbEntity
  8
Layer_1
 62
7
100
AcDbSpline
 70
8
 71
3
 72
8
 73
4
 74
0
 40
0
 40
0
 40
0
 40
0
 40
1
 40
1
 40
1
 40
1
 10
0.698228
 20
4.916529
 30
0.0
 10
0.714936
 20
4.916529
 30
0.0
 10
0.730959
 20
4.923166
 30
0.0
 10
0.742773
 20
4.934980
 30
0.0
  0
SPLINE
  5
195
100
AcDbEntity
  8
Layer_1
 62
7
100
AcDbSpline
 70
8
 71
3
 72
8
 73
4
 74
0
 40
0
 40
0
 40
0
 40
0
 40
1
 40
1
 40
1
 40
1
 10
0.742773
 20
4.934980
 30
0.0
 10
0.754587
 20
4.946794
 30
0.0
 10
0.761224
 20
4.962818
 30
0.0
 10
0.761224
 20
4.979525
 30
0.0
  0
SPLINE
  5
196
100
AcDbEntity
  8
Layer_1
 62
7
100
AcDbSpline
 70
8
 71
3
 72
8
 73
4
 74
0
 40
0
 40
0
 40
0
 40
0
 40
1
 40
1
 40
1
 40
1
 10
0.761224
 20
4.979525
 30
0.0
 10
0.761224
 20
4.996233
 30
0.0
 10
0.754587
 20
5.012256
 30
0.0
 10
0.742773
 20
5.024070
 30
0.0
  0
SPLINE
  5
197
100
AcDbEntity
  8
Layer_1
 62
7
100
AcDbSpline
 70
8
 71
3
 72
8
 73
4
 74
0
 40
0
 40
0
 40
0
 40
0
 40
1
 40
1
 40
1
 40
1
 10
0.742773
 20
5.024070
 30
0.0
 10
0.730959
 20
5.035884
 30
0.0
 10
0.714936
 20
5.042521
 30
0.0
 10
0.698228
 20
5.042521
 30
0.0
  0
SPLINE
  5
198
100
AcDbEntity
  8
Layer_1
 62
7
100
AcDbSpline
 70
8
 71
3
 72
8
 73
4
 74
0
 40
0
 40
0
 40
0
 40
0
 40
1
 40
1
 40
1
 40
1
 10
0.698228
 20
5.042521
 30
0.0
 10
0.681521
 20
5.042521
 30
0.0
 10
0.665497
 20
5.035884
 30
0.0
 10
0.653683
 20
5.024070
 30
0.0
  0
SPLINE
  5
199
100
AcDbEntity
  8
Layer_1
 62
7
100
AcDbSpline
 70
8
 71
3
 72
8
 73
4
 74
0
 40
0
 40
0
 40
0
 40
0
 40
1
 40
1
 40
1
 40
1
 10
0.653683
 20
5.024070
 30
0.0
 10
0.641869
 20
5.012256
 30
0.0
 10
0.635232
 20
4.996233
 30
0.0
 10
0.635232
 20
4.979525
 30
0.0
  0
SPLINE
  5
19a
100
AcDbEntity
  8
Layer_1
 62
7
100
AcDbSpline
 70
8
 71
3
 72
8
 73
4
 74
0
 40
0
 40
0
 40
0
 40
0
 40
1
 40
1
 40
1
 40
1
 10
9.672914
 20
5.133989
 30
0.0
 10
9.672914
 20
5.117282
 30
0.0
 10
9.679551
 20
5.101258
 30
0.0
 10
9.691365
 20
5.089444
 30
0.0
  0
SPLINE
  5
19b
100
AcDbEntity
  8
Layer_1
 62
7
100
AcDbSpline
 70
8
 71
3
 72
8
 73
4
 74
0
 40
0
 40
0
 40
0
 40
0
 40
1
 40
1
 40
1
 40
1
 10
9.691365
 20
5.089444
 30
0.0
 10
9.703179
 20
5.077630
 30
0.0
 10
9.719202
 20
5.070993
 30
0.0
 10
9.735910
 20
5.070993
 30
0.0
  0
SPLINE
  5
19c
100
AcDbEntity
  8
Layer_1
 62
7
100
AcDbSpline
 70
8
 71
3
 72
8
 73
4
 74
0
 40
0
 40
0
 40
0
 40
0
 40
1
 40
1
 40
1
 40
1
 10
9.735910
 20
5.070993
 30
0.0
 10
9.752617
 20
5.070993
 30
0.0
 10
9.768641
 20
5.077630
 30
0.0
 10
9.780455
 20
5.089444
 30
0.0
  0
SPLINE
  5
19d
100
AcDbEntity
  8
Layer_1
 62
7
100
AcDbSpline
 70
8
 71
3
 72
8
 73
4
 74
0
 40
0
 40
0
 40
0
 40
0
 40
1
 40
1
 40
1
 40
1
 10
9.780455
 20
5.089444
 30
0.0
 10
9.792269
 20
5.101258
 30
0.0
 10
9.798906
 20
5.117282
 30
0.0
 10
9.798906
 20
5.133989
 30
0.0
  0
SPLINE
  5
19e
100
AcDbEntity
  8
Layer_1
 62
7
100
AcDbSpline
 70
8
 71
3
 72
8
 73
4
 74
0
 40
0
 40
0
 40
0
 40
0
 40
1
 40
1
 40
1
 40
1
 10
9.798906
 20
5.133989
 30
0.0
 10
9.798906
 20
5.150697
 30
0.0
 10
9.792269
 20
5.166720
 30
0.0
 10
9.780455
 20
5.178534
 30
0.0
  0
SPLINE
  5
19f
100
AcDbEntity
  8
Layer_1
 62
7
100
AcDbSpline
 70
8
 71
3
 72
8
 73
4
 74
0
 40
0
 40
0
 40
0
 40
0
 40
1
 40
1
 40
1
 40
1
 10
9.780455
 20
5.178534
 30
0.0
 10
9.768641
 20
5.190348
 30
0.0
 10
9.752617
 20
5.196985
 30
0.0
 10
9.735910
 20
5.196985
 30
0.0
  0
SPLINE
  5
1a0
100
AcDbEntity
  8
Layer_1
 62
7
100
AcDbSpline
 70
8
 71
3
 72
8
 73
4
 74
0
 40
0
 40
0
 40
0
 40
0
 40
1
 40
1
 40
1
 40
1
 10
9.735910
 20
5.196985
 30
0.0
 10
9.719202
 20
5.196985
 30
0.0
 10
9.703179
 20
5.190348
 30
0.0
 10
9.691365
 20
5.178534
 30
0.0
  0
SPLINE
  5
1a1
100
AcDbEntity
  8
Layer_1
 62
7
100
AcDbSpline
 70
8
 71
3
 72
8
 73
4
 74
0
 40
0
 40
0
 40
0
 40
0
 40
1
 40
1
 40
1
 40
1
 10
9.691365
 20
5.178534
 30
0.0
 10
9.679551
 20
5.166720
 30
0.0
 10
9.672914
 20
5.150697
 30
0.0
 10
9.672914
 20
5.133989
 30
0.0
  0
SPLINE
  5
1a2
100
AcDbEntity
  8
Layer_1
 62
7
100
AcDbSpline
 70
8
 71
3
 72
8
 73
4
 74
0
 40
0
 40
0
 40
0
 40
0
 40
1
 40
1
 40
1
 40
1
 10
8.456236
 20
6.388648
 30
0.0
 10
8.456236
 20
6.371941
 30
0.0
 10
8.462874
 20
6.355917
 30
0.0
 10
8.474688
 20
6.344103
 30
0.0
  0
SPLINE
  5
1a3
100
AcDbEntity
  8
Layer_1
 62
7
100
AcDbSpline
 70
8
 71
3
 72
8
 73
4
 74
0
 40
0
 40
0
 40
0
 40
0
 40
1
 40
1
 40
1
 40
1
 10
8.474688
 20
6.344103
 30
0.0
 10
8.486502
 20
6.332289
 30
0.0
 10
8.502525
 20
6.325652
 30
0.0
 10
8.519232
 20
6.325652
 30
0.0
  0
SPLINE
  5
1a4
100
AcDbEntity
  8
Layer_1
 62
7
100
AcDbSpline
 70
8
 71
3
 72
8
 73
4
 74
0
 40
0
 40
0
 40
0
 40
0
 40
1
 40
1
 40
1
 40
1
 10
8.519232
 20
6.325652
 30
0.0
 10
8.535940
 20
6.325652
 30
0.0
 10
8.551963
 20
6.332289
 30
0.0
 10
8.563777
 20
6.344103
 30
0.0
  0
SPLINE
  5
1a5
100
AcDbEntity
  8
Layer_1
 62
7
100
AcDbSpline
 70
8
 71
3
 72
8
 73
4
 74
0
 40
0
 40
0
 40
0
 40
0
 40
1
 40
1
 40
1
 40
1
 10
8.563777
 20
6.344103
 30
0.0
 10
8.575591
 20
6.355917
 30
0.0
 10
8.582229
 20
6.371941
 30
0.0
 10
8.582229
 20
6.388648
 30
0.0
  0
SPLINE
  5
1a6
100
AcDbEntity
  8
Layer_1
 62
7
100
AcDbSpline
 70
8
 71
3
 72
8
 73
4
 74
0
 40
0
 40
0
 40
0
 40
0
 40
1
 40
1
 40
1
 40
1
 10
8.582229
 20
6.388648
 30
0.0
 10
8.582229
 20
6.405356
 30
0.0
 10
8.575591
 20
6.421379
 30
0.0
 10
8.563777
 20
6.433193
 30
0.0
  0
SPLINE
  5
1a7
100
AcDbEntity
  8
Layer_1
 62
7
100
AcDbSpline
 70
8
 71
3
 72
8
 73
4
 74
0
 40
0
 40
0
 40
0
 40
0
 40
1
 40
1
 40
1
 40
1
 10
8.563777
 20
6.433193
 30
0.0
 10
8.551963
 20
6.445007
 30
0.0
 10
8.535940
 20
6.451644
 30
0.0
 10
8.519232
 20
6.451644
 30
0.0
  0
SPLINE
  5
1a8
100
AcDbEntity
  8
Layer_1
 62
7
100
AcDbSpline
 70
8
 71
3
 72
8
 73
4
 74
0
 40
0
 40
0
 40
0
 40
0
 40
1
 40
1
 40
1
 40
1
 10
8.519232
 20
6.451644
 30
0.0
 10
8.502525
 20
6.451644
 30
0.0
 10
8.486502
 20
6.445007
 30
0.0
 10
8.474688
 20
6.433193
 30
0.0
  0
SPLINE
  5
1a9
100
AcDbEntity
  8
Layer_1
 62
7
100
AcDbSpline
 70
8
 71
3
 72
8
 73
4
 74
0
 40
0
 40
0
 40
0
 40
0
 40
1
 40
1
 40
1
 40
1
 10
8.474688
 20
6.433193
 30
0.0
 10
8.462874
 20
6.421379
 30
0.0
 10
8.456236
 20
6.405356
 30
0.0
 10
8.456236
 20
6.388648
 30
0.0
  0
SPLINE
  5
1aa
100
AcDbEntity
  8
Layer_1
 62
7
100
AcDbSpline
 70
8
 71
3
 72
8
 73
4
 74
0
 40
0
 40
0
 40
0
 40
0
 40
1
 40
1
 40
1
 40
1
 10
1.822273
 20
-2.670799
 30
0.0
 10
1.822273
 20
-2.687506
 30
0.0
 10
1.828910
 20
-2.703530
 30
0.0
 10
1.840724
 20
-2.715344
 30
0.0
  0
SPLINE
  5
1ab
100
AcDbEntity
  8
Layer_1
 62
7
100
AcDbSpline
 70
8
 71
3
 72
8
 73
4
 74
0
 40
0
 40
0
 40
0
 40
0
 40
1
 40
1
 40
1
 40
1
 10
1.840724
 20
-2.715344
 30
0.0
 10
1.852538
 20
-2.727158
 30
0.0
 10
1.868561
 20
-2.733795
 30
0.0
 10
1.885269
 20
-2.733795
 30
0.0
  0
SPLINE
  5
1ac
100
AcDbEntity
  8
Layer_1
 62
7
100
AcDbSpline
 70
8
 71
3
 72
8
 73
4
 74
0
 40
0
 40
0
 40
0
 40
0
 40
1
 40
1
 40
1
 40
1
 10
1.885269
 20
-2.733795
 30
0.0
 10
1.901977
 20
-2.733795
 30
0.0
 10
1.918000
 20
-2.727158
 30
0.0
 10
1.929814
 20
-2.715344
 30
0.0
  0
SPLINE
  5
1ad
100
AcDbEntity
  8
Layer_1
 62
7
100
AcDbSpline
 70
8
 71
3
 72
8
 73
4
 74
0
 40
0
 40
0
 40
0
 40
0
 40
1
 40
1
 40
1
 40
1
 10
1.929814
 20
-2.715344
 30
0.0
 10
1.941628
 20
-2.703530
 30
0.0
 10
1.948265
 20
-2.687506
 30
0.0
 10
1.948265
 20
-2.670799
 30
0.0
  0
SPLINE
  5
1ae
100
AcDbEntity
  8
Layer_1
 62
7
100
AcDbSpline
 70
8
 71
3
 72
8
 73
4
 74
0
 40
0
 40
0
 40
0
 40
0
 40
1
 40
1
 40
1
 40
1
 10
1.948265
 20
-2.670799
 30
0.0
 10
1.948265
 20
-2.654091
 30
0.0
 10
1.941628
 20
-2.638068
 30
0.0
 10
1.929814
 20
-2.626254
 30
0.0
  0
SPLINE
  5
1af
100
AcDbEntity
  8
Layer_1
 62
7
100
AcDbSpline
 70
8
 71
3
 72
8
 73
4
 74
0
 40
0
 40
0
 40
0
 40
0
 40
1
 40
1
 40
1
 40
1
 10
1.929814
 20
-2.626254
 30
0.0
 10
1.918000
 20
-2.614440
 30
0.0
 10
1.901977
 20
-2.607803
 30
0.0
 10
1.885269
 20
-2.607803
 30
0.0
  0
SPLINE
  5
1b0
100
AcDbEntity
  8
Layer_1
 62
7
100
AcDbSpline
 70
8
 71
3
 72
8
 73
4
 74
0
 40
0
 40
0
 40
0
 40
0
 40
1
 40
1
 40
1
 40
1
 10
1.885269
 20
-2.607803
 30
0.0
 10
1.868561
 20
-2.607803
 30
0.0
 10
1.852538
 20
-2.614440
 30
0.0
 10
1.840724
 20
-2.626254
 30
0.0
  0
SPLINE
  5
1b1
100
AcDbEntity
  8
Layer_1
 62
7
100
AcDbSpline
 70
8
 71
3
 72
8
 73
4
 74
0
 40
0
 40
0
 40
0
 40
0
 40
1
 40
1
 40
1
 40
1
 10
1.840724
 20
-2.626254
 30
0.0
 10
1.828910
 20
-2.638068
 30
0.0
 10
1.822273
 20
-2.654091
 30
0.0
 10
1.822273
 20
-2.670799
 30
0.0
  0
SPLINE
  5
1b2
100
AcDbEntity
  8
Layer_1
 62
7
100
AcDbSpline
 70
8
 71
3
 72
8
 73
4
 74
0
 40
0
 40
0
 40
0
 40
0
 40
1
 40
1
 40
1
 40
1
 10
0.605596
 20
-1.416141
 30
0.0
 10
0.605596
 20
-1.432849
 30
0.0
 10
0.612233
 20
-1.448872
 30
0.0
 10
0.624047
 20
-1.460686
 30
0.0
  0
SPLINE
  5
1b3
100
AcDbEntity
  8
Layer_1
 62
7
100
AcDbSpline
 70
8
 71
3
 72
8
 73
4
 74
0
 40
0
 40
0
 40
0
 40
0
 40
1
 40
1
 40
1
 40
1
 10
0.624047
 20
-1.460686
 30
0.0
 10
0.635861
 20
-1.472500
 30
0.0
 10
0.651884
 20
-1.479137
 30
0.0
 10
0.668592
 20
-1.479137
 30
0.0
  0
SPLINE
  5
1b4
100
AcDbEntity
  8
Layer_1
 62
7
100
AcDbSpline
 70
8
 71
3
 72
8
 73
4
 74
0
 40
0
 40
0
 40
0
 40
0
 40
1
 40
1
 40
1
 40
1
 10
0.668592
 20
-1.479137
 30
0.0
 10
0.685299
 20
-1.479137
 30
0.0
 10
0.701323
 20
-1.472500
 30
0.0
 10
0.713137
 20
-1.460686
 30
0.0
  0
SPLINE
  5
1b5
100
AcDbEntity
  8
Layer_1
 62
7
100
AcDbSpline
 70
8
 71
3
 72
8
 73
4
 74
0
 40
0
 40
0
 40
0
 40
0
 40
1
 40
1
 40
1
 40
1
 10
0.713137
 20
-1.460686
 30
0.0
 10
0.724951
 20
-1.448872
 30
0.0
 10
0.731588
 20
-1.432849
 30
0.0
 10
0.731588
 20
-1.416141
 30
0.0
  0
SPLINE
  5
1b6
100
AcDbEntity
  8
Layer_1
 62
7
100
AcDbSpline
 70
8
 71
3
 72
8
 73
4
 74
0
 40
0
 40
0
 40
0
 40
0
 40
1
 40
1
 40
1
 40
1
 10
0.731588
 20
-1.416141
 30
0.0
 10
0.731588
 20
-1.399433
 30
0.0
 10
0.724951
 20
-1.383410
 30
0.0
 10
0.713137
 20
-1.371596
 30
0.0
  0
SPLINE
  5
1b7
100
AcDbEntity
  8
Layer_1
 62
7
100
AcDbSpline
 70
8
 71
3
 72
8
 73
4
 74
0
 40
0
 40
0
 40
0
 40
0
 40
1
 40
1
 40
1
 40
1
 10
0.713137
 20
-1.371596
 30
0.0
 10
0.701323
 20
-1.359782
 30
0.0
 10
0.685299
 20
-1.353145
 30
0.0
 10
0.668592
 20
-1.353145
 30
0.0
  0
SPLINE
  5
1b8
100
AcDbEntity
  8
Layer_1
 62
7
100
AcDbSpline
 70
8
 71
3
 72
8
 73
4
 74
0
 40
0
 40
0
 40
0
 40
0
 40
1
 40
1
 40
1
 40
1
 10
0.668592
 20
-1.353145
 30
0.0
 10
0.651884
 20
-1.353145
 30
0.0
 10
0.635861
 20
-1.359782
 30
0.0
 10
0.624047
 20
-1.371596
 30
0.0
  0
SPLINE
  5
1b9
100
AcDbEntity
  8
Layer_1
 62
7
100
AcDbSpline
 70
8
 71
3
 72
8
 73
4
 74
0
 40
0
 40
0
 40
0
 40
0
 40
1
 40
1
 40
1
 40
1
 10
0.624047
 20
-1.371596
 30
0.0
 10
0.612233
 20
-1.383410
 30
0.0
 10
0.605596
 20
-1.399433
 30
0.0
 10
0.605596
 20
-1.416141
 30
0.0
  0
SPLINE
  5
1ba
100
AcDbEntity
  8
Layer_1
 62
7
100
AcDbSpline
 70
8
 71
3
 72
8
 73
4
 74
0
 40
0
 40
0
 40
0
 40
0
 40
1
 40
1
 40
1
 40
1
 10
29.290062
 20
5.238084
 30
0.0
 10
29.290063
 20
5.203292
 30
0.0
 10
29.261858
 20
5.175088
 30
0.0
 10
29.227067
 20
5.175088
 30
0.0
  0
SPLINE
  5
1bb
100
AcDbEntity
  8
Layer_1
 62
7
100
AcDbSpline
 70
8
 71
3
 72
8
 73
4
 74
0
 40
0
 40
0
 40
0
 40
0
 40
1
 40
1
 40
1
 40
1
 10
29.227067
 20
5.175088
 30
0.0
 10
29.192275
 20
5.175088
 30
0.0
 10
29.164071
 20
5.203292
 30
0.0
 10
29.164071
 20
5.238084
 30
0.0
  0
SPLINE
  5
1bc
100
AcDbEntity
  8
Layer_1
 62
7
100
AcDbSpline
 70
8
 71
3
 72
8
 73
4
 74
0
 40
0
 40
0
 40
0
 40
0
 40
1
 40
1
 40
1
 40
1
 10
29.164071
 20
5.238084
 30
0.0
 10
29.164071
 20
5.272875
 30
0.0
 10
29.192275
 20
5.301079
 30
0.0
 10
29.227067
 20
5.301079
 30
0.0
  0
SPLINE
  5
1bd
100
AcDbEntity
  8
Layer_1
 62
7
100
AcDbSpline
 70
8
 71
3
 72
8
 73
4
 74
0
 40
0
 40
0
 40
0
 40
0
 40
1
 40
1
 40
1
 40
1
 10
29.227067
 20
5.301079
 30
0.0
 10
29.261858
 20
5.301079
 30
0.0
 10
29.290062
 20
5.272875
 30
0.0
 10
29.290063
 20
5.238084
 30
0.0
  0
SPLINE
  5
1be
100
AcDbEntity
  8
Layer_1
 62
7
100
AcDbSpline
 70
8
 71
3
 72
8
 73
4
 74
0
 40
0
 40
0
 40
0
 40
0
 40
1
 40
1
 40
1
 40
1
 10
30.506740
 20
6.492742
 30
0.0
 10
30.506740
 20
6.457950
 30
0.0
 10
30.478535
 20
6.429746
 30
0.0
 10
30.443744
 20
6.429746
 30
0.0
  0
SPLINE
  5
1bf
100
AcDbEntity
  8
Layer_1
 62
7
100
AcDbSpline
 70
8
 71
3
 72
8
 73
4
 74
0
 40
0
 40
0
 40
0
 40
0
 40
1
 40
1
 40
1
 40
1
 10
30.443744
 20
6.429746
 30
0.0
 10
30.408952
 20
6.429746
 30
0.0
 10
30.380748
 20
6.457950
 30
0.0
 10
30.380748
 20
6.492742
 30
0.0
  0
SPLINE
  5
1c0
100
AcDbEntity
  8
Layer_1
 62
7
100
AcDbSpline
 70
8
 71
3
 72
8
 73
4
 74
0
 40
0
 40
0
 40
0
 40
0
 40
1
 40
1
 40
1
 40
1
 10
30.380748
 20
6.492742
 30
0.0
 10
30.380748
 20
6.527534
 30
0.0
 10
30.408952
 20
6.555738
 30
0.0
 10
30.443744
 20
6.555738
 30
0.0
  0
SPLINE
  5
1c1
100
AcDbEntity
  8
Layer_1
 62
7
100
AcDbSpline
 70
8
 71
3
 72
8
 73
4
 74
0
 40
0
 40
0
 40
0
 40
0
 40
1
 40
1
 40
1
 40
1
 10
30.443744
 20
6.555738
 30
0.0
 10
30.478535
 20
6.555738
 30
0.0
 10
30.506740
 20
6.527534
 30
0.0
 10
30.506740
 20
6.492742
 30
0.0
  0
SPLINE
  5
1c2
100
AcDbEntity
  8
Layer_1
 62
7
100
AcDbSpline
 70
8
 71
3
 72
8
 73
4
 74
0
 40
0
 40
0
 40
0
 40
0
 40
1
 40
1
 40
1
 40
1
 10
30.388029
 20
3.386778
 30
0.0
 10
30.388029
 20
3.351987
 30
0.0
 10
30.416233
 20
3.323783
 30
0.0
 10
30.451025
 20
3.323783
 30
0.0
  0
SPLINE
  5
1c3
100
AcDbEntity
  8
Layer_1
 62
7
100
AcDbSpline
 70
8
 71
3
 72
8
 73
4
 74
0
 40
0
 40
0
 40
0
 40
0
 40
1
 40
1
 40
1
 40
1
 10
30.451025
 20
3.323783
 30
0.0
 10
30.485817
 20
3.323783
 30
0.0
 10
30.514021
 20
3.351987
 30
0.0
 10
30.514021
 20
3.386778
 30
0.0
  0
SPLINE
  5
1c4
100
AcDbEntity
  8
Layer_1
 62
7
100
AcDbSpline
 70
8
 71
3
 72
8
 73
4
 74
0
 40
0
 40
0
 40
0
 40
0
 40
1
 40
1
 40
1
 40
1
 10
30.514021
 20
3.386778
 30
0.0
 10
30.514021
 20
3.421570
 30
0.0
 10
30.485817
 20
3.449774
 30
0.0
 10
30.451025
 20
3.449774
 30
0.0
  0
SPLINE
  5
1c5
100
AcDbEntity
  8
Layer_1
 62
7
100
AcDbSpline
 70
8
 71
3
 72
8
 73
4
 74
0
 40
0
 40
0
 40
0
 40
0
 40
1
 40
1
 40
1
 40
1
 10
30.451025
 20
3.449774
 30
0.0
 10
30.416233
 20
3.449774
 30
0.0
 10
30.388029
 20
3.421570
 30
0.0
 10
30.388029
 20
3.386778
 30
0.0
  0
SPLINE
  5
1c6
100
AcDbEntity
  8
Layer_1
 62
7
100
AcDbSpline
 70
8
 71
3
 72
8
 73
4
 74
0
 40
0
 40
0
 40
0
 40
0
 40
1
 40
1
 40
1
 40
1
 10
29.171350
 20
4.641437
 30
0.0
 10
29.171350
 20
4.624729
 30
0.0
 10
29.177987
 20
4.608705
 30
0.0
 10
29.189802
 20
4.596891
 30
0.0
  0
SPLINE
  5
1c7
100
AcDbEntity
  8
Layer_1
 62
7
100
AcDbSpline
 70
8
 71
3
 72
8
 73
4
 74
0
 40
0
 40
0
 40
0
 40
0
 40
1
 40
1
 40
1
 40
1
 10
29.189802
 20
4.596891
 30
0.0
 10
29.201616
 20
4.585077
 30
0.0
 10
29.217640
 20
4.578440
 30
0.0
 10
29.234348
 20
4.578441
 30
0.0
  0
SPLINE
  5
1c8
100
AcDbEntity
  8
Layer_1
 62
7
100
AcDbSpline
 70
8
 71
3
 72
8
 73
4
 74
0
 40
0
 40
0
 40
0
 40
0
 40
1
 40
1
 40
1
 40
1
 10
29.234348
 20
4.578441
 30
0.0
 10
29.269140
 20
4.578441
 30
0.0
 10
29.297344
 20
4.606645
 30
0.0
 10
29.297344
 20
4.641437
 30
0.0
  0
SPLINE
  5
1c9
100
AcDbEntity
  8
Layer_1
 62
7
100
AcDbSpline
 70
8
 71
3
 72
8
 73
4
 74
0
 40
0
 40
0
 40
0
 40
0
 40
1
 40
1
 40
1
 40
1
 10
29.297344
 20
4.641437
 30
0.0
 10
29.297344
 20
4.676229
 30
0.0
 10
29.269140
 20
4.704433
 30
0.0
 10
29.234348
 20
4.704433
 30
0.0
  0
SPLINE
  5
1ca
100
AcDbEntity
  8
Layer_1
 62
7
100
AcDbSpline
 70
8
 71
3
 72
8
 73
4
 74
0
 40
0
 40
0
 40
0
 40
0
 40
1
 40
1
 40
1
 40
1
 10
29.234348
 20
4.704433
 30
0.0
 10
29.217640
 20
4.704433
 30
0.0
 10
29.201616
 20
4.697797
 30
0.0
 10
29.189802
 20
4.685982
 30
0.0
  0
SPLINE
  5
1cb
100
AcDbEntity
  8
Layer_1
 62
7
100
AcDbSpline
 70
8
 71
3
 72
8
 73
4
 74
0
 40
0
 40
0
 40
0
 40
0
 40
1
 40
1
 40
1
 40
1
 10
29.189802
 20
4.685982
 30
0.0
 10
29.177987
 20
4.674168
 30
0.0
 10
29.171350
 20
4.658145
 30
0.0
 10
29.171350
 20
4.641437
 30
0.0
  0
SPLINE
  5
1cc
100
AcDbEntity
  8
Layer_1
 62
7
100
AcDbSpline
 70
8
 71
3
 72
8
 73
4
 74
0
 40
0
 40
0
 40
0
 40
0
 40
1
 40
1
 40
1
 40
1
 10
30.375702
 20
11.372068
 30
0.0
 10
30.375702
 20
11.337276
 30
0.0
 10
30.403906
 20
11.309072
 30
0.0
 10
30.438698
 20
11.309071
 30
0.0
  0
SPLINE
  5
1cd
100
AcDbEntity
  8
Layer_1
 62
7
100
AcDbSpline
 70
8
 71
3
 72
8
 73
4
 74
0
 40
0
 40
0
 40
0
 40
0
 40
1
 40
1
 40
1
 40
1
 10
30.438698
 20
11.309071
 30
0.0
 10
30.473490
 20
11.309072
 30
0.0
 10
30.501694
 20
11.337276
 30
0.0
 10
30.501694
 20
11.372068
 30
0.0
  0
SPLINE
  5
1ce
100
AcDbEntity
  8
Layer_1
 62
7
100
AcDbSpline
 70
8
 71
3
 72
8
 73
4
 74
0
 40
0
 40
0
 40
0
 40
0
 40
1
 40
1
 40
1
 40
1
 10
30.501694
 20
11.372068
 30
0.0
 10
30.501694
 20
11.406859
 30
0.0
 10
30.473490
 20
11.435063
 30
0.0
 10
30.438698
 20
11.435064
 30
0.0
  0
SPLINE
  5
1cf
100
AcDbEntity
  8
Layer_1
 62
7
100
AcDbSpline
 70
8
 71
3
 72
8
 73
4
 74
0
 40
0
 40
0
 40
0
 40
0
 40
1
 40
1
 40
1
 40
1
 10
30.438698
 20
11.435064
 30
0.0
 10
30.403906
 20
11.435063
 30
0.0
 10
30.375702
 20
11.406859
 30
0.0
 10
30.375702
 20
11.372068
 30
0.0
  0
SPLINE
  5
1d0
100
AcDbEntity
  8
Layer_1
 62
7
100
AcDbSpline
 70
8
 71
3
 72
8
 73
4
 74
0
 40
0
 40
0
 40
0
 40
0
 40
1
 40
1
 40
1
 40
1
 10
29.159025
 20
12.626726
 30
0.0
 10
29.159025
 20
12.591934
 30
0.0
 10
29.187229
 20
12.563730
 30
0.0
 10
29.222021
 20
12.563730
 30
0.0
  0
SPLINE
  5
1d1
100
AcDbEntity
  8
Layer_1
 62
7
100
AcDbSpline
 70
8
 71
3
 72
8
 73
4
 74
0
 40
0
 40
0
 40
0
 40
0
 40
1
 40
1
 40
1
 40
1
 10
29.222021
 20
12.563730
 30
0.0
 10
29.256812
 20
12.563730
 30
0.0
 10
29.285017
 20
12.591934
 30
0.0
 10
29.285017
 20
12.626726
 30
0.0
  0
SPLINE
  5
1d2
100
AcDbEntity
  8
Layer_1
 62
7
100
AcDbSpline
 70
8
 71
3
 72
8
 73
4
 74
0
 40
0
 40
0
 40
0
 40
0
 40
1
 40
1
 40
1
 40
1
 10
29.285017
 20
12.626726
 30
0.0
 10
29.285017
 20
12.661518
 30
0.0
 10
29.256813
 20
12.689722
 30
0.0
 10
29.222021
 20
12.689722
 30
0.0
  0
SPLINE
  5
1d3
100
AcDbEntity
  8
Layer_1
 62
7
100
AcDbSpline
 70
8
 71
3
 72
8
 73
4
 74
0
 40
0
 40
0
 40
0
 40
0
 40
1
 40
1
 40
1
 40
1
 10
29.222021
 20
12.689722
 30
0.0
 10
29.187229
 20
12.689722
 30
0.0
 10
29.159025
 20
12.661518
 30
0.0
 10
29.159025
 20
12.626726
 30
0.0
  0
SPLINE
  5
1d4
100
AcDbEntity
  8
Layer_1
 62
7
100
AcDbSpline
 70
8
 71
3
 72
8
 73
4
 74
0
 40
0
 40
0
 40
0
 40
0
 40
1
 40
1
 40
1
 40
1
 10
21.442491
 20
12.648128
 30
0.0
 10
21.442491
 20
12.631420
 30
0.0
 10
21.435854
 20
12.615397
 30
0.0
 10
21.424040
 20
12.603583
 30
0.0
  0
SPLINE
  5
1d5
100
AcDbEntity
  8
Layer_1
 62
7
100
AcDbSpline
 70
8
 71
3
 72
8
 73
4
 74
0
 40
0
 40
0
 40
0
 40
0
 40
1
 40
1
 40
1
 40
1
 10
21.424040
 20
12.603583
 30
0.0
 10
21.412226
 20
12.591769
 30
0.0
 10
21.396203
 20
12.585132
 30
0.0
 10
21.379495
 20
12.585132
 30
0.0
  0
SPLINE
  5
1d6
100
AcDbEntity
  8
Layer_1
 62
7
100
AcDbSpline
 70
8
 71
3
 72
8
 73
4
 74
0
 40
0
 40
0
 40
0
 40
0
 40
1
 40
1
 40
1
 40
1
 10
21.379495
 20
12.585132
 30
0.0
 10
21.362787
 20
12.585132
 30
0.0
 10
21.346764
 20
12.591769
 30
0.0
 10
21.334950
 20
12.603583
 30
0.0
  0
SPLINE
  5
1d7
100
AcDbEntity
  8
Layer_1
 62
7
100
AcDbSpline
 70
8
 71
3
 72
8
 73
4
 74
0
 40
0
 40
0
 40
0
 40
0
 40
1
 40
1
 40
1
 40
1
 10
21.334950
 20
12.603583
 30
0.0
 10
21.323136
 20
12.615397
 30
0.0
 10
21.316499
 20
12.631420
 30
0.0
 10
21.316499
 20
12.648128
 30
0.0
  0
SPLINE
  5
1d8
100
AcDbEntity
  8
Layer_1
 62
7
100
AcDbSpline
 70
8
 71
3
 72
8
 73
4
 74
0
 40
0
 40
0
 40
0
 40
0
 40
1
 40
1
 40
1
 40
1
 10
21.316499
 20
12.648128
 30
0.0
 10
21.316499
 20
12.664835
 30
0.0
 10
21.323136
 20
12.680859
 30
0.0
 10
21.334950
 20
12.692673
 30
0.0
  0
SPLINE
  5
1d9
100
AcDbEntity
  8
Layer_1
 62
7
100
AcDbSpline
 70
8
 71
3
 72
8
 73
4
 74
0
 40
0
 40
0
 40
0
 40
0
 40
1
 40
1
 40
1
 40
1
 10
21.334950
 20
12.692673
 30
0.0
 10
21.346764
 20
12.704487
 30
0.0
 10
21.362787
 20
12.711124
 30
0.0
 10
21.379495
 20
12.711124
 30
0.0
  0
SPLINE
  5
1da
100
AcDbEntity
  8
Layer_1
 62
7
100
AcDbSpline
 70
8
 71
3
 72
8
 73
4
 74
0
 40
0
 40
0
 40
0
 40
0
 40
1
 40
1
 40
1
 40
1
 10
21.379495
 20
12.711124
 30
0.0
 10
21.396203
 20
12.711124
 30
0.0
 10
21.412226
 20
12.704487
 30
0.0
 10
21.424040
 20
12.692673
 30
0.0
  0
SPLINE
  5
1db
100
AcDbEntity
  8
Layer_1
 62
7
100
AcDbSpline
 70
8
 71
3
 72
8
 73
4
 74
0
 40
0
 40
0
 40
0
 40
0
 40
1
 40
1
 40
1
 40
1
 10
21.424040
 20
12.692673
 30
0.0
 10
21.435854
 20
12.680859
 30
0.0
 10
21.442491
 20
12.664835
 30
0.0
 10
21.442491
 20
12.648128
 30
0.0
  0
SPLINE
  5
1dc
100
AcDbEntity
  8
Layer_1
 62
7
100
AcDbSpline
 70
8
 71
3
 72
8
 73
4
 74
0
 40
0
 40
0
 40
0
 40
0
 40
1
 40
1
 40
1
 40
1
 10
21.449909
 20
-2.821573
 30
0.0
 10
21.449909
 20
-2.856365
 30
0.0
 10
21.421705
 20
-2.884569
 30
0.0
 10
21.386913
 20
-2.884569
 30
0.0
  0
SPLINE
  5
1dd
100
AcDbEntity
  8
Layer_1
 62
7
100
AcDbSpline
 70
8
 71
3
 72
8
 73
4
 74
0
 40
0
 40
0
 40
0
 40
0
 40
1
 40
1
 40
1
 40
1
 10
21.386913
 20
-2.884569
 30
0.0
 10
21.352122
 20
-2.884569
 30
0.0
 10
21.323917
 20
-2.856365
 30
0.0
 10
21.323917
 20
-2.821573
 30
0.0
  0
SPLINE
  5
1de
100
AcDbEntity
  8
Layer_1
 62
7
100
AcDbSpline
 70
8
 71
3
 72
8
 73
4
 74
0
 40
0
 40
0
 40
0
 40
0
 40
1
 40
1
 40
1
 40
1
 10
21.323917
 20
-2.821573
 30
0.0
 10
21.323917
 20
-2.786781
 30
0.0
 10
21.352122
 20
-2.758577
 30
0.0
 10
21.386913
 20
-2.758577
 30
0.0
  0
SPLINE
  5
1df
100
AcDbEntity
  8
Layer_1
 62
7
100
AcDbSpline
 70
8
 71
3
 72
8
 73
4
 74
0
 40
0
 40
0
 40
0
 40
0
 40
1
 40
1
 40
1
 40
1
 10
21.386913
 20
-2.758577
 30
0.0
 10
21.421705
 20
-2.758577
 30
0.0
 10
21.449909
 20
-2.786781
 30
0.0
 10
21.449909
 20
-2.821573
 30
0.0
  0
SPLINE
  5
1e0
100
AcDbEntity
  8
Layer_1
 62
7
100
AcDbSpline
 70
8
 71
3
 72
8
 73
4
 74
0
 40
0
 40
0
 40
0
 40
0
 40
1
 40
1
 40
1
 40
1
 10
21.428247
 20
9.078939
 30
0.0
 10
21.428247
 20
9.062232
 30
0.0
 10
21.421610
 20
9.046208
 30
0.0
 10
21.409796
 20
9.034394
 30
0.0
  0
SPLINE
  5
1e1
100
AcDbEntity
  8
Layer_1
 62
7
100
AcDbSpline
 70
8
 71
3
 72
8
 73
4
 74
0
 40
0
 40
0
 40
0
 40
0
 40
1
 40
1
 40
1
 40
1
 10
21.409796
 20
9.034394
 30
0.0
 10
21.397982
 20
9.022580
 30
0.0
 10
21.381958
 20
9.015943
 30
0.0
 10
21.365251
 20
9.015943
 30
0.0
  0
SPLINE
  5
1e2
100
AcDbEntity
  8
Layer_1
 62
7
100
AcDbSpline
 70
8
 71
3
 72
8
 73
4
 74
0
 40
0
 40
0
 40
0
 40
0
 40
1
 40
1
 40
1
 40
1
 10
21.365251
 20
9.015943
 30
0.0
 10
21.348543
 20
9.015943
 30
0.0
 10
21.332520
 20
9.022580
 30
0.0
 10
21.320706
 20
9.034394
 30
0.0
  0
SPLINE
  5
1e3
100
AcDbEntity
  8
Layer_1
 62
7
100
AcDbSpline
 70
8
 71
3
 72
8
 73
4
 74
0
 40
0
 40
0
 40
0
 40
0
 40
1
 40
1
 40
1
 40
1
 10
21.320706
 20
9.034394
 30
0.0
 10
21.308892
 20
9.046208
 30
0.0
 10
21.302255
 20
9.062232
 30
0.0
 10
21.302255
 20
9.078939
 30
0.0
  0
SPLINE
  5
1e4
100
AcDbEntity
  8
Layer_1
 62
7
100
AcDbSpline
 70
8
 71
3
 72
8
 73
4
 74
0
 40
0
 40
0
 40
0
 40
0
 40
1
 40
1
 40
1
 40
1
 10
21.302255
 20
9.078939
 30
0.0
 10
21.302255
 20
9.113731
 30
0.0
 10
21.330459
 20
9.141935
 30
0.0
 10
21.365251
 20
9.141935
 30
0.0
  0
SPLINE
  5
1e5
100
AcDbEntity
  8
Layer_1
 62
7
100
AcDbSpline
 70
8
 71
3
 72
8
 73
4
 74
0
 40
0
 40
0
 40
0
 40
0
 40
1
 40
1
 40
1
 40
1
 10
21.365251
 20
9.141935
 30
0.0
 10
21.400043
 20
9.141935
 30
0.0
 10
21.428247
 20
9.113731
 30
0.0
 10
21.428247
 20
9.078939
 30
0.0
  0
SPLINE
  5
1e6
100
AcDbEntity
  8
Layer_1
 62
7
100
AcDbSpline
 70
8
 71
3
 72
8
 73
4
 74
0
 40
0
 40
0
 40
0
 40
0
 40
1
 40
1
 40
1
 40
1
 10
21.432998
 20
1.110971
 30
0.0
 10
21.432997
 20
1.076179
 30
0.0
 10
21.404793
 20
1.047975
 30
0.0
 10
21.370001
 20
1.047975
 30
0.0
  0
SPLINE
  5
1e7
100
AcDbEntity
  8
Layer_1
 62
7
100
AcDbSpline
 70
8
 71
3
 72
8
 73
4
 74
0
 40
0
 40
0
 40
0
 40
0
 40
1
 40
1
 40
1
 40
1
 10
21.370001
 20
1.047975
 30
0.0
 10
21.335210
 20
1.047975
 30
0.0
 10
21.307006
 20
1.076179
 30
0.0
 10
21.307005
 20
1.110971
 30
0.0
  0
SPLINE
  5
1e8
100
AcDbEntity
  8
Layer_1
 62
7
100
AcDbSpline
 70
8
 71
3
 72
8
 73
4
 74
0
 40
0
 40
0
 40
0
 40
0
 40
1
 40
1
 40
1
 40
1
 10
21.307005
 20
1.110971
 30
0.0
 10
21.307006
 20
1.145763
 30
0.0
 10
21.335210
 20
1.173967
 30
0.0
 10
21.370001
 20
1.173967
 30
0.0
  0
SPLINE
  5
1e9
100
AcDbEntity
  8
Layer_1
 62
7
100
AcDbSpline
 70
8
 71
3
 72
8
 73
4
 74
0
 40
0
 40
0
 40
0
 40
0
 40
1
 40
1
 40
1
 40
1
 10
21.370001
 20
1.173967
 30
0.0
 10
21.404793
 20
1.173967
 30
0.0
 10
21.432997
 20
1.145763
 30
0.0
 10
21.432998
 20
1.110971
 30
0.0
  0
SPLINE
  5
1ea
100
AcDbEntity
  8
Layer_1
 62
7
100
AcDbSpline
 70
8
 71
3
 72
8
 73
4
 74
0
 40
0
 40
0
 40
0
 40
0
 40
1
 40
1
 40
1
 40
1
 10
21.432998
 20
5.009633
 30
0.0
 10
21.432997
 20
4.974842
 30
0.0
 10
21.404793
 20
4.946637
 30
0.0
 10
21.370001
 20
4.946638
 30
0.0
  0
SPLINE
  5
1eb
100
AcDbEntity
  8
Layer_1
 62
7
100
AcDbSpline
 70
8
 71
3
 72
8
 73
4
 74
0
 40
0
 40
0
 40
0
 40
0
 40
1
 40
1
 40
1
 40
1
 10
21.370001
 20
4.946638
 30
0.0
 10
21.335210
 20
4.946637
 30
0.0
 10
21.307006
 20
4.974842
 30
0.0
 10
21.307005
 20
5.009633
 30
0.0
  0
SPLINE
  5
1ec
100
AcDbEntity
  8
Layer_1
 62
7
100
AcDbSpline
 70
8
 71
3
 72
8
 73
4
 74
0
 40
0
 40
0
 40
0
 40
0
 40
1
 40
1
 40
1
 40
1
 10
21.307005
 20
5.009633
 30
0.0
 10
21.307006
 20
5.044425
 30
0.0
 10
21.335210
 20
5.072629
 30
0.0
 10
21.370001
 20
5.072629
 30
0.0
  0
SPLINE
  5
1ed
100
AcDbEntity
  8
Layer_1
 62
7
100
AcDbSpline
 70
8
 71
3
 72
8
 73
4
 74
0
 40
0
 40
0
 40
0
 40
0
 40
1
 40
1
 40
1
 40
1
 10
21.370001
 20
5.072629
 30
0.0
 10
21.404793
 20
5.072629
 30
0.0
 10
21.432997
 20
5.044425
 30
0.0
 10
21.432998
 20
5.009633
 30
0.0
  0
SPLINE
  5
1ee
100
AcDbEntity
  8
Layer_1
 62
7
100
AcDbSpline
 70
8
 71
3
 72
8
 73
4
 74
0
 40
0
 40
0
 40
0
 40
0
 40
1
 40
1
 40
1
 40
1
 10
17.353253
 20
6.271162
 30
0.0
 10
17.318461
 20
6.271162
 30
0.0
 10
17.290257
 20
6.299366
 30
0.0
 10
17.290257
 20
6.334158
 30
0.0
  0
SPLINE
  5
1ef
100
AcDbEntity
  8
Layer_1
 62
7
100
AcDbSpline
 70
8
 71
3
 72
8
 73
4
 74
0
 40
0
 40
0
 40
0
 40
0
 40
1
 40
1
 40
1
 40
1
 10
17.290257
 20
6.334158
 30
0.0
 10
17.290257
 20
6.350866
 30
0.0
 10
17.296894
 20
6.366889
 30
0.0
 10
17.308708
 20
6.378703
 30
0.0
  0
SPLINE
  5
1f0
100
AcDbEntity
  8
Layer_1
 62
7
100
AcDbSpline
 70
8
 71
3
 72
8
 73
4
 74
0
 40
0
 40
0
 40
0
 40
0
 40
1
 40
1
 40
1
 40
1
 10
17.308708
 20
6.378703
 30
0.0
 10
17.320522
 20
6.390517
 30
0.0
 10
17.336545
 20
6.397154
 30
0.0
 10
17.353253
 20
6.397154
 30
0.0
  0
SPLINE
  5
1f1
100
AcDbEntity
  8
Layer_1
 62
7
100
AcDbSpline
 70
8
 71
3
 72
8
 73
4
 74
0
 40
0
 40
0
 40
0
 40
0
 40
1
 40
1
 40
1
 40
1
 10
17.353253
 20
6.397154
 30
0.0
 10
17.369961
 20
6.397154
 30
0.0
 10
17.385984
 20
6.390517
 30
0.0
 10
17.397798
 20
6.378703
 30
0.0
  0
SPLINE
  5
1f2
100
AcDbEntity
  8
Layer_1
 62
7
100
AcDbSpline
 70
8
 71
3
 72
8
 73
4
 74
0
 40
0
 40
0
 40
0
 40
0
 40
1
 40
1
 40
1
 40
1
 10
17.397798
 20
6.378703
 30
0.0
 10
17.409612
 20
6.366889
 30
0.0
 10
17.416249
 20
6.350866
 30
0.0
 10
17.416249
 20
6.334158
 30
0.0
  0
SPLINE
  5
1f3
100
AcDbEntity
  8
Layer_1
 62
7
100
AcDbSpline
 70
8
 71
3
 72
8
 73
4
 74
0
 40
0
 40
0
 40
0
 40
0
 40
1
 40
1
 40
1
 40
1
 10
17.416249
 20
6.334158
 30
0.0
 10
17.416249
 20
6.299366
 30
0.0
 10
17.388045
 20
6.271162
 30
0.0
 10
17.353253
 20
6.271162
 30
0.0
  0
SPLINE
  5
1f4
100
AcDbEntity
  8
Layer_1
 62
7
100
AcDbSpline
 70
8
 71
3
 72
8
 73
4
 74
0
 40
0
 40
0
 40
0
 40
0
 40
1
 40
1
 40
1
 40
1
 10
17.355289
 20
10.007671
 30
0.0
 10
17.320497
 20
10.007671
 30
0.0
 10
17.292293
 20
10.035875
 30
0.0
 10
17.292293
 20
10.070666
 30
0.0
  0
SPLINE
  5
1f5
100
AcDbEntity
  8
Layer_1
 62
7
100
AcDbSpline
 70
8
 71
3
 72
8
 73
4
 74
0
 40
0
 40
0
 40
0
 40
0
 40
1
 40
1
 40
1
 40
1
 10
17.292293
 20
10.070666
 30
0.0
 10
17.292293
 20
10.105458
 30
0.0
 10
17.320497
 20
10.133662
 30
0.0
 10
17.355289
 20
10.133662
 30
0.0
  0
SPLINE
  5
1f6
100
AcDbEntity
  8
Layer_1
 62
7
100
AcDbSpline
 70
8
 71
3
 72
8
 73
4
 74
0
 40
0
 40
0
 40
0
 40
0
 40
1
 40
1
 40
1
 40
1
 10
17.355289
 20
10.133662
 30
0.0
 10
17.390080
 20
10.133662
 30
0.0
 10
17.418285
 20
10.105458
 30
0.0
 10
17.418285
 20
10.070666
 30
0.0
  0
SPLINE
  5
1f7
100
AcDbEntity
  8
Layer_1
 62
7
100
AcDbSpline
 70
8
 71
3
 72
8
 73
4
 74
0
 40
0
 40
0
 40
0
 40
0
 40
1
 40
1
 40
1
 40
1
 10
17.418285
 20
10.070666
 30
0.0
 10
17.418285
 20
10.035875
 30
0.0
 10
17.390080
 20
10.007671
 30
0.0
 10
17.355289
 20
10.007671
 30
0.0
  0
SPLINE
  5
1f8
100
AcDbEntity
  8
Layer_1
 62
7
100
AcDbSpline
 70
8
 71
3
 72
8
 73
4
 74
0
 40
0
 40
0
 40
0
 40
0
 40
1
 40
1
 40
1
 40
1
 10
13.615746
 20
6.271893
 30
0.0
 10
13.599038
 20
6.271893
 30
0.0
 10
13.583015
 20
6.278530
 30
0.0
 10
13.571201
 20
6.290344
 30
0.0
  0
SPLINE
  5
1f9
100
AcDbEntity
  8
Layer_1
 62
7
100
AcDbSpline
 70
8
 71
3
 72
8
 73
4
 74
0
 40
0
 40
0
 40
0
 40
0
 40
1
 40
1
 40
1
 40
1
 10
13.571201
 20
6.290344
 30
0.0
 10
13.559387
 20
6.302158
 30
0.0
 10
13.552750
 20
6.318182
 30
0.0
 10
13.552750
 20
6.334889
 30
0.0
  0
SPLINE
  5
1fa
100
AcDbEntity
  8
Layer_1
 62
7
100
AcDbSpline
 70
8
 71
3
 72
8
 73
4
 74
0
 40
0
 40
0
 40
0
 40
0
 40
1
 40
1
 40
1
 40
1
 10
13.552750
 20
6.334889
 30
0.0
 10
13.552750
 20
6.369681
 30
0.0
 10
13.580954
 20
6.397885
 30
0.0
 10
13.615746
 20
6.397885
 30
0.0
  0
SPLINE
  5
1fb
100
AcDbEntity
  8
Layer_1
 62
7
100
AcDbSpline
 70
8
 71
3
 72
8
 73
4
 74
0
 40
0
 40
0
 40
0
 40
0
 40
1
 40
1
 40
1
 40
1
 10
13.615746
 20
6.397885
 30
0.0
 10
13.650537
 20
6.397885
 30
0.0
 10
13.678741
 20
6.369681
 30
0.0
 10
13.678741
 20
6.334889
 30
0.0
  0
SPLINE
  5
1fc
100
AcDbEntity
  8
Layer_1
 62
7
100
AcDbSpline
 70
8
 71
3
 72
8
 73
4
 74
0
 40
0
 40
0
 40
0
 40
0
 40
1
 40
1
 40
1
 40
1
 10
13.678741
 20
6.334889
 30
0.0
 10
13.678742
 20
6.300098
 30
0.0
 10
13.650538
 20
6.271893
 30
0.0
 10
13.615746
 20
6.271893
 30
0.0
  0
SPLINE
  5
1fd
100
AcDbEntity
  8
Layer_1
 62
7
100
AcDbSpline
 70
8
 71
3
 72
8
 73
4
 74
0
 40
0
 40
0
 40
0
 40
0
 40
1
 40
1
 40
1
 40
1
 10
13.617781
 20
10.008402
 30
0.0
 10
13.601073
 20
10.008402
 30
0.0
 10
13.585050
 20
10.015039
 30
0.0
 10
13.573236
 20
10.026854
 30
0.0
  0
SPLINE
  5
1fe
100
AcDbEntity
  8
Layer_1
 62
7
100
AcDbSpline
 70
8
 71
3
 72
8
 73
4
 74
0
 40
0
 40
0
 40
0
 40
0
 40
1
 40
1
 40
1
 40
1
 10
13.573236
 20
10.026854
 30
0.0
 10
13.561421
 20
10.038668
 30
0.0
 10
13.554785
 20
10.054692
 30
0.0
 10
13.554785
 20
10.071400
 30
0.0
  0
SPLINE
  5
1ff
100
AcDbEntity
  8
Layer_1
 62
7
100
AcDbSpline
 70
8
 71
3
 72
8
 73
4
 74
0
 40
0
 40
0
 40
0
 40
0
 40
1
 40
1
 40
1
 40
1
 10
13.554785
 20
10.071400
 30
0.0
 10
13.554785
 20
10.106191
 30
0.0
 10
13.582989
 20
10.134395
 30
0.0
 10
13.617781
 20
10.134396
 30
0.0
  0
SPLINE
  5
200
100
AcDbEntity
  8
Layer_1
 62
7
100
AcDbSpline
 70
8
 71
3
 72
8
 73
4
 74
0
 40
0
 40
0
 40
0
 40
0
 40
1
 40
1
 40
1
 40
1
 10
13.617781
 20
10.134396
 30
0.0
 10
13.634488
 20
10.134396
 30
0.0
 10
13.650512
 20
10.127759
 30
0.0
 10
13.662326
 20
10.115945
 30
0.0
  0
SPLINE
  5
201
100
AcDbEntity
  8
Layer_1
 62
7
100
AcDbSpline
 70
8
 71
3
 72
8
 73
4
 74
0
 40
0
 40
0
 40
0
 40
0
 40
1
 40
1
 40
1
 40
1
 10
13.662326
 20
10.115945
 30
0.0
 10
13.674140
 20
10.104131
 30
0.0
 10
13.680777
 20
10.088107
 30
0.0
 10
13.680777
 20
10.071400
 30
0.0
  0
SPLINE
  5
202
100
AcDbEntity
  8
Layer_1
 62
7
100
AcDbSpline
 70
8
 71
3
 72
8
 73
4
 74
0
 40
0
 40
0
 40
0
 40
0
 40
1
 40
1
 40
1
 40
1
 10
13.680777
 20
10.071400
 30
0.0
 10
13.680778
 20
10.054692
 30
0.0
 10
13.674141
 20
10.038668
 30
0.0
 10
13.662327
 20
10.026853
 30
0.0
  0
SPLINE
  5
203
100
AcDbEntity
  8
Layer_1
 62
7
100
AcDbSpline
 70
8
 71
3
 72
8
 73
4
 74
0
 40
0
 40
0
 40
0
 40
0
 40
1
 40
1
 40
1
 40
1
 10
13.662327
 20
10.026853
 30
0.0
 10
13.650513
 20
10.015039
 30
0.0
 10
13.634489
 20
10.008402
 30
0.0
 10
13.617781
 20
10.008402
 30
0.0
  0
SPLINE
  5
204
100
AcDbEntity
  8
Layer_1
 62
7
100
AcDbSpline
 70
8
 71
3
 72
8
 73
4
 74
0
 40
0
 40
0
 40
0
 40
0
 40
1
 40
1
 40
1
 40
1
 10
18.759019
 20
12.666744
 30
0.0
 10
18.724227
 20
12.666744
 30
0.0
 10
18.696023
 20
12.694948
 30
0.0
 10
18.696022
 20
12.729739
 30
0.0
  0
SPLINE
  5
205
100
AcDbEntity
  8
Layer_1
 62
7
100
AcDbSpline
 70
8
 71
3
 72
8
 73
4
 74
0
 40
0
 40
0
 40
0
 40
0
 40
1
 40
1
 40
1
 40
1
 10
18.696022
 20
12.729739
 30
0.0
 10
18.696023
 20
12.764531
 30
0.0
 10
18.724227
 20
12.792735
 30
0.0
 10
18.759019
 20
12.792735
 30
0.0
  0
SPLINE
  5
206
100
AcDbEntity
  8
Layer_1
 62
7
100
AcDbSpline
 70
8
 71
3
 72
8
 73
4
 74
0
 40
0
 40
0
 40
0
 40
0
 40
1
 40
1
 40
1
 40
1
 10
18.759019
 20
12.792735
 30
0.0
 10
18.793810
 20
12.792735
 30
0.0
 10
18.822014
 20
12.764531
 30
0.0
 10
18.822015
 20
12.729739
 30
0.0
  0
SPLINE
  5
207
100
AcDbEntity
  8
Layer_1
 62
7
100
AcDbSpline
 70
8
 71
3
 72
8
 73
4
 74
0
 40
0
 40
0
 40
0
 40
0
 40
1
 40
1
 40
1
 40
1
 10
18.822015
 20
12.729739
 30
0.0
 10
18.822014
 20
12.694948
 30
0.0
 10
18.793810
 20
12.666744
 30
0.0
 10
18.759019
 20
12.666744
 30
0.0
  0
SPLINE
  5
208
100
AcDbEntity
  8
Layer_1
 62
7
100
AcDbSpline
 70
8
 71
3
 72
8
 73
4
 74
0
 40
0
 40
0
 40
0
 40
0
 40
1
 40
1
 40
1
 40
1
 10
20.013676
 20
11.450066
 30
0.0
 10
19.978885
 20
11.450066
 30
0.0
 10
19.950680
 20
11.478271
 30
0.0
 10
19.950680
 20
11.513062
 30
0.0
  0
SPLINE
  5
209
100
AcDbEntity
  8
Layer_1
 62
7
100
AcDbSpline
 70
8
 71
3
 72
8
 73
4
 74
0
 40
0
 40
0
 40
0
 40
0
 40
1
 40
1
 40
1
 40
1
 10
19.950680
 20
11.513062
 30
0.0
 10
19.950680
 20
11.547854
 30
0.0
 10
19.978885
 20
11.576058
 30
0.0
 10
20.013676
 20
11.576058
 30
0.0
  0
SPLINE
  5
20a
100
AcDbEntity
  8
Layer_1
 62
7
100
AcDbSpline
 70
8
 71
3
 72
8
 73
4
 74
0
 40
0
 40
0
 40
0
 40
0
 40
1
 40
1
 40
1
 40
1
 10
20.013676
 20
11.576058
 30
0.0
 10
20.048468
 20
11.576058
 30
0.0
 10
20.076672
 20
11.547854
 30
0.0
 10
20.076672
 20
11.513062
 30
0.0
  0
SPLINE
  5
20b
100
AcDbEntity
  8
Layer_1
 62
7
100
AcDbSpline
 70
8
 71
3
 72
8
 73
4
 74
0
 40
0
 40
0
 40
0
 40
0
 40
1
 40
1
 40
1
 40
1
 10
20.076672
 20
11.513062
 30
0.0
 10
20.076672
 20
11.478271
 30
0.0
 10
20.048468
 20
11.450066
 30
0.0
 10
20.013676
 20
11.450066
 30
0.0
  0
SPLINE
  5
20c
100
AcDbEntity
  8
Layer_1
 62
7
100
AcDbSpline
 70
8
 71
3
 72
8
 73
4
 74
0
 40
0
 40
0
 40
0
 40
0
 40
1
 40
1
 40
1
 40
1
 10
10.922806
 20
11.576058
 30
0.0
 10
10.888014
 20
11.576058
 30
0.0
 10
10.859810
 20
11.547854
 30
0.0
 10
10.859810
 20
11.513062
 30
0.0
  0
SPLINE
  5
20d
100
AcDbEntity
  8
Layer_1
 62
7
100
AcDbSpline
 70
8
 71
3
 72
8
 73
4
 74
0
 40
0
 40
0
 40
0
 40
0
 40
1
 40
1
 40
1
 40
1
 10
10.859810
 20
11.513062
 30
0.0
 10
10.859810
 20
11.478271
 30
0.0
 10
10.888014
 20
11.450066
 30
0.0
 10
10.922806
 20
11.450066
 30
0.0
  0
SPLINE
  5
20e
100
AcDbEntity
  8
Layer_1
 62
7
100
AcDbSpline
 70
8
 71
3
 72
8
 73
4
 74
0
 40
0
 40
0
 40
0
 40
0
 40
1
 40
1
 40
1
 40
1
 10
10.922806
 20
11.450066
 30
0.0
 10
10.957598
 20
11.450067
 30
0.0
 10
10.985802
 20
11.478271
 30
0.0
 10
10.985802
 20
11.513062
 30
0.0
  0
SPLINE
  5
20f
100
AcDbEntity
  8
Layer_1
 62
7
100
AcDbSpline
 70
8
 71
3
 72
8
 73
4
 74
0
 40
0
 40
0
 40
0
 40
0
 40
1
 40
1
 40
1
 40
1
 10
10.985802
 20
11.513062
 30
0.0
 10
10.985802
 20
11.547854
 30
0.0
 10
10.957598
 20
11.576058
 30
0.0
 10
10.922806
 20
11.576058
 30
0.0
  0
SPLINE
  5
210
100
AcDbEntity
  8
Layer_1
 62
7
100
AcDbSpline
 70
8
 71
3
 72
8
 73
4
 74
0
 40
0
 40
0
 40
0
 40
0
 40
1
 40
1
 40
1
 40
1
 10
12.177464
 20
12.792735
 30
0.0
 10
12.142673
 20
12.792735
 30
0.0
 10
12.114469
 20
12.764531
 30
0.0
 10
12.114469
 20
12.729739
 30
0.0
  0
SPLINE
  5
211
100
AcDbEntity
  8
Layer_1
 62
7
100
AcDbSpline
 70
8
 71
3
 72
8
 73
4
 74
0
 40
0
 40
0
 40
0
 40
0
 40
1
 40
1
 40
1
 40
1
 10
12.114469
 20
12.729739
 30
0.0
 10
12.114469
 20
12.694948
 30
0.0
 10
12.142673
 20
12.666744
 30
0.0
 10
12.177464
 20
12.666744
 30
0.0
  0
SPLINE
  5
212
100
AcDbEntity
  8
Layer_1
 62
7
100
AcDbSpline
 70
8
 71
3
 72
8
 73
4
 74
0
 40
0
 40
0
 40
0
 40
0
 40
1
 40
1
 40
1
 40
1
 10
12.177464
 20
12.666744
 30
0.0
 10
12.194172
 20
12.666743
 30
0.0
 10
12.210196
 20
12.673380
 30
0.0
 10
12.222010
 20
12.685194
 30
0.0
  0
SPLINE
  5
213
100
AcDbEntity
  8
Layer_1
 62
7
100
AcDbSpline
 70
8
 71
3
 72
8
 73
4
 74
0
 40
0
 40
0
 40
0
 40
0
 40
1
 40
1
 40
1
 40
1
 10
12.222010
 20
12.685194
 30
0.0
 10
12.233825
 20
12.697008
 30
0.0
 10
12.240462
 20
12.713032
 30
0.0
 10
12.240462
 20
12.729739
 30
0.0
  0
SPLINE
  5
214
100
AcDbEntity
  8
Layer_1
 62
7
100
AcDbSpline
 70
8
 71
3
 72
8
 73
4
 74
0
 40
0
 40
0
 40
0
 40
0
 40
1
 40
1
 40
1
 40
1
 10
12.240462
 20
12.729739
 30
0.0
 10
12.240462
 20
12.746447
 30
0.0
 10
12.233825
 20
12.762471
 30
0.0
 10
12.222010
 20
12.774285
 30
0.0
  0
SPLINE
  5
215
100
AcDbEntity
  8
Layer_1
 62
7
100
AcDbSpline
 70
8
 71
3
 72
8
 73
4
 74
0
 40
0
 40
0
 40
0
 40
0
 40
1
 40
1
 40
1
 40
1
 10
12.222010
 20
12.774285
 30
0.0
 10
12.210196
 20
12.786099
 30
0.0
 10
12.194172
 20
12.792736
 30
0.0
 10
12.177464
 20
12.792735
 30
0.0
  0
SPLINE
  5
216
100
AcDbEntity
  8
Layer_1
 62
7
100
AcDbSpline
 70
8
 71
3
 72
8
 73
4
 74
0
 40
0
 40
0
 40
0
 40
0
 40
1
 40
1
 40
1
 40
1
 10
19.996439
 20
-2.790173
 30
0.0
 10
19.961647
 20
-2.790173
 30
0.0
 10
19.933443
 20
-2.761969
 30
0.0
 10
19.933443
 20
-2.727177
 30
0.0
  0
SPLINE
  5
217
100
AcDbEntity
  8
Layer_1
 62
7
100
AcDbSpline
 70
8
 71
3
 72
8
 73
4
 74
0
 40
0
 40
0
 40
0
 40
0
 40
1
 40
1
 40
1
 40
1
 10
19.933443
 20
-2.727177
 30
0.0
 10
19.933443
 20
-2.692385
 30
0.0
 10
19.961647
 20
-2.664181
 30
0.0
 10
19.996439
 20
-2.664181
 30
0.0
  0
SPLINE
  5
218
100
AcDbEntity
  8
Layer_1
 62
7
100
AcDbSpline
 70
8
 71
3
 72
8
 73
4
 74
0
 40
0
 40
0
 40
0
 40
0
 40
1
 40
1
 40
1
 40
1
 10
19.996439
 20
-2.664181
 30
0.0
 10
20.031231
 20
-2.664181
 30
0.0
 10
20.059435
 20
-2.692385
 30
0.0
 10
20.059435
 20
-2.727177
 30
0.0
  0
SPLINE
  5
219
100
AcDbEntity
  8
Layer_1
 62
7
100
AcDbSpline
 70
8
 71
3
 72
8
 73
4
 74
0
 40
0
 40
0
 40
0
 40
0
 40
1
 40
1
 40
1
 40
1
 10
20.059435
 20
-2.727177
 30
0.0
 10
20.059435
 20
-2.761969
 30
0.0
 10
20.031231
 20
-2.790173
 30
0.0
 10
19.996439
 20
-2.790173
 30
0.0
  0
SPLINE
  5
21a
100
AcDbEntity
  8
Layer_1
 62
7
100
AcDbSpline
 70
8
 71
3
 72
8
 73
4
 74
0
 40
0
 40
0
 40
0
 40
0
 40
1
 40
1
 40
1
 40
1
 10
20.010563
 20
4.532639
 30
0.0
 10
19.975772
 20
4.532639
 30
0.0
 10
19.947568
 20
4.560843
 30
0.0
 10
19.947567
 20
4.595635
 30
0.0
  0
SPLINE
  5
21b
100
AcDbEntity
  8
Layer_1
 62
7
100
AcDbSpline
 70
8
 71
3
 72
8
 73
4
 74
0
 40
0
 40
0
 40
0
 40
0
 40
1
 40
1
 40
1
 40
1
 10
19.947567
 20
4.595635
 30
0.0
 10
19.947567
 20
4.612342
 30
0.0
 10
19.954204
 20
4.628366
 30
0.0
 10
19.966018
 20
4.640180
 30
0.0
  0
SPLINE
  5
21c
100
AcDbEntity
  8
Layer_1
 62
7
100
AcDbSpline
 70
8
 71
3
 72
8
 73
4
 74
0
 40
0
 40
0
 40
0
 40
0
 40
1
 40
1
 40
1
 40
1
 10
19.966018
 20
4.640180
 30
0.0
 10
19.977832
 20
4.651994
 30
0.0
 10
19.993856
 20
4.658631
 30
0.0
 10
20.010563
 20
4.658631
 30
0.0
  0
SPLINE
  5
21d
100
AcDbEntity
  8
Layer_1
 62
7
100
AcDbSpline
 70
8
 71
3
 72
8
 73
4
 74
0
 40
0
 40
0
 40
0
 40
0
 40
1
 40
1
 40
1
 40
1
 10
20.010563
 20
4.658631
 30
0.0
 10
20.027271
 20
4.658631
 30
0.0
 10
20.043294
 20
4.651994
 30
0.0
 10
20.055108
 20
4.640180
 30
0.0
  0
SPLINE
  5
21e
100
AcDbEntity
  8
Layer_1
 62
7
100
AcDbSpline
 70
8
 71
3
 72
8
 73
4
 74
0
 40
0
 40
0
 40
0
 40
0
 40
1
 40
1
 40
1
 40
1
 10
20.055108
 20
4.640180
 30
0.0
 10
20.066922
 20
4.628366
 30
0.0
 10
20.073559
 20
4.612342
 30
0.0
 10
20.073559
 20
4.595635
 30
0.0
  0
SPLINE
  5
21f
100
AcDbEntity
  8
Layer_1
 62
7
100
AcDbSpline
 70
8
 71
3
 72
8
 73
4
 74
0
 40
0
 40
0
 40
0
 40
0
 40
1
 40
1
 40
1
 40
1
 10
20.073559
 20
4.595635
 30
0.0
 10
20.073559
 20
4.560843
 30
0.0
 10
20.045355
 20
4.532639
 30
0.0
 10
20.010563
 20
4.532639
 30
0.0
  0
SPLINE
  5
220
100
AcDbEntity
  8
Layer_1
 62
7
100
AcDbSpline
 70
8
 71
3
 72
8
 73
4
 74
0
 40
0
 40
0
 40
0
 40
0
 40
1
 40
1
 40
1
 40
1
 10
19.994991
 20
0.951245
 30
0.0
 10
19.978283
 20
0.951245
 30
0.0
 10
19.962260
 20
0.957882
 30
0.0
 10
19.950446
 20
0.969696
 30
0.0
  0
SPLINE
  5
221
100
AcDbEntity
  8
Layer_1
 62
7
100
AcDbSpline
 70
8
 71
3
 72
8
 73
4
 74
0
 40
0
 40
0
 40
0
 40
0
 40
1
 40
1
 40
1
 40
1
 10
19.950446
 20
0.969696
 30
0.0
 10
19.938632
 20
0.981510
 30
0.0
 10
19.931995
 20
0.997534
 30
0.0
 10
19.931995
 20
1.014241
 30
0.0
  0
SPLINE
  5
222
100
AcDbEntity
  8
Layer_1
 62
7
100
AcDbSpline
 70
8
 71
3
 72
8
 73
4
 74
0
 40
0
 40
0
 40
0
 40
0
 40
1
 40
1
 40
1
 40
1
 10
19.931995
 20
1.014241
 30
0.0
 10
19.931995
 20
1.049033
 30
0.0
 10
19.960199
 20
1.077237
 30
0.0
 10
19.994991
 20
1.077237
 30
0.0
  0
SPLINE
  5
223
100
AcDbEntity
  8
Layer_1
 62
7
100
AcDbSpline
 70
8
 71
3
 72
8
 73
4
 74
0
 40
0
 40
0
 40
0
 40
0
 40
1
 40
1
 40
1
 40
1
 10
19.994991
 20
1.077237
 30
0.0
 10
20.029782
 20
1.077237
 30
0.0
 10
20.057987
 20
1.049033
 30
0.0
 10
20.057987
 20
1.014241
 30
0.0
  0
SPLINE
  5
224
100
AcDbEntity
  8
Layer_1
 62
7
100
AcDbSpline
 70
8
 71
3
 72
8
 73
4
 74
0
 40
0
 40
0
 40
0
 40
0
 40
1
 40
1
 40
1
 40
1
 10
20.057987
 20
1.014241
 30
0.0
 10
20.057987
 20
0.997534
 30
0.0
 10
20.051350
 20
0.981510
 30
0.0
 10
20.039536
 20
0.969696
 30
0.0
  0
SPLINE
  5
225
100
AcDbEntity
  8
Layer_1
 62
7
100
AcDbSpline
 70
8
 71
3
 72
8
 73
4
 74
0
 40
0
 40
0
 40
0
 40
0
 40
1
 40
1
 40
1
 40
1
 10
20.039536
 20
0.969696
 30
0.0
 10
20.027722
 20
0.957882
 30
0.0
 10
20.011698
 20
0.951245
 30
0.0
 10
19.994991
 20
0.951245
 30
0.0
  0
SPLINE
  5
226
100
AcDbEntity
  8
Layer_1
 62
7
100
AcDbSpline
 70
8
 71
3
 72
8
 73
4
 74
0
 40
0
 40
0
 40
0
 40
0
 40
1
 40
1
 40
1
 40
1
 10
19.994992
 20
8.191889
 30
0.0
 10
19.960200
 20
8.191889
 30
0.0
 10
19.931996
 20
8.220094
 30
0.0
 10
19.931996
 20
8.254885
 30
0.0
  0
SPLINE
  5
227
100
AcDbEntity
  8
Layer_1
 62
7
100
AcDbSpline
 70
8
 71
3
 72
8
 73
4
 74
0
 40
0
 40
0
 40
0
 40
0
 40
1
 40
1
 40
1
 40
1
 10
19.931996
 20
8.254885
 30
0.0
 10
19.931996
 20
8.289677
 30
0.0
 10
19.960200
 20
8.317881
 30
0.0
 10
19.994992
 20
8.317881
 30
0.0
  0
SPLINE
  5
228
100
AcDbEntity
  8
Layer_1
 62
7
100
AcDbSpline
 70
8
 71
3
 72
8
 73
4
 74
0
 40
0
 40
0
 40
0
 40
0
 40
1
 40
1
 40
1
 40
1
 10
19.994992
 20
8.317881
 30
0.0
 10
20.029784
 20
8.317881
 30
0.0
 10
20.057988
 20
8.289677
 30
0.0
 10
20.057988
 20
8.254885
 30
0.0
  0
SPLINE
  5
229
100
AcDbEntity
  8
Layer_1
 62
7
100
AcDbSpline
 70
8
 71
3
 72
8
 73
4
 74
0
 40
0
 40
0
 40
0
 40
0
 40
1
 40
1
 40
1
 40
1
 10
20.057988
 20
8.254885
 30
0.0
 10
20.057988
 20
8.220094
 30
0.0
 10
20.029784
 20
8.191889
 30
0.0
 10
19.994992
 20
8.191889
 30
0.0
  0
SPLINE
  5
22a
100
AcDbEntity
  8
Layer_1
 62
7
100
AcDbSpline
 70
8
 71
3
 72
8
 73
4
 74
0
 40
0
 40
0
 40
0
 40
0
 40
1
 40
1
 40
1
 40
1
 10
17.270017
 20
3.597495
 30
0.0
 10
17.235226
 20
3.597496
 30
0.0
 10
17.207022
 20
3.625700
 30
0.0
 10
17.207022
 20
3.660491
 30
0.0
  0
SPLINE
  5
22b
100
AcDbEntity
  8
Layer_1
 62
7
100
AcDbSpline
 70
8
 71
3
 72
8
 73
4
 74
0
 40
0
 40
0
 40
0
 40
0
 40
1
 40
1
 40
1
 40
1
 10
17.207022
 20
3.660491
 30
0.0
 10
17.207021
 20
3.677199
 30
0.0
 10
17.213658
 20
3.693223
 30
0.0
 10
17.225472
 20
3.705038
 30
0.0
  0
SPLINE
  5
22c
100
AcDbEntity
  8
Layer_1
 62
7
100
AcDbSpline
 70
8
 71
3
 72
8
 73
4
 74
0
 40
0
 40
0
 40
0
 40
0
 40
1
 40
1
 40
1
 40
1
 10
17.225472
 20
3.705038
 30
0.0
 10
17.237286
 20
3.716852
 30
0.0
 10
17.253310
 20
3.723489
 30
0.0
 10
17.270018
 20
3.723489
 30
0.0
  0
SPLINE
  5
22d
100
AcDbEntity
  8
Layer_1
 62
7
100
AcDbSpline
 70
8
 71
3
 72
8
 73
4
 74
0
 40
0
 40
0
 40
0
 40
0
 40
1
 40
1
 40
1
 40
1
 10
17.270018
 20
3.723489
 30
0.0
 10
17.286725
 20
3.723489
 30
0.0
 10
17.302749
 20
3.716852
 30
0.0
 10
17.314563
 20
3.705038
 30
0.0
  0
SPLINE
  5
22e
100
AcDbEntity
  8
Layer_1
 62
7
100
AcDbSpline
 70
8
 71
3
 72
8
 73
4
 74
0
 40
0
 40
0
 40
0
 40
0
 40
1
 40
1
 40
1
 40
1
 10
17.314563
 20
3.705038
 30
0.0
 10
17.326377
 20
3.693223
 30
0.0
 10
17.333014
 20
3.677199
 30
0.0
 10
17.333014
 20
3.660491
 30
0.0
  0
SPLINE
  5
22f
100
AcDbEntity
  8
Layer_1
 62
7
100
AcDbSpline
 70
8
 71
3
 72
8
 73
4
 74
0
 40
0
 40
0
 40
0
 40
0
 40
1
 40
1
 40
1
 40
1
 10
17.333014
 20
3.660491
 30
0.0
 10
17.333014
 20
3.643784
 30
0.0
 10
17.326376
 20
3.627761
 30
0.0
 10
17.314562
 20
3.615947
 30
0.0
  0
SPLINE
  5
230
100
AcDbEntity
  8
Layer_1
 62
7
100
AcDbSpline
 70
8
 71
3
 72
8
 73
4
 74
0
 40
0
 40
0
 40
0
 40
0
 40
1
 40
1
 40
1
 40
1
 10
17.314562
 20
3.615947
 30
0.0
 10
17.302748
 20
3.604132
 30
0.0
 10
17.286725
 20
3.597495
 30
0.0
 10
17.270018
 20
3.597495
 30
0.0
  0
SPLINE
  5
231
100
AcDbEntity
  8
Layer_1
 62
7
100
AcDbSpline
 70
8
 71
3
 72
8
 73
4
 74
0
 40
0
 40
0
 40
0
 40
0
 40
1
 40
1
 40
1
 40
1
 10
17.347874
 20
-2.801435
 30
0.0
 10
17.331166
 20
-2.801436
 30
0.0
 10
17.315142
 20
-2.794799
 30
0.0
 10
17.303327
 20
-2.782984
 30
0.0
  0
SPLINE
  5
232
100
AcDbEntity
  8
Layer_1
 62
7
100
AcDbSpline
 70
8
 71
3
 72
8
 73
4
 74
0
 40
0
 40
0
 40
0
 40
0
 40
1
 40
1
 40
1
 40
1
 10
17.303327
 20
-2.782984
 30
0.0
 10
17.291513
 20
-2.771170
 30
0.0
 10
17.284876
 20
-2.755146
 30
0.0
 10
17.284876
 20
-2.738437
 30
0.0
  0
SPLINE
  5
233
100
AcDbEntity
  8
Layer_1
 62
7
100
AcDbSpline
 70
8
 71
3
 72
8
 73
4
 74
0
 40
0
 40
0
 40
0
 40
0
 40
1
 40
1
 40
1
 40
1
 10
17.284876
 20
-2.738437
 30
0.0
 10
17.284876
 20
-2.721730
 30
0.0
 10
17.291514
 20
-2.705706
 30
0.0
 10
17.303328
 20
-2.693892
 30
0.0
  0
SPLINE
  5
234
100
AcDbEntity
  8
Layer_1
 62
7
100
AcDbSpline
 70
8
 71
3
 72
8
 73
4
 74
0
 40
0
 40
0
 40
0
 40
0
 40
1
 40
1
 40
1
 40
1
 10
17.303328
 20
-2.693892
 30
0.0
 10
17.315143
 20
-2.682078
 30
0.0
 10
17.331166
 20
-2.675441
 30
0.0
 10
17.347874
 20
-2.675442
 30
0.0
  0
SPLINE
  5
235
100
AcDbEntity
  8
Layer_1
 62
7
100
AcDbSpline
 70
8
 71
3
 72
8
 73
4
 74
0
 40
0
 40
0
 40
0
 40
0
 40
1
 40
1
 40
1
 40
1
 10
17.347874
 20
-2.675442
 30
0.0
 10
17.382666
 20
-2.675442
 30
0.0
 10
17.410870
 20
-2.703646
 30
0.0
 10
17.410870
 20
-2.738437
 30
0.0
  0
SPLINE
  5
236
100
AcDbEntity
  8
Layer_1
 62
7
100
AcDbSpline
 70
8
 71
3
 72
8
 73
4
 74
0
 40
0
 40
0
 40
0
 40
0
 40
1
 40
1
 40
1
 40
1
 10
17.410870
 20
-2.738437
 30
0.0
 10
17.410871
 20
-2.755145
 30
0.0
 10
17.404234
 20
-2.771169
 30
0.0
 10
17.392420
 20
-2.782984
 30
0.0
  0
SPLINE
  5
237
100
AcDbEntity
  8
Layer_1
 62
7
100
AcDbSpline
 70
8
 71
3
 72
8
 73
4
 74
0
 40
0
 40
0
 40
0
 40
0
 40
1
 40
1
 40
1
 40
1
 10
17.392420
 20
-2.782984
 30
0.0
 10
17.380606
 20
-2.794798
 30
0.0
 10
17.364582
 20
-2.801435
 30
0.0
 10
17.347874
 20
-2.801435
 30
0.0
  0
SPLINE
  5
238
100
AcDbEntity
  8
Layer_1
 62
7
100
AcDbSpline
 70
8
 71
3
 72
8
 73
4
 74
0
 40
0
 40
0
 40
0
 40
0
 40
1
 40
1
 40
1
 40
1
 10
13.593922
 20
3.575452
 30
0.0
 10
13.559131
 20
3.575452
 30
0.0
 10
13.530927
 20
3.603656
 30
0.0
 10
13.530927
 20
3.638448
 30
0.0
  0
SPLINE
  5
239
100
AcDbEntity
  8
Layer_1
 62
7
100
AcDbSpline
 70
8
 71
3
 72
8
 73
4
 74
0
 40
0
 40
0
 40
0
 40
0
 40
1
 40
1
 40
1
 40
1
 10
13.530927
 20
3.638448
 30
0.0
 10
13.530927
 20
3.673239
 30
0.0
 10
13.559131
 20
3.701443
 30
0.0
 10
13.593923
 20
3.701444
 30
0.0
  0
SPLINE
  5
23a
100
AcDbEntity
  8
Layer_1
 62
7
100
AcDbSpline
 70
8
 71
3
 72
8
 73
4
 74
0
 40
0
 40
0
 40
0
 40
0
 40
1
 40
1
 40
1
 40
1
 10
13.593923
 20
3.701444
 30
0.0
 10
13.628714
 20
3.701443
 30
0.0
 10
13.656918
 20
3.673239
 30
0.0
 10
13.656918
 20
3.638448
 30
0.0
  0
SPLINE
  5
23b
100
AcDbEntity
  8
Layer_1
 62
7
100
AcDbSpline
 70
8
 71
3
 72
8
 73
4
 74
0
 40
0
 40
0
 40
0
 40
0
 40
1
 40
1
 40
1
 40
1
 10
13.656918
 20
3.638448
 30
0.0
 10
13.656918
 20
3.603656
 30
0.0
 10
13.628714
 20
3.575452
 30
0.0
 10
13.593922
 20
3.575452
 30
0.0
  0
SPLINE
  5
23c
100
AcDbEntity
  8
Layer_1
 62
7
100
AcDbSpline
 70
8
 71
3
 72
8
 73
4
 74
0
 40
0
 40
0
 40
0
 40
0
 40
1
 40
1
 40
1
 40
1
 10
13.558800
 20
-2.780794
 30
0.0
 10
13.524008
 20
-2.780794
 30
0.0
 10
13.495804
 20
-2.752590
 30
0.0
 10
13.495804
 20
-2.717798
 30
0.0
  0
SPLINE
  5
23d
100
AcDbEntity
  8
Layer_1
 62
7
100
AcDbSpline
 70
8
 71
3
 72
8
 73
4
 74
0
 40
0
 40
0
 40
0
 40
0
 40
1
 40
1
 40
1
 40
1
 10
13.495804
 20
-2.717798
 30
0.0
 10
13.495804
 20
-2.683006
 30
0.0
 10
13.524008
 20
-2.654802
 30
0.0
 10
13.558800
 20
-2.654802
 30
0.0
  0
SPLINE
  5
23e
100
AcDbEntity
  8
Layer_1
 62
7
100
AcDbSpline
 70
8
 71
3
 72
8
 73
4
 74
0
 40
0
 40
0
 40
0
 40
0
 40
1
 40
1
 40
1
 40
1
 10
13.558800
 20
-2.654802
 30
0.0
 10
13.593591
 20
-2.654802
 30
0.0
 10
13.621796
 20
-2.683006
 30
0.0
 10
13.621796
 20
-2.717798
 30
0.0
  0
SPLINE
  5
23f
100
AcDbEntity
  8
Layer_1
 62
7
100
AcDbSpline
 70
8
 71
3
 72
8
 73
4
 74
0
 40
0
 40
0
 40
0
 40
0
 40
1
 40
1
 40
1
 40
1
 10
13.621796
 20
-2.717798
 30
0.0
 10
13.621796
 20
-2.752590
 30
0.0
 10
13.593591
 20
-2.780794
 30
0.0
 10
13.558800
 20
-2.780794
 30
0.0
  0
SPLINE
  5
240
100
AcDbEntity
  8
Layer_1
 62
7
100
AcDbSpline
 70
8
 71
3
 72
8
 73
4
 74
0
 40
0
 40
0
 40
0
 40
0
 40
1
 40
1
 40
1
 40
1
 10
13.546906
 20
0.192858
 30
0.0
 10
13.512114
 20
0.192858
 30
0.0
 10
13.483910
 20
0.221062
 30
0.0
 10
13.483910
 20
0.255854
 30
0.0
  0
SPLINE
  5
241
100
AcDbEntity
  8
Layer_1
 62
7
100
AcDbSpline
 70
8
 71
3
 72
8
 73
4
 74
0
 40
0
 40
0
 40
0
 40
0
 40
1
 40
1
 40
1
 40
1
 10
13.483910
 20
0.255854
 30
0.0
 10
13.483910
 20
0.272561
 30
0.0
 10
13.490547
 20
0.288585
 30
0.0
 10
13.502361
 20
0.300399
 30
0.0
  0
SPLINE
  5
242
100
AcDbEntity
  8
Layer_1
 62
7
100
AcDbSpline
 70
8
 71
3
 72
8
 73
4
 74
0
 40
0
 40
0
 40
0
 40
0
 40
1
 40
1
 40
1
 40
1
 10
13.502361
 20
0.300399
 30
0.0
 10
13.514175
 20
0.312213
 30
0.0
 10
13.530198
 20
0.318850
 30
0.0
 10
13.546906
 20
0.318850
 30
0.0
  0
SPLINE
  5
243
100
AcDbEntity
  8
Layer_1
 62
7
100
AcDbSpline
 70
8
 71
3
 72
8
 73
4
 74
0
 40
0
 40
0
 40
0
 40
0
 40
1
 40
1
 40
1
 40
1
 10
13.546906
 20
0.318850
 30
0.0
 10
13.581698
 20
0.318849
 30
0.0
 10
13.609902
 20
0.290645
 30
0.0
 10
13.609901
 20
0.255854
 30
0.0
  0
SPLINE
  5
244
100
AcDbEntity
  8
Layer_1
 62
7
100
AcDbSpline
 70
8
 71
3
 72
8
 73
4
 74
0
 40
0
 40
0
 40
0
 40
0
 40
1
 40
1
 40
1
 40
1
 10
13.609901
 20
0.255854
 30
0.0
 10
13.609901
 20
0.221062
 30
0.0
 10
13.581697
 20
0.192858
 30
0.0
 10
13.546906
 20
0.192858
 30
0.0
  0
SPLINE
  5
245
100
AcDbEntity
  8
Layer_1
 62
7
100
AcDbSpline
 70
8
 71
3
 72
8
 73
4
 74
0
 40
0
 40
0
 40
0
 40
0
 40
1
 40
1
 40
1
 40
1
 10
17.317497
 20
0.192858
 30
0.0
 10
17.282705
 20
0.192858
 30
0.0
 10
17.254501
 20
0.221062
 30
0.0
 10
17.254501
 20
0.255854
 30
0.0
  0
SPLINE
  5
246
100
AcDbEntity
  8
Layer_1
 62
7
100
AcDbSpline
 70
8
 71
3
 72
8
 73
4
 74
0
 40
0
 40
0
 40
0
 40
0
 40
1
 40
1
 40
1
 40
1
 10
17.254501
 20
0.255854
 30
0.0
 10
17.254501
 20
0.272561
 30
0.0
 10
17.261138
 20
0.288585
 30
0.0
 10
17.272952
 20
0.300399
 30
0.0
  0
SPLINE
  5
247
100
AcDbEntity
  8
Layer_1
 62
7
100
AcDbSpline
 70
8
 71
3
 72
8
 73
4
 74
0
 40
0
 40
0
 40
0
 40
0
 40
1
 40
1
 40
1
 40
1
 10
17.272952
 20
0.300399
 30
0.0
 10
17.284766
 20
0.312213
 30
0.0
 10
17.300789
 20
0.318850
 30
0.0
 10
17.317497
 20
0.318850
 30
0.0
  0
SPLINE
  5
248
100
AcDbEntity
  8
Layer_1
 62
7
100
AcDbSpline
 70
8
 71
3
 72
8
 73
4
 74
0
 40
0
 40
0
 40
0
 40
0
 40
1
 40
1
 40
1
 40
1
 10
17.317497
 20
0.318850
 30
0.0
 10
17.334204
 20
0.318850
 30
0.0
 10
17.350228
 20
0.312213
 30
0.0
 10
17.362042
 20
0.300399
 30
0.0
  0
SPLINE
  5
249
100
AcDbEntity
  8
Layer_1
 62
7
100
AcDbSpline
 70
8
 71
3
 72
8
 73
4
 74
0
 40
0
 40
0
 40
0
 40
0
 40
1
 40
1
 40
1
 40
1
 10
17.362042
 20
0.300399
 30
0.0
 10
17.373856
 20
0.288585
 30
0.0
 10
17.380493
 20
0.272561
 30
0.0
 10
17.380493
 20
0.255854
 30
0.0
  0
SPLINE
  5
24a
100
AcDbEntity
  8
Layer_1
 62
7
100
AcDbSpline
 70
8
 71
3
 72
8
 73
4
 74
0
 40
0
 40
0
 40
0
 40
0
 40
1
 40
1
 40
1
 40
1
 10
17.380493
 20
0.255854
 30
0.0
 10
17.380492
 20
0.221062
 30
0.0
 10
17.352288
 20
0.192858
 30
0.0
 10
17.317497
 20
0.192858
 30
0.0
  0
SPLINE
  5
24b
100
AcDbEntity
  8
Layer_1
 62
7
100
AcDbSpline
 70
8
 71
3
 72
8
 73
4
 74
0
 40
0
 40
0
 40
0
 40
0
 40
1
 40
1
 40
1
 40
1
 10
10.908369
 20
-2.790173
 30
0.0
 10
10.873577
 20
-2.790173
 30
0.0
 10
10.845373
 20
-2.761969
 30
0.0
 10
10.845373
 20
-2.727177
 30
0.0
  0
SPLINE
  5
24c
100
AcDbEntity
  8
Layer_1
 62
7
100
AcDbSpline
 70
8
 71
3
 72
8
 73
4
 74
0
 40
0
 40
0
 40
0
 40
0
 40
1
 40
1
 40
1
 40
1
 10
10.845373
 20
-2.727177
 30
0.0
 10
10.845373
 20
-2.692385
 30
0.0
 10
10.873577
 20
-2.664181
 30
0.0
 10
10.908369
 20
-2.664181
 30
0.0
  0
SPLINE
  5
24d
100
AcDbEntity
  8
Layer_1
 62
7
100
AcDbSpline
 70
8
 71
3
 72
8
 73
4
 74
0
 40
0
 40
0
 40
0
 40
0
 40
1
 40
1
 40
1
 40
1
 10
10.908369
 20
-2.664181
 30
0.0
 10
10.943160
 20
-2.664181
 30
0.0
 10
10.971364
 20
-2.692385
 30
0.0
 10
10.971364
 20
-2.727177
 30
0.0
  0
SPLINE
  5
24e
100
AcDbEntity
  8
Layer_1
 62
7
100
AcDbSpline
 70
8
 71
3
 72
8
 73
4
 74
0
 40
0
 40
0
 40
0
 40
0
 40
1
 40
1
 40
1
 40
1
 10
10.971364
 20
-2.727177
 30
0.0
 10
10.971364
 20
-2.761969
 30
0.0
 10
10.943160
 20
-2.790173
 30
0.0
 10
10.908369
 20
-2.790173
 30
0.0
  0
SPLINE
  5
24f
100
AcDbEntity
  8
Layer_1
 62
7
100
AcDbSpline
 70
8
 71
3
 72
8
 73
4
 74
0
 40
0
 40
0
 40
0
 40
0
 40
1
 40
1
 40
1
 40
1
 10
10.922494
 20
4.532639
 30
0.0
 10
10.887702
 20
4.532639
 30
0.0
 10
10.859498
 20
4.560843
 30
0.0
 10
10.859497
 20
4.595635
 30
0.0
  0
SPLINE
  5
250
100
AcDbEntity
  8
Layer_1
 62
7
100
AcDbSpline
 70
8
 71
3
 72
8
 73
4
 74
0
 40
0
 40
0
 40
0
 40
0
 40
1
 40
1
 40
1
 40
1
 10
10.859497
 20
4.595635
 30
0.0
 10
10.859497
 20
4.612342
 30
0.0
 10
10.866134
 20
4.628366
 30
0.0
 10
10.877948
 20
4.640180
 30
0.0
  0
SPLINE
  5
251
100
AcDbEntity
  8
Layer_1
 62
7
100
AcDbSpline
 70
8
 71
3
 72
8
 73
4
 74
0
 40
0
 40
0
 40
0
 40
0
 40
1
 40
1
 40
1
 40
1
 10
10.877948
 20
4.640180
 30
0.0
 10
10.889763
 20
4.651994
 30
0.0
 10
10.905786
 20
4.658631
 30
0.0
 10
10.922494
 20
4.658631
 30
0.0
  0
SPLINE
  5
252
100
AcDbEntity
  8
Layer_1
 62
7
100
AcDbSpline
 70
8
 71
3
 72
8
 73
4
 74
0
 40
0
 40
0
 40
0
 40
0
 40
1
 40
1
 40
1
 40
1
 10
10.922494
 20
4.658631
 30
0.0
 10
10.957285
 20
4.658631
 30
0.0
 10
10.985489
 20
4.630426
 30
0.0
 10
10.985489
 20
4.595635
 30
0.0
  0
SPLINE
  5
253
100
AcDbEntity
  8
Layer_1
 62
7
100
AcDbSpline
 70
8
 71
3
 72
8
 73
4
 74
0
 40
0
 40
0
 40
0
 40
0
 40
1
 40
1
 40
1
 40
1
 10
10.985489
 20
4.595635
 30
0.0
 10
10.985489
 20
4.560843
 30
0.0
 10
10.957285
 20
4.532639
 30
0.0
 10
10.922494
 20
4.532639
 30
0.0
  0
SPLINE
  5
254
100
AcDbEntity
  8
Layer_1
 62
7
100
AcDbSpline
 70
8
 71
3
 72
8
 73
4
 74
0
 40
0
 40
0
 40
0
 40
0
 40
1
 40
1
 40
1
 40
1
 10
10.906918
 20
0.951245
 30
0.0
 10
10.872127
 20
0.951245
 30
0.0
 10
10.843923
 20
0.979450
 30
0.0
 10
10.843923
 20
1.014241
 30
0.0
  0
SPLINE
  5
255
100
AcDbEntity
  8
Layer_1
 62
7
100
AcDbSpline
 70
8
 71
3
 72
8
 73
4
 74
0
 40
0
 40
0
 40
0
 40
0
 40
1
 40
1
 40
1
 40
1
 10
10.843923
 20
1.014241
 30
0.0
 10
10.843923
 20
1.049033
 30
0.0
 10
10.872127
 20
1.077237
 30
0.0
 10
10.906918
 20
1.077237
 30
0.0
  0
SPLINE
  5
256
100
AcDbEntity
  8
Layer_1
 62
7
100
AcDbSpline
 70
8
 71
3
 72
8
 73
4
 74
0
 40
0
 40
0
 40
0
 40
0
 40
1
 40
1
 40
1
 40
1
 10
10.906918
 20
1.077237
 30
0.0
 10
10.923626
 20
1.077238
 30
0.0
 10
10.939650
 20
1.070601
 30
0.0
 10
10.951464
 20
1.058787
 30
0.0
  0
SPLINE
  5
257
100
AcDbEntity
  8
Layer_1
 62
7
100
AcDbSpline
 70
8
 71
3
 72
8
 73
4
 74
0
 40
0
 40
0
 40
0
 40
0
 40
1
 40
1
 40
1
 40
1
 10
10.951464
 20
1.058787
 30
0.0
 10
10.963279
 20
1.046973
 30
0.0
 10
10.969916
 20
1.030949
 30
0.0
 10
10.969916
 20
1.014241
 30
0.0
  0
SPLINE
  5
258
100
AcDbEntity
  8
Layer_1
 62
7
100
AcDbSpline
 70
8
 71
3
 72
8
 73
4
 74
0
 40
0
 40
0
 40
0
 40
0
 40
1
 40
1
 40
1
 40
1
 10
10.969916
 20
1.014241
 30
0.0
 10
10.969916
 20
0.997534
 30
0.0
 10
10.963279
 20
0.981510
 30
0.0
 10
10.951465
 20
0.969696
 30
0.0
  0
SPLINE
  5
259
100
AcDbEntity
  8
Layer_1
 62
7
100
AcDbSpline
 70
8
 71
3
 72
8
 73
4
 74
0
 40
0
 40
0
 40
0
 40
0
 40
1
 40
1
 40
1
 40
1
 10
10.951465
 20
0.969696
 30
0.0
 10
10.939650
 20
0.957882
 30
0.0
 10
10.923626
 20
0.951245
 30
0.0
 10
10.906918
 20
0.951245
 30
0.0
  0
SPLINE
  5
25a
100
AcDbEntity
  8
Layer_1
 62
7
100
AcDbSpline
 70
8
 71
3
 72
8
 73
4
 74
0
 40
0
 40
0
 40
0
 40
0
 40
1
 40
1
 40
1
 40
1
 10
10.906923
 20
8.191890
 30
0.0
 10
10.890215
 20
8.191890
 30
0.0
 10
10.874192
 20
8.198527
 30
0.0
 10
10.862378
 20
8.210341
 30
0.0
  0
SPLINE
  5
25b
100
AcDbEntity
  8
Layer_1
 62
7
100
AcDbSpline
 70
8
 71
3
 72
8
 73
4
 74
0
 40
0
 40
0
 40
0
 40
0
 40
1
 40
1
 40
1
 40
1
 10
10.862378
 20
8.210341
 30
0.0
 10
10.850564
 20
8.222155
 30
0.0
 10
10.843927
 20
8.238178
 30
0.0
 10
10.843926
 20
8.254885
 30
0.0
  0
SPLINE
  5
25c
100
AcDbEntity
  8
Layer_1
 62
7
100
AcDbSpline
 70
8
 71
3
 72
8
 73
4
 74
0
 40
0
 40
0
 40
0
 40
0
 40
1
 40
1
 40
1
 40
1
 10
10.843926
 20
8.254885
 30
0.0
 10
10.843927
 20
8.271593
 30
0.0
 10
10.850564
 20
8.287616
 30
0.0
 10
10.862378
 20
8.299430
 30
0.0
  0
SPLINE
  5
25d
100
AcDbEntity
  8
Layer_1
 62
7
100
AcDbSpline
 70
8
 71
3
 72
8
 73
4
 74
0
 40
0
 40
0
 40
0
 40
0
 40
1
 40
1
 40
1
 40
1
 10
10.862378
 20
8.299430
 30
0.0
 10
10.874192
 20
8.311244
 30
0.0
 10
10.890215
 20
8.317881
 30
0.0
 10
10.906923
 20
8.317881
 30
0.0
  0
SPLINE
  5
25e
100
AcDbEntity
  8
Layer_1
 62
7
100
AcDbSpline
 70
8
 71
3
 72
8
 73
4
 74
0
 40
0
 40
0
 40
0
 40
0
 40
1
 40
1
 40
1
 40
1
 10
10.906923
 20
8.317881
 30
0.0
 10
10.941714
 20
8.317881
 30
0.0
 10
10.969918
 20
8.289677
 30
0.0
 10
10.969918
 20
8.254885
 30
0.0
  0
SPLINE
  5
25f
100
AcDbEntity
  8
Layer_1
 62
7
100
AcDbSpline
 70
8
 71
3
 72
8
 73
4
 74
0
 40
0
 40
0
 40
0
 40
0
 40
1
 40
1
 40
1
 40
1
 10
10.969918
 20
8.254885
 30
0.0
 10
10.969918
 20
8.220094
 30
0.0
 10
10.941714
 20
8.191890
 30
0.0
 10
10.906923
 20
8.191890
 30
0.0
  0
SPLINE
  5
260
100
AcDbEntity
  8
Layer_1
 62
7
100
AcDbSpline
 70
8
 71
3
 72
8
 73
4
 74
0
 40
0
 40
0
 40
0
 40
0
 40
1
 40
1
 40
1
 40
1
 10
15.430794
 20
12.662146
 30
0.0
 10
15.396002
 20
12.662146
 30
0.0
 10
15.367798
 20
12.690350
 30
0.0
 10
15.367798
 20
12.725141
 30
0.0
  0
SPLINE
  5
261
100
AcDbEntity
  8
Layer_1
 62
7
100
AcDbSpline
 70
8
 71
3
 72
8
 73
4
 74
0
 40
0
 40
0
 40
0
 40
0
 40
1
 40
1
 40
1
 40
1
 10
15.367798
 20
12.725141
 30
0.0
 10
15.367798
 20
12.759933
 30
0.0
 10
15.396002
 20
12.788137
 30
0.0
 10
15.430794
 20
12.788137
 30
0.0
  0
SPLINE
  5
262
100
AcDbEntity
  8
Layer_1
 62
7
100
AcDbSpline
 70
8
 71
3
 72
8
 73
4
 74
0
 40
0
 40
0
 40
0
 40
0
 40
1
 40
1
 40
1
 40
1
 10
15.430794
 20
12.788137
 30
0.0
 10
15.465586
 20
12.788137
 30
0.0
 10
15.493790
 20
12.759933
 30
0.0
 10
15.493790
 20
12.725141
 30
0.0
  0
SPLINE
  5
263
100
AcDbEntity
  8
Layer_1
 62
7
100
AcDbSpline
 70
8
 71
3
 72
8
 73
4
 74
0
 40
0
 40
0
 40
0
 40
0
 40
1
 40
1
 40
1
 40
1
 10
15.493790
 20
12.725141
 30
0.0
 10
15.493790
 20
12.690350
 30
0.0
 10
15.465586
 20
12.662146
 30
0.0
 10
15.430794
 20
12.662146
 30
0.0
  0
SPLINE
  5
264
100
AcDbEntity
  8
Layer_1
 62
7
100
AcDbSpline
 70
8
 71
3
 72
8
 73
4
 74
0
 40
0
 40
0
 40
0
 40
0
 40
1
 40
1
 40
1
 40
1
 10
5.138314
 20
12.822840
 30
0.0
 10
5.138314
 20
12.806132
 30
0.0
 10
5.144951
 20
12.790109
 30
0.0
 10
5.156765
 20
12.778295
 30
0.0
  0
SPLINE
  5
265
100
AcDbEntity
  8
Layer_1
 62
7
100
AcDbSpline
 70
8
 71
3
 72
8
 73
4
 74
0
 40
0
 40
0
 40
0
 40
0
 40
1
 40
1
 40
1
 40
1
 10
5.156765
 20
12.778295
 30
0.0
 10
5.168579
 20
12.766481
 30
0.0
 10
5.184603
 20
12.759844
 30
0.0
 10
5.201310
 20
12.759844
 30
0.0
  0
SPLINE
  5
266
100
AcDbEntity
  8
Layer_1
 62
7
100
AcDbSpline
 70
8
 71
3
 72
8
 73
4
 74
0
 40
0
 40
0
 40
0
 40
0
 40
1
 40
1
 40
1
 40
1
 10
5.201310
 20
12.759844
 30
0.0
 10
5.218018
 20
12.759844
 30
0.0
 10
5.234041
 20
12.766481
 30
0.0
 10
5.245855
 20
12.778295
 30
0.0
  0
SPLINE
  5
267
100
AcDbEntity
  8
Layer_1
 62
7
100
AcDbSpline
 70
8
 71
3
 72
8
 73
4
 74
0
 40
0
 40
0
 40
0
 40
0
 40
1
 40
1
 40
1
 40
1
 10
5.245855
 20
12.778295
 30
0.0
 10
5.257669
 20
12.790109
 30
0.0
 10
5.264306
 20
12.806132
 30
0.0
 10
5.264306
 20
12.822840
 30
0.0
  0
SPLINE
  5
268
100
AcDbEntity
  8
Layer_1
 62
7
100
AcDbSpline
 70
8
 71
3
 72
8
 73
4
 74
0
 40
0
 40
0
 40
0
 40
0
 40
1
 40
1
 40
1
 40
1
 10
5.264306
 20
12.822840
 30
0.0
 10
5.264306
 20
12.839548
 30
0.0
 10
5.257669
 20
12.855571
 30
0.0
 10
5.245855
 20
12.867385
 30
0.0
  0
SPLINE
  5
269
100
AcDbEntity
  8
Layer_1
 62
7
100
AcDbSpline
 70
8
 71
3
 72
8
 73
4
 74
0
 40
0
 40
0
 40
0
 40
0
 40
1
 40
1
 40
1
 40
1
 10
5.245855
 20
12.867385
 30
0.0
 10
5.234041
 20
12.879199
 30
0.0
 10
5.218018
 20
12.885836
 30
0.0
 10
5.201310
 20
12.885836
 30
0.0
  0
SPLINE
  5
26a
100
AcDbEntity
  8
Layer_1
 62
7
100
AcDbSpline
 70
8
 71
3
 72
8
 73
4
 74
0
 40
0
 40
0
 40
0
 40
0
 40
1
 40
1
 40
1
 40
1
 10
5.201310
 20
12.885836
 30
0.0
 10
5.184603
 20
12.885836
 30
0.0
 10
5.168579
 20
12.879199
 30
0.0
 10
5.156765
 20
12.867385
 30
0.0
  0
SPLINE
  5
26b
100
AcDbEntity
  8
Layer_1
 62
7
100
AcDbSpline
 70
8
 71
3
 72
8
 73
4
 74
0
 40
0
 40
0
 40
0
 40
0
 40
1
 40
1
 40
1
 40
1
 10
5.156765
 20
12.867385
 30
0.0
 10
5.144951
 20
12.855571
 30
0.0
 10
5.138314
 20
12.839548
 30
0.0
 10
5.138314
 20
12.822840
 30
0.0
  0
SPLINE
  5
26c
100
AcDbEntity
  8
Layer_1
 62
7
100
AcDbSpline
 70
8
 71
3
 72
8
 73
4
 74
0
 40
0
 40
0
 40
0
 40
0
 40
1
 40
1
 40
1
 40
1
 10
0.597540
 20
8.378678
 30
0.0
 10
0.597540
 20
8.361970
 30
0.0
 10
0.604177
 20
8.345947
 30
0.0
 10
0.615991
 20
8.334133
 30
0.0
  0
SPLINE
  5
26d
100
AcDbEntity
  8
Layer_1
 62
7
100
AcDbSpline
 70
8
 71
3
 72
8
 73
4
 74
0
 40
0
 40
0
 40
0
 40
0
 40
1
 40
1
 40
1
 40
1
 10
0.615991
 20
8.334133
 30
0.0
 10
0.627805
 20
8.322319
 30
0.0
 10
0.643828
 20
8.315682
 30
0.0
 10
0.660536
 20
8.315682
 30
0.0
  0
SPLINE
  5
26e
100
AcDbEntity
  8
Layer_1
 62
7
100
AcDbSpline
 70
8
 71
3
 72
8
 73
4
 74
0
 40
0
 40
0
 40
0
 40
0
 40
1
 40
1
 40
1
 40
1
 10
0.660536
 20
8.315682
 30
0.0
 10
0.677243
 20
8.315682
 30
0.0
 10
0.693267
 20
8.322319
 30
0.0
 10
0.705081
 20
8.334133
 30
0.0
  0
SPLINE
  5
26f
100
AcDbEntity
  8
Layer_1
 62
7
100
AcDbSpline
 70
8
 71
3
 72
8
 73
4
 74
0
 40
0
 40
0
 40
0
 40
0
 40
1
 40
1
 40
1
 40
1
 10
0.705081
 20
8.334133
 30
0.0
 10
0.716895
 20
8.345947
 30
0.0
 10
0.723532
 20
8.361970
 30
0.0
 10
0.723532
 20
8.378678
 30
0.0
  0
SPLINE
  5
270
100
AcDbEntity
  8
Layer_1
 62
7
100
AcDbSpline
 70
8
 71
3
 72
8
 73
4
 74
0
 40
0
 40
0
 40
0
 40
0
 40
1
 40
1
 40
1
 40
1
 10
0.723532
 20
8.378678
 30
0.0
 10
0.723532
 20
8.395386
 30
0.0
 10
0.716895
 20
8.411409
 30
0.0
 10
0.705081
 20
8.423223
 30
0.0
  0
SPLINE
  5
271
100
AcDbEntity
  8
Layer_1
 62
7
100
AcDbSpline
 70
8
 71
3
 72
8
 73
4
 74
0
 40
0
 40
0
 40
0
 40
0
 40
1
 40
1
 40
1
 40
1
 10
0.705081
 20
8.423223
 30
0.0
 10
0.693267
 20
8.435037
 30
0.0
 10
0.677243
 20
8.441674
 30
0.0
 10
0.660536
 20
8.441674
 30
0.0
  0
SPLINE
  5
272
100
AcDbEntity
  8
Layer_1
 62
7
100
AcDbSpline
 70
8
 71
3
 72
8
 73
4
 74
0
 40
0
 40
0
 40
0
 40
0
 40
1
 40
1
 40
1
 40
1
 10
0.660536
 20
8.441674
 30
0.0
 10
0.643828
 20
8.441674
 30
0.0
 10
0.627805
 20
8.435037
 30
0.0
 10
0.615991
 20
8.423223
 30
0.0
  0
SPLINE
  5
273
100
AcDbEntity
  8
Layer_1
 62
7
100
AcDbSpline
 70
8
 71
3
 72
8
 73
4
 74
0
 40
0
 40
0
 40
0
 40
0
 40
1
 40
1
 40
1
 40
1
 10
0.615991
 20
8.423223
 30
0.0
 10
0.604177
 20
8.411409
 30
0.0
 10
0.597540
 20
8.395386
 30
0.0
 10
0.597540
 20
8.378678
 30
0.0
  0
SPLINE
  5
274
100
AcDbEntity
  8
Layer_1
 62
7
100
AcDbSpline
 70
8
 71
3
 72
8
 73
4
 74
0
 40
0
 40
0
 40
0
 40
0
 40
1
 40
1
 40
1
 40
1
 10
5.879008
 20
6.430331
 30
0.0
 10
5.879008
 20
6.413624
 30
0.0
 10
5.885645
 20
6.397601
 30
0.0
 10
5.897459
 20
6.385787
 30
0.0
  0
SPLINE
  5
275
100
AcDbEntity
  8
Layer_1
 62
7
100
AcDbSpline
 70
8
 71
3
 72
8
 73
4
 74
0
 40
0
 40
0
 40
0
 40
0
 40
1
 40
1
 40
1
 40
1
 10
5.897459
 20
6.385787
 30
0.0
 10
5.909273
 20
6.373972
 30
0.0
 10
5.925296
 20
6.367335
 30
0.0
 10
5.942004
 20
6.367335
 30
0.0
  0
SPLINE
  5
276
100
AcDbEntity
  8
Layer_1
 62
7
100
AcDbSpline
 70
8
 71
3
 72
8
 73
4
 74
0
 40
0
 40
0
 40
0
 40
0
 40
1
 40
1
 40
1
 40
1
 10
5.942004
 20
6.367335
 30
0.0
 10
5.958712
 20
6.367335
 30
0.0
 10
5.974735
 20
6.373972
 30
0.0
 10
5.986549
 20
6.385787
 30
0.0
  0
SPLINE
  5
277
100
AcDbEntity
  8
Layer_1
 62
7
100
AcDbSpline
 70
8
 71
3
 72
8
 73
4
 74
0
 40
0
 40
0
 40
0
 40
0
 40
1
 40
1
 40
1
 40
1
 10
5.986549
 20
6.385787
 30
0.0
 10
5.998363
 20
6.397601
 30
0.0
 10
6.005000
 20
6.413624
 30
0.0
 10
6.005000
 20
6.430331
 30
0.0
  0
SPLINE
  5
278
100
AcDbEntity
  8
Layer_1
 62
7
100
AcDbSpline
 70
8
 71
3
 72
8
 73
4
 74
0
 40
0
 40
0
 40
0
 40
0
 40
1
 40
1
 40
1
 40
1
 10
6.005000
 20
6.430331
 30
0.0
 10
6.005000
 20
6.447039
 30
0.0
 10
5.998363
 20
6.463062
 30
0.0
 10
5.986549
 20
6.474876
 30
0.0
  0
SPLINE
  5
279
100
AcDbEntity
  8
Layer_1
 62
7
100
AcDbSpline
 70
8
 71
3
 72
8
 73
4
 74
0
 40
0
 40
0
 40
0
 40
0
 40
1
 40
1
 40
1
 40
1
 10
5.986549
 20
6.474876
 30
0.0
 10
5.974735
 20
6.486690
 30
0.0
 10
5.958712
 20
6.493328
 30
0.0
 10
5.942004
 20
6.493328
 30
0.0
  0
SPLINE
  5
27a
100
AcDbEntity
  8
Layer_1
 62
7
100
AcDbSpline
 70
8
 71
3
 72
8
 73
4
 74
0
 40
0
 40
0
 40
0
 40
0
 40
1
 40
1
 40
1
 40
1
 10
5.942004
 20
6.493328
 30
0.0
 10
5.925296
 20
6.493328
 30
0.0
 10
5.909273
 20
6.486690
 30
0.0
 10
5.897459
 20
6.474876
 30
0.0
  0
SPLINE
  5
27b
100
AcDbEntity
  8
Layer_1
 62
7
100
AcDbSpline
 70
8
 71
3
 72
8
 73
4
 74
0
 40
0
 40
0
 40
0
 40
0
 40
1
 40
1
 40
1
 40
1
 10
5.897459
 20
6.474876
 30
0.0
 10
5.885645
 20
6.463062
 30
0.0
 10
5.879008
 20
6.447039
 30
0.0
 10
5.879008
 20
6.430331
 30
0.0
  0
SPLINE
  5
27c
100
AcDbEntity
  8
Layer_1
 62
7
100
AcDbSpline
 70
8
 71
3
 72
8
 73
4
 74
0
 40
0
 40
0
 40
0
 40
0
 40
1
 40
1
 40
1
 40
1
 10
3.302682
 20
6.526944
 30
0.0
 10
3.302682
 20
6.510236
 30
0.0
 10
3.309319
 20
6.494213
 30
0.0
 10
3.321133
 20
6.482399
 30
0.0
  0
SPLINE
  5
27d
100
AcDbEntity
  8
Layer_1
 62
7
100
AcDbSpline
 70
8
 71
3
 72
8
 73
4
 74
0
 40
0
 40
0
 40
0
 40
0
 40
1
 40
1
 40
1
 40
1
 10
3.321133
 20
6.482399
 30
0.0
 10
3.332947
 20
6.470585
 30
0.0
 10
3.348970
 20
6.463948
 30
0.0
 10
3.365678
 20
6.463948
 30
0.0
  0
SPLINE
  5
27e
100
AcDbEntity
  8
Layer_1
 62
7
100
AcDbSpline
 70
8
 71
3
 72
8
 73
4
 74
0
 40
0
 40
0
 40
0
 40
0
 40
1
 40
1
 40
1
 40
1
 10
3.365678
 20
6.463948
 30
0.0
 10
3.382386
 20
6.463948
 30
0.0
 10
3.398409
 20
6.470585
 30
0.0
 10
3.410223
 20
6.482399
 30
0.0
  0
SPLINE
  5
27f
100
AcDbEntity
  8
Layer_1
 62
7
100
AcDbSpline
 70
8
 71
3
 72
8
 73
4
 74
0
 40
0
 40
0
 40
0
 40
0
 40
1
 40
1
 40
1
 40
1
 10
3.410223
 20
6.482399
 30
0.0
 10
3.422037
 20
6.494213
 30
0.0
 10
3.428674
 20
6.510236
 30
0.0
 10
3.428674
 20
6.526944
 30
0.0
  0
SPLINE
  5
280
100
AcDbEntity
  8
Layer_1
 62
7
100
AcDbSpline
 70
8
 71
3
 72
8
 73
4
 74
0
 40
0
 40
0
 40
0
 40
0
 40
1
 40
1
 40
1
 40
1
 10
3.428674
 20
6.526944
 30
0.0
 10
3.428674
 20
6.543651
 30
0.0
 10
3.422037
 20
6.559675
 30
0.0
 10
3.410223
 20
6.571489
 30
0.0
  0
SPLINE
  5
281
100
AcDbEntity
  8
Layer_1
 62
7
100
AcDbSpline
 70
8
 71
3
 72
8
 73
4
 74
0
 40
0
 40
0
 40
0
 40
0
 40
1
 40
1
 40
1
 40
1
 10
3.410223
 20
6.571489
 30
0.0
 10
3.398409
 20
6.583303
 30
0.0
 10
3.382386
 20
6.589940
 30
0.0
 10
3.365678
 20
6.589940
 30
0.0
  0
SPLINE
  5
282
100
AcDbEntity
  8
Layer_1
 62
7
100
AcDbSpline
 70
8
 71
3
 72
8
 73
4
 74
0
 40
0
 40
0
 40
0
 40
0
 40
1
 40
1
 40
1
 40
1
 10
3.365678
 20
6.589940
 30
0.0
 10
3.348970
 20
6.589940
 30
0.0
 10
3.332947
 20
6.583303
 30
0.0
 10
3.321133
 20
6.571489
 30
0.0
  0
SPLINE
  5
283
100
AcDbEntity
  8
Layer_1
 62
7
100
AcDbSpline
 70
8
 71
3
 72
8
 73
4
 74
0
 40
0
 40
0
 40
0
 40
0
 40
1
 40
1
 40
1
 40
1
 10
3.321133
 20
6.571489
 30
0.0
 10
3.309319
 20
6.559675
 30
0.0
 10
3.302682
 20
6.543651
 30
0.0
 10
3.302682
 20
6.526944
 30
0.0
  0
SPLINE
  5
284
100
AcDbEntity
  8
Layer_1
 62
7
100
AcDbSpline
 70
8
 71
3
 72
8
 73
4
 74
0
 40
0
 40
0
 40
0
 40
0
 40
1
 40
1
 40
1
 40
1
 10
3.383192
 20
10.166004
 30
0.0
 10
3.383192
 20
10.149297
 30
0.0
 10
3.389829
 20
10.133273
 30
0.0
 10
3.401643
 20
10.121459
 30
0.0
  0
SPLINE
  5
285
100
AcDbEntity
  8
Layer_1
 62
7
100
AcDbSpline
 70
8
 71
3
 72
8
 73
4
 74
0
 40
0
 40
0
 40
0
 40
0
 40
1
 40
1
 40
1
 40
1
 10
3.401643
 20
10.121459
 30
0.0
 10
3.413457
 20
10.109645
 30
0.0
 10
3.429480
 20
10.103008
 30
0.0
 10
3.446188
 20
10.103008
 30
0.0
  0
SPLINE
  5
286
100
AcDbEntity
  8
Layer_1
 62
7
100
AcDbSpline
 70
8
 71
3
 72
8
 73
4
 74
0
 40
0
 40
0
 40
0
 40
0
 40
1
 40
1
 40
1
 40
1
 10
3.446188
 20
10.103008
 30
0.0
 10
3.462896
 20
10.103008
 30
0.0
 10
3.478919
 20
10.109645
 30
0.0
 10
3.490733
 20
10.121459
 30
0.0
  0
SPLINE
  5
287
100
AcDbEntity
  8
Layer_1
 62
7
100
AcDbSpline
 70
8
 71
3
 72
8
 73
4
 74
0
 40
0
 40
0
 40
0
 40
0
 40
1
 40
1
 40
1
 40
1
 10
3.490733
 20
10.121459
 30
0.0
 10
3.502547
 20
10.133273
 30
0.0
 10
3.509184
 20
10.149297
 30
0.0
 10
3.509184
 20
10.166004
 30
0.0
  0
SPLINE
  5
288
100
AcDbEntity
  8
Layer_1
 62
7
100
AcDbSpline
 70
8
 71
3
 72
8
 73
4
 74
0
 40
0
 40
0
 40
0
 40
0
 40
1
 40
1
 40
1
 40
1
 10
3.509184
 20
10.166004
 30
0.0
 10
3.509184
 20
10.182712
 30
0.0
 10
3.502547
 20
10.198735
 30
0.0
 10
3.490733
 20
10.210549
 30
0.0
  0
SPLINE
  5
289
100
AcDbEntity
  8
Layer_1
 62
7
100
AcDbSpline
 70
8
 71
3
 72
8
 73
4
 74
0
 40
0
 40
0
 40
0
 40
0
 40
1
 40
1
 40
1
 40
1
 10
3.490733
 20
10.210549
 30
0.0
 10
3.478919
 20
10.222363
 30
0.0
 10
3.462896
 20
10.229000
 30
0.0
 10
3.446188
 20
10.229000
 30
0.0
  0
SPLINE
  5
28a
100
AcDbEntity
  8
Layer_1
 62
7
100
AcDbSpline
 70
8
 71
3
 72
8
 73
4
 74
0
 40
0
 40
0
 40
0
 40
0
 40
1
 40
1
 40
1
 40
1
 10
3.446188
 20
10.229000
 30
0.0
 10
3.429480
 20
10.229000
 30
0.0
 10
3.413457
 20
10.222363
 30
0.0
 10
3.401643
 20
10.210549
 30
0.0
  0
SPLINE
  5
28b
100
AcDbEntity
  8
Layer_1
 62
7
100
AcDbSpline
 70
8
 71
3
 72
8
 73
4
 74
0
 40
0
 40
0
 40
0
 40
0
 40
1
 40
1
 40
1
 40
1
 10
3.401643
 20
10.210549
 30
0.0
 10
3.389829
 20
10.198735
 30
0.0
 10
3.383192
 20
10.182712
 30
0.0
 10
3.383192
 20
10.166004
 30
0.0
  0
SPLINE
  5
28c
100
AcDbEntity
  8
Layer_1
 62
7
100
AcDbSpline
 70
8
 71
3
 72
8
 73
4
 74
0
 40
0
 40
0
 40
0
 40
0
 40
1
 40
1
 40
1
 40
1
 10
6.990048
 20
10.133800
 30
0.0
 10
6.990048
 20
10.117092
 30
0.0
 10
6.996685
 20
10.101069
 30
0.0
 10
7.008499
 20
10.089255
 30
0.0
  0
SPLINE
  5
28d
100
AcDbEntity
  8
Layer_1
 62
7
100
AcDbSpline
 70
8
 71
3
 72
8
 73
4
 74
0
 40
0
 40
0
 40
0
 40
0
 40
1
 40
1
 40
1
 40
1
 10
7.008499
 20
10.089255
 30
0.0
 10
7.020313
 20
10.077441
 30
0.0
 10
7.036336
 20
10.070804
 30
0.0
 10
7.053044
 20
10.070804
 30
0.0
  0
SPLINE
  5
28e
100
AcDbEntity
  8
Layer_1
 62
7
100
AcDbSpline
 70
8
 71
3
 72
8
 73
4
 74
0
 40
0
 40
0
 40
0
 40
0
 40
1
 40
1
 40
1
 40
1
 10
7.053044
 20
10.070804
 30
0.0
 10
7.069752
 20
10.070804
 30
0.0
 10
7.085775
 20
10.077441
 30
0.0
 10
7.097589
 20
10.089255
 30
0.0
  0
SPLINE
  5
28f
100
AcDbEntity
  8
Layer_1
 62
7
100
AcDbSpline
 70
8
 71
3
 72
8
 73
4
 74
0
 40
0
 40
0
 40
0
 40
0
 40
1
 40
1
 40
1
 40
1
 10
7.097589
 20
10.089255
 30
0.0
 10
7.109403
 20
10.101069
 30
0.0
 10
7.116040
 20
10.117092
 30
0.0
 10
7.116040
 20
10.133800
 30
0.0
  0
SPLINE
  5
290
100
AcDbEntity
  8
Layer_1
 62
7
100
AcDbSpline
 70
8
 71
3
 72
8
 73
4
 74
0
 40
0
 40
0
 40
0
 40
0
 40
1
 40
1
 40
1
 40
1
 10
7.116040
 20
10.133800
 30
0.0
 10
7.116040
 20
10.150507
 30
0.0
 10
7.109403
 20
10.166531
 30
0.0
 10
7.097589
 20
10.178345
 30
0.0
  0
SPLINE
  5
291
100
AcDbEntity
  8
Layer_1
 62
7
100
AcDbSpline
 70
8
 71
3
 72
8
 73
4
 74
0
 40
0
 40
0
 40
0
 40
0
 40
1
 40
1
 40
1
 40
1
 10
7.097589
 20
10.178345
 30
0.0
 10
7.085775
 20
10.190159
 30
0.0
 10
7.069752
 20
10.196796
 30
0.0
 10
7.053044
 20
10.196796
 30
0.0
  0
SPLINE
  5
292
100
AcDbEntity
  8
Layer_1
 62
7
100
AcDbSpline
 70
8
 71
3
 72
8
 73
4
 74
0
 40
0
 40
0
 40
0
 40
0
 40
1
 40
1
 40
1
 40
1
 10
7.053044
 20
10.196796
 30
0.0
 10
7.036336
 20
10.196796
 30
0.0
 10
7.020313
 20
10.190159
 30
0.0
 10
7.008499
 20
10.178345
 30
0.0
  0
SPLINE
  5
293
100
AcDbEntity
  8
Layer_1
 62
7
100
AcDbSpline
 70
8
 71
3
 72
8
 73
4
 74
0
 40
0
 40
0
 40
0
 40
0
 40
1
 40
1
 40
1
 40
1
 10
7.008499
 20
10.178345
 30
0.0
 10
6.996685
 20
10.166531
 30
0.0
 10
6.990048
 20
10.150507
 30
0.0
 10
6.990048
 20
10.133800
 30
0.0
  0
SPLINE
  5
294
100
AcDbEntity
  8
Layer_1
 62
7
100
AcDbSpline
 70
8
 71
3
 72
8
 73
4
 74
0
 40
0
 40
0
 40
0
 40
0
 40
1
 40
1
 40
1
 40
1
 10
7.006150
 20
8.539698
 30
0.0
 10
7.006150
 20
8.522991
 30
0.0
 10
7.012787
 20
8.506967
 30
0.0
 10
7.024602
 20
8.495153
 30
0.0
  0
SPLINE
  5
295
100
AcDbEntity
  8
Layer_1
 62
7
100
AcDbSpline
 70
8
 71
3
 72
8
 73
4
 74
0
 40
0
 40
0
 40
0
 40
0
 40
1
 40
1
 40
1
 40
1
 10
7.024602
 20
8.495153
 30
0.0
 10
7.036416
 20
8.483339
 30
0.0
 10
7.052439
 20
8.476702
 30
0.0
 10
7.069146
 20
8.476702
 30
0.0
  0
SPLINE
  5
296
100
AcDbEntity
  8
Layer_1
 62
7
100
AcDbSpline
 70
8
 71
3
 72
8
 73
4
 74
0
 40
0
 40
0
 40
0
 40
0
 40
1
 40
1
 40
1
 40
1
 10
7.069146
 20
8.476702
 30
0.0
 10
7.085854
 20
8.476702
 30
0.0
 10
7.101877
 20
8.483339
 30
0.0
 10
7.113691
 20
8.495153
 30
0.0
  0
SPLINE
  5
297
100
AcDbEntity
  8
Layer_1
 62
7
100
AcDbSpline
 70
8
 71
3
 72
8
 73
4
 74
0
 40
0
 40
0
 40
0
 40
0
 40
1
 40
1
 40
1
 40
1
 10
7.113691
 20
8.495153
 30
0.0
 10
7.125505
 20
8.506967
 30
0.0
 10
7.132143
 20
8.522991
 30
0.0
 10
7.132142
 20
8.539698
 30
0.0
  0
SPLINE
  5
298
100
AcDbEntity
  8
Layer_1
 62
7
100
AcDbSpline
 70
8
 71
3
 72
8
 73
4
 74
0
 40
0
 40
0
 40
0
 40
0
 40
1
 40
1
 40
1
 40
1
 10
7.132142
 20
8.539698
 30
0.0
 10
7.132143
 20
8.556406
 30
0.0
 10
7.125505
 20
8.572429
 30
0.0
 10
7.113691
 20
8.584243
 30
0.0
  0
SPLINE
  5
299
100
AcDbEntity
  8
Layer_1
 62
7
100
AcDbSpline
 70
8
 71
3
 72
8
 73
4
 74
0
 40
0
 40
0
 40
0
 40
0
 40
1
 40
1
 40
1
 40
1
 10
7.113691
 20
8.584243
 30
0.0
 10
7.101877
 20
8.596057
 30
0.0
 10
7.085854
 20
8.602694
 30
0.0
 10
7.069146
 20
8.602694
 30
0.0
  0
SPLINE
  5
29a
100
AcDbEntity
  8
Layer_1
 62
7
100
AcDbSpline
 70
8
 71
3
 72
8
 73
4
 74
0
 40
0
 40
0
 40
0
 40
0
 40
1
 40
1
 40
1
 40
1
 10
7.069146
 20
8.602694
 30
0.0
 10
7.052439
 20
8.602694
 30
0.0
 10
7.036416
 20
8.596057
 30
0.0
 10
7.024602
 20
8.584243
 30
0.0
  0
SPLINE
  5
29b
100
AcDbEntity
  8
Layer_1
 62
7
100
AcDbSpline
 70
8
 71
3
 72
8
 73
4
 74
0
 40
0
 40
0
 40
0
 40
0
 40
1
 40
1
 40
1
 40
1
 10
7.024602
 20
8.584243
 30
0.0
 10
7.012787
 20
8.572429
 30
0.0
 10
7.006150
 20
8.556406
 30
0.0
 10
7.006150
 20
8.539698
 30
0.0
  0
SPLINE
  5
29c
100
AcDbEntity
  8
Layer_1
 62
7
100
AcDbSpline
 70
8
 71
3
 72
8
 73
4
 74
0
 40
0
 40
0
 40
0
 40
0
 40
1
 40
1
 40
1
 40
1
 10
9.646884
 20
8.571902
 30
0.0
 10
9.646884
 20
8.555195
 30
0.0
 10
9.653521
 20
8.539171
 30
0.0
 10
9.665335
 20
8.527357
 30
0.0
  0
SPLINE
  5
29d
100
AcDbEntity
  8
Layer_1
 62
7
100
AcDbSpline
 70
8
 71
3
 72
8
 73
4
 74
0
 40
0
 40
0
 40
0
 40
0
 40
1
 40
1
 40
1
 40
1
 10
9.665335
 20
8.527357
 30
0.0
 10
9.677149
 20
8.515543
 30
0.0
 10
9.693173
 20
8.508906
 30
0.0
 10
9.709880
 20
8.508906
 30
0.0
  0
SPLINE
  5
29e
100
AcDbEntity
  8
Layer_1
 62
7
100
AcDbSpline
 70
8
 71
3
 72
8
 73
4
 74
0
 40
0
 40
0
 40
0
 40
0
 40
1
 40
1
 40
1
 40
1
 10
9.709880
 20
8.508906
 30
0.0
 10
9.726588
 20
8.508906
 30
0.0
 10
9.742611
 20
8.515543
 30
0.0
 10
9.754425
 20
8.527357
 30
0.0
  0
SPLINE
  5
29f
100
AcDbEntity
  8
Layer_1
 62
7
100
AcDbSpline
 70
8
 71
3
 72
8
 73
4
 74
0
 40
0
 40
0
 40
0
 40
0
 40
1
 40
1
 40
1
 40
1
 10
9.754425
 20
8.527357
 30
0.0
 10
9.766239
 20
8.539171
 30
0.0
 10
9.772876
 20
8.555195
 30
0.0
 10
9.772876
 20
8.571902
 30
0.0
  0
SPLINE
  5
2a0
100
AcDbEntity
  8
Layer_1
 62
7
100
AcDbSpline
 70
8
 71
3
 72
8
 73
4
 74
0
 40
0
 40
0
 40
0
 40
0
 40
1
 40
1
 40
1
 40
1
 10
9.772876
 20
8.571902
 30
0.0
 10
9.772876
 20
8.606694
 30
0.0
 10
9.744672
 20
8.634898
 30
0.0
 10
9.709880
 20
8.634898
 30
0.0
  0
SPLINE
  5
2a1
100
AcDbEntity
  8
Layer_1
 62
7
100
AcDbSpline
 70
8
 71
3
 72
8
 73
4
 74
0
 40
0
 40
0
 40
0
 40
0
 40
1
 40
1
 40
1
 40
1
 10
9.709880
 20
8.634898
 30
0.0
 10
9.675089
 20
8.634898
 30
0.0
 10
9.646884
 20
8.606694
 30
0.0
 10
9.646884
 20
8.571902
 30
0.0
  0
SPLINE
  5
2a2
100
AcDbEntity
  8
Layer_1
 62
7
100
AcDbSpline
 70
8
 71
3
 72
8
 73
4
 74
0
 40
0
 40
0
 40
0
 40
0
 40
1
 40
1
 40
1
 40
1
 10
4.917286
 20
-2.624112
 30
0.0
 10
4.917286
 20
-2.640819
 30
0.0
 10
4.923923
 20
-2.656843
 30
0.0
 10
4.935737
 20
-2.668657
 30
0.0
  0
SPLINE
  5
2a3
100
AcDbEntity
  8
Layer_1
 62
7
100
AcDbSpline
 70
8
 71
3
 72
8
 73
4
 74
0
 40
0
 40
0
 40
0
 40
0
 40
1
 40
1
 40
1
 40
1
 10
4.935737
 20
-2.668657
 30
0.0
 10
4.947551
 20
-2.680471
 30
0.0
 10
4.963574
 20
-2.687108
 30
0.0
 10
4.980282
 20
-2.687108
 30
0.0
  0
SPLINE
  5
2a4
100
AcDbEntity
  8
Layer_1
 62
7
100
AcDbSpline
 70
8
 71
3
 72
8
 73
4
 74
0
 40
0
 40
0
 40
0
 40
0
 40
1
 40
1
 40
1
 40
1
 10
4.980282
 20
-2.687108
 30
0.0
 10
4.996990
 20
-2.687108
 30
0.0
 10
5.013013
 20
-2.680471
 30
0.0
 10
5.024827
 20
-2.668657
 30
0.0
  0
SPLINE
  5
2a5
100
AcDbEntity
  8
Layer_1
 62
7
100
AcDbSpline
 70
8
 71
3
 72
8
 73
4
 74
0
 40
0
 40
0
 40
0
 40
0
 40
1
 40
1
 40
1
 40
1
 10
5.024827
 20
-2.668657
 30
0.0
 10
5.036641
 20
-2.656843
 30
0.0
 10
5.043278
 20
-2.640819
 30
0.0
 10
5.043278
 20
-2.624112
 30
0.0
  0
SPLINE
  5
2a6
100
AcDbEntity
  8
Layer_1
 62
7
100
AcDbSpline
 70
8
 71
3
 72
8
 73
4
 74
0
 40
0
 40
0
 40
0
 40
0
 40
1
 40
1
 40
1
 40
1
 10
5.043278
 20
-2.624112
 30
0.0
 10
5.043278
 20
-2.607404
 30
0.0
 10
5.036641
 20
-2.591381
 30
0.0
 10
5.024827
 20
-2.579567
 30
0.0
  0
SPLINE
  5
2a7
100
AcDbEntity
  8
Layer_1
 62
7
100
AcDbSpline
 70
8
 71
3
 72
8
 73
4
 74
0
 40
0
 40
0
 40
0
 40
0
 40
1
 40
1
 40
1
 40
1
 10
5.024827
 20
-2.579567
 30
0.0
 10
5.013013
 20
-2.567753
 30
0.0
 10
4.996990
 20
-2.561116
 30
0.0
 10
4.980282
 20
-2.561116
 30
0.0
  0
SPLINE
  5
2a8
100
AcDbEntity
  8
Layer_1
 62
7
100
AcDbSpline
 70
8
 71
3
 72
8
 73
4
 74
0
 40
0
 40
0
 40
0
 40
0
 40
1
 40
1
 40
1
 40
1
 10
4.980282
 20
-2.561116
 30
0.0
 10
4.963574
 20
-2.561116
 30
0.0
 10
4.947551
 20
-2.567753
 30
0.0
 10
4.935737
 20
-2.579567
 30
0.0
  0
SPLINE
  5
2a9
100
AcDbEntity
  8
Layer_1
 62
7
100
AcDbSpline
 70
8
 71
3
 72
8
 73
4
 74
0
 40
0
 40
0
 40
0
 40
0
 40
1
 40
1
 40
1
 40
1
 10
4.935737
 20
-2.579567
 30
0.0
 10
4.923923
 20
-2.591381
 30
0.0
 10
4.917286
 20
-2.607404
 30
0.0
 10
4.917286
 20
-2.624112
 30
0.0
  0
SPLINE
  5
2aa
100
AcDbEntity
  8
Layer_1
 62
7
100
AcDbSpline
 70
8
 71
3
 72
8
 73
4
 74
0
 40
0
 40
0
 40
0
 40
0
 40
1
 40
1
 40
1
 40
1
 10
9.683489
 20
1.787846
 30
0.0
 10
9.683489
 20
1.771139
 30
0.0
 10
9.690126
 20
1.755115
 30
0.0
 10
9.701940
 20
1.743301
 30
0.0
  0
SPLINE
  5
2ab
100
AcDbEntity
  8
Layer_1
 62
7
100
AcDbSpline
 70
8
 71
3
 72
8
 73
4
 74
0
 40
0
 40
0
 40
0
 40
0
 40
1
 40
1
 40
1
 40
1
 10
9.701940
 20
1.743301
 30
0.0
 10
9.713754
 20
1.731487
 30
0.0
 10
9.729777
 20
1.724850
 30
0.0
 10
9.746485
 20
1.724850
 30
0.0
  0
SPLINE
  5
2ac
100
AcDbEntity
  8
Layer_1
 62
7
100
AcDbSpline
 70
8
 71
3
 72
8
 73
4
 74
0
 40
0
 40
0
 40
0
 40
0
 40
1
 40
1
 40
1
 40
1
 10
9.746485
 20
1.724850
 30
0.0
 10
9.763192
 20
1.724850
 30
0.0
 10
9.779216
 20
1.731487
 30
0.0
 10
9.791030
 20
1.743301
 30
0.0
  0
SPLINE
  5
2ad
100
AcDbEntity
  8
Layer_1
 62
7
100
AcDbSpline
 70
8
 71
3
 72
8
 73
4
 74
0
 40
0
 40
0
 40
0
 40
0
 40
1
 40
1
 40
1
 40
1
 10
9.791030
 20
1.743301
 30
0.0
 10
9.802844
 20
1.755115
 30
0.0
 10
9.809481
 20
1.771139
 30
0.0
 10
9.809481
 20
1.787846
 30
0.0
  0
SPLINE
  5
2ae
100
AcDbEntity
  8
Layer_1
 62
7
100
AcDbSpline
 70
8
 71
3
 72
8
 73
4
 74
0
 40
0
 40
0
 40
0
 40
0
 40
1
 40
1
 40
1
 40
1
 10
9.809481
 20
1.787846
 30
0.0
 10
9.809481
 20
1.804554
 30
0.0
 10
9.802844
 20
1.820577
 30
0.0
 10
9.791030
 20
1.832391
 30
0.0
  0
SPLINE
  5
2af
100
AcDbEntity
  8
Layer_1
 62
7
100
AcDbSpline
 70
8
 71
3
 72
8
 73
4
 74
0
 40
0
 40
0
 40
0
 40
0
 40
1
 40
1
 40
1
 40
1
 10
9.791030
 20
1.832391
 30
0.0
 10
9.779216
 20
1.844205
 30
0.0
 10
9.763192
 20
1.850842
 30
0.0
 10
9.746485
 20
1.850842
 30
0.0
  0
SPLINE
  5
2b0
100
AcDbEntity
  8
Layer_1
 62
7
100
AcDbSpline
 70
8
 71
3
 72
8
 73
4
 74
0
 40
0
 40
0
 40
0
 40
0
 40
1
 40
1
 40
1
 40
1
 10
9.746485
 20
1.850842
 30
0.0
 10
9.729777
 20
1.850842
 30
0.0
 10
9.713754
 20
1.844205
 30
0.0
 10
9.701940
 20
1.832391
 30
0.0
  0
SPLINE
  5
2b1
100
AcDbEntity
  8
Layer_1
 62
7
100
AcDbSpline
 70
8
 71
3
 72
8
 73
4
 74
0
 40
0
 40
0
 40
0
 40
0
 40
1
 40
1
 40
1
 40
1
 10
9.701940
 20
1.832391
 30
0.0
 10
9.690126
 20
1.820577
 30
0.0
 10
9.683489
 20
1.804554
 30
0.0
 10
9.683489
 20
1.787846
 30
0.0
  0
SPLINE
  5
2b2
100
AcDbEntity
  8
Layer_1
 62
7
100
AcDbSpline
 70
8
 71
3
 72
8
 73
4
 74
0
 40
0
 40
0
 40
0
 40
0
 40
1
 40
1
 40
1
 40
1
 10
0.634144
 20
1.562417
 30
0.0
 10
0.634144
 20
1.545709
 30
0.0
 10
0.640782
 20
1.529686
 30
0.0
 10
0.652596
 20
1.517872
 30
0.0
  0
SPLINE
  5
2b3
100
AcDbEntity
  8
Layer_1
 62
7
100
AcDbSpline
 70
8
 71
3
 72
8
 73
4
 74
0
 40
0
 40
0
 40
0
 40
0
 40
1
 40
1
 40
1
 40
1
 10
0.652596
 20
1.517872
 30
0.0
 10
0.664410
 20
1.506058
 30
0.0
 10
0.680433
 20
1.499421
 30
0.0
 10
0.697141
 20
1.499421
 30
0.0
  0
SPLINE
  5
2b4
100
AcDbEntity
  8
Layer_1
 62
7
100
AcDbSpline
 70
8
 71
3
 72
8
 73
4
 74
0
 40
0
 40
0
 40
0
 40
0
 40
1
 40
1
 40
1
 40
1
 10
0.697141
 20
1.499421
 30
0.0
 10
0.713848
 20
1.499421
 30
0.0
 10
0.729871
 20
1.506058
 30
0.0
 10
0.741685
 20
1.517872
 30
0.0
  0
SPLINE
  5
2b5
100
AcDbEntity
  8
Layer_1
 62
7
100
AcDbSpline
 70
8
 71
3
 72
8
 73
4
 74
0
 40
0
 40
0
 40
0
 40
0
 40
1
 40
1
 40
1
 40
1
 10
0.741685
 20
1.517872
 30
0.0
 10
0.753500
 20
1.529686
 30
0.0
 10
0.760137
 20
1.545709
 30
0.0
 10
0.760137
 20
1.562417
 30
0.0
  0
SPLINE
  5
2b6
100
AcDbEntity
  8
Layer_1
 62
7
100
AcDbSpline
 70
8
 71
3
 72
8
 73
4
 74
0
 40
0
 40
0
 40
0
 40
0
 40
1
 40
1
 40
1
 40
1
 10
0.760137
 20
1.562417
 30
0.0
 10
0.760137
 20
1.579124
 30
0.0
 10
0.753500
 20
1.595148
 30
0.0
 10
0.741685
 20
1.606962
 30
0.0
  0
SPLINE
  5
2b7
100
AcDbEntity
  8
Layer_1
 62
7
100
AcDbSpline
 70
8
 71
3
 72
8
 73
4
 74
0
 40
0
 40
0
 40
0
 40
0
 40
1
 40
1
 40
1
 40
1
 10
0.741685
 20
1.606962
 30
0.0
 10
0.729871
 20
1.618776
 30
0.0
 10
0.713848
 20
1.625413
 30
0.0
 10
0.697141
 20
1.625413
 30
0.0
  0
SPLINE
  5
2b8
100
AcDbEntity
  8
Layer_1
 62
7
100
AcDbSpline
 70
8
 71
3
 72
8
 73
4
 74
0
 40
0
 40
0
 40
0
 40
0
 40
1
 40
1
 40
1
 40
1
 10
0.697141
 20
1.625413
 30
0.0
 10
0.680433
 20
1.625413
 30
0.0
 10
0.664410
 20
1.618776
 30
0.0
 10
0.652596
 20
1.606962
 30
0.0
  0
SPLINE
  5
2b9
100
AcDbEntity
  8
Layer_1
 62
7
100
AcDbSpline
 70
8
 71
3
 72
8
 73
4
 74
0
 40
0
 40
0
 40
0
 40
0
 40
1
 40
1
 40
1
 40
1
 10
0.652596
 20
1.606962
 30
0.0
 10
0.640782
 20
1.595148
 30
0.0
 10
0.634144
 20
1.579124
 30
0.0
 10
0.634144
 20
1.562417
 30
0.0
  0
SPLINE
  5
2ba
100
AcDbEntity
  8
Layer_1
 62
7
100
AcDbSpline
 70
8
 71
3
 72
8
 73
4
 74
0
 40
0
 40
0
 40
0
 40
0
 40
1
 40
1
 40
1
 40
1
 10
3.258776
 20
1.578520
 30
0.0
 10
3.258776
 20
1.561812
 30
0.0
 10
3.265414
 20
1.545789
 30
0.0
 10
3.277228
 20
1.533975
 30
0.0
  0
SPLINE
  5
2bb
100
AcDbEntity
  8
Layer_1
 62
7
100
AcDbSpline
 70
8
 71
3
 72
8
 73
4
 74
0
 40
0
 40
0
 40
0
 40
0
 40
1
 40
1
 40
1
 40
1
 10
3.277228
 20
1.533975
 30
0.0
 10
3.289042
 20
1.522161
 30
0.0
 10
3.305065
 20
1.515524
 30
0.0
 10
3.321772
 20
1.515524
 30
0.0
  0
SPLINE
  5
2bc
100
AcDbEntity
  8
Layer_1
 62
7
100
AcDbSpline
 70
8
 71
3
 72
8
 73
4
 74
0
 40
0
 40
0
 40
0
 40
0
 40
1
 40
1
 40
1
 40
1
 10
3.321772
 20
1.515524
 30
0.0
 10
3.338480
 20
1.515524
 30
0.0
 10
3.354503
 20
1.522161
 30
0.0
 10
3.366317
 20
1.533975
 30
0.0
  0
SPLINE
  5
2bd
100
AcDbEntity
  8
Layer_1
 62
7
100
AcDbSpline
 70
8
 71
3
 72
8
 73
4
 74
0
 40
0
 40
0
 40
0
 40
0
 40
1
 40
1
 40
1
 40
1
 10
3.366317
 20
1.533975
 30
0.0
 10
3.378131
 20
1.545789
 30
0.0
 10
3.384769
 20
1.561812
 30
0.0
 10
3.384769
 20
1.578520
 30
0.0
  0
SPLINE
  5
2be
100
AcDbEntity
  8
Layer_1
 62
7
100
AcDbSpline
 70
8
 71
3
 72
8
 73
4
 74
0
 40
0
 40
0
 40
0
 40
0
 40
1
 40
1
 40
1
 40
1
 10
3.384769
 20
1.578520
 30
0.0
 10
3.384769
 20
1.595227
 30
0.0
 10
3.378131
 20
1.611251
 30
0.0
 10
3.366317
 20
1.623065
 30
0.0
  0
SPLINE
  5
2bf
100
AcDbEntity
  8
Layer_1
 62
7
100
AcDbSpline
 70
8
 71
3
 72
8
 73
4
 74
0
 40
0
 40
0
 40
0
 40
0
 40
1
 40
1
 40
1
 40
1
 10
3.366317
 20
1.623065
 30
0.0
 10
3.354503
 20
1.634879
 30
0.0
 10
3.338480
 20
1.641516
 30
0.0
 10
3.321772
 20
1.641516
 30
0.0
  0
SPLINE
  5
2c0
100
AcDbEntity
  8
Layer_1
 62
7
100
AcDbSpline
 70
8
 71
3
 72
8
 73
4
 74
0
 40
0
 40
0
 40
0
 40
0
 40
1
 40
1
 40
1
 40
1
 10
3.321772
 20
1.641516
 30
0.0
 10
3.305065
 20
1.641516
 30
0.0
 10
3.289042
 20
1.634879
 30
0.0
 10
3.277228
 20
1.623065
 30
0.0
  0
SPLINE
  5
2c1
100
AcDbEntity
  8
Layer_1
 62
7
100
AcDbSpline
 70
8
 71
3
 72
8
 73
4
 74
0
 40
0
 40
0
 40
0
 40
0
 40
1
 40
1
 40
1
 40
1
 10
3.277228
 20
1.623065
 30
0.0
 10
3.265414
 20
1.611251
 30
0.0
 10
3.258776
 20
1.595227
 30
0.0
 10
3.258776
 20
1.578520
 30
0.0
  0
SPLINE
  5
2c2
100
AcDbEntity
  8
Layer_1
 62
7
100
AcDbSpline
 70
8
 71
3
 72
8
 73
4
 74
0
 40
0
 40
0
 40
0
 40
0
 40
1
 40
1
 40
1
 40
1
 10
3.290981
 20
0.000519
 30
0.0
 10
3.290981
 20
-0.016188
 30
0.0
 10
3.297618
 20
-0.032212
 30
0.0
 10
3.309432
 20
-0.044026
 30
0.0
  0
SPLINE
  5
2c3
100
AcDbEntity
  8
Layer_1
 62
7
100
AcDbSpline
 70
8
 71
3
 72
8
 73
4
 74
0
 40
0
 40
0
 40
0
 40
0
 40
1
 40
1
 40
1
 40
1
 10
3.309432
 20
-0.044026
 30
0.0
 10
3.321246
 20
-0.055840
 30
0.0
 10
3.337269
 20
-0.062477
 30
0.0
 10
3.353977
 20
-0.062477
 30
0.0
  0
SPLINE
  5
2c4
100
AcDbEntity
  8
Layer_1
 62
7
100
AcDbSpline
 70
8
 71
3
 72
8
 73
4
 74
0
 40
0
 40
0
 40
0
 40
0
 40
1
 40
1
 40
1
 40
1
 10
3.353977
 20
-0.062477
 30
0.0
 10
3.388768
 20
-0.062477
 30
0.0
 10
3.416973
 20
-0.034272
 30
0.0
 10
3.416972
 20
0.000519
 30
0.0
  0
SPLINE
  5
2c5
100
AcDbEntity
  8
Layer_1
 62
7
100
AcDbSpline
 70
8
 71
3
 72
8
 73
4
 74
0
 40
0
 40
0
 40
0
 40
0
 40
1
 40
1
 40
1
 40
1
 10
3.416972
 20
0.000519
 30
0.0
 10
3.416973
 20
0.035311
 30
0.0
 10
3.388768
 20
0.063515
 30
0.0
 10
3.353977
 20
0.063515
 30
0.0
  0
SPLINE
  5
2c6
100
AcDbEntity
  8
Layer_1
 62
7
100
AcDbSpline
 70
8
 71
3
 72
8
 73
4
 74
0
 40
0
 40
0
 40
0
 40
0
 40
1
 40
1
 40
1
 40
1
 10
3.353977
 20
0.063515
 30
0.0
 10
3.337269
 20
0.063515
 30
0.0
 10
3.321246
 20
0.056878
 30
0.0
 10
3.309432
 20
0.045064
 30
0.0
  0
SPLINE
  5
2c7
100
AcDbEntity
  8
Layer_1
 62
7
100
AcDbSpline
 70
8
 71
3
 72
8
 73
4
 74
0
 40
0
 40
0
 40
0
 40
0
 40
1
 40
1
 40
1
 40
1
 10
3.309432
 20
0.045064
 30
0.0
 10
3.297618
 20
0.033250
 30
0.0
 10
3.290981
 20
0.017227
 30
0.0
 10
3.290981
 20
0.000519
 30
0.0
  0
SPLINE
  5
2c8
100
AcDbEntity
  8
Layer_1
 62
7
100
AcDbSpline
 70
8
 71
3
 72
8
 73
4
 74
0
 40
0
 40
0
 40
0
 40
0
 40
1
 40
1
 40
1
 40
1
 10
6.946143
 20
0.048826
 30
0.0
 10
6.946143
 20
0.014034
 30
0.0
 10
6.974347
 20
-0.014170
 30
0.0
 10
7.009139
 20
-0.014170
 30
0.0
  0
SPLINE
  5
2c9
100
AcDbEntity
  8
Layer_1
 62
7
100
AcDbSpline
 70
8
 71
3
 72
8
 73
4
 74
0
 40
0
 40
0
 40
0
 40
0
 40
1
 40
1
 40
1
 40
1
 10
7.009139
 20
-0.014170
 30
0.0
 10
7.043930
 20
-0.014170
 30
0.0
 10
7.072135
 20
0.014034
 30
0.0
 10
7.072135
 20
0.048826
 30
0.0
  0
SPLINE
  5
2ca
100
AcDbEntity
  8
Layer_1
 62
7
100
AcDbSpline
 70
8
 71
3
 72
8
 73
4
 74
0
 40
0
 40
0
 40
0
 40
0
 40
1
 40
1
 40
1
 40
1
 10
7.072135
 20
0.048826
 30
0.0
 10
7.072135
 20
0.065534
 30
0.0
 10
7.065498
 20
0.081557
 30
0.0
 10
7.053684
 20
0.093371
 30
0.0
  0
SPLINE
  5
2cb
100
AcDbEntity
  8
Layer_1
 62
7
100
AcDbSpline
 70
8
 71
3
 72
8
 73
4
 74
0
 40
0
 40
0
 40
0
 40
0
 40
1
 40
1
 40
1
 40
1
 10
7.053684
 20
0.093371
 30
0.0
 10
7.041870
 20
0.105185
 30
0.0
 10
7.025846
 20
0.111822
 30
0.0
 10
7.009139
 20
0.111822
 30
0.0
  0
SPLINE
  5
2cc
100
AcDbEntity
  8
Layer_1
 62
7
100
AcDbSpline
 70
8
 71
3
 72
8
 73
4
 74
0
 40
0
 40
0
 40
0
 40
0
 40
1
 40
1
 40
1
 40
1
 10
7.009139
 20
0.111822
 30
0.0
 10
6.992431
 20
0.111822
 30
0.0
 10
6.976408
 20
0.105185
 30
0.0
 10
6.964594
 20
0.093371
 30
0.0
  0
SPLINE
  5
2cd
100
AcDbEntity
  8
Layer_1
 62
7
100
AcDbSpline
 70
8
 71
3
 72
8
 73
4
 74
0
 40
0
 40
0
 40
0
 40
0
 40
1
 40
1
 40
1
 40
1
 10
6.964594
 20
0.093371
 30
0.0
 10
6.952780
 20
0.081557
 30
0.0
 10
6.946143
 20
0.065534
 30
0.0
 10
6.946143
 20
0.048826
 30
0.0
  0
SPLINE
  5
2ce
100
AcDbEntity
  8
Layer_1
 62
7
100
AcDbSpline
 70
8
 71
3
 72
8
 73
4
 74
0
 40
0
 40
0
 40
0
 40
0
 40
1
 40
1
 40
1
 40
1
 10
4.369817
 20
3.768396
 30
0.0
 10
4.369817
 20
3.751689
 30
0.0
 10
4.376454
 20
3.735665
 30
0.0
 10
4.388268
 20
3.723851
 30
0.0
  0
SPLINE
  5
2cf
100
AcDbEntity
  8
Layer_1
 62
7
100
AcDbSpline
 70
8
 71
3
 72
8
 73
4
 74
0
 40
0
 40
0
 40
0
 40
0
 40
1
 40
1
 40
1
 40
1
 10
4.388268
 20
3.723851
 30
0.0
 10
4.400082
 20
3.712037
 30
0.0
 10
4.416105
 20
3.705400
 30
0.0
 10
4.432813
 20
3.705400
 30
0.0
  0
SPLINE
  5
2d0
100
AcDbEntity
  8
Layer_1
 62
7
100
AcDbSpline
 70
8
 71
3
 72
8
 73
4
 74
0
 40
0
 40
0
 40
0
 40
0
 40
1
 40
1
 40
1
 40
1
 10
4.432813
 20
3.705400
 30
0.0
 10
4.449521
 20
3.705400
 30
0.0
 10
4.465544
 20
3.712037
 30
0.0
 10
4.477358
 20
3.723851
 30
0.0
  0
SPLINE
  5
2d1
100
AcDbEntity
  8
Layer_1
 62
7
100
AcDbSpline
 70
8
 71
3
 72
8
 73
4
 74
0
 40
0
 40
0
 40
0
 40
0
 40
1
 40
1
 40
1
 40
1
 10
4.477358
 20
3.723851
 30
0.0
 10
4.489172
 20
3.735665
 30
0.0
 10
4.495809
 20
3.751689
 30
0.0
 10
4.495809
 20
3.768396
 30
0.0
  0
SPLINE
  5
2d2
100
AcDbEntity
  8
Layer_1
 62
7
100
AcDbSpline
 70
8
 71
3
 72
8
 73
4
 74
0
 40
0
 40
0
 40
0
 40
0
 40
1
 40
1
 40
1
 40
1
 10
4.495809
 20
3.768396
 30
0.0
 10
4.495809
 20
3.785104
 30
0.0
 10
4.489172
 20
3.801127
 30
0.0
 10
4.477358
 20
3.812941
 30
0.0
  0
SPLINE
  5
2d3
100
AcDbEntity
  8
Layer_1
 62
7
100
AcDbSpline
 70
8
 71
3
 72
8
 73
4
 74
0
 40
0
 40
0
 40
0
 40
0
 40
1
 40
1
 40
1
 40
1
 10
4.477358
 20
3.812941
 30
0.0
 10
4.465544
 20
3.824755
 30
0.0
 10
4.449521
 20
3.831392
 30
0.0
 10
4.432813
 20
3.831392
 30
0.0
  0
SPLINE
  5
2d4
100
AcDbEntity
  8
Layer_1
 62
7
100
AcDbSpline
 70
8
 71
3
 72
8
 73
4
 74
0
 40
0
 40
0
 40
0
 40
0
 40
1
 40
1
 40
1
 40
1
 10
4.432813
 20
3.831392
 30
0.0
 10
4.416105
 20
3.831392
 30
0.0
 10
4.400082
 20
3.824755
 30
0.0
 10
4.388268
 20
3.812941
 30
0.0
  0
SPLINE
  5
2d5
100
AcDbEntity
  8
Layer_1
 62
7
100
AcDbSpline
 70
8
 71
3
 72
8
 73
4
 74
0
 40
0
 40
0
 40
0
 40
0
 40
1
 40
1
 40
1
 40
1
 10
4.388268
 20
3.812941
 30
0.0
 10
4.376454
 20
3.801127
 30
0.0
 10
4.369817
 20
3.785104
 30
0.0
 10
4.369817
 20
3.768396
 30
0.0
  0
SPLINE
  5
2d6
100
AcDbEntity
  8
Layer_1
 62
7
100
AcDbSpline
 70
8
 71
3
 72
8
 73
4
 74
0
 40
0
 40
0
 40
0
 40
0
 40
1
 40
1
 40
1
 40
1
 10
6.962245
 20
3.800600
 30
0.0
 10
6.962245
 20
3.783892
 30
0.0
 10
6.968882
 20
3.767869
 30
0.0
 10
6.980696
 20
3.756055
 30
0.0
  0
SPLINE
  5
2d7
100
AcDbEntity
  8
Layer_1
 62
7
100
AcDbSpline
 70
8
 71
3
 72
8
 73
4
 74
0
 40
0
 40
0
 40
0
 40
0
 40
1
 40
1
 40
1
 40
1
 10
6.980696
 20
3.756055
 30
0.0
 10
6.992510
 20
3.744241
 30
0.0
 10
7.008533
 20
3.737604
 30
0.0
 10
7.025241
 20
3.737604
 30
0.0
  0
SPLINE
  5
2d8
100
AcDbEntity
  8
Layer_1
 62
7
100
AcDbSpline
 70
8
 71
3
 72
8
 73
4
 74
0
 40
0
 40
0
 40
0
 40
0
 40
1
 40
1
 40
1
 40
1
 10
7.025241
 20
3.737604
 30
0.0
 10
7.041948
 20
3.737604
 30
0.0
 10
7.057972
 20
3.744241
 30
0.0
 10
7.069786
 20
3.756055
 30
0.0
  0
SPLINE
  5
2d9
100
AcDbEntity
  8
Layer_1
 62
7
100
AcDbSpline
 70
8
 71
3
 72
8
 73
4
 74
0
 40
0
 40
0
 40
0
 40
0
 40
1
 40
1
 40
1
 40
1
 10
7.069786
 20
3.756055
 30
0.0
 10
7.081600
 20
3.767869
 30
0.0
 10
7.088237
 20
3.783892
 30
0.0
 10
7.088237
 20
3.800600
 30
0.0
  0
SPLINE
  5
2da
100
AcDbEntity
  8
Layer_1
 62
7
100
AcDbSpline
 70
8
 71
3
 72
8
 73
4
 74
0
 40
0
 40
0
 40
0
 40
0
 40
1
 40
1
 40
1
 40
1
 10
7.088237
 20
3.800600
 30
0.0
 10
7.088237
 20
3.817308
 30
0.0
 10
7.081600
 20
3.833331
 30
0.0
 10
7.069786
 20
3.845145
 30
0.0
  0
SPLINE
  5
2db
100
AcDbEntity
  8
Layer_1
 62
7
100
AcDbSpline
 70
8
 71
3
 72
8
 73
4
 74
0
 40
0
 40
0
 40
0
 40
0
 40
1
 40
1
 40
1
 40
1
 10
7.069786
 20
3.845145
 30
0.0
 10
7.057972
 20
3.856959
 30
0.0
 10
7.041948
 20
3.863596
 30
0.0
 10
7.025241
 20
3.863596
 30
0.0
  0
SPLINE
  5
2dc
100
AcDbEntity
  8
Layer_1
 62
7
100
AcDbSpline
 70
8
 71
3
 72
8
 73
4
 74
0
 40
0
 40
0
 40
0
 40
0
 40
1
 40
1
 40
1
 40
1
 10
7.025241
 20
3.863596
 30
0.0
 10
7.008533
 20
3.863596
 30
0.0
 10
6.992510
 20
3.856959
 30
0.0
 10
6.980696
 20
3.845145
 30
0.0
  0
SPLINE
  5
2dd
100
AcDbEntity
  8
Layer_1
 62
7
100
AcDbSpline
 70
8
 71
3
 72
8
 73
4
 74
0
 40
0
 40
0
 40
0
 40
0
 40
1
 40
1
 40
1
 40
1
 10
6.980696
 20
3.845145
 30
0.0
 10
6.968882
 20
3.833331
 30
0.0
 10
6.962245
 20
3.817308
 30
0.0
 10
6.962245
 20
3.800600
 30
0.0
  0
SPLINE
  5
2de
100
AcDbEntity
  8
Layer_1
 62
7
100
AcDbSpline
 70
8
 71
3
 72
8
 73
4
 74
0
 40
0
 40
0
 40
0
 40
0
 40
1
 40
1
 40
1
 40
1
 10
23.997825
 20
3.596554
 30
0.0
 10
23.997825
 20
3.561762
 30
0.0
 10
24.026029
 20
3.533558
 30
0.0
 10
24.060821
 20
3.533558
 30
0.0
  0
SPLINE
  5
2df
100
AcDbEntity
  8
Layer_1
 62
7
100
AcDbSpline
 70
8
 71
3
 72
8
 73
4
 74
0
 40
0
 40
0
 40
0
 40
0
 40
1
 40
1
 40
1
 40
1
 10
24.060821
 20
3.533558
 30
0.0
 10
24.095613
 20
3.533558
 30
0.0
 10
24.123817
 20
3.561762
 30
0.0
 10
24.123817
 20
3.596554
 30
0.0
  0
SPLINE
  5
2e0
100
AcDbEntity
  8
Layer_1
 62
7
100
AcDbSpline
 70
8
 71
3
 72
8
 73
4
 74
0
 40
0
 40
0
 40
0
 40
0
 40
1
 40
1
 40
1
 40
1
 10
24.123817
 20
3.596554
 30
0.0
 10
24.123817
 20
3.631345
 30
0.0
 10
24.095613
 20
3.659550
 30
0.0
 10
24.060821
 20
3.659550
 30
0.0
  0
SPLINE
  5
2e1
100
AcDbEntity
  8
Layer_1
 62
7
100
AcDbSpline
 70
8
 71
3
 72
8
 73
4
 74
0
 40
0
 40
0
 40
0
 40
0
 40
1
 40
1
 40
1
 40
1
 10
24.060821
 20
3.659550
 30
0.0
 10
24.026029
 20
3.659550
 30
0.0
 10
23.997825
 20
3.631345
 30
0.0
 10
23.997825
 20
3.596554
 30
0.0
  0
SPLINE
  5
2e2
100
AcDbEntity
  8
Layer_1
 62
7
100
AcDbSpline
 70
8
 71
3
 72
8
 73
4
 74
0
 40
0
 40
0
 40
0
 40
0
 40
1
 40
1
 40
1
 40
1
 10
27.705348
 20
3.596554
 30
0.0
 10
27.705348
 20
3.561762
 30
0.0
 10
27.733552
 20
3.533558
 30
0.0
 10
27.768344
 20
3.533558
 30
0.0
  0
SPLINE
  5
2e3
100
AcDbEntity
  8
Layer_1
 62
7
100
AcDbSpline
 70
8
 71
3
 72
8
 73
4
 74
0
 40
0
 40
0
 40
0
 40
0
 40
1
 40
1
 40
1
 40
1
 10
27.768344
 20
3.533558
 30
0.0
 10
27.803135
 20
3.533558
 30
0.0
 10
27.831340
 20
3.561762
 30
0.0
 10
27.831340
 20
3.596554
 30
0.0
  0
SPLINE
  5
2e4
100
AcDbEntity
  8
Layer_1
 62
7
100
AcDbSpline
 70
8
 71
3
 72
8
 73
4
 74
0
 40
0
 40
0
 40
0
 40
0
 40
1
 40
1
 40
1
 40
1
 10
27.831340
 20
3.596554
 30
0.0
 10
27.831340
 20
3.631345
 30
0.0
 10
27.803135
 20
3.659550
 30
0.0
 10
27.768344
 20
3.659550
 30
0.0
  0
SPLINE
  5
2e5
100
AcDbEntity
  8
Layer_1
 62
7
100
AcDbSpline
 70
8
 71
3
 72
8
 73
4
 74
0
 40
0
 40
0
 40
0
 40
0
 40
1
 40
1
 40
1
 40
1
 10
27.768344
 20
3.659550
 30
0.0
 10
27.733552
 20
3.659550
 30
0.0
 10
27.705348
 20
3.631345
 30
0.0
 10
27.705348
 20
3.596554
 30
0.0
  0
SPLINE
  5
2e6
100
AcDbEntity
  8
Layer_1
 62
7
100
AcDbSpline
 70
8
 71
3
 72
8
 73
4
 74
0
 40
0
 40
0
 40
0
 40
0
 40
1
 40
1
 40
1
 40
1
 10
27.706962
 20
0.123500
 30
0.0
 10
27.706962
 20
0.088709
 30
0.0
 10
27.735167
 20
0.060504
 30
0.0
 10
27.769958
 20
0.060504
 30
0.0
  0
SPLINE
  5
2e7
100
AcDbEntity
  8
Layer_1
 62
7
100
AcDbSpline
 70
8
 71
3
 72
8
 73
4
 74
0
 40
0
 40
0
 40
0
 40
0
 40
1
 40
1
 40
1
 40
1
 10
27.769958
 20
0.060504
 30
0.0
 10
27.804750
 20
0.060504
 30
0.0
 10
27.832954
 20
0.088709
 30
0.0
 10
27.832954
 20
0.123500
 30
0.0
  0
SPLINE
  5
2e8
100
AcDbEntity
  8
Layer_1
 62
7
100
AcDbSpline
 70
8
 71
3
 72
8
 73
4
 74
0
 40
0
 40
0
 40
0
 40
0
 40
1
 40
1
 40
1
 40
1
 10
27.832954
 20
0.123500
 30
0.0
 10
27.832954
 20
0.158292
 30
0.0
 10
27.804750
 20
0.186496
 30
0.0
 10
27.769958
 20
0.186496
 30
0.0
  0
SPLINE
  5
2e9
100
AcDbEntity
  8
Layer_1
 62
7
100
AcDbSpline
 70
8
 71
3
 72
8
 73
4
 74
0
 40
0
 40
0
 40
0
 40
0
 40
1
 40
1
 40
1
 40
1
 10
27.769958
 20
0.186496
 30
0.0
 10
27.735167
 20
0.186496
 30
0.0
 10
27.706963
 20
0.158292
 30
0.0
 10
27.706962
 20
0.123500
 30
0.0
  0
SPLINE
  5
2ea
100
AcDbEntity
  8
Layer_1
 62
7
100
AcDbSpline
 70
8
 71
3
 72
8
 73
4
 74
0
 40
0
 40
0
 40
0
 40
0
 40
1
 40
1
 40
1
 40
1
 10
30.374033
 20
-2.808961
 30
0.0
 10
30.374033
 20
-2.843752
 30
0.0
 10
30.402237
 20
-2.871957
 30
0.0
 10
30.437029
 20
-2.871957
 30
0.0
  0
SPLINE
  5
2eb
100
AcDbEntity
  8
Layer_1
 62
7
100
AcDbSpline
 70
8
 71
3
 72
8
 73
4
 74
0
 40
0
 40
0
 40
0
 40
0
 40
1
 40
1
 40
1
 40
1
 10
30.437029
 20
-2.871957
 30
0.0
 10
30.471821
 20
-2.871957
 30
0.0
 10
30.500025
 20
-2.843752
 30
0.0
 10
30.500025
 20
-2.808961
 30
0.0
  0
SPLINE
  5
2ec
100
AcDbEntity
  8
Layer_1
 62
7
100
AcDbSpline
 70
8
 71
3
 72
8
 73
4
 74
0
 40
0
 40
0
 40
0
 40
0
 40
1
 40
1
 40
1
 40
1
 10
30.500025
 20
-2.808961
 30
0.0
 10
30.500025
 20
-2.774169
 30
0.0
 10
30.471821
 20
-2.745965
 30
0.0
 10
30.437029
 20
-2.745965
 30
0.0
  0
SPLINE
  5
2ed
100
AcDbEntity
  8
Layer_1
 62
7
100
AcDbSpline
 70
8
 71
3
 72
8
 73
4
 74
0
 40
0
 40
0
 40
0
 40
0
 40
1
 40
1
 40
1
 40
1
 10
30.437029
 20
-2.745965
 30
0.0
 10
30.402237
 20
-2.745965
 30
0.0
 10
30.374033
 20
-2.774169
 30
0.0
 10
30.374033
 20
-2.808961
 30
0.0
  0
SPLINE
  5
2ee
100
AcDbEntity
  8
Layer_1
 62
7
100
AcDbSpline
 70
8
 71
3
 72
8
 73
4
 74
0
 40
0
 40
0
 40
0
 40
0
 40
1
 40
1
 40
1
 40
1
 10
27.721617
 20
-2.808961
 30
0.0
 10
27.721617
 20
-2.843752
 30
0.0
 10
27.749821
 20
-2.871957
 30
0.0
 10
27.784612
 20
-2.871957
 30
0.0
  0
SPLINE
  5
2ef
100
AcDbEntity
  8
Layer_1
 62
7
100
AcDbSpline
 70
8
 71
3
 72
8
 73
4
 74
0
 40
0
 40
0
 40
0
 40
0
 40
1
 40
1
 40
1
 40
1
 10
27.784612
 20
-2.871957
 30
0.0
 10
27.819404
 20
-2.871957
 30
0.0
 10
27.847608
 20
-2.843752
 30
0.0
 10
27.847608
 20
-2.808961
 30
0.0
  0
SPLINE
  5
2f0
100
AcDbEntity
  8
Layer_1
 62
7
100
AcDbSpline
 70
8
 71
3
 72
8
 73
4
 74
0
 40
0
 40
0
 40
0
 40
0
 40
1
 40
1
 40
1
 40
1
 10
27.847608
 20
-2.808961
 30
0.0
 10
27.847608
 20
-2.774169
 30
0.0
 10
27.819404
 20
-2.745965
 30
0.0
 10
27.784612
 20
-2.745965
 30
0.0
  0
SPLINE
  5
2f1
100
AcDbEntity
  8
Layer_1
 62
7
100
AcDbSpline
 70
8
 71
3
 72
8
 73
4
 74
0
 40
0
 40
0
 40
0
 40
0
 40
1
 40
1
 40
1
 40
1
 10
27.784612
 20
-2.745965
 30
0.0
 10
27.749821
 20
-2.745965
 30
0.0
 10
27.721617
 20
-2.774169
 30
0.0
 10
27.721617
 20
-2.808961
 30
0.0
  0
SPLINE
  5
2f2
100
AcDbEntity
  8
Layer_1
 62
7
100
AcDbSpline
 70
8
 71
3
 72
8
 73
4
 74
0
 40
0
 40
0
 40
0
 40
0
 40
1
 40
1
 40
1
 40
1
 10
30.403344
 20
0.167463
 30
0.0
 10
30.403344
 20
0.132672
 30
0.0
 10
30.431548
 20
0.104467
 30
0.0
 10
30.466340
 20
0.104467
 30
0.0
  0
SPLINE
  5
2f3
100
AcDbEntity
  8
Layer_1
 62
7
100
AcDbSpline
 70
8
 71
3
 72
8
 73
4
 74
0
 40
0
 40
0
 40
0
 40
0
 40
1
 40
1
 40
1
 40
1
 10
30.466340
 20
0.104467
 30
0.0
 10
30.501131
 20
0.104467
 30
0.0
 10
30.529335
 20
0.132672
 30
0.0
 10
30.529335
 20
0.167463
 30
0.0
  0
SPLINE
  5
2f4
100
AcDbEntity
  8
Layer_1
 62
7
100
AcDbSpline
 70
8
 71
3
 72
8
 73
4
 74
0
 40
0
 40
0
 40
0
 40
0
 40
1
 40
1
 40
1
 40
1
 10
30.529335
 20
0.167463
 30
0.0
 10
30.529335
 20
0.202255
 30
0.0
 10
30.501131
 20
0.230459
 30
0.0
 10
30.466340
 20
0.230459
 30
0.0
  0
SPLINE
  5
2f5
100
AcDbEntity
  8
Layer_1
 62
7
100
AcDbSpline
 70
8
 71
3
 72
8
 73
4
 74
0
 40
0
 40
0
 40
0
 40
0
 40
1
 40
1
 40
1
 40
1
 10
30.466340
 20
0.230459
 30
0.0
 10
30.431548
 20
0.230459
 30
0.0
 10
30.403344
 20
0.202255
 30
0.0
 10
30.403344
 20
0.167463
 30
0.0
  0
SPLINE
  5
2f6
100
AcDbEntity
  8
Layer_1
 62
7
100
AcDbSpline
 70
8
 71
3
 72
8
 73
4
 74
0
 40
0
 40
0
 40
0
 40
0
 40
1
 40
1
 40
1
 40
1
 10
23.960319
 20
0.344928
 30
0.0
 10
23.960319
 20
0.310136
 30
0.0
 10
23.988523
 20
0.281932
 30
0.0
 10
24.023315
 20
0.281932
 30
0.0
  0
SPLINE
  5
2f7
100
AcDbEntity
  8
Layer_1
 62
7
100
AcDbSpline
 70
8
 71
3
 72
8
 73
4
 74
0
 40
0
 40
0
 40
0
 40
0
 40
1
 40
1
 40
1
 40
1
 10
24.023315
 20
0.281932
 30
0.0
 10
24.040022
 20
0.281932
 30
0.0
 10
24.056046
 20
0.288568
 30
0.0
 10
24.067861
 20
0.300383
 30
0.0
  0
SPLINE
  5
2f8
100
AcDbEntity
  8
Layer_1
 62
7
100
AcDbSpline
 70
8
 71
3
 72
8
 73
4
 74
0
 40
0
 40
0
 40
0
 40
0
 40
1
 40
1
 40
1
 40
1
 10
24.067861
 20
0.300383
 30
0.0
 10
24.079675
 20
0.312197
 30
0.0
 10
24.086313
 20
0.328220
 30
0.0
 10
24.086312
 20
0.344928
 30
0.0
  0
SPLINE
  5
2f9
100
AcDbEntity
  8
Layer_1
 62
7
100
AcDbSpline
 70
8
 71
3
 72
8
 73
4
 74
0
 40
0
 40
0
 40
0
 40
0
 40
1
 40
1
 40
1
 40
1
 10
24.086312
 20
0.344928
 30
0.0
 10
24.086312
 20
0.361636
 30
0.0
 10
24.079675
 20
0.377660
 30
0.0
 10
24.067861
 20
0.389474
 30
0.0
  0
SPLINE
  5
2fa
100
AcDbEntity
  8
Layer_1
 62
7
100
AcDbSpline
 70
8
 71
3
 72
8
 73
4
 74
0
 40
0
 40
0
 40
0
 40
0
 40
1
 40
1
 40
1
 40
1
 10
24.067861
 20
0.389474
 30
0.0
 10
24.056046
 20
0.401288
 30
0.0
 10
24.040022
 20
0.407924
 30
0.0
 10
24.023315
 20
0.407924
 30
0.0
  0
SPLINE
  5
2fb
100
AcDbEntity
  8
Layer_1
 62
7
100
AcDbSpline
 70
8
 71
3
 72
8
 73
4
 74
0
 40
0
 40
0
 40
0
 40
0
 40
1
 40
1
 40
1
 40
1
 10
24.023315
 20
0.407924
 30
0.0
 10
23.988523
 20
0.407924
 30
0.0
 10
23.960319
 20
0.379720
 30
0.0
 10
23.960319
 20
0.344928
 30
0.0
  0
SPLINE
  5
2fc
100
AcDbEntity
  8
Layer_1
 62
7
100
AcDbSpline
 70
8
 71
3
 72
8
 73
4
 74
0
 40
0
 40
0
 40
0
 40
0
 40
1
 40
1
 40
1
 40
1
 10
23.973358
 20
-2.802505
 30
0.0
 10
23.973358
 20
-2.837297
 30
0.0
 10
24.001562
 20
-2.865501
 30
0.0
 10
24.036354
 20
-2.865501
 30
0.0
  0
SPLINE
  5
2fd
100
AcDbEntity
  8
Layer_1
 62
7
100
AcDbSpline
 70
8
 71
3
 72
8
 73
4
 74
0
 40
0
 40
0
 40
0
 40
0
 40
1
 40
1
 40
1
 40
1
 10
24.036354
 20
-2.865501
 30
0.0
 10
24.071146
 20
-2.865501
 30
0.0
 10
24.099350
 20
-2.837297
 30
0.0
 10
24.099350
 20
-2.802505
 30
0.0
  0
SPLINE
  5
2fe
100
AcDbEntity
  8
Layer_1
 62
7
100
AcDbSpline
 70
8
 71
3
 72
8
 73
4
 74
0
 40
0
 40
0
 40
0
 40
0
 40
1
 40
1
 40
1
 40
1
 10
24.099350
 20
-2.802505
 30
0.0
 10
24.099350
 20
-2.767713
 30
0.0
 10
24.071146
 20
-2.739509
 30
0.0
 10
24.036354
 20
-2.739509
 30
0.0
  0
SPLINE
  5
2ff
100
AcDbEntity
  8
Layer_1
 62
7
100
AcDbSpline
 70
8
 71
3
 72
8
 73
4
 74
0
 40
0
 40
0
 40
0
 40
0
 40
1
 40
1
 40
1
 40
1
 10
24.036354
 20
-2.739509
 30
0.0
 10
24.001562
 20
-2.739509
 30
0.0
 10
23.973358
 20
-2.767713
 30
0.0
 10
23.973358
 20
-2.802505
 30
0.0
  0
SPLINE
  5
300
100
AcDbEntity
  8
Layer_1
 62
7
100
AcDbSpline
 70
8
 71
3
 72
8
 73
4
 74
0
 40
0
 40
0
 40
0
 40
0
 40
1
 40
1
 40
1
 40
1
 10
25.202537
 20
12.658525
 30
0.0
 10
25.202537
 20
12.623733
 30
0.0
 10
25.230742
 20
12.595529
 30
0.0
 10
25.265533
 20
12.595529
 30
0.0
  0
SPLINE
  5
301
100
AcDbEntity
  8
Layer_1
 62
7
100
AcDbSpline
 70
8
 71
3
 72
8
 73
4
 74
0
 40
0
 40
0
 40
0
 40
0
 40
1
 40
1
 40
1
 40
1
 10
25.265533
 20
12.595529
 30
0.0
 10
25.300325
 20
12.595529
 30
0.0
 10
25.328529
 20
12.623733
 30
0.0
 10
25.328529
 20
12.658525
 30
0.0
  0
SPLINE
  5
302
100
AcDbEntity
  8
Layer_1
 62
7
100
AcDbSpline
 70
8
 71
3
 72
8
 73
4
 74
0
 40
0
 40
0
 40
0
 40
0
 40
1
 40
1
 40
1
 40
1
 10
25.328529
 20
12.658525
 30
0.0
 10
25.328529
 20
12.693317
 30
0.0
 10
25.300325
 20
12.721521
 30
0.0
 10
25.265533
 20
12.721521
 30
0.0
  0
SPLINE
  5
303
100
AcDbEntity
  8
Layer_1
 62
7
100
AcDbSpline
 70
8
 71
3
 72
8
 73
4
 74
0
 40
0
 40
0
 40
0
 40
0
 40
1
 40
1
 40
1
 40
1
 10
25.265533
 20
12.721521
 30
0.0
 10
25.230742
 20
12.721521
 30
0.0
 10
25.202538
 20
12.693317
 30
0.0
 10
25.202537
 20
12.658525
 30
0.0
  0
SPLINE
  5
304
100
AcDbEntity
  8
Layer_1
 62
7
100
AcDbSpline
 70
8
 71
3
 72
8
 73
4
 74
0
 40
0
 40
0
 40
0
 40
0
 40
1
 40
1
 40
1
 40
1
 10
30.390812
 20
8.764096
 30
0.0
 10
30.390812
 20
8.729304
 30
0.0
 10
30.419017
 20
8.701100
 30
0.0
 10
30.453808
 20
8.701100
 30
0.0
  0
SPLINE
  5
305
100
AcDbEntity
  8
Layer_1
 62
7
100
AcDbSpline
 70
8
 71
3
 72
8
 73
4
 74
0
 40
0
 40
0
 40
0
 40
0
 40
1
 40
1
 40
1
 40
1
 10
30.453808
 20
8.701100
 30
0.0
 10
30.488600
 20
8.701100
 30
0.0
 10
30.516804
 20
8.729304
 30
0.0
 10
30.516804
 20
8.764096
 30
0.0
  0
SPLINE
  5
306
100
AcDbEntity
  8
Layer_1
 62
7
100
AcDbSpline
 70
8
 71
3
 72
8
 73
4
 74
0
 40
0
 40
0
 40
0
 40
0
 40
1
 40
1
 40
1
 40
1
 10
30.516804
 20
8.764096
 30
0.0
 10
30.516804
 20
8.798887
 30
0.0
 10
30.488600
 20
8.827092
 30
0.0
 10
30.453808
 20
8.827092
 30
0.0
  0
SPLINE
  5
307
100
AcDbEntity
  8
Layer_1
 62
7
100
AcDbSpline
 70
8
 71
3
 72
8
 73
4
 74
0
 40
0
 40
0
 40
0
 40
0
 40
1
 40
1
 40
1
 40
1
 10
30.453808
 20
8.827092
 30
0.0
 10
30.419017
 20
8.827092
 30
0.0
 10
30.390812
 20
8.798887
 30
0.0
 10
30.390812
 20
8.764096
 30
0.0
  0
LWPOLYLINE
  5
308
100
AcDbEntity
  8
Layer_1
 62
7
100
AcDbPolyline
 90
1
 70
1
 10
27.508606
 20
6.513961
 30
0.0
  0
ENDSEC
  0
SECTION
  2
OBJECTS
  0
DICTIONARY
  5
C
330
0
100
AcDbDictionary
  3
ACAD_GROUP
350
D
  3
ACAD_MLINESTYLE
350
17
  0
DICTIONARY
  5
D
330
C
100
AcDbDictionary
  0
DICTIONARY
  5
1A
330
C
100
AcDbDictionary
  0
DICTIONARY
  5
17
330
C
100
AcDbDictionary
  3
STANDARD
350
18
  0
DICTIONARY
  5
19
330
C
100
AcDbDictionary
  0
ENDSEC
  0
EOF
