<?xml version="1.0" encoding="UTF-8" standalone="no"?>
<svg
   xmlns:dc="http://purl.org/dc/elements/1.1/"
   xmlns:cc="http://creativecommons.org/ns#"
   xmlns:rdf="http://www.w3.org/1999/02/22-rdf-syntax-ns#"
   xmlns:svg="http://www.w3.org/2000/svg"
   xmlns="http://www.w3.org/2000/svg"
   xmlns:sodipodi="http://sodipodi.sourceforge.net/DTD/sodipodi-0.dtd"
   xmlns:inkscape="http://www.inkscape.org/namespaces/inkscape"
   inkscape:version="1.1-dev (f9311a1, 2019-12-25)"
   sodipodi:docname="combined.svg"
   viewBox="0 0 9216.0003 4608"
   height="48in"
   width="96in"
   id="svg883"
   version="1.1">
  <metadata
     id="metadata889">
    <rdf:RDF>
      <cc:Work
         rdf:about="">
        <dc:format>image/svg+xml</dc:format>
        <dc:type
           rdf:resource="http://purl.org/dc/dcmitype/StillImage" />
        <dc:title />
      </cc:Work>
    </rdf:RDF>
  </metadata>
  <defs
     id="defs887" />
  <sodipodi:namedview
     inkscape:current-layer="g846"
     inkscape:window-maximized="1"
     inkscape:window-y="23"
     inkscape:window-x="0"
     inkscape:cy="2312.7674"
     inkscape:cx="4440.0572"
     inkscape:zoom="0.10485025"
     showgrid="true"
     id="namedview885"
     inkscape:window-height="1005"
     inkscape:window-width="1680"
     inkscape:pageshadow="2"
     inkscape:pageopacity="0"
     guidetolerance="10"
     gridtolerance="10"
     objecttolerance="10"
     borderopacity="1"
     inkscape:document-rotation="0"
     bordercolor="#666666"
     pagecolor="#ffffff"
     units="in"
     inkscape:document-units="in">
    <inkscape:grid
       type="xygrid"
       id="grid848"
       units="in"
       spacingx="24"
       spacingy="24"
       empspacing="4" />
  </sodipodi:namedview>
  <g
     style="display:inline"
     inkscape:label="Left"
     id="g846"
     inkscape:groupmode="layer">
    <path
       style="display:inline;fill:none;stroke:#ff00ff;stroke-width:9.6;stroke-linecap:round;stroke-linejoin:round;stroke-miterlimit:4;stroke-dasharray:none;stroke-opacity:1"
       d="M 6838.7594,3798.7324 Z"
       id="path842"
       inkscape:connector-curvature="0" />
    <path
       d="m 7956.1264,2655.9574 c 0,0 53.2621,62.9461 -26.6311,45.9991 m 1286.5287,-87.5228 c -59.3619,4.9468 -55.3179,7.9412 -130.8695,49.3146 -151.1032,82.7471 -356.1719,100.7355 -356.1719,100.7355 l -163.695,8.9943 -30.5805,10.793 -26.9826,-1.7989 -61.1609,-32.3791 c 0,0 -100.7354,-25.1838 -163.6951,21.5861 -62.9597,46.7701 -120.5229,113.3274 -120.5229,113.3274 0,0 -88.1435,79.1493 -214.0628,34.1782 -125.9193,-44.9712 -84.5458,-95.339 -84.5458,-95.339 l 66.5573,-125.9193 70.155,-122.3216 98.9367,-89.9424 102.5344,-71.954 c 0,0 28.7815,-16.1895 52.1666,-7.1952 23.3851,8.994 190.6778,28.7815 190.6778,28.7815 l 127.7183,37.7757 287.8155,100.7355 224.8559,89.9423 m -259.4022,1030.8374 180.5425,117.5436 209.7292,6.192 m -689.0416,-45.6169 82.2301,15.0756 95.9354,-15.0756 65.7843,-26.0395 54.8201,-52.0792 -61.6727,-35.6331 c 0,0 -27.4101,-17.8165 -15.0755,-45.2267 12.3346,-27.41 16.446,-49.3381 16.446,-49.3381 l -49.3381,-90.4533 -10.9641,-57.5613 c 0,0 -2.741,-30.1511 -28.7805,-23.2985 -26.0396,6.8526 -82.1731,51.4543 -82.1731,51.4543 m -272.523,-23.0254 c 0,0 99.7823,-128.4757 136.7858,-135.3282 37.0035,-6.8525 61.6727,8.223 61.6727,8.223 0,0 132.9389,-30.1511 94.5649,91.8237 -38.3742,121.9751 -69.8958,198.7233 -69.8958,198.7233 l -17.8165,187.759 c 0,0 -228.7086,61.0478 -296.7585,-35.9481 m -832.5373,-110.6958 c 0,0 32.892,90.4533 91.8236,117.8634 58.9318,27.4101 300.1973,-120.6524 300.1973,-120.6524 m -1337.4969,-1123.8697 385.4118,69.3995 336.5196,84.7351 196.1015,36.3151 210.6272,12.105 333.1525,23.2537 m -1190.5705,539.3795 145.9903,-67.8587 97.176,-54.1094 c 0,0 103.8017,-57.4222 161.2239,-30.9196 57.4223,26.5025 70.6735,37.5453 70.6735,37.5453 l 51.9009,16.5641 -9.9385,25.3983 -65.1521,78.4034 -154.5983,103.8017 -119.2615,85.029 -109.3231,79.5077 -83.9248,60.7351 -71.7777,47.4837 -236.3146,27.6068 -155.7025,33.1283 -142.4514,33.1282 -98.2803,13.2512 -157.9111,-8.8342 -118.1573,-35.3367 -68.4649,-17.6684 -41.9624,-5.5213 -108.2188,5.5213 -123.6786,8.8342 -144.6599,23.1898 -163.4324,37.5452 -151.2855,41.9624 -109.3231,25.3983 -170.0581,5.5214 -415.2068,18.7726 -144.6598,18.7727 -262.8171,3.3128 -257.2957,11.0427 -189.9351,22.0855 -139.1385,4.4171 -198.7692,14.3556 -36.441,-4.4171 m 2756.9763,-1191.3968 -28.0985,-91.6319 -10.4427,-58.1806 23.869,-70.1151 31.328,-31.328 35.8034,-20.8854 20.8854,-4.4754 35.8034,46.2461 35.8035,67.1315 24.992,55.2361 m 94.7367,262.0117 -65.4963,160.1523 -42.6293,103.0207 m 347.9607,-420.2078 11.4207,39.9725 -8.5655,157.0348 -8.5655,82.8002 c 0,0 -2.8552,45.6829 -48.5381,74.2347 -45.6828,28.5518 -131.3383,77.0898 -131.3383,77.0898 l -51.3932,11.4207 -85.6554,-8.5655 -91.3657,-17.1311 -25.6966,-14.2759 -25.6967,-22.8414 m 659.5465,8.5655 119.9175,-77.0898 62.814,-48.538 88.5105,-119.9176 34.2622,-42.8277 68.5243,-51.3932 65.6691,-39.9725 91.3657,-37.1173 c 0,0 45.6829,-11.4207 74.2347,19.9862 28.5518,31.407 45.6828,45.6829 45.6828,45.6829 l -19.9862,51.3932 -105.6416,122.7727 -117.0624,119.9176 -102.7864,125.6278 -39.9725,79.945 -102.7865,65.6692 -710.9397,-8.5656 m 456.8288,-842.2778 85.6553,19.9863 5.7104,616.7186 -122.7727,79.945 -139.9038,51.3933 m -3122.7541,-286.1294 144.8022,26.3081 179.8762,45.6828 197.0075,54.2484 251.2557,57.1036 228.4144,28.5518 265.5316,51.3932 165.6004,19.9863 157.0349,-5.7104 c 54.2484,-19.9862 128.483,-48.538 128.483,-48.538 l 105.6417,-77.0898 94.2209,-37.1174 214.1384,-105.6416 102.7864,-28.5518 102.7865,-22.8414 194.1522,-91.3658 288.373,-188.4418 151.3245,-79.945 145.6143,-45.6829 105.6416,-28.5517 71.3795,-5.7104 c 0,0 11.4207,159.89 -142.759,282.6627 -154.1797,122.7727 -199.8626,122.7727 -199.8626,122.7727 l -71.3795,54.2484 -105.6416,99.9313 -214.1384,208.4281 m -2521.4171,-81.4313 23.8003,16.7 41.677,5.9539 23.8154,15.8769 17.8615,45.6462 3.9693,134.9539 -23.8154,105.1847 -27.7847,91.2924 -53.5846,103.2001 -19.8462,53.5847 -21.8308,65.4923 -77.4,97.2463 c 0,0 -101.2155,101.2154 -210.3694,79.3846 -109.154,-21.8308 -267.9233,-111.1385 -267.9233,-111.1385 l -285.7849,-111.1385 -170.677,-59.5385 c 0,0 -152.8156,-27.7847 -234.1849,11.9077 -81.3693,39.6923 -188.5386,25.8 -188.5386,25.8 l -113.1231,-33.7385 -156.7848,-1.9846 -168.6924,19.8461 -79.3847,9.9231 -146.86168,-7.9384 -121.0616,7.9384 -279.83101,51.6001 -142.9776,32.3519 2.0441,-768 328.10971,39.2779 246.75198,26.9561 298.5906,31.1032 333.8408,10.3677 217.7224,4.1471 c 0,0 252.9725,-26.9561 356.6498,-103.6773 103.6773,-76.7212 466.5478,-116.1186 466.5478,-116.1186 l 248.8255,-2.0735 141.3838,24.913 24.6156,66.0734 14.2511,138.6247 -97.1668,-3.8867 c 0,0 -67.369,11.66 -116.6002,3.8867 -49.2311,-7.7734 -148.9891,59.5956 -148.9891,59.5956 l -93.2801,46.6401 c 0,0 -14.2511,11.66 -19.4334,27.2067 -5.1822,15.5467 18.1378,167.1269 18.1378,167.1269 0,0 9.0689,32.389 37.5712,28.5023 28.5023,-3.8867 95.8713,-25.9112 95.8713,-25.9112 l 77.7334,-11.66 18.1378,-19.4333 42.7534,-161.9447 m -42.7534,161.9447 154.1714,-112.7136 m 4793.4364,292.352 c 0,0 17.5482,57.1002 40.7073,99.7714 79.9435,147.2982 223.8053,62.5693 223.8053,62.5693 l 134.7645,-43.3173 28.878,-127.5451 62.5694,-187.7076 c 0,0 -60.1628,-64.9758 -113.106,-60.1627 -52.9433,4.813 -187.7077,197.3337 -262.3095,235.8379 -74.6017,38.5041 -341.7242,33.6911 -647.3509,24.0651 l -464.9834,11.9311 -184.1525,8.9106 m 219.674,-445.3546 36.5786,60.5776 17.09,14.2417"
       style="display:inline;fill:none;stroke:#00000f;stroke-width:24;stroke-linecap:round;stroke-linejoin:round;stroke-miterlimit:4;stroke-dasharray:none;stroke-opacity:1"
       id="path844-3"
       inkscape:connector-curvature="0"
       sodipodi:nodetypes="cccccccccccscccccccccccccccccccccccsccscscccccccccccccccccccccccccccccccccccccccccccccccccccccccccccccccccscccccccccccccccccccccccccccccccccccccccccccccccccsccccccccccccccccscccscccccccccccccccscccccccccccscccccccccccccscccccc" />
    <path
       sodipodi:nodetypes="cccccccccccccscccccccccccccccccccccccccccscccscccccccccccccccscccccccccccccccccccccccccccccccccccccccccccccc"
       inkscape:connector-curvature="0"
       d="m 9085.4938,2566.411 c 75.5516,-41.3734 71.1683,-52.6305 130.5302,-57.5773 v 1409.664 l -207.1245,-6.192 -176.8755,-97.872 -58.4871,32.4076 -65.7843,26.0395 -94.5527,28.6285 -82.2302,-15.0756 c 0,0 -252.0934,58.1572 -322.9457,-48 l -109.9598,41.8163 c 0,0 -193.8618,72.7289 -273.8053,-74.5693 -23.1591,-42.6712 -48.2349,-77.247 -48.2349,-77.247 -63.5276,60.5244 -168,110 -288,110 -96,0 -120,-72 -165.3953,-115.8236 l -486.1024,10.7413 -190.8164,10.9529 -242.9784,29.6492 -155.7025,33.1283 -142.4514,33.1282 -98.2803,13.2512 -157.9111,-8.8342 -118.1573,-35.3367 -68.4649,-17.6684 -41.9624,-5.5213 -108.2188,5.5213 -123.6786,8.8342 -144.6599,23.1898 -163.4324,37.5452 -151.2855,41.9624 -109.3231,25.3983 -170.0581,5.5214 -415.2068,18.7726 -144.6598,18.7727 -262.8171,3.3128 -257.2957,11.0427 -189.9352,22.0855 -139.1385,4.4171 -192.0682,17.9571 h -33.1254 -23.8245 c 0,0 -91.4659,72.1169 -200.6198,50.2861 -109.154,-21.8308 -267.9233,-111.1385 -267.9233,-111.1385 l -285.7849,-111.1385 -170.677,-59.5385 c 0,0 -152.8156,-27.7847 -234.1849,11.9077 -81.3693,39.6923 -188.5386,25.8 -188.5386,25.8 l -113.1231,-33.7385 -156.7848,-1.9846 -168.6924,19.8461 -79.3847,9.9231 -146.86168,-7.9384 -121.0616,7.9384 -279.83101,51.6001 -234.1848,33.7385 -0.2214,-993.2188 419.31691,65.5965 246.75198,26.9561 298.5906,31.1032 333.8408,10.3677 217.7224,4.1471 c 0,0 252.9725,-26.9561 356.6498,-103.6773 103.6773,-76.7212 466.5478,-116.1186 466.5478,-116.1186 l 248.8255,-2.0735 136.9527,23.9249 149.2333,27.2962 179.8762,45.6828 197.0076,54.2484 251.2557,57.1036 228.4144,28.5518 265.5316,51.3932 165.6004,19.9863 157.0349,-5.7104 c 54.2484,-19.9862 128.483,-48.538 128.483,-48.538 l 105.6417,-77.0898 94.2209,-37.1174 214.1384,-105.6416 102.7864,-28.5518 102.7865,-22.8414 253.6145,-135.3422 -24,-96 v -38.4705 l 10.7506,-49.2745 27.7553,-56.255 57.4941,-47.9999 72,-34.3081 72,10.3081 72,71.9999 24,48 68.2352,-32.4105 145.6143,-45.6829 105.6416,-28.5516 71.3795,-5.7104 85.6553,19.9863 385.4118,69.3994 336.5196,84.7351 196.1015,36.3152 210.6272,12.105 275.3867,18.6255 26.3141,-40.5248 83.2682,-114.608 133.5463,-79.7867 102.5344,-71.954 c 0,0 28.7815,-16.1896 52.1666,-7.1953 23.3851,8.9941 190.6778,28.7816 190.6778,28.7816 l 127.7183,37.7757 287.8155,100.7354 224.8559,89.9423"
       style="display:inline;fill:none;stroke:#000002;stroke-width:4.8;stroke-linecap:round;stroke-linejoin:round;stroke-miterlimit:4;stroke-dasharray:none;stroke-opacity:1"
       id="path885-6" />
  </g>
  <g
     inkscape:groupmode="layer"
     id="layer1"
     inkscape:label="Right"
     style="display:inline">
    <path
       style="fill:none;stroke:#ff00ff;stroke-width:9.6;stroke-linecap:round;stroke-linejoin:round;stroke-miterlimit:4;stroke-dasharray:none;stroke-opacity:1"
       d="M 6838.7593,1600.7321 Z"
       id="path888"
       inkscape:connector-curvature="0" />
    <path
       d="m 2853.4905,1338.6737 -83.0442,55.3628 -36.9085,13.8407 -76.1239,-11.5339 -36.9085,-29.9882 -34.6018,-32.295 2.3068,-36.9085 32.295,-57.6696 136.1002,-129.1798 66.8967,-53.056 36.8664,-73.2516 m 890.4605,112.4669 -168.3951,25.3746 -113.0324,53.056 -186.8494,119.9527 -226.0649,147.6341 -50.7493,20.7611 -48.4424,6.9203 h -55.3628 l -39.2153,-9.2271 -29.9882,-34.6018 v -29.9881 l 20.7611,-57.6696 73.817,-85.351 147.6343,-96.8849 133.7934,-59.9763 145.3274,-36.9086 143.0205,-25.3746 89.9645,-36.9085 32.295,-46.6782 m -14.6093,462.4117 -126.1045,13.3281 -85.3509,-4.6135 -32.295,-29.9882 -9.2271,-32.295 9.2271,-6.9203 115.3391,-55.3628 101.4985,-59.9764 103.8052,-66.8967 69.2035,-73.817 122.2595,-20.7611 166.0884,-34.6017 m -1011.9556,-448.43884 -75.1743,31.955 -40.3385,38.505 -45.8393,34.8378 -44.0056,31.17073 -47.6728,22.0028 -137.5178,69.6757 -67.8421,42.1721 -77.0099,64.17491 -3.6671,18.3357 25.67,31.1707 71.5092,27.5036 77.0099,11.0014 104.5135,-11.0014 93.512,-20.1693 126.5163,-49.5064 106.3473,-49.50641 c 0,0 55.0071,-14.6685 93.512,-12.835 38.505,1.8336 159.5206,11.0015 159.5206,11.0015 l 157.687,31.17061 91.6785,25.67 44.0057,22.0029 66.0085,31.1706 55.0071,14.6686 80.677,14.6686 130.1835,9.1678 93.512,16.5021 67.8421,23.8364 47.6728,12.835 18.3357,18.3357 12.835,29.3371 9.1678,18.3357 144.8521,-60.5078 113.6813,-33.0042 m -258.5334,93.512 -299.3464,134.7683 -371.3921,147.6341 -207.6105,124.5663 -89.9645,62.2831 -16.1475,27.6814 49.2337,139.3317 m 3722.743,-299.4715 -40.8378,21.9896 -91.0997,47.1205 -37.6964,43.9792 m 60.5335,-692.0685 -57.3921,114.0567 -53.4033,94.241 -15.7069,103.6652 -53.4032,97.3824 -47.1205,103.6652 -6.2828,72.2514 -9.4241,109.9479 12.5655,53.4033 91.0997,28.2723 109.9479,21.9896 94.241,25.131 78.5342,-6.2828 97.3825,-78.5342 78.5342,-147.6443 18.8482,-87.9583 -18.8482,-28.2723 h -34.5551 l -47.1205,18.8482 -113.0893,59.686 -15.7068,25.1309 -3.1414,31.4137 9.4241,59.686 m -6010.76,-1002.81674 -10.5057,-59.81 c 0,0 -32.37926,-82.747 -106.1321,-111.5285 -73.75272,-28.7816 -246.4421,-170.8905 -375.95913,-86.3448 -129.51693,84.546 -329.18917,86.3448 -329.18917,86.3448 0,0 -122.767947,6.8993 -182.1299001953015,11.8461 M 1005.98,1446.9431 l 220.8503,70.1768 90.817,37.1524 82.561,37.1524 37.1523,30.9604 c 0,0 14.4482,10.3201 49.5366,2.064 35.0883,-8.2562 167.1858,-49.5366 167.1858,-49.5366 l -72.2408,-99.073 -117.6493,-123.8414 -148.6095,-113.5211 -210.5303,-103.2012 -82.5609,-41.2804 -51.60057,-14.4482 L 787.19358,928.8736 727.33698,864.88899 632.392,724.53529 c 0,0 -24.76831,-18.57603 -4.12804,-39.21633 20.64017,-20.6402 86.68892,-103.2011 86.68892,-103.2011 l -115.58526,-4.1281 M -1.953124e-7,1620.2734 89.55399,1661.6015 c 0,0 24.76831,16.5121 55.72866,-2.064 30.96036,-18.5763 68.11267,-41.2805 68.11267,-41.2805 0,0 37.1526,-12.3842 63.98483,2.064 26.83233,14.4483 57.79268,20.6402 57.79268,20.6402 0,0 51.60053,14.4482 74.30472,0 22.70429,-14.4481 117.64937,-97.0091 117.64937,-97.0091 0,0 8.25597,-8.2559 45.40848,0 37.15231,8.2562 249.74667,30.9604 249.74667,30.9604 l 80.49677,-8.256 26.83233,-12.3842 76.36883,-107.3292 -171.31383,-90.8169 m 819.41683,218.7863 80.4968,26.8324 224.9784,35.0883 328.1795,47.4725 663.3764,62.382 368.8467,43.9963 h 241.3781 l 175.4137,-19.7777 141.7666,-45.4723 235.386,-139.0917 318.306,-106.9936 302.257,-85.5949 104.3188,-56.1717 24.0736,-53.4968 50.822,-77.5704 m 1969.0559,494.741 -50.2619,97.3824 -15.7068,84.8169 12.5655,59.686 47.1205,43.9792 m -1648.4908,-717.9317 6.6366,-77.379 -23.3427,-125.467 m -209.3066,233.7916 92.443,-35.6322 65.6132,-2.3433 67.9565,7.0299 194.4962,70.2999 346.8126,142.943 164.0329,72.6432 135.913,105.4497 215.5862,86.7031 276.5127,157.003 260.1094,72.6432 276.5127,28.1199 147.6297,4.6867 278.856,-39.8366 213.2429,-84.3598 110.1364,-58.5832 82.0165,-21.09 171.0629,-2.3433 152.3163,2.3433 208.5562,44.5233 185.1229,77.3298 262.4528,117.1664 162.6668,51.6031 -4.8585,-758.4 -136.6509,-9.5716 -521.4885,-7.8223 -305.0708,-2.6074 -182.521,-18.2521 -101.6902,-26.0745 -106.9052,-41.719 -140.8019,-49.5415 -135.587,-75.6158 -135.587,-62.5786 -143.4093,-49.5414 -99.0829,-28.6819 -75.6158,-13.0372 -18.2521,-26.0744 -65.1861,-18.2521 -203.3805,-31.28931 -179.9135,-7.8224 -255.5294,-49.5414 -239.8847,-36.5042 -208.5954,-39.1116 -122.5498,-20.8595 -146.0167,-28.68193 -250.3145,-70.401 -172.0912,-26.0744 -151.2317,-10.4297 -365.0419,5.2148 -273.7815,2.6075 -179.9135,-15.6447 -80.8308,-15.6446 -159.054,2.6074 -127.7646,13.0372 -146.0168,2.6075 -140.8019,15.6446 -164.2689,7.8224 -229.4549,-5.2149 -148.6243,-13.0372 -226.8475,-13.0373 -232.0624,-15.6446 -288.0816,-16.3648 -227.0424,2.064 -237.3626,10.3201 -427.2525,2.064 -119.7134,14.4481 -103.201,2.0642 -88.753,2.0639 -59.85661,14.4481 H 828.47412 l -113.52124,-8.256 m 4375.26922,565.55054 -40.1226,85.5949 -48.1472,66.871 -61.5213,29.4233 -56.1717,2.6748 -45.4723,5.3497"
       style="display:inline;fill:none;stroke:#00000f;stroke-width:24;stroke-linecap:round;stroke-linejoin:round;stroke-miterlimit:4;stroke-dasharray:none;stroke-opacity:1"
       id="path844"
       inkscape:connector-curvature="0"
       sodipodi:nodetypes="ccccccccccccccccccccccccccccccccccccccccccccccccccccccccccccccccccccccccccccccccccccccccccccccccccccccccccccccccccccccccccccccccccccscccccccccccccccccccccccccccccccccccccccccccccccccccccccccccccccccccccccccccccccccccccccccccccccccccccccccccccccccccc" />
    <path
       sodipodi:nodetypes="ccccccccccccccccccccccccccccccccccccccccccccccccccccccccccccccccccccccccccccccccccccccccccccccccccccccccc"
       inkscape:connector-curvature="0"
       d="M -1.953124e-7,310.83336 C 59.361956,305.88656 182.46919,307.24996 182.46919,307.24996 c 0,0 199.67231,-1.7988 329.18931,-86.3448 129.517,-84.54566 302.2064,57.5632 375.9591,86.3448 73.75281,28.7815 152.8914,99.5048 152.8914,99.5048 l 44.5963,75.6667 60.6671,-4.183 c 22.3157,-8.1626 64.7516,-9.3583 67.1364,-11.7939 l 103.0142,-6.4322 427.252,-2.064 237.363,-10.3201 227.042,-2.064 288.082,16.3648 232.062,15.6446 226.848,13.0373 148.6241,13.0372 229.455,5.2149 164.269,-7.8224 140.802,-15.6446 146.016,-2.6075 127.765,-13.0372 159.054,-2.6074 80.831,15.6446 179.913,15.6447 273.782,-2.6075 365.042,-5.2148 151.231,10.4297 172.092,26.0744 250.314,70.401 146.017,28.6819 122.55,20.8595 208.595,39.1116 239.885,36.50423 255.529,49.5414 179.914,7.8224 203.38,31.2893 65.186,18.2521 c 19.182,9.4186 55.7695,32.5429 93.868,39.1116 l 99.083,28.6819 143.409,49.54141 135.587,62.5786 135.587,75.6158 140.802,49.5414 106.905,41.719 101.691,26.0745 182.521,18.2521 305.07,2.6074 521.489,7.8223 221.469,15.2373 3.5288,978.1142 -243.8903,-79.4693 -262.452,-117.1664 -185.123,-77.3298 -208.556,-44.5233 -152.317,-2.3433 -171.063,2.3433 -82.016,21.09 -110.137,58.5832 -213.242,84.3598 -278.856,39.8366 -147.63,-4.6867 -288.4365,-32.0935 -260.109,-72.6432 -276.513,-157.003 -215.586,-86.7031 -135.913,-105.4497 -152.1095,-68.6696 -346.813,-142.943 -194.496,-70.2999 -67.956,-7.0299 -65.614,2.3433 -82.5182,28.6201 -71.4458,36.4354 -56.172,2.6748 -45.4719,5.3497 -104.3191,56.1717 -302.257,85.5949 -318.306,114.9936 -235.386,131.0917 -141.766,45.4723 -175.414,19.7777 h -241.378 l -368.8471,-43.9963 -663.376,-62.382 -328.18,-47.4725 -224.978,-35.0883 -80.4968,-20.8324 c 0,0 -132.0972,35.2804 -167.1862,43.5366 -35.088,8.2561 -49.536,-2.064 -49.536,-2.064 l -37.152,-30.9604 -82.561,-37.1524 -90.817,-37.1524 -187.6141,-61.1122 -69.60538,98.2646 -26.8324,12.3842 -120.49671,8.256 c 0,0 -212.5944,-22.7042 -249.7467,-30.9604 0,0 -63.39325,54.4041 -121.48683,98.075 -22.7041,14.4482 -115.87587,-1.0659 -115.87587,-1.0659 0,0 -22.9452,-1.0402 -49.77751,-15.4885 -26.8323,-14.4482 -72,-3.5359 -72,-3.5359 0,0 -37.1523,19.0244 -68.1126,37.6007 -30.9604,18.5761 -55.72871,2.064 -55.72871,2.064 L -1.953124e-7,1720.4974 Z"
       style="display:inline;fill:none;stroke:#000002;stroke-width:4.8;stroke-linecap:round;stroke-linejoin:round;stroke-miterlimit:4;stroke-dasharray:none;stroke-opacity:1"
       id="path885" />
  </g>
</svg>
